<?xml version="1.0" encoding="UTF-8"?>
<svg id="Layer_1" data-name="Layer 1" xmlns="http://www.w3.org/2000/svg" viewBox="0 0 1525 663.75">
  <defs>
    <style>
      .cls-1, .cls-2, .cls-3 {
        fill: #002e5d;
      }

      .cls-1, .cls-4 {
        font-family: CascadiaMonoPL-SemiBold, 'Cascadia Mono PL';
        font-size: 23px;
        font-weight: 600;
      }

      .cls-5, .cls-6, .cls-7, .cls-8, .cls-3, .cls-9, .cls-10, .cls-11, .cls-12 {
        stroke-width: 0px;
      }

      .cls-5, .cls-13, .cls-10, .cls-4 {
        fill: #00c389;
      }

      .cls-2, .cls-13 {
        stroke: #002e5d;
        stroke-linecap: round;
        stroke-linejoin: round;
        stroke-width: 1.5px;
      }

      .cls-6 {
        opacity: .7;
      }

      .cls-6, .cls-9, .cls-11 {
        fill: #768692;
      }

      .cls-7 {
        fill: #326ce5;
      }

      .cls-8 {
        fill: #d9e1e2;
      }

      .cls-14 {
        stroke: #fff;
      }

      .cls-14, .cls-15 {
        stroke-width: 4px;
      }

      .cls-14, .cls-15, .cls-16, .cls-17 {
        fill: none;
        stroke-miterlimit: 10;
      }

      .cls-15, .cls-17 {
        stroke: #d9e1e2;
      }

      .cls-16 {
        stroke: #00c389;
        stroke-dasharray: 0 0 31.57 6.31;
        stroke-width: 3.16px;
      }

      .cls-9 {
        opacity: .3;
      }

      .cls-10, .cls-18, .cls-11 {
        opacity: .5;
      }

      .cls-19 {
        opacity: .8;
      }

      .cls-17 {
        stroke-dasharray: 0 0 8.38 4.19;
        stroke-width: 4.19px;
      }

      .cls-12 {
        fill: #fff;
      }
    </style>
  </defs>
  <rect class="cls-5" x="440" y="388.17" width="205" height="205" rx="10" ry="10"/>
  <rect class="cls-5" x="0" y="388.17" width="205" height="205" rx="10" ry="10"/>
  <rect class="cls-11" x="0" y="220.24" width="645" height="150" rx="8.64" ry="8.64"/>
  <rect class="cls-10" x="0" width="1525" height="200" rx="10.02" ry="10.02"/>
  <rect class="cls-5" x="220" y="388.17" width="205" height="205" rx="10" ry="10"/>
  <rect class="cls-5" x="660" y="388.17" width="205" height="205" rx="10" ry="10"/>
  <rect class="cls-5" x="880" y="388.17" width="205" height="205" rx="10" ry="10"/>
  <rect class="cls-5" x="1100" y="388.17" width="205" height="205" rx="10" ry="10"/>
  <rect class="cls-5" x="1320" y="388.17" width="205" height="205" rx="10" ry="10"/>
  <g class="cls-18">
    <rect class="cls-17" x="12.5" y="99.18" width="180" height="481.49" rx="2" ry="2"/>
  </g>
  <g class="cls-18">
    <rect class="cls-17" x="232.5" y="99.18" width="180" height="481.49" rx="2" ry="2"/>
  </g>
  <g class="cls-18">
    <rect class="cls-17" x="452.5" y="99.18" width="180" height="481.49" rx="2" ry="2"/>
  </g>
  <g class="cls-18">
    <rect class="cls-17" x="672.5" y="99.18" width="180" height="481.49" rx="2" ry="2"/>
  </g>
  <g class="cls-18">
    <rect class="cls-17" x="892.5" y="99.18" width="180" height="481.49" rx="2" ry="2"/>
  </g>
  <g class="cls-18">
    <rect class="cls-17" x="1112.5" y="99.18" width="180" height="481.49" rx="2" ry="2"/>
  </g>
  <g class="cls-18">
    <rect class="cls-17" x="1332.5" y="99.18" width="180" height="481.49" rx="2" ry="2"/>
  </g>
  <g>
    <path class="cls-12" d="M793.91,58.35h-4.13v-11.67c0-.76-.07-1.52-.23-2.26-.39-2.11-2.42-3.49-4.53-3.1-.77.14-1.47.52-2.03,1.07-1.29,1.16-2,2.82-1.95,4.55v11.43h-4.08v-11.6c0-.71-.05-1.41-.18-2.1-.15-1.53-1.25-2.8-2.75-3.17-1.65-.43-3.39.18-4.42,1.53-.82.96-1.28,2.17-1.33,3.43-.07,1.78,0,3.56-.07,5.35-.07,1.79,0,3.94,0,5.91v.69h-4.13v-20.44h2.6c.15,0,.34.24.39.41.22.68.4,1.39.61,2.18,1.58-1.93,3.95-3.06,6.45-3.06,2.54-.06,4.89,1.31,6.08,3.55l.49-.59c2.44-3.09,6.81-3.86,10.15-1.79,2,1.32,3.19,3.56,3.17,5.95.11,4.51,0,9.03,0,13.56-.02.07-.05.13-.1.19"/>
    <path class="cls-12" d="M709.52,51.79c.44-1.3.84-2.43,1.22-3.65,1.08-3.2,2.18-6.38,3.22-9.59.08-.42.48-.69.9-.62h3.51c-.43,1.29-.83,2.43-1.22,3.65-1.78,5.43-3.56,10.86-5.36,16.29-.15.43-.33.6-.79.57h-2.3c-.32.06-.63-.14-.72-.46-1.58-3.75-3.18-7.5-4.79-11.25-.07-.18-.16-.35-.3-.64l-1.43,3.4c-1.19,2.76-2.37,5.56-3.54,8.38-.16.36-.32.55-.74.52-.79-.05-1.57-.05-2.36,0-.44,0-.58-.17-.72-.54-2.05-6.19-4.13-12.36-6.24-18.52l-.45-1.39h4.07c.12,0,.3.27.36.45,1.26,3.7,2.51,7.41,3.75,11.13.22.67.45,1.33.72,2.1.15-.3.24-.49.33-.68,1.78-4.05,3.54-8.15,5.3-12.28.19-.49.49-.52.91-.54s.73.07.92.54c1.8,4.13,3.54,8.26,5.37,12.31l.36.81Z"/>
    <path class="cls-12" d="M740.67,58.34h-3.31l-.43-2.43c-2.51,2.42-6.06,3.44-9.47,2.75-2.47-.39-4.7-1.69-6.25-3.65-3.21-4.24-3.01-10.14.47-14.15,4.15-4.31,11.01-4.44,15.32-.29h0c.15-.75.29-1.42.4-2.09,0-.34.19-.47.56-.46h2.29c.33,0,.47.07.47.44v19.76s-.04.02-.06.13M723.2,48.15c0,3.69,2.99,6.69,6.69,6.69s6.69-2.99,6.69-6.69-2.99-6.69-6.69-6.69-6.69,2.99-6.69,6.69"/>
    <path class="cls-12" d="M890.55,41.25v-9.22h2.52v26.37h-1.95l-.39-3.33c-2.22,2.68-5.62,4.1-9.09,3.78-2.59-.12-5.02-1.25-6.78-3.14-3.65-4.14-3.78-10.3-.3-14.59,1.32-1.52,3.07-2.6,5.02-3.1,1.92-.52,3.93-.52,5.85,0,1.99.54,3.78,1.66,5.13,3.22M882.69,56.4c4.38.06,7.99-3.44,8.05-7.83,0-.12,0-.25,0-.37.14-4.45-3.35-8.17-7.8-8.31-4.45-.14-8.17,3.35-8.31,7.8,0,.21,0,.41,0,.62-.11,4.36,3.34,7.98,7.69,8.08.12,0,.25,0,.37,0"/>
    <path class="cls-12" d="M826.89,48.26c0-5.92,4.8-10.72,10.73-10.72,5.92,0,10.72,4.8,10.72,10.72,0,5.92-4.81,10.72-10.73,10.72-5.92,0-10.72-4.8-10.72-10.72M837.63,56.4c4.37.12,8.01-3.33,8.12-7.7,0-.17,0-.33,0-.49,0-4.49-3.64-8.13-8.13-8.13s-8.13,3.64-8.13,8.13c-.17,4.36,3.22,8.02,7.58,8.19.19,0,.38,0,.57,0"/>
    <path class="cls-12" d="M818.05,44.64h-2.13c-.19,0-.44-.26-.56-.45-2.15-3.85-7-5.23-10.85-3.08-2.84,1.58-4.43,4.72-4.03,7.95.32,4.37,4.13,7.64,8.49,7.32,1.56-.12,3.05-.69,4.29-1.65.77-.68,1.44-1.48,1.98-2.36.21-.43.66-.67,1.13-.62h1.66c-.19,3.54-4.95,7.04-9.62,7.14-5.57.12-10.23-4.17-10.58-9.73-.59-5.5,3.22-10.51,8.68-11.41,5.28-.84,10.39,2.16,11.53,6.89"/>
    <path class="cls-12" d="M851.3,38.09h2.52v11.19c0,1.01.13,2.01.4,2.98,1.17,3.26,4.75,4.95,8.01,3.78,1.82-.65,3.23-2.1,3.83-3.94.24-.93.36-1.88.36-2.83v-11.15h2.6v.78c0,3.59.06,7.17,0,10.75-.01,1.38-.24,2.74-.67,4.05-1.33,3.46-4.82,5.59-8.51,5.2-5.26-.27-8.45-3.51-8.51-8.78-.06-3.82,0-7.65,0-11.48-.02-.18-.03-.36-.04-.55"/>
    <rect class="cls-12" x="821.61" y="32.05" width="2.43" height="26.35"/>
    <path class="cls-12" d="M756.68,46.93c-.47-.17-.95-.3-1.43-.4-1.22-.24-2.43-.43-3.65-.69-.75-.15-1.47-.39-2.16-.71-.91-.42-1.31-1.51-.89-2.42.09-.19.21-.37.36-.52.31-.34.69-.61,1.12-.79,1.38-.55,2.92-.55,4.3,0,.99.33,1.7,1.21,1.81,2.25v.07c.01.07.07.13.15.13l3.19-.96c.27-.08.43-.35.36-.62-.3-1.27-1.06-2.38-2.13-3.11-2.61-1.89-6.01-2.31-9-1.11-2.85,1.02-4.63,3.86-4.3,6.87.32,1.92,1.76,3.47,3.65,3.93,1.47.46,3.02.69,4.51,1.07.92.18,1.82.47,2.69.84,1.01.49,1.43,1.7.94,2.71-.13.28-.33.52-.58.72-.36.3-.77.53-1.22.68-1.23.43-2.56.46-3.81.1-1.22-.25-2.19-1.17-2.52-2.37-.02-.09-.04-.18-.07-.27-.01-.07-.07-.13-.15-.13l-3.28.98c-.27.08-.43.36-.35.63t0,0c.42,1.55,1.44,2.86,2.83,3.65,2.92,1.67,6.45,1.87,9.53.52,1.93-.69,3.36-2.33,3.78-4.34.64-2.85-.94-5.73-3.7-6.71"/>
    <path class="cls-12" d="M675.18,34.27l-19.19-11.2c-1.05-.62-2.35-.62-3.39,0l-19.19,11.2c-.92.54-1.48,1.52-1.48,2.59v22.58c0,1.09.58,2.09,1.52,2.64l19.15,11.19c1.03.59,2.29.59,3.32,0l19.19-11.19c.94-.55,1.52-1.55,1.52-2.64v-22.58c0-1.06-.54-2.04-1.45-2.59M670.91,56.48c0,.21-.11.4-.29.51l-16.03,9.4c-.09.06-.2.09-.3.09-.1,0-.2-.03-.29-.09l-15.99-9.4c-.19-.11-.3-.31-.29-.52v-16.62c0-.21.11-.41.29-.52l5.78-3.33c.29-.16.66-.05.83.24.04.08.07.18.07.27v15.53l5.23-3.05v-16.28c-.01-.2.09-.4.26-.51l3.83-2.27c.19-.1.41-.1.6,0l3.79,2.23c.18.11.29.3.29.51v16.33l5.23,3.04v-15.6c.01-.33.29-.6.63-.58.09,0,.19.03.27.08l5.81,3.43c.18.1.3.3.29.51v16.63Z"/>
  </g>
  <g>
    <path class="cls-12" d="M300.17,259.78h2.41v1.91h-2.41v-1.91Z"/>
    <path class="cls-7" d="M328.37,258.21c-.06-.01-.13-.02-.19-.01-.11,0-.22.03-.32.08-.41.2-.59.68-.41,1.1h0s1.94,4.69,1.94,4.69c1.85-1.18,3.26-2.95,4-5.02l-4.99-.84h0ZM320.6,258.87c-.09-.38-.42-.65-.81-.66-.06,0-.11,0-.17.01h0s-4.95.83-4.95.83c.74,2.05,2.14,3.81,3.98,4.98l1.92-4.63v-.02c.06-.16.07-.35.03-.52ZM324.74,260.69c-.22-.41-.73-.57-1.14-.34-.15.08-.27.2-.35.35h0l-2.43,4.4c1.74.59,3.61.69,5.41.28.33-.08.66-.17.97-.27l-2.44-4.41h-.02ZM332.44,250.47l-3.74,3.35h0c-.35.32-.39.85-.08,1.2.11.12.25.21.41.26v.02s4.85,1.4,4.85,1.4c.21-2.18-.3-4.37-1.44-6.23ZM325.49,250.84c.02.47.42.83.88.81.17,0,.33-.06.46-.16h.01s4.1-2.9,4.1-2.9c-1.56-1.53-3.58-2.5-5.74-2.77l.28,5.02h0ZM321.15,251.51c.38.27.91.19,1.18-.19.1-.13.15-.29.16-.46h.02s.28-5.04.28-5.04c-.34.04-.68.1-1.02.18-1.8.4-3.44,1.3-4.75,2.59l4.12,2.92h0ZM318.96,255.31c.45-.12.72-.59.59-1.04-.04-.16-.13-.31-.26-.42v-.02s-3.76-3.37-3.76-3.37c-1.15,1.87-1.64,4.07-1.4,6.25l4.82-1.39v-.02ZM322.61,256.78l1.39.67,1.38-.67.34-1.49-.96-1.2h-1.54l-.96,1.2.34,1.5Z"/>
    <path class="cls-7" d="M346.95,259.73l-3.96-17.18c-.22-.9-.82-1.66-1.66-2.06l-16.01-7.65c-.84-.4-1.82-.4-2.66,0l-16.01,7.65c-.83.4-1.44,1.16-1.66,2.06l-3.95,17.18c-.1.43-.1.88,0,1.32.03.13.07.26.11.39.08.22.18.43.3.62.05.08.11.16.17.24l11.08,13.78c.05.06.1.11.15.17.17.19.37.35.58.48.27.17.57.3.88.38.25.07.52.11.78.11h17.77c.11,0,.21-.01.32-.02.15-.02.3-.05.45-.09.11-.03.21-.06.31-.1.08-.03.16-.06.24-.1.12-.06.23-.12.34-.19.28-.18.53-.4.74-.65l.34-.42,10.74-13.36c.21-.26.37-.55.48-.86.05-.13.08-.26.11-.39.1-.43.1-.88,0-1.32h0ZM330.34,266.41c.04.13.1.26.16.39-.1.17-.12.37-.07.57.23.53.52,1.04.85,1.52.19.24.36.5.51.76.04.07.09.18.13.26.27.46.13,1.05-.33,1.32-.46.27-1.05.13-1.32-.33-.03-.05-.06-.11-.08-.17-.04-.08-.09-.17-.12-.25-.11-.29-.2-.58-.28-.88-.17-.56-.39-1.1-.66-1.61-.12-.16-.29-.27-.49-.3-.03-.05-.14-.26-.21-.37-2.85,1.08-6,1.07-8.84-.02l-.22.39c-.15.02-.3.09-.41.2-.33.54-.58,1.12-.74,1.72-.08.3-.17.59-.28.88-.03.07-.08.17-.12.24h0s0,0,0,0c-.18.5-.73.76-1.23.58-.5-.18-.76-.73-.58-1.23.02-.06.05-.12.08-.17.04-.08.08-.19.12-.26.16-.26.33-.52.51-.77.34-.49.63-1.01.87-1.56.03-.19,0-.37-.09-.54l.17-.42c-2.62-1.55-4.59-4-5.53-6.9l-.42.07c-.16-.11-.35-.18-.55-.19-.57.11-1.13.27-1.67.49-.28.13-.57.24-.86.33-.07.02-.17.04-.25.06,0,0-.01,0-.02,0,0,0,0,0-.01,0-.5.17-1.05-.11-1.21-.61-.17-.5.11-1.05.61-1.21.06-.02.12-.03.18-.04h.01s0,0,0,0c.08-.02.18-.05.26-.06.3-.04.61-.07.92-.07.58-.04,1.16-.13,1.72-.28.17-.11.31-.25.41-.42l.4-.12c-.44-3.02.26-6.1,1.96-8.65l-.31-.27c-.01-.2-.08-.39-.19-.55-.44-.38-.92-.71-1.43-1-.27-.14-.54-.29-.79-.46-.06-.04-.14-.11-.2-.16h-.01c-.45-.34-.56-.97-.24-1.42.19-.23.47-.35.76-.34.24.01.48.1.67.25.07.05.15.12.21.17.22.21.43.43.63.67.39.43.82.82,1.29,1.17.18.09.38.11.57.06.05.04.24.17.35.25,1.68-1.79,3.86-3.04,6.26-3.58.57-.13,1.15-.22,1.73-.27l.02-.41c.15-.13.26-.3.31-.5.02-.58-.01-1.16-.11-1.74-.06-.3-.1-.61-.13-.91,0-.07,0-.17,0-.25,0,0,0-.02,0-.03-.05-.53.33-1,.86-1.06s1,.33,1.06.86c0,.06,0,.13,0,.19,0,.08,0,.2,0,.27-.03.31-.07.61-.13.91-.09.57-.13,1.16-.11,1.74.04.19.15.37.31.48,0,.07.01.3.02.43,3.03.28,5.86,1.64,7.96,3.84l.36-.26c.2.03.4.01.58-.06.47-.35.9-.74,1.29-1.17.2-.24.41-.46.63-.67.06-.05.15-.12.21-.17.38-.37.99-.37,1.36,0,.37.38.37.99,0,1.36-.05.05-.1.09-.16.13-.06.05-.15.12-.21.17-.26.17-.52.33-.8.46-.51.29-.98.62-1.43,1-.13.15-.19.35-.18.54-.05.05-.24.21-.34.3,1.7,2.53,2.41,5.6,2,8.63l.39.11c.1.17.24.32.41.42.56.15,1.14.24,1.72.28.31,0,.61.03.92.07.08.01.2.05.28.07.53.07.9.55.83,1.08s-.55.9-1.08.83c-.06,0-.12-.02-.17-.04h-.01s-.01,0-.02,0c-.08-.02-.18-.03-.25-.05-.29-.09-.58-.2-.86-.33-.54-.22-1.1-.38-1.67-.49-.2,0-.39.07-.54.2-.14-.03-.27-.05-.41-.07-.93,2.92-2.89,5.39-5.52,6.95h0Z"/>
    <path class="cls-12" d="M349.04,260.17l-4.32-18.75c-.24-.98-.9-1.81-1.81-2.25l-17.47-8.34c-.92-.44-1.98-.44-2.9,0l-17.47,8.35c-.91.44-1.57,1.26-1.81,2.25l-4.31,18.75c-.2.87-.03,1.79.45,2.54.06.09.12.18.19.26l12.09,15.03c.64.78,1.6,1.24,2.61,1.25h19.39c1.01-.01,1.97-.47,2.61-1.25l12.09-15.04c.63-.79.86-1.82.65-2.8h0ZM346.95,261.05c-.03.13-.07.26-.11.39-.11.31-.27.6-.48.86l-10.74,13.36-.34.42c-.21.26-.46.48-.74.65-.11.07-.22.13-.33.19-.08.04-.16.07-.24.1-.1.04-.21.07-.31.1-.15.04-.3.07-.45.09-.11.01-.21.02-.32.02h-17.6s-.17,0-.17,0c-.26,0-.52-.04-.78-.11-.31-.08-.6-.21-.88-.38-.21-.14-.41-.3-.58-.48-.05-.06-.11-.11-.15-.17l-11.08-13.78c-.06-.08-.12-.16-.17-.24-.13-.19-.23-.4-.3-.62-.05-.13-.08-.26-.11-.39-.1-.43-.1-.88,0-1.32l3.95-17.18c.22-.9.82-1.66,1.66-2.06l16.01-7.65c.84-.4,1.82-.4,2.66,0l16.01,7.65c.83.4,1.44,1.16,1.66,2.06l3.96,17.18c.1.43.1.88,0,1.32h0Z"/>
    <path class="cls-12" d="M340.05,258.35c-.08-.02-.2-.05-.28-.07-.3-.04-.61-.07-.92-.07-.58-.04-1.16-.13-1.72-.28-.17-.1-.32-.24-.41-.42l-.39-.11c.41-3.02-.3-6.09-2-8.63.1-.09.29-.26.34-.3-.01-.2.05-.39.18-.54.44-.38.92-.71,1.43-1,.27-.14.54-.29.8-.46.06-.05.15-.12.21-.17.45-.29.58-.88.3-1.33-.29-.45-.88-.58-1.33-.3-.06.04-.11.08-.16.13-.07.05-.15.12-.21.17-.22.21-.44.43-.63.67-.39.43-.82.82-1.29,1.17-.18.07-.39.1-.58.06l-.36.26c-2.1-2.2-4.93-3.57-7.96-3.84,0-.13-.02-.36-.02-.43-.16-.11-.27-.28-.31-.48-.02-.58.02-1.16.11-1.74.06-.3.1-.61.13-.91,0-.08,0-.19,0-.27.05-.53-.33-1-.86-1.06-.53-.05-1,.33-1.06.86,0,.06,0,.13,0,.19,0,0,0,.02,0,.03,0,.08,0,.18,0,.25.03.31.07.61.13.91.09.57.13,1.16.11,1.74-.05.19-.16.36-.31.5l-.02.41c-.58.05-1.16.14-1.73.27-2.4.54-4.58,1.79-6.26,3.58-.12-.08-.23-.16-.35-.25-.19.06-.39.04-.57-.06-.47-.35-.9-.74-1.29-1.17-.2-.24-.41-.46-.63-.67-.06-.05-.15-.12-.21-.17-.19-.15-.42-.24-.67-.25-.29-.02-.58.11-.76.34-.32.46-.22,1.09.24,1.41h.01c.06.06.14.13.2.17.26.17.52.33.79.46.51.29.98.62,1.43,1,.11.16.18.35.19.55l.31.27c-1.69,2.54-2.39,5.62-1.96,8.65l-.4.12c-.1.17-.25.31-.41.42-.56.15-1.14.24-1.72.28-.31,0-.61.03-.92.07-.07.01-.18.04-.26.06h0s-.01,0-.01,0c-.53.07-.9.55-.83,1.08s.55.9,1.08.83c.06,0,.12-.02.17-.04h.01s.01,0,.02,0c.08-.02.18-.04.25-.06.29-.09.58-.2.86-.33.54-.22,1.1-.38,1.67-.49.2.01.39.08.55.19l.42-.07c.94,2.9,2.9,5.35,5.53,6.9l-.17.42c.08.17.11.36.09.54-.24.55-.53,1.07-.87,1.56-.19.25-.36.5-.51.77-.04.07-.09.18-.12.26-.27.46-.13,1.05.33,1.32.46.27,1.05.13,1.32-.33.03-.05.06-.11.08-.17h0c.04-.08.09-.18.12-.25.11-.29.2-.58.28-.88.17-.61.42-1.19.74-1.72.11-.11.26-.18.41-.2l.22-.39c2.85,1.09,5.99,1.1,8.84.02.06.11.17.32.2.37.2.03.37.14.49.3.27.51.49,1.05.66,1.61.08.3.17.59.28.88.03.07.08.17.12.25.18.5.73.76,1.23.58.5-.18.76-.73.58-1.23-.02-.06-.05-.12-.08-.17-.04-.08-.09-.19-.12-.26-.16-.26-.33-.52-.51-.76-.33-.48-.62-.99-.85-1.52-.05-.19-.02-.39.07-.57-.06-.13-.11-.25-.16-.39,2.63-1.56,4.6-4.03,5.52-6.95.12.02.34.06.41.07.15-.13.34-.21.54-.2.57.11,1.13.27,1.67.49.28.13.57.24.86.33.07.02.17.04.25.05,0,0,.01,0,.02,0h.01c.5.17,1.05-.11,1.21-.61.17-.5-.11-1.05-.61-1.21-.06-.02-.11-.03-.17-.04h0ZM330.94,248.59l-4.1,2.9h-.01c-.37.26-.88.19-1.16-.16-.11-.14-.18-.31-.18-.49h0s-.28-5.02-.28-5.02c2.17.27,4.18,1.24,5.74,2.77ZM323.23,254.09h1.54l.96,1.2-.34,1.49-1.38.67-1.39-.67-.34-1.5.96-1.2ZM321.78,246c.34-.08.68-.13,1.02-.18l-.29,5.03h-.02c-.02.48-.41.84-.88.82-.17,0-.33-.06-.46-.16h0s-4.12-2.92-4.12-2.92c1.31-1.29,2.96-2.19,4.75-2.59ZM315.53,250.47l3.76,3.37v.02c.35.31.38.84.08,1.19-.11.13-.25.22-.41.26v.02s-4.83,1.39-4.83,1.39c-.24-2.18.25-4.38,1.4-6.25ZM320.57,259.41l-1.92,4.63c-1.84-1.18-3.24-2.93-3.98-4.98l4.95-.84h0c.05,0,.11,0,.17,0,.47,0,.84.39.83.86,0,.11-.02.22-.07.32v.02ZM326.23,265.37c-1.79.41-3.67.31-5.41-.28l2.43-4.4h0c.22-.41.73-.57,1.15-.34.15.08.26.2.34.34h.02l2.44,4.41c-.32.11-.64.2-.97.27ZM329.37,264.06l-1.94-4.68h0c-.18-.42,0-.91.41-1.1.1-.05.21-.08.32-.08.07,0,.13,0,.19.01h0s4.99.83,4.99.83c-.74,2.07-2.14,3.84-4,5.02ZM333.89,256.7l-4.85-1.4v-.02c-.45-.12-.72-.59-.6-1.04.04-.16.13-.3.26-.41h0s3.74-3.36,3.74-3.36c1.15,1.86,1.65,4.05,1.44,6.23Z"/>
  </g>
  <path class="cls-3" d="M367.5,436.17v40.69h-3v-1.95c-.48.17-.99.26-1.5.26h-21v-3h21c.4,0,.78-.16,1.06-.44.28-.28.44-.66.44-1.06v-7.76c-.48.17-.99.26-1.5.26h-21v-3h21c.4,0,.78-.16,1.06-.44.28-.28.44-.66.44-1.06v-7.76c-.48.17-.99.26-1.5.26h-21v-3h21c.4,0,.78-.16,1.06-.44.28-.28.44-.66.44-1.06v-10.5c0-.4-.16-.78-.44-1.06-.28-.28-.66-.44-1.06-.44h-21v-3h21c1.19,0,2.34.48,3.18,1.32.84.84,1.32,1.99,1.32,3.18h0ZM345,454.17h-3v3h3v-3ZM348,454.17v3h13.5v-3h-13.5ZM345,466.17h-3v3h3v-3ZM348,466.17v3h13.5v-3h-13.5ZM364.5,480.05v2.62c0,.4-.16.78-.44,1.06-.28.28-.66.44-1.06.44h-21v3h21c.51,0,1.02-.09,1.5-.26v1.76c0,.4-.16.78-.44,1.06-.28.28-.66.44-1.06.44h-21v3h21c1.19,0,2.34-.48,3.18-1.32.84-.84,1.32-1.99,1.32-3.18v-9h-3v.37ZM345,478.17h-3v3h3v-3ZM348,478.17v3h13.5v-3h-13.5ZM280.5,436.17c0-.4.16-.78.44-1.06.28-.28.66-.44,1.06-.44h21v-3h-21c-1.19,0-2.34.48-3.18,1.32-.84.84-1.32,1.99-1.32,3.18v3.19h3v-3.19ZM303,490.17h-21c-.4,0-.78-.16-1.06-.44-.28-.28-.44-.66-.44-1.06v-1.76c.48.17.99.26,1.5.26h21v-3h-21c-.4,0-.78-.16-1.06-.44-.28-.28-.44-.66-.44-1.06v-7.76c.48.17.99.26,1.5.26h21v-3h-21c-.4,0-.78-.16-1.06-.44-.28-.28-.44-.66-.44-1.06v-7.76c.48.17.99.26,1.5.26h21v-3h-21c-.4,0-.78-.16-1.06-.44-.28-.28-.44-.66-.44-1.06v-7.76c.48.17.99.26,1.5.26h21v-3h-21c-.4,0-.78-.16-1.06-.44-.28-.28-.44-.66-.44-1.06v-4.69h-3v46.69c0,1.19.48,2.34,1.32,3.18.84.84,1.99,1.32,3.18,1.32h21v-3ZM286.5,457.17v-3h-3v3h3ZM303,457.17v-3h-13.5v3h13.5ZM286.5,469.17v-3h-3v3h3ZM303,469.17v-3h-13.5v3h13.5ZM286.5,481.17v-3h-3v3h3ZM303,481.17v-3h-13.5v3h13.5ZM306,494.67v-33h3v3c0,.4.16.78.44,1.06.28.28.66.44,1.06.44h24c.4,0,.78-.16,1.06-.44.28-.28.44-.66.44-1.06v-7.76c-.48.17-.99.26-1.5.26h-24c-.51,0-1.02-.09-1.5-.26v1.95h-3v-28.69c0-1.19.48-2.34,1.32-3.18.84-.84,1.99-1.32,3.18-1.32h24c1.19,0,2.34.48,3.18,1.32.84.84,1.32,1.99,1.32,3.18v64.5c0,1.19-.48,2.34-1.32,3.18-.84.84-1.99,1.32-3.18,1.32h-24c-1.19,0-2.34-.48-3.18-1.32-.84-.84-1.32-1.99-1.32-3.18h0ZM309,440.67c0,.4.16.78.44,1.06.28.28.66.44,1.06.44h24c.4,0,.78-.16,1.06-.44.28-.28.44-.66.44-1.06v-10.5c0-.4-.16-.78-.44-1.06-.28-.28-.66-.44-1.06-.44h-24c-.4,0-.78.16-1.06.44-.28.28-.44.66-.44,1.06v10.5ZM336,452.67v-7.76c-.48.17-.99.26-1.5.26h-24c-.51,0-1.02-.09-1.5-.26v7.76c0,.4.16.78.44,1.06.28.28.66.44,1.06.44h24c.4,0,.78-.16,1.06-.44.28-.28.44-.66.44-1.06h0ZM336,494.67v-1.76c-.48.17-.99.26-1.5.26h-24c-.51,0-1.02-.09-1.5-.26v1.76c0,.4.16.78.44,1.06.28.28.66.44,1.06.44h24c.4,0,.78-.16,1.06-.44.28-.28.44-.66.44-1.06h0ZM309,476.67c0,.4.16.78.44,1.06.28.28.66.44,1.06.44h24c.4,0,.78-.16,1.06-.44.28-.28.44-.66.44-1.06v-7.76c-.48.17-.99.26-1.5.26h-24c-.51,0-1.02-.09-1.5-.26v7.76ZM309,488.67c0,.4.16.78.44,1.06.28.28.66.44,1.06.44h24c.4,0,.78-.16,1.06-.44.28-.28.44-.66.44-1.06v-7.76c-.48.17-.99.26-1.5.26h-24c-.51,0-1.02-.09-1.5-.26v7.76ZM312,451.17h3v-3h-3v3ZM318,451.17h15v-3h-15v3ZM312,460.17v3h3v-3h-3ZM318,460.17v3h15v-3h-15ZM315,472.17h-3v3h3v-3ZM333,472.17h-15v3h15v-3ZM315,484.17h-3v3h3v-3ZM333,484.17h-15v3h15v-3ZM351,496.17h3v15c0,.4-.16.78-.44,1.06-.28.28-.66.44-1.06.44h-25.76c-.42,1.18-1.3,2.13-2.45,2.62-1.14.5-2.44.5-3.59,0-1.14-.5-2.03-1.45-2.45-2.62h-25.76c-.4,0-.78-.16-1.06-.44-.28-.28-.44-.66-.44-1.06v-15h3v13.5h24.26c.46-1.28,1.46-2.29,2.74-2.74v-4.76h3v4.76c1.28.46,2.29,1.46,2.74,2.74h24.26v-13.5ZM324,511.17c0-.4-.16-.78-.44-1.06-.28-.28-.66-.44-1.06-.44s-.78.16-1.06.44c-.28.28-.44.66-.44,1.06s.16.78.44,1.06c.28.28.66.44,1.06.44.4,0,.78-.16,1.06-.44.28-.28.44-.66.44-1.06h0Z"/>
  <g>
    <path class="cls-3" d="M957.16,430.67h-36.06c-2.11,0-4.13.84-5.63,2.33-1.49,1.49-2.33,3.52-2.33,5.63v64.09c0,2.11.84,4.13,2.33,5.63,1.49,1.49,3.52,2.33,5.63,2.33h36.06c2.11,0,4.13-.84,5.63-2.33,1.49-1.49,2.33-3.52,2.33-5.63v-64.09c0-2.11-.84-4.13-2.33-5.63-1.49-1.49-3.52-2.33-5.63-2.33ZM962.46,502.72c0,1.41-.56,2.76-1.55,3.75-.99.99-2.34,1.55-3.75,1.55h-36.06c-1.41,0-2.76-.56-3.75-1.55-.99-.99-1.55-2.34-1.55-3.75v-64.09c0-1.41.56-2.76,1.55-3.75.99-.99,2.34-1.55,3.75-1.55h36.06c1.41,0,2.76.56,3.75,1.55.99.99,1.55,2.34,1.55,3.75v64.09ZM939.13,494.18c-1.5,0-2.94.6-4,1.66s-1.66,2.5-1.66,4,.6,2.94,1.66,4c1.06,1.06,2.5,1.66,4,1.66s2.94-.6,4-1.66,1.66-2.5,1.66-4c0-1.5-.6-2.94-1.66-4s-2.5-1.66-4-1.66h0ZM939.13,502.85c-.8,0-1.56-.32-2.13-.88-.56-.56-.88-1.33-.88-2.13s.32-1.56.88-2.13c.56-.56,1.33-.88,2.13-.88s1.56.32,2.13.88c.56.56.88,1.33.88,2.13s-.32,1.56-.88,2.13c-.56.56-1.33.88-2.13.88ZM944.79,437.81c0,.35-.14.69-.39.94-.25.25-.59.39-.94.39h-8.67c-.47,0-.91-.25-1.15-.66-.24-.41-.24-.92,0-1.33.24-.41.67-.66,1.15-.66h8.67c.35,0,.69.14.94.39.25.25.39.59.39.94h0Z"/>
    <g>
      <path class="cls-3" d="M1041.66,447.15h-4.48c-.33,0-.65-.13-.88-.36-.23-.23-.36-.55-.36-.88v-8.95c0-.33.13-.65.36-.88.23-.23.55-.36.88-.36h4.48c.33,0,.65.13.88.36.23.23.36.55.36.88v8.95c0,.33-.13.65-.36.88-.23.23-.55.36-.88.36ZM1038.43,444.66h1.99v-6.47h-1.99v6.47Z"/>
      <path class="cls-3" d="M992.79,470.71c-.33,0-.65-.13-.88-.36-.23-.23-.36-.55-.36-.88v-1.24c0-.33.13-.65.36-.88.23-.23.55-.36.88-.36s.65.13.88.36c.23.23.36.55.36.88v1.24c0,.33-.13.65-.36.88-.23.23-.55.36-.88.36Z"/>
      <path class="cls-3" d="M991.92,447.15h-4.48c-.33,0-.65-.13-.88-.36-.23-.23-.36-.55-.36-.88v-8.95c0-.33.13-.65.36-.88.23-.23.55-.36.88-.36h4.48c.33,0,.65.13.88.36.23.23.36.55.36.88v8.95c0,.33-.13.65-.36.88-.23.23-.55.36-.88.36ZM988.69,444.66h1.99v-6.47h-1.99v6.47Z"/>
      <path class="cls-3" d="M993.11,479.42h-6.85c-.34,0-.67-.14-.91-.39-.22-.23-.35-.54-.35-.86l1.19-32.33c0-.33.13-.65.36-.88.23-.23.55-.36.88-.36h4.48c.33,0,.65.13.88.36.23.23.36.55.36.88l.65,17.41c0,.33-.13.65-.36.88-.23.23-.55.36-.88.36s-.65-.13-.88-.36c-.23-.23-.36-.55-.36-.88l-.6-16.17h-2.09l-1.09,29.84h4.28l-.09-2.49c0-.33.13-.65.36-.88.23-.23.55-.36.88-.36s.65.13.88.36c.23.23.36.55.36.88l.14,3.73c0,.33-.13.65-.36.88-.23.23-.55.36-.88.36h0Z"/>
      <path class="cls-3" d="M1042.86,479.42h-6.86c-.33,0-.65-.13-.88-.36-.23-.23-.36-.55-.36-.88l1.19-32.33c0-.33.13-.65.36-.88.23-.23.55-.36.88-.36h4.48c.33,0,.65.13.88.36.23.23.36.55.36.88l1.24,32.33c0,.33-.13.65-.36.88-.23.23-.55.36-.88.36h-.05ZM1037.29,476.93h4.28l-1.09-29.78h-2.09l-1.09,29.78Z"/>
      <path class="cls-3" d="M1042.84,503.23h-4.66c-.44,0-.85-.24-1.08-.62-.22-.38-.22-.86,0-1.24.22-.38.63-.62,1.08-.62h4.66c1.73,0,3.39-.69,4.61-1.92,1.22-1.22,1.91-2.88,1.92-4.61v-8.27c0-1.73-.69-3.39-1.92-4.61s-2.88-1.91-4.61-1.92h-56.58c-1.73,0-3.39.69-4.61,1.92-1.22,1.22-1.91,2.88-1.92,4.61v8.27c0,1.73.69,3.39,1.92,4.61,1.22,1.22,2.88,1.91,4.61,1.92h46.94c.44,0,.85.24,1.08.62.22.38.22.86,0,1.24-.22.38-.63.62-1.08.62h-46.94c-2.39,0-4.68-.95-6.37-2.64-1.69-1.69-2.64-3.98-2.64-6.37v-8.27c0-2.39.95-4.68,2.64-6.37,1.69-1.69,3.98-2.64,6.37-2.64h56.58c2.39,0,4.68.95,6.37,2.64,1.69,1.69,2.64,3.98,2.64,6.37v8.27c0,2.39-.95,4.68-2.64,6.37-1.69,1.69-3.98,2.64-6.37,2.64Z"/>
      <path class="cls-3" d="M1033.94,492.81h-38.77c-1.45,0-2.85-.58-3.87-1.61-1.03-1.03-1.61-2.42-1.61-3.87v-9.15c0-.33.13-.65.36-.88.23-.23.55-.36.88-.36h47.25c.33,0,.65.13.88.36.23.23.36.55.36.88v9.15c0,1.45-.58,2.85-1.61,3.87-1.03,1.03-2.42,1.61-3.87,1.61h0ZM992.17,479.42v7.91c0,.79.32,1.56.88,2.12.56.56,1.32.88,2.12.88h38.77c.79,0,1.56-.32,2.12-.88.56-.56.88-1.32.88-2.12v-7.91h-44.77Z"/>
      <path class="cls-3" d="M1025.74,489.36c-1.15,0-2.26-.46-3.08-1.27-.82-.82-1.27-1.92-1.27-3.08s.46-2.26,1.27-3.08c.82-.82,1.92-1.27,3.08-1.27s2.26.46,3.08,1.27c.82.82,1.27,1.92,1.27,3.08s-.46,2.26-1.27,3.08c-.82.82-1.92,1.27-3.08,1.27ZM1025.74,483.15c-.49,0-.97.2-1.32.55-.35.35-.55.82-.55,1.32s.2.97.55,1.32c.35.35.82.55,1.32.55s.97-.2,1.32-.55c.35-.35.55-.82.55-1.32s-.2-.97-.55-1.32c-.35-.35-.82-.55-1.32-.55Z"/>
      <path class="cls-3" d="M1014.55,489.36c-1.15,0-2.26-.46-3.08-1.27-.82-.82-1.27-1.92-1.27-3.08s.46-2.26,1.27-3.08c.82-.82,1.92-1.27,3.08-1.27s2.26.46,3.08,1.27c.82.82,1.27,1.92,1.27,3.08s-.46,2.26-1.27,3.08c-.82.82-1.92,1.27-3.08,1.27ZM1014.55,483.15c-.49,0-.97.2-1.32.55-.35.35-.55.82-.55,1.32s.2.97.55,1.32c.35.35.82.55,1.32.55s.97-.2,1.32-.55c.35-.35.55-.82.55-1.32s-.2-.97-.55-1.32c-.35-.35-.82-.55-1.32-.55Z"/>
      <path class="cls-3" d="M1003.36,489.36c-1.15,0-2.26-.46-3.08-1.27-.82-.82-1.27-1.92-1.27-3.08s.46-2.26,1.27-3.08c.82-.82,1.92-1.27,3.08-1.27s2.26.46,3.08,1.27c.82.82,1.27,1.92,1.27,3.08s-.46,2.26-1.27,3.08c-.82.82-1.92,1.27-3.08,1.27ZM1003.36,483.15c-.49,0-.97.2-1.32.55-.35.35-.55.82-.55,1.32s.2.97.55,1.32c.35.35.82.55,1.32.55s.97-.2,1.32-.55c.35-.35.55-.82.55-1.32s-.2-.97-.55-1.32c-.35-.35-.82-.55-1.32-.55Z"/>
    </g>
  </g>
  <g>
    <path class="cls-3" d="M1471.07,482.86c-.38,0-.74-.15-1.01-.42-.27-.27-.42-.63-.42-1.01v-4.24c0-.51.27-.98.71-1.24.44-.25.99-.25,1.43,0,.44.26.71.73.71,1.24v4.24h0c0,.38-.15.74-.42,1.01-.27.27-.63.42-1.01.42h0Z"/>
    <path class="cls-3" d="M1468.21,520.67h-91.42c-1.14,0-2.23-.45-3.03-1.26-.8-.8-1.26-1.89-1.26-3.03v-91.42c0-1.14.45-2.23,1.26-3.03s1.89-1.26,3.03-1.26h91.42c1.14,0,2.23.45,3.03,1.26.8.8,1.26,1.89,1.26,3.03v42.23c0,.51-.27.98-.71,1.24-.44.26-.99.26-1.43,0-.44-.25-.71-.73-.71-1.24v-42.23c0-.38-.15-.75-.41-1.01-.27-.27-.63-.42-1.01-.41h-91.42c-.38,0-.74.15-1.01.42-.27.27-.42.63-.42,1.01v91.42c0,.38.15.74.42,1.01.27.27.63.42,1.01.42h91.42c.38,0,.74-.15,1.01-.42.27-.27.42-.63.42-1.01v-10.8c0-.51.27-.98.71-1.24.44-.25.99-.25,1.43,0,.44.26.71.73.71,1.24v10.8c0,1.14-.45,2.23-1.26,3.03-.8.8-1.89,1.26-3.03,1.26h0Z"/>
    <path class="cls-3" d="M1471.07,497.01c-.38,0-.74-.15-1.01-.42-.27-.27-.42-.63-.42-1.01v-4.16c0-.51.27-.98.71-1.24.44-.25.99-.25,1.43,0,.44.26.71.73.71,1.24v4.16c0,.38-.15.74-.42,1.01-.27.27-.63.42-1.01.42h0Z"/>
    <path class="cls-3" d="M1471.07,444.96h-97.14,0c-.51,0-.98-.27-1.24-.71-.25-.44-.25-.99,0-1.43.26-.44.73-.71,1.24-.71h97.14,0c.51,0,.98.27,1.24.71.25.44.25.99,0,1.43-.26.44-.73.71-1.24.71Z"/>
    <path class="cls-3" d="M1457.3,437.81c-1.34,0-2.64-.53-3.59-1.48-.95-.95-1.49-2.24-1.49-3.59,0-1.35.53-2.64,1.48-3.59.95-.95,2.24-1.49,3.59-1.49,1.35,0,2.64.53,3.59,1.49.95.95,1.49,2.24,1.49,3.59,0,1.34-.54,2.63-1.49,3.58-.95.95-2.24,1.49-3.58,1.49h0ZM1457.3,430.53c-.59,0-1.15.23-1.57.65-.42.41-.65.98-.65,1.57,0,.59.23,1.15.65,1.57.42.42.98.65,1.57.65.59,0,1.15-.23,1.57-.65.42-.42.65-.98.65-1.57,0-.59-.24-1.15-.65-1.56-.41-.41-.98-.65-1.56-.65h0Z"/>
    <path class="cls-3" d="M1443.45,437.81c-1.35,0-2.63-.53-3.59-1.49-.95-.95-1.49-2.24-1.49-3.59s.53-2.63,1.49-3.59c.95-.95,2.24-1.49,3.59-1.49s2.63.53,3.59,1.49c.95.95,1.49,2.24,1.49,3.59,0,1.34-.54,2.63-1.49,3.58s-2.24,1.49-3.58,1.49h0ZM1443.45,430.53c-.59,0-1.15.23-1.57.65-.42.42-.65.98-.65,1.57s.23,1.15.65,1.57c.42.42.98.65,1.57.65.59,0,1.15-.23,1.57-.65.41-.42.65-.98.65-1.57,0-.59-.23-1.15-.65-1.56-.41-.41-.98-.65-1.56-.65h0Z"/>
    <path class="cls-3" d="M1429.59,437.81c-1.35,0-2.64-.53-3.59-1.48-.95-.95-1.49-2.24-1.49-3.59,0-1.35.53-2.64,1.48-3.59.95-.95,2.24-1.49,3.59-1.49,1.35,0,2.64.53,3.59,1.49.95.95,1.49,2.24,1.49,3.59,0,1.34-.54,2.63-1.49,3.58-.95.95-2.24,1.49-3.58,1.49h0ZM1429.59,430.53c-.59,0-1.15.23-1.57.65-.42.41-.65.98-.65,1.57,0,.59.23,1.15.65,1.57.42.42.98.65,1.57.65.59,0,1.15-.23,1.57-.65.41-.42.65-.98.65-1.57,0-.59-.23-1.15-.65-1.56-.41-.41-.98-.65-1.56-.65h0Z"/>
    <path class="cls-3" d="M1417.31,434.17h-33.26c-.51,0-.98-.27-1.24-.71-.25-.44-.25-.99,0-1.43.26-.44.73-.71,1.24-.71h33.26c.51,0,.98.27,1.24.71.26.44.26.99,0,1.43-.25.44-.73.71-1.24.71Z"/>
    <path class="cls-3" d="M1422.5,508.66c-7.23,0-14.17-2.87-19.28-7.99-5.11-5.11-7.99-12.05-7.99-19.28,0-7.23,2.87-14.17,7.99-19.28,5.11-5.11,12.05-7.99,19.28-7.99,7.23,0,14.17,2.87,19.28,7.99,5.11,5.11,7.99,12.05,7.99,19.28,0,7.23-2.88,14.16-8,19.28-5.11,5.11-12.04,7.99-19.27,8h0ZM1422.5,456.97c-4.83,0-9.55,1.43-13.56,4.11-4.02,2.68-7.14,6.5-8.99,10.96-1.85,4.46-2.33,9.37-1.39,14.11.94,4.74,3.27,9.09,6.68,12.5,3.41,3.41,7.76,5.74,12.5,6.68,4.74.94,9.65.46,14.11-1.39,4.46-1.85,8.27-4.98,10.96-8.99,2.68-4.02,4.11-8.74,4.11-13.56,0-6.47-2.58-12.68-7.16-17.26-4.58-4.58-10.78-7.15-17.26-7.16h0Z"/>
    <path class="cls-3" d="M1422.5,469.52c-6.62.09-13.1-1.93-18.49-5.78-.34-.23-.56-.59-.62-1-.05-.41.07-.81.34-1.12.27-.31.66-.49,1.07-.49h.01,0c.31,0,.61.1.86.29,4.91,3.5,10.81,5.34,16.84,5.25,6.04.09,11.94-1.75,16.86-5.26.42-.28.97-.32,1.43-.09.46.23.76.68.79,1.19.03.51-.21,1-.63,1.28-5.39,3.81-11.85,5.82-18.44,5.73h0Z"/>
    <path class="cls-3" d="M1440.2,501.63c-.31,0-.61-.1-.86-.29-2.3-1.68-4.86-2.98-7.57-3.83-6.03-1.87-12.49-1.87-18.51.02-2.73.84-5.29,2.13-7.59,3.82-.3.26-.69.38-1.09.33-.39-.04-.75-.25-.99-.57-.24-.32-.33-.72-.26-1.11s.3-.73.63-.95c2.55-1.88,5.4-3.31,8.43-4.25,6.59-2.06,13.64-2.07,20.24-.02,3.02.95,5.87,2.39,8.43,4.26.32.24.53.61.57,1.01.04.4-.09.8-.37,1.1-.27.3-.65.47-1.06.47h0Z"/>
    <path class="cls-3" d="M1422.5,508.66c-7.43,0-13.24-11.98-13.24-27.27s5.82-27.27,13.24-27.27,13.24,11.98,13.24,27.27-5.82,27.27-13.24,27.27h0ZM1422.5,456.97c-5.02,0-10.39,9.81-10.39,24.42,0,14.6,5.37,24.42,10.39,24.42s10.39-9.81,10.39-24.42-5.37-24.42-10.39-24.42h0Z"/>
    <path class="cls-3" d="M1422.5,508.66c-.38,0-.74-.15-1.01-.42-.27-.27-.42-.63-.42-1.01v-51.69c0-.51.27-.98.71-1.24.44-.25.99-.25,1.43,0,.44.26.71.73.71,1.24v51.69c0,.38-.15.74-.42,1.01-.27.27-.63.42-1.01.42h0Z"/>
    <path class="cls-3" d="M1448.34,482.81h-51.69c-.51,0-.98-.27-1.24-.71-.25-.44-.25-.99,0-1.43.26-.44.73-.71,1.24-.71h51.69c.51,0,.98.27,1.24.71.25.44.25.99,0,1.43-.26.44-.73.71-1.24.71Z"/>
  </g>
  <g>
    <path class="cls-3" d="M551.95,486h-9.84c-.46.01-.87.26-1.1.66-.22.4-.22.88,0,1.28.23.4.64.65,1.1.66h9.84c.35,0,.68-.14.92-.38.24-.24.38-.57.38-.92h0c0-.35-.14-.68-.38-.92-.24-.24-.58-.38-.92-.38Z"/>
    <path class="cls-3" d="M549.04,520.67h30.17s10.57,0,10.57,0c.78,0,1.54-.31,2.09-.87.55-.55.87-1.31.87-2.09v-13.61c0-.78-.31-1.53-.87-2.09s-1.3-.86-2.09-.87h-10.57v-3.62h10.57c.78,0,1.54-.32,2.09-.87.55-.55.87-1.31.87-2.09v-13.61c0-.78-.31-1.54-.87-2.09-.55-.55-1.31-.87-2.09-.87h-17.68v-9.96c0-.61-.52-1.13-1.13-1.13h-.61v-3.64c0-.65-.52-1.13-1.13-1.13h-1.34c.61-3.21,1.69-5.59,2.64-7.2.35.17.74.26,1.13.26h0c1.99,0,3.64-1.65,3.64-3.64s-1.6-3.69-3.64-3.69-3.64,1.65-3.64,3.64c0,.78.22,1.47.65,2.04-1.17,1.86-2.47,4.73-3.17,8.58h-1.56v-11.75c1.51-.5,2.64-1.98,2.5-3.71-.14-1.77-1.56-3.2-3.33-3.34-2.13-.18-3.95,1.53-3.95,3.63,0,1.6,1.04,2.95,2.51,3.43v11.79h-1.56c-.69-3.86-1.99-6.68-3.17-8.58.39-.61.65-1.3.65-2.04,0-2.09-1.81-3.8-3.93-3.63-1.77.14-3.2,1.57-3.34,3.34-.17,2.12,1.54,3.93,3.63,3.93.39,0,.78-.09,1.17-.22.95,1.6,2.04,3.99,2.69,7.2h-1.34c-.62,0-1.13.51-1.13,1.13v3.64h-.61c-.62,0-1.13.51-1.13,1.13v9.92h-17.77c-.78,0-1.54.31-2.09.87-.55.55-.87,1.31-.87,2.09v13.61c0,.78.31,1.54.87,2.09.55.55,1.31.87,2.09.87h10.57v3.63h-10.57c-.78,0-1.53.31-2.09.87-.55.55-.87,1.3-.87,2.09v13.61c0,.78.31,1.54.87,2.09.55.55,1.31.87,2.09.87h13.18ZM571.66,450.18c.83,0,1.47.69,1.38,1.54-.07.64-.58,1.16-1.22,1.22-.85.09-1.54-.55-1.54-1.38.04-.78.65-1.39,1.39-1.39ZM553.83,452.91c-.65-.06-1.18-.59-1.24-1.24-.08-.9.63-1.61,1.52-1.52.65.06,1.18.59,1.24,1.24.08.9-.63,1.61-1.52,1.52ZM561.43,446.83c.06-.65.59-1.18,1.24-1.24.9-.08,1.61.63,1.52,1.52-.06.65-.59,1.18-1.24,1.24-.9.08-1.61-.63-1.52-1.52ZM557.61,464.45h10.45v2.47h-10.45v-2.47ZM555.88,469.22h13.96v8.79h-13.96v-8.79ZM589.78,503.76c.19,0,.35.16.35.35v13.61c0,.19-.16.35-.35.35h-53.91c-.19,0-.35-.16-.35-.35v-13.61c0-.19.16-.35.35-.35h53.91ZM549.04,501.16v-3.62h27.57v3.62h-27.57ZM535.86,494.93c-.19,0-.35-.16-.35-.35v-13.61c0-.19.16-.35.35-.35h53.91c.19,0,.35.16.35.35v13.61c0,.19-.16.35-.35.35h-53.91Z"/>
    <path class="cls-3" d="M583.53,486h-6.3c-.35,0-.69.12-.94.37-.25.24-.39.58-.39.93s.14.69.39.93c.25.25.59.38.94.37h6.3c.35,0,.68-.14.92-.38.24-.24.38-.57.38-.92h0c0-.35-.14-.68-.38-.92-.24-.24-.58-.38-.92-.38Z"/>
    <path class="cls-3" d="M573.17,486h0s-4.36,0-4.36,0c-.41-1.22-1.38-2.16-2.61-2.55-1.23-.39-2.56-.16-3.6.6-1.04.76-1.65,1.97-1.65,3.25s.61,2.49,1.65,3.25c1.04.76,2.37.98,3.6.6,1.23-.39,2.19-1.33,2.61-2.55h4.36c.35,0,.69-.12.94-.37.25-.24.39-.58.39-.93s-.14-.69-.39-.93c-.25-.25-.59-.38-.94-.37ZM566.01,488.31c-.27.27-.63.42-1.01.42h0c-.38,0-.74-.15-1.01-.42-.27-.27-.42-.63-.42-1.01,0-.38.15-.74.42-1.01.27-.27.63-.42,1.01-.42s.74.15,1.01.42c.27.27.42.63.42,1.01s-.15.74-.42,1.01Z"/>
    <path class="cls-3" d="M577.23,511.74h6.3c.46-.01.87-.26,1.1-.66.22-.4.22-.88,0-1.28-.23-.4-.64-.65-1.1-.66h-6.3c-.35,0-.68.14-.92.38-.24.24-.38.58-.38.92h0c0,.35.14.68.38.92.24.24.57.38.92.38Z"/>
    <path class="cls-3" d="M542.11,511.74h9.84c.35,0,.69-.12.94-.37.25-.24.39-.58.39-.93s-.14-.69-.39-.93-.59-.38-.94-.37h-9.84c-.35,0-.68.14-.92.38-.24.24-.38.58-.38.92h0c0,.35.14.68.38.92.24.24.58.38.92.38Z"/>
    <path class="cls-3" d="M562.3,513.45c.74.66,1.7,1.03,2.69,1.03h0c.84,0,1.66-.26,2.34-.75.68-.49,1.2-1.18,1.47-1.98h4.36c.35,0,.69-.12.94-.37.25-.25.39-.58.39-.93s-.14-.69-.39-.93c-.25-.25-.59-.38-.94-.37h-4.37c-.32-.94-.98-1.73-1.84-2.21s-1.88-.64-2.85-.42c-.97.22-1.82.78-2.4,1.59-.58.81-.84,1.8-.73,2.79.11.99.58,1.9,1.32,2.56ZM563.99,509.43c.27-.27.63-.42,1.01-.42h0c.38,0,.74.15,1.01.42.27.27.42.63.42,1.01s-.15.74-.42,1.01c-.27.27-.63.42-1.01.42s-.74-.15-1.01-.42c-.27-.27-.42-.63-.42-1.01,0-.38.15-.74.42-1.01Z"/>
    <path class="cls-3" d="M556.92,442.99c.48.43,1.17.39,1.6-.04,1.13-1.21,2.64-1.86,4.29-1.86s3.17.65,4.29,1.86c.22.26.52.35.82.35.26,0,.56-.09.78-.3.48-.43.48-1.13.04-1.6-1.56-1.65-3.69-2.6-5.94-2.6-2.3,0-4.42.91-5.94,2.6h0c-.43.48-.39,1.17.04,1.6Z"/>
    <path class="cls-3" d="M554.45,440.04h0c.3,0,.61-.13.82-.35,1.99-2.08,4.64-3.21,7.54-3.21s5.55,1.13,7.54,3.21c.43.43,1.17.48,1.6.04.43-.43.48-1.17.04-1.6-2.43-2.51-5.68-3.9-9.19-3.9s-6.76,1.39-9.19,3.9c-.43.43-.43,1.17.04,1.6.22.22.52.3.78.3Z"/>
    <path class="cls-3" d="M501.77,460.57c-2.94,0-5.32,2.38-5.32,5.32.3,7.07,10.35,7.07,10.64,0,0-2.94-2.38-5.32-5.32-5.32ZM501.77,468.97c-1.69,0-3.07-1.39-3.07-3.07.17-4.09,5.98-4.09,6.15,0,0,1.69-1.39,3.07-3.07,3.07Z"/>
    <polygon class="cls-3" points="501.77 460.57 501.77 460.57 501.77 460.57 501.77 460.57"/>
    <path class="cls-3" d="M530.11,425.66h0s-4.57,0-4.57,0c-.62,0-1.12.51-1.12,1.12v5.92h-5.92v-.69c0-.62-.51-1.12-1.12-1.12h-.88v-9.09c0-.62-.51-1.12-1.12-1.12s-1.12.51-1.12,1.12v9.09h-3.79v-5.17c0-.62-.51-1.12-1.12-1.12s-1.12.51-1.12,1.12v5.17h-.88c-.62,0-1.12.51-1.12,1.12v.69h-5.92v-5.92c0-.62-.51-1.12-1.12-1.12h-4.59c-.62,0-1.12.51-1.12,1.12v23.28c0,.62.51,1.12,1.12,1.12h4.59c.62,0,1.12-.51,1.12-1.12v-7.1h5.92v14.51c-6.22-3.35-13.98,1.33-13.92,8.41-.07,6.75,7.12,11.47,13.27,8.71v27.86h-8.69c-.88,0-1.6.72-1.6,1.6v15.02c0,.88.72,1.6,1.6,1.6h30.97c.88,0,1.6-.72,1.6-1.6v-15.02c0-.88-.72-1.6-1.6-1.6h-8.7v-16.54c3.65.24,6.8-2.72,6.78-6.37.04-3.9-3.58-6.97-7.42-6.3v-8.9c.09.07,2.44.02,2.6.04.32,2.83,2.14,5.58,4.61,6.97.36.21.77.21,1.12,0s.56-.58.56-.97v-14.26c.02-.84-.97-1.42-1.69-.97-2.16,1.26-3.71,3.28-4.35,5.7-.11.43-.19.86-.24,1.29-.19.02-2.51-.04-2.6.04v-19.21h5.92v7.1c0,.62.51,1.12,1.12,1.12h4.57c.62,0,1.12-.51,1.12-1.12v-23.28c-.02-.62-.52-1.12-1.14-1.12ZM498.03,448.93h-2.34v-21.03h2.34v21.03ZM516.24,434.86v5.53l-2.42-2.79,2.42-2.74ZM515.83,454.53l-3.49,3.94-3.45-3.94,3.43-3.94,3.5,3.94ZM508.84,443.25l3.49-3.95,3.43,3.95-3.43,3.94-3.49-3.94ZM516.24,457.46v5.47l-2.4-2.75,2.4-2.72ZM512.34,461.9l3.45,3.94-3.45,3.92-1.37-1.52c.39-1.52.37-3.26-.02-4.76l1.39-1.57ZM512.34,473.14l2.14,2.44c-1.03,1.31-1.52,3.02-1.31,4.69l-.81.92-3.54-4.01,3.52-4.03ZM507.79,474.94v-1.71c.92-.75,1.69-1.67,2.25-2.68l.81.9-3.05,3.49ZM510.86,482.87l-3.07,3.47v-6.93l3.07,3.47ZM507.79,490.65l3.07,3.47-3.07,3.47v-6.93ZM508.88,488.49l3.49-3.92,3.49,3.92-3.49,3.94-3.49-3.94ZM516.88,490.72v6.78l-3.02-3.39,3.02-3.39ZM516.86,486.24l-3-3.37.11-.13c.67,1.16,1.69,2.08,2.89,2.62v.88ZM513.84,471.44l2.4-2.74v5.34s-.06.02-.08.04l-2.32-2.64ZM513.82,448.89l2.42-2.77v5.51l-2.42-2.74ZM514.78,433.13l-2.44,2.75-2.4-2.75h4.84ZM508.44,434.84l2.38,2.74-2.38,2.7v-5.43ZM508.44,446.21l2.38,2.68-2.38,2.74v-5.42ZM508.44,459.09v-1.67l2.4,2.75-.84.96c-.43-.75-.94-1.42-1.56-2.02v-.02ZM500.27,440.7v-5.75h5.92v5.75h-5.92ZM494.52,465.87h0c.17-8.11,11.13-10.04,14.06-2.47.56,1.52.58,3.34.02,4.89-2.85,7.63-13.89,5.73-14.07-2.42ZM527.15,518.61h-29.63v-14.1h29.63v14.1ZM507.79,502.45v-1.61c.13-.06.26-.15.37-.28l4.2-4.74,4.22,4.74c.09.09.19.17.3.24v1.65h-9.09ZM523.66,479.53h0c-.09,4.87-6.95,5.7-8.17.97-.49-1.91.54-4.05,2.4-4.8,2.68-1.16,5.81.9,5.77,3.82ZM525.14,458.45v9.6c-2.47-2.66-2.45-6.97,0-9.6ZM524.41,440.7h-5.92v-5.75h5.92v5.75ZM528.98,448.93h-2.32v-21.03h2.32v21.03Z"/>
  </g>
  <g>
    <g>
      <path class="cls-3" d="M1220.42,443.48c-.27,0-.54-.08-.77-.24-.22-.16-.39-.38-.48-.64-.29-.85-.44-1.74-.43-2.63v-1.49c0-4.03,2.84-7.31,6.33-7.31,1.77.03,3.44.84,4.56,2.21,1.14,1.45,1.75,3.25,1.73,5.1v1.5c0,.9-.14,1.79-.45,2.63-.07.39-.3.72-.64.92-.34.19-.75.23-1.12.09-.37-.14-.65-.43-.78-.8-.13-.37-.08-.78.12-1.11.17-.56.25-1.14.24-1.73v-1.5c.02-1.21-.38-2.4-1.12-3.36-.6-.8-1.53-1.28-2.53-1.32-2.04,0-3.7,2.09-3.7,4.68v1.5c0,.59.09,1.17.29,1.73.12.34.1.71-.06,1.03s-.44.56-.78.67c-.13.05-.26.07-.4.08h0Z"/>
      <path class="cls-3" d="M1218.8,471.24h-7.53c-1.78-.02-3.45-.84-4.56-2.23-1.17-1.43-1.8-3.23-1.78-5.08,0-10.86,6.22-20.33,15.1-23.03,3.28-.99,6.78-.99,10.06,0,3.02.94,5.76,2.62,7.97,4.89.33.33.46.82.34,1.27-.12.45-.48.81-.93.93-.46.12-.94-.01-1.27-.35-1.9-1.95-4.26-3.4-6.86-4.21-2.78-.85-5.75-.85-8.53,0-7.8,2.36-13.17,10.79-13.17,20.5-.01,1.23.4,2.43,1.17,3.4.6.8,1.53,1.28,2.53,1.32h7.53c.47,0,.91.25,1.14.66.24.41.24.91,0,1.32-.24.41-.67.66-1.14.66l-.07-.04Z"/>
      <path class="cls-3" d="M1243.74,462.52c-.33,0-.64-.12-.88-.33-.24-.22-.4-.52-.43-.84-.21-1.96-.65-3.88-1.32-5.73-.48-1.41-1.11-2.76-1.86-4.04-.18-.4-.15-.86.08-1.24.23-.37.63-.61,1.07-.62.44-.02.86.19,1.11.54.85,1.44,1.57,2.96,2.13,4.53.73,2.05,1.2,4.17,1.41,6.33.04.35-.07.7-.29.97-.22.27-.54.45-.89.48l-.14-.05Z"/>
      <path class="cls-3" d="M1228.33,471.24h-10.76c-.47,0-.91-.25-1.14-.66-.24-.41-.24-.91,0-1.32.24-.41.67-.66,1.14-.66h10.76c.47,0,.91.25,1.14.66.24.41.24.91,0,1.32-.24.41-.67.66-1.14.66Z"/>
      <path class="cls-3" d="M1218.88,481.21c-.35,0-.68-.14-.93-.39-.25-.25-.39-.58-.39-.93v-1.32c0-.47.25-.91.66-1.14.41-.24.91-.24,1.32,0,.41.24.66.67.66,1.14v1.32c0,.35-.14.68-.39.93-.25.25-.58.39-.93.39h0Z"/>
      <path class="cls-3" d="M1218.79,471.24h-7.52c-1.78-.02-3.45-.84-4.56-2.24-1.17-1.42-1.8-3.21-1.78-5.06v-1.47c.02-.34.17-.65.41-.88.24-.23.57-.36.9-.36h27.44c.47,0,.91.25,1.14.66.24.41.24.91,0,1.32-.24.41-.67.66-1.14.66h-26.13v.08c-.02,1.23.39,2.43,1.17,3.38.6.8,1.53,1.28,2.53,1.32h7.52c.47,0,.91.25,1.14.66.24.41.24.91,0,1.32-.24.41-.67.66-1.14.66v-.04Z"/>
      <path class="cls-3" d="M1246.2,470.67c-.32,0-.63-.12-.87-.33-1.6-1.39-3.65-2.16-5.77-2.16s-4.17.77-5.77,2.16c-.26.23-.6.35-.95.32-.35-.02-.67-.18-.9-.44-.23-.26-.35-.61-.33-.96.02-.35.19-.68.46-.91,2.08-1.81,4.74-2.8,7.5-2.8s5.42,1,7.5,2.8c.26.24.42.57.44.92.01.35-.11.7-.36.96-.24.27-.59.43-.95.43h0Z"/>
      <path class="cls-3" d="M1234.59,474.48c-.38,0-.74-.16-.99-.45-.23-.26-.34-.61-.32-.96.02-.35.19-.67.45-.9,1.61-1.42,3.69-2.2,5.84-2.2s4.23.78,5.84,2.2c.28.23.46.56.49.91.03.36-.09.71-.32.98-.24.27-.57.43-.93.45-.36.02-.71-.12-.97-.37-1.14-.99-2.6-1.54-4.11-1.54s-2.97.55-4.11,1.54c-.24.21-.55.33-.87.33h0Z"/>
      <path class="cls-3" d="M1239.57,480.77c-.79,0-1.55-.31-2.1-.87-.56-.56-.87-1.32-.87-2.1s.31-1.55.87-2.1c.56-.56,1.32-.87,2.1-.87s1.55.31,2.1.87c.56.56.87,1.32.87,2.1s-.31,1.55-.87,2.1c-.56.56-1.32.87-2.1.87ZM1239.57,477.45c-.19,0-.34.15-.34.34,0,.38.68.38.68,0,0-.09-.04-.18-.1-.24-.06-.06-.15-.1-.24-.1Z"/>
      <path class="cls-3" d="M1225.07,510.18c-3.53,0-6.91-1.41-9.4-3.9-2.49-2.49-3.9-5.87-3.9-9.4v-26.96c0-.35.14-.68.39-.93.25-.25.58-.39.93-.39h15.25c.41-.01.81.17,1.07.49.26.32.35.75.25,1.15-.23.86-.34,1.75-.33,2.63,0,2.34.81,4.61,2.27,6.43,1.46,1.83,3.5,3.1,5.79,3.62.3.07.56.23.75.47.19.24.29.54.28.84v12.63c0,2.34-.62,4.64-1.79,6.66-1.17,2.02-2.86,3.7-4.88,4.87-2.03,1.17-4.33,1.78-6.66,1.77h0ZM1214.4,471.24v25.64c0,3.81,2.03,7.33,5.33,9.24,3.3,1.91,7.37,1.91,10.67,0,3.3-1.91,5.33-5.43,5.33-9.24v-11.72c-2.63-.83-4.92-2.48-6.55-4.7-1.63-2.22-2.52-4.9-2.53-7.66,0-.53,0-1.05.09-1.58h-12.34Z"/>
      <path class="cls-3" d="M1225.07,503.6c-4.14,0-7.51-3.74-7.51-8.35v-10.09c0-.47.25-.91.66-1.14.41-.24.91-.24,1.32,0,.41.24.66.67.66,1.14v10.09c0,3.15,2.19,5.72,4.87,5.72s4.87-2.63,4.87-5.72v-13.81c-2.13-2.36-3.3-5.43-3.29-8.61,0-.53,0-1.05.09-1.58h-6.58v2.07c0,.47-.25.91-.66,1.14-.41.24-.91.24-1.32,0-.41-.24-.66-.67-.66-1.14v-3.38c0-.35.14-.68.39-.93.25-.25.58-.39.93-.39h9.46c.41-.01.81.17,1.07.49.26.32.35.75.25,1.15-.23.86-.34,1.75-.33,2.63,0,2.68,1.04,5.26,2.92,7.18.24.25.37.58.37.92v14.26c0,4.61-3.37,8.35-7.51,8.35h0Z"/>
      <path class="cls-3" d="M1239.57,485.75c-3.43,0-6.72-1.36-9.14-3.79s-3.79-5.71-3.79-9.14,1.36-6.72,3.79-9.14c2.43-2.43,5.71-3.79,9.14-3.79s6.72,1.36,9.14,3.79c2.43,2.43,3.79,5.71,3.79,9.14,0,3.43-1.37,6.72-3.79,9.14s-5.71,3.79-9.14,3.79h0ZM1239.57,462.52c-2.73,0-5.35,1.09-7.28,3.02-1.93,1.93-3.02,4.55-3.02,7.28s1.09,5.35,3.02,7.28c1.93,1.93,4.55,3.02,7.28,3.02s5.35-1.09,7.28-3.02c1.93-1.93,3.02-4.55,3.02-7.28s-1.09-5.35-3.02-7.28c-1.93-1.93-4.55-3.02-7.28-3.02Z"/>
    </g>
    <g id="_5hoto2.tif" data-name="5hoto2.tif">
      <g>
        <path class="cls-3" d="M1185.74,449.76c.36.05.73.09,1.09.16,3.13.66,5.32,2.48,6.58,5.42.46,1.08.64,2.23.64,3.41,0,5.64,0,11.29,0,16.93,0,.89-.49,1.5-1.31,1.64-.82.14-1.65-.49-1.74-1.31-.02-.15-.02-.3-.02-.45,0-5.59,0-11.18,0-16.77,0-2.08-.84-3.74-2.54-4.94-1-.71-2.14-1.02-3.36-1.02-4.89,0-9.79,0-14.68,0-2.43,0-4.86,0-7.29,0-2.58,0-4.82,1.68-5.57,4.13-.18.58-.25,1.18-.25,1.79,0,8.31,0,16.61,0,24.92,0,2.62,1.56,4.81,3.99,5.63.63.21,1.28.3,1.95.3,4.55,0,9.11,0,13.66,0,2.75,0,5.5,0,8.25,0,2.46,0,4.59-1.48,5.47-3.76.27-.69.38-1.42.38-2.16,0-.57,0-1.14,0-1.72.02-.93.72-1.59,1.61-1.55.71.03,1.39.59,1.42,1.29.07,1.57.16,3.15-.36,4.67-1.16,3.41-3.51,5.48-7.05,6.16-.51.1-1.04.12-1.56.12-7.27,0-14.54.02-21.81,0-3.29,0-5.85-1.43-7.65-4.18-.85-1.31-1.28-2.77-1.34-4.33,0-.11-.02-.23-.03-.34,0-8.39,0-16.77,0-25.16,0-.07.03-.15.03-.22.09-2.49,1.04-4.59,2.86-6.28,1.24-1.16,2.71-1.89,4.38-2.2.35-.06.71-.11,1.06-.16,7.73,0,15.47,0,23.2,0Z"/>
        <path class="cls-3" d="M1174.14,481.91c-2.04,0-4.08.04-6.12,0-3.69-.08-6.88-2.86-7.52-6.5-.08-.47-.13-.95-.13-1.42-.01-1.93-.03-3.87,0-5.8.08-3.68,2.76-6.84,6.37-7.55.53-.1,1.08-.15,1.62-.15,3.85-.01,7.69-.01,11.54,0,3.7,0,6.83,2.42,7.76,5.97.17.65.25,1.31.25,1.98,0,1.94.03,3.88-.02,5.82-.08,3.69-2.85,6.89-6.48,7.53-.55.1-1.11.14-1.66.14-1.87.02-3.74,0-5.61,0h0ZM1174.12,478.85h0c1.88,0,3.77,0,5.65,0,.6,0,1.18-.06,1.75-.26,2.04-.7,3.33-2.53,3.34-4.74,0-1.78,0-3.55,0-5.33,0-.22,0-.44-.03-.65-.33-2.54-2.37-4.34-4.93-4.34-3.84,0-7.68,0-11.51,0-.44,0-.9.05-1.33.17-2.19.58-3.62,2.49-3.63,4.8,0,1.79,0,3.58,0,5.37,0,.21,0,.42.03.63.31,2.45,2.26,4.27,4.73,4.33,1.98.05,3.96,0,5.94,0Z"/>
        <path class="cls-3" d="M1174.13,458.18c-.85,0-1.53-.69-1.52-1.54,0-.85.7-1.53,1.54-1.53.84,0,1.53.7,1.52,1.54,0,.85-.69,1.52-1.54,1.52Z"/>
        <path class="cls-3" d="M1174.14,484.23c.85,0,1.53.68,1.53,1.53,0,.84-.69,1.53-1.53,1.53-.84,0-1.53-.69-1.53-1.53,0-.85.68-1.53,1.53-1.53Z"/>
        <path class="cls-3" d="M1171.08,471.21c0,1.03,0,2.05,0,3.08,0,.75-.57,1.39-1.29,1.49-.78.1-1.49-.34-1.7-1.08-.04-.15-.07-.31-.07-.46,0-2.02,0-4.04,0-6.06,0-.89.67-1.57,1.53-1.57.86,0,1.52.68,1.53,1.58,0,1.01,0,2.01,0,3.02h0Z"/>
        <path class="cls-3" d="M1180.27,471.21c0,1.03,0,2.05,0,3.08,0,.64-.42,1.2-1.02,1.41-.6.21-1.26.04-1.67-.44-.24-.28-.37-.6-.37-.97,0-2.06,0-4.12,0-6.18,0-.84.7-1.51,1.54-1.5.83,0,1.51.66,1.52,1.5.01,1.03,0,2.07,0,3.1Z"/>
      </g>
    </g>
  </g>
  <path class="cls-3" d="M736.07,442.33c0-.38.15-.74.42-1.01.27-.27.63-.42,1.01-.42h20v-2.86h-20c-1.14,0-2.23.45-3.03,1.26-.8.8-1.26,1.89-1.26,3.03v3.04h2.86v-3.04ZM757.5,493.75h-20c-.38,0-.74-.15-1.01-.42-.27-.27-.42-.63-.42-1.01v-1.67c.46.16.94.25,1.43.25h20v-2.86h-20c-.38,0-.74-.15-1.01-.42-.27-.27-.42-.63-.42-1.01v-7.39c.46.16.94.25,1.43.25h20v-2.86h-20c-.38,0-.74-.15-1.01-.42-.27-.27-.42-.63-.42-1.01v-7.39c.46.16.94.25,1.43.25h20v-2.86h-20c-.38,0-.74-.15-1.01-.42-.27-.27-.42-.63-.42-1.01v-7.39c.46.16.94.25,1.43.25h20v-2.86h-20c-.38,0-.74-.15-1.01-.42-.27-.27-.42-.63-.42-1.01v-4.46h-2.86v44.46c0,1.14.45,2.23,1.26,3.03.8.8,1.89,1.26,3.03,1.26h20v-2.86ZM741.79,462.33v-2.86h-2.86v2.86h2.86ZM757.5,462.33v-2.86h-12.86v2.86h12.86ZM741.79,473.75v-2.86h-2.86v2.86h2.86ZM757.5,473.75v-2.86h-12.86v2.86h12.86ZM741.79,485.18v-2.86h-2.86v2.86h2.86ZM757.5,485.18v-2.86h-12.86v2.86h12.86ZM760.36,501.39v-31.43h2.86v2.86c0,.38.15.74.42,1.01.27.27.63.42,1.01.42h22.86c.38,0,.74-.15,1.01-.42.27-.27.42-.63.42-1.01v-7.39c-.46.16-.94.25-1.43.25h-22.86c-.49,0-.97-.08-1.43-.25v1.85h-2.86v-27.32c0-1.14.45-2.23,1.26-3.03.8-.8,1.89-1.26,3.03-1.26h22.86c1.14,0,2.23.45,3.03,1.26.8.8,1.26,1.89,1.26,3.03v61.43c0,1.14-.45,2.23-1.26,3.03-.8.8-1.89,1.26-3.03,1.26h-22.86c-1.14,0-2.23-.45-3.03-1.26-.8-.8-1.26-1.89-1.26-3.03h0ZM763.21,449.96c0,.38.15.74.42,1.01.27.27.63.42,1.01.42h22.86c.38,0,.74-.15,1.01-.42.27-.27.42-.63.42-1.01v-10c0-.38-.15-.74-.42-1.01-.27-.27-.63-.42-1.01-.42h-22.86c-.38,0-.74.15-1.01.42-.27.27-.42.63-.42,1.01v10ZM788.93,461.39v-7.39c-.46.16-.94.25-1.43.25h-22.86c-.49,0-.97-.08-1.43-.25v7.39c0,.38.15.74.42,1.01.27.27.63.42,1.01.42h22.86c.38,0,.74-.15,1.01-.42.27-.27.42-.63.42-1.01h0ZM788.93,501.39v-1.67c-.46.16-.94.25-1.43.25h-22.86c-.49,0-.97-.08-1.43-.25v1.67c0,.38.15.74.42,1.01.27.27.63.42,1.01.42h22.86c.38,0,.74-.15,1.01-.42.27-.27.42-.63.42-1.01h0ZM763.21,484.24c0,.38.15.74.42,1.01.27.27.63.42,1.01.42h22.86c.38,0,.74-.15,1.01-.42.27-.27.42-.63.42-1.01v-7.39c-.46.16-.94.25-1.43.25h-22.86c-.49,0-.97-.08-1.43-.25v7.39ZM763.21,495.67c0,.38.15.74.42,1.01.27.27.63.42,1.01.42h22.86c.38,0,.74-.15,1.01-.42.27-.27.42-.63.42-1.01v-7.39c-.46.16-.94.25-1.43.25h-22.86c-.49,0-.97-.08-1.43-.25v7.39ZM766.07,459.96h2.86v-2.86h-2.86v2.86ZM771.79,459.96h14.29v-2.86h-14.29v2.86ZM766.07,468.53v2.86h2.86v-2.86h-2.86ZM771.79,468.53v2.86h14.29v-2.86h-14.29ZM768.93,479.96h-2.86v2.86h2.86v-2.86ZM786.07,479.96h-14.29v2.86h14.29v-2.86ZM768.93,491.39h-2.86v2.86h2.86v-2.86ZM786.07,491.39h-14.29v2.86h14.29v-2.86Z"/>
  <g>
    <rect class="cls-3" x="122" y="448.17" width="3" height="3"/>
    <path class="cls-3" d="M90.5,493.17h24c1.19,0,2.34-.48,3.18-1.32.84-.84,1.32-1.99,1.32-3.18v-64.5c0-1.19-.48-2.34-1.32-3.18-.84-.84-1.99-1.32-3.18-1.32h-24c-1.19,0-2.34.48-3.18,1.32-.84.84-1.32,1.99-1.32,3.18v28.69h3v-1.95c.48.17.99.26,1.5.26h24c.51,0,1.02-.09,1.5-.26v7.76c0,.4-.16.78-.44,1.06-.28.28-.66.44-1.06.44h-24c-.4,0-.78-.16-1.06-.44-.28-.28-.44-.66-.44-1.06v-3h-3v33h0c0,1.19.48,2.34,1.32,3.18.84.84,1.99,1.32,3.18,1.32ZM89,424.17c0-.4.16-.78.44-1.06.28-.28.66-.44,1.06-.44h24c.4,0,.78.16,1.06.44.28.28.44.66.44,1.06v10.5c0,.4-.16.78-.44,1.06-.28.28-.66.44-1.06.44h-24c-.4,0-.78-.16-1.06-.44-.28-.28-.44-.66-.44-1.06v-10.5ZM115.56,447.73c-.28.28-.66.44-1.06.44h-24c-.4,0-.78-.16-1.06-.44-.28-.28-.44-.66-.44-1.06v-7.76c.48.17.99.26,1.5.26h24c.51,0,1.02-.09,1.5-.26v7.76c0,.4-.16.78-.44,1.06ZM89,462.91c.48.17.99.26,1.5.26h24c.51,0,1.02-.09,1.5-.26v7.76c0,.4-.16.78-.44,1.06-.28.28-.66.44-1.06.44h-24c-.4,0-.78-.16-1.06-.44-.28-.28-.44-.66-.44-1.06v-7.76ZM89,474.91c.48.17.99.26,1.5.26h24c.51,0,1.02-.09,1.5-.26v7.76c0,.4-.16.78-.44,1.06-.28.28-.66.44-1.06.44h-24c-.4,0-.78-.16-1.06-.44-.28-.28-.44-.66-.44-1.06v-7.76ZM89,486.91c.48.17.99.26,1.5.26h24c.51,0,1.02-.09,1.5-.26v1.76c0,.4-.16.78-.44,1.06-.28.28-.66.44-1.06.44h-24c-.4,0-.78-.16-1.06-.44-.28-.28-.44-.66-.44-1.06v-1.76Z"/>
    <path class="cls-3" d="M60.5,430.17c0-.4.16-.78.44-1.06.28-.28.66-.44,1.06-.44h21v-3h-21c-1.19,0-2.34.48-3.18,1.32-.84.84-1.32,1.99-1.32,3.18v3.19h3v-3.19Z"/>
    <rect class="cls-3" x="98" y="442.17" width="15" height="3"/>
    <rect class="cls-3" x="122" y="460.17" width="3" height="3"/>
    <rect class="cls-3" x="92" y="454.17" width="3" height="3"/>
    <rect class="cls-3" x="98" y="454.17" width="15" height="3"/>
    <rect class="cls-3" x="98" y="466.17" width="15" height="3"/>
    <rect class="cls-3" x="92" y="478.17" width="3" height="3"/>
    <rect class="cls-3" x="92" y="442.17" width="3" height="3"/>
    <rect class="cls-3" x="92" y="466.17" width="3" height="3"/>
    <rect class="cls-3" x="98" y="478.17" width="15" height="3"/>
    <rect class="cls-3" x="122" y="472.17" width="3" height="3"/>
    <rect class="cls-3" x="69.5" y="448.17" width="13.5" height="3"/>
    <path class="cls-3" d="M144.5,474.05v2.62c0,.4-.16.78-.44,1.06-.28.28-.66.44-1.06.44h-21v3h21c.51,0,1.02-.09,1.5-.26v1.76c0,.4-.16.78-.44,1.06-.28.28-.66.44-1.06.44h-21v3h21c1.19,0,2.34-.48,3.18-1.32.84-.84,1.32-1.99,1.32-3.18v-9h-3v.38Z"/>
    <path class="cls-3" d="M83,484.17h-21c-.4,0-.78-.16-1.06-.44-.28-.28-.44-.66-.44-1.06v-1.76c.48.17.99.26,1.5.26h21v-3h-21c-.4,0-.78-.16-1.06-.44-.28-.28-.44-.66-.44-1.06v-7.76c.48.17.99.26,1.5.26h21v-3h-21c-.4,0-.78-.16-1.06-.44-.28-.28-.44-.66-.44-1.06v-7.76c.48.17.99.26,1.5.26h21v-3h-21c-.4,0-.78-.16-1.06-.44-.28-.28-.44-.66-.44-1.06v-7.76c.48.17.99.26,1.5.26h21v-3h-21c-.4,0-.78-.16-1.06-.44-.28-.28-.44-.66-.44-1.06v-4.69h-3v46.69c0,1.19.48,2.34,1.32,3.18.84.84,1.99,1.32,3.18,1.32h21v-3Z"/>
    <rect class="cls-3" x="128" y="472.17" width="13.5" height="3"/>
    <path class="cls-3" d="M146.18,426.99c-.84-.84-1.99-1.32-3.18-1.32h-21v3h21c.4,0,.78.16,1.06.44.28.28.44.66.44,1.06v10.5c0,.4-.16.78-.44,1.06-.28.28-.66.44-1.06.44h-21v3h21c.51,0,1.02-.09,1.5-.26v7.76c0,.4-.16.78-.44,1.06-.28.28-.66.44-1.06.44h-21v3h21c.51,0,1.02-.09,1.5-.26v7.76c0,.4-.16.78-.44,1.06-.28.28-.66.44-1.06.44h-21v3h21c.51,0,1.02-.09,1.5-.26v1.95h3v-40.69h0c0-1.19-.48-2.34-1.32-3.18Z"/>
    <rect class="cls-3" x="128" y="448.17" width="13.5" height="3"/>
    <rect class="cls-3" x="128" y="460.17" width="13.5" height="3"/>
    <rect class="cls-3" x="69.5" y="472.17" width="13.5" height="3"/>
    <rect class="cls-3" x="63.5" y="472.17" width="3" height="3"/>
    <rect class="cls-3" x="63.5" y="460.17" width="3" height="3"/>
    <rect class="cls-3" x="69.5" y="460.17" width="13.5" height="3"/>
    <rect class="cls-3" x="63.5" y="448.17" width="3" height="3"/>
    <path class="cls-3" d="M131,490.17v21.82h-6.81c.03-.32.05-.65.05-.98,0-5.49-4.46-9.95-9.95-9.95-.79,0-1.58.1-2.36.29-2.32-3.29-6.12-5.3-10.19-5.3-5.91,0-11,4.25-12.19,9.91-3.55.09-6.49,2.65-7.17,6.02h-8.39v-21.82h-3v23.32c0,.4.16.78.44,1.06s.66.44,1.06.44h9.9c.71,3.41,3.73,5.98,7.34,5.98h24.55c4.07,0,7.58-2.46,9.12-5.98h9.09c.4,0,.78-.16,1.06-.44s.44-.66.44-1.06v-23.32h-3ZM114.29,517.96h-24.55c-1.94,0-3.59-1.25-4.22-2.98-.17-.48-.28-.99-.28-1.52s.11-1.01.27-1.48c.61-1.75,2.27-3.02,4.23-3.02.26,0,.53.03.82.08l1.63.3.14-1.65c.41-4.85,4.55-8.64,9.42-8.64,3.4,0,6.55,1.84,8.23,4.81l.63,1.12,1.21-.46c.81-.31,1.64-.46,2.48-.46,3.83,0,6.95,3.12,6.95,6.95,0,.33-.03.66-.08.98-.16,1.1-.57,2.13-1.18,3-1.26,1.8-3.34,2.98-5.69,2.98Z"/>
  </g>
  <text class="cls-1" transform="translate(28.38 559.81)"><tspan x="0" y="0">data_center</tspan></text>
  <text class="cls-1" transform="translate(248.38 559.81)"><tspan x="0" y="0">region_edge</tspan></text>
  <text class="cls-1" transform="translate(468.38 559.81)"><tspan x="0" y="0">access_edge</tspan></text>
  <text class="cls-1" transform="translate(715.33 559.81)"><tspan x="0" y="0">on_prem</tspan></text>
  <text class="cls-1" transform="translate(901.64 559.81)"><tspan x="0" y="0">smart_device</tspan></text>
  <text class="cls-1" transform="translate(1148.59 559.81)"><tspan x="0" y="0">iot_edge</tspan></text>
  <text class="cls-1" transform="translate(1341.64 559.81)"><tspan x="0" y="0">browser_edge</tspan></text>
  <g>
    <line class="cls-14" x1="607.34" y1="48.12" x2="24.44" y2="48.12"/>
    <polygon class="cls-12" points="30.06 40.72 26.91 48.12 30.06 55.53 12.5 48.12 30.06 40.72"/>
  </g>
  <g class="cls-19">
    <g>
      <line class="cls-15" x1="284.71" y1="256.7" x2="37.15" y2="256.7"/>
      <polygon class="cls-8" points="42.76 249.29 39.62 256.7 42.76 264.1 25.21 256.7 42.76 249.29"/>
    </g>
  </g>
  <g class="cls-19">
    <g>
      <line class="cls-15" x1="362.52" y1="256.7" x2="610.08" y2="256.7"/>
      <polygon class="cls-8" points="604.47 264.1 607.61 256.7 604.47 249.29 622.02 256.7 604.47 264.1"/>
    </g>
  </g>
  <g>
    <line class="cls-14" x1="918.68" y1="48.12" x2="1503.46" y2="48.12"/>
    <polygon class="cls-12" points="1497.84 55.53 1500.99 48.12 1497.84 40.72 1515.4 48.12 1497.84 55.53"/>
  </g>
  <path class="cls-9" d="M220,654.58v-34.19c0-5.04,4.12-9.16,9.16-9.16H5.21c-2.86,0-5.21,2.34-5.21,5.21v42.1c0,2.86,2.34,5.21,5.21,5.21h223.96c-5.04,0-9.16-4.12-9.16-9.16Z"/>
  <path class="cls-11" d="M660,655.59v-36.19c0-4.49,3.67-8.16,8.16-8.16H229.16c-5.04,0-9.16,4.12-9.16,9.16v34.19c0,5.04,4.12,9.16,9.16,9.16h439c-4.49,0-8.16-3.67-8.16-8.16Z"/>
  <rect class="cls-6" x="660" y="611.24" width="865" height="52.51" rx="8.16" ry="8.16"/>
  <text class="cls-4" transform="translate(73.89 645.51)"><tspan x="0" y="0">cloud</tspan></text>
  <text class="cls-4" transform="translate(349.48 645.51)"><tspan x="0" y="0">provider edge</tspan></text>
  <text class="cls-4" transform="translate(1031.86 645.51)"><tspan x="0" y="0">user_edge</tspan></text>
  <path class="cls-16" d="M766.44,171.79v86.46c0,14.52,11.77,26.29,26.29,26.29h376.81"/>
  <path class="cls-16" d="M105.5,329.07h810.05c11.77,0,21.31-9.54,21.31-21.31h0c0-12.82,10.39-23.21,23.21-23.21"/>
  <path class="cls-16" d="M983.28,171.79v85.67c0,14.96,12.13,27.09,27.09,27.09"/>
  <g>
    <polygon class="cls-13" points="115.98 127.42 69.97 134.09 89.02 150.2 135.03 143.53 115.98 127.42"/>
    <polygon class="cls-13" points="89.02 150.2 89.02 180.56 135.03 173.89 135.03 143.53 89.02 150.2"/>
    <polygon class="cls-2" points="69.97 134.09 69.97 164.46 89.02 180.56 89.02 150.2 69.97 134.09"/>
    <g>
      <g>
        <path class="cls-2" d="M83.33,128.31c-2.92.42-4.68,1.41-4.69,2.45v5.69c0,.34.18.68.58,1.02,1.21,1.02,4.03,1.64,7.01,1.64v-11.01c-.97,0-1.95.06-2.9.2Z"/>
        <path class="cls-13" d="M93.82,130.76c0-.34-.18-.68-.58-1.02-1.21-1.02-4.03-1.64-7.01-1.64v11.01c.97,0,1.95-.06,2.9-.2,2.92-.42,4.68-1.41,4.69-2.45v-5.69Z"/>
      </g>
      <path class="cls-13" d="M93.24,129.74c1.6,1.36-.23,2.91-4.11,3.47s-8.31-.08-9.92-1.44.23-2.91,4.11-3.47,8.31.08,9.92,1.44Z"/>
    </g>
    <g>
      <g>
        <path class="cls-2" d="M92.86,136.36c-2.92.42-4.68,1.41-4.69,2.45v5.69c0,.34.18.68.58,1.02,1.21,1.02,4.03,1.64,7.01,1.64v-11.01c-.97,0-1.95.06-2.9.2Z"/>
        <path class="cls-13" d="M103.35,138.81c0-.34-.18-.68-.58-1.02-1.21-1.02-4.03-1.64-7.01-1.64v11.01c.97,0,1.95-.06,2.9-.2,2.92-.42,4.68-1.41,4.69-2.45v-5.69Z"/>
      </g>
      <path class="cls-13" d="M102.77,137.8c1.6,1.36-.23,2.91-4.11,3.47-3.87.56-8.31-.08-9.92-1.44s.23-2.91,4.11-3.47,8.31.08,9.92,1.44Z"/>
    </g>
    <g>
      <g>
        <path class="cls-2" d="M106.33,124.97c-2.92.42-4.68,1.41-4.69,2.45v5.69c0,.34.18.68.58,1.02,1.21,1.02,4.03,1.64,7.01,1.64v-11.01c-.97,0-1.95.06-2.9.2Z"/>
        <path class="cls-13" d="M116.83,127.42c0-.34-.18-.68-.58-1.02-1.21-1.02-4.03-1.64-7.01-1.64v11.01c.97,0,1.95-.06,2.9-.2,2.92-.42,4.68-1.41,4.69-2.45v-5.69Z"/>
      </g>
      <path class="cls-13" d="M116.25,126.41c1.6,1.36-.23,2.91-4.11,3.47s-8.31-.08-9.92-1.44.23-2.91,4.11-3.47,8.31.08,9.92,1.44Z"/>
    </g>
    <g>
      <g>
        <path class="cls-2" d="M115.86,133.02c-2.92.42-4.68,1.41-4.69,2.45v5.69c0,.34.18.68.58,1.02,1.21,1.02,4.03,1.64,7.01,1.64v-11.01c-.97,0-1.95.06-2.9.2Z"/>
        <path class="cls-13" d="M126.36,135.48c0-.34-.18-.68-.58-1.02-1.21-1.02-4.03-1.64-7.01-1.64v11.01c.97,0,1.95-.06,2.9-.2,2.92-.42,4.68-1.41,4.69-2.45v-5.69Z"/>
      </g>
      <path class="cls-13" d="M125.78,134.46c1.6,1.36-.23,2.91-4.11,3.47s-8.31-.08-9.92-1.44.23-2.91,4.11-3.47,8.31.08,9.92,1.44Z"/>
    </g>
  </g>
  <g>
    <polygon class="cls-13" points="335.98 127.42 289.97 134.1 309.02 150.2 355.03 143.53 335.98 127.42"/>
    <polygon class="cls-13" points="309.02 150.2 309.02 180.56 355.03 173.89 355.03 143.53 309.02 150.2"/>
    <polygon class="cls-2" points="289.97 134.1 289.97 164.46 309.02 180.56 309.02 150.2 289.97 134.1"/>
    <g>
      <g>
        <path class="cls-2" d="M303.33,128.31c-2.92.42-4.68,1.41-4.69,2.45v5.69c0,.34.18.68.58,1.02,1.21,1.02,4.03,1.64,7.01,1.64v-11.01c-.97,0-1.95.06-2.9.2Z"/>
        <path class="cls-13" d="M313.82,130.76c0-.34-.18-.68-.58-1.02-1.21-1.02-4.03-1.64-7.01-1.64v11.01c.97,0,1.95-.06,2.9-.2,2.92-.42,4.68-1.41,4.69-2.45v-5.69Z"/>
      </g>
      <path class="cls-13" d="M313.24,129.74c1.6,1.36-.23,2.91-4.11,3.47s-8.31-.08-9.92-1.44.23-2.91,4.11-3.47,8.31.08,9.92,1.44Z"/>
    </g>
    <g>
      <g>
        <path class="cls-2" d="M312.86,136.36c-2.92.42-4.68,1.41-4.69,2.45v5.69c0,.34.18.68.58,1.02,1.21,1.02,4.03,1.64,7.01,1.64v-11.01c-.97,0-1.95.06-2.9.2Z"/>
        <path class="cls-13" d="M323.35,138.81c0-.34-.18-.68-.58-1.02-1.21-1.02-4.03-1.64-7.01-1.64v11.01c.97,0,1.95-.06,2.9-.2,2.92-.42,4.68-1.41,4.69-2.45v-5.69Z"/>
      </g>
      <path class="cls-13" d="M322.77,137.8c1.6,1.36-.23,2.91-4.11,3.47-3.87.56-8.31-.08-9.92-1.44s.23-2.91,4.11-3.47c3.87-.56,8.31.08,9.92,1.44Z"/>
    </g>
    <g>
      <g>
        <path class="cls-2" d="M326.33,124.97c-2.92.42-4.68,1.41-4.69,2.45v5.69c0,.34.18.68.58,1.02,1.21,1.02,4.03,1.64,7.01,1.64v-11.01c-.97,0-1.95.06-2.9.2Z"/>
        <path class="cls-13" d="M336.83,127.42c0-.34-.18-.68-.58-1.02-1.21-1.02-4.03-1.64-7.01-1.64v11.01c.97,0,1.95-.06,2.9-.2,2.92-.42,4.68-1.41,4.69-2.45v-5.69Z"/>
      </g>
      <path class="cls-13" d="M336.25,126.41c1.6,1.36-.23,2.91-4.11,3.47s-8.31-.08-9.92-1.44.23-2.91,4.11-3.47,8.31.08,9.92,1.44Z"/>
    </g>
    <g>
      <g>
        <path class="cls-2" d="M335.86,133.02c-2.92.42-4.68,1.41-4.69,2.45v5.69c0,.34.18.68.58,1.02,1.21,1.02,4.03,1.64,7.01,1.64v-11.01c-.97,0-1.95.06-2.9.2Z"/>
        <path class="cls-13" d="M346.36,135.48c0-.34-.18-.68-.58-1.02-1.21-1.02-4.03-1.64-7.01-1.64v11.01c.97,0,1.95-.06,2.9-.2,2.92-.42,4.68-1.41,4.69-2.45v-5.69Z"/>
      </g>
      <path class="cls-13" d="M345.78,134.46c1.6,1.36-.23,2.91-4.11,3.47s-8.31-.08-9.92-1.44.23-2.91,4.11-3.47,8.31.08,9.92,1.44Z"/>
    </g>
  </g>
  <g>
    <polygon class="cls-13" points="555.98 127.42 509.97 134.09 529.02 150.2 575.03 143.53 555.98 127.42"/>
    <polygon class="cls-13" points="529.02 150.2 529.02 180.56 575.03 173.89 575.03 143.53 529.02 150.2"/>
    <polygon class="cls-2" points="509.97 134.09 509.97 164.46 529.02 180.56 529.02 150.2 509.97 134.09"/>
    <g>
      <g>
        <path class="cls-2" d="M523.33,128.3c-2.92.42-4.68,1.41-4.69,2.45v5.69c0,.34.18.68.58,1.02,1.21,1.02,4.03,1.64,7.01,1.64v-11.01c-.97,0-1.95.06-2.9.2Z"/>
        <path class="cls-13" d="M533.82,130.76c0-.34-.18-.68-.58-1.02-1.21-1.02-4.03-1.64-7.01-1.64v11.01c.97,0,1.95-.06,2.9-.2,2.92-.42,4.68-1.41,4.69-2.45v-5.69Z"/>
      </g>
      <path class="cls-13" d="M533.24,129.74c1.6,1.36-.23,2.91-4.11,3.47s-8.31-.08-9.92-1.44.23-2.91,4.11-3.47,8.31.08,9.92,1.44Z"/>
    </g>
    <g>
      <g>
        <path class="cls-2" d="M532.86,136.36c-2.92.42-4.68,1.41-4.69,2.45v5.69c0,.34.18.68.58,1.02,1.21,1.02,4.03,1.64,7.01,1.64v-11.01c-.97,0-1.95.06-2.9.2Z"/>
        <path class="cls-13" d="M543.35,138.81c0-.34-.18-.68-.58-1.02-1.21-1.02-4.03-1.64-7.01-1.64v11.01c.97,0,1.95-.06,2.9-.2,2.92-.42,4.68-1.41,4.69-2.45v-5.69Z"/>
      </g>
      <path class="cls-13" d="M542.77,137.79c1.6,1.36-.23,2.91-4.11,3.47-3.87.56-8.31-.08-9.92-1.44s.23-2.91,4.11-3.47,8.31.08,9.92,1.44Z"/>
    </g>
    <g>
      <g>
        <path class="cls-2" d="M546.33,124.97c-2.92.42-4.68,1.41-4.69,2.45v5.69c0,.34.18.68.58,1.02,1.21,1.02,4.03,1.64,7.01,1.64v-11.01c-.97,0-1.95.06-2.9.2Z"/>
        <path class="cls-13" d="M556.83,127.42c0-.34-.18-.68-.58-1.02-1.21-1.02-4.03-1.64-7.01-1.64v11.01c.97,0,1.95-.06,2.9-.2,2.92-.42,4.68-1.41,4.69-2.45v-5.69Z"/>
      </g>
      <path class="cls-13" d="M556.25,126.41c1.6,1.36-.23,2.91-4.11,3.47s-8.31-.08-9.92-1.44.23-2.91,4.11-3.47,8.31.08,9.92,1.44Z"/>
    </g>
    <g>
      <g>
        <path class="cls-2" d="M555.86,133.02c-2.92.42-4.68,1.41-4.69,2.45v5.69c0,.34.18.68.58,1.02,1.21,1.02,4.03,1.64,7.01,1.64v-11.01c-.97,0-1.95.06-2.9.2Z"/>
        <path class="cls-13" d="M566.36,135.47c0-.34-.18-.68-.58-1.02-1.21-1.02-4.03-1.64-7.01-1.64v11.01c.97,0,1.95-.06,2.9-.2,2.92-.42,4.68-1.41,4.69-2.45v-5.69Z"/>
      </g>
      <path class="cls-13" d="M565.78,134.46c1.6,1.36-.23,2.91-4.11,3.47s-8.31-.08-9.92-1.44.23-2.91,4.11-3.47,8.31.08,9.92,1.44Z"/>
    </g>
  </g>
  <g>
    <polygon class="cls-13" points="115.98 297.9 69.97 304.57 89.02 320.67 135.03 314 115.98 297.9"/>
    <polygon class="cls-13" points="89.02 320.67 89.02 351.04 135.03 344.37 135.03 314 89.02 320.67"/>
    <polygon class="cls-2" points="69.97 304.57 69.97 334.93 89.02 351.04 89.02 320.67 69.97 304.57"/>
    <g>
      <g>
        <path class="cls-2" d="M83.33,298.78c-2.92.42-4.68,1.41-4.69,2.45v5.69c0,.34.18.68.58,1.02,1.21,1.02,4.03,1.64,7.01,1.64v-11.01c-.97,0-1.95.06-2.9.2Z"/>
        <path class="cls-13" d="M93.82,301.23c0-.34-.18-.68-.58-1.02-1.21-1.02-4.03-1.64-7.01-1.64v11.01c.97,0,1.95-.06,2.9-.2,2.92-.42,4.68-1.41,4.69-2.45v-5.69Z"/>
      </g>
      <path class="cls-13" d="M93.24,300.22c1.6,1.36-.23,2.91-4.11,3.47-3.87.56-8.31-.08-9.92-1.44s.23-2.91,4.11-3.47,8.31.08,9.92,1.44Z"/>
    </g>
    <g>
      <g>
        <path class="cls-2" d="M92.86,306.83c-2.92.42-4.68,1.41-4.69,2.45v5.69c0,.34.18.68.58,1.02,1.21,1.02,4.03,1.64,7.01,1.64v-11.01c-.97,0-1.95.06-2.9.2Z"/>
        <path class="cls-13" d="M103.35,309.29c0-.34-.18-.68-.58-1.02-1.21-1.02-4.03-1.64-7.01-1.64v11.01c.97,0,1.95-.06,2.9-.2,2.92-.42,4.68-1.41,4.69-2.45v-5.69Z"/>
      </g>
      <path class="cls-13" d="M102.77,308.27c1.6,1.36-.23,2.91-4.11,3.47-3.87.56-8.31-.08-9.92-1.44s.23-2.91,4.11-3.47,8.31.08,9.92,1.44Z"/>
    </g>
    <g>
      <g>
        <path class="cls-2" d="M106.33,295.45c-2.92.42-4.68,1.41-4.69,2.45v5.69c0,.34.18.68.58,1.02,1.21,1.02,4.03,1.64,7.01,1.64v-11.01c-.97,0-1.95.06-2.9.2Z"/>
        <path class="cls-13" d="M116.83,297.9c0-.34-.18-.68-.58-1.02-1.21-1.02-4.03-1.64-7.01-1.64v11.01c.97,0,1.95-.06,2.9-.2,2.92-.42,4.68-1.41,4.69-2.45v-5.69Z"/>
      </g>
      <path class="cls-13" d="M116.25,296.88c1.6,1.36-.23,2.91-4.11,3.47s-8.31-.08-9.92-1.44.23-2.91,4.11-3.47,8.31.08,9.92,1.44Z"/>
    </g>
    <g>
      <g>
        <path class="cls-2" d="M115.86,303.5c-2.92.42-4.68,1.41-4.69,2.45v5.69c0,.34.18.68.58,1.02,1.21,1.02,4.03,1.64,7.01,1.64v-11.01c-.97,0-1.95.06-2.9.2Z"/>
        <path class="cls-13" d="M126.36,305.95c0-.34-.18-.68-.58-1.02-1.21-1.02-4.03-1.64-7.01-1.64v11.01c.97,0,1.95-.06,2.9-.2,2.92-.42,4.68-1.41,4.69-2.45v-5.69Z"/>
      </g>
      <path class="cls-13" d="M125.78,304.93c1.6,1.36-.23,2.91-4.11,3.47s-8.31-.08-9.92-1.44.23-2.91,4.11-3.47,8.31.08,9.92,1.44Z"/>
    </g>
  </g>
  <g>
    <polygon class="cls-13" points="335.98 297.9 289.97 304.57 309.02 320.67 355.03 314 335.98 297.9"/>
    <polygon class="cls-13" points="309.02 320.67 309.02 351.04 355.03 344.37 355.03 314 309.02 320.67"/>
    <polygon class="cls-2" points="289.97 304.57 289.97 334.93 309.02 351.04 309.02 320.67 289.97 304.57"/>
    <g>
      <g>
        <path class="cls-2" d="M303.33,298.78c-2.92.42-4.68,1.41-4.69,2.45v5.69c0,.34.18.68.58,1.02,1.21,1.02,4.03,1.64,7.01,1.64v-11.01c-.97,0-1.95.06-2.9.2Z"/>
        <path class="cls-13" d="M313.82,301.23c0-.34-.18-.68-.58-1.02-1.21-1.02-4.03-1.64-7.01-1.64v11.01c.97,0,1.95-.06,2.9-.2,2.92-.42,4.68-1.41,4.69-2.45v-5.69Z"/>
      </g>
      <path class="cls-13" d="M313.24,300.22c1.6,1.36-.23,2.91-4.11,3.47-3.87.56-8.31-.08-9.92-1.44s.23-2.91,4.11-3.47c3.87-.56,8.31.08,9.92,1.44Z"/>
    </g>
    <g>
      <g>
        <path class="cls-2" d="M312.86,306.83c-2.92.42-4.68,1.41-4.69,2.45v5.69c0,.34.18.68.58,1.02,1.21,1.02,4.03,1.64,7.01,1.64v-11.01c-.97,0-1.95.06-2.9.2Z"/>
        <path class="cls-13" d="M323.35,309.29c0-.34-.18-.68-.58-1.02-1.21-1.02-4.03-1.64-7.01-1.64v11.01c.97,0,1.95-.06,2.9-.2,2.92-.42,4.68-1.41,4.69-2.45v-5.69Z"/>
      </g>
      <path class="cls-13" d="M322.77,308.27c1.6,1.36-.23,2.91-4.11,3.47-3.87.56-8.31-.08-9.92-1.44s.23-2.91,4.11-3.47c3.87-.56,8.31.08,9.92,1.44Z"/>
    </g>
    <g>
      <g>
        <path class="cls-2" d="M326.33,295.45c-2.92.42-4.68,1.41-4.69,2.45v5.69c0,.34.18.68.58,1.02,1.21,1.02,4.03,1.64,7.01,1.64v-11.01c-.97,0-1.95.06-2.9.2Z"/>
        <path class="cls-13" d="M336.83,297.9c0-.34-.18-.68-.58-1.02-1.21-1.02-4.03-1.64-7.01-1.64v11.01c.97,0,1.95-.06,2.9-.2,2.92-.42,4.68-1.41,4.69-2.45v-5.69Z"/>
      </g>
      <path class="cls-13" d="M336.25,296.88c1.6,1.36-.23,2.91-4.11,3.47s-8.31-.08-9.92-1.44.23-2.91,4.11-3.47c3.87-.56,8.31.08,9.92,1.44Z"/>
    </g>
    <g>
      <g>
        <path class="cls-2" d="M335.86,303.5c-2.92.42-4.68,1.41-4.69,2.45v5.69c0,.34.18.68.58,1.02,1.21,1.02,4.03,1.64,7.01,1.64v-11.01c-.97,0-1.95.06-2.9.2Z"/>
        <path class="cls-13" d="M346.36,305.95c0-.34-.18-.68-.58-1.02-1.21-1.02-4.03-1.64-7.01-1.64v11.01c.97,0,1.95-.06,2.9-.2,2.92-.42,4.68-1.41,4.69-2.45v-5.69Z"/>
      </g>
      <path class="cls-13" d="M345.78,304.93c1.6,1.36-.23,2.91-4.11,3.47s-8.31-.08-9.92-1.44.23-2.91,4.11-3.47,8.31.08,9.92,1.44Z"/>
    </g>
  </g>
  <g>
    <polygon class="cls-13" points="555.98 297.9 509.97 304.57 529.02 320.67 575.03 314 555.98 297.9"/>
    <polygon class="cls-13" points="529.02 320.67 529.02 351.04 575.03 344.37 575.03 314 529.02 320.67"/>
    <polygon class="cls-2" points="509.97 304.57 509.97 334.93 529.02 351.04 529.02 320.67 509.97 304.57"/>
    <g>
      <g>
        <path class="cls-2" d="M523.33,298.78c-2.92.42-4.68,1.41-4.69,2.45v5.69c0,.34.18.68.58,1.02,1.21,1.02,4.03,1.64,7.01,1.64v-11.01c-.97,0-1.95.06-2.9.2Z"/>
        <path class="cls-13" d="M533.82,301.23c0-.34-.18-.68-.58-1.02-1.21-1.02-4.03-1.64-7.01-1.64v11.01c.97,0,1.95-.06,2.9-.2,2.92-.42,4.68-1.41,4.69-2.45v-5.69Z"/>
      </g>
      <path class="cls-13" d="M533.24,300.22c1.6,1.36-.23,2.91-4.11,3.47-3.87.56-8.31-.08-9.92-1.44s.23-2.91,4.11-3.47c3.87-.56,8.31.08,9.92,1.44Z"/>
    </g>
    <g>
      <g>
        <path class="cls-2" d="M532.86,306.83c-2.92.42-4.68,1.41-4.69,2.45v5.69c0,.34.18.68.58,1.02,1.21,1.02,4.03,1.64,7.01,1.64v-11.01c-.97,0-1.95.06-2.9.2Z"/>
        <path class="cls-13" d="M543.35,309.29c0-.34-.18-.68-.58-1.02-1.21-1.02-4.03-1.64-7.01-1.64v11.01c.97,0,1.95-.06,2.9-.2,2.92-.42,4.68-1.41,4.69-2.45v-5.69Z"/>
      </g>
      <path class="cls-13" d="M542.77,308.27c1.6,1.36-.23,2.91-4.11,3.47-3.87.56-8.31-.08-9.92-1.44s.23-2.91,4.11-3.47,8.31.08,9.92,1.44Z"/>
    </g>
    <g>
      <g>
        <path class="cls-2" d="M546.33,295.45c-2.92.42-4.68,1.41-4.69,2.45v5.69c0,.34.18.68.58,1.02,1.21,1.02,4.03,1.64,7.01,1.64v-11.01c-.97,0-1.95.06-2.9.2Z"/>
        <path class="cls-13" d="M556.83,297.9c0-.34-.18-.68-.58-1.02-1.21-1.02-4.03-1.64-7.01-1.64v11.01c.97,0,1.95-.06,2.9-.2,2.92-.42,4.68-1.41,4.69-2.45v-5.69Z"/>
      </g>
      <path class="cls-13" d="M556.25,296.88c1.6,1.36-.23,2.91-4.11,3.47s-8.31-.08-9.92-1.44.23-2.91,4.11-3.47,8.31.08,9.92,1.44Z"/>
    </g>
    <g>
      <g>
        <path class="cls-2" d="M555.86,303.5c-2.92.42-4.68,1.41-4.69,2.45v5.69c0,.34.18.68.58,1.02,1.21,1.02,4.03,1.64,7.01,1.64v-11.01c-.97,0-1.95.06-2.9.2Z"/>
        <path class="cls-13" d="M566.36,305.95c0-.34-.18-.68-.58-1.02-1.21-1.02-4.03-1.64-7.01-1.64v11.01c.97,0,1.95-.06,2.9-.2,2.92-.42,4.68-1.41,4.69-2.45v-5.69Z"/>
      </g>
      <path class="cls-13" d="M565.78,304.93c1.6,1.36-.23,2.91-4.11,3.47s-8.31-.08-9.92-1.44.23-2.91,4.11-3.47,8.31.08,9.92,1.44Z"/>
    </g>
  </g>
  <g>
    <polygon class="cls-13" points="775.98 127.42 729.97 134.09 749.02 150.2 795.03 143.53 775.98 127.42"/>
    <polygon class="cls-13" points="749.02 150.2 749.02 180.56 795.03 173.89 795.03 143.53 749.02 150.2"/>
    <polygon class="cls-2" points="729.97 134.09 729.97 164.46 749.02 180.56 749.02 150.2 729.97 134.09"/>
    <g>
      <g>
        <path class="cls-2" d="M743.33,128.31c-2.92.42-4.68,1.41-4.69,2.45v5.69c0,.34.18.68.58,1.02,1.21,1.02,4.03,1.64,7.01,1.64v-11.01c-.97,0-1.95.06-2.9.2Z"/>
        <path class="cls-13" d="M753.82,130.76c0-.34-.18-.68-.58-1.02-1.21-1.02-4.03-1.64-7.01-1.64v11.01c.97,0,1.95-.06,2.9-.2,2.92-.42,4.68-1.41,4.69-2.45v-5.69Z"/>
      </g>
      <path class="cls-13" d="M753.24,129.74c1.6,1.36-.23,2.91-4.11,3.47s-8.31-.08-9.92-1.44.23-2.91,4.11-3.47,8.31.08,9.92,1.44Z"/>
    </g>
    <g>
      <g>
        <path class="cls-2" d="M752.86,136.36c-2.92.42-4.68,1.41-4.69,2.45v5.69c0,.34.18.68.58,1.02,1.21,1.02,4.03,1.64,7.01,1.64v-11.01c-.97,0-1.95.06-2.9.2Z"/>
        <path class="cls-13" d="M763.35,138.81c0-.34-.18-.68-.58-1.02-1.21-1.02-4.03-1.64-7.01-1.64v11.01c.97,0,1.95-.06,2.9-.2,2.92-.42,4.68-1.41,4.69-2.45v-5.69Z"/>
      </g>
      <path class="cls-13" d="M762.77,137.8c1.6,1.36-.23,2.91-4.11,3.47-3.87.56-8.31-.08-9.92-1.44s.23-2.91,4.11-3.47,8.31.08,9.92,1.44Z"/>
    </g>
    <g>
      <g>
        <path class="cls-2" d="M766.33,124.97c-2.92.42-4.68,1.41-4.69,2.45v5.69c0,.34.18.68.58,1.02,1.21,1.02,4.03,1.64,7.01,1.64v-11.01c-.97,0-1.95.06-2.9.2Z"/>
        <path class="cls-13" d="M776.83,127.42c0-.34-.18-.68-.58-1.02-1.21-1.02-4.03-1.64-7.01-1.64v11.01c.97,0,1.95-.06,2.9-.2,2.92-.42,4.68-1.41,4.69-2.45v-5.69Z"/>
      </g>
      <path class="cls-13" d="M776.25,126.41c1.6,1.36-.23,2.91-4.11,3.47s-8.31-.08-9.92-1.44.23-2.91,4.11-3.47,8.31.08,9.92,1.44Z"/>
    </g>
    <g>
      <g>
        <path class="cls-2" d="M775.86,133.02c-2.92.42-4.68,1.41-4.69,2.45v5.69c0,.34.18.68.58,1.02,1.21,1.02,4.03,1.64,7.01,1.64v-11.01c-.97,0-1.95.06-2.9.2Z"/>
        <path class="cls-13" d="M786.36,135.48c0-.34-.18-.68-.58-1.02-1.21-1.02-4.03-1.64-7.01-1.64v11.01c.97,0,1.95-.06,2.9-.2,2.92-.42,4.68-1.41,4.69-2.45v-5.69Z"/>
      </g>
      <path class="cls-13" d="M785.78,134.46c1.6,1.36-.23,2.91-4.11,3.47s-8.31-.08-9.92-1.44.23-2.91,4.11-3.47,8.31.08,9.92,1.44Z"/>
    </g>
  </g>
  <g>
    <polygon class="cls-13" points="995.97 127.42 949.97 134.09 969.02 150.2 1015.03 143.53 995.97 127.42"/>
    <polygon class="cls-13" points="969.02 150.2 969.02 180.56 1015.03 173.89 1015.03 143.53 969.02 150.2"/>
    <polygon class="cls-2" points="949.97 134.09 949.97 164.46 969.02 180.56 969.02 150.2 949.97 134.09"/>
    <g>
      <g>
        <path class="cls-2" d="M963.33,128.31c-2.92.42-4.68,1.41-4.69,2.45v5.69c0,.34.18.68.58,1.02,1.21,1.02,4.03,1.64,7.01,1.64v-11.01c-.97,0-1.95.06-2.9.2Z"/>
        <path class="cls-13" d="M973.82,130.76c0-.34-.18-.68-.58-1.02-1.21-1.02-4.03-1.64-7.01-1.64v11.01c.97,0,1.95-.06,2.9-.2,2.92-.42,4.68-1.41,4.69-2.45v-5.69Z"/>
      </g>
      <path class="cls-13" d="M973.24,129.74c1.6,1.36-.23,2.91-4.11,3.47s-8.31-.08-9.92-1.44.23-2.91,4.11-3.47,8.31.08,9.92,1.44Z"/>
    </g>
    <g>
      <g>
        <path class="cls-2" d="M972.86,136.36c-2.92.42-4.68,1.41-4.69,2.45v5.69c0,.34.18.68.58,1.02,1.21,1.02,4.03,1.64,7.01,1.64v-11.01c-.97,0-1.95.06-2.9.2Z"/>
        <path class="cls-13" d="M983.35,138.81c0-.34-.18-.68-.58-1.02-1.21-1.02-4.03-1.64-7.01-1.64v11.01c.97,0,1.95-.06,2.9-.2,2.92-.42,4.68-1.41,4.69-2.45v-5.69Z"/>
      </g>
      <path class="cls-13" d="M982.77,137.8c1.6,1.36-.23,2.91-4.11,3.47-3.87.56-8.31-.08-9.92-1.44s.23-2.91,4.11-3.47,8.31.08,9.92,1.44Z"/>
    </g>
    <g>
      <g>
        <path class="cls-2" d="M986.33,124.97c-2.92.42-4.68,1.41-4.69,2.45v5.69c0,.34.18.68.58,1.02,1.21,1.02,4.03,1.64,7.01,1.64v-11.01c-.97,0-1.95.06-2.9.2Z"/>
        <path class="cls-13" d="M996.83,127.42c0-.34-.18-.68-.58-1.02-1.21-1.02-4.03-1.64-7.01-1.64v11.01c.97,0,1.95-.06,2.9-.2,2.92-.42,4.68-1.41,4.69-2.45v-5.69Z"/>
      </g>
      <path class="cls-13" d="M996.25,126.41c1.6,1.36-.23,2.91-4.11,3.47s-8.31-.08-9.92-1.44.23-2.91,4.11-3.47,8.31.08,9.92,1.44Z"/>
    </g>
    <g>
      <g>
        <path class="cls-2" d="M995.86,133.02c-2.92.42-4.68,1.41-4.69,2.45v5.69c0,.34.18.68.58,1.02,1.21,1.02,4.03,1.64,7.01,1.64v-11.01c-.97,0-1.95.06-2.9.2Z"/>
        <path class="cls-13" d="M1006.36,135.48c0-.34-.18-.68-.58-1.02-1.21-1.02-4.03-1.64-7.01-1.64v11.01c.97,0,1.95-.06,2.9-.2,2.92-.42,4.68-1.41,4.69-2.45v-5.69Z"/>
      </g>
      <path class="cls-13" d="M1005.78,134.46c1.6,1.36-.23,2.91-4.11,3.47s-8.31-.08-9.92-1.44.23-2.91,4.11-3.47,8.31.08,9.92,1.44Z"/>
    </g>
  </g>
  <g>
    <polygon class="cls-13" points="1215.97 127.42 1169.96 134.09 1189.02 150.2 1235.03 143.53 1215.97 127.42"/>
    <polygon class="cls-13" points="1189.02 150.2 1189.02 180.56 1235.03 173.89 1235.03 143.53 1189.02 150.2"/>
    <polygon class="cls-2" points="1169.96 134.09 1169.96 164.46 1189.02 180.56 1189.02 150.2 1169.96 134.09"/>
    <g>
      <g>
        <path class="cls-2" d="M1183.33,128.31c-2.92.42-4.68,1.41-4.69,2.45v5.69c0,.34.18.68.58,1.02,1.21,1.02,4.03,1.64,7.01,1.64v-11.01c-.97,0-1.95.06-2.9.2Z"/>
        <path class="cls-13" d="M1193.82,130.76c0-.34-.18-.68-.58-1.02-1.21-1.02-4.03-1.64-7.01-1.64v11.01c.97,0,1.95-.06,2.9-.2,2.92-.42,4.68-1.41,4.69-2.45v-5.69Z"/>
      </g>
      <path class="cls-13" d="M1193.24,129.74c1.6,1.36-.23,2.91-4.11,3.47-3.87.56-8.31-.08-9.92-1.44s.23-2.91,4.11-3.47,8.31.08,9.92,1.44Z"/>
    </g>
    <g>
      <g>
        <path class="cls-2" d="M1192.86,136.36c-2.92.42-4.68,1.41-4.69,2.45v5.69c0,.34.18.68.58,1.02,1.21,1.02,4.03,1.64,7.01,1.64v-11.01c-.97,0-1.95.06-2.9.2Z"/>
        <path class="cls-13" d="M1203.35,138.81c0-.34-.18-.68-.58-1.02-1.21-1.02-4.03-1.64-7.01-1.64v11.01c.97,0,1.95-.06,2.9-.2,2.92-.42,4.68-1.41,4.69-2.45v-5.69Z"/>
      </g>
      <path class="cls-13" d="M1202.77,137.8c1.6,1.36-.23,2.91-4.11,3.47-3.87.56-8.31-.08-9.92-1.44s.23-2.91,4.11-3.47,8.31.08,9.92,1.44Z"/>
    </g>
    <g>
      <g>
        <path class="cls-2" d="M1206.33,124.97c-2.92.42-4.68,1.41-4.69,2.45v5.69c0,.34.18.68.58,1.02,1.21,1.02,4.03,1.64,7.01,1.64v-11.01c-.97,0-1.95.06-2.9.2Z"/>
        <path class="cls-13" d="M1216.83,127.42c0-.34-.18-.68-.58-1.02-1.21-1.02-4.03-1.64-7.01-1.64v11.01c.97,0,1.95-.06,2.9-.2,2.92-.42,4.68-1.41,4.69-2.45v-5.69Z"/>
      </g>
      <path class="cls-13" d="M1216.25,126.41c1.6,1.36-.23,2.91-4.11,3.47s-8.31-.08-9.92-1.44.23-2.91,4.11-3.47,8.31.08,9.92,1.44Z"/>
    </g>
    <g>
      <g>
        <path class="cls-2" d="M1215.86,133.02c-2.92.42-4.68,1.41-4.69,2.45v5.69c0,.34.18.68.58,1.02,1.21,1.02,4.03,1.64,7.01,1.64v-11.01c-.97,0-1.95.06-2.9.2Z"/>
        <path class="cls-13" d="M1226.36,135.48c0-.34-.18-.68-.58-1.02-1.21-1.02-4.03-1.64-7.01-1.64v11.01c.97,0,1.95-.06,2.9-.2,2.92-.42,4.68-1.41,4.69-2.45v-5.69Z"/>
      </g>
      <path class="cls-13" d="M1225.78,134.46c1.6,1.36-.23,2.91-4.11,3.47s-8.31-.08-9.92-1.44.23-2.91,4.11-3.47,8.31.08,9.92,1.44Z"/>
    </g>
  </g>
  <g>
    <polygon class="cls-13" points="1435.97 127.42 1389.96 134.09 1409.02 150.2 1455.03 143.53 1435.97 127.42"/>
    <polygon class="cls-13" points="1409.02 150.2 1409.02 180.56 1455.03 173.89 1455.03 143.53 1409.02 150.2"/>
    <polygon class="cls-2" points="1389.96 134.09 1389.96 164.46 1409.02 180.56 1409.02 150.2 1389.96 134.09"/>
    <g>
      <g>
        <path class="cls-2" d="M1403.33,128.31c-2.92.42-4.68,1.41-4.69,2.45v5.69c0,.34.18.68.58,1.02,1.21,1.02,4.03,1.64,7.01,1.64v-11.01c-.97,0-1.95.06-2.9.2Z"/>
        <path class="cls-13" d="M1413.82,130.76c0-.34-.18-.68-.58-1.02-1.21-1.02-4.03-1.64-7.01-1.64v11.01c.97,0,1.95-.06,2.9-.2,2.92-.42,4.68-1.41,4.69-2.45v-5.69Z"/>
      </g>
      <path class="cls-13" d="M1413.24,129.74c1.6,1.36-.23,2.91-4.11,3.47s-8.31-.08-9.92-1.44.23-2.91,4.11-3.47,8.31.08,9.92,1.44Z"/>
    </g>
    <g>
      <g>
        <path class="cls-2" d="M1412.86,136.36c-2.92.42-4.68,1.41-4.69,2.45v5.69c0,.34.18.68.58,1.02,1.21,1.02,4.03,1.64,7.01,1.64v-11.01c-.97,0-1.95.06-2.9.2Z"/>
        <path class="cls-13" d="M1423.35,138.81c0-.34-.18-.68-.58-1.02-1.21-1.02-4.03-1.64-7.01-1.64v11.01c.97,0,1.95-.06,2.9-.2,2.92-.42,4.68-1.41,4.69-2.45v-5.69Z"/>
      </g>
      <path class="cls-13" d="M1422.77,137.8c1.6,1.36-.23,2.91-4.11,3.47-3.87.56-8.31-.08-9.92-1.44s.23-2.91,4.11-3.47,8.31.08,9.92,1.44Z"/>
    </g>
    <g>
      <g>
        <path class="cls-2" d="M1426.33,124.97c-2.92.42-4.68,1.41-4.69,2.45v5.69c0,.34.18.68.58,1.02,1.21,1.02,4.03,1.64,7.01,1.64v-11.01c-.97,0-1.95.06-2.9.2Z"/>
        <path class="cls-13" d="M1436.83,127.42c0-.34-.18-.68-.58-1.02-1.21-1.02-4.03-1.64-7.01-1.64v11.01c.97,0,1.95-.06,2.9-.2,2.92-.42,4.68-1.41,4.69-2.45v-5.69Z"/>
      </g>
      <path class="cls-13" d="M1436.25,126.41c1.6,1.36-.23,2.91-4.11,3.47s-8.31-.08-9.92-1.44.23-2.91,4.11-3.47,8.31.08,9.92,1.44Z"/>
    </g>
    <g>
      <g>
        <path class="cls-2" d="M1435.86,133.02c-2.92.42-4.68,1.41-4.69,2.45v5.69c0,.34.18.68.58,1.02,1.21,1.02,4.03,1.64,7.01,1.64v-11.01c-.97,0-1.95.06-2.9.2Z"/>
        <path class="cls-13" d="M1446.36,135.48c0-.34-.18-.68-.58-1.02-1.21-1.02-4.03-1.64-7.01-1.64v11.01c.97,0,1.95-.06,2.9-.2,2.92-.42,4.68-1.41,4.69-2.45v-5.69Z"/>
      </g>
      <path class="cls-13" d="M1445.78,134.46c1.6,1.36-.23,2.91-4.11,3.47s-8.31-.08-9.92-1.44.23-2.91,4.11-3.47,8.31.08,9.92,1.44Z"/>
    </g>
  </g>
</svg>