<?xml version="1.0" encoding="UTF-8"?>
<svg id="Layer_1" data-name="Layer 1" xmlns="http://www.w3.org/2000/svg" viewBox="0 0 1600 750">
  <defs>
    <style>
      .cls-1 {
        opacity: .9;
      }

      .cls-1, .cls-2, .cls-3, .cls-4, .cls-5, .cls-6, .cls-7, .cls-8 {
        stroke-width: 0px;
      }

      .cls-1, .cls-9, .cls-5, .cls-6, .cls-10 {
        fill: #002e5d;
      }

      .cls-2, .cls-11, .cls-12 {
        fill: #00c389;
      }

      .cls-9, .cls-13, .cls-14, .cls-15, .cls-11, .cls-16, .cls-17, .cls-18 {
        stroke: #002e5d;
        stroke-linejoin: round;
      }

      .cls-9, .cls-14, .cls-15, .cls-11, .cls-16, .cls-17, .cls-18 {
        stroke-linecap: round;
      }

      .cls-9, .cls-14, .cls-11 {
        stroke-width: 1.5px;
      }

      .cls-13, .cls-19, .cls-15, .cls-20, .cls-21, .cls-22, .cls-16, .cls-17, .cls-18, .cls-23 {
        fill: none;
      }

      .cls-13, .cls-15 {
        stroke-width: 2px;
      }

      .cls-3 {
        fill: #326ce5;
      }

      .cls-4 {
        fill: #d9e1e2;
      }

      .cls-19 {
        stroke: #fff;
      }

      .cls-19, .cls-20 {
        stroke-width: 4px;
      }

      .cls-19, .cls-20, .cls-21, .cls-22, .cls-23 {
        stroke-miterlimit: 10;
      }

      .cls-14, .cls-7 {
        fill: #768692;
      }

      .cls-20, .cls-23 {
        stroke: #d9e1e2;
      }

      .cls-21 {
        stroke-dasharray: 0 0 31.57 6.31;
        stroke-width: 3.16px;
      }

      .cls-21, .cls-22 {
        stroke: #00c389;
      }

      .cls-22 {
        stroke-dasharray: 0 0 28.12 5.62;
        stroke-width: 2.81px;
      }

      .cls-6, .cls-24 {
        opacity: .8;
      }

      .cls-16 {
        stroke-dasharray: 0 0 8.12 8.12;
      }

      .cls-16, .cls-17, .cls-18 {
        stroke-width: 3px;
      }

      .cls-25, .cls-7 {
        opacity: .5;
      }

      .cls-17 {
        stroke-dasharray: 0 0 8.4 7.35;
      }

      .cls-23 {
        stroke-dasharray: 0 0 8.38 4.19;
        stroke-width: 4.19px;
      }

      .cls-10 {
        font-size: 20px;
      }

      .cls-10, .cls-12 {
        font-family: CascadiaMonoPL-SemiBold, 'Cascadia Mono PL';
        font-weight: 600;
      }

      .cls-8 {
        fill: #fff;
      }

      .cls-12 {
        font-size: 23px;
      }
    </style>
  </defs>
  <rect class="cls-4" x=".43" y=".65" width="1600" height="750"/>
  <rect class="cls-2" x="477.5" y="499.91" width="205" height="136.39" rx="8.16" ry="8.16"/>
  <rect class="cls-2" x="37.5" y="499.91" width="205" height="136.39" rx="8.16" ry="8.16"/>
  <rect class="cls-7" x="37.5" y="263.37" width="645" height="150" rx="8.64" ry="8.64"/>
  <rect class="cls-2" x="37.5" y="43.13" width="1525" height="200" rx="10.02" ry="10.02"/>
  <rect class="cls-2" x="257.5" y="499.91" width="205" height="136.39" rx="8.16" ry="8.16"/>
  <rect class="cls-2" x="697.5" y="499.91" width="205" height="136.39" rx="8.16" ry="8.16"/>
  <rect class="cls-2" x="917.5" y="499.91" width="205" height="136.39" rx="8.16" ry="8.16"/>
  <rect class="cls-2" x="1137.5" y="499.91" width="205" height="136.39" rx="8.16" ry="8.16"/>
  <rect class="cls-2" x="1357.5" y="499.91" width="205" height="136.39" rx="8.16" ry="8.16"/>
  <g class="cls-25">
    <rect class="cls-23" x="50" y="142.3" width="180" height="481.49" rx="2" ry="2"/>
  </g>
  <g class="cls-25">
    <rect class="cls-23" x="270" y="142.3" width="180" height="481.49" rx="2" ry="2"/>
  </g>
  <g class="cls-25">
    <rect class="cls-23" x="490" y="142.3" width="180" height="481.49" rx="2" ry="2"/>
  </g>
  <g class="cls-25">
    <rect class="cls-23" x="710" y="142.3" width="180" height="481.49" rx="2" ry="2"/>
  </g>
  <g class="cls-25">
    <rect class="cls-23" x="930" y="142.3" width="180" height="481.49" rx="2" ry="2"/>
  </g>
  <g class="cls-25">
    <rect class="cls-23" x="1150" y="142.3" width="180" height="481.49" rx="2" ry="2"/>
  </g>
  <g class="cls-25">
    <rect class="cls-23" x="1370" y="142.3" width="180" height="481.49" rx="2" ry="2"/>
  </g>
  <g>
    <path class="cls-8" d="M831.41,101.47h-4.13v-11.67c0-.76-.07-1.52-.23-2.26-.39-2.11-2.42-3.49-4.53-3.1-.77.14-1.47.52-2.03,1.07-1.29,1.16-2,2.82-1.95,4.55v11.43h-4.08v-11.6c0-.71-.05-1.41-.18-2.1-.15-1.53-1.25-2.8-2.75-3.17-1.65-.43-3.39.18-4.42,1.53-.82.96-1.28,2.17-1.33,3.43-.07,1.78,0,3.56-.07,5.35-.07,1.79,0,3.94,0,5.91v.69h-4.13v-20.44h2.6c.15,0,.34.24.39.41.22.68.4,1.39.61,2.18,1.58-1.93,3.95-3.06,6.45-3.06,2.54-.06,4.89,1.31,6.08,3.55l.49-.59c2.44-3.09,6.81-3.86,10.15-1.79,2,1.32,3.19,3.56,3.17,5.95.11,4.51,0,9.03,0,13.56-.02.07-.05.13-.1.19"/>
    <path class="cls-8" d="M747.02,94.92c.44-1.3.84-2.43,1.22-3.65,1.08-3.2,2.18-6.38,3.22-9.59.08-.42.48-.69.9-.62h3.51c-.43,1.29-.83,2.43-1.22,3.65-1.78,5.43-3.56,10.86-5.36,16.29-.15.43-.33.6-.79.57h-2.3c-.32.06-.63-.14-.72-.46-1.58-3.75-3.18-7.5-4.79-11.25-.07-.18-.16-.35-.3-.64l-1.43,3.4c-1.19,2.76-2.37,5.56-3.54,8.38-.16.36-.32.55-.74.52-.79-.05-1.57-.05-2.36,0-.44,0-.58-.17-.72-.54-2.05-6.19-4.13-12.36-6.24-18.52l-.45-1.39h4.07c.12,0,.3.27.36.45,1.26,3.7,2.51,7.41,3.75,11.13.22.67.45,1.33.72,2.1.15-.3.24-.49.33-.68,1.78-4.05,3.54-8.15,5.3-12.28.19-.49.49-.52.91-.54s.73.07.92.54c1.8,4.13,3.54,8.26,5.37,12.31l.36.81Z"/>
    <path class="cls-8" d="M778.17,101.46h-3.31l-.43-2.43c-2.51,2.42-6.06,3.44-9.47,2.75-2.47-.39-4.7-1.69-6.25-3.65-3.21-4.24-3.01-10.14.47-14.15,4.15-4.31,11.01-4.44,15.32-.29h0c.15-.75.29-1.42.4-2.09,0-.34.19-.47.56-.46h2.29c.33,0,.47.07.47.44v19.76s-.04.02-.06.13M760.7,91.27c0,3.69,2.99,6.69,6.69,6.69s6.69-2.99,6.69-6.69-2.99-6.69-6.69-6.69-6.69,2.99-6.69,6.69"/>
    <path class="cls-8" d="M928.05,84.38v-9.22h2.52v26.37h-1.95l-.39-3.33c-2.22,2.68-5.62,4.1-9.09,3.78-2.59-.12-5.02-1.25-6.78-3.14-3.65-4.14-3.78-10.3-.3-14.59,1.32-1.52,3.07-2.6,5.02-3.1,1.92-.52,3.93-.52,5.85,0,1.99.54,3.78,1.66,5.13,3.22M920.19,99.53c4.38.06,7.99-3.44,8.05-7.83,0-.12,0-.25,0-.37.14-4.45-3.35-8.17-7.8-8.31-4.45-.14-8.17,3.35-8.31,7.8,0,.21,0,.41,0,.62-.11,4.36,3.34,7.98,7.69,8.08.12,0,.25,0,.37,0"/>
    <path class="cls-8" d="M864.39,91.38c0-5.92,4.8-10.72,10.73-10.72,5.92,0,10.72,4.8,10.72,10.72,0,5.92-4.81,10.72-10.73,10.72-5.92,0-10.72-4.8-10.72-10.72M875.13,99.53c4.37.12,8.01-3.33,8.12-7.7,0-.17,0-.33,0-.49,0-4.49-3.64-8.13-8.13-8.13s-8.13,3.64-8.13,8.13c-.17,4.36,3.22,8.02,7.58,8.19.19,0,.38,0,.57,0"/>
    <path class="cls-8" d="M855.55,87.77h-2.13c-.19,0-.44-.26-.56-.45-2.15-3.85-7-5.23-10.85-3.08-2.84,1.58-4.43,4.72-4.03,7.95.32,4.37,4.13,7.64,8.49,7.32,1.56-.12,3.05-.69,4.29-1.65.77-.68,1.44-1.48,1.98-2.36.21-.43.66-.67,1.13-.62h1.66c-.19,3.54-4.95,7.04-9.62,7.14-5.57.12-10.23-4.17-10.58-9.73-.59-5.5,3.22-10.51,8.68-11.41,5.28-.84,10.39,2.16,11.53,6.89"/>
    <path class="cls-8" d="M888.8,81.22h2.52v11.19c0,1.01.13,2.01.4,2.98,1.17,3.26,4.75,4.95,8.01,3.78,1.82-.65,3.23-2.1,3.83-3.94.24-.93.36-1.88.36-2.83v-11.15h2.6v.78c0,3.59.06,7.17,0,10.75-.01,1.38-.24,2.74-.67,4.05-1.33,3.46-4.82,5.59-8.51,5.2-5.26-.27-8.45-3.51-8.51-8.78-.06-3.82,0-7.65,0-11.48-.02-.18-.03-.36-.04-.55"/>
    <rect class="cls-8" x="859.11" y="75.17" width="2.43" height="26.35"/>
    <path class="cls-8" d="M794.18,90.06c-.47-.17-.95-.3-1.43-.4-1.22-.24-2.43-.43-3.65-.69-.75-.15-1.47-.39-2.16-.71-.91-.42-1.31-1.51-.89-2.42.09-.19.21-.37.36-.52.31-.34.69-.61,1.12-.79,1.38-.55,2.92-.55,4.3,0,.99.33,1.7,1.21,1.81,2.25v.07c.01.07.07.13.15.13l3.19-.96c.27-.08.43-.35.36-.62-.3-1.27-1.06-2.38-2.13-3.11-2.61-1.89-6.01-2.31-9-1.11-2.85,1.02-4.63,3.86-4.3,6.87.32,1.92,1.76,3.47,3.65,3.93,1.47.46,3.02.69,4.51,1.07.92.18,1.82.47,2.69.84,1.01.49,1.43,1.7.94,2.71-.13.28-.33.52-.58.72-.36.3-.77.53-1.22.68-1.23.43-2.56.46-3.81.1-1.22-.25-2.19-1.17-2.52-2.37-.02-.09-.04-.18-.07-.27-.01-.07-.07-.13-.15-.13l-3.28.98c-.27.08-.43.36-.35.63t0,0c.42,1.55,1.44,2.86,2.83,3.65,2.92,1.67,6.45,1.87,9.53.52,1.93-.69,3.36-2.33,3.78-4.34.64-2.85-.94-5.73-3.7-6.71"/>
    <path class="cls-8" d="M712.68,77.4l-19.19-11.2c-1.05-.62-2.35-.62-3.39,0l-19.19,11.2c-.92.54-1.48,1.52-1.48,2.59v22.58c0,1.09.58,2.09,1.52,2.64l19.15,11.19c1.03.59,2.29.59,3.32,0l19.19-11.19c.94-.55,1.52-1.55,1.52-2.64v-22.58c0-1.06-.54-2.04-1.45-2.59M708.41,99.6c0,.21-.11.4-.29.51l-16.03,9.4c-.09.06-.2.09-.3.09-.1,0-.2-.03-.29-.09l-15.99-9.4c-.19-.11-.3-.31-.29-.52v-16.62c0-.21.11-.41.29-.52l5.78-3.33c.29-.16.66-.05.83.24.04.08.07.18.07.27v15.53l5.23-3.05v-16.28c-.01-.2.09-.4.26-.51l3.83-2.27c.19-.1.41-.1.6,0l3.79,2.23c.18.11.29.3.29.51v16.33l5.23,3.04v-15.6c.01-.33.29-.6.63-.58.09,0,.19.03.27.08l5.81,3.43c.18.1.3.3.29.51v16.63Z"/>
  </g>
  <g>
    <path class="cls-8" d="M337.67,302.91h2.41v1.91h-2.41v-1.91Z"/>
    <path class="cls-3" d="M365.87,301.33c-.06-.01-.13-.02-.19-.01-.11,0-.22.03-.32.08-.41.2-.59.68-.41,1.1h0s1.94,4.69,1.94,4.69c1.85-1.18,3.26-2.95,4-5.02l-4.99-.84h0ZM358.1,302c-.09-.38-.42-.65-.81-.66-.06,0-.11,0-.17.01h0s-4.95.83-4.95.83c.74,2.05,2.14,3.81,3.98,4.98l1.92-4.63v-.02c.06-.16.07-.35.03-.52ZM362.24,303.81c-.22-.41-.73-.57-1.14-.34-.15.08-.27.2-.35.35h0l-2.43,4.4c1.74.59,3.61.69,5.41.28.33-.08.66-.17.97-.27l-2.44-4.41h-.02ZM369.94,293.59l-3.74,3.35h0c-.35.32-.39.85-.08,1.2.11.12.25.21.41.26v.02s4.85,1.4,4.85,1.4c.21-2.18-.3-4.37-1.44-6.23ZM362.99,293.97c.02.47.42.83.88.81.17,0,.33-.06.46-.16h.01s4.1-2.9,4.1-2.9c-1.56-1.53-3.58-2.5-5.74-2.77l.28,5.02h0ZM358.65,294.63c.38.27.91.19,1.18-.19.1-.13.15-.29.16-.46h.02s.28-5.04.28-5.04c-.34.04-.68.1-1.02.18-1.8.4-3.44,1.3-4.75,2.59l4.12,2.92h0ZM356.46,298.43c.45-.12.72-.59.59-1.04-.04-.16-.13-.31-.26-.42v-.02s-3.76-3.37-3.76-3.37c-1.15,1.87-1.64,4.07-1.4,6.25l4.82-1.39v-.02ZM360.11,299.91l1.39.67,1.38-.67.34-1.49-.96-1.2h-1.54l-.96,1.2.34,1.5Z"/>
    <path class="cls-3" d="M384.45,302.86l-3.96-17.18c-.22-.9-.82-1.66-1.66-2.06l-16.01-7.65c-.84-.4-1.82-.4-2.66,0l-16.01,7.65c-.83.4-1.44,1.16-1.66,2.06l-3.95,17.18c-.1.43-.1.88,0,1.32.03.13.07.26.11.39.08.22.18.43.3.62.05.08.11.16.17.24l11.08,13.78c.05.06.1.11.15.17.17.19.37.35.58.48.27.17.57.3.88.38.25.07.52.11.78.11h17.77c.11,0,.21-.01.32-.02.15-.02.3-.05.45-.09.11-.03.21-.06.31-.1.08-.03.16-.06.24-.1.12-.06.23-.12.34-.19.28-.18.53-.4.74-.65l.34-.42,10.74-13.36c.21-.26.37-.55.48-.86.05-.13.08-.26.11-.39.1-.43.1-.88,0-1.32h0ZM367.84,309.54c.04.13.1.26.16.39-.1.17-.12.37-.07.57.23.53.52,1.04.85,1.52.19.24.36.5.51.76.04.07.09.18.13.26.27.46.13,1.05-.33,1.32-.46.27-1.05.13-1.32-.33-.03-.05-.06-.11-.08-.17-.04-.08-.09-.17-.12-.25-.11-.29-.2-.58-.28-.88-.17-.56-.39-1.1-.66-1.61-.12-.16-.29-.27-.49-.3-.03-.05-.14-.26-.21-.37-2.85,1.08-6,1.07-8.84-.02l-.22.39c-.15.02-.3.09-.41.2-.33.54-.58,1.12-.74,1.72-.08.3-.17.59-.28.88-.03.07-.08.17-.12.24h0s0,0,0,0c-.18.5-.73.76-1.23.58-.5-.18-.76-.73-.58-1.23.02-.06.05-.12.08-.17.04-.08.08-.19.12-.26.16-.26.33-.52.51-.77.34-.49.63-1.01.87-1.56.03-.19,0-.37-.09-.54l.17-.42c-2.62-1.55-4.59-4-5.53-6.9l-.42.07c-.16-.11-.35-.18-.55-.19-.57.11-1.13.27-1.67.49-.28.13-.57.24-.86.33-.07.02-.17.04-.25.06,0,0-.01,0-.02,0,0,0,0,0-.01,0-.5.17-1.05-.11-1.21-.61-.17-.5.11-1.05.61-1.21.06-.02.12-.03.18-.04h.01s0,0,0,0c.08-.02.18-.05.26-.06.3-.04.61-.07.92-.07.58-.04,1.16-.13,1.72-.28.17-.11.31-.25.41-.42l.4-.12c-.44-3.02.26-6.1,1.96-8.65l-.31-.27c-.01-.2-.08-.39-.19-.55-.44-.38-.92-.71-1.43-1-.27-.14-.54-.29-.79-.46-.06-.04-.14-.11-.2-.16h-.01c-.45-.34-.56-.97-.24-1.42.19-.23.47-.35.76-.34.24.01.48.1.67.25.07.05.15.12.21.17.22.21.43.43.63.67.39.43.82.82,1.29,1.17.18.09.38.11.57.06.05.04.24.17.35.25,1.68-1.79,3.86-3.04,6.26-3.58.57-.13,1.15-.22,1.73-.27l.02-.41c.15-.13.26-.3.31-.5.02-.58-.01-1.16-.11-1.74-.06-.3-.1-.61-.13-.91,0-.07,0-.17,0-.25,0,0,0-.02,0-.03-.05-.53.33-1,.86-1.06s1,.33,1.06.86c0,.06,0,.13,0,.19,0,.08,0,.2,0,.27-.03.31-.07.61-.13.91-.09.57-.13,1.16-.11,1.74.04.19.15.37.31.48,0,.07.01.3.02.43,3.03.28,5.86,1.64,7.96,3.84l.36-.26c.2.03.4.01.58-.06.47-.35.9-.74,1.29-1.17.2-.24.41-.46.63-.67.06-.05.15-.12.21-.17.38-.37.99-.37,1.36,0,.37.38.37.99,0,1.36-.05.05-.1.09-.16.13-.06.05-.15.12-.21.17-.26.17-.52.33-.8.46-.51.29-.98.62-1.43,1-.13.15-.19.35-.18.54-.05.05-.24.21-.34.3,1.7,2.53,2.41,5.6,2,8.63l.39.11c.1.17.24.32.41.42.56.15,1.14.24,1.72.28.31,0,.61.03.92.07.08.01.2.05.28.07.53.07.9.55.83,1.08s-.55.9-1.08.83c-.06,0-.12-.02-.17-.04h-.01s-.01,0-.02,0c-.08-.02-.18-.03-.25-.05-.29-.09-.58-.2-.86-.33-.54-.22-1.1-.38-1.67-.49-.2,0-.39.07-.54.2-.14-.03-.27-.05-.41-.07-.93,2.92-2.89,5.39-5.52,6.95h0Z"/>
    <path class="cls-8" d="M386.54,303.3l-4.32-18.75c-.24-.98-.9-1.81-1.81-2.25l-17.47-8.34c-.92-.44-1.98-.44-2.9,0l-17.47,8.35c-.91.44-1.57,1.26-1.81,2.25l-4.31,18.75c-.2.87-.03,1.79.45,2.54.06.09.12.18.19.26l12.09,15.03c.64.78,1.6,1.24,2.61,1.25h19.39c1.01-.01,1.97-.47,2.61-1.25l12.09-15.04c.63-.79.86-1.82.65-2.8h0ZM384.45,304.17c-.03.13-.07.26-.11.39-.11.31-.27.6-.48.86l-10.74,13.36-.34.42c-.21.26-.46.48-.74.65-.11.07-.22.13-.33.19-.08.04-.16.07-.24.1-.1.04-.21.07-.31.1-.15.04-.3.07-.45.09-.11.01-.21.02-.32.02h-17.6s-.17,0-.17,0c-.26,0-.52-.04-.78-.11-.31-.08-.6-.21-.88-.38-.21-.14-.41-.3-.58-.48-.05-.06-.11-.11-.15-.17l-11.08-13.78c-.06-.08-.12-.16-.17-.24-.13-.19-.23-.4-.3-.62-.05-.13-.08-.26-.11-.39-.1-.43-.1-.88,0-1.32l3.95-17.18c.22-.9.82-1.66,1.66-2.06l16.01-7.65c.84-.4,1.82-.4,2.66,0l16.01,7.65c.83.4,1.44,1.16,1.66,2.06l3.96,17.18c.1.43.1.88,0,1.32h0Z"/>
    <path class="cls-8" d="M377.55,301.48c-.08-.02-.2-.05-.28-.07-.3-.04-.61-.07-.92-.07-.58-.04-1.16-.13-1.72-.28-.17-.1-.32-.24-.41-.42l-.39-.11c.41-3.02-.3-6.09-2-8.63.1-.09.29-.26.34-.3-.01-.2.05-.39.18-.54.44-.38.92-.71,1.43-1,.27-.14.54-.29.8-.46.06-.05.15-.12.21-.17.45-.29.58-.88.3-1.33-.29-.45-.88-.58-1.33-.3-.06.04-.11.08-.16.13-.07.05-.15.12-.21.17-.22.21-.44.43-.63.67-.39.43-.82.82-1.29,1.17-.18.07-.39.1-.58.06l-.36.26c-2.1-2.2-4.93-3.57-7.96-3.84,0-.13-.02-.36-.02-.43-.16-.11-.27-.28-.31-.48-.02-.58.02-1.16.11-1.74.06-.3.1-.61.13-.91,0-.08,0-.19,0-.27.05-.53-.33-1-.86-1.06-.53-.05-1,.33-1.06.86,0,.06,0,.13,0,.19,0,0,0,.02,0,.03,0,.08,0,.18,0,.25.03.31.07.61.13.91.09.57.13,1.16.11,1.74-.05.19-.16.36-.31.5l-.02.41c-.58.05-1.16.14-1.73.27-2.4.54-4.58,1.79-6.26,3.58-.12-.08-.23-.16-.35-.25-.19.06-.39.04-.57-.06-.47-.35-.9-.74-1.29-1.17-.2-.24-.41-.46-.63-.67-.06-.05-.15-.12-.21-.17-.19-.15-.42-.24-.67-.25-.29-.02-.58.11-.76.34-.32.46-.22,1.09.24,1.41h.01c.06.06.14.13.2.17.26.17.52.33.79.46.51.29.98.62,1.43,1,.11.16.18.35.19.55l.31.27c-1.69,2.54-2.39,5.62-1.96,8.65l-.4.12c-.1.17-.25.31-.41.42-.56.15-1.14.24-1.72.28-.31,0-.61.03-.92.07-.07.01-.18.04-.26.06h0s-.01,0-.01,0c-.53.07-.9.55-.83,1.08s.55.9,1.08.83c.06,0,.12-.02.17-.04h.01s.01,0,.02,0c.08-.02.18-.04.25-.06.29-.09.58-.2.86-.33.54-.22,1.1-.38,1.67-.49.2.01.39.08.55.19l.42-.07c.94,2.9,2.9,5.35,5.53,6.9l-.17.42c.08.17.11.36.09.54-.24.55-.53,1.07-.87,1.56-.19.25-.36.5-.51.77-.04.07-.09.18-.12.26-.27.46-.13,1.05.33,1.32.46.27,1.05.13,1.32-.33.03-.05.06-.11.08-.17h0c.04-.08.09-.18.12-.25.11-.29.2-.58.28-.88.17-.61.42-1.19.74-1.72.11-.11.26-.18.41-.2l.22-.39c2.85,1.09,5.99,1.1,8.84.02.06.11.17.32.2.37.2.03.37.14.49.3.27.51.49,1.05.66,1.61.08.3.17.59.28.88.03.07.08.17.12.25.18.5.73.76,1.23.58.5-.18.76-.73.58-1.23-.02-.06-.05-.12-.08-.17-.04-.08-.09-.19-.12-.26-.16-.26-.33-.52-.51-.76-.33-.48-.62-.99-.85-1.52-.05-.19-.02-.39.07-.57-.06-.13-.11-.25-.16-.39,2.63-1.56,4.6-4.03,5.52-6.95.12.02.34.06.41.07.15-.13.34-.21.54-.2.57.11,1.13.27,1.67.49.28.13.57.24.86.33.07.02.17.04.25.05,0,0,.01,0,.02,0h.01c.5.17,1.05-.11,1.21-.61.17-.5-.11-1.05-.61-1.21-.06-.02-.11-.03-.17-.04h0ZM368.44,291.72l-4.1,2.9h-.01c-.37.26-.88.19-1.16-.16-.11-.14-.18-.31-.18-.49h0s-.28-5.02-.28-5.02c2.17.27,4.18,1.24,5.74,2.77ZM360.73,297.22h1.54l.96,1.2-.34,1.49-1.38.67-1.39-.67-.34-1.5.96-1.2ZM359.28,289.12c.34-.08.68-.13,1.02-.18l-.29,5.03h-.02c-.02.48-.41.84-.88.82-.17,0-.33-.06-.46-.16h0s-4.12-2.92-4.12-2.92c1.31-1.29,2.96-2.19,4.75-2.59ZM353.03,293.59l3.76,3.37v.02c.35.31.38.84.08,1.19-.11.13-.25.22-.41.26v.02s-4.83,1.39-4.83,1.39c-.24-2.18.25-4.38,1.4-6.25ZM358.07,302.54l-1.92,4.63c-1.84-1.18-3.24-2.93-3.98-4.98l4.95-.84h0c.05,0,.11,0,.17,0,.47,0,.84.39.83.86,0,.11-.02.22-.07.32v.02ZM363.73,308.49c-1.79.41-3.67.31-5.41-.28l2.43-4.4h0c.22-.41.73-.57,1.15-.34.15.08.26.2.34.34h.02l2.44,4.41c-.32.11-.64.2-.97.27ZM366.87,307.19l-1.94-4.68h0c-.18-.42,0-.91.41-1.1.1-.05.21-.08.32-.08.07,0,.13,0,.19.01h0s4.99.83,4.99.83c-.74,2.07-2.14,3.84-4,5.02ZM371.39,299.82l-4.85-1.4v-.02c-.45-.12-.72-.59-.6-1.04.04-.16.13-.3.26-.41h0s3.74-3.36,3.74-3.36c1.15,1.86,1.65,4.05,1.44,6.23Z"/>
  </g>
  <path class="cls-5" d="M387,529.28v24.41h-1.8v-1.17c-.29.1-.59.16-.9.15h-12.6v-1.8h12.6c.24,0,.47-.1.64-.26.17-.17.26-.4.26-.64v-4.65c-.29.1-.59.16-.9.15h-12.6v-1.8h12.6c.24,0,.47-.1.64-.26.17-.17.26-.4.26-.64v-4.65c-.29.1-.59.16-.9.15h-12.6v-1.8h12.6c.24,0,.47-.1.64-.26.17-.17.26-.4.26-.64v-6.3c0-.24-.1-.47-.26-.64-.17-.17-.4-.26-.64-.26h-12.6v-1.8h12.6c.72,0,1.4.29,1.91.79.51.51.79,1.19.79,1.91h0ZM373.5,540.08h-1.8v1.8h1.8v-1.8ZM375.3,540.08v1.8h8.1v-1.8h-8.1ZM373.5,547.28h-1.8v1.8h1.8v-1.8ZM375.3,547.28v1.8h8.1v-1.8h-8.1ZM385.2,555.61v1.57c0,.24-.1.47-.26.64-.17.17-.4.26-.64.26h-12.6v1.8h12.6c.31,0,.61-.05.9-.15v1.05c0,.24-.1.47-.26.64-.17.17-.4.26-.64.26h-12.6v1.8h12.6c.72,0,1.4-.29,1.91-.79.51-.51.79-1.19.79-1.91v-5.4h-1.8v.22ZM373.5,554.48h-1.8v1.8h1.8v-1.8ZM375.3,554.48v1.8h8.1v-1.8h-8.1ZM334.8,529.28c0-.24.1-.47.26-.64.17-.17.4-.26.64-.26h12.6v-1.8h-12.6c-.72,0-1.4.29-1.91.79-.51.51-.79,1.19-.79,1.91v1.91h1.8v-1.91ZM348.3,561.68h-12.6c-.24,0-.47-.1-.64-.26-.17-.17-.26-.4-.26-.64v-1.05c.29.1.59.16.9.15h12.6v-1.8h-12.6c-.24,0-.47-.1-.64-.26-.17-.17-.26-.4-.26-.64v-4.65c.29.1.59.16.9.15h12.6v-1.8h-12.6c-.24,0-.47-.1-.64-.26-.17-.17-.26-.4-.26-.64v-4.65c.29.1.59.16.9.15h12.6v-1.8h-12.6c-.24,0-.47-.1-.64-.26-.17-.17-.26-.4-.26-.64v-4.65c.29.1.59.16.9.15h12.6v-1.8h-12.6c-.24,0-.47-.1-.64-.26-.17-.17-.26-.4-.26-.64v-2.81h-1.8v28.01c0,.72.29,1.4.79,1.91.51.51,1.19.79,1.91.79h12.6v-1.8ZM338.4,541.88v-1.8h-1.8v1.8h1.8ZM348.3,541.88v-1.8h-8.1v1.8h8.1ZM338.4,549.08v-1.8h-1.8v1.8h1.8ZM348.3,549.08v-1.8h-8.1v1.8h8.1ZM338.4,556.28v-1.8h-1.8v1.8h1.8ZM348.3,556.28v-1.8h-8.1v1.8h8.1ZM350.1,564.38v-19.8h1.8v1.8c0,.24.1.47.26.64.17.17.4.26.64.26h14.4c.24,0,.47-.1.64-.26.17-.17.26-.4.26-.64v-4.65c-.29.1-.59.16-.9.15h-14.4c-.31,0-.61-.05-.9-.15v1.17h-1.8v-17.21c0-.72.29-1.4.79-1.91.51-.51,1.19-.79,1.91-.79h14.4c.72,0,1.4.29,1.91.79.51.51.79,1.19.79,1.91v38.7c0,.72-.29,1.4-.79,1.91-.51.51-1.19.79-1.91.79h-14.4c-.72,0-1.4-.29-1.91-.79-.51-.51-.79-1.19-.79-1.91h0ZM351.9,531.98c0,.24.1.47.26.64.17.17.4.26.64.26h14.4c.24,0,.47-.1.64-.26.17-.17.26-.4.26-.64v-6.3c0-.24-.1-.47-.26-.64-.17-.17-.4-.26-.64-.26h-14.4c-.24,0-.47.1-.64.26-.17.17-.26.4-.26.64v6.3ZM368.1,539.18v-4.65c-.29.1-.59.16-.9.15h-14.4c-.31,0-.61-.05-.9-.15v4.65c0,.24.1.47.26.64.17.17.4.26.64.26h14.4c.24,0,.47-.1.64-.26.17-.17.26-.4.26-.64h0ZM368.1,564.38v-1.05c-.29.1-.59.16-.9.15h-14.4c-.31,0-.61-.05-.9-.15v1.05c0,.24.1.47.26.64.17.17.4.26.64.26h14.4c.24,0,.47-.1.64-.26.17-.17.26-.4.26-.64h0ZM351.9,553.58c0,.24.1.47.26.64.17.17.4.26.64.26h14.4c.24,0,.47-.1.64-.26.17-.17.26-.4.26-.64v-4.65c-.29.1-.59.16-.9.15h-14.4c-.31,0-.61-.05-.9-.15v4.65ZM351.9,560.78c0,.24.1.47.26.64.17.17.4.26.64.26h14.4c.24,0,.47-.1.64-.26.17-.17.26-.4.26-.64v-4.65c-.29.1-.59.16-.9.15h-14.4c-.31,0-.61-.05-.9-.15v4.65ZM353.7,538.28h1.8v-1.8h-1.8v1.8ZM357.3,538.28h9v-1.8h-9v1.8ZM353.7,543.68v1.8h1.8v-1.8h-1.8ZM357.3,543.68v1.8h9v-1.8h-9ZM355.5,550.88h-1.8v1.8h1.8v-1.8ZM366.3,550.88h-9v1.8h9v-1.8ZM355.5,558.08h-1.8v1.8h1.8v-1.8ZM366.3,558.08h-9v1.8h9v-1.8ZM377.1,565.28h1.8v9c0,.24-.09.47-.26.64-.17.17-.4.26-.64.26h-15.46c-.25.71-.78,1.28-1.47,1.57-.69.3-1.47.3-2.15,0-.69-.3-1.22-.87-1.47-1.57h-15.46c-.24,0-.47-.09-.64-.26-.17-.17-.26-.4-.26-.64v-9h1.8v8.1h14.56c.27-.77.88-1.37,1.65-1.65v-2.85h1.8v2.85c.77.27,1.37.88,1.65,1.65h14.56v-8.1ZM360.9,574.28c0-.24-.09-.47-.26-.64-.17-.17-.4-.26-.64-.26s-.47.09-.64.26c-.17.17-.26.4-.26.64s.09.47.26.64c.17.17.4.26.64.26.24,0,.47-.1.64-.26.17-.17.26-.4.26-.64h0Z"/>
  <g>
    <path class="cls-5" d="M1004.79,525.98h-21.64c-1.27,0-2.48.5-3.38,1.4-.9.9-1.4,2.11-1.4,3.38v38.45c0,1.27.5,2.48,1.4,3.38.9.9,2.11,1.4,3.38,1.4h21.64c1.27,0,2.48-.5,3.38-1.4.9-.9,1.4-2.11,1.4-3.38v-38.45c0-1.27-.5-2.48-1.4-3.38-.9-.9-2.11-1.4-3.38-1.4ZM1007.98,569.21c0,.84-.34,1.65-.93,2.25-.6.6-1.41.93-2.25.93h-21.64c-.84,0-1.65-.34-2.25-.93-.6-.6-.93-1.41-.93-2.25v-38.45c0-.84.34-1.65.93-2.25.6-.6,1.41-.93,2.25-.93h21.64c.84,0,1.65.34,2.25.93.6.6.93,1.41.93,2.25v38.45ZM993.98,564.09c-.9,0-1.76.36-2.4.99s-.99,1.5-.99,2.4.36,1.76.99,2.4c.64.64,1.5.99,2.4.99s1.76-.36,2.4-.99.99-1.5.99-2.4c0-.9-.36-1.76-1-2.4s-1.5-1-2.4-1h0ZM993.98,569.29c-.48,0-.94-.19-1.28-.53-.34-.34-.53-.8-.53-1.28s.19-.94.53-1.28c.34-.34.8-.53,1.28-.53s.94.19,1.28.53c.34.34.53.8.53,1.28s-.19.94-.53,1.28c-.34.34-.8.53-1.28.53ZM997.37,530.26c0,.21-.08.41-.23.56-.15.15-.35.23-.56.23h-5.2c-.28,0-.55-.15-.69-.4-.14-.25-.14-.55,0-.8.14-.25.4-.4.69-.4h5.2c.21,0,.41.08.56.23.15.15.23.35.23.56h0Z"/>
    <g>
      <path class="cls-5" d="M1055.5,535.87h-2.69c-.2,0-.39-.08-.53-.22-.14-.14-.22-.33-.22-.53v-5.37c0-.2.08-.39.22-.53.14-.14.33-.22.53-.22h2.69c.2,0,.39.08.53.22.14.14.22.33.22.53v5.37c0,.2-.08.39-.22.53-.14.14-.33.22-.53.22ZM1053.56,534.38h1.19v-3.88h-1.19v3.88Z"/>
      <path class="cls-5" d="M1026.17,550.01c-.2,0-.39-.08-.53-.22-.14-.14-.22-.33-.22-.53v-.75c0-.2.08-.39.22-.53.14-.14.33-.22.53-.22s.39.08.53.22c.14.14.22.33.22.53v.75c0,.2-.08.39-.22.53-.14.14-.33.22-.53.22Z"/>
      <path class="cls-5" d="M1025.65,535.87h-2.69c-.2,0-.39-.08-.53-.22-.14-.14-.22-.33-.22-.53v-5.37c0-.2.08-.39.22-.53.14-.14.33-.22.53-.22h2.69c.2,0,.39.08.53.22.14.14.22.33.22.53v5.37c0,.2-.08.39-.22.53-.14.14-.33.22-.53.22ZM1023.71,534.38h1.19v-3.88h-1.19v3.88Z"/>
      <path class="cls-5" d="M1026.37,555.23h-4.11c-.21,0-.4-.08-.54-.23-.13-.14-.21-.32-.21-.51l.72-19.4c0-.2.08-.39.22-.53.14-.14.33-.22.53-.22h2.69c.2,0,.39.08.53.22.14.14.22.33.22.53l.39,10.45c0,.2-.08.39-.22.53-.14.14-.33.22-.53.22s-.39-.08-.53-.22c-.14-.14-.22-.33-.22-.53l-.36-9.7h-1.25l-.66,17.91h2.57l-.05-1.49c0-.2.08-.39.22-.53.14-.14.33-.22.53-.22s.39.08.53.22c.14.14.22.33.22.53l.08,2.24c0,.2-.08.39-.22.53-.14.14-.33.22-.53.22h0Z"/>
      <path class="cls-5" d="M1056.21,555.23h-4.12c-.2,0-.39-.08-.53-.22-.14-.14-.22-.33-.22-.53l.72-19.4c0-.2.08-.39.22-.53.14-.14.33-.22.53-.22h2.69c.2,0,.39.08.53.22.14.14.22.33.22.53l.75,19.4c0,.2-.08.39-.22.53-.14.14-.33.22-.53.22h-.03ZM1052.87,553.74h2.57l-.66-17.87h-1.25l-.66,17.87Z"/>
      <path class="cls-5" d="M1056.21,569.52h-2.8c-.27,0-.51-.14-.65-.37-.13-.23-.13-.52,0-.75.13-.23.38-.37.65-.37h2.8c1.04,0,2.03-.42,2.77-1.15s1.15-1.73,1.15-2.77v-4.96c0-1.04-.42-2.03-1.15-2.77s-1.73-1.15-2.77-1.15h-33.95c-1.04,0-2.03.42-2.77,1.15-.73.73-1.15,1.73-1.15,2.77v4.96c0,1.04.42,2.03,1.15,2.77.73.73,1.73,1.15,2.77,1.15h28.16c.27,0,.51.14.65.37.13.23.13.52,0,.75-.13.23-.38.37-.65.37h-28.16c-1.43,0-2.81-.57-3.82-1.59-1.01-1.01-1.58-2.39-1.59-3.82v-4.96c0-1.43.57-2.81,1.59-3.82,1.01-1.01,2.39-1.58,3.82-1.59h33.95c1.43,0,2.81.57,3.82,1.59,1.01,1.01,1.58,2.39,1.59,3.82v4.96c0,1.43-.57,2.81-1.59,3.82-1.01,1.01-2.39,1.58-3.82,1.59Z"/>
      <path class="cls-5" d="M1050.86,563.27h-23.26c-.87,0-1.71-.35-2.32-.97-.62-.62-.96-1.45-.97-2.32v-5.49c0-.2.08-.39.22-.53.14-.14.33-.22.53-.22h28.35c.2,0,.39.08.53.22.14.14.22.33.22.53v5.49c0,.87-.35,1.71-.97,2.32-.62.62-1.45.96-2.32.97h0ZM1025.8,555.23v4.75c0,.48.19.93.53,1.27.34.34.79.53,1.27.53h23.26c.48,0,.93-.19,1.27-.53.34-.34.53-.79.53-1.27v-4.75h-26.86Z"/>
      <path class="cls-5" d="M1045.95,561.2c-.69,0-1.36-.28-1.85-.76-.49-.49-.76-1.15-.76-1.85s.28-1.36.76-1.85c.49-.49,1.15-.76,1.85-.76s1.36.28,1.85.76c.49.49.76,1.15.76,1.85s-.28,1.36-.76,1.85c-.49.49-1.15.76-1.85.76ZM1045.95,557.47c-.3,0-.58.12-.79.33-.21.21-.33.49-.33.79s.12.58.33.79c.21.21.49.33.79.33s.58-.12.79-.33c.21-.21.33-.49.33-.79s-.12-.58-.33-.79c-.21-.21-.49-.33-.79-.33Z"/>
      <path class="cls-5" d="M1039.23,561.2c-.69,0-1.36-.28-1.85-.76-.49-.49-.76-1.15-.76-1.85s.28-1.36.76-1.85c.49-.49,1.15-.76,1.85-.76s1.36.28,1.85.76c.49.49.76,1.15.76,1.85s-.28,1.36-.76,1.85c-.49.49-1.15.76-1.85.76ZM1039.23,557.47c-.3,0-.58.12-.79.33-.21.21-.33.49-.33.79s.12.58.33.79c.21.21.49.33.79.33s.58-.12.79-.33c.21-.21.33-.49.33-.79s-.12-.58-.33-.79c-.21-.21-.49-.33-.79-.33Z"/>
      <path class="cls-5" d="M1032.52,561.2c-.69,0-1.36-.28-1.85-.76-.49-.49-.76-1.15-.76-1.85s.28-1.36.76-1.85c.49-.49,1.15-.76,1.85-.76s1.36.28,1.85.76c.49.49.76,1.15.76,1.85s-.28,1.36-.76,1.85c-.49.49-1.15.76-1.85.76ZM1032.52,557.47c-.3,0-.58.12-.79.33-.21.21-.33.49-.33.79s.12.58.33.79c.21.21.49.33.79.33s.58-.12.79-.33c.21-.21.33-.49.33-.79s-.12-.58-.33-.79c-.21-.21-.49-.33-.79-.33Z"/>
    </g>
  </g>
  <g>
    <path class="cls-5" d="M1489.14,557.29c-.23,0-.45-.09-.61-.25-.16-.16-.25-.38-.25-.61v-2.55c0-.31.16-.59.43-.74.27-.15.59-.15.86,0,.27.15.43.44.43.74v2.55h0c0,.23-.09.45-.25.61-.16.16-.38.25-.61.25h0Z"/>
    <path class="cls-5" d="M1487.43,579.98h-54.85c-.68,0-1.34-.27-1.82-.75-.48-.48-.75-1.14-.75-1.82v-54.85c0-.68.27-1.34.75-1.82s1.14-.75,1.82-.75h54.85c.68,0,1.34.27,1.82.75.48.48.75,1.14.75,1.82v25.34c0,.31-.16.59-.43.74-.27.15-.59.15-.86,0-.27-.15-.43-.44-.43-.74v-25.34c0-.23-.09-.45-.25-.61-.16-.16-.38-.25-.61-.25h-54.85c-.23,0-.45.09-.61.25-.16.16-.25.38-.25.61v54.85c0,.23.09.45.25.61.16.16.38.25.61.25h54.85c.23,0,.45-.09.61-.25.16-.16.25-.38.25-.61v-6.48c0-.31.16-.59.43-.74.27-.15.59-.15.86,0,.27.15.43.44.43.74v6.48c0,.68-.27,1.34-.75,1.82-.48.48-1.14.75-1.82.75h0Z"/>
    <path class="cls-5" d="M1489.14,565.79c-.23,0-.45-.09-.61-.25-.16-.16-.25-.38-.25-.61v-2.49c0-.31.16-.59.43-.74.27-.15.59-.15.86,0,.27.15.43.44.43.74v2.49c0,.23-.09.45-.25.61-.16.16-.38.25-.61.25h0Z"/>
    <path class="cls-5" d="M1489.14,534.55h-58.28,0c-.31,0-.59-.16-.74-.43-.15-.27-.15-.59,0-.86.15-.27.44-.43.74-.43h58.28,0c.31,0,.59.16.74.43.15.27.15.59,0,.86-.15.27-.44.43-.74.43Z"/>
    <path class="cls-5" d="M1480.88,530.27c-.81,0-1.58-.32-2.15-.89-.57-.57-.89-1.34-.89-2.15,0-.81.32-1.58.89-2.15.57-.57,1.34-.89,2.15-.89.81,0,1.58.32,2.15.89.57.57.89,1.34.89,2.15,0,.81-.32,1.58-.89,2.15-.57.57-1.34.89-2.15.89h0ZM1480.88,525.9c-.35,0-.69.14-.94.39-.25.25-.39.59-.39.94,0,.35.14.69.39.94.25.25.59.39.94.39.35,0,.69-.14.94-.39.25-.25.39-.59.39-.94,0-.35-.14-.69-.39-.94-.25-.25-.59-.39-.94-.39h0Z"/>
    <path class="cls-5" d="M1472.57,530.27c-.81,0-1.58-.32-2.15-.89-.57-.57-.89-1.34-.89-2.15s.32-1.58.89-2.15c.57-.57,1.34-.89,2.15-.89s1.58.32,2.15.89c.57.57.89,1.34.89,2.15,0,.81-.32,1.58-.89,2.15s-1.34.89-2.15.89h0ZM1472.57,525.9c-.35,0-.69.14-.94.39-.25.25-.39.59-.39.94s.14.69.39.94c.25.25.59.39.94.39.35,0,.69-.14.94-.39.25-.25.39-.59.39-.94,0-.35-.14-.69-.39-.94-.25-.25-.59-.39-.94-.39h0Z"/>
    <path class="cls-5" d="M1464.26,530.27c-.81,0-1.58-.32-2.15-.89-.57-.57-.89-1.34-.89-2.15,0-.81.32-1.58.89-2.15.57-.57,1.34-.89,2.15-.89.81,0,1.58.32,2.15.89.57.57.89,1.34.89,2.15,0,.81-.32,1.58-.89,2.15-.57.57-1.34.89-2.15.89h0ZM1464.26,525.9c-.35,0-.69.14-.94.39-.25.25-.39.59-.39.94,0,.35.14.69.39.94.25.25.59.39.94.39.35,0,.69-.14.94-.39.25-.25.39-.59.39-.94,0-.35-.14-.69-.39-.94-.25-.25-.59-.39-.94-.39h0Z"/>
    <path class="cls-5" d="M1456.89,528.08h-19.95c-.31,0-.59-.16-.74-.43-.15-.27-.15-.59,0-.86.15-.27.44-.43.74-.43h19.95c.31,0,.59.16.74.43.15.27.15.59,0,.86-.15.27-.44.43-.74.43Z"/>
    <path class="cls-5" d="M1460,572.78c-4.34,0-8.5-1.72-11.57-4.79-3.07-3.07-4.79-7.23-4.79-11.57,0-4.34,1.72-8.5,4.79-11.57,3.07-3.07,7.23-4.79,11.57-4.79,4.34,0,8.5,1.72,11.57,4.79,3.07,3.07,4.79,7.23,4.79,11.57,0,4.34-1.73,8.5-4.8,11.57-3.07,3.07-7.23,4.79-11.56,4.8h0ZM1460,541.76c-2.9,0-5.73.86-8.14,2.47-2.41,1.61-4.29,3.9-5.4,6.57-1.11,2.68-1.4,5.62-.83,8.46.57,2.84,1.96,5.45,4.01,7.5,2.05,2.05,4.66,3.44,7.5,4.01,2.84.57,5.79.28,8.46-.83,2.68-1.11,4.96-2.99,6.57-5.4,1.61-2.41,2.47-5.24,2.47-8.14,0-3.88-1.55-7.61-4.29-10.35-2.75-2.75-6.47-4.29-10.35-4.3h0Z"/>
    <path class="cls-5" d="M1460,549.29c-3.97.05-7.86-1.16-11.1-3.47-.2-.14-.34-.36-.37-.6s.04-.49.2-.67c.16-.19.39-.29.64-.3h0,0c.19,0,.37.06.51.17,2.94,2.1,6.48,3.21,10.1,3.15,3.62.05,7.16-1.05,10.11-3.15.25-.17.58-.19.86-.06.27.14.46.41.48.71.02.31-.12.6-.38.77-3.23,2.29-7.11,3.49-11.07,3.44h0Z"/>
    <path class="cls-5" d="M1470.62,568.56c-.19,0-.37-.06-.51-.17-1.38-1.01-2.91-1.79-4.54-2.3-3.62-1.12-7.49-1.12-11.11,0-1.64.5-3.17,1.28-4.55,2.29-.18.15-.42.23-.65.2-.24-.03-.45-.15-.59-.34-.14-.19-.2-.43-.16-.66s.18-.44.38-.57c1.53-1.13,3.24-1.99,5.06-2.55,3.95-1.24,8.19-1.24,12.14-.01,1.81.57,3.52,1.43,5.06,2.56.19.14.32.36.34.6.02.24-.06.48-.22.66-.16.18-.39.28-.63.28h0Z"/>
    <path class="cls-5" d="M1460,572.78c-4.46,0-7.95-7.19-7.95-16.36s3.49-16.36,7.95-16.36,7.95,7.19,7.95,16.36-3.49,16.36-7.95,16.36h0ZM1460,541.76c-3.01,0-6.23,5.89-6.23,14.65,0,8.76,3.22,14.65,6.23,14.65s6.23-5.89,6.23-14.65-3.22-14.65-6.23-14.65h0Z"/>
    <path class="cls-5" d="M1460,572.78c-.23,0-.45-.09-.61-.25-.16-.16-.25-.38-.25-.61v-31.01c0-.31.16-.59.43-.74.27-.15.59-.15.86,0,.27.15.43.44.43.74v31.01c0,.23-.09.45-.25.61-.16.16-.38.25-.61.25h0Z"/>
    <path class="cls-5" d="M1475.5,557.27h-31.01c-.31,0-.59-.16-.74-.43-.15-.27-.15-.59,0-.86.15-.27.44-.43.74-.43h31.01c.31,0,.59.16.74.43.15.27.15.59,0,.86-.15.27-.44.43-.74.43Z"/>
  </g>
  <g>
    <path class="cls-5" d="M585.67,559.18h-5.9c-.27,0-.52.16-.66.4-.13.24-.13.53,0,.77.14.24.39.39.66.4h5.9c.21,0,.41-.08.55-.23.15-.15.23-.34.23-.55h0c0-.21-.08-.41-.23-.55-.15-.15-.35-.23-.55-.23Z"/>
    <path class="cls-5" d="M583.92,579.98h18.1s6.34,0,6.34,0c.47,0,.92-.19,1.25-.52.33-.33.52-.78.52-1.25v-8.16c0-.47-.19-.92-.52-1.25s-.78-.52-1.25-.52h-6.34v-2.17h6.34c.47,0,.92-.19,1.25-.52.33-.33.52-.78.52-1.25v-8.16c0-.47-.19-.92-.52-1.25-.33-.33-.78-.52-1.25-.52h-10.61v-5.98c0-.36-.31-.68-.68-.68h-.36v-2.19c0-.39-.31-.68-.68-.68h-.81c.36-1.92,1.01-3.36,1.59-4.32.21.1.44.16.68.16h0c1.2,0,2.19-.99,2.19-2.19s-.96-2.21-2.19-2.21-2.19.99-2.19,2.19c0,.47.13.88.39,1.22-.7,1.12-1.48,2.84-1.9,5.15h-.94v-7.05c.91-.3,1.58-1.19,1.5-2.23-.08-1.06-.94-1.92-2-2.01-1.28-.11-2.37.92-2.37,2.18,0,.96.62,1.77,1.51,2.06v7.08h-.94c-.42-2.32-1.2-4.01-1.9-5.15.23-.36.39-.78.39-1.22,0-1.25-1.09-2.28-2.36-2.18-1.06.08-1.92.94-2.01,2.01-.1,1.27.92,2.36,2.18,2.36.23,0,.47-.05.7-.13.57.96,1.22,2.39,1.61,4.32h-.81c-.37,0-.68.3-.68.68v2.19h-.36c-.37,0-.68.3-.68.68v5.95h-10.66c-.47,0-.92.19-1.25.52-.33.33-.52.78-.52,1.25v8.16c0,.47.19.92.52,1.25.33.33.78.52,1.25.52h6.34v2.18h-6.34c-.47,0-.92.19-1.25.52-.33.33-.52.78-.52,1.25v8.16c0,.47.19.92.52,1.25.33.33.78.52,1.25.52h7.91ZM597.5,537.69c.5,0,.88.41.83.93-.04.38-.35.69-.73.73-.51.05-.93-.33-.93-.83.03-.47.39-.83.83-.83ZM586.8,539.32c-.39-.04-.71-.35-.74-.74-.05-.54.38-.96.91-.91.39.04.71.35.74.74.05.54-.38.96-.91.91ZM591.36,535.68c.04-.39.35-.71.74-.74.54-.05.96.38.91.91-.04.39-.35.71-.74.74-.54.05-.96-.38-.91-.91ZM589.07,546.25h6.27v1.48h-6.27v-1.48ZM588.03,549.11h8.38v5.28h-8.38v-5.28ZM608.37,569.83c.12,0,.21.1.21.21v8.16c0,.12-.1.21-.21.21h-32.35c-.12,0-.21-.1-.21-.21v-8.16c0-.12.1-.21.21-.21h32.35ZM583.92,568.27v-2.17h16.54v2.17h-16.54ZM576.02,564.53c-.12,0-.21-.1-.21-.21v-8.16c0-.12.09-.21.21-.21h32.35c.12,0,.21.1.21.21v8.16c0,.12-.1.21-.21.21h-32.35Z"/>
    <path class="cls-5" d="M604.62,559.18h-3.78c-.21,0-.41.07-.57.22-.15.15-.24.35-.24.56s.09.41.24.56c.15.15.36.23.57.22h3.78c.21,0,.41-.08.55-.23.15-.15.23-.34.23-.55h0c0-.21-.08-.41-.23-.55-.15-.15-.35-.23-.55-.23Z"/>
    <path class="cls-5" d="M598.4,559.18h0s-2.62,0-2.62,0c-.25-.73-.83-1.3-1.56-1.53-.74-.23-1.54-.1-2.16.36-.62.46-.99,1.18-.99,1.95s.37,1.49.99,1.95c.62.46,1.42.59,2.16.36.74-.23,1.32-.8,1.56-1.53h2.62c.21,0,.41-.07.57-.22.15-.15.24-.35.24-.56s-.09-.41-.24-.56c-.15-.15-.36-.23-.57-.22ZM594.1,560.57c-.16.16-.38.25-.61.25h0c-.23,0-.45-.09-.61-.25-.16-.16-.25-.38-.25-.61,0-.23.09-.45.25-.61.16-.16.38-.25.61-.25s.45.09.61.25c.16.16.25.38.25.61s-.09.45-.25.61Z"/>
    <path class="cls-5" d="M600.84,574.63h3.78c.27,0,.52-.16.66-.4.13-.24.13-.53,0-.77-.14-.24-.39-.39-.66-.4h-3.78c-.21,0-.41.08-.55.23-.15.15-.23.35-.23.55h0c0,.21.08.41.23.55.15.15.34.23.55.23Z"/>
    <path class="cls-5" d="M579.77,574.63h5.91c.21,0,.41-.07.57-.22.15-.15.24-.35.24-.56s-.09-.41-.24-.56-.36-.23-.57-.22h-5.9c-.21,0-.41.08-.55.23-.15.15-.23.35-.23.55h0c0,.21.08.41.23.55.15.15.35.23.55.23Z"/>
    <path class="cls-5" d="M591.88,575.65c.44.4,1.02.62,1.61.62h0c.5,0,1-.16,1.41-.45.41-.29.72-.71.88-1.19h2.62c.21,0,.41-.07.57-.22.15-.15.24-.35.24-.56s-.09-.41-.24-.56c-.15-.15-.36-.23-.57-.22h-2.62c-.19-.56-.59-1.04-1.11-1.33s-1.13-.38-1.71-.25c-.58.13-1.09.47-1.44.95-.35.48-.5,1.08-.44,1.67.07.59.35,1.14.79,1.54ZM592.9,573.24c.16-.16.38-.25.61-.25h0c.23,0,.44.09.61.25.16.16.25.38.25.61s-.09.45-.25.61c-.16.16-.38.25-.61.25s-.45-.09-.61-.25c-.16-.16-.25-.38-.25-.61,0-.23.09-.45.25-.61Z"/>
    <path class="cls-5" d="M588.65,533.37c.29.26.7.23.96-.03.68-.73,1.59-1.12,2.58-1.12s1.9.39,2.58,1.12c.13.16.31.21.49.21.16,0,.34-.05.47-.18.29-.26.29-.68.03-.96-.94-.99-2.21-1.56-3.56-1.56-1.38,0-2.65.55-3.56,1.56h0c-.26.29-.23.7.03.96Z"/>
    <path class="cls-5" d="M587.17,531.6h0c.18,0,.36-.08.49-.21,1.2-1.25,2.78-1.92,4.53-1.92s3.33.68,4.53,1.92c.26.26.7.29.96.03.26-.26.29-.7.03-.96-1.46-1.51-3.41-2.34-5.51-2.34s-4.06.83-5.51,2.34c-.26.26-.26.7.03.96.13.13.31.18.47.18Z"/>
    <path class="cls-5" d="M555.56,543.92c-1.77,0-3.19,1.43-3.19,3.19.18,4.24,6.21,4.24,6.39,0,0-1.77-1.43-3.19-3.19-3.19ZM555.56,548.96c-1.01,0-1.84-.83-1.84-1.84.1-2.45,3.59-2.45,3.69,0,0,1.01-.83,1.84-1.84,1.84Z"/>
    <polygon class="cls-5" points="555.56 543.92 555.56 543.92 555.56 543.92 555.56 543.92"/>
    <path class="cls-5" d="M572.57,522.97h0s-2.74,0-2.74,0c-.37,0-.67.3-.67.67v3.55h-3.55v-.42c0-.37-.3-.67-.67-.67h-.53v-5.45c0-.37-.3-.67-.67-.67s-.67.3-.67.67v5.45h-2.27v-3.1c0-.37-.3-.67-.67-.67s-.67.3-.67.67v3.1h-.53c-.37,0-.67.3-.67.67v.42h-3.55v-3.55c0-.37-.3-.67-.67-.67h-2.75c-.37,0-.67.3-.67.67v13.97c0,.37.3.67.67.67h2.75c.37,0,.67-.3.67-.67v-4.26h3.55v8.7c-3.73-2.01-8.39.8-8.35,5.05-.04,4.05,4.27,6.88,7.96,5.23v16.72h-5.21c-.53,0-.96.43-.96.96v9.01c0,.53.43.96.96.96h18.58c.53,0,.96-.43.96-.96v-9.01c0-.53-.43-.96-.96-.96h-5.22v-9.93c2.19.15,4.08-1.63,4.07-3.82.02-2.34-2.15-4.18-4.45-3.78v-5.34c.06.04,1.46.01,1.56.02.19,1.7,1.28,3.35,2.77,4.18.21.12.46.12.67,0s.34-.35.34-.58v-8.56c.01-.51-.58-.85-1.01-.58-1.29.75-2.23,1.97-2.61,3.42-.07.26-.11.52-.15.78-.11.01-1.51-.02-1.56.02v-11.53h3.55v4.26c0,.37.3.67.67.67h2.74c.37,0,.67-.3.67-.67v-13.97c-.01-.37-.31-.67-.69-.67ZM553.32,536.94h-1.41v-12.62h1.41v12.62ZM564.24,528.49v3.32l-1.45-1.68,1.45-1.64ZM564,540.3l-2.09,2.36-2.07-2.36,2.06-2.36,2.1,2.36ZM559.8,533.53l2.09-2.37,2.06,2.37-2.06,2.36-2.09-2.36ZM564.24,542.05v3.28l-1.44-1.65,1.44-1.63ZM561.91,544.72l2.07,2.36-2.07,2.35-.82-.91c.24-.91.22-1.96-.01-2.86l.83-.94ZM561.91,551.47l1.28,1.46c-.62.79-.91,1.81-.79,2.81l-.48.55-2.13-2.41,2.11-2.42ZM559.17,552.55v-1.02c.55-.45,1.01-1,1.35-1.61l.48.54-1.83,2.09ZM561.02,557.3l-1.84,2.08v-4.16l1.84,2.08ZM559.17,561.97l1.84,2.08-1.84,2.08v-4.16ZM559.83,560.68l2.09-2.35,2.09,2.35-2.09,2.36-2.09-2.36ZM564.63,562.01v4.07l-1.81-2.04,1.81-2.04ZM564.62,559.32l-1.8-2.02.07-.08c.4.7,1.01,1.25,1.73,1.57v.53ZM562.81,550.44l1.44-1.64v3.2s-.03.01-.05.02l-1.39-1.59ZM562.79,536.92l1.45-1.66v3.31l-1.45-1.64ZM563.37,527.46l-1.46,1.65-1.44-1.65h2.9ZM559.57,528.48l1.43,1.64-1.43,1.62v-3.26ZM559.57,535.31l1.43,1.61-1.43,1.64v-3.25ZM559.57,543.03v-1l1.44,1.65-.51.57c-.26-.45-.56-.85-.93-1.21h0ZM554.66,532v-3.45h3.55v3.45h-3.55ZM551.21,547.1h0c.1-4.87,6.68-6.03,8.43-1.48.34.91.35,2,.01,2.93-1.71,4.58-8.33,3.44-8.44-1.45ZM570.79,578.75h-17.78v-8.46h17.78v8.46ZM559.17,569.05v-.96c.08-.03.16-.09.22-.17l2.52-2.84,2.53,2.84c.06.06.11.1.18.15v.99h-5.45ZM568.7,555.3h0c-.06,2.92-4.17,3.42-4.9.58-.29-1.15.33-2.43,1.44-2.88,1.61-.7,3.49.54,3.46,2.29ZM569.59,542.65v5.76c-1.48-1.6-1.47-4.18,0-5.76ZM569.15,532h-3.55v-3.45h3.55v3.45ZM571.89,536.94h-1.39v-12.62h1.39v12.62Z"/>
  </g>
  <g>
    <g>
      <path class="cls-5" d="M1251.09,533.67c-.16,0-.33-.05-.46-.14-.13-.09-.24-.23-.29-.39-.18-.51-.26-1.04-.26-1.58v-.89c0-2.42,1.71-4.39,3.8-4.39,1.06.02,2.06.5,2.73,1.33.69.87,1.05,1.95,1.04,3.06v.9c0,.54-.09,1.07-.27,1.58-.04.23-.18.43-.39.55-.2.12-.45.14-.67.05-.22-.08-.39-.26-.47-.48-.08-.22-.05-.47.07-.67.1-.33.15-.68.14-1.04v-.9c.01-.73-.23-1.44-.67-2.01-.36-.48-.92-.77-1.52-.79-1.22,0-2.22,1.26-2.22,2.81v.9c0,.35.06.7.17,1.04.07.2.06.42-.04.62s-.26.34-.47.4c-.08.03-.16.04-.24.05h0Z"/>
      <path class="cls-5" d="M1250.12,550.32h-4.52c-1.07-.01-2.07-.5-2.73-1.34-.7-.86-1.08-1.94-1.07-3.05,0-6.52,3.73-12.2,9.06-13.82,1.97-.6,4.07-.6,6.04,0,1.81.56,3.46,1.57,4.78,2.93.2.2.28.49.2.76-.07.27-.29.48-.56.56-.27.07-.56,0-.76-.21-1.14-1.17-2.56-2.04-4.12-2.53-1.67-.51-3.45-.51-5.12,0-4.68,1.41-7.9,6.47-7.9,12.3,0,.74.24,1.46.7,2.04.36.48.92.77,1.52.79h4.52c.28,0,.54.15.68.4.14.24.14.55,0,.79-.14.24-.4.4-.68.4l-.04-.02Z"/>
      <path class="cls-5" d="M1265.09,545.09c-.2,0-.38-.07-.53-.2-.15-.13-.24-.31-.26-.5-.13-1.17-.39-2.33-.79-3.44-.29-.84-.66-1.66-1.11-2.43-.11-.24-.09-.52.05-.74.14-.22.38-.36.64-.37.26,0,.51.11.67.32.51.86.94,1.77,1.28,2.72.44,1.23.72,2.5.85,3.8.02.21-.04.42-.17.58-.13.16-.32.27-.53.29l-.09-.03Z"/>
      <path class="cls-5" d="M1255.84,550.32h-6.46c-.28,0-.54-.15-.68-.4-.14-.24-.14-.55,0-.79.14-.24.4-.4.68-.4h6.46c.28,0,.54.15.68.4.14.24.14.55,0,.79-.14.24-.4.4-.68.4Z"/>
      <path class="cls-5" d="M1250.17,556.3c-.21,0-.41-.08-.56-.23-.15-.15-.23-.35-.23-.56v-.79c0-.28.15-.54.4-.68.24-.14.55-.14.79,0,.24.14.4.4.4.68v.79c0,.21-.08.41-.23.56-.15.15-.35.23-.56.23h0Z"/>
      <path class="cls-5" d="M1250.11,550.32h-4.51c-1.07-.01-2.07-.51-2.73-1.34-.7-.85-1.08-1.93-1.07-3.03v-.88c.01-.2.1-.39.25-.53.15-.14.34-.21.54-.21h16.47c.28,0,.54.15.68.4.14.24.14.55,0,.79-.14.24-.4.4-.68.4h-15.68v.05c-.01.74.23,1.46.7,2.03.36.48.92.77,1.52.79h4.51c.28,0,.54.15.68.4.14.24.14.55,0,.79-.14.24-.4.4-.68.4v-.02Z"/>
      <path class="cls-5" d="M1266.57,549.98c-.19,0-.38-.07-.52-.2-.96-.84-2.19-1.3-3.46-1.3s-2.5.46-3.46,1.3c-.16.14-.36.21-.57.19-.21-.01-.4-.11-.54-.27-.14-.16-.21-.37-.2-.58.01-.21.11-.41.27-.54,1.25-1.08,2.85-1.68,4.5-1.68s3.25.6,4.5,1.68c.16.14.25.34.26.55,0,.21-.07.42-.21.58-.15.16-.35.26-.57.26h0Z"/>
      <path class="cls-5" d="M1259.6,552.27c-.23,0-.44-.1-.59-.27-.14-.16-.21-.36-.19-.57.01-.21.11-.4.27-.54.97-.85,2.21-1.32,3.5-1.32s2.54.47,3.5,1.32c.17.14.27.33.29.55.02.21-.05.43-.19.59-.14.16-.34.26-.56.27-.22,0-.43-.07-.58-.22-.68-.6-1.56-.92-2.47-.92s-1.78.33-2.47.92c-.14.13-.33.2-.52.2h0Z"/>
      <path class="cls-5" d="M1262.58,556.04c-.47,0-.93-.19-1.26-.52-.33-.33-.52-.79-.52-1.26s.19-.93.52-1.26c.33-.33.79-.52,1.26-.52s.93.19,1.26.52c.33.33.52.79.52,1.26s-.19.93-.52,1.26c-.33.33-.79.52-1.26.52ZM1262.58,554.05c-.11,0-.21.09-.21.21,0,.23.41.23.41,0,0-.05-.02-.11-.06-.15-.04-.04-.09-.06-.15-.06Z"/>
      <path class="cls-5" d="M1253.88,573.69c-2.12,0-4.14-.84-5.64-2.34-1.5-1.5-2.34-3.52-2.34-5.64v-16.17c0-.21.08-.41.23-.56.15-.15.35-.23.56-.23h9.15c.25,0,.49.1.64.3.16.19.21.45.15.69-.14.52-.2,1.05-.2,1.58,0,1.4.49,2.76,1.36,3.86.88,1.1,2.1,1.86,3.47,2.17.18.04.34.14.45.28.11.14.17.32.17.51v7.58c0,1.4-.37,2.78-1.08,4-.7,1.21-1.71,2.22-2.93,2.92-1.22.7-2.6,1.07-4,1.06h0ZM1247.48,550.32v15.38c0,2.29,1.22,4.4,3.2,5.54,1.98,1.14,4.42,1.14,6.4,0s3.2-3.26,3.2-5.54v-7.03c-1.58-.5-2.95-1.49-3.93-2.82-.98-1.33-1.51-2.94-1.52-4.59,0-.32,0-.63.06-.95h-7.4Z"/>
      <path class="cls-5" d="M1253.88,569.74c-2.48,0-4.5-2.24-4.5-5.01v-6.05c0-.28.15-.54.4-.68.24-.14.55-.14.79,0,.24.14.4.4.4.68v6.05c0,1.89,1.31,3.43,2.92,3.43s2.92-1.58,2.92-3.43v-8.29c-1.28-1.42-1.98-3.26-1.98-5.17,0-.32,0-.63.06-.95h-3.95v1.24c0,.28-.15.54-.4.68-.24.14-.55.14-.79,0-.24-.14-.4-.4-.4-.68v-2.03c0-.21.08-.41.23-.56.15-.15.35-.23.56-.23h5.67c.25,0,.49.1.64.3.16.19.21.45.15.69-.14.52-.2,1.05-.2,1.58,0,1.61.63,3.16,1.75,4.31.14.15.22.35.22.55v8.56c0,2.77-2.02,5.01-4.5,5.01h0Z"/>
      <path class="cls-5" d="M1262.58,559.03c-2.06,0-4.03-.82-5.49-2.27s-2.27-3.43-2.27-5.49.82-4.03,2.27-5.49c1.46-1.46,3.43-2.27,5.49-2.27s4.03.82,5.49,2.27c1.46,1.46,2.27,3.43,2.27,5.49,0,2.06-.82,4.03-2.27,5.48s-3.43,2.27-5.48,2.27h0ZM1262.58,545.09c-1.64,0-3.21.65-4.37,1.81-1.16,1.16-1.81,2.73-1.81,4.37s.65,3.21,1.81,4.37c1.16,1.16,2.73,1.81,4.37,1.81s3.21-.65,4.37-1.81c1.16-1.16,1.81-2.73,1.81-4.37s-.65-3.21-1.81-4.37c-1.16-1.16-2.73-1.81-4.37-1.81Z"/>
    </g>
    <g id="_5hoto2.tif" data-name="5hoto2.tif">
      <g>
        <path class="cls-5" d="M1230.29,537.43c.22.03.44.05.65.1,1.88.4,3.19,1.49,3.95,3.25.28.65.39,1.34.39,2.04,0,3.39,0,6.77,0,10.16,0,.53-.3.9-.78.98-.49.08-.99-.29-1.04-.79,0-.09-.01-.18-.01-.27,0-3.35,0-6.71,0-10.06,0-1.25-.5-2.24-1.52-2.97-.6-.43-1.28-.61-2.02-.61-2.94,0-5.87,0-8.81,0-1.46,0-2.92,0-4.37,0-1.55,0-2.89,1.01-3.34,2.48-.11.35-.15.71-.15,1.07,0,4.98,0,9.97,0,14.95,0,1.57.94,2.89,2.39,3.38.38.13.77.18,1.17.18,2.73,0,5.46,0,8.2,0,1.65,0,3.3,0,4.95,0,1.48,0,2.75-.89,3.28-2.26.16-.42.23-.85.23-1.29,0-.34,0-.69,0-1.03.01-.56.43-.96.97-.93.43.02.83.36.85.77.04.94.09,1.89-.22,2.8-.69,2.05-2.11,3.29-4.23,3.7-.31.06-.62.07-.94.07-4.36,0-8.72.01-13.09,0-1.97,0-3.51-.86-4.59-2.51-.51-.79-.77-1.66-.8-2.6,0-.07-.01-.14-.02-.2,0-5.03,0-10.06,0-15.1,0-.04.02-.09.02-.13.05-1.49.63-2.75,1.71-3.77.74-.7,1.62-1.14,2.63-1.32.21-.04.43-.06.64-.1,4.64,0,9.28,0,13.92,0Z"/>
        <path class="cls-5" d="M1223.33,556.73c-1.23,0-2.45.02-3.67,0-2.21-.05-4.13-1.72-4.51-3.9-.05-.28-.08-.57-.08-.85,0-1.16-.02-2.32,0-3.48.05-2.21,1.66-4.1,3.82-4.53.32-.06.65-.09.97-.09,2.31,0,4.61,0,6.92,0,2.22,0,4.1,1.45,4.66,3.58.1.39.15.79.15,1.19,0,1.16.02,2.33,0,3.49-.05,2.22-1.71,4.14-3.89,4.52-.33.06-.67.08-1,.08-1.12.01-2.25,0-3.37,0h0ZM1223.31,554.89h0c1.13,0,2.26,0,3.39,0,.36,0,.71-.04,1.05-.16,1.23-.42,2-1.52,2-2.84,0-1.07,0-2.13,0-3.2,0-.13,0-.26-.02-.39-.2-1.53-1.42-2.6-2.96-2.6-2.3,0-4.61,0-6.91,0-.27,0-.54.03-.8.1-1.31.35-2.17,1.49-2.18,2.88,0,1.07,0,2.15,0,3.22,0,.13,0,.25.02.38.19,1.47,1.35,2.56,2.84,2.6,1.19.03,2.38,0,3.56,0Z"/>
        <path class="cls-5" d="M1223.32,542.49c-.51,0-.92-.41-.91-.92,0-.51.42-.92.92-.92.51,0,.92.42.91.92,0,.51-.41.91-.92.91Z"/>
        <path class="cls-5" d="M1223.33,558.12c.51,0,.92.41.92.92,0,.51-.41.92-.92.92-.5,0-.92-.41-.92-.92,0-.51.41-.92.92-.92Z"/>
        <path class="cls-5" d="M1221.49,550.3c0,.62,0,1.23,0,1.85,0,.45-.34.84-.77.89-.47.06-.89-.2-1.02-.65-.03-.09-.04-.18-.04-.28,0-1.21,0-2.42,0-3.64,0-.53.4-.94.92-.94.52,0,.91.41.92.95,0,.6,0,1.21,0,1.81h0Z"/>
        <path class="cls-5" d="M1227,550.31c0,.62,0,1.23,0,1.85,0,.39-.25.72-.61.85-.36.13-.75.02-1-.26-.14-.17-.22-.36-.22-.58,0-1.24,0-2.47,0-3.71,0-.51.42-.9.92-.9.5,0,.91.4.91.9,0,.62,0,1.24,0,1.86Z"/>
      </g>
    </g>
  </g>
  <path class="cls-5" d="M784.14,532.97c0-.23.09-.45.25-.61.16-.16.38-.25.61-.25h12v-1.71h-12c-.68,0-1.34.27-1.82.75-.48.48-.75,1.14-.75,1.82v1.82h1.71v-1.82ZM797,563.83h-12c-.23,0-.45-.09-.61-.25-.16-.16-.25-.38-.25-.61v-1c.28.1.57.15.86.15h12v-1.71h-12c-.23,0-.45-.09-.61-.25-.16-.16-.25-.38-.25-.61v-4.43c.28.1.57.15.86.15h12v-1.71h-12c-.23,0-.45-.09-.61-.25-.16-.16-.25-.38-.25-.61v-4.43c.28.1.57.15.86.15h12v-1.71h-12c-.23,0-.45-.09-.61-.25-.16-.16-.25-.38-.25-.61v-4.43c.28.1.57.15.86.15h12v-1.71h-12c-.23,0-.45-.09-.61-.25-.16-.16-.25-.38-.25-.61v-2.68h-1.71v26.68c0,.68.27,1.34.75,1.82.48.48,1.14.75,1.82.75h12v-1.71ZM787.57,544.97v-1.71h-1.71v1.71h1.71ZM797,544.97v-1.71h-7.71v1.71h7.71ZM787.57,551.83v-1.71h-1.71v1.71h1.71ZM797,551.83v-1.71h-7.71v1.71h7.71ZM787.57,558.69v-1.71h-1.71v1.71h1.71ZM797,558.69v-1.71h-7.71v1.71h7.71ZM798.71,568.41v-18.86h1.71v1.71c0,.23.09.45.25.61.16.16.38.25.61.25h13.71c.23,0,.45-.09.61-.25.16-.16.25-.38.25-.61v-4.43c-.28.1-.57.15-.86.15h-13.71c-.29,0-.58-.05-.86-.15v1.11h-1.71v-16.39c0-.68.27-1.34.75-1.82.48-.48,1.14-.75,1.82-.75h13.71c.68,0,1.34.27,1.82.75.48.48.75,1.14.75,1.82v36.86c0,.68-.27,1.34-.75,1.82-.48.48-1.14.75-1.82.75h-13.71c-.68,0-1.34-.27-1.82-.75-.48-.48-.75-1.14-.75-1.82h0ZM800.43,537.55c0,.23.09.45.25.61.16.16.38.25.61.25h13.71c.23,0,.45-.09.61-.25.16-.16.25-.38.25-.61v-6c0-.23-.09-.45-.25-.61-.16-.16-.38-.25-.61-.25h-13.71c-.23,0-.45.09-.61.25-.16.16-.25.38-.25.61v6ZM815.86,544.41v-4.43c-.28.1-.57.15-.86.15h-13.71c-.29,0-.58-.05-.86-.15v4.43c0,.23.09.45.25.61.16.16.38.25.61.25h13.71c.23,0,.45-.09.61-.25.16-.16.25-.38.25-.61h0ZM815.86,568.41v-1c-.28.1-.57.15-.86.15h-13.71c-.29,0-.58-.05-.86-.15v1c0,.23.09.45.25.61.16.16.38.25.61.25h13.71c.23,0,.45-.09.61-.25.16-.16.25-.38.25-.61h0ZM800.43,558.13c0,.23.09.45.25.61.16.16.38.25.61.25h13.71c.23,0,.45-.09.61-.25.16-.16.25-.38.25-.61v-4.43c-.28.1-.57.15-.86.15h-13.71c-.29,0-.58-.05-.86-.15v4.43ZM800.43,564.98c0,.23.09.45.25.61.16.16.38.25.61.25h13.71c.23,0,.45-.09.61-.25.16-.16.25-.38.25-.61v-4.43c-.28.1-.57.15-.86.15h-13.71c-.29,0-.58-.05-.86-.15v4.43ZM802.14,543.55h1.71v-1.71h-1.71v1.71ZM805.57,543.55h8.57v-1.71h-8.57v1.71ZM802.14,548.7v1.71h1.71v-1.71h-1.71ZM805.57,548.7v1.71h8.57v-1.71h-8.57ZM803.86,555.55h-1.71v1.71h1.71v-1.71ZM814.14,555.55h-8.57v1.71h8.57v-1.71ZM803.86,562.41h-1.71v1.71h1.71v-1.71ZM814.14,562.41h-8.57v1.71h8.57v-1.71Z"/>
  <g>
    <rect class="cls-5" x="151.7" y="536.34" width="1.8" height="1.8"/>
    <path class="cls-5" d="M132.8,563.34h14.4c.72,0,1.4-.29,1.91-.79.51-.51.79-1.19.79-1.91v-38.7c0-.72-.29-1.4-.79-1.91-.51-.51-1.19-.79-1.91-.79h-14.4c-.72,0-1.4.29-1.91.79-.51.51-.79,1.19-.79,1.91v17.21h1.8v-1.17c.29.1.59.16.9.15h14.4c.31,0,.61-.05.9-.15v4.65c0,.24-.1.47-.26.64-.17.17-.4.26-.64.26h-14.4c-.24,0-.47-.1-.64-.26-.17-.17-.26-.4-.26-.64v-1.8h-1.8v19.8h0c0,.72.29,1.4.79,1.91.51.51,1.19.79,1.91.79ZM131.9,521.94c0-.24.1-.47.26-.64.17-.17.4-.26.64-.26h14.4c.24,0,.47.1.64.26.17.17.26.4.26.64v6.3c0,.24-.1.47-.26.64-.17.17-.4.26-.64.26h-14.4c-.24,0-.47-.1-.64-.26-.17-.17-.26-.4-.26-.64v-6.3ZM147.84,536.08c-.17.17-.4.26-.64.26h-14.4c-.24,0-.47-.1-.64-.26-.17-.17-.26-.4-.26-.64v-4.65c.29.1.59.16.9.15h14.4c.31,0,.61-.05.9-.15v4.65c0,.24-.1.47-.26.64ZM131.9,545.19c.29.1.59.16.9.15h14.4c.31,0,.61-.05.9-.15v4.65c0,.24-.1.47-.26.64-.17.17-.4.26-.64.26h-14.4c-.24,0-.47-.1-.64-.26-.17-.17-.26-.4-.26-.64v-4.65ZM131.9,552.39c.29.1.59.16.9.15h14.4c.31,0,.61-.05.9-.15v4.65c0,.24-.1.47-.26.64-.17.17-.4.26-.64.26h-14.4c-.24,0-.47-.1-.64-.26-.17-.17-.26-.4-.26-.64v-4.65ZM131.9,559.59c.29.1.59.16.9.15h14.4c.31,0,.61-.05.9-.15v1.05c0,.24-.1.47-.26.64-.17.17-.4.26-.64.26h-14.4c-.24,0-.47-.1-.64-.26-.17-.17-.26-.4-.26-.64v-1.05Z"/>
    <path class="cls-5" d="M114.8,525.54c0-.24.1-.47.26-.64.17-.17.4-.26.64-.26h12.6v-1.8h-12.6c-.72,0-1.4.29-1.91.79-.51.51-.79,1.19-.79,1.91v1.91h1.8v-1.91Z"/>
    <rect class="cls-5" x="137.3" y="532.74" width="9" height="1.8"/>
    <rect class="cls-5" x="151.7" y="543.54" width="1.8" height="1.8"/>
    <rect class="cls-5" x="133.7" y="539.94" width="1.8" height="1.8"/>
    <rect class="cls-5" x="137.3" y="539.94" width="9" height="1.8"/>
    <rect class="cls-5" x="137.3" y="547.14" width="9" height="1.8"/>
    <rect class="cls-5" x="133.7" y="554.34" width="1.8" height="1.8"/>
    <rect class="cls-5" x="133.7" y="532.74" width="1.8" height="1.8"/>
    <rect class="cls-5" x="133.7" y="547.14" width="1.8" height="1.8"/>
    <rect class="cls-5" x="137.3" y="554.34" width="9" height="1.8"/>
    <rect class="cls-5" x="151.7" y="550.74" width="1.8" height="1.8"/>
    <rect class="cls-5" x="120.2" y="536.34" width="8.1" height="1.8"/>
    <path class="cls-5" d="M165.2,551.87v1.58c0,.24-.1.47-.26.64-.17.17-.4.26-.64.26h-12.6v1.8h12.6c.31,0,.61-.05.9-.15v1.05c0,.24-.1.47-.26.64-.17.17-.4.26-.64.26h-12.6v1.8h12.6c.72,0,1.4-.29,1.91-.79.51-.51.79-1.19.79-1.91v-5.4h-1.8v.23Z"/>
    <path class="cls-5" d="M128.3,557.94h-12.6c-.24,0-.47-.1-.64-.26-.17-.17-.26-.4-.26-.64v-1.05c.29.1.59.16.9.15h12.6v-1.8h-12.6c-.24,0-.47-.1-.64-.26-.17-.17-.26-.4-.26-.64v-4.65c.29.1.59.16.9.15h12.6v-1.8h-12.6c-.24,0-.47-.1-.64-.26-.17-.17-.26-.4-.26-.64v-4.65c.29.1.59.16.9.15h12.6v-1.8h-12.6c-.24,0-.47-.1-.64-.26-.17-.17-.26-.4-.26-.64v-4.65c.29.1.59.16.9.15h12.6v-1.8h-12.6c-.24,0-.47-.1-.64-.26-.17-.17-.26-.4-.26-.64v-2.81h-1.8v28.01c0,.72.29,1.4.79,1.91.51.51,1.19.79,1.91.79h12.6v-1.8Z"/>
    <rect class="cls-5" x="155.3" y="550.74" width="8.1" height="1.8"/>
    <path class="cls-5" d="M166.21,523.63c-.51-.51-1.19-.79-1.91-.79h-12.6v1.8h12.6c.24,0,.47.1.64.26.17.17.26.4.26.64v6.3c0,.24-.1.47-.26.64-.17.17-.4.26-.64.26h-12.6v1.8h12.6c.31,0,.61-.05.9-.15v4.65c0,.24-.1.47-.26.64-.17.17-.4.26-.64.26h-12.6v1.8h12.6c.31,0,.61-.05.9-.15v4.65c0,.24-.1.47-.26.64-.17.17-.4.26-.64.26h-12.6v1.8h12.6c.31,0,.61-.05.9-.15v1.17h1.8v-24.41h0c0-.72-.29-1.4-.79-1.91Z"/>
    <rect class="cls-5" x="155.3" y="536.34" width="8.1" height="1.8"/>
    <rect class="cls-5" x="155.3" y="543.54" width="8.1" height="1.8"/>
    <rect class="cls-5" x="120.2" y="550.74" width="8.1" height="1.8"/>
    <rect class="cls-5" x="116.6" y="550.74" width="1.8" height="1.8"/>
    <rect class="cls-5" x="116.6" y="543.54" width="1.8" height="1.8"/>
    <rect class="cls-5" x="120.2" y="543.54" width="8.1" height="1.8"/>
    <rect class="cls-5" x="116.6" y="536.34" width="1.8" height="1.8"/>
    <path class="cls-5" d="M157.1,561.54v13.09h-4.08c.02-.19.03-.39.03-.59,0-3.29-2.68-5.97-5.97-5.97-.48,0-.95.06-1.42.17-1.39-1.98-3.67-3.18-6.11-3.18-3.55,0-6.6,2.55-7.31,5.95-2.13.05-3.89,1.59-4.3,3.61h-5.03v-13.09h-1.8v13.99c0,.24.09.47.26.64s.4.26.64.26h5.94c.42,2.04,2.24,3.59,4.41,3.59h14.73c2.44,0,4.55-1.48,5.47-3.59h5.46c.24,0,.47-.09.64-.26s.26-.4.26-.64v-13.99h-1.8ZM147.07,578.22h-14.73c-1.17,0-2.15-.75-2.53-1.79-.1-.29-.17-.59-.17-.91s.06-.61.16-.89c.37-1.05,1.36-1.81,2.54-1.81.16,0,.32.02.49.05l.98.18.08-.99c.25-2.91,2.73-5.19,5.65-5.19,2.04,0,3.93,1.11,4.94,2.89l.38.67.72-.28c.48-.18.98-.28,1.49-.28,2.3,0,4.17,1.87,4.17,4.17,0,.2-.02.39-.05.59-.09.66-.34,1.28-.71,1.8-.75,1.08-2,1.79-3.42,1.79Z"/>
  </g>
  <text class="cls-10" transform="translate(75.55 604.66)"><tspan x="0" y="0">data_center</tspan></text>
  <text class="cls-10" transform="translate(118.91 468.44)"><tspan x="0" y="0">cross-region and cross-cloud resilience</tspan></text>
  <text class="cls-10" transform="translate(295.55 604.66)"><tspan x="0" y="0">region_edge</tspan></text>
  <text class="cls-10" transform="translate(515.55 604.66)"><tspan x="0" y="0">access_edge</tspan></text>
  <text class="cls-10" transform="translate(758.98 604.66)"><tspan x="0" y="0">on_prem</tspan></text>
  <text class="cls-10" transform="translate(949.69 604.66)"><tspan x="0" y="0">smart_device</tspan></text>
  <text class="cls-10" transform="translate(1193.13 604.66)"><tspan x="0" y="0">iot_edge</tspan></text>
  <text class="cls-10" transform="translate(1389.69 604.66)"><tspan x="0" y="0">browser_edge</tspan></text>
  <g>
    <line class="cls-19" x1="644.84" y1="91.25" x2="61.94" y2="91.25"/>
    <polygon class="cls-8" points="67.56 83.84 64.41 91.25 67.56 98.66 50 91.25 67.56 83.84"/>
  </g>
  <g class="cls-24">
    <g>
      <line class="cls-20" x1="322.21" y1="299.82" x2="74.65" y2="299.82"/>
      <polygon class="cls-4" points="80.26 292.42 77.12 299.82 80.26 307.23 62.71 299.82 80.26 292.42"/>
    </g>
  </g>
  <g class="cls-24">
    <g>
      <line class="cls-20" x1="400.02" y1="299.82" x2="647.58" y2="299.82"/>
      <polygon class="cls-4" points="641.97 307.23 645.11 299.82 641.97 292.42 659.52 299.82 641.97 307.23"/>
    </g>
  </g>
  <g>
    <line class="cls-19" x1="956.18" y1="91.25" x2="1540.96" y2="91.25"/>
    <polygon class="cls-8" points="1535.34 98.66 1538.49 91.25 1535.34 83.84 1552.9 91.25 1535.34 98.66"/>
  </g>
  <path class="cls-5" d="M257.5,697.71v-34.19c0-5.04,4.12-9.16,9.16-9.16H42.71c-2.86,0-5.21,2.34-5.21,5.21v42.1c0,2.86,2.34,5.21,5.21,5.21h223.96c-5.04,0-9.16-4.12-9.16-9.16Z"/>
  <path class="cls-1" d="M697.5,698.71v-36.19c0-4.49,3.67-8.16,8.16-8.16h-439c-5.04,0-9.16,4.12-9.16,9.16v34.19c0,5.04,4.12,9.16,9.16,9.16h439c-4.49,0-8.16-3.67-8.16-8.16Z"/>
  <g>
    <path class="cls-21" d="M803.94,214.92v86.46c0,14.52,11.77,26.29,26.29,26.29h308.13"/>
    <path class="cls-21" d="M1467.3,214.92v86.46c0,14.52-11.77,26.29-26.29,26.29h-93.48"/>
    <path class="cls-21" d="M143,372.2h810.05c11.77,0,21.31-9.54,21.31-21.31h0c0-12.82,10.39-23.21,23.21-23.21"/>
    <path class="cls-21" d="M1020.78,214.92v85.67c0,14.96,12.13,27.09,27.09,27.09"/>
    <g>
      <path class="cls-5" d="M1180.41,316.39c0-3.5,1.46-5.42,4.1-5.42,1.52,0,2.38.72,2.59,2.07h.23v-6.17h2.41v14.65l-2.1.1-.3-1.97h-.21c-.18,1.35-1.12,2.07-2.63,2.07-2.63,0-4.09-1.87-4.09-5.32ZM1187.33,316.21c0-2.05-.74-3.04-2.21-3.04s-2.28,1.14-2.28,3.22.78,3.12,2.28,3.12,2.21-.97,2.21-3.03v-.28Z"/>
      <path class="cls-5" d="M1192.75,319.33h3.88v-5.98h-3.29v-2.19h5.69v8.16h3.12v2.19h-9.39v-2.19ZM1196.14,308.08c0-.93.66-1.59,1.59-1.59s1.59.66,1.59,1.59-.66,1.59-1.59,1.59-1.59-.66-1.59-1.59Z"/>
      <path class="cls-5" d="M1204.43,321.42l.28-2.27c1.52.21,2.6.31,3.35.31,1.89,0,2.71-.29,2.71-.98,0-.44-.24-.63-.77-.78l-2.98-.83c-1.65-.45-2.43-1.17-2.43-2.64,0-2.25,1.77-3.27,5.61-3.27.93,0,1.83.07,2.83.2l-.25,2.19c-1.13-.1-1.96-.14-2.64-.14-2.16,0-3.07.28-3.07.95,0,.44.27.61.88.76l2.5.67c1.93.5,2.85,1.34,2.85,2.88,0,2.21-1.65,3.23-5.23,3.23-1.57,0-2.71-.09-3.63-.29Z"/>
      <path class="cls-5" d="M1217.84,317.37v-4.01h-2.53v-2.19h2.53v-3.12h2.4v3.12h4.64v2.19h-4.64v3.82c0,1.61.75,2.29,2.61,2.29.62,0,1.29-.08,2.19-.2l.23,2.21c-.88.16-1.67.23-2.62.23-3.41,0-4.81-1.31-4.81-4.35Z"/>
      <path class="cls-5" d="M1231.76,319.43h2.47v2.09h-7.11v-2.09h2.24v-6.17h-1.85v-2.09h3.86l.32,2.46h.32c.11-1.79,1.01-2.66,2.72-2.66,2.03,0,3.05,1.36,3.05,4.08h-2.4c0-1.34-.43-1.88-1.42-1.88-1.47,0-2.21,1.41-2.21,3.9v2.36Z"/>
      <path class="cls-5" d="M1239.49,318.01v-6.84h2.41v6.45c0,1.19.62,1.86,1.69,1.86,1.35,0,2.04-.87,2.04-3.12v-5.18h2.41v8.18l1.43.21v1.95l-3.66.1-.15-2.09h-.25c-.33,1.41-1.32,2.19-2.7,2.19-2.05,0-3.22-1.35-3.22-3.71Z"/>
      <path class="cls-5" d="M1251.37,321.52v-14.65h2.41v6.17h.24c.15-1.39.97-2.07,2.49-2.07,2.67,0,4.19,1.7,4.19,4.69,0,3.85-2.34,6.05-6.46,6.05-.98,0-1.9-.08-2.87-.2ZM1253.78,319.51c.29,0,.59,0,.87,0,2.3,0,3.61-1.41,3.61-3.86,0-1.59-.75-2.49-2.09-2.49-1.59,0-2.39.83-2.39,2.53v3.81Z"/>
      <path class="cls-5" d="M1262.92,318.01v-6.84h2.41v6.45c0,1.19.62,1.86,1.69,1.86,1.35,0,2.04-.87,2.04-3.12v-5.18h2.41v8.18l1.43.21v1.95l-3.66.1-.15-2.09h-.25c-.33,1.41-1.32,2.19-2.7,2.19-2.05,0-3.22-1.35-3.22-3.71Z"/>
      <path class="cls-5" d="M1276.43,317.37v-4.01h-2.53v-2.19h2.53v-3.12h2.4v3.12h4.64v2.19h-4.64v3.82c0,1.61.75,2.29,2.61,2.29.62,0,1.29-.08,2.19-.2l.23,2.21c-.88.16-1.67.23-2.62.23-3.41,0-4.81-1.31-4.81-4.35Z"/>
      <path class="cls-5" d="M1286.17,316.33c0-3.38,1.72-5.35,4.72-5.35s4.54,1.76,4.54,5.03c0,.49-.02.92-.06,1.34h-6.74c.38,1.41,1.55,2.15,3.35,2.15.91,0,1.78-.1,2.69-.27l.25,2.23c-1.29.23-2.35.27-3.17.27-3.56,0-5.58-1.91-5.58-5.39ZM1293.12,315.6c0-1.58-.83-2.45-2.22-2.45s-2.21.88-2.38,2.45h4.6Z"/>
      <path class="cls-5" d="M1297.59,316.39c0-3.5,1.46-5.42,4.1-5.42,1.52,0,2.38.72,2.59,2.07h.23v-6.17h2.41v14.65l-2.1.1-.3-1.97h-.21c-.18,1.35-1.12,2.07-2.63,2.07-2.63,0-4.09-1.87-4.09-5.32ZM1304.52,316.21c0-2.05-.74-3.04-2.21-3.04s-2.28,1.14-2.28,3.22.78,3.12,2.28,3.12,2.21-.97,2.21-3.03v-.28Z"/>
      <path class="cls-5" d="M1174.94,340.33c0-3.38,1.91-5.35,5.35-5.35,2.09,0,3.64.83,4.28,2.29l-1.79,1.4c-.58-.92-1.5-1.45-2.57-1.45-1.78,0-2.81,1.08-2.81,3.01,0,2.11,1.27,3.24,3.53,3.24.95,0,1.9-.1,2.8-.25l.25,2.21c-1.06.23-2.22.29-3.29.29-3.67,0-5.75-1.91-5.75-5.39Z"/>
      <path class="cls-5" d="M1186.66,340.34c0-3.42,1.69-5.37,4.63-5.37s4.63,1.95,4.63,5.37-1.69,5.37-4.63,5.37-4.63-1.95-4.63-5.37ZM1193.43,340.34c0-2-.78-3.12-2.15-3.12s-2.15,1.12-2.15,3.12.78,3.12,2.15,3.12,2.15-1.13,2.15-3.12Z"/>
      <path class="cls-5" d="M1205.48,338.15c0-.72-.22-1.07-.69-1.07-.56,0-.83.42-.83,1.26v7.19h-1.88v-7.57c0-.59-.23-.88-.7-.88-.57,0-.84.42-.84,1.26v7.19h-2.39v-10.35h2.16l.14,1.29h.21c.11-.98.67-1.48,1.65-1.48.84,0,1.42.49,1.6,1.48h.21c.09-.88.7-1.48,1.74-1.48,1.41,0,2.02.72,2.02,2.44v8.11h-2.38v-7.37Z"/>
      <path class="cls-5" d="M1210.41,335.17h2.22l.17,1.88h.17c.21-1.35,1.1-2.07,2.69-2.07,2.64,0,4.1,1.92,4.1,5.42s-1.46,5.32-4.09,5.32c-1.5,0-2.45-.72-2.63-2.07h-.21v6.37h-2.41v-14.84ZM1215.02,343.52c1.49,0,2.28-1.06,2.28-3.12s-.8-3.22-2.28-3.22-2.21.99-2.21,3.04v.28c0,2.06.65,3.03,2.21,3.03Z"/>
      <path class="cls-5" d="M1221.91,342.01v-6.84h2.41v6.45c0,1.19.62,1.86,1.69,1.86,1.35,0,2.04-.87,2.04-3.12v-5.18h2.41v8.18l1.43.21v1.95l-3.66.1-.15-2.09h-.25c-.33,1.41-1.32,2.19-2.7,2.19-2.05,0-3.22-1.35-3.22-3.71Z"/>
      <path class="cls-5" d="M1235.42,341.37v-4.01h-2.53v-2.19h2.53v-3.12h2.4v3.12h4.64v2.19h-4.64v3.82c0,1.61.75,2.29,2.61,2.29.62,0,1.29-.08,2.19-.2l.23,2.21c-.88.16-1.67.23-2.62.23-3.41,0-4.81-1.31-4.81-4.35Z"/>
      <path class="cls-5" d="M1245.15,340.33c0-3.38,1.72-5.35,4.72-5.35s4.54,1.76,4.54,5.03c0,.49-.02.92-.06,1.34h-6.74c.38,1.41,1.55,2.15,3.35,2.15.91,0,1.78-.1,2.69-.27l.25,2.23c-1.29.23-2.35.27-3.17.27-3.56,0-5.58-1.91-5.58-5.39ZM1252.1,339.6c0-1.58-.83-2.45-2.22-2.45s-2.21.88-2.38,2.45h4.6Z"/>
      <path class="cls-5" d="M1275.8,338.15c0-.72-.22-1.07-.69-1.07-.56,0-.83.42-.83,1.26v7.19h-1.88v-7.57c0-.59-.23-.88-.7-.88-.57,0-.84.42-.84,1.26v7.19h-2.39v-10.35h2.16l.14,1.29h.21c.11-.98.67-1.48,1.65-1.48.84,0,1.42.49,1.6,1.48h.21c.09-.88.7-1.48,1.74-1.48,1.41,0,2.02.72,2.02,2.44v8.11h-2.38v-7.37Z"/>
      <path class="cls-5" d="M1280.31,340.33c0-3.38,1.72-5.35,4.72-5.35s4.54,1.76,4.54,5.03c0,.49-.02.92-.06,1.34h-6.74c.38,1.41,1.55,2.15,3.35,2.15.91,0,1.78-.1,2.69-.27l.25,2.23c-1.29.23-2.35.27-3.17.27-3.56,0-5.58-1.91-5.58-5.39ZM1287.26,339.6c0-1.58-.83-2.45-2.22-2.45s-2.21.88-2.38,2.45h4.6Z"/>
      <path class="cls-5" d="M1292.32,345.42l.28-2.27c1.52.21,2.6.31,3.35.31,1.89,0,2.71-.29,2.71-.98,0-.44-.24-.63-.77-.78l-2.98-.83c-1.65-.45-2.43-1.17-2.43-2.64,0-2.25,1.77-3.27,5.61-3.27.93,0,1.83.07,2.83.2l-.25,2.19c-1.13-.1-1.96-.14-2.64-.14-2.16,0-3.07.28-3.07.95,0,.44.27.61.88.76l2.5.67c1.93.5,2.85,1.34,2.85,2.88,0,2.21-1.65,3.23-5.23,3.23-1.57,0-2.71-.09-3.63-.29Z"/>
      <path class="cls-5" d="M1310.38,339.08c0-1.21-.6-1.9-1.63-1.9-1.45,0-2.18.93-2.18,2.82v5.53h-2.41v-14.65h2.41v6.17h.23c.17-1.39.93-2.07,2.55-2.07,2.19,0,3.44,1.39,3.44,3.81v6.74h-2.41v-6.45Z"/>
    </g>
    <rect class="cls-22" x="1138.36" y="281.25" width="209.16" height="92.87" rx="22.29" ry="22.29"/>
    <path class="cls-21" d="M1241.8,222.64v58.61"/>
  </g>
  <rect class="cls-6" x="697.5" y="654.36" width="865" height="52.51" rx="8.16" ry="8.16"/>
  <text class="cls-12" transform="translate(111.39 688.64)"><tspan x="0" y="0">cloud</tspan></text>
  <text class="cls-12" transform="translate(386.98 688.64)"><tspan x="0" y="0">provider edge</tspan></text>
  <text class="cls-12" transform="translate(1069.36 688.64)"><tspan x="0" y="0">user_edge</tspan></text>
  <g>
    <polygon class="cls-14" points="593.48 341.03 547.47 347.7 566.52 363.8 612.53 357.13 593.48 341.03"/>
    <polygon class="cls-14" points="566.52 363.8 566.52 394.16 612.53 387.49 612.53 357.13 566.52 363.8"/>
    <polygon class="cls-9" points="547.47 347.7 547.47 378.06 566.52 394.16 566.52 363.8 547.47 347.7"/>
    <g>
      <g>
        <path class="cls-9" d="M560.83,341.91c-2.92.42-4.68,1.41-4.69,2.45v5.69c0,.34.18.68.58,1.02,1.21,1.02,4.03,1.64,7.01,1.64v-11.01c-.97,0-1.95.06-2.9.2Z"/>
        <path class="cls-14" d="M571.32,344.36c0-.34-.18-.68-.58-1.02-1.21-1.02-4.03-1.64-7.01-1.64v11.01c.97,0,1.95-.06,2.9-.2,2.92-.42,4.68-1.41,4.69-2.45v-5.69Z"/>
      </g>
      <path class="cls-14" d="M570.74,343.34c1.6,1.36-.23,2.91-4.11,3.47-3.87.56-8.31-.08-9.92-1.44s.23-2.91,4.11-3.47c3.87-.56,8.31.08,9.92,1.44Z"/>
    </g>
    <g>
      <g>
        <path class="cls-9" d="M570.36,349.96c-2.92.42-4.68,1.41-4.69,2.45v5.69c0,.34.18.68.58,1.02,1.21,1.02,4.03,1.64,7.01,1.64v-11.01c-.97,0-1.95.06-2.9.2Z"/>
        <path class="cls-14" d="M580.85,352.41c0-.34-.18-.68-.58-1.02-1.21-1.02-4.03-1.64-7.01-1.64v11.01c.97,0,1.95-.06,2.9-.2,2.92-.42,4.68-1.41,4.69-2.45v-5.69Z"/>
      </g>
      <path class="cls-14" d="M580.27,351.4c1.6,1.36-.23,2.91-4.11,3.47-3.87.56-8.31-.08-9.92-1.44s.23-2.91,4.11-3.47,8.31.08,9.92,1.44Z"/>
    </g>
    <g>
      <g>
        <path class="cls-9" d="M583.83,338.57c-2.92.42-4.68,1.41-4.69,2.45v5.69c0,.34.18.68.58,1.02,1.21,1.02,4.03,1.64,7.01,1.64v-11.01c-.97,0-1.95.06-2.9.2Z"/>
        <path class="cls-14" d="M594.33,341.03c0-.34-.18-.68-.58-1.02-1.21-1.02-4.03-1.64-7.01-1.64v11.01c.97,0,1.95-.06,2.9-.2,2.92-.42,4.68-1.41,4.69-2.45v-5.69Z"/>
      </g>
      <path class="cls-14" d="M593.75,340.01c1.6,1.36-.23,2.91-4.11,3.47s-8.31-.08-9.92-1.44.23-2.91,4.11-3.47,8.31.08,9.92,1.44Z"/>
    </g>
    <g>
      <g>
        <path class="cls-9" d="M593.36,346.62c-2.92.42-4.68,1.41-4.69,2.45v5.69c0,.34.18.68.58,1.02,1.21,1.02,4.03,1.64,7.01,1.64v-11.01c-.97,0-1.95.06-2.9.2Z"/>
        <path class="cls-14" d="M603.86,349.08c0-.34-.18-.68-.58-1.02-1.21-1.02-4.03-1.64-7.01-1.64v11.01c.97,0,1.95-.06,2.9-.2,2.92-.42,4.68-1.41,4.69-2.45v-5.69Z"/>
      </g>
      <path class="cls-14" d="M603.28,348.06c1.6,1.36-.23,2.91-4.11,3.47-3.87.56-8.31-.08-9.92-1.44s.23-2.91,4.11-3.47c3.87-.56,8.31.08,9.92,1.44Z"/>
    </g>
  </g>
  <g>
    <polygon class="cls-11" points="1033.47 175.21 987.47 181.89 1006.52 197.99 1052.53 191.32 1033.47 175.21"/>
    <polygon class="cls-11" points="1006.52 197.99 1006.52 228.35 1052.53 221.68 1052.53 191.32 1006.52 197.99"/>
    <polygon class="cls-9" points="987.47 181.89 987.47 212.25 1006.52 228.35 1006.52 197.99 987.47 181.89"/>
    <g>
      <g>
        <path class="cls-9" d="M1000.83,176.1c-2.92.42-4.68,1.41-4.69,2.45v5.69c0,.34.18.68.58,1.02,1.21,1.02,4.03,1.64,7.01,1.64v-11.01c-.97,0-1.95.06-2.9.2Z"/>
        <path class="cls-11" d="M1011.32,178.55c0-.34-.18-.68-.58-1.02-1.21-1.02-4.03-1.64-7.01-1.64v11.01c.97,0,1.95-.06,2.9-.2,2.92-.42,4.68-1.41,4.69-2.45v-5.69Z"/>
      </g>
      <path class="cls-11" d="M1010.74,177.53c1.6,1.36-.23,2.91-4.11,3.47s-8.31-.08-9.92-1.44.23-2.91,4.11-3.47c3.87-.56,8.31.08,9.92,1.44Z"/>
    </g>
    <g>
      <g>
        <path class="cls-9" d="M1010.36,184.15c-2.92.42-4.68,1.41-4.69,2.45v5.69c0,.34.18.68.58,1.02,1.21,1.02,4.03,1.64,7.01,1.64v-11.01c-.97,0-1.95.06-2.9.2Z"/>
        <path class="cls-11" d="M1020.85,186.6c0-.34-.18-.68-.58-1.02-1.21-1.02-4.03-1.64-7.01-1.64v11.01c.97,0,1.95-.06,2.9-.2,2.92-.42,4.68-1.41,4.69-2.45v-5.69Z"/>
      </g>
      <path class="cls-11" d="M1020.27,185.59c1.6,1.36-.23,2.91-4.11,3.47-3.87.56-8.31-.08-9.92-1.44s.23-2.91,4.11-3.47c3.87-.56,8.31.08,9.92,1.44Z"/>
    </g>
    <g>
      <g>
        <path class="cls-9" d="M1023.83,172.76c-2.92.42-4.68,1.41-4.69,2.45v5.69c0,.34.18.68.58,1.02,1.21,1.02,4.03,1.64,7.01,1.64v-11.01c-.97,0-1.95.06-2.9.2Z"/>
        <path class="cls-11" d="M1034.33,175.21c0-.34-.18-.68-.58-1.02-1.21-1.02-4.03-1.64-7.01-1.64v11.01c.97,0,1.95-.06,2.9-.2,2.92-.42,4.68-1.41,4.69-2.45v-5.69Z"/>
      </g>
      <path class="cls-11" d="M1033.75,174.2c1.6,1.36-.23,2.91-4.11,3.47-3.87.56-8.31-.08-9.92-1.44s.23-2.91,4.11-3.47,8.31.08,9.92,1.44Z"/>
    </g>
    <g>
      <g>
        <path class="cls-9" d="M1033.36,180.81c-2.92.42-4.68,1.41-4.69,2.45v5.69c0,.34.18.68.58,1.02,1.21,1.02,4.03,1.64,7.01,1.64v-11.01c-.97,0-1.95.06-2.9.2Z"/>
        <path class="cls-11" d="M1043.86,183.27c0-.34-.18-.68-.58-1.02-1.21-1.02-4.03-1.64-7.01-1.64v11.01c.97,0,1.95-.06,2.9-.2,2.92-.42,4.68-1.41,4.69-2.45v-5.69Z"/>
      </g>
      <path class="cls-11" d="M1043.28,182.25c1.6,1.36-.23,2.91-4.11,3.47s-8.31-.08-9.92-1.44.23-2.91,4.11-3.47,8.31.08,9.92,1.44Z"/>
    </g>
  </g>
  <g>
    <polygon class="cls-11" points="1253.47 175.21 1207.46 181.89 1226.52 197.99 1272.53 191.32 1253.47 175.21"/>
    <polygon class="cls-11" points="1226.52 197.99 1226.52 228.35 1272.53 221.68 1272.53 191.32 1226.52 197.99"/>
    <polygon class="cls-9" points="1207.46 181.89 1207.46 212.25 1226.52 228.35 1226.52 197.99 1207.46 181.89"/>
    <g>
      <g>
        <path class="cls-9" d="M1220.83,176.1c-2.92.42-4.68,1.41-4.69,2.45v5.69c0,.34.18.68.58,1.02,1.21,1.02,4.03,1.64,7.01,1.64v-11.01c-.97,0-1.95.06-2.9.2Z"/>
        <path class="cls-11" d="M1231.32,178.55c0-.34-.18-.68-.58-1.02-1.21-1.02-4.03-1.64-7.01-1.64v11.01c.97,0,1.95-.06,2.9-.2,2.92-.42,4.68-1.41,4.69-2.45v-5.69Z"/>
      </g>
      <path class="cls-11" d="M1230.74,177.53c1.6,1.36-.23,2.91-4.11,3.47s-8.31-.08-9.92-1.44.23-2.91,4.11-3.47c3.87-.56,8.31.08,9.92,1.44Z"/>
    </g>
    <g>
      <g>
        <path class="cls-9" d="M1230.36,184.15c-2.92.42-4.68,1.41-4.69,2.45v5.69c0,.34.18.68.58,1.02,1.21,1.02,4.03,1.64,7.01,1.64v-11.01c-.97,0-1.95.06-2.9.2Z"/>
        <path class="cls-11" d="M1240.85,186.6c0-.34-.18-.68-.58-1.02-1.21-1.02-4.03-1.64-7.01-1.64v11.01c.97,0,1.95-.06,2.9-.2,2.92-.42,4.68-1.41,4.69-2.45v-5.69Z"/>
      </g>
      <path class="cls-11" d="M1240.27,185.59c1.6,1.36-.23,2.91-4.11,3.47-3.87.56-8.31-.08-9.92-1.44s.23-2.91,4.11-3.47c3.87-.56,8.31.08,9.92,1.44Z"/>
    </g>
    <g>
      <g>
        <path class="cls-9" d="M1243.83,172.76c-2.92.42-4.68,1.41-4.69,2.45v5.69c0,.34.18.68.58,1.02,1.21,1.02,4.03,1.64,7.01,1.64v-11.01c-.97,0-1.95.06-2.9.2Z"/>
        <path class="cls-11" d="M1254.33,175.21c0-.34-.18-.68-.58-1.02-1.21-1.02-4.03-1.64-7.01-1.64v11.01c.97,0,1.95-.06,2.9-.2,2.92-.42,4.68-1.41,4.69-2.45v-5.69Z"/>
      </g>
      <path class="cls-11" d="M1253.75,174.2c1.6,1.36-.23,2.91-4.11,3.47-3.87.56-8.31-.08-9.92-1.44s.23-2.91,4.11-3.47,8.31.08,9.92,1.44Z"/>
    </g>
    <g>
      <g>
        <path class="cls-9" d="M1253.36,180.81c-2.92.42-4.68,1.41-4.69,2.45v5.69c0,.34.18.68.58,1.02,1.21,1.02,4.03,1.64,7.01,1.64v-11.01c-.97,0-1.95.06-2.9.2Z"/>
        <path class="cls-11" d="M1263.86,183.27c0-.34-.18-.68-.58-1.02-1.21-1.02-4.03-1.64-7.01-1.64v11.01c.97,0,1.95-.06,2.9-.2,2.92-.42,4.68-1.41,4.69-2.45v-5.69Z"/>
      </g>
      <path class="cls-11" d="M1263.28,182.25c1.6,1.36-.23,2.91-4.11,3.47s-8.31-.08-9.92-1.44.23-2.91,4.11-3.47,8.31.08,9.92,1.44Z"/>
    </g>
  </g>
  <g>
    <polygon class="cls-11" points="1473.47 175.21 1427.46 181.89 1446.52 197.99 1492.53 191.32 1473.47 175.21"/>
    <polygon class="cls-11" points="1446.52 197.99 1446.52 228.35 1492.53 221.68 1492.53 191.32 1446.52 197.99"/>
    <polygon class="cls-9" points="1427.46 181.89 1427.46 212.25 1446.52 228.35 1446.52 197.99 1427.46 181.89"/>
    <g>
      <g>
        <path class="cls-9" d="M1440.83,176.1c-2.92.42-4.68,1.41-4.69,2.45v5.69c0,.34.18.68.58,1.02,1.21,1.02,4.03,1.64,7.01,1.64v-11.01c-.97,0-1.95.06-2.9.2Z"/>
        <path class="cls-11" d="M1451.32,178.55c0-.34-.18-.68-.58-1.02-1.21-1.02-4.03-1.64-7.01-1.64v11.01c.97,0,1.95-.06,2.9-.2,2.92-.42,4.68-1.41,4.69-2.45v-5.69Z"/>
      </g>
      <path class="cls-11" d="M1450.74,177.53c1.6,1.36-.23,2.91-4.11,3.47s-8.31-.08-9.92-1.44.23-2.91,4.11-3.47c3.87-.56,8.31.08,9.92,1.44Z"/>
    </g>
    <g>
      <g>
        <path class="cls-9" d="M1450.36,184.15c-2.92.42-4.68,1.41-4.69,2.45v5.69c0,.34.18.68.58,1.02,1.21,1.02,4.03,1.64,7.01,1.64v-11.01c-.97,0-1.95.06-2.9.2Z"/>
        <path class="cls-11" d="M1460.85,186.6c0-.34-.18-.68-.58-1.02-1.21-1.02-4.03-1.64-7.01-1.64v11.01c.97,0,1.95-.06,2.9-.2,2.92-.42,4.68-1.41,4.69-2.45v-5.69Z"/>
      </g>
      <path class="cls-11" d="M1460.27,185.59c1.6,1.36-.23,2.91-4.11,3.47-3.87.56-8.31-.08-9.92-1.44s.23-2.91,4.11-3.47c3.87-.56,8.31.08,9.92,1.44Z"/>
    </g>
    <g>
      <g>
        <path class="cls-9" d="M1463.83,172.76c-2.92.42-4.68,1.41-4.69,2.45v5.69c0,.34.18.68.58,1.02,1.21,1.02,4.03,1.64,7.01,1.64v-11.01c-.97,0-1.95.06-2.9.2Z"/>
        <path class="cls-11" d="M1474.33,175.21c0-.34-.18-.68-.58-1.02-1.21-1.02-4.03-1.64-7.01-1.64v11.01c.97,0,1.95-.06,2.9-.2,2.92-.42,4.68-1.41,4.69-2.45v-5.69Z"/>
      </g>
      <path class="cls-11" d="M1473.75,174.2c1.6,1.36-.23,2.91-4.11,3.47-3.87.56-8.31-.08-9.92-1.44s.23-2.91,4.11-3.47,8.31.08,9.92,1.44Z"/>
    </g>
    <g>
      <g>
        <path class="cls-9" d="M1473.36,180.81c-2.92.42-4.68,1.41-4.69,2.45v5.69c0,.34.18.68.58,1.02,1.21,1.02,4.03,1.64,7.01,1.64v-11.01c-.97,0-1.95.06-2.9.2Z"/>
        <path class="cls-11" d="M1483.86,183.27c0-.34-.18-.68-.58-1.02-1.21-1.02-4.03-1.64-7.01-1.64v11.01c.97,0,1.95-.06,2.9-.2,2.92-.42,4.68-1.41,4.69-2.45v-5.69Z"/>
      </g>
      <path class="cls-11" d="M1483.28,182.25c1.6,1.36-.23,2.91-4.11,3.47s-8.31-.08-9.92-1.44.23-2.91,4.11-3.47,8.31.08,9.92,1.44Z"/>
    </g>
  </g>
  <g>
    <polygon class="cls-11" points="854.3 175.21 808.29 181.89 827.34 197.99 873.35 191.32 854.3 175.21"/>
    <polygon class="cls-11" points="827.34 197.99 827.34 228.35 873.35 221.68 873.35 191.32 827.34 197.99"/>
    <polygon class="cls-9" points="808.29 181.89 808.29 212.25 827.34 228.35 827.34 197.99 808.29 181.89"/>
    <g>
      <g>
        <path class="cls-9" d="M821.65,176.1c-2.92.42-4.68,1.41-4.69,2.45v5.69c0,.34.18.68.58,1.02,1.21,1.02,4.03,1.64,7.01,1.64v-11.01c-.97,0-1.95.06-2.9.2Z"/>
        <path class="cls-11" d="M832.14,178.55c0-.34-.18-.68-.58-1.02-1.21-1.02-4.03-1.64-7.01-1.64v11.01c.97,0,1.95-.06,2.9-.2,2.92-.42,4.68-1.41,4.69-2.45v-5.69Z"/>
      </g>
      <path class="cls-11" d="M831.56,177.53c1.6,1.36-.23,2.91-4.11,3.47s-8.31-.08-9.92-1.44.23-2.91,4.11-3.47c3.87-.56,8.31.08,9.92,1.44Z"/>
    </g>
    <g>
      <g>
        <path class="cls-9" d="M831.18,184.15c-2.92.42-4.68,1.41-4.69,2.45v5.69c0,.34.18.68.58,1.02,1.21,1.02,4.03,1.64,7.01,1.64v-11.01c-.97,0-1.95.06-2.9.2Z"/>
        <path class="cls-11" d="M841.67,186.6c0-.34-.18-.68-.58-1.02-1.21-1.02-4.03-1.64-7.01-1.64v11.01c.97,0,1.95-.06,2.9-.2,2.92-.42,4.68-1.41,4.69-2.45v-5.69Z"/>
      </g>
      <path class="cls-11" d="M841.09,185.59c1.6,1.36-.23,2.91-4.11,3.47-3.87.56-8.31-.08-9.92-1.44s.23-2.91,4.11-3.47c3.87-.56,8.31.08,9.92,1.44Z"/>
    </g>
    <g>
      <g>
        <path class="cls-9" d="M844.65,172.76c-2.92.42-4.68,1.41-4.69,2.45v5.69c0,.34.18.68.58,1.02,1.21,1.02,4.03,1.64,7.01,1.64v-11.01c-.97,0-1.95.06-2.9.2Z"/>
        <path class="cls-11" d="M855.15,175.21c0-.34-.18-.68-.58-1.02-1.21-1.02-4.03-1.64-7.01-1.64v11.01c.97,0,1.95-.06,2.9-.2,2.92-.42,4.68-1.41,4.69-2.45v-5.69Z"/>
      </g>
      <path class="cls-11" d="M854.57,174.2c1.6,1.36-.23,2.91-4.11,3.47-3.87.56-8.31-.08-9.92-1.44s.23-2.91,4.11-3.47,8.31.08,9.92,1.44Z"/>
    </g>
    <g>
      <g>
        <path class="cls-9" d="M854.18,180.81c-2.92.42-4.68,1.41-4.69,2.45v5.69c0,.34.18.68.58,1.02,1.21,1.02,4.03,1.64,7.01,1.64v-11.01c-.97,0-1.95.06-2.9.2Z"/>
        <path class="cls-11" d="M864.68,183.27c0-.34-.18-.68-.58-1.02-1.21-1.02-4.03-1.64-7.01-1.64v11.01c.97,0,1.95-.06,2.9-.2,2.92-.42,4.68-1.41,4.69-2.45v-5.69Z"/>
      </g>
      <path class="cls-11" d="M864.1,182.25c1.6,1.36-.23,2.91-4.11,3.47s-8.31-.08-9.92-1.44.23-2.91,4.11-3.47,8.31.08,9.92,1.44Z"/>
    </g>
  </g>
  <g>
    <polygon class="cls-11" points="772.65 175.21 726.65 181.89 745.7 197.99 791.71 191.32 772.65 175.21"/>
    <polygon class="cls-11" points="745.7 197.99 745.7 228.35 791.71 221.68 791.71 191.32 745.7 197.99"/>
    <polygon class="cls-9" points="726.65 181.89 726.65 212.25 745.7 228.35 745.7 197.99 726.65 181.89"/>
    <g>
      <g>
        <path class="cls-9" d="M740.01,176.1c-2.92.42-4.68,1.41-4.69,2.45v5.69c0,.34.18.68.58,1.02,1.21,1.02,4.03,1.64,7.01,1.64v-11.01c-.97,0-1.95.06-2.9.2Z"/>
        <path class="cls-11" d="M750.5,178.55c0-.34-.18-.68-.58-1.02-1.21-1.02-4.03-1.64-7.01-1.64v11.01c.97,0,1.95-.06,2.9-.2,2.92-.42,4.68-1.41,4.69-2.45v-5.69Z"/>
      </g>
      <path class="cls-11" d="M749.92,177.53c1.6,1.36-.23,2.91-4.11,3.47s-8.31-.08-9.92-1.44.23-2.91,4.11-3.47c3.87-.56,8.31.08,9.92,1.44Z"/>
    </g>
    <g>
      <g>
        <path class="cls-9" d="M749.54,184.15c-2.92.42-4.68,1.41-4.69,2.45v5.69c0,.34.18.68.58,1.02,1.21,1.02,4.03,1.64,7.01,1.64v-11.01c-.97,0-1.95.06-2.9.2Z"/>
        <path class="cls-11" d="M760.03,186.6c0-.34-.18-.68-.58-1.02-1.21-1.02-4.03-1.64-7.01-1.64v11.01c.97,0,1.95-.06,2.9-.2,2.92-.42,4.68-1.41,4.69-2.45v-5.69Z"/>
      </g>
      <path class="cls-11" d="M759.45,185.59c1.6,1.36-.23,2.91-4.11,3.47-3.87.56-8.31-.08-9.92-1.44s.23-2.91,4.11-3.47c3.87-.56,8.31.08,9.92,1.44Z"/>
    </g>
    <g>
      <g>
        <path class="cls-9" d="M763.01,172.76c-2.92.42-4.68,1.41-4.69,2.45v5.69c0,.34.18.68.58,1.02,1.21,1.02,4.03,1.64,7.01,1.64v-11.01c-.97,0-1.95.06-2.9.2Z"/>
        <path class="cls-11" d="M773.51,175.21c0-.34-.18-.68-.58-1.02-1.21-1.02-4.03-1.64-7.01-1.64v11.01c.97,0,1.95-.06,2.9-.2,2.92-.42,4.68-1.41,4.69-2.45v-5.69Z"/>
      </g>
      <path class="cls-11" d="M772.93,174.2c1.6,1.36-.23,2.91-4.11,3.47-3.87.56-8.31-.08-9.92-1.44s.23-2.91,4.11-3.47,8.31.08,9.92,1.44Z"/>
    </g>
    <g>
      <g>
        <path class="cls-9" d="M772.54,180.81c-2.92.42-4.68,1.41-4.69,2.45v5.69c0,.34.18.68.58,1.02,1.21,1.02,4.03,1.64,7.01,1.64v-11.01c-.97,0-1.95.06-2.9.2Z"/>
        <path class="cls-11" d="M783.04,183.27c0-.34-.18-.68-.58-1.02-1.21-1.02-4.03-1.64-7.01-1.64v11.01c.97,0,1.95-.06,2.9-.2,2.92-.42,4.68-1.41,4.69-2.45v-5.69Z"/>
      </g>
      <path class="cls-11" d="M782.46,182.25c1.6,1.36-.23,2.91-4.11,3.47s-8.31-.08-9.92-1.44.23-2.91,4.11-3.47,8.31.08,9.92,1.44Z"/>
    </g>
  </g>
  <g>
    <polygon class="cls-11" points="634.3 175.21 588.29 181.89 607.34 197.99 653.35 191.32 634.3 175.21"/>
    <polygon class="cls-11" points="607.34 197.99 607.34 228.35 653.35 221.68 653.35 191.32 607.34 197.99"/>
    <polygon class="cls-9" points="588.29 181.89 588.29 212.25 607.34 228.35 607.34 197.99 588.29 181.89"/>
    <g>
      <g>
        <path class="cls-9" d="M601.65,176.1c-2.92.42-4.68,1.41-4.69,2.45v5.69c0,.34.18.68.58,1.02,1.21,1.02,4.03,1.64,7.01,1.64v-11.01c-.97,0-1.95.06-2.9.2Z"/>
        <path class="cls-11" d="M612.14,178.55c0-.34-.18-.68-.58-1.02-1.21-1.02-4.03-1.64-7.01-1.64v11.01c.97,0,1.95-.06,2.9-.2,2.92-.42,4.68-1.41,4.69-2.45v-5.69Z"/>
      </g>
      <path class="cls-11" d="M611.56,177.53c1.6,1.36-.23,2.91-4.11,3.47s-8.31-.08-9.92-1.44.23-2.91,4.11-3.47c3.87-.56,8.31.08,9.92,1.44Z"/>
    </g>
    <g>
      <g>
        <path class="cls-9" d="M611.18,184.15c-2.92.42-4.68,1.41-4.69,2.45v5.69c0,.34.18.68.58,1.02,1.21,1.02,4.03,1.64,7.01,1.64v-11.01c-.97,0-1.95.06-2.9.2Z"/>
        <path class="cls-11" d="M621.67,186.6c0-.34-.18-.68-.58-1.02-1.21-1.02-4.03-1.64-7.01-1.64v11.01c.97,0,1.95-.06,2.9-.2,2.92-.42,4.68-1.41,4.69-2.45v-5.69Z"/>
      </g>
      <path class="cls-11" d="M621.09,185.59c1.6,1.36-.23,2.91-4.11,3.47-3.87.56-8.31-.08-9.92-1.44s.23-2.91,4.11-3.47c3.87-.56,8.31.08,9.92,1.44Z"/>
    </g>
    <g>
      <g>
        <path class="cls-9" d="M624.65,172.76c-2.92.42-4.68,1.41-4.69,2.45v5.69c0,.34.18.68.58,1.02,1.21,1.02,4.03,1.64,7.01,1.64v-11.01c-.97,0-1.95.06-2.9.2Z"/>
        <path class="cls-11" d="M635.15,175.21c0-.34-.18-.68-.58-1.02-1.21-1.02-4.03-1.64-7.01-1.64v11.01c.97,0,1.95-.06,2.9-.2,2.92-.42,4.68-1.41,4.69-2.45v-5.69Z"/>
      </g>
      <path class="cls-11" d="M634.57,174.2c1.6,1.36-.23,2.91-4.11,3.47-3.87.56-8.31-.08-9.92-1.44s.23-2.91,4.11-3.47,8.31.08,9.92,1.44Z"/>
    </g>
    <g>
      <g>
        <path class="cls-9" d="M634.18,180.81c-2.92.42-4.68,1.41-4.69,2.45v5.69c0,.34.18.68.58,1.02,1.21,1.02,4.03,1.64,7.01,1.64v-11.01c-.97,0-1.95.06-2.9.2Z"/>
        <path class="cls-11" d="M644.68,183.27c0-.34-.18-.68-.58-1.02-1.21-1.02-4.03-1.64-7.01-1.64v11.01c.97,0,1.95-.06,2.9-.2,2.92-.42,4.68-1.41,4.69-2.45v-5.69Z"/>
      </g>
      <path class="cls-11" d="M644.1,182.25c1.6,1.36-.23,2.91-4.11,3.47s-8.31-.08-9.92-1.44.23-2.91,4.11-3.47,8.31.08,9.92,1.44Z"/>
    </g>
  </g>
  <g>
    <polygon class="cls-11" points="552.66 175.21 506.65 181.89 525.7 197.99 571.71 191.32 552.66 175.21"/>
    <polygon class="cls-11" points="525.7 197.99 525.7 228.35 571.71 221.68 571.71 191.32 525.7 197.99"/>
    <polygon class="cls-9" points="506.65 181.89 506.65 212.25 525.7 228.35 525.7 197.99 506.65 181.89"/>
    <g>
      <g>
        <path class="cls-9" d="M520.01,176.1c-2.92.42-4.68,1.41-4.69,2.45v5.69c0,.34.18.68.58,1.02,1.21,1.02,4.03,1.64,7.01,1.64v-11.01c-.97,0-1.95.06-2.9.2Z"/>
        <path class="cls-11" d="M530.5,178.55c0-.34-.18-.68-.58-1.02-1.21-1.02-4.03-1.64-7.01-1.64v11.01c.97,0,1.95-.06,2.9-.2,2.92-.42,4.68-1.41,4.69-2.45v-5.69Z"/>
      </g>
      <path class="cls-11" d="M529.92,177.53c1.6,1.36-.23,2.91-4.11,3.47s-8.31-.08-9.92-1.44.23-2.91,4.11-3.47c3.87-.56,8.31.08,9.92,1.44Z"/>
    </g>
    <g>
      <g>
        <path class="cls-9" d="M529.54,184.15c-2.92.42-4.68,1.41-4.69,2.45v5.69c0,.34.18.68.58,1.02,1.21,1.02,4.03,1.64,7.01,1.64v-11.01c-.97,0-1.95.06-2.9.2Z"/>
        <path class="cls-11" d="M540.03,186.6c0-.34-.18-.68-.58-1.02-1.21-1.02-4.03-1.64-7.01-1.64v11.01c.97,0,1.95-.06,2.9-.2,2.92-.42,4.68-1.41,4.69-2.45v-5.69Z"/>
      </g>
      <path class="cls-11" d="M539.45,185.59c1.6,1.36-.23,2.91-4.11,3.47-3.87.56-8.31-.08-9.92-1.44s.23-2.91,4.11-3.47c3.87-.56,8.31.08,9.92,1.44Z"/>
    </g>
    <g>
      <g>
        <path class="cls-9" d="M543.01,172.76c-2.92.42-4.68,1.41-4.69,2.45v5.69c0,.34.18.68.58,1.02,1.21,1.02,4.03,1.64,7.01,1.64v-11.01c-.97,0-1.95.06-2.9.2Z"/>
        <path class="cls-11" d="M553.51,175.21c0-.34-.18-.68-.58-1.02-1.21-1.02-4.03-1.64-7.01-1.64v11.01c.97,0,1.95-.06,2.9-.2,2.92-.42,4.68-1.41,4.69-2.45v-5.69Z"/>
      </g>
      <path class="cls-11" d="M552.93,174.2c1.6,1.36-.23,2.91-4.11,3.47-3.87.56-8.31-.08-9.92-1.44s.23-2.91,4.11-3.47,8.31.08,9.92,1.44Z"/>
    </g>
    <g>
      <g>
        <path class="cls-9" d="M552.54,180.81c-2.92.42-4.68,1.41-4.69,2.45v5.69c0,.34.18.68.58,1.02,1.21,1.02,4.03,1.64,7.01,1.64v-11.01c-.97,0-1.95.06-2.9.2Z"/>
        <path class="cls-11" d="M563.04,183.27c0-.34-.18-.68-.58-1.02-1.21-1.02-4.03-1.64-7.01-1.64v11.01c.97,0,1.95-.06,2.9-.2,2.92-.42,4.68-1.41,4.69-2.45v-5.69Z"/>
      </g>
      <path class="cls-11" d="M562.46,182.25c1.6,1.36-.23,2.91-4.11,3.47s-8.31-.08-9.92-1.44.23-2.91,4.11-3.47,8.31.08,9.92,1.44Z"/>
    </g>
  </g>
  <g>
    <polygon class="cls-11" points="414.3 175.21 368.29 181.89 387.34 197.99 433.35 191.32 414.3 175.21"/>
    <polygon class="cls-11" points="387.34 197.99 387.34 228.35 433.35 221.68 433.35 191.32 387.34 197.99"/>
    <polygon class="cls-9" points="368.29 181.89 368.29 212.25 387.34 228.35 387.34 197.99 368.29 181.89"/>
    <g>
      <g>
        <path class="cls-9" d="M381.65,176.1c-2.92.42-4.68,1.41-4.69,2.45v5.69c0,.34.18.68.58,1.02,1.21,1.02,4.03,1.64,7.01,1.64v-11.01c-.97,0-1.95.06-2.9.2Z"/>
        <path class="cls-11" d="M392.14,178.55c0-.34-.18-.68-.58-1.02-1.21-1.02-4.03-1.64-7.01-1.64v11.01c.97,0,1.95-.06,2.9-.2,2.92-.42,4.68-1.41,4.69-2.45v-5.69Z"/>
      </g>
      <path class="cls-11" d="M391.56,177.53c1.6,1.36-.23,2.91-4.11,3.47s-8.31-.08-9.92-1.44.23-2.91,4.11-3.47c3.87-.56,8.31.08,9.92,1.44Z"/>
    </g>
    <g>
      <g>
        <path class="cls-9" d="M391.18,184.15c-2.92.42-4.68,1.41-4.69,2.45v5.69c0,.34.18.68.58,1.02,1.21,1.02,4.03,1.64,7.01,1.64v-11.01c-.97,0-1.95.06-2.9.2Z"/>
        <path class="cls-11" d="M401.67,186.6c0-.34-.18-.68-.58-1.02-1.21-1.02-4.03-1.64-7.01-1.64v11.01c.97,0,1.95-.06,2.9-.2,2.92-.42,4.68-1.41,4.69-2.45v-5.69Z"/>
      </g>
      <path class="cls-11" d="M401.09,185.59c1.6,1.36-.23,2.91-4.11,3.47-3.87.56-8.31-.08-9.92-1.44s.23-2.91,4.11-3.47c3.87-.56,8.31.08,9.92,1.44Z"/>
    </g>
    <g>
      <g>
        <path class="cls-9" d="M404.65,172.76c-2.92.42-4.68,1.41-4.69,2.45v5.69c0,.34.18.68.58,1.02,1.21,1.02,4.03,1.64,7.01,1.64v-11.01c-.97,0-1.95.06-2.9.2Z"/>
        <path class="cls-11" d="M415.15,175.21c0-.34-.18-.68-.58-1.02-1.21-1.02-4.03-1.64-7.01-1.64v11.01c.97,0,1.95-.06,2.9-.2,2.92-.42,4.68-1.41,4.69-2.45v-5.69Z"/>
      </g>
      <path class="cls-11" d="M414.57,174.2c1.6,1.36-.23,2.91-4.11,3.47-3.87.56-8.31-.08-9.92-1.44s.23-2.91,4.11-3.47,8.31.08,9.92,1.44Z"/>
    </g>
    <g>
      <g>
        <path class="cls-9" d="M414.18,180.81c-2.92.42-4.68,1.41-4.69,2.45v5.69c0,.34.18.68.58,1.02,1.21,1.02,4.03,1.64,7.01,1.64v-11.01c-.97,0-1.95.06-2.9.2Z"/>
        <path class="cls-11" d="M424.68,183.27c0-.34-.18-.68-.58-1.02-1.21-1.02-4.03-1.64-7.01-1.64v11.01c.97,0,1.95-.06,2.9-.2,2.92-.42,4.68-1.41,4.69-2.45v-5.69Z"/>
      </g>
      <path class="cls-11" d="M424.1,182.25c1.6,1.36-.23,2.91-4.11,3.47s-8.31-.08-9.92-1.44.23-2.91,4.11-3.47,8.31.08,9.92,1.44Z"/>
    </g>
  </g>
  <g>
    <polygon class="cls-11" points="332.66 175.21 286.65 181.89 305.7 197.99 351.71 191.32 332.66 175.21"/>
    <polygon class="cls-11" points="305.7 197.99 305.7 228.35 351.71 221.68 351.71 191.32 305.7 197.99"/>
    <polygon class="cls-9" points="286.65 181.89 286.65 212.25 305.7 228.35 305.7 197.99 286.65 181.89"/>
    <g>
      <g>
        <path class="cls-9" d="M300.01,176.1c-2.92.42-4.68,1.41-4.69,2.45v5.69c0,.34.18.68.58,1.02,1.21,1.02,4.03,1.64,7.01,1.64v-11.01c-.97,0-1.95.06-2.9.2Z"/>
        <path class="cls-11" d="M310.5,178.55c0-.34-.18-.68-.58-1.02-1.21-1.02-4.03-1.64-7.01-1.64v11.01c.97,0,1.95-.06,2.9-.2,2.92-.42,4.68-1.41,4.69-2.45v-5.69Z"/>
      </g>
      <path class="cls-11" d="M309.92,177.53c1.6,1.36-.23,2.91-4.11,3.47s-8.31-.08-9.92-1.44.23-2.91,4.11-3.47c3.87-.56,8.31.08,9.92,1.44Z"/>
    </g>
    <g>
      <g>
        <path class="cls-9" d="M309.54,184.15c-2.92.42-4.68,1.41-4.69,2.45v5.69c0,.34.18.68.58,1.02,1.21,1.02,4.03,1.64,7.01,1.64v-11.01c-.97,0-1.95.06-2.9.2Z"/>
        <path class="cls-11" d="M320.03,186.6c0-.34-.18-.68-.58-1.02-1.21-1.02-4.03-1.64-7.01-1.64v11.01c.97,0,1.95-.06,2.9-.2,2.92-.42,4.68-1.41,4.69-2.45v-5.69Z"/>
      </g>
      <path class="cls-11" d="M319.45,185.59c1.6,1.36-.23,2.91-4.11,3.47-3.87.56-8.31-.08-9.92-1.44s.23-2.91,4.11-3.47c3.87-.56,8.31.08,9.92,1.44Z"/>
    </g>
    <g>
      <g>
        <path class="cls-9" d="M323.01,172.76c-2.92.42-4.68,1.41-4.69,2.45v5.69c0,.34.18.68.58,1.02,1.21,1.02,4.03,1.64,7.01,1.64v-11.01c-.97,0-1.95.06-2.9.2Z"/>
        <path class="cls-11" d="M333.51,175.21c0-.34-.18-.68-.58-1.02-1.21-1.02-4.03-1.64-7.01-1.64v11.01c.97,0,1.95-.06,2.9-.2,2.92-.42,4.68-1.41,4.69-2.45v-5.69Z"/>
      </g>
      <path class="cls-11" d="M332.93,174.2c1.6,1.36-.23,2.91-4.11,3.47-3.87.56-8.31-.08-9.92-1.44s.23-2.91,4.11-3.47,8.31.08,9.92,1.44Z"/>
    </g>
    <g>
      <g>
        <path class="cls-9" d="M332.54,180.81c-2.92.42-4.68,1.41-4.69,2.45v5.69c0,.34.18.68.58,1.02,1.21,1.02,4.03,1.64,7.01,1.64v-11.01c-.97,0-1.95.06-2.9.2Z"/>
        <path class="cls-11" d="M343.04,183.27c0-.34-.18-.68-.58-1.02-1.21-1.02-4.03-1.64-7.01-1.64v11.01c.97,0,1.95-.06,2.9-.2,2.92-.42,4.68-1.41,4.69-2.45v-5.69Z"/>
      </g>
      <path class="cls-11" d="M342.46,182.25c1.6,1.36-.23,2.91-4.11,3.47s-8.31-.08-9.92-1.44.23-2.91,4.11-3.47,8.31.08,9.92,1.44Z"/>
    </g>
  </g>
  <g>
    <polygon class="cls-11" points="194.3 175.21 148.29 181.89 167.34 197.99 213.35 191.32 194.3 175.21"/>
    <polygon class="cls-11" points="167.34 197.99 167.34 228.35 213.35 221.68 213.35 191.32 167.34 197.99"/>
    <polygon class="cls-9" points="148.29 181.89 148.29 212.25 167.34 228.35 167.34 197.99 148.29 181.89"/>
    <g>
      <g>
        <path class="cls-9" d="M161.65,176.1c-2.92.42-4.68,1.41-4.69,2.45v5.69c0,.34.18.68.58,1.02,1.21,1.02,4.03,1.64,7.01,1.64v-11.01c-.97,0-1.95.06-2.9.2Z"/>
        <path class="cls-11" d="M172.14,178.55c0-.34-.18-.68-.58-1.02-1.21-1.02-4.03-1.64-7.01-1.64v11.01c.97,0,1.95-.06,2.9-.2,2.92-.42,4.68-1.41,4.69-2.45v-5.69Z"/>
      </g>
      <path class="cls-11" d="M171.56,177.53c1.6,1.36-.23,2.91-4.11,3.47s-8.31-.08-9.92-1.44.23-2.91,4.11-3.47c3.87-.56,8.31.08,9.92,1.44Z"/>
    </g>
    <g>
      <g>
        <path class="cls-9" d="M171.18,184.15c-2.92.42-4.68,1.41-4.69,2.45v5.69c0,.34.18.68.58,1.02,1.21,1.02,4.03,1.64,7.01,1.64v-11.01c-.97,0-1.95.06-2.9.2Z"/>
        <path class="cls-11" d="M181.67,186.6c0-.34-.18-.68-.58-1.02-1.21-1.02-4.03-1.64-7.01-1.64v11.01c.97,0,1.95-.06,2.9-.2,2.92-.42,4.68-1.41,4.69-2.45v-5.69Z"/>
      </g>
      <path class="cls-11" d="M181.09,185.59c1.6,1.36-.23,2.91-4.11,3.47-3.87.56-8.31-.08-9.92-1.44s.23-2.91,4.11-3.47c3.87-.56,8.31.08,9.92,1.44Z"/>
    </g>
    <g>
      <g>
        <path class="cls-9" d="M184.65,172.76c-2.92.42-4.68,1.41-4.69,2.45v5.69c0,.34.18.68.58,1.02,1.21,1.02,4.03,1.64,7.01,1.64v-11.01c-.97,0-1.95.06-2.9.2Z"/>
        <path class="cls-11" d="M195.15,175.21c0-.34-.18-.68-.58-1.02-1.21-1.02-4.03-1.64-7.01-1.64v11.01c.97,0,1.95-.06,2.9-.2,2.92-.42,4.68-1.41,4.69-2.45v-5.69Z"/>
      </g>
      <path class="cls-11" d="M194.57,174.2c1.6,1.36-.23,2.91-4.11,3.47-3.87.56-8.31-.08-9.92-1.44s.23-2.91,4.11-3.47,8.31.08,9.92,1.44Z"/>
    </g>
    <g>
      <g>
        <path class="cls-9" d="M194.18,180.81c-2.92.42-4.68,1.41-4.69,2.45v5.69c0,.34.18.68.58,1.02,1.21,1.02,4.03,1.64,7.01,1.64v-11.01c-.97,0-1.95.06-2.9.2Z"/>
        <path class="cls-11" d="M204.68,183.27c0-.34-.18-.68-.58-1.02-1.21-1.02-4.03-1.64-7.01-1.64v11.01c.97,0,1.95-.06,2.9-.2,2.92-.42,4.68-1.41,4.69-2.45v-5.69Z"/>
      </g>
      <path class="cls-11" d="M204.1,182.25c1.6,1.36-.23,2.91-4.11,3.47s-8.31-.08-9.92-1.44.23-2.91,4.11-3.47,8.31.08,9.92,1.44Z"/>
    </g>
  </g>
  <g>
    <polygon class="cls-11" points="112.66 175.21 66.65 181.89 85.7 197.99 131.71 191.32 112.66 175.21"/>
    <polygon class="cls-11" points="85.7 197.99 85.7 228.35 131.71 221.68 131.71 191.32 85.7 197.99"/>
    <polygon class="cls-9" points="66.65 181.89 66.65 212.25 85.7 228.35 85.7 197.99 66.65 181.89"/>
    <g>
      <g>
        <path class="cls-9" d="M80.01,176.1c-2.92.42-4.68,1.41-4.69,2.45v5.69c0,.34.18.68.58,1.02,1.21,1.02,4.03,1.64,7.01,1.64v-11.01c-.97,0-1.95.06-2.9.2Z"/>
        <path class="cls-11" d="M90.5,178.55c0-.34-.18-.68-.58-1.02-1.21-1.02-4.03-1.64-7.01-1.64v11.01c.97,0,1.95-.06,2.9-.2,2.92-.42,4.68-1.41,4.69-2.45v-5.69Z"/>
      </g>
      <path class="cls-11" d="M89.92,177.53c1.6,1.36-.23,2.91-4.11,3.47s-8.31-.08-9.92-1.44.23-2.91,4.11-3.47c3.87-.56,8.31.08,9.92,1.44Z"/>
    </g>
    <g>
      <g>
        <path class="cls-9" d="M89.54,184.15c-2.92.42-4.68,1.41-4.69,2.45v5.69c0,.34.18.68.58,1.02,1.21,1.02,4.03,1.64,7.01,1.64v-11.01c-.97,0-1.95.06-2.9.2Z"/>
        <path class="cls-11" d="M100.03,186.6c0-.34-.18-.68-.58-1.02-1.21-1.02-4.03-1.64-7.01-1.64v11.01c.97,0,1.95-.06,2.9-.2,2.92-.42,4.68-1.41,4.69-2.45v-5.69Z"/>
      </g>
      <path class="cls-11" d="M99.45,185.59c1.6,1.36-.23,2.91-4.11,3.47-3.87.56-8.31-.08-9.92-1.44s.23-2.91,4.11-3.47c3.87-.56,8.31.08,9.92,1.44Z"/>
    </g>
    <g>
      <g>
        <path class="cls-9" d="M103.01,172.76c-2.92.42-4.68,1.41-4.69,2.45v5.69c0,.34.18.68.58,1.02,1.21,1.02,4.03,1.64,7.01,1.64v-11.01c-.97,0-1.95.06-2.9.2Z"/>
        <path class="cls-11" d="M113.51,175.21c0-.34-.18-.68-.58-1.02-1.21-1.02-4.03-1.64-7.01-1.64v11.01c.97,0,1.95-.06,2.9-.2,2.92-.42,4.68-1.41,4.69-2.45v-5.69Z"/>
      </g>
      <path class="cls-11" d="M112.93,174.2c1.6,1.36-.23,2.91-4.11,3.47-3.87.56-8.31-.08-9.92-1.44s.23-2.91,4.11-3.47,8.31.08,9.92,1.44Z"/>
    </g>
    <g>
      <g>
        <path class="cls-9" d="M112.54,180.81c-2.92.42-4.68,1.41-4.69,2.45v5.69c0,.34.18.68.58,1.02,1.21,1.02,4.03,1.64,7.01,1.64v-11.01c-.97,0-1.95.06-2.9.2Z"/>
        <path class="cls-11" d="M123.04,183.27c0-.34-.18-.68-.58-1.02-1.21-1.02-4.03-1.64-7.01-1.64v11.01c.97,0,1.95-.06,2.9-.2,2.92-.42,4.68-1.41,4.69-2.45v-5.69Z"/>
      </g>
      <path class="cls-11" d="M122.46,182.25c1.6,1.36-.23,2.91-4.11,3.47s-8.31-.08-9.92-1.44.23-2.91,4.11-3.47,8.31.08,9.92,1.44Z"/>
    </g>
  </g>
  <g>
    <polygon class="cls-11" points="414.3 338.56 368.29 345.23 387.34 361.33 433.35 354.66 414.3 338.56"/>
    <polygon class="cls-11" points="387.34 361.33 387.34 391.7 433.35 385.03 433.35 354.66 387.34 361.33"/>
    <polygon class="cls-9" points="368.29 345.23 368.29 375.59 387.34 391.7 387.34 361.33 368.29 345.23"/>
    <g>
      <g>
        <path class="cls-9" d="M381.65,339.44c-2.92.42-4.68,1.41-4.69,2.45v5.69c0,.34.18.68.58,1.02,1.21,1.02,4.03,1.64,7.01,1.64v-11.01c-.97,0-1.95.06-2.9.2Z"/>
        <path class="cls-11" d="M392.14,341.89c0-.34-.18-.68-.58-1.02-1.21-1.02-4.03-1.64-7.01-1.64v11.01c.97,0,1.95-.06,2.9-.2,2.92-.42,4.68-1.41,4.69-2.45v-5.69Z"/>
      </g>
      <path class="cls-11" d="M391.56,340.88c1.6,1.36-.23,2.91-4.11,3.47s-8.31-.08-9.92-1.44.23-2.91,4.11-3.47c3.87-.56,8.31.08,9.92,1.44Z"/>
    </g>
    <g>
      <g>
        <path class="cls-9" d="M391.18,347.49c-2.92.42-4.68,1.41-4.69,2.45v5.69c0,.34.18.68.58,1.02,1.21,1.02,4.03,1.64,7.01,1.64v-11.01c-.97,0-1.95.06-2.9.2Z"/>
        <path class="cls-11" d="M401.67,349.95c0-.34-.18-.68-.58-1.02-1.21-1.02-4.03-1.64-7.01-1.64v11.01c.97,0,1.95-.06,2.9-.2,2.92-.42,4.68-1.41,4.69-2.45v-5.69Z"/>
      </g>
      <path class="cls-11" d="M401.09,348.93c1.6,1.36-.23,2.91-4.11,3.47-3.87.56-8.31-.08-9.92-1.44s.23-2.91,4.11-3.47c3.87-.56,8.31.08,9.92,1.44Z"/>
    </g>
    <g>
      <g>
        <path class="cls-9" d="M404.65,336.1c-2.92.42-4.68,1.41-4.69,2.45v5.69c0,.34.18.68.58,1.02,1.21,1.02,4.03,1.64,7.01,1.64v-11.01c-.97,0-1.95.06-2.9.2Z"/>
        <path class="cls-11" d="M415.15,338.56c0-.34-.18-.68-.58-1.02-1.21-1.02-4.03-1.64-7.01-1.64v11.01c.97,0,1.95-.06,2.9-.2,2.92-.42,4.68-1.41,4.69-2.45v-5.69Z"/>
      </g>
      <path class="cls-11" d="M414.57,337.54c1.6,1.36-.23,2.91-4.11,3.47-3.87.56-8.31-.08-9.92-1.44s.23-2.91,4.11-3.47,8.31.08,9.92,1.44Z"/>
    </g>
    <g>
      <g>
        <path class="cls-9" d="M414.18,344.16c-2.92.42-4.68,1.41-4.69,2.45v5.69c0,.34.18.68.58,1.02,1.21,1.02,4.03,1.64,7.01,1.64v-11.01c-.97,0-1.95.06-2.9.2Z"/>
        <path class="cls-11" d="M424.68,346.61c0-.34-.18-.68-.58-1.02-1.21-1.02-4.03-1.64-7.01-1.64v11.01c.97,0,1.95-.06,2.9-.2,2.92-.42,4.68-1.41,4.69-2.45v-5.69Z"/>
      </g>
      <path class="cls-11" d="M424.1,345.59c1.6,1.36-.23,2.91-4.11,3.47s-8.31-.08-9.92-1.44.23-2.91,4.11-3.47,8.31.08,9.92,1.44Z"/>
    </g>
  </g>
  <g>
    <polygon class="cls-11" points="332.66 338.56 286.65 345.23 305.7 361.33 351.71 354.66 332.66 338.56"/>
    <polygon class="cls-11" points="305.7 361.33 305.7 391.7 351.71 385.03 351.71 354.66 305.7 361.33"/>
    <polygon class="cls-9" points="286.65 345.23 286.65 375.59 305.7 391.7 305.7 361.33 286.65 345.23"/>
    <g>
      <g>
        <path class="cls-9" d="M300.01,339.44c-2.92.42-4.68,1.41-4.69,2.45v5.69c0,.34.18.68.58,1.02,1.21,1.02,4.03,1.64,7.01,1.64v-11.01c-.97,0-1.95.06-2.9.2Z"/>
        <path class="cls-11" d="M310.5,341.89c0-.34-.18-.68-.58-1.02-1.21-1.02-4.03-1.64-7.01-1.64v11.01c.97,0,1.95-.06,2.9-.2,2.92-.42,4.68-1.41,4.69-2.45v-5.69Z"/>
      </g>
      <path class="cls-11" d="M309.92,340.88c1.6,1.36-.23,2.91-4.11,3.47s-8.31-.08-9.92-1.44.23-2.91,4.11-3.47c3.87-.56,8.31.08,9.92,1.44Z"/>
    </g>
    <g>
      <g>
        <path class="cls-9" d="M309.54,347.49c-2.92.42-4.68,1.41-4.69,2.45v5.69c0,.34.18.68.58,1.02,1.21,1.02,4.03,1.64,7.01,1.64v-11.01c-.97,0-1.95.06-2.9.2Z"/>
        <path class="cls-11" d="M320.03,349.95c0-.34-.18-.68-.58-1.02-1.21-1.02-4.03-1.64-7.01-1.64v11.01c.97,0,1.95-.06,2.9-.2,2.92-.42,4.68-1.41,4.69-2.45v-5.69Z"/>
      </g>
      <path class="cls-11" d="M319.45,348.93c1.6,1.36-.23,2.91-4.11,3.47-3.87.56-8.31-.08-9.92-1.44s.23-2.91,4.11-3.47c3.87-.56,8.31.08,9.92,1.44Z"/>
    </g>
    <g>
      <g>
        <path class="cls-9" d="M323.01,336.1c-2.92.42-4.68,1.41-4.69,2.45v5.69c0,.34.18.68.58,1.02,1.21,1.02,4.03,1.64,7.01,1.64v-11.01c-.97,0-1.95.06-2.9.2Z"/>
        <path class="cls-11" d="M333.51,338.56c0-.34-.18-.68-.58-1.02-1.21-1.02-4.03-1.64-7.01-1.64v11.01c.97,0,1.95-.06,2.9-.2,2.92-.42,4.68-1.41,4.69-2.45v-5.69Z"/>
      </g>
      <path class="cls-11" d="M332.93,337.54c1.6,1.36-.23,2.91-4.11,3.47-3.87.56-8.31-.08-9.92-1.44s.23-2.91,4.11-3.47,8.31.08,9.92,1.44Z"/>
    </g>
    <g>
      <g>
        <path class="cls-9" d="M332.54,344.16c-2.92.42-4.68,1.41-4.69,2.45v5.69c0,.34.18.68.58,1.02,1.21,1.02,4.03,1.64,7.01,1.64v-11.01c-.97,0-1.95.06-2.9.2Z"/>
        <path class="cls-11" d="M343.04,346.61c0-.34-.18-.68-.58-1.02-1.21-1.02-4.03-1.64-7.01-1.64v11.01c.97,0,1.95-.06,2.9-.2,2.92-.42,4.68-1.41,4.69-2.45v-5.69Z"/>
      </g>
      <path class="cls-11" d="M342.46,345.59c1.6,1.36-.23,2.91-4.11,3.47s-8.31-.08-9.92-1.44.23-2.91,4.11-3.47,8.31.08,9.92,1.44Z"/>
    </g>
  </g>
  <g>
    <polygon class="cls-11" points="194.3 338.56 148.29 345.23 167.34 361.33 213.35 354.66 194.3 338.56"/>
    <polygon class="cls-11" points="167.34 361.33 167.34 391.7 213.35 385.03 213.35 354.66 167.34 361.33"/>
    <polygon class="cls-9" points="148.29 345.23 148.29 375.59 167.34 391.7 167.34 361.33 148.29 345.23"/>
    <g>
      <g>
        <path class="cls-9" d="M161.65,339.44c-2.92.42-4.68,1.41-4.69,2.45v5.69c0,.34.18.68.58,1.02,1.21,1.02,4.03,1.64,7.01,1.64v-11.01c-.97,0-1.95.06-2.9.2Z"/>
        <path class="cls-11" d="M172.14,341.89c0-.34-.18-.68-.58-1.02-1.21-1.02-4.03-1.64-7.01-1.64v11.01c.97,0,1.95-.06,2.9-.2,2.92-.42,4.68-1.41,4.69-2.45v-5.69Z"/>
      </g>
      <path class="cls-11" d="M171.56,340.88c1.6,1.36-.23,2.91-4.11,3.47s-8.31-.08-9.92-1.44.23-2.91,4.11-3.47c3.87-.56,8.31.08,9.92,1.44Z"/>
    </g>
    <g>
      <g>
        <path class="cls-9" d="M171.18,347.49c-2.92.42-4.68,1.41-4.69,2.45v5.69c0,.34.18.68.58,1.02,1.21,1.02,4.03,1.64,7.01,1.64v-11.01c-.97,0-1.95.06-2.9.2Z"/>
        <path class="cls-11" d="M181.67,349.95c0-.34-.18-.68-.58-1.02-1.21-1.02-4.03-1.64-7.01-1.64v11.01c.97,0,1.95-.06,2.9-.2,2.92-.42,4.68-1.41,4.69-2.45v-5.69Z"/>
      </g>
      <path class="cls-11" d="M181.09,348.93c1.6,1.36-.23,2.91-4.11,3.47-3.87.56-8.31-.08-9.92-1.44s.23-2.91,4.11-3.47c3.87-.56,8.31.08,9.92,1.44Z"/>
    </g>
    <g>
      <g>
        <path class="cls-9" d="M184.65,336.1c-2.92.42-4.68,1.41-4.69,2.45v5.69c0,.34.18.68.58,1.02,1.21,1.02,4.03,1.64,7.01,1.64v-11.01c-.97,0-1.95.06-2.9.2Z"/>
        <path class="cls-11" d="M195.15,338.56c0-.34-.18-.68-.58-1.02-1.21-1.02-4.03-1.64-7.01-1.64v11.01c.97,0,1.95-.06,2.9-.2,2.92-.42,4.68-1.41,4.69-2.45v-5.69Z"/>
      </g>
      <path class="cls-11" d="M194.57,337.54c1.6,1.36-.23,2.91-4.11,3.47-3.87.56-8.31-.08-9.92-1.44s.23-2.91,4.11-3.47,8.31.08,9.92,1.44Z"/>
    </g>
    <g>
      <g>
        <path class="cls-9" d="M194.18,344.16c-2.92.42-4.68,1.41-4.69,2.45v5.69c0,.34.18.68.58,1.02,1.21,1.02,4.03,1.64,7.01,1.64v-11.01c-.97,0-1.95.06-2.9.2Z"/>
        <path class="cls-11" d="M204.68,346.61c0-.34-.18-.68-.58-1.02-1.21-1.02-4.03-1.64-7.01-1.64v11.01c.97,0,1.95-.06,2.9-.2,2.92-.42,4.68-1.41,4.69-2.45v-5.69Z"/>
      </g>
      <path class="cls-11" d="M204.1,345.59c1.6,1.36-.23,2.91-4.11,3.47s-8.31-.08-9.92-1.44.23-2.91,4.11-3.47,8.31.08,9.92,1.44Z"/>
    </g>
  </g>
  <g>
    <polygon class="cls-14" points="112.66 338.56 66.65 345.23 85.7 361.33 131.71 354.66 112.66 338.56"/>
    <polygon class="cls-14" points="85.7 361.33 85.7 391.7 131.71 385.03 131.71 354.66 85.7 361.33"/>
    <polygon class="cls-9" points="66.65 345.23 66.65 375.59 85.7 391.7 85.7 361.33 66.65 345.23"/>
    <g>
      <g>
        <path class="cls-9" d="M80.01,339.44c-2.92.42-4.68,1.41-4.69,2.45v5.69c0,.34.18.68.58,1.02,1.21,1.02,4.03,1.64,7.01,1.64v-11.01c-.97,0-1.95.06-2.9.2Z"/>
        <path class="cls-14" d="M90.5,341.89c0-.34-.18-.68-.58-1.02-1.21-1.02-4.03-1.64-7.01-1.64v11.01c.97,0,1.95-.06,2.9-.2,2.92-.42,4.68-1.41,4.69-2.45v-5.69Z"/>
      </g>
      <path class="cls-14" d="M89.92,340.88c1.6,1.36-.23,2.91-4.11,3.47s-8.31-.08-9.92-1.44.23-2.91,4.11-3.47c3.87-.56,8.31.08,9.92,1.44Z"/>
    </g>
    <g>
      <g>
        <path class="cls-9" d="M89.54,347.49c-2.92.42-4.68,1.41-4.69,2.45v5.69c0,.34.18.68.58,1.02,1.21,1.02,4.03,1.64,7.01,1.64v-11.01c-.97,0-1.95.06-2.9.2Z"/>
        <path class="cls-14" d="M100.03,349.95c0-.34-.18-.68-.58-1.02-1.21-1.02-4.03-1.64-7.01-1.64v11.01c.97,0,1.95-.06,2.9-.2,2.92-.42,4.68-1.41,4.69-2.45v-5.69Z"/>
      </g>
      <path class="cls-14" d="M99.45,348.93c1.6,1.36-.23,2.91-4.11,3.47-3.87.56-8.31-.08-9.92-1.44s.23-2.91,4.11-3.47c3.87-.56,8.31.08,9.92,1.44Z"/>
    </g>
    <g>
      <g>
        <path class="cls-9" d="M103.01,336.1c-2.92.42-4.68,1.41-4.69,2.45v5.69c0,.34.18.68.58,1.02,1.21,1.02,4.03,1.64,7.01,1.64v-11.01c-.97,0-1.95.06-2.9.2Z"/>
        <path class="cls-14" d="M113.51,338.56c0-.34-.18-.68-.58-1.02-1.21-1.02-4.03-1.64-7.01-1.64v11.01c.97,0,1.95-.06,2.9-.2,2.92-.42,4.68-1.41,4.69-2.45v-5.69Z"/>
      </g>
      <path class="cls-14" d="M112.93,337.54c1.6,1.36-.23,2.91-4.11,3.47-3.87.56-8.31-.08-9.92-1.44s.23-2.91,4.11-3.47,8.31.08,9.92,1.44Z"/>
    </g>
    <g>
      <g>
        <path class="cls-9" d="M112.54,344.16c-2.92.42-4.68,1.41-4.69,2.45v5.69c0,.34.18.68.58,1.02,1.21,1.02,4.03,1.64,7.01,1.64v-11.01c-.97,0-1.95.06-2.9.2Z"/>
        <path class="cls-14" d="M123.04,346.61c0-.34-.18-.68-.58-1.02-1.21-1.02-4.03-1.64-7.01-1.64v11.01c.97,0,1.95-.06,2.9-.2,2.92-.42,4.68-1.41,4.69-2.45v-5.69Z"/>
      </g>
      <path class="cls-14" d="M122.46,345.59c1.6,1.36-.23,2.91-4.11,3.47s-8.31-.08-9.92-1.44.23-2.91,4.11-3.47,8.31.08,9.92,1.44Z"/>
    </g>
  </g>
  <g>
    <line class="cls-18" x1="107.95" y1="388.47" x2="107.95" y2="392.47"/>
    <path class="cls-17" d="M107.95,399.82v17.6c0,8.28,6.72,15,15,15h45.82c8.28,0,15-6.72,15-15v-11.82"/>
    <line class="cls-18" x1="183.76" y1="401.93" x2="183.76" y2="397.93"/>
    <polygon class="cls-5" points="189.75 399.68 183.76 389.32 177.78 399.68 189.75 399.68"/>
  </g>
  <g>
    <line class="cls-18" x1="405.79" y1="399.31" x2="405.79" y2="403.31"/>
    <path class="cls-16" d="M405.79,411.43v5.99c0,8.28,6.72,15,15,15h151.92c8.28,0,15-6.72,15-15v-18.27"/>
    <line class="cls-18" x1="587.71" y1="395.09" x2="587.71" y2="391.09"/>
    <polygon class="cls-5" points="399.81 401.06 405.79 390.7 411.78 401.06 399.81 401.06"/>
  </g>
  <text class="cls-10" transform="translate(895.63 432.43)"><tspan x="0" y="0">location and hardware agnostic workloads</tspan></text>
  <path class="cls-13" d="M1562.5,489.56c0-12.63-10.24-22.87-22.87-22.87h-386.76c-12.63,0-22.87-10.24-22.87-22.87h0c0,12.63-10.24,22.87-22.87,22.87h-386.76c-12.63,0-22.87,10.24-22.87,22.87"/>
  <g>
    <line class="cls-15" x1="103.95" y1="378.63" x2="113.47" y2="367.73"/>
    <line class="cls-15" x1="113.47" y1="377.24" x2="103.95" y2="369.12"/>
  </g>
  <line class="cls-15" x1="584.77" y1="381.1" x2="594.29" y2="370.19"/>
  <line class="cls-15" x1="594.29" y1="379.71" x2="584.77" y2="371.58"/>
</svg>