<svg version="1.1" xmlns="http://www.w3.org/2000/svg" viewBox="0 0 459.50600534631485 406.0631938825704" width="919.0120106926297" height="812.1263877651407" filter="invert(93%) hue-rotate(180deg)">
  <!-- svg-source:excalidraw -->
  
  <defs>
    <style class="style-fonts">
      @font-face {
        font-family: "Virgil";
        src: url("https://excalidraw.com/Virgil.woff2");
      }
      @font-face {
        font-family: "Cascadia";
        src: url("https://excalidraw.com/Cascadia.woff2");
      }
      @font-face {
        font-family: "Assistant";
        src: url("https://excalidraw.com/Assistant-Regular.woff2");
      }
    </style>
    
  </defs>
  <g stroke-linecap="round"><g transform="translate(116.84965750939409 288.22462577560583) rotate(0 15.032066461278646 9.066962179000598)"><path d="M0 0 C10.77 7.51, 22.01 13.53, 30.06 18.13" stroke="#000000" stroke-width="2.5" fill="none" stroke-dasharray="8 10"></path></g></g><mask></mask><g stroke-linecap="round" transform="translate(10 129.21991124942005) rotate(0 96.50955167640586 56.66132664669607)"><path d="M121.25 14.25 C137.33 20.32, 152.46 31.67, 168.77 42.75 C196.12 57.11, 189.54 57.35, 168.77 71.25 C159.51 78.56, 148.41 86.91, 121.25 99.07 C100.41 111.5, 99.09 115.42, 72.75 99.07 C60.26 86.89, 42.03 81.8, 24.25 71.25 C0.72 55, -0.97 57.69, 24.25 42.75 C35.24 35.04, 48.83 28.12, 72.75 14.25 C95.87 0.77, 96.65 2.02, 121.25 14.25" stroke="none" stroke-width="0" fill="#f8f0fc"></path><path d="M121.25 14.25 C133.01 21.42, 144 29.76, 168.77 42.75 M168.77 42.75 C192.15 58.91, 193.94 55.46, 168.77 71.25 M168.77 71.25 C156.64 80.09, 140.03 85.28, 121.25 99.07 M121.25 99.07 C96.12 111.73, 96.5 112.12, 72.75 99.07 M72.75 99.07 C62.73 94.64, 52.07 85.99, 24.25 71.25 M24.25 71.25 C1.33 58.8, -0.79 55.58, 24.25 42.75 M24.25 42.75 C35.02 35.44, 48.34 29.26, 72.75 14.25 M72.75 14.25 C95.21 0.84, 96.85 -0.57, 121.25 14.25" stroke="#000000" stroke-width="2.5" fill="none" stroke-dasharray="1.5 8"></path></g><g stroke-linecap="round"><g transform="translate(100.86399507489614 98.7421427266955) rotate(0 2.7986301247051415 57.19812064114198)" fill-rule="evenodd"><path d="M0.43 -1.72 L-5.93 3.59 L-43.52 24.04 L-45.8 29.55 L-46.17 31.54 L-47.17 79.57 L-48.76 84.19 L-48.14 85.67 L-44.07 90.58 L-23.75 99.16 L-2.56 111.01 L2.43 113.18 L6.04 113.33 L7.67 110.78 L48.63 89.2 L52.59 85.97 L53.93 86.15 L52.21 30.08 L53.26 25.48 L47.73 22.83 L12.34 4.97 L7.95 -0.1 L1.31 0.4 L-1.14 -0.03" stroke="none" stroke-width="0" fill="#00bc8e" fill-rule="evenodd"></path><path d="M0 0 C-2.16 1.46, -3.97 2.57, -4.9 2.66 M0 0 C-1.69 0.64, -3.16 2, -4.9 2.66 M-4.9 2.66 C-16.27 7.65, -25.45 12.07, -42.47 24.86 M-4.9 2.66 C-18.04 11.03, -33.26 19.8, -42.47 24.86 M-42.47 24.86 C-44.54 26.07, -46.06 26.94, -46.83 27.69 M-42.47 24.86 C-43.8 25.68, -44.7 26.23, -46.83 27.69 M-46.83 27.69 C-47.04 28.33, -47.33 29.29, -47.8 30.19 M-46.83 27.69 C-47.19 28.57, -47.49 29.48, -47.8 30.19 M-47.8 30.19 C-45.85 48.97, -48.62 65.12, -47.8 78.48 M-47.8 30.19 C-47.61 48.38, -48.65 64.92, -47.8 78.48 M-47.8 78.48 C-47.92 80.12, -48 81.25, -47.8 83.46 M-47.8 78.48 C-47.88 79.7, -47.9 81.03, -47.8 83.46 M-47.8 83.46 C-47.51 84.22, -47.43 85.21, -46.83 86.16 M-47.8 83.46 C-47.32 84.49, -47.06 85.62, -46.83 86.16 M-46.83 86.16 C-46.14 86.86, -44.7 87.76, -43.99 88.99 M-46.83 86.16 C-45.89 87.3, -44.97 88.15, -43.99 88.99 M-43.99 88.99 C-39.06 92.07, -30.89 96.49, -25.04 99.85 M-43.99 88.99 C-38.11 91.04, -34 95.61, -25.04 99.85 M-25.04 99.85 C-20.87 102.96, -16 104.1, -3.75 112.46 M-25.04 99.85 C-18.61 104.39, -13.18 107.21, -3.75 112.46 M-3.75 112.46 C-2.28 113.15, -1.37 114.01, 0.79 115.15 M-3.75 112.46 C-2.74 113.34, -1.06 113.66, 0.79 115.15 M0.79 115.15 C1.76 114.78, 3.35 115.07, 4.16 114.73 M0.79 115.15 C1.67 115.09, 2.44 115.04, 4.16 114.73 M4.16 114.73 C6.25 113.45, 8.7 113.24, 9.55 112.2 M4.16 114.73 C5.9 113.82, 7.27 113.04, 9.55 112.2 M9.55 112.2 C17.92 104.98, 26.86 102.77, 47.42 90.15 M9.55 112.2 C19.08 107.18, 27.97 100.04, 47.42 90.15 M47.42 90.15 C49.32 88.36, 51.6 87.66, 52.3 86.78 M47.42 90.15 C48.67 88.97, 50.23 88.31, 52.3 86.78 M52.3 86.78 C52.65 86.44, 52.7 85.72, 53.4 84.6 M52.3 86.78 C52.75 85.95, 53.09 85.15, 53.4 84.6 M53.4 84.6 C53.2 74, 53.38 61.82, 53.4 30.65 M53.4 84.6 C52.78 67.65, 52.86 50.69, 53.4 30.65 M53.4 30.65 C52.72 29.6, 51.92 27.88, 51.88 27.36 M53.4 30.65 C53.02 29.85, 52.7 29.16, 51.88 27.36 M51.88 27.36 C50.7 26.84, 49.8 25.28, 48.18 24.59 M51.88 27.36 C50.64 26.59, 49.94 25.71, 48.18 24.59 M48.18 24.59 C38.17 16.05, 25.77 9.75, 12.91 3.88 M48.18 24.59 C36.06 18.43, 25.61 10.53, 12.91 3.88 M12.91 3.88 C10.74 2.46, 9.2 1.76, 6.43 0.01 M12.91 3.88 C11.05 2.34, 8.58 1.04, 6.43 0.01 M6.43 0.01 C5.34 -0.62, 3.31 -0.58, 2.81 -0.75 M6.43 0.01 C5.14 -0.13, 3.82 -0.41, 2.81 -0.75 M2.81 -0.75 C2.25 -0.65, 1.7 -0.12, 0 0 M2.81 -0.75 C1.9 -0.59, 0.83 -0.21, 0 0 M0 0 C0 0, 0 0, 0 0 M0 0 C0 0, 0 0, 0 0" stroke="#000000" stroke-width="4" fill="none"></path></g></g><mask></mask><g stroke-linecap="round" transform="translate(65.69464587883294 153.52772153241503) rotate(0 37.6488194162871 21.79413415315051)"><path d="M39.15 1.75 L77.19 20.99 L39.16 44.75 L0.39 22.84" stroke="none" stroke-width="0" fill="#e5f2ff" fill-rule="evenodd"></path><path d="M38 0 C48.93 8.64, 62.63 12.23, 75.3 22 M38 0 C49.85 7.4, 59.44 12.37, 75.3 22 M75.3 22 C64.38 25.69, 57.41 34.47, 38 43.59 M75.3 22 C62.49 29.72, 52.05 35.68, 38 43.59 M38 43.59 C28.75 38.35, 19.87 35.49, 0 22 M38 43.59 C27.58 37.48, 17.25 31.37, 0 22 M0 22 C15.5 13.89, 30.99 5.29, 38 0 M0 22 C8.37 16.8, 15.92 13.69, 38 0" stroke="transparent" stroke-width="2" fill="none"></path></g><g stroke-linecap="round"><g transform="translate(66.07949218332715 137.22945823756444) rotate(0 18.85988346540057 7.470168533597231)" fill-rule="evenodd"><path d="M0.28 1.3 L1.26 37.43 L36.5 18.59 L36.08 -21.65 L29.52 -18.87 L28.93 19.77 L15.38 25.04 L14.44 -7.36 L15.82 -10.66 L2.72 -0.5" stroke="none" stroke-width="0" fill="#b8c2cc" fill-rule="evenodd"></path><path d="M0 0 C0.75 12.82, -0.3 28.92, 0 37.97 M0 0 C-0.11 6.7, -0.1 14.42, 0 37.97 M0 37.97 C11.8 34.05, 21.22 27.91, 37.45 17.02 M0 37.97 C12.62 30.87, 22.56 24.11, 37.45 17.02 M37.45 17.02 C36.8 5.65, 37.31 -10.89, 37.72 -23.03 M37.45 17.02 C37.71 2.91, 38.53 -10.01, 37.72 -23.03 M37.72 -23.03 C36.35 -21.56, 31.85 -20.06, 27.81 -17.11 M37.72 -23.03 C35.67 -21.47, 33.34 -19.78, 27.81 -17.11 M27.81 -17.11 C28.83 -2.36, 28.56 11.81, 27.92 19.27 M27.81 -17.11 C27.62 -2.75, 27 10.94, 27.92 19.27 M27.92 19.27 C23.41 20.71, 20 23.36, 16.03 26.3 M27.92 19.27 C24.38 21.73, 21.07 23.36, 16.03 26.3 M16.03 26.3 C17.81 16.41, 18.16 7.35, 15.82 -8.53 M16.03 26.3 C16.43 15.47, 16.71 3.74, 15.82 -8.53 M15.82 -8.53 C15.63 -8.83, 15.18 -9.06, 14.61 -9.52 M15.82 -8.53 C15.4 -8.81, 14.97 -9.27, 14.61 -9.52 M14.61 -9.52 C10.12 -6.72, 5.61 -3.49, 0.97 -1.6 M14.61 -9.52 C11.2 -7.33, 9.81 -6.43, 0.97 -1.6 M0.97 -1.6 C0.61 -1.05, 0.28 -0.48, 0 0 M0.97 -1.6 C0.52 -0.95, 0.18 -0.25, 0 0" stroke="transparent" stroke-width="2" fill="none"></path></g></g><mask></mask><g stroke-linecap="round"><g transform="translate(141.2310535965321 137.32136374282695) rotate(0 -18.945556846613727 7.707522516196583)" fill-rule="evenodd"><path d="M1.26 -0.54 L-0.96 40.02 L-39.53 17.92 L-36.01 -24.79 L-26.79 -16.61 L-28.57 18.02 L-17.41 27.47 L-14.61 -9.67 L-12.86 -8.41 L-0.27 -0.88" stroke="none" stroke-width="0" fill="#f4f7fa" fill-rule="evenodd"></path><path d="M0 0 C0.04 15.41, -1.82 32.18, 0 38.45 M0 0 C-0.61 12.95, -0.43 26.9, 0 38.45 M0 38.45 C-7.72 35.19, -16.12 27.81, -37.89 16.54 M0 38.45 C-14.8 29.59, -27.71 21.89, -37.89 16.54 M-37.89 16.54 C-38.12 3.66, -36.78 -5.79, -37.72 -23.03 M-37.89 16.54 C-37.04 6.18, -38.44 -4.51, -37.72 -23.03 M-37.72 -23.03 C-35.73 -21.1, -32.26 -18.62, -27.81 -17.11 M-37.72 -23.03 C-35.33 -21.35, -33.09 -20.94, -27.81 -17.11 M-27.81 -17.11 C-26.79 -3.88, -25.89 7.07, -27.92 19.27 M-27.81 -17.11 C-28.36 -5.99, -27.64 5.26, -27.92 19.27 M-27.92 19.27 C-25.49 20.65, -22.55 22.17, -16.03 26.3 M-27.92 19.27 C-24.02 21.44, -20.32 23.22, -16.03 26.3 M-16.03 26.3 C-14.23 15.06, -15.89 0.73, -15.82 -8.53 M-16.03 26.3 C-15.31 12, -16.67 -0.41, -15.82 -8.53 M-15.82 -8.53 C-15.63 -8.79, -15.22 -9.09, -14.61 -9.52 M-15.82 -8.53 C-15.49 -8.84, -15.17 -9.01, -14.61 -9.52 M-14.61 -9.52 C-10.96 -5.44, -6.59 -4.07, -0.97 -1.6 M-14.61 -9.52 C-8.77 -6.88, -4.23 -3.85, -0.97 -1.6 M-0.97 -1.6 C-0.79 -1.13, -0.32 -0.84, 0 0 M-0.97 -1.6 C-0.69 -1.01, -0.34 -0.51, 0 0" stroke="transparent" stroke-width="2" fill="none"></path></g></g><mask></mask><g stroke-linecap="round"><g transform="translate(67.11019719667956 135.36726247331657) rotate(0 36.3335224645632 20.23137262823807)"><path d="M0 0 C-0.29 0.36, -0.25 0.43, -0.73 1.09 M0 0 C-0.17 0.18, -0.37 0.5, -0.73 1.09 M-0.73 1.09 C-0.63 13.78, 0.36 31.46, -1.18 39.12 M-0.73 1.09 C-0.86 10.65, -1.43 20.47, -1.18 39.12 M-1.18 39.12 C-0.95 39.75, -0.91 40.42, -0.76 40.78 M-1.18 39.12 C-1.1 39.58, -0.94 40.05, -0.76 40.78 M-0.76 40.78 C8.79 48.4, 19.05 54.39, 35.43 61.66 M-0.76 40.78 C12.64 47.07, 24.6 55.27, 35.43 61.66 M35.43 61.66 C36.31 61.38, 36.84 61.53, 37.59 61.43 M35.43 61.66 C36.14 61.55, 36.74 61.46, 37.59 61.43 M37.59 61.43 C46.17 55.74, 55.5 51.03, 72.79 40.67 M37.59 61.43 C50.04 53.32, 63.31 47.45, 72.79 40.67 M72.79 40.67 C73.13 40.22, 73.6 39.87, 73.84 39.29 M72.79 40.67 C73.05 40.29, 73.35 39.88, 73.84 39.29 M73.84 39.29 C75.05 27.41, 73.31 19.03, 73.64 1.22 M73.84 39.29 C73.64 25.03, 74.15 8.77, 73.64 1.22 M73.64 1.22 C73.16 0.57, 73.25 -0.25, 72.77 -0.78 M73.64 1.22 C73.33 0.48, 72.93 -0.24, 72.77 -0.78 M72.77 -0.78 C70.35 -2.83, 65.78 -5.69, 61.4 -6.96 M72.77 -0.78 C69.28 -2.21, 66 -4.76, 61.4 -6.96 M61.4 -6.96 C61.05 -7, 60.22 -7.28, 59.44 -7.78 M61.4 -6.96 C60.7 -7.18, 60.2 -7.57, 59.44 -7.78 M59.44 -7.78 C59.17 -7.19, 58.87 -6.51, 58.54 -6.29 M59.44 -7.78 C59.18 -7.34, 59.07 -7.08, 58.54 -6.29 M58.54 -6.29 C56.92 2.62, 56.38 10.24, 58.12 27.65 M58.54 -6.29 C57.12 2.05, 58.7 11.82, 58.12 27.65 M58.12 27.65 C55.18 25.03, 49.14 24.43, 46.81 21.17 M58.12 27.65 C54.69 26.36, 52.45 24.29, 46.81 21.17 M46.81 21.17 C45.32 11.17, 47.28 1.64, 45.74 -14.36 M46.81 21.17 C46.97 6.59, 45.92 -6.2, 45.74 -14.36 M45.74 -14.36 C42.91 -16.28, 40.34 -19.03, 36.54 -21.2 M45.74 -14.36 C43.03 -16.56, 39.86 -18.71, 36.54 -21.2 M36.54 -21.2 C34.37 -20.76, 32.25 -17.2, 26.63 -15.28 M36.54 -21.2 C34.11 -19.95, 30.6 -18.25, 26.63 -15.28 M26.63 -15.28 C25.98 -1.52, 26.54 12.37, 26.75 21.11 M26.63 -15.28 C27.2 -1.21, 25.77 11.52, 26.75 21.11 M26.75 21.11 C22.66 24.74, 18.04 26.56, 14.96 28.59 M26.75 21.11 C22.87 23.37, 19.75 25.51, 14.96 28.59 M14.96 28.59 C15.18 20.41, 12.84 9.31, 14.65 -6.7 M14.96 28.59 C14.42 14.14, 14.56 1.98, 14.65 -6.7 M14.65 -6.7 C14.1 -7, 13.67 -7.27, 13.43 -7.68 M14.65 -6.7 C14.2 -7.06, 13.91 -7.24, 13.43 -7.68 M13.43 -7.68 C11.38 -7.11, 8.28 -5.21, 0 0 M13.43 -7.68 C8.89 -4.39, 5.47 -2.3, 0 0" stroke="#000000" stroke-width="2" fill="none"></path></g></g><mask></mask><g stroke-linecap="round" transform="translate(170.35068605381457 41.23071817993908) rotate(0 96.50955167640586 56.66132664669607)"><path d="M121.25 14.25 C139.64 26.34, 158.76 38.13, 168.77 42.75 C191.2 59.09, 195.12 57.7, 168.77 71.25 C149.17 82.01, 136.71 91.78, 121.25 99.07 C95 112.36, 97.69 111.82, 72.75 99.07 C60.93 91.31, 50.08 84.53, 24.25 71.25 C0.77 56.65, 2.02 57.44, 24.25 42.75 C41.06 37.8, 53.68 30.08, 72.75 14.25 C99.76 0.48, 96.93 3.22, 121.25 14.25" stroke="none" stroke-width="0" fill="#f8f0fc"></path><path d="M121.25 14.25 C136.88 21.78, 148.68 30.66, 168.77 42.75 M168.77 42.75 C191.43 56.5, 191.82 55.26, 168.77 71.25 M168.77 71.25 C152.57 81.81, 132.31 93.24, 121.25 99.07 M121.25 99.07 C98.8 112.54, 95.58 111.96, 72.75 99.07 M72.75 99.07 C56.15 91.59, 40.76 79.04, 24.25 71.25 M24.25 71.25 C0.84 56.85, -0.57 57.27, 24.25 42.75 M24.25 42.75 C35.42 36.07, 49.36 29.48, 72.75 14.25 M72.75 14.25 C97.06 -1.94, 97.19 -1.21, 121.25 14.25" stroke="#000000" stroke-width="2.5" fill="none" stroke-dasharray="1.5 8"></path></g><g stroke-linecap="round"><g transform="translate(261.2146811287107 10.752949657214538) rotate(0 2.7986301247051415 57.198120641142)" fill-rule="evenodd"><path d="M-0.96 0.73 L-6.21 2.17 L-42.54 26.44 L-45.54 27 L-46.61 28.74 L-46.16 76.51 L-45.92 82.06 L-48.7 84.73 L-42.79 88.04 L-24.75 99.04 L-3.22 114.01 L-0.39 114.58 L5.54 112.84 L9.1 110.44 L46.84 91.24 L53.82 86.67 L51.9 85.75 L52.26 30.62 L52.48 28.71 L47.08 24.04 L12.78 2.92 L6.55 -1.35 L3.4 -0.79 L-1.86 -0.83" stroke="none" stroke-width="0" fill="#00bc8e" fill-rule="evenodd"></path><path d="M0 0 C-2.4 0.77, -4.24 1.91, -4.9 2.66 M0 0 C-0.99 0.74, -2.22 1.34, -4.9 2.66 M-4.9 2.66 C-13.81 6.47, -22.67 13.3, -42.47 24.86 M-4.9 2.66 C-14.05 8.15, -25.74 14.68, -42.47 24.86 M-42.47 24.86 C-43.96 26.14, -44.83 26.22, -46.83 27.69 M-42.47 24.86 C-43.97 25.62, -45.45 26.7, -46.83 27.69 M-46.83 27.69 C-47.1 28.77, -47.33 29.78, -47.8 30.19 M-46.83 27.69 C-47.03 28.38, -47.29 29.06, -47.8 30.19 M-47.8 30.19 C-47.33 39.02, -48.27 50.46, -47.8 78.48 M-47.8 30.19 C-48.65 42.45, -48.35 55.05, -47.8 78.48 M-47.8 78.48 C-47.51 79.88, -47.8 81.12, -47.8 83.46 M-47.8 78.48 C-47.72 79.86, -47.57 80.77, -47.8 83.46 M-47.8 83.46 C-47.46 84.49, -47.41 84.88, -46.83 86.16 M-47.8 83.46 C-47.54 84.32, -47.21 85.38, -46.83 86.16 M-46.83 86.16 C-45.85 86.8, -45.81 87.33, -43.99 88.99 M-46.83 86.16 C-45.68 87.11, -44.48 88.14, -43.99 88.99 M-43.99 88.99 C-37.12 94.34, -33.31 96.09, -25.04 99.85 M-43.99 88.99 C-38.6 91.73, -33.14 95.98, -25.04 99.85 M-25.04 99.85 C-18.49 103.13, -10.91 107.63, -3.75 112.46 M-25.04 99.85 C-17.66 105.3, -10.23 109.8, -3.75 112.46 M-3.75 112.46 C-1.89 113.3, -0.6 114.14, 0.79 115.15 M-3.75 112.46 C-1.88 113.59, -0.38 114.51, 0.79 115.15 M0.79 115.15 C1.62 115.1, 2.9 114.68, 4.16 114.73 M0.79 115.15 C2.05 114.92, 3.57 114.7, 4.16 114.73 M4.16 114.73 C5.69 113.42, 7.13 112.6, 9.55 112.2 M4.16 114.73 C5.36 114.46, 6.39 113.95, 9.55 112.2 M9.55 112.2 C19.03 106.49, 29.95 98.51, 47.42 90.15 M9.55 112.2 C22.68 103.87, 35.9 95.74, 47.42 90.15 M47.42 90.15 C49.27 89.86, 50.23 88.93, 52.3 86.78 M47.42 90.15 C48.51 89.31, 49.9 88.41, 52.3 86.78 M52.3 86.78 C52.69 86.17, 52.94 85.64, 53.4 84.6 M52.3 86.78 C52.57 86, 52.86 85.48, 53.4 84.6 M53.4 84.6 C52.84 72.42, 52.65 62.49, 53.4 30.65 M53.4 84.6 C54.36 72.83, 53.53 59.93, 53.4 30.65 M53.4 30.65 C53.19 29.36, 52.48 28.95, 51.88 27.36 M53.4 30.65 C52.96 29.55, 52.19 28.28, 51.88 27.36 M51.88 27.36 C50.38 26.08, 49.39 24.88, 48.18 24.59 M51.88 27.36 C50.62 26.69, 49.4 25.69, 48.18 24.59 M48.18 24.59 C38.09 16.01, 22.78 9.05, 12.91 3.88 M48.18 24.59 C41.62 20.85, 34.74 15.56, 12.91 3.88 M12.91 3.88 C10.81 3.1, 9.29 0.68, 6.43 0.01 M12.91 3.88 C11.3 3.43, 10.21 2.55, 6.43 0.01 M6.43 0.01 C5.67 -0.49, 4.92 -0.44, 2.81 -0.75 M6.43 0.01 C4.86 -0.39, 3.64 -0.68, 2.81 -0.75 M2.81 -0.75 C1.73 -0.77, 1.04 -0.26, 0 0 M2.81 -0.75 C1.87 -0.4, 0.66 -0.13, 0 0 M0 0 C0 0, 0 0, 0 0 M0 0 C0 0, 0 0, 0 0" stroke="#000000" stroke-width="4" fill="none"></path></g></g><mask></mask><g stroke-linecap="round" transform="translate(226.0453319326475 65.53852846293407) rotate(0 37.6488194162871 21.794134153150516)"><path d="M38.23 0.4 L74.19 21.46 L38.39 42.76 L-1.34 21.01" stroke="none" stroke-width="0" fill="#e5f2ff" fill-rule="evenodd"></path><path d="M38 0 C45.71 5.27, 55.61 9.63, 75.3 22 M38 0 C52.49 8.11, 64.9 16.81, 75.3 22 M75.3 22 C59.3 30.68, 45.42 38.18, 38 43.59 M75.3 22 C65.03 27.87, 56.3 32.69, 38 43.59 M38 43.59 C26.95 35.97, 15.18 30.55, 0 22 M38 43.59 C23.41 34.28, 9.31 25.59, 0 22 M0 22 C14.95 15.98, 25.47 7.56, 38 0 M0 22 C13.67 14.85, 26.25 6.21, 38 0" stroke="transparent" stroke-width="2" fill="none"></path></g><g stroke-linecap="round"><g transform="translate(226.43017823714172 49.240265168083475) rotate(0 18.85988346540057 7.470168533597235)" fill-rule="evenodd"><path d="M-0.65 -1.26 L-1.38 39.14 L38.67 15.88 L39.47 -21.93 L28.51 -16.39 L28.05 20.63 L17.38 25.1 L16.46 -8.22 L13.48 -7.61 L2.27 -1.9" stroke="none" stroke-width="0" fill="#b8c2cc" fill-rule="evenodd"></path><path d="M0 0 C-1.5 7.98, 1.08 20.95, 0 37.97 M0 0 C-0.58 13.02, 1.11 24.31, 0 37.97 M0 37.97 C8.01 32.68, 16.41 29.97, 37.45 17.02 M0 37.97 C10.5 31.72, 21.1 25.79, 37.45 17.02 M37.45 17.02 C38.31 1.72, 39.23 -13.85, 37.72 -23.03 M37.45 17.02 C38.13 7.92, 38.02 1.15, 37.72 -23.03 M37.72 -23.03 C33.64 -20.15, 31.36 -18.48, 27.81 -17.11 M37.72 -23.03 C33.79 -20.84, 31.01 -18.78, 27.81 -17.11 M27.81 -17.11 C26.91 -9.56, 26.78 -0.37, 27.92 19.27 M27.81 -17.11 C27.44 -6.77, 27.69 3.71, 27.92 19.27 M27.92 19.27 C23.2 22.38, 21.59 23.9, 16.03 26.3 M27.92 19.27 C23.2 22.72, 18.78 24.97, 16.03 26.3 M16.03 26.3 C17.05 11.38, 17.33 -0.84, 15.82 -8.53 M16.03 26.3 C15.22 16.99, 16.04 9.23, 15.82 -8.53 M15.82 -8.53 C15.58 -8.76, 15.02 -9.1, 14.61 -9.52 M15.82 -8.53 C15.53 -8.71, 15.19 -8.95, 14.61 -9.52 M14.61 -9.52 C8.76 -7.21, 3.38 -2.82, 0.97 -1.6 M14.61 -9.52 C10.88 -7.06, 6.67 -4.98, 0.97 -1.6 M0.97 -1.6 C0.84 -1.05, 0.41 -0.82, 0 0 M0.97 -1.6 C0.67 -1.07, 0.27 -0.36, 0 0" stroke="transparent" stroke-width="2" fill="none"></path></g></g><mask></mask><g stroke-linecap="round"><g transform="translate(301.58173965034666 49.33217067334598) rotate(0 -18.945556846613727 7.70752251619658)" fill-rule="evenodd"><path d="M-1.38 1.17 L1.22 37.31 L-36.14 17.65 L-37.02 -22.31 L-27.68 -15.76 L-26.57 18.07 L-15.4 26.61 L-16.95 -6.63 L-13.3 -9.81 L-1.83 -2.4" stroke="none" stroke-width="0" fill="#f4f7fa" fill-rule="evenodd"></path><path d="M0 0 C1.15 12.08, 0.27 22.26, 0 38.45 M0 0 C0.59 11.47, -1.02 23.04, 0 38.45 M0 38.45 C-13.16 32.92, -25.09 22.29, -37.89 16.54 M0 38.45 C-12.82 30.44, -25.06 23.73, -37.89 16.54 M-37.89 16.54 C-36.3 7.06, -39.92 -2.34, -37.72 -23.03 M-37.89 16.54 C-37.62 7.47, -37.5 -1.53, -37.72 -23.03 M-37.72 -23.03 C-33.16 -20.53, -29.44 -18.3, -27.81 -17.11 M-37.72 -23.03 C-33.85 -20.62, -30.38 -18.59, -27.81 -17.11 M-27.81 -17.11 C-28.99 -6.54, -28.46 5.66, -27.92 19.27 M-27.81 -17.11 C-28.05 -5.97, -27.86 4.01, -27.92 19.27 M-27.92 19.27 C-23.38 21.5, -19.6 24.38, -16.03 26.3 M-27.92 19.27 C-23.88 21.43, -19.92 23.06, -16.03 26.3 M-16.03 26.3 C-14.93 17.39, -16.9 9.17, -15.82 -8.53 M-16.03 26.3 C-15.65 14.88, -15.48 1.1, -15.82 -8.53 M-15.82 -8.53 C-15.53 -8.78, -15.23 -8.98, -14.61 -9.52 M-15.82 -8.53 C-15.64 -8.7, -15.25 -8.97, -14.61 -9.52 M-14.61 -9.52 C-10.49 -6.51, -6.2 -3.58, -0.97 -1.6 M-14.61 -9.52 C-9.83 -6.3, -4.07 -2.63, -0.97 -1.6 M-0.97 -1.6 C-0.71 -1.2, -0.2 -0.76, 0 0 M-0.97 -1.6 C-0.55 -0.98, -0.27 -0.47, 0 0" stroke="transparent" stroke-width="2" fill="none"></path></g></g><mask></mask><g stroke-linecap="round"><g transform="translate(227.46088325049413 47.3780694038356) rotate(0 36.3335224645632 20.23137262823807)"><path d="M0 0 C-0.12 0.31, -0.29 0.36, -0.73 1.09 M0 0 C-0.3 0.35, -0.51 0.77, -0.73 1.09 M-0.73 1.09 C-1.48 9.96, -0.3 22.26, -1.18 39.12 M-0.73 1.09 C0.06 11.81, -1.51 22.2, -1.18 39.12 M-1.18 39.12 C-1.2 39.64, -1.01 40.25, -0.76 40.78 M-1.18 39.12 C-1.03 39.53, -0.91 39.75, -0.76 40.78 M-0.76 40.78 C13.17 48.39, 27.07 53.78, 35.43 61.66 M-0.76 40.78 C10.04 46.97, 22.12 53.37, 35.43 61.66 M35.43 61.66 C35.89 61.57, 36.42 61.49, 37.59 61.43 M35.43 61.66 C36.14 61.57, 36.81 61.42, 37.59 61.43 M37.59 61.43 C52.32 55.29, 63.49 46.11, 72.79 40.67 M37.59 61.43 C52 52.58, 64.27 45.66, 72.79 40.67 M72.79 40.67 C72.94 40.32, 73.33 39.93, 73.84 39.29 M72.79 40.67 C73.08 40.25, 73.35 39.99, 73.84 39.29 M73.84 39.29 C72.51 27.66, 71.92 12.54, 73.64 1.22 M73.84 39.29 C75.06 24.7, 74.25 10.5, 73.64 1.22 M73.64 1.22 C73.36 0.83, 73.42 0.23, 72.77 -0.78 M73.64 1.22 C73.34 0.67, 73.11 0, 72.77 -0.78 M72.77 -0.78 C69.68 -4.13, 65.43 -4.21, 61.4 -6.96 M72.77 -0.78 C70.12 -2.47, 67.47 -2.99, 61.4 -6.96 M61.4 -6.96 C60.82 -7.16, 60.07 -7.52, 59.44 -7.78 M61.4 -6.96 C60.71 -7.26, 59.9 -7.47, 59.44 -7.78 M59.44 -7.78 C59.04 -7.13, 58.66 -6.68, 58.54 -6.29 M59.44 -7.78 C59.17 -7.53, 58.97 -7.24, 58.54 -6.29 M58.54 -6.29 C59.69 6.66, 59.55 18.16, 58.12 27.65 M58.54 -6.29 C59.03 0.74, 57.91 8.41, 58.12 27.65 M58.12 27.65 C53.86 24.57, 49.87 22.96, 46.81 21.17 M58.12 27.65 C54.91 25.77, 50.98 22.92, 46.81 21.17 M46.81 21.17 C46.28 10.23, 45.32 -2.47, 45.74 -14.36 M46.81 21.17 C46.87 11.65, 47.04 2.24, 45.74 -14.36 M45.74 -14.36 C41.77 -17.63, 40.17 -19.73, 36.54 -21.2 M45.74 -14.36 C42.27 -16.94, 39.51 -19.7, 36.54 -21.2 M36.54 -21.2 C34.33 -19.67, 30.85 -17.98, 26.63 -15.28 M36.54 -21.2 C33.26 -19.43, 31.39 -17.41, 26.63 -15.28 M26.63 -15.28 C27.51 -8.23, 26.61 3.4, 26.75 21.11 M26.63 -15.28 C26.23 -5.04, 25.94 4.03, 26.75 21.11 M26.75 21.11 C25.17 21.86, 21.62 25.12, 14.96 28.59 M26.75 21.11 C23.67 22.22, 21.12 23.79, 14.96 28.59 M14.96 28.59 C15.5 21.35, 13.33 10.74, 14.65 -6.7 M14.96 28.59 C15.17 20.99, 13.55 10.89, 14.65 -6.7 M14.65 -6.7 C14.41 -7.04, 14.02 -7.39, 13.43 -7.68 M14.65 -6.7 C14.18 -6.99, 13.81 -7.29, 13.43 -7.68 M13.43 -7.68 C7.22 -3.91, 1.95 -1.91, 0 0 M13.43 -7.68 C8.45 -5.76, 4.9 -2.24, 0 0" stroke="#000000" stroke-width="2" fill="none"></path></g></g><mask></mask><g stroke-linecap="round" transform="translate(96.13621593968855 282.74054058917824) rotate(0 96.50955167640586 56.66132664669607)"><path d="M121.25 14.25 C136.91 24.3, 151.89 30.72, 168.77 42.75 C192.05 57.69, 191.52 54.58, 168.77 71.25 C155.77 77.7, 143.57 85.78, 121.25 99.07 C96.65 115.35, 97.44 113.2, 72.75 99.07 C61.72 92.11, 48.19 86.05, 24.25 71.25 C0.48 56.93, 3.22 58.66, 24.25 42.75 C36.5 36.12, 50.71 27.98, 72.75 14.25 C95.78 -1.48, 95.79 2, 121.25 14.25" stroke="none" stroke-width="0" fill="#f8f0fc"></path><path d="M121.25 14.25 C139.34 23.09, 158.36 37.2, 168.77 42.75 M168.77 42.75 C192.23 55.58, 191.65 57.52, 168.77 71.25 M168.77 71.25 C157.82 77.96, 141.75 86.62, 121.25 99.07 M121.25 99.07 C96.85 112.76, 97.27 112.52, 72.75 99.07 M72.75 99.07 C54.82 88.21, 36.91 77.36, 24.25 71.25 M24.25 71.25 C-1.94 57.19, -1.21 58.33, 24.25 42.75 M24.25 42.75 C35.18 38.48, 45.84 29.88, 72.75 14.25 M72.75 14.25 C98.16 1.17, 97.39 0.84, 121.25 14.25" stroke="#000000" stroke-width="2.5" fill="none" stroke-dasharray="1.5 8"></path></g><g stroke-linecap="round"><g transform="translate(187.0002110145847 252.26277206645372) rotate(0 2.7986301247051415 57.19812064114198)" fill-rule="evenodd"><path d="M1.88 -1.4 L-6.78 1.24 L-41.26 23.91 L-46.54 26.88 L-47.26 31.74 L-48.98 77.91 L-46.42 81.57 L-47.27 84.4 L-44.57 90.08 L-23.52 99.74 L-5.25 113.6 L-0.35 115.12 L4.76 116.07 L8.45 111.66 L47.28 89.19 L52.42 85.43 L53.99 84.56 L51.54 29.82 L51.14 27.55 L47.93 22.61 L11.38 3.98 L7.34 1.55 L3.79 -2.28 L0.68 -0.61" stroke="none" stroke-width="0" fill="#00bc8e" fill-rule="evenodd"></path><path d="M0 0 C-1.37 1.41, -3.71 1.46, -4.9 2.66 M0 0 C-1.18 0.48, -2.03 1.15, -4.9 2.66 M-4.9 2.66 C-13.28 7.57, -21.42 13.7, -42.47 24.86 M-4.9 2.66 C-17.68 11.21, -30.45 16.9, -42.47 24.86 M-42.47 24.86 C-44.33 26.02, -44.98 26.94, -46.83 27.69 M-42.47 24.86 C-43.98 26.09, -45.77 27.15, -46.83 27.69 M-46.83 27.69 C-47.07 28.49, -47.35 29.08, -47.8 30.19 M-46.83 27.69 C-47.18 28.3, -47.42 29.02, -47.8 30.19 M-47.8 30.19 C-47.41 43.36, -46.72 57.17, -47.8 78.48 M-47.8 30.19 C-47.16 45.3, -47.65 59.83, -47.8 78.48 M-47.8 78.48 C-47.35 80.58, -47.75 82.63, -47.8 83.46 M-47.8 78.48 C-48.04 79.75, -47.92 80.63, -47.8 83.46 M-47.8 83.46 C-47.61 84.18, -46.99 84.93, -46.83 86.16 M-47.8 83.46 C-47.48 84.09, -47.26 84.74, -46.83 86.16 M-46.83 86.16 C-45.46 86.93, -44.44 88.74, -43.99 88.99 M-46.83 86.16 C-46.17 86.88, -45.25 87.63, -43.99 88.99 M-43.99 88.99 C-36.89 91.23, -30.51 95.93, -25.04 99.85 M-43.99 88.99 C-36.04 92.79, -29.83 98.04, -25.04 99.85 M-25.04 99.85 C-22.06 103.44, -15.16 104.52, -3.75 112.46 M-25.04 99.85 C-19.47 102.15, -14.15 106.26, -3.75 112.46 M-3.75 112.46 C-1.86 113.71, -1.02 114.42, 0.79 115.15 M-3.75 112.46 C-2.16 113.22, -1.01 114.01, 0.79 115.15 M0.79 115.15 C1.72 114.83, 3.18 114.52, 4.16 114.73 M0.79 115.15 C1.71 114.99, 2.46 115.11, 4.16 114.73 M4.16 114.73 C5.32 114.48, 7.34 113.29, 9.55 112.2 M4.16 114.73 C5.85 113.94, 7.26 113.06, 9.55 112.2 M9.55 112.2 C19.23 106.44, 28.89 104.23, 47.42 90.15 M9.55 112.2 C22.4 105.63, 34.59 97.59, 47.42 90.15 M47.42 90.15 C48.9 88.51, 50.9 87.89, 52.3 86.78 M47.42 90.15 C48.91 89.21, 50.15 87.89, 52.3 86.78 M52.3 86.78 C52.67 86.58, 52.73 85.83, 53.4 84.6 M52.3 86.78 C52.54 86.09, 52.99 85.62, 53.4 84.6 M53.4 84.6 C53.31 69.17, 55.03 51.49, 53.4 30.65 M53.4 84.6 C52.3 68.17, 53.44 52.49, 53.4 30.65 M53.4 30.65 C52.92 30, 52.63 28.99, 51.88 27.36 M53.4 30.65 C52.75 29.49, 52.23 28.4, 51.88 27.36 M51.88 27.36 C50.63 26.41, 50.54 25.79, 48.18 24.59 M51.88 27.36 C51.02 26.83, 50.46 26.24, 48.18 24.59 M48.18 24.59 C33.06 18.05, 20.3 9.39, 12.91 3.88 M48.18 24.59 C35.07 16.91, 21.09 9.5, 12.91 3.88 M12.91 3.88 C11.43 2.39, 9.55 1.12, 6.43 0.01 M12.91 3.88 C11.03 2.78, 8.16 1.02, 6.43 0.01 M6.43 0.01 C5.25 -0.16, 3.53 -0.84, 2.81 -0.75 M6.43 0.01 C5.58 -0.31, 4.82 -0.21, 2.81 -0.75 M2.81 -0.75 C2.13 -0.47, 0.98 -0.47, 0 0 M2.81 -0.75 C1.91 -0.37, 0.98 -0.14, 0 0 M0 0 C0 0, 0 0, 0 0 M0 0 C0 0, 0 0, 0 0" stroke="#000000" stroke-width="4" fill="none"></path></g></g><mask></mask><g stroke-linecap="round" transform="translate(151.8308618185215 307.0483508721732) rotate(0 37.6488194162871 21.79413415315051)"><path d="M37.37 0.43 L75.1 23.12 L38.25 43.52 L-0.12 20.54" stroke="none" stroke-width="0" fill="#e5f2ff" fill-rule="evenodd"></path><path d="M38 0 C45.57 3.09, 53.21 9.88, 75.3 22 M38 0 C48.68 5.76, 56.82 12.24, 75.3 22 M75.3 22 C63.51 30.09, 54.18 33.51, 38 43.59 M75.3 22 C62.46 28.81, 49.65 36.63, 38 43.59 M38 43.59 C25.09 37.01, 12.1 29.84, 0 22 M38 43.59 C28.59 38.85, 19.02 33.94, 0 22 M0 22 C8.2 16.31, 15.08 13.28, 38 0 M0 22 C9.44 16.29, 19.55 10.73, 38 0" stroke="transparent" stroke-width="2" fill="none"></path></g><g stroke-linecap="round"><g transform="translate(152.2157081230157 290.75008757732263) rotate(0 18.85988346540057 7.470168533597246)" fill-rule="evenodd"><path d="M1.35 -1.2 L0.63 38.28 L36.33 18.92 L39.02 -23.33 L26.95 -17.91 L29.25 17.9 L16.21 24.49 L14.89 -9.05 L12.76 -10.8 L-1.01 -3.54" stroke="none" stroke-width="0" fill="#b8c2cc" fill-rule="evenodd"></path><path d="M0 0 C-1.52 15.33, -0.85 29.22, 0 37.97 M0 0 C-0.58 10.15, 0.25 19.17, 0 37.97 M0 37.97 C12.59 29.9, 24.46 24.68, 37.45 17.02 M0 37.97 C14.56 29.64, 29.59 21.19, 37.45 17.02 M37.45 17.02 C39.14 4.91, 36.46 -9.83, 37.72 -23.03 M37.45 17.02 C37.57 3.56, 36.63 -11.55, 37.72 -23.03 M37.72 -23.03 C34.33 -21.02, 31.08 -20.17, 27.81 -17.11 M37.72 -23.03 C35.07 -21.62, 32.54 -19.96, 27.81 -17.11 M27.81 -17.11 C27.98 -6.67, 26.62 5.33, 27.92 19.27 M27.81 -17.11 C28.68 -3.17, 27.94 11.4, 27.92 19.27 M27.92 19.27 C22.8 20.92, 20.27 23.07, 16.03 26.3 M27.92 19.27 C23.38 22.14, 18.73 24.08, 16.03 26.3 M16.03 26.3 C14.78 15.7, 17.21 6.43, 15.82 -8.53 M16.03 26.3 C16.73 16.15, 15.79 8.66, 15.82 -8.53 M15.82 -8.53 C15.5 -8.7, 15.24 -9.05, 14.61 -9.52 M15.82 -8.53 C15.52 -8.74, 15.13 -9.07, 14.61 -9.52 M14.61 -9.52 C12.92 -7.56, 9.53 -5.02, 0.97 -1.6 M14.61 -9.52 C10.2 -6.71, 7.8 -5.78, 0.97 -1.6 M0.97 -1.6 C0.52 -1.17, 0.4 -0.37, 0 0 M0.97 -1.6 C0.78 -1.18, 0.52 -0.76, 0 0" stroke="transparent" stroke-width="2" fill="none"></path></g></g><mask></mask><g stroke-linecap="round"><g transform="translate(227.36726953622065 290.8419930825849) rotate(0 -18.945556846613727 7.707522516196576)" fill-rule="evenodd"><path d="M0.63 0.31 L-1.12 40.35 L-36.59 16.25 L-38.58 -23.83 L-26.48 -18.49 L-27.74 17.47 L-16.96 25.78 L-17.67 -9.81 L-16.59 -11.45 L0.42 -2.63" stroke="none" stroke-width="0" fill="#f4f7fa" fill-rule="evenodd"></path><path d="M0 0 C-0.97 8.41, -1.14 19.29, 0 38.45 M0 0 C-0.42 10.38, -0.21 20.92, 0 38.45 M0 38.45 C-13.81 29.93, -27.63 21.36, -37.89 16.54 M0 38.45 C-7.06 32.81, -14.93 29.72, -37.89 16.54 M-37.89 16.54 C-39.19 3.56, -36.95 -11.35, -37.72 -23.03 M-37.89 16.54 C-38.81 3.13, -37.7 -10.34, -37.72 -23.03 M-37.72 -23.03 C-35.79 -22.38, -33.46 -20.76, -27.81 -17.11 M-37.72 -23.03 C-35.16 -21.25, -32.27 -19.4, -27.81 -17.11 M-27.81 -17.11 C-29.32 -4.42, -26.3 5.97, -27.92 19.27 M-27.81 -17.11 C-27.6 -1.66, -27.16 12.08, -27.92 19.27 M-27.92 19.27 C-22.88 20.85, -18.11 24.21, -16.03 26.3 M-27.92 19.27 C-25.47 20.83, -21.79 23.51, -16.03 26.3 M-16.03 26.3 C-14.18 16.52, -16.47 5.27, -15.82 -8.53 M-16.03 26.3 C-16.32 19.04, -17.01 10.87, -15.82 -8.53 M-15.82 -8.53 C-15.37 -9.02, -14.88 -9.29, -14.61 -9.52 M-15.82 -8.53 C-15.51 -8.79, -15.23 -9.06, -14.61 -9.52 M-14.61 -9.52 C-9.8 -6.39, -7.54 -5.98, -0.97 -1.6 M-14.61 -9.52 C-8.83 -7.31, -3.94 -3.42, -0.97 -1.6 M-0.97 -1.6 C-0.61 -1.05, -0.57 -0.57, 0 0 M-0.97 -1.6 C-0.61 -0.97, -0.21 -0.52, 0 0" stroke="transparent" stroke-width="2" fill="none"></path></g></g><mask></mask><g stroke-linecap="round"><g transform="translate(153.24641313636812 288.88789181307453) rotate(0 36.3335224645632 20.231372628238063)"><path d="M0 0 C-0.3 0.46, -0.51 0.59, -0.73 1.09 M0 0 C-0.24 0.34, -0.44 0.77, -0.73 1.09 M-0.73 1.09 C1.06 10.31, -2.71 19.61, -1.18 39.12 M-0.73 1.09 C-0.09 10.6, -0.12 20.17, -1.18 39.12 M-1.18 39.12 C-0.92 39.8, -0.78 40.44, -0.76 40.78 M-1.18 39.12 C-1.02 39.78, -0.91 40.38, -0.76 40.78 M-0.76 40.78 C9.72 46.64, 21.83 53.89, 35.43 61.66 M-0.76 40.78 C9.6 47.33, 20.33 52.8, 35.43 61.66 M35.43 61.66 C36.24 61.62, 36.92 61.67, 37.59 61.43 M35.43 61.66 C36.16 61.58, 36.87 61.41, 37.59 61.43 M37.59 61.43 C47.02 56.14, 53.31 51.24, 72.79 40.67 M37.59 61.43 C50.29 55.11, 62.9 46.34, 72.79 40.67 M72.79 40.67 C73.02 40.31, 73.27 40.01, 73.84 39.29 M72.79 40.67 C72.94 40.43, 73.31 40.07, 73.84 39.29 M73.84 39.29 C73.46 27.32, 73.2 15.35, 73.64 1.22 M73.84 39.29 C73.04 24.43, 73.44 10.09, 73.64 1.22 M73.64 1.22 C73.29 0.5, 73.25 -0.21, 72.77 -0.78 M73.64 1.22 C73.35 0.5, 72.94 -0.33, 72.77 -0.78 M72.77 -0.78 C69.37 -1, 68.2 -3.11, 61.4 -6.96 M72.77 -0.78 C69.38 -3.17, 65.33 -4.75, 61.4 -6.96 M61.4 -6.96 C60.89 -7.24, 60.36 -7.21, 59.44 -7.78 M61.4 -6.96 C60.9 -7.19, 60.4 -7.42, 59.44 -7.78 M59.44 -7.78 C59.16 -7.4, 59.2 -7.14, 58.54 -6.29 M59.44 -7.78 C59.18 -7.27, 58.79 -6.68, 58.54 -6.29 M58.54 -6.29 C58.58 0.52, 57.66 7.4, 58.12 27.65 M58.54 -6.29 C57.91 2.52, 59.23 9.81, 58.12 27.65 M58.12 27.65 C54.54 24.78, 49.29 23.11, 46.81 21.17 M58.12 27.65 C54.49 26.02, 52 24.06, 46.81 21.17 M46.81 21.17 C46.81 7.69, 44.27 -5.49, 45.74 -14.36 M46.81 21.17 C47.75 9.36, 46.2 -2.44, 45.74 -14.36 M45.74 -14.36 C41.47 -16.09, 39.32 -19.61, 36.54 -21.2 M45.74 -14.36 C43.45 -15.74, 40.51 -17.9, 36.54 -21.2 M36.54 -21.2 C32.62 -18.44, 29.52 -17.59, 26.63 -15.28 M36.54 -21.2 C33.76 -19.6, 30.37 -17.31, 26.63 -15.28 M26.63 -15.28 C27.25 -8.34, 28.45 -0.9, 26.75 21.11 M26.63 -15.28 C26.1 -2.43, 26.18 7.89, 26.75 21.11 M26.75 21.11 C24.46 23.66, 21.67 25.92, 14.96 28.59 M26.75 21.11 C24.56 22.77, 21.65 25.06, 14.96 28.59 M14.96 28.59 C16.12 19.8, 16.77 13.77, 14.65 -6.7 M14.96 28.59 C14.56 16.42, 14.15 4.3, 14.65 -6.7 M14.65 -6.7 C14.37 -7.07, 13.86 -7.16, 13.43 -7.68 M14.65 -6.7 C14.37 -7.01, 13.99 -7.22, 13.43 -7.68 M13.43 -7.68 C7.81 -3.92, 5.92 -3.04, 0 0 M13.43 -7.68 C8.91 -5.6, 3.62 -1.87, 0 0" stroke="#000000" stroke-width="2" fill="none"></path></g></g><mask></mask><g stroke-linecap="round" transform="translate(256.4869019935031 194.75134751969708) rotate(0 96.50955167640586 56.66132664669607)"><path d="M121.25 14.25 C132.57 20.38, 145.45 28.21, 168.77 42.75 C195.04 57.44, 192.9 56.78, 168.77 71.25 C158.95 81.84, 150.29 85.04, 121.25 99.07 C96.93 116.54, 98.66 113.62, 72.75 99.07 C56.21 84.92, 38.44 76.16, 24.25 71.25 C-1.48 55.79, 2 53.84, 24.25 42.75 C37.74 32.65, 50.24 29.41, 72.75 14.25 C98.81 -1.3, 97.96 -2.52, 121.25 14.25" stroke="none" stroke-width="0" fill="#f8f0fc"></path><path d="M121.25 14.25 C133.99 20.04, 148.6 29.68, 168.77 42.75 M168.77 42.75 C192.45 57.27, 192.21 58.72, 168.77 71.25 M168.77 71.25 C152.67 82.61, 136.48 88.38, 121.25 99.07 M121.25 99.07 C97.19 112.11, 98.33 111.41, 72.75 99.07 M72.75 99.07 C57.43 91.52, 37.71 81.06, 24.25 71.25 M24.25 71.25 C1.17 57.39, 0.84 57.2, 24.25 42.75 M24.25 42.75 C43.62 32, 61.15 19.97, 72.75 14.25 M72.75 14.25 C97.39 -0.83, 95.66 -0.99, 121.25 14.25" stroke="#000000" stroke-width="2.5" fill="none" stroke-dasharray="1.5 8"></path></g><g stroke-linecap="round"><g transform="translate(347.35089706839926 164.27357899697253) rotate(0 2.7986301247051415 57.19812064114198)" fill-rule="evenodd"><path d="M1.38 -1.88 L-5.35 0.9 L-43.05 25.94 L-45.31 27.58 L-49.3 31.33 L-48.94 78.45 L-47.2 84.8 L-47.92 85.61 L-44.13 88.03 L-24.91 98.5 L-3.16 112.42 L-1.06 114.32 L3.42 114.91 L9.3 110.23 L45.88 90.25 L53.2 88.32 L54.38 83.07 L54.08 30.03 L51.62 25.76 L47.53 23.17 L12.74 5.19 L6.75 1.51 L3.28 0.24 L0.15 -0.17" stroke="none" stroke-width="0" fill="#00bc8e" fill-rule="evenodd"></path><path d="M0 0 C-1.66 0.94, -3.93 2.08, -4.9 2.66 M0 0 C-1.41 0.84, -2.5 1.64, -4.9 2.66 M-4.9 2.66 C-17.71 10.75, -29.79 17.14, -42.47 24.86 M-4.9 2.66 C-16.63 10.05, -29.79 18.7, -42.47 24.86 M-42.47 24.86 C-43.39 25.28, -45.18 26.73, -46.83 27.69 M-42.47 24.86 C-43.83 25.65, -45.45 26.53, -46.83 27.69 M-46.83 27.69 C-47.1 28.23, -47.26 28.9, -47.8 30.19 M-46.83 27.69 C-47.18 28.48, -47.43 29.57, -47.8 30.19 M-47.8 30.19 C-47.05 45.48, -45.53 61.78, -47.8 78.48 M-47.8 30.19 C-48.05 45.49, -48.26 60.56, -47.8 78.48 M-47.8 78.48 C-47.54 79.36, -47.96 81.12, -47.8 83.46 M-47.8 78.48 C-47.81 80.65, -47.67 82.33, -47.8 83.46 M-47.8 83.46 C-47.78 84.32, -46.97 84.99, -46.83 86.16 M-47.8 83.46 C-47.39 84.4, -47.16 85.37, -46.83 86.16 M-46.83 86.16 C-45.55 87.02, -44.92 87.67, -43.99 88.99 M-46.83 86.16 C-45.91 87.16, -44.92 87.87, -43.99 88.99 M-43.99 88.99 C-37.75 93.6, -36.1 95.64, -25.04 99.85 M-43.99 88.99 C-38.56 93.22, -31.11 95.6, -25.04 99.85 M-25.04 99.85 C-16 104.79, -7.12 110.89, -3.75 112.46 M-25.04 99.85 C-20.45 103.8, -14.13 105.72, -3.75 112.46 M-3.75 112.46 C-2.96 113.16, -1.9 113.56, 0.79 115.15 M-3.75 112.46 C-2.79 112.97, -1.1 113.83, 0.79 115.15 M0.79 115.15 C2.19 114.89, 2.78 115.16, 4.16 114.73 M0.79 115.15 C1.53 115.14, 2.57 114.93, 4.16 114.73 M4.16 114.73 C5.18 113.91, 7.26 113.19, 9.55 112.2 M4.16 114.73 C6.54 113.54, 8.47 112.91, 9.55 112.2 M9.55 112.2 C19.32 105.87, 29.56 98.31, 47.42 90.15 M9.55 112.2 C22.38 105.09, 34.43 98.04, 47.42 90.15 M47.42 90.15 C48.83 88.88, 50.21 89.12, 52.3 86.78 M47.42 90.15 C49.05 88.97, 50.12 87.99, 52.3 86.78 M52.3 86.78 C52.6 85.97, 53.08 85.18, 53.4 84.6 M52.3 86.78 C52.83 86.05, 53.05 85.15, 53.4 84.6 M53.4 84.6 C53.13 67.38, 52.41 47.44, 53.4 30.65 M53.4 84.6 C52.84 69.85, 53.04 55.04, 53.4 30.65 M53.4 30.65 C53.09 29.94, 52.3 28.72, 51.88 27.36 M53.4 30.65 C52.72 29.21, 52.19 28.19, 51.88 27.36 M51.88 27.36 C50.23 26.52, 48.91 25.77, 48.18 24.59 M51.88 27.36 C50.54 26.34, 49.64 25.84, 48.18 24.59 M48.18 24.59 C41.41 18.65, 33.53 14.48, 12.91 3.88 M48.18 24.59 C36.8 19.08, 26.62 11.92, 12.91 3.88 M12.91 3.88 C10.99 2.9, 10.08 2.31, 6.43 0.01 M12.91 3.88 C11.68 3.34, 10.33 1.91, 6.43 0.01 M6.43 0.01 C5.23 -0.15, 3.79 -0.5, 2.81 -0.75 M6.43 0.01 C5.56 -0.21, 4.98 -0.13, 2.81 -0.75 M2.81 -0.75 C1.9 -0.6, 0.78 -0.36, 0 0 M2.81 -0.75 C2.13 -0.57, 1.35 -0.42, 0 0 M0 0 C0 0, 0 0, 0 0 M0 0 C0 0, 0 0, 0 0" stroke="#000000" stroke-width="4" fill="none"></path></g></g><mask></mask><g stroke-linecap="round" transform="translate(312.18154787233607 219.05915780269206) rotate(0 37.6488194162871 21.79413415315051)"><path d="M39.53 0.27 L75.26 23.79 L38.92 43.75 L1.6 20.53" stroke="none" stroke-width="0" fill="#e5f2ff" fill-rule="evenodd"></path><path d="M38 0 C45.37 4.92, 52.98 11.01, 75.3 22 M38 0 C50.58 8.14, 63.16 13.77, 75.3 22 M75.3 22 C61.71 29.93, 52.88 36.77, 38 43.59 M75.3 22 C61.62 30.76, 46.77 38.97, 38 43.59 M38 43.59 C26.29 36.77, 14.65 28.73, 0 22 M38 43.59 C26.91 37.04, 16.68 31.42, 0 22 M0 22 C10.97 15.83, 22.19 10.18, 38 0 M0 22 C11.95 16.55, 22.73 10.23, 38 0" stroke="transparent" stroke-width="2" fill="none"></path></g><g stroke-linecap="round"><g transform="translate(312.5663941768303 202.76089450784147) rotate(0 18.85988346540057 7.470168533597231)" fill-rule="evenodd"><path d="M0.18 -1.81 L-0.93 37.46 L35.6 15.74 L35.74 -24.96 L29.2 -18.14 L28.76 20.75 L16.43 27.79 L15.18 -10.37 L16.43 -10.37 L1.5 -1.67" stroke="none" stroke-width="0" fill="#b8c2cc" fill-rule="evenodd"></path><path d="M0 0 C-0.91 12.84, 0.67 21.05, 0 37.97 M0 0 C0.06 12.15, 0.13 25.62, 0 37.97 M0 37.97 C14.74 31.25, 29.42 24.32, 37.45 17.02 M0 37.97 C9.41 32.95, 18.66 28.19, 37.45 17.02 M37.45 17.02 C37.86 7.66, 36.97 0.91, 37.72 -23.03 M37.45 17.02 C37.27 6.45, 37.63 -3.77, 37.72 -23.03 M37.72 -23.03 C35.72 -21.31, 32.37 -19.93, 27.81 -17.11 M37.72 -23.03 C35.61 -21.03, 33.7 -20.19, 27.81 -17.11 M27.81 -17.11 C28.33 -4.68, 26.73 3.29, 27.92 19.27 M27.81 -17.11 C27.2 -5.08, 27.24 8.33, 27.92 19.27 M27.92 19.27 C26.7 20.9, 22.26 22.14, 16.03 26.3 M27.92 19.27 C23.6 21.43, 19.46 23.93, 16.03 26.3 M16.03 26.3 C16.89 17.97, 15.02 6.19, 15.82 -8.53 M16.03 26.3 C16.39 16.38, 16.55 8, 15.82 -8.53 M15.82 -8.53 C15.49 -8.87, 15.25 -9.09, 14.61 -9.52 M15.82 -8.53 C15.34 -8.83, 14.86 -9.2, 14.61 -9.52 M14.61 -9.52 C9.67 -6.91, 3.04 -4.44, 0.97 -1.6 M14.61 -9.52 C10.46 -6.32, 5.15 -3.64, 0.97 -1.6 M0.97 -1.6 C0.57 -1.05, 0.42 -0.72, 0 0 M0.97 -1.6 C0.56 -1.01, 0.28 -0.4, 0 0" stroke="transparent" stroke-width="2" fill="none"></path></g></g><mask></mask><g stroke-linecap="round"><g transform="translate(387.7179555900352 202.8528000131042) rotate(0 -18.945556846613727 7.707522516196576)" fill-rule="evenodd"><path d="M-0.93 -0.51 L-1.85 37.17 L-39.88 14.61 L-36.32 -24.06 L-26.97 -15.64 L-27.52 20.77 L-16.68 24.46 L-14 -9.39 L-14.07 -9.58 L-2.52 -0.44" stroke="none" stroke-width="0" fill="#f4f7fa" fill-rule="evenodd"></path><path d="M0 0 C0.62 10.87, 0.75 24.26, 0 38.45 M0 0 C0.11 14.24, 0.68 28.74, 0 38.45 M0 38.45 C-11.58 32.9, -27.6 24.51, -37.89 16.54 M0 38.45 C-13.52 31.65, -28.14 23.04, -37.89 16.54 M-37.89 16.54 C-38.45 4.6, -38.7 -9.46, -37.72 -23.03 M-37.89 16.54 C-37.87 6.54, -37.91 -3.07, -37.72 -23.03 M-37.72 -23.03 C-34.85 -21.39, -32.78 -18.84, -27.81 -17.11 M-37.72 -23.03 C-33.51 -20.81, -30.2 -18.12, -27.81 -17.11 M-27.81 -17.11 C-29.29 -5.79, -27.02 6.39, -27.92 19.27 M-27.81 -17.11 C-28.31 -3.46, -28.89 8.79, -27.92 19.27 M-27.92 19.27 C-24.88 21.26, -19.6 24.17, -16.03 26.3 M-27.92 19.27 C-24.18 20.55, -21.65 23.58, -16.03 26.3 M-16.03 26.3 C-16.81 19.1, -16.62 9.73, -15.82 -8.53 M-16.03 26.3 C-15.61 17.49, -16.08 7.03, -15.82 -8.53 M-15.82 -8.53 C-15.42 -8.73, -15.18 -8.87, -14.61 -9.52 M-15.82 -8.53 C-15.55 -8.76, -15.09 -9.15, -14.61 -9.52 M-14.61 -9.52 C-10.8 -7.79, -4.1 -2.96, -0.97 -1.6 M-14.61 -9.52 C-10.95 -7.39, -7.86 -5.21, -0.97 -1.6 M-0.97 -1.6 C-0.59 -1.12, -0.09 -0.31, 0 0 M-0.97 -1.6 C-0.64 -1.21, -0.42 -0.77, 0 0" stroke="transparent" stroke-width="2" fill="none"></path></g></g><mask></mask><g stroke-linecap="round"><g transform="translate(313.5970991901827 200.89869874359383) rotate(0 36.3335224645632 20.231372628238063)"><path d="M0 0 C-0.22 0.43, -0.45 0.84, -0.73 1.09 M0 0 C-0.1 0.15, -0.26 0.46, -0.73 1.09 M-0.73 1.09 C-1.57 15.84, 0.45 28.66, -1.18 39.12 M-0.73 1.09 C-1.79 14.24, -0.88 27.32, -1.18 39.12 M-1.18 39.12 C-1.15 39.41, -1.06 39.84, -0.76 40.78 M-1.18 39.12 C-1.09 39.6, -0.95 40.09, -0.76 40.78 M-0.76 40.78 C9.08 48.65, 23.43 54.2, 35.43 61.66 M-0.76 40.78 C13.85 49.97, 28.81 57.52, 35.43 61.66 M35.43 61.66 C36.34 61.4, 37.2 61.42, 37.59 61.43 M35.43 61.66 C35.89 61.56, 36.55 61.63, 37.59 61.43 M37.59 61.43 C50.21 56.04, 58.75 49.14, 72.79 40.67 M37.59 61.43 C45.47 57.74, 52.82 52.81, 72.79 40.67 M72.79 40.67 C73.17 40.02, 73.6 39.61, 73.84 39.29 M72.79 40.67 C73.06 40.31, 73.29 39.93, 73.84 39.29 M73.84 39.29 C74.76 30.19, 72.86 17.61, 73.64 1.22 M73.84 39.29 C74.93 24, 74.5 10.7, 73.64 1.22 M73.64 1.22 C73.54 0.81, 73.06 0.34, 72.77 -0.78 M73.64 1.22 C73.33 0.59, 73.09 -0.26, 72.77 -0.78 M72.77 -0.78 C70.23 -2.05, 65.03 -5.49, 61.4 -6.96 M72.77 -0.78 C69.83 -3.05, 66.51 -4.24, 61.4 -6.96 M61.4 -6.96 C60.8 -7, 60.49 -7.23, 59.44 -7.78 M61.4 -6.96 C60.64 -7.35, 60.03 -7.6, 59.44 -7.78 M59.44 -7.78 C59.25 -7.26, 58.85 -6.88, 58.54 -6.29 M59.44 -7.78 C59.17 -7.37, 58.94 -6.95, 58.54 -6.29 M58.54 -6.29 C57.35 7.87, 59.61 20.27, 58.12 27.65 M58.54 -6.29 C58.47 3.64, 57.57 14.5, 58.12 27.65 M58.12 27.65 C54.76 26, 51.5 23.08, 46.81 21.17 M58.12 27.65 C55.26 26.69, 54.04 24.86, 46.81 21.17 M46.81 21.17 C45.08 10.41, 44.74 2.73, 45.74 -14.36 M46.81 21.17 C46.53 9.08, 46.28 -2, 45.74 -14.36 M45.74 -14.36 C44.41 -16.53, 41.54 -16.72, 36.54 -21.2 M45.74 -14.36 C43.07 -16.93, 39.58 -19.22, 36.54 -21.2 M36.54 -21.2 C34.31 -20.54, 31.96 -18.88, 26.63 -15.28 M36.54 -21.2 C32.9 -19.37, 28.46 -16.13, 26.63 -15.28 M26.63 -15.28 C24.45 -7.6, 27.16 2.89, 26.75 21.11 M26.63 -15.28 C27.27 -3.61, 27.85 9.29, 26.75 21.11 M26.75 21.11 C21.21 23.53, 19.01 25.16, 14.96 28.59 M26.75 21.11 C21.78 24.27, 17.41 27, 14.96 28.59 M14.96 28.59 C16.68 22.85, 15.62 11.95, 14.65 -6.7 M14.96 28.59 C14.55 20.36, 14.9 10.72, 14.65 -6.7 M14.65 -6.7 C14.51 -6.89, 13.99 -6.99, 13.43 -7.68 M14.65 -6.7 C14.24 -7.02, 13.78 -7.48, 13.43 -7.68 M13.43 -7.68 C9.49 -5.05, 8.21 -2.67, 0 0 M13.43 -7.68 C8.14 -4.5, 3.07 -2.15, 0 0" stroke="#000000" stroke-width="2" fill="none"></path></g></g><mask></mask><g stroke-linecap="round"><g transform="translate(16.440403212169258 339.9880969274387) rotate(0 206.83116770220863 -119.41403034967476)"><path d="M0 0 C99.97 -57.68, 198.06 -115.17, 413.66 -238.83" stroke="#000000" stroke-width="2.5" fill="none" stroke-dasharray="8 10"></path></g></g><mask></mask><g stroke-linecap="round"><g transform="translate(312.9443529126979 131.0539302577441) rotate(0 15.032066461278419 9.066962179000598)"><path d="M0 0 C8.38 5.68, 18 11.84, 30.06 18.13" stroke="#000000" stroke-width="2.5" fill="none" stroke-dasharray="8 10"></path></g></g><mask></mask><g stroke-linecap="round"><g transform="translate(158.74766510264135 220.40639751465014) rotate(0 15.032066461278419 9.066962179000598)"><path d="M0 0 C8.41 6.14, 17.17 11.47, 30.06 18.13" stroke="#000000" stroke-width="2.5" fill="none" stroke-dasharray="8 10"></path></g></g><mask></mask><g stroke-linecap="round"><g transform="translate(271.00648347159404 198.98313239204694) rotate(0 15.032066461278646 9.066962179000598)"><path d="M0 0 C8.3 6.01, 18.97 11.71, 30.06 18.13" stroke="#000000" stroke-width="2.5" fill="none" stroke-dasharray="8 10"></path></g></g><mask></mask></svg>