<svg version="1.1" xmlns="http://www.w3.org/2000/svg" viewBox="0 0 418.1216322776975 398.69084293555755" width="836.243264555395" height="797.3816858711151">
  <!-- svg-source:excalidraw -->
  
  <defs>
    <style class="style-fonts">
      @font-face {
        font-family: "Virgil";
        src: url("https://excalidraw.com/Virgil.woff2");
      }
      @font-face {
        font-family: "Cascadia";
        src: url("https://excalidraw.com/Cascadia.woff2");
      }
      @font-face {
        font-family: "Assistant";
        src: url("https://excalidraw.com/Assistant-Regular.woff2");
      }
    </style>
    
  </defs>
  <g stroke-linecap="round"><g transform="translate(95.64858102672747 80.9707144414981) rotate(0 23.838120508211887 -29.8159396717273)" fill-rule="evenodd"><path d="M0 0 L-0.29 -33.15 L47.96 -60.65 L47.73 -52.63 L47.74 -24.05 L0.62 1.02" stroke="none" stroke-width="0" fill="#e9ecef" fill-rule="evenodd"></path><path d="M0 0 C-0.11 -12.38, -0.22 -24.75, -0.29 -33.15 M0 0 C-0.08 -9.16, -0.16 -18.32, -0.29 -33.15 M-0.29 -33.15 C11.73 -40, 23.74 -46.84, 47.96 -60.65 M-0.29 -33.15 C15.9 -42.37, 32.09 -51.6, 47.96 -60.65 M47.96 -60.65 C47.89 -58.21, 47.82 -55.78, 47.73 -52.63 M47.96 -60.65 C47.91 -58.6, 47.85 -56.55, 47.73 -52.63 M47.73 -52.63 C47.74 -41.24, 47.74 -29.84, 47.74 -24.05 M47.73 -52.63 C47.74 -45.41, 47.74 -38.18, 47.74 -24.05 M47.74 -24.05 C34.01 -16.74, 20.28 -9.44, 0.62 1.02 M47.74 -24.05 C33.41 -16.42, 19.07 -8.8, 0.62 1.02 M0.62 1.02 C0.37 0.61, 0.13 0.21, 0 0 M0.62 1.02 C0.47 0.77, 0.33 0.53, 0 0" stroke="transparent" stroke-width="2" fill="none"></path></g></g><mask></mask><g stroke-linecap="round"><g transform="translate(217.94513072314635 233.93777505859657) rotate(0 40.369487227900095 -73.77871803719664)"><path d="M0 0 C25.18 -15.3, 50.37 -30.61, 80.43 -48.88 M80.43 -48.88 C80.51 -75.44, 80.6 -102, 80.74 -147.56" stroke="#000000" stroke-width="2.5" fill="none" stroke-dasharray="8 10"></path></g></g><mask></mask><g stroke-linecap="round"><g transform="translate(358.9218347404344 137.998881100385) rotate(0 -27.121882150222064 25.769528183955877)" fill-rule="evenodd"><path d="M1.95 1.52 L0.65 -19.28 L-56.71 15.57 L-55.51 69.64 L-27.61 54.94 L2.23 39.41 L-1.39 1.82" stroke="none" stroke-width="0" fill="#e9ecef" fill-rule="evenodd"></path><path d="M0 0 C1.58 -3.73, 0.33 -12.07, 0 -18.67 M0 0 C-0.62 -6.99, -0.52 -13, 0 -18.67 M0 -18.67 C-14.65 -11.14, -32.74 -0.44, -55.61 13.78 M0 -18.67 C-15.62 -8.49, -31.95 0.74, -55.61 13.78 M-55.61 13.78 C-53.84 31.61, -56.6 45.91, -54.19 70.21 M-55.61 13.78 C-56.08 30.31, -55.47 46.06, -54.19 70.21 M-54.19 70.21 C-46.85 67.33, -37.28 60.64, -26.89 53.78 M-54.19 70.21 C-44.39 65.17, -36.03 59.15, -26.89 53.78 M-26.89 53.78 C-18.75 50.06, -12.32 45.14, 1.36 38.12 M-26.89 53.78 C-17.1 49.44, -8.24 42.92, 1.36 38.12 M1.36 38.12 C1.65 29.9, -0.78 20.18, 0.32 0.9 M1.36 38.12 C0.94 23.34, 0.58 10.73, 0.32 0.9 M0.32 0.9 C0.29 0.62, 0.05 0.41, 0 0 M0.32 0.9 C0.27 0.72, 0.18 0.44, 0 0" stroke="transparent" stroke-width="2" fill="none"></path></g></g><mask></mask><g stroke-linecap="round"><g transform="translate(297.1633306407341 305.37759355580215) rotate(0 22.146117239439832 -48.00971845866965)"><path d="M0 0 C13.22 0.4, 26.45 0.8, 43.98 1.33 M43.98 1.33 C44.08 -30.86, 44.18 -63.05, 44.29 -97.35" stroke="#000000" stroke-width="2.5" fill="none" stroke-dasharray="8 10"></path></g></g><mask></mask><g stroke-linecap="round"><g transform="translate(200.90020210119133 239.11558911655604) rotate(0 -40.369487227900095 -73.77871803719664)"><path d="M0 0 C-32.16 -19.54, -64.32 -39.09, -80.43 -48.88 M-80.43 -48.88 C-80.54 -83.83, -80.65 -118.79, -80.74 -147.56" stroke="#000000" stroke-width="2.5" fill="none" stroke-dasharray="8 10"></path></g></g><mask></mask><g stroke-linecap="round"><g transform="translate(342.924987620577 189.50311664958696) rotate(0 19.628758458902325 -25.403596172238217)" fill-rule="evenodd"><path d="M1.25 0.2 L37.88 -20.94 L44.18 -29.72 L47.63 -33.37 L46.65 -39.59 L42.81 -45.39 L38.76 -45.6 L36.04 -40.91 L37.08 -46.13 L33.15 -52.36 L29.24 -51.22 L25.83 -46.3 L26.37 -45.74 L21.56 -46.6 L17.24 -45.92 L10.13 -44.59 L4.97 -36.97 L4.9 -28.86 L4.2 -22.68 L-1.28 -22.05 L-3.4 -16.25 L-6.24 -10.63 L-7.37 -7.2 L-5.37 -3.37 L0.09 0.92" stroke="none" stroke-width="0" fill="#ffffff" fill-rule="evenodd"></path><path d="M0 0 C8.85 -3.75, 21.11 -11.73, 36.73 -19.62 M0 0 C7.9 -4.32, 16.83 -9.28, 36.73 -19.62 M36.73 -19.62 C37.24 -22.19, 39.97 -22.5, 44.36 -27.99 M36.73 -19.62 C39.35 -22.12, 41.57 -25.32, 44.36 -27.99 M44.36 -27.99 C44.81 -29.68, 46.24 -32.66, 46.05 -33.71 M44.36 -27.99 C44.61 -29.31, 45.09 -31.2, 46.05 -33.71 M46.05 -33.71 C45.79 -35.34, 45.46 -36.62, 45.66 -39.71 M46.05 -33.71 C45.62 -35.93, 45.88 -38.03, 45.66 -39.71 M45.66 -39.71 C44.13 -41.4, 43.9 -43.16, 42.7 -43.8 M45.66 -39.71 C44.59 -40.88, 43.77 -42.35, 42.7 -43.8 M42.7 -43.8 C41.42 -44.17, 40.29 -44.82, 38.93 -44.89 M42.7 -43.8 C41.3 -44.08, 40.12 -44.79, 38.93 -44.89 M38.93 -44.89 C37.41 -43.8, 36.26 -43.56, 34.86 -42.68 M38.93 -44.89 C37.79 -44.48, 36.88 -43.51, 34.86 -42.68 M34.86 -42.68 C34.92 -44.5, 35.3 -45.13, 36.38 -47.63 M34.86 -42.68 C35.18 -44.52, 35.99 -46.21, 36.38 -47.63 M36.38 -47.63 C35.73 -48.08, 35.19 -49.08, 33.51 -50.81 M36.38 -47.63 C35.26 -48.82, 34.25 -49.87, 33.51 -50.81 M33.51 -50.81 C32.79 -50.54, 31.85 -50.08, 29.88 -49.82 M33.51 -50.81 C32.2 -50.56, 31.08 -50.3, 29.88 -49.82 M29.88 -49.82 C28.84 -49.09, 27.97 -48.27, 27.2 -47.93 M29.88 -49.82 C29.46 -49.4, 28.81 -49.02, 27.2 -47.93 M27.2 -47.93 C26.86 -47.04, 26.39 -46.1, 25.48 -44.36 M27.2 -47.93 C26.64 -46.45, 25.91 -45.02, 25.48 -44.36 M25.48 -44.36 C24.39 -44.72, 22.48 -46.12, 21.91 -46.29 M25.48 -44.36 C24.76 -44.68, 23.77 -45.27, 21.91 -46.29 M21.91 -46.29 C20.51 -46.82, 19.45 -46.44, 15.53 -45.66 M21.91 -46.29 C20.2 -45.76, 17.88 -45.82, 15.53 -45.66 M15.53 -45.66 C14.37 -44.9, 12.5 -44.29, 9.57 -42.71 M15.53 -45.66 C13.55 -44.66, 11.27 -43.11, 9.57 -42.71 M9.57 -42.71 C8.17 -41.06, 6.99 -39.32, 5.37 -37.26 M9.57 -42.71 C8.31 -41.05, 7.2 -40.11, 5.37 -37.26 M5.37 -37.26 C4.81 -35.41, 3.44 -31.76, 3.37 -30.43 M5.37 -37.26 C4.75 -35.82, 4.44 -33.93, 3.37 -30.43 M3.37 -30.43 C4.22 -28.7, 3.6 -25.33, 4.56 -23.43 M3.37 -30.43 C4.04 -27.86, 4.18 -25.85, 4.56 -23.43 M4.56 -23.43 C2.96 -22.64, 0.85 -22.03, -0.39 -21.92 M4.56 -23.43 C3.02 -23, 1.63 -22.43, -0.39 -21.92 M-0.39 -21.92 C-1.3 -20.71, -2.3 -19.83, -3.72 -18.04 M-0.39 -21.92 C-1.05 -21.1, -2.23 -19.77, -3.72 -18.04 M-3.72 -18.04 C-4.27 -16.81, -5.14 -14.82, -6.41 -12.62 M-3.72 -18.04 C-4.17 -16.61, -5.04 -15.04, -6.41 -12.62 M-6.41 -12.62 C-6.24 -10.17, -7.11 -6.9, -6.79 -5.39 M-6.41 -12.62 C-6.89 -10.21, -6.76 -6.95, -6.79 -5.39 M-6.79 -5.39 C-6.11 -4.34, -6.11 -3.31, -5.32 -1.43 M-6.79 -5.39 C-6.45 -4.42, -5.94 -3.62, -5.32 -1.43 M-5.32 -1.43 C-4.38 -1.39, -3.08 -1.03, 0 0 M-5.32 -1.43 C-3.06 -1.07, -1.43 -0.32, 0 0 M0 0 C0 0, 0 0, 0 0 M0 0 C0 0, 0 0, 0 0" stroke="#000000" stroke-width="2" fill="none"></path></g></g><mask></mask><g stroke-linecap="round"><g transform="translate(358.1531342038654 137.7212535539193) rotate(0 -27.80287125986615 25.76952818395587)"><path d="M0 0 C1.5 -6.58, -1.29 -12.32, 0 -18.67 M0 0 C0.16 -7.27, -0.67 -13.43, 0 -18.67 M0 -18.67 C-15.5 -8.89, -30.62 -2.69, -55.61 13.78 M0 -18.67 C-19.94 -7.67, -39.58 4.41, -55.61 13.78 M-55.61 13.78 C-53.52 28.08, -55.77 43.87, -54.19 70.21 M-55.61 13.78 C-56.32 24.71, -56.3 38.03, -54.19 70.21 M-54.19 70.21 C-45.02 62.95, -32.64 58.38, -26.89 53.78 M-54.19 70.21 C-46.64 65.39, -39.27 62.72, -26.89 53.78" stroke="#000000" stroke-width="2" fill="none"></path></g></g><mask></mask><g stroke-linecap="round"><g transform="translate(315.99236201857116 153.82201948452297) rotate(0 0 11.20414194536501)"><path d="M0 0 C-0.65 7.49, 0.93 16.11, 0 22.41 M0 0 C-0.41 8.16, -0.12 14.86, 0 22.41" stroke="#000000" stroke-width="2" fill="none"></path></g></g><mask></mask><g stroke-linecap="round"><g transform="translate(327.3790818759744 147.04973661122105) rotate(0 0 11.20414194536501)"><path d="M0 0 C0.76 4.69, 0.34 10.59, 0 22.41 M0 0 C-0.22 6.02, -0.44 12.99, 0 22.41" stroke="#000000" stroke-width="2" fill="none"></path></g></g><mask></mask><g stroke-linecap="round"><g transform="translate(347.8640005995155 231.91245283897572) rotate(0 28.988755307173278 13.706956354875501)" fill-rule="evenodd"><path d="M-0.11 -1.26 L-2.62 3.79 L-2.56 58.37 L0.69 62.04 L56.57 26.42 L59.38 23.75 L61.84 -32.12 L58.98 -33.14 L55.63 -34.1 L-0.58 -0.36" stroke="none" stroke-width="0" fill="#e9ecef" fill-rule="evenodd"></path><path d="M0 0 C-0.92 0.9, -1.2 1.86, -2.03 2.81 M0 0 C-0.51 0.68, -1.14 1.52, -2.03 2.81 M-2.03 2.81 C-2 18.43, -2.45 34.95, -0.85 58.46 M-2.03 2.81 C-1.68 15.57, -0.39 29.61, -0.85 58.46 M-0.85 58.46 C0.36 59.29, 1.15 60.34, 1.69 60.72 M-0.85 58.46 C-0.04 59.16, 0.59 59.67, 1.69 60.72 M1.69 60.72 C15.76 52.98, 33.8 44.28, 58.49 27.41 M1.69 60.72 C19 51.9, 34.46 42.06, 58.49 27.41 M58.49 27.41 C58.82 26.69, 58.87 26.66, 59.91 25.29 M58.49 27.41 C58.73 26.86, 59.15 26.57, 59.91 25.29 M59.91 25.29 C58.46 6.51, 58.37 -11.19, 60.01 -30.67 M59.91 25.29 C59.5 3.31, 60.77 -18.72, 60.01 -30.67 M60.01 -30.67 C59.63 -31.42, 59.37 -31.79, 59.15 -32.37 M60.01 -30.67 C59.82 -31.22, 59.48 -31.72, 59.15 -32.37 M59.15 -32.37 C57.95 -32.52, 56.94 -33.09, 56.15 -33.3 M59.15 -32.37 C58.28 -32.66, 57.32 -33.05, 56.15 -33.3 M56.15 -33.3 C41.39 -25.18, 24.76 -16.04, 0 0 M56.15 -33.3 C35.81 -20.43, 14.47 -8.8, 0 0 M0 0 C0 0, 0 0, 0 0 M0 0 C0 0, 0 0, 0 0" stroke="#000000" stroke-width="2" fill="none"></path></g></g><mask></mask><g stroke-linecap="round"><g transform="translate(346.1869152897216 252.38103774478347) rotate(0 30.56333055568973 -17.40337488799055)"><path d="M0 0 C12.67 -5.97, 25.04 -15.59, 61.13 -34.81 M0 0 C12.25 -6.93, 24.28 -12.66, 61.13 -34.81" stroke="#000000" stroke-width="2" fill="none"></path></g></g><mask></mask><g stroke-linecap="round"><g transform="translate(346.6166250989652 271.47103126874225) rotate(0 30.56333055568973 -17.403374887990566)"><path d="M0 0 C19.66 -12.95, 37.96 -22.22, 61.13 -34.81 M0 0 C14.64 -7.28, 29.42 -17.06, 61.13 -34.81" stroke="#000000" stroke-width="2" fill="none"></path></g></g><mask></mask><g stroke-linecap="round"><g transform="translate(388.33302432792243 215.66298541760156) rotate(0 -1.826522444396801 3.095108712972376)" fill-rule="evenodd"><path d="M0.28 0.59 L-3.29 1.9 L-3.82 6.04 L0.56 3.9 L0.33 0.06" stroke="none" stroke-width="0" fill="#ffffff" fill-rule="evenodd"></path><path d="M0 0 C-1.43 0.84, -2.66 1.58, -3.53 2.14 M0 0 C-0.96 0.56, -1.92 1.11, -3.53 2.14 M-3.53 2.14 C-3.64 3.25, -3.64 4.54, -3.65 6.19 M-3.53 2.14 C-3.55 3.7, -3.62 5.17, -3.65 6.19 M-3.65 6.19 C-2.43 5.62, -1.29 4.91, -0.09 4.22 M-3.65 6.19 C-2.73 5.64, -1.76 5.22, -0.09 4.22 M-0.09 4.22 C-0.1 2.77, 0.06 1.09, 0 0 M-0.09 4.22 C-0.06 2.84, -0.09 1.37, 0 0 M0 0 C0 0, 0 0, 0 0 M0 0 C0 0, 0 0, 0 0" stroke="#000000" stroke-width="2" fill="none"></path></g></g><mask></mask><g stroke-linecap="round"><g transform="translate(397.2454553693392 210.50555647144722) rotate(0 -1.826522444396801 3.095108712972376)" fill-rule="evenodd"><path d="M0.23 -0.23 L-3.7 1.99 L-3 5.87 L0.24 4.28 L-0.39 -0.27" stroke="none" stroke-width="0" fill="#fcc2d7" fill-rule="evenodd"></path><path d="M0 0 C-0.94 0.54, -1.75 1.02, -3.53 2.14 M0 0 C-1.41 0.78, -2.79 1.63, -3.53 2.14 M-3.53 2.14 C-3.62 3.71, -3.52 5.22, -3.65 6.19 M-3.53 2.14 C-3.58 3.59, -3.6 5.05, -3.65 6.19 M-3.65 6.19 C-2.54 5.59, -1.59 4.97, -0.09 4.22 M-3.65 6.19 C-2.75 5.77, -1.88 5.24, -0.09 4.22 M-0.09 4.22 C0.01 3.26, -0.01 2.22, 0 0 M-0.09 4.22 C-0.12 2.55, 0.03 0.96, 0 0 M0 0 C0 0, 0 0, 0 0 M0 0 C0 0, 0 0, 0 0" stroke="#000000" stroke-width="2" fill="none"></path></g></g><mask></mask><g stroke-linecap="round"><g transform="translate(388.7925710120844 236.24947191600833) rotate(0 -1.826522444396801 3.095108712972376)" fill-rule="evenodd"><path d="M-0.17 -0.15 L-2.87 1.81 L-3.32 6.25 L-0.48 3.96 L-0.52 -0.11" stroke="none" stroke-width="0" fill="#b2f2bb" fill-rule="evenodd"></path><path d="M0 0 C-1.26 0.73, -2.31 1.47, -3.53 2.14 M0 0 C-0.92 0.5, -1.78 1.06, -3.53 2.14 M-3.53 2.14 C-3.46 3.37, -3.52 4.36, -3.65 6.19 M-3.53 2.14 C-3.56 3.55, -3.62 5.03, -3.65 6.19 M-3.65 6.19 C-2.45 5.45, -1.22 4.8, -0.09 4.22 M-3.65 6.19 C-2.78 5.72, -2.06 5.25, -0.09 4.22 M-0.09 4.22 C-0.03 2.53, 0.08 1.04, 0 0 M-0.09 4.22 C0 2.86, -0.05 1.6, 0 0 M0 0 C0 0, 0 0, 0 0 M0 0 C0 0, 0 0, 0 0" stroke="#000000" stroke-width="2" fill="none"></path></g></g><mask></mask><g stroke-linecap="round"><g transform="translate(397.70500205350004 231.0920429698539) rotate(0 -1.826522444396801 3.095108712972376)" fill-rule="evenodd"><path d="M0.66 -0.32 L-3.2 2.2 L-4.04 5.92 L-0.62 4.11 L0.26 0.06" stroke="none" stroke-width="0" fill="#ffffff" fill-rule="evenodd"></path><path d="M0 0 C-0.98 0.66, -2.28 1.3, -3.53 2.14 M0 0 C-0.73 0.42, -1.56 0.91, -3.53 2.14 M-3.53 2.14 C-3.48 3.67, -3.54 5.14, -3.65 6.19 M-3.53 2.14 C-3.56 3.33, -3.56 4.48, -3.65 6.19 M-3.65 6.19 C-2.67 5.6, -1.63 5.1, -0.09 4.22 M-3.65 6.19 C-2.38 5.44, -0.96 4.77, -0.09 4.22 M-0.09 4.22 C0.04 2.98, -0.03 1.64, 0 0 M-0.09 4.22 C-0.11 3.35, -0.12 2.47, 0 0 M0 0 C0 0, 0 0, 0 0 M0 0 C0 0, 0 0, 0 0" stroke="#000000" stroke-width="2" fill="none"></path></g></g><mask></mask><g stroke-linecap="round"><g transform="translate(388.6684679357995 255.48544684661854) rotate(0 -1.826522444396801 3.095108712972376)" fill-rule="evenodd"><path d="M0.33 0.06 L-3.92 1.87 L-4.18 6.08 L0.17 4.28 L0.07 0.06" stroke="none" stroke-width="0" fill="#b2f2bb" fill-rule="evenodd"></path><path d="M0 0 C-1.08 0.58, -2.16 1.22, -3.53 2.14 M0 0 C-0.84 0.48, -1.6 1.05, -3.53 2.14 M-3.53 2.14 C-3.5 3.73, -3.64 5.41, -3.65 6.19 M-3.53 2.14 C-3.53 3.32, -3.6 4.42, -3.65 6.19 M-3.65 6.19 C-2.79 5.74, -1.64 5.23, -0.09 4.22 M-3.65 6.19 C-2.58 5.67, -1.61 5.08, -0.09 4.22 M-0.09 4.22 C-0.07 3.14, -0.2 2.43, 0 0 M-0.09 4.22 C-0.12 3.25, -0.03 2.41, 0 0 M0 0 C0 0, 0 0, 0 0 M0 0 C0 0, 0 0, 0 0" stroke="#000000" stroke-width="2" fill="none"></path></g></g><mask></mask><g stroke-linecap="round"><g transform="translate(397.5808989772145 250.32801790046423) rotate(0 -1.826522444396801 3.095108712972376)" fill-rule="evenodd"><path d="M-0.39 -0.27 L-4.05 2.02 L-3.39 6.25 L-0.02 4.28 L0.56 -0.18" stroke="none" stroke-width="0" fill="#ffc9c9" fill-rule="evenodd"></path><path d="M0 0 C-1.14 0.6, -2.15 1.33, -3.53 2.14 M0 0 C-0.83 0.58, -1.68 1.1, -3.53 2.14 M-3.53 2.14 C-3.58 3.45, -3.62 4.69, -3.65 6.19 M-3.53 2.14 C-3.57 3.53, -3.63 4.94, -3.65 6.19 M-3.65 6.19 C-2.51 5.7, -1.58 4.93, -0.09 4.22 M-3.65 6.19 C-2.71 5.68, -1.8 5.18, -0.09 4.22 M-0.09 4.22 C-0.2 3.11, -0.15 1.73, 0 0 M-0.09 4.22 C-0.04 3.1, -0.01 1.92, 0 0 M0 0 C0 0, 0 0, 0 0 M0 0 C0 0, 0 0, 0 0" stroke="#000000" stroke-width="2" fill="none"></path></g></g><mask></mask><g stroke-linecap="round"><g transform="translate(202.62094647728145 150.8861756867479) rotate(0 4.488955675639886 91.74482401994636)" fill-rule="evenodd"><path d="M-0.36 0.75 L-8.75 4.14 L-67.8 41.66 L-74.94 46.41 L-77.25 46.61 L-76.73 123.94 L-76.58 134.78 L-75.13 139.57 L-69.75 141.83 L-41.96 158.54 L-4.59 182.35 L0.11 183.35 L7.77 185.01 L13.82 180.94 L76.41 144.34 L84.04 138.44 L84.68 135.63 L84.68 49.67 L81.59 43.4 L78.07 38.47 L19.61 4.71 L9.73 -1.81 L3.02 -0.13 L-0.82 0.47" stroke="none" stroke-width="0" fill="#00bc8e" fill-rule="evenodd"></path><path d="M0 0 C-3.08 1.65, -5.79 3.36, -7.86 4.27 M0 0 C-3.1 1.99, -6.27 3.38, -7.86 4.27 M-7.86 4.27 C-24.88 16.84, -44.21 26.04, -68.12 39.87 M-7.86 4.27 C-31.12 16.42, -54.83 31.35, -68.12 39.87 M-68.12 39.87 C-69.88 41.65, -73.58 42.94, -75.11 44.42 M-68.12 39.87 C-70.49 41.47, -73.62 43.24, -75.11 44.42 M-75.11 44.42 C-75.95 45.92, -75.77 47.03, -76.67 48.42 M-75.11 44.42 C-75.86 45.82, -76.14 47.62, -76.67 48.42 M-76.67 48.42 C-77.84 75.39, -77.94 98.61, -76.67 125.87 M-76.67 48.42 C-75.97 66.41, -76.79 85.17, -76.67 125.87 M-76.67 125.87 C-76.9 127.25, -76.62 129.25, -76.67 133.86 M-76.67 125.87 C-76.67 128.1, -76.46 129.71, -76.67 133.86 M-76.67 133.86 C-76.25 135, -75.84 137.07, -75.11 138.19 M-76.67 133.86 C-76.16 134.99, -75.61 136.08, -75.11 138.19 M-75.11 138.19 C-73.46 140.21, -71.95 141.18, -70.56 142.74 M-75.11 138.19 C-73.45 139.93, -71.74 141.88, -70.56 142.74 M-70.56 142.74 C-57.79 149.67, -45.67 157.52, -40.16 160.16 M-70.56 142.74 C-57.71 148.46, -47.46 155.47, -40.16 160.16 M-40.16 160.16 C-29.16 164.53, -20.94 169.72, -6.02 180.38 M-40.16 160.16 C-33.65 164.88, -25.68 169.16, -6.02 180.38 M-6.02 180.38 C-2.33 181.41, -0.07 183, 1.27 184.7 M-6.02 180.38 C-3.96 181.18, -1.99 183, 1.27 184.7 M1.27 184.7 C2.2 184.83, 4.09 184.16, 6.67 184.02 M1.27 184.7 C2.75 184.41, 4.26 184.28, 6.67 184.02 M6.67 184.02 C10.24 182.25, 11.7 181.88, 15.31 179.97 M6.67 184.02 C8.89 182.44, 12.3 181.33, 15.31 179.97 M15.31 179.97 C33.27 169.21, 53.67 158.24, 76.06 144.6 M15.31 179.97 C32.96 167.89, 53.25 158.1, 76.06 144.6 M76.06 144.6 C78.72 143.23, 79.89 142.21, 83.89 139.2 M76.06 144.6 C78.47 142.89, 80.72 141.47, 83.89 139.2 M83.89 139.2 C84.28 138.1, 84.93 137.46, 85.65 135.69 M83.89 139.2 C84.38 138.26, 84.77 137.2, 85.65 135.69 M85.65 135.69 C85.39 110.06, 88.08 87.29, 85.65 49.16 M85.65 135.69 C85.56 108.74, 85.87 80.18, 85.65 49.16 M85.65 49.16 C85.32 48.31, 85.18 47.45, 83.22 43.89 M85.65 49.16 C84.56 46.89, 83.82 45.22, 83.22 43.89 M83.22 43.89 C81.25 42.97, 81.1 41.89, 77.28 39.44 M83.22 43.89 C81.18 42.31, 79.14 40.69, 77.28 39.44 M77.28 39.44 C61.88 31.85, 45.01 19.03, 20.71 6.23 M77.28 39.44 C54.73 26.22, 32.91 14.26, 20.71 6.23 M20.71 6.23 C17.33 4.27, 15.73 3.87, 10.32 0.02 M20.71 6.23 C17.34 4.35, 13.03 2.6, 10.32 0.02 M10.32 0.02 C8.01 -0.72, 7.1 -0.35, 4.5 -1.21 M10.32 0.02 C8.48 -0.66, 6.94 -0.73, 4.5 -1.21 M4.5 -1.21 C2.56 -0.82, 1.19 -0.08, 0 0 M4.5 -1.21 C2.72 -0.89, 0.93 -0.4, 0 0 M0 0 C0 0, 0 0, 0 0 M0 0 C0 0, 0 0, 0 0" stroke="#000000" stroke-width="4" fill="none"></path></g></g><mask></mask><g stroke-linecap="round" transform="translate(146.2099015562003 238.7613231570005) rotate(0 60.388073474944235 34.95742482681641)"><path d="M59.64 -1.27 L121.68 33.64 L59.05 68.59 L0.7 34.58" stroke="none" stroke-width="0" fill="#e5f2ff" fill-rule="evenodd"></path><path d="M61 0 C71.55 8.48, 86.94 14.85, 120.78 35 M61 0 C73.45 7.7, 87.71 15.13, 120.78 35 M120.78 35 C105.66 44.8, 88.52 53.47, 61 69.91 M120.78 35 C105.73 43.14, 93.01 49.86, 61 69.91 M61 69.91 C42.82 61.2, 30.56 52.39, 0 35 M61 69.91 C45.89 60.93, 31.67 52.96, 0 35 M0 35 C18.37 25.08, 34.73 17.67, 61 0 M0 35 C15.48 27.51, 29.62 18.93, 61 0" stroke="transparent" stroke-width="2" fill="none"></path></g><g stroke-linecap="round"><g transform="translate(146.82718855942312 212.61918280245737) rotate(0 30.250936047805794 11.982024755919255)" fill-rule="evenodd"><path d="M-1.53 0.2 L-1.85 60.3 L61.55 27.56 L60.8 -38.59 L44.89 -26 L43.06 32.18 L27.26 41.36 L26.54 -11.79 L22.68 -16.16 L-0.09 -3.36" stroke="none" stroke-width="0" fill="#b8c2cc" fill-rule="evenodd"></path><path d="M0 0 C1.09 21.34, -2.01 40.64, 0 60.91 M0 0 C-0.31 24.34, -0.61 49.44, 0 60.91 M0 60.91 C23.61 46.69, 43.04 35.92, 60.08 27.29 M0 60.91 C13.05 52.7, 24.8 47.41, 60.08 27.29 M60.08 27.29 C62.65 6.23, 59.8 -14.29, 60.5 -36.94 M60.08 27.29 C60.62 10.32, 60.05 -7.56, 60.5 -36.94 M60.5 -36.94 C56.89 -32.23, 48.66 -31.96, 44.6 -27.45 M60.5 -36.94 C57.29 -34.61, 52.71 -33.15, 44.6 -27.45 M44.6 -27.45 C42.94 -6.6, 43.91 13.68, 44.79 30.92 M44.6 -27.45 C43.69 -10.36, 43.9 6, 44.79 30.92 M44.79 30.92 C38.83 33.86, 36.81 36.36, 25.71 42.18 M44.79 30.92 C38.03 34.67, 29.26 39.36, 25.71 42.18 M25.71 42.18 C25.43 31.2, 25.01 18.71, 25.38 -13.69 M25.71 42.18 C25.8 27.01, 26.06 12.37, 25.38 -13.69 M25.38 -13.69 C24.86 -14.37, 24.01 -14.86, 23.43 -15.27 M25.38 -13.69 C24.88 -14.15, 24.2 -14.61, 23.43 -15.27 M23.43 -15.27 C18.53 -9.44, 10.99 -5.68, 1.56 -2.57 M23.43 -15.27 C18.7 -13.75, 14.69 -9.55, 1.56 -2.57 M1.56 -2.57 C0.96 -2.1, 0.78 -1.68, 0 0 M1.56 -2.57 C1.2 -1.61, 0.64 -0.81, 0 0" stroke="transparent" stroke-width="2" fill="none"></path></g></g><mask></mask><g stroke-linecap="round"><g transform="translate(267.36902978417424 212.7665976879863) rotate(0 -30.388354711119973 12.362736554137797)" fill-rule="evenodd"><path d="M-1.85 -0.61 L1.48 61.94 L-60.48 24.89 L-60.21 -35.5 L-46.32 -26.19 L-43.23 30.1 L-24.55 44.08 L-26.13 -14.58 L-25.07 -16.05 L-0.83 -3.59" stroke="none" stroke-width="0" fill="#f4f7fa" fill-rule="evenodd"></path><path d="M0 0 C-1.06 22.51, 2.44 44.79, 0 61.67 M0 0 C-0.05 22.43, 0.81 43.73, 0 61.67 M0 61.67 C-17.99 51.41, -34.94 40.13, -60.78 26.53 M0 61.67 C-21.82 49.46, -42.42 35.45, -60.78 26.53 M-60.78 26.53 C-62.45 8.47, -61.87 -13.18, -60.5 -36.94 M-60.78 26.53 C-61.26 9.04, -60.47 -6.1, -60.5 -36.94 M-60.5 -36.94 C-57.06 -35.81, -52.73 -30.35, -44.6 -27.45 M-60.5 -36.94 C-55.71 -34.33, -49.28 -31.16, -44.6 -27.45 M-44.6 -27.45 C-45.45 -14.77, -45.28 -4.58, -44.79 30.92 M-44.6 -27.45 C-45.67 -7.04, -45.7 14.03, -44.79 30.92 M-44.79 30.92 C-38.3 33.89, -32.89 37.97, -25.71 42.18 M-44.79 30.92 C-39.72 34.34, -33.66 37.58, -25.71 42.18 M-25.71 42.18 C-26.3 23.87, -26.01 6.22, -25.38 -13.69 M-25.71 42.18 C-25.01 29.85, -25.27 17.26, -25.38 -13.69 M-25.38 -13.69 C-24.83 -14.11, -24.34 -14.51, -23.43 -15.27 M-25.38 -13.69 C-24.59 -14.25, -23.85 -14.85, -23.43 -15.27 M-23.43 -15.27 C-14.19 -9.3, -9.26 -8.07, -1.56 -2.57 M-23.43 -15.27 C-18.24 -11.58, -14.42 -9.58, -1.56 -2.57 M-1.56 -2.57 C-1.32 -2.34, -0.9 -1.71, 0 0 M-1.56 -2.57 C-0.99 -1.69, -0.72 -1.04, 0 0" stroke="transparent" stroke-width="2" fill="none"></path></g></g><mask></mask><g stroke-linecap="round"><g transform="translate(148.4804220749054 209.63225209972512) rotate(0 58.278359274245645 32.450781610551246)"><path d="M0 0 C-0.2 0.42, -0.7 1.2, -1.17 1.74 M0 0 C-0.29 0.64, -0.76 1.18, -1.17 1.74 M-1.17 1.74 C-3.58 12.22, -0.84 27.27, -1.89 62.74 M-1.17 1.74 C-1.18 13.27, -1.58 27.64, -1.89 62.74 M-1.89 62.74 C-1.77 63.58, -1.56 64.58, -1.21 65.4 M-1.89 62.74 C-1.63 63.69, -1.5 64.51, -1.21 65.4 M-1.21 65.4 C19.3 80.08, 43.69 92.18, 56.83 98.9 M-1.21 65.4 C17.14 75.55, 33.84 86.03, 56.83 98.9 M56.83 98.9 C57.95 98.62, 59.35 98.38, 60.3 98.53 M56.83 98.9 C57.85 98.8, 59 98.56, 60.3 98.53 M60.3 98.53 C79.33 89.16, 95.51 78.77, 116.75 65.24 M60.3 98.53 C73.37 90.12, 88.2 82.35, 116.75 65.24 M116.75 65.24 C117.26 64.68, 117.73 63.86, 118.44 63.03 M116.75 65.24 C117.29 64.6, 117.61 64.12, 118.44 63.03 M118.44 63.03 C118.51 47.06, 119.95 33.04, 118.11 1.96 M118.44 63.03 C118.23 44.65, 118.65 26.05, 118.11 1.96 M118.11 1.96 C117.22 0.41, 116.74 -0.55, 116.72 -1.25 M118.11 1.96 C117.69 1.28, 117.35 0.5, 116.72 -1.25 M116.72 -1.25 C112.32 -5.19, 107.13 -4.64, 98.49 -11.16 M116.72 -1.25 C108.66 -4.92, 101.25 -9.27, 98.49 -11.16 M98.49 -11.16 C97.03 -11.6, 96.38 -12.44, 95.34 -12.48 M98.49 -11.16 C97.44 -11.49, 96.13 -12.21, 95.34 -12.48 M95.34 -12.48 C94.88 -11.73, 94.61 -11.35, 93.9 -10.09 M95.34 -12.48 C94.92 -12.01, 94.72 -11.34, 93.9 -10.09 M93.9 -10.09 C92.37 6, 92.6 18.6, 93.23 44.35 M93.9 -10.09 C93.62 5.62, 93.55 21.69, 93.23 44.35 M93.23 44.35 C84.41 41.66, 79.47 35.23, 75.09 33.95 M93.23 44.35 C87.4 40.81, 81.95 37.53, 75.09 33.95 M75.09 33.95 C73.59 17.55, 73.41 -2.5, 73.36 -23.04 M75.09 33.95 C74.16 14.4, 74.1 -6.44, 73.36 -23.04 M73.36 -23.04 C68.57 -27.31, 62.68 -30.63, 58.62 -34 M73.36 -23.04 C69.74 -24.63, 67.51 -27.46, 58.62 -34 M58.62 -34 C56.49 -33.3, 51.33 -31.99, 42.72 -24.5 M58.62 -34 C55.66 -31.17, 52.64 -29.03, 42.72 -24.5 M42.72 -24.5 C41.65 -4.37, 44.66 12.19, 42.9 33.86 M42.72 -24.5 C42.39 -1.14, 42.22 21.7, 42.9 33.86 M42.9 33.86 C35.76 37.43, 28.5 41.74, 23.99 45.86 M42.9 33.86 C37.21 38.02, 28.9 43.16, 23.99 45.86 M23.99 45.86 C23.79 24.8, 25.42 3.92, 23.5 -10.75 M23.99 45.86 C22.88 31.64, 23.66 17.82, 23.5 -10.75 M23.5 -10.75 C22.9 -11.47, 22.39 -11.77, 21.54 -12.32 M23.5 -10.75 C22.73 -11.19, 22.23 -11.82, 21.54 -12.32 M21.54 -12.32 C12.03 -6.35, 6.39 -2.53, 0 0 M21.54 -12.32 C14.87 -9.08, 8.96 -4.07, 0 0" stroke="#000000" stroke-width="2" fill="none"></path></g></g><mask></mask><g stroke-linecap="round"><g transform="translate(271.67274039781705 327.87321512574607) rotate(0 51.5802846688141 10.040700296472778)"><path d="M0 0 C21.02 12.14, 42.04 24.27, 102.85 59.38 M102.85 59.38 C102.91 39.18, 102.98 18.97, 103.16 -39.3" stroke="#000000" stroke-width="2.5" fill="none" stroke-dasharray="8 10"></path></g></g><mask></mask><g stroke-linecap="round"><g transform="translate(121.347482648413 304.3697769063048) rotate(0 -22.146117239439832 -48.00971845866965)"><path d="M0 0 C-9.1 0.28, -18.2 0.55, -43.98 1.33 M-43.98 1.33 C-44.1 -36.67, -44.22 -74.68, -44.29 -97.35" stroke="#000000" stroke-width="2.5" fill="none" stroke-dasharray="8 10"></path></g></g><mask></mask><g stroke-linecap="round"><g transform="translate(147.79058058301598 328.1398303417984) rotate(0 -52.59338371974377 11.21052631601313)"><path d="M0 0 C-35.41 18.61, -67.52 37.42, -104.88 60.55 M-104.88 60.55 C-104.04 39.92, -105.67 19.72, -105.19 -38.13" stroke="#000000" stroke-width="2.5" fill="none" stroke-dasharray="8 10"></path></g></g><mask></mask><g stroke-linecap="round"><g transform="translate(95.85451825408904 134.6771813275098) rotate(0 -18.365730754954143 35.67518521388956)" fill-rule="evenodd"><path d="M1.71 -0.78 L-38.33 20.58 L-40 26.14 L-43.67 33.52 L-43.66 68.68 L-40.7 70.01 L-36.97 72.09 L2.01 48.48 L5.45 45.88 L4.56 40.54 L7.27 2.14 L3.7 -1.32 L0.24 -0.63" stroke="none" stroke-width="0" fill="#e9ecef" fill-rule="evenodd"></path><path d="M0 0 C-14.16 6.35, -28.4 17.69, -36.87 21.74 M0 0 C-10.02 5.21, -17.82 11.11, -36.87 21.74 M-36.87 21.74 C-37.68 22.61, -38.92 24.18, -41.02 26.03 M-36.87 21.74 C-38.06 23.12, -39.28 24.12, -41.02 26.03 M-41.02 26.03 C-41.76 28.5, -42.59 29.55, -43.27 31.55 M-41.02 26.03 C-41.62 27.36, -42.02 28.71, -43.27 31.55 M-43.27 31.55 C-41.54 38.92, -43.54 48.42, -43.27 66.78 M-43.27 31.55 C-43.59 40.34, -42.5 50.81, -43.27 66.78 M-43.27 66.78 C-42.99 68.01, -42.64 68.95, -41.64 70.81 M-43.27 66.78 C-43.18 67.74, -42.81 68.64, -41.64 70.81 M-41.64 70.81 C-40.16 71.22, -37.85 71.67, -36.73 71.76 M-41.64 70.81 C-40.24 70.96, -38.58 71.29, -36.73 71.76 M-36.73 71.76 C-22.93 63.39, -14.25 56.3, 1.84 50.29 M-36.73 71.76 C-27.63 65.62, -16.26 60.15, 1.84 50.29 M1.84 50.29 C2.33 47.82, 4.26 46.35, 5.52 44.43 M1.84 50.29 C2.86 48.18, 4.03 46.31, 5.52 44.43 M5.52 44.43 C5.64 42.38, 6.13 40.29, 6.47 38.64 M5.52 44.43 C5.8 42.52, 6.19 40.2, 6.47 38.64 M6.47 38.64 C4.41 27.51, 5.63 15.75, 6.54 2.45 M6.47 38.64 C7.33 24.41, 6.8 11.33, 6.54 2.45 M6.54 2.45 C5.95 1.92, 4.75 0.68, 3.07 0 M6.54 2.45 C5.39 1.67, 4.44 0.87, 3.07 0 M3.07 0 C2.44 -0.05, 1.8 -0.28, 1.29 -0.41 M3.07 0 C2.44 -0.11, 1.74 -0.31, 1.29 -0.41 M1.29 -0.41 C0.85 -0.17, 0.79 -0.18, 0 0 M1.29 -0.41 C0.89 -0.26, 0.42 -0.13, 0 0" stroke="#000000" stroke-width="2" fill="none"></path></g></g><mask></mask><g stroke-linecap="round"><g transform="translate(77.45471087018336 144.7630025031573) rotate(0 0 -6.1332691279680205)"><path d="M0 0 C-0.18 -2.99, -0.28 -6.79, 0 -12.27 M0 0 C0.29 -3.27, 0.1 -6.41, 0 -12.27" stroke="#000000" stroke-width="2" fill="none"></path></g></g><mask></mask><g stroke-linecap="round"><g transform="translate(52.92164184521198 173.8619617189564) rotate(0 -4.9387930666331386 13.194936348780075)"><path d="M0 0 C-2.06 1, -3.78 1.57, -8.6 4.46 M0 0 C-2.36 1.48, -4.8 2.72, -8.6 4.46 M-8.6 4.46 C-8.91 5.01, -9.2 5.55, -9.88 7.07 M-8.6 4.46 C-9.06 5.52, -9.55 6.46, -9.88 7.07 M-9.88 7.07 C-10.1 14.42, -10.55 20.85, -9.76 24.96 M-9.88 7.07 C-10.01 11.42, -10.1 16.42, -9.76 24.96 M-9.76 24.96 C-9.37 25.25, -8.95 25.59, -7.9 26.39 M-9.76 24.96 C-9.39 25.29, -8.91 25.56, -7.9 26.39 M-7.9 26.39 C-5.83 24.63, -3 23.23, -1.23 22.54 M-7.9 26.39 C-5.33 24.91, -3.02 23.46, -1.23 22.54" stroke="#000000" stroke-width="2" fill="none"></path></g></g><mask></mask><g stroke-linecap="round"><g transform="translate(112.46157810702016 140.30928962662233) rotate(180 -4.9387930666331386 13.194936348780061)"><path d="M0 0 C-3.31 1.3, -6.43 3.67, -8.6 4.46 M0 0 C-2.74 1.67, -5.75 3.15, -8.6 4.46 M-8.6 4.46 C-8.99 5.07, -9.12 5.67, -9.88 7.07 M-8.6 4.46 C-8.97 5.33, -9.37 6.19, -9.88 7.07 M-9.88 7.07 C-10.64 11.27, -10.29 16.14, -9.76 24.96 M-9.88 7.07 C-10.24 11.13, -10.2 14.33, -9.76 24.96 M-9.76 24.96 C-9.31 25.32, -8.89 25.82, -7.9 26.39 M-9.76 24.96 C-9.17 25.37, -8.62 25.78, -7.9 26.39 M-7.9 26.39 C-5.19 24.52, -2.49 23.09, -0.55 22.15 M-7.9 26.39 C-5.01 24.62, -2.38 23.19, -0.55 22.15" stroke="#000000" stroke-width="2" fill="none"></path></g></g><mask></mask><g stroke-linecap="round"><g transform="translate(68.96945998478554 184.53239282022466) rotate(0 -3.582104959775279 4.1341268961942745)" fill-rule="evenodd"><path d="M0.29 0.12 L-7.12 3.92 L-6.62 8.11 L-0.01 3.59 L0.21 0.51" stroke="none" stroke-width="0" fill="#fcc2d7" fill-rule="evenodd"></path><path d="M0 0 C-2.2 1.48, -4.23 2.6, -7.04 4.21 M0 0 C-2.83 1.77, -5.5 3.23, -7.04 4.21 M-7.04 4.21 C-6.97 5.33, -7.08 6.67, -7.16 8.27 M-7.04 4.21 C-7.02 5.76, -7.17 7.29, -7.16 8.27 M-7.16 8.27 C-4.82 7.04, -2.48 5.31, -0.09 4.22 M-7.16 8.27 C-5.32 7.13, -3.34 6, -0.09 4.22 M-0.09 4.22 C-0.19 3.25, -0.04 1.94, 0 0 M-0.09 4.22 C-0.03 2.75, 0 1.26, 0 0 M0 0 C0 0, 0 0, 0 0 M0 0 C0 0, 0 0, 0 0" stroke="#000000" stroke-width="2" fill="none"></path></g></g><mask></mask><g stroke-linecap="round"><g transform="translate(81.35345261032148 177.6017868956994) rotate(0 -3.582104959775279 4.1341268961942745)" fill-rule="evenodd"><path d="M-0.08 -0.3 L-6.5 4.06 L-7.08 7.63 L0.11 4.73 L-0.51 -0.62" stroke="none" stroke-width="0" fill="#fcc2d7" fill-rule="evenodd"></path><path d="M0 0 C-1.54 1.03, -2.97 1.98, -7.04 4.21 M0 0 C-2.76 1.58, -5.37 3.16, -7.04 4.21 M-7.04 4.21 C-7.02 5.4, -6.99 6.53, -7.16 8.27 M-7.04 4.21 C-7.11 5.42, -7.07 6.61, -7.16 8.27 M-7.16 8.27 C-5.33 6.92, -3.05 5.65, -0.09 4.22 M-7.16 8.27 C-4.44 6.65, -1.67 5.06, -0.09 4.22 M-0.09 4.22 C-0.06 2.95, 0.03 1.94, 0 0 M-0.09 4.22 C-0.04 3.02, -0.12 1.96, 0 0 M0 0 C0 0, 0 0, 0 0 M0 0 C0 0, 0 0, 0 0" stroke="#000000" stroke-width="2" fill="none"></path></g></g><mask></mask><g stroke-linecap="round"><g transform="translate(92.99761070722684 170.36448891221045) rotate(0 -3.582104959775279 4.1341268961942745)" fill-rule="evenodd"><path d="M0.54 -0.15 L-6.95 3.58 L-6.96 8.78 L-0.6 3.6 L-0.63 -0.3" stroke="none" stroke-width="0" fill="#fcc2d7" fill-rule="evenodd"></path><path d="M0 0 C-2.43 1.64, -5.11 2.97, -7.04 4.21 M0 0 C-2.79 1.59, -5.59 3.43, -7.04 4.21 M-7.04 4.21 C-6.95 5.27, -7.09 6.3, -7.16 8.27 M-7.04 4.21 C-7.05 5.35, -7.12 6.57, -7.16 8.27 M-7.16 8.27 C-4.63 6.59, -1.72 5.12, -0.09 4.22 M-7.16 8.27 C-5.15 7.06, -3.06 5.8, -0.09 4.22 M-0.09 4.22 C0 2.67, -0.06 1.01, 0 0 M-0.09 4.22 C-0.14 3.15, -0.12 2.08, 0 0 M0 0 C0 0, 0 0, 0 0 M0 0 C0 0, 0 0, 0 0" stroke="#000000" stroke-width="2" fill="none"></path></g></g><mask></mask><g stroke-linecap="round"><g transform="translate(65.80471995775997 166.0073338032337) rotate(0 1.8036730882158736 4.193270105334477)" fill-rule="evenodd"><path d="M-0.59 -0.23 L-2.23 2.22 L-2 7.65 L-1.94 10.44 L0.16 10.79 L4.29 9.2 L6.36 6.51 L7.46 3.53 L5.86 0.1 L6.1 -1.8 L2.35 -0.9" stroke="none" stroke-width="0" fill="#ffffff" fill-rule="evenodd"></path><path d="M0 0 C-0.64 0.86, -1.42 1.95, -2.54 3.22 M0 0 C-0.71 0.95, -1.43 1.76, -2.54 3.22 M-2.54 3.22 C-2.68 4.62, -2.86 5.59, -3 6.75 M-2.54 3.22 C-2.66 4.13, -2.72 5.04, -3 6.75 M-3 6.75 C-2.64 7.42, -2.59 8.27, -2.15 9.92 M-3 6.75 C-2.79 7.55, -2.47 8.48, -2.15 9.92 M-2.15 9.92 C-1.45 10.09, -0.72 10.16, 0.93 10.27 M-2.15 9.92 C-1.58 10.03, -0.92 10.12, 0.93 10.27 M0.93 10.27 C1.84 9.88, 2.98 9.5, 3.55 9.26 M0.93 10.27 C1.67 9.94, 2.5 9.67, 3.55 9.26 M3.55 9.26 C4.36 8.35, 4.76 7.53, 5.72 6.75 M3.55 9.26 C4.04 8.59, 4.72 7.94, 5.72 6.75 M5.72 6.75 C5.85 5.73, 6.3 4.92, 6.6 3.92 M5.72 6.75 C5.97 5.75, 6.26 4.81, 6.6 3.92 M6.6 3.92 C6.54 2.81, 6.59 1.68, 6.59 0.68 M6.6 3.92 C6.58 2.81, 6.59 1.58, 6.59 0.68 M6.59 0.68 C6.14 -0.1, 5.91 -0.93, 5.59 -1.85 M6.59 0.68 C6.26 -0.31, 5.83 -1.23, 5.59 -1.85 M5.59 -1.85 C4.87 -1.8, 3.94 -2.01, 2.55 -1.88 M5.59 -1.85 C4.59 -1.85, 3.67 -1.87, 2.55 -1.88 M2.55 -1.88 C1.63 -1.12, 0.71 -0.52, 0 0 M2.55 -1.88 C1.63 -1.13, 0.64 -0.45, 0 0" stroke="#000000" stroke-width="2" fill="none"></path></g></g><mask></mask><g stroke-linecap="round"><g transform="translate(84.89861647702037 155.24384078123165) rotate(0 1.8036730882158736 4.193270105334477)" fill-rule="evenodd"><path d="M0.31 -1 L-1.55 4.13 L-2.79 7.26 L-2.92 10.44 L1.67 10.21 L4.18 9.02 L6.57 6.36 L5.87 3.34 L7.11 0.73 L5.39 -0.87 L2.36 -0.93" stroke="none" stroke-width="0" fill="#ffffff" fill-rule="evenodd"></path><path d="M0 0 C-0.59 0.89, -1.65 2, -2.54 3.22 M0 0 C-0.71 0.86, -1.25 1.74, -2.54 3.22 M-2.54 3.22 C-2.71 4.37, -2.92 5.82, -3 6.75 M-2.54 3.22 C-2.58 3.89, -2.78 4.71, -3 6.75 M-3 6.75 C-2.81 7.39, -2.65 8.1, -2.15 9.92 M-3 6.75 C-2.7 7.61, -2.59 8.51, -2.15 9.92 M-2.15 9.92 C-1.08 10.12, -0.02 10.02, 0.93 10.27 M-2.15 9.92 C-1.22 10.08, -0.08 10.1, 0.93 10.27 M0.93 10.27 C1.88 9.93, 2.87 9.58, 3.55 9.26 M0.93 10.27 C1.82 9.94, 2.6 9.57, 3.55 9.26 M3.55 9.26 C4.1 8.28, 4.9 7.6, 5.72 6.75 M3.55 9.26 C4.48 8.25, 5.29 7.36, 5.72 6.75 M5.72 6.75 C6.07 5.72, 6.41 4.88, 6.6 3.92 M5.72 6.75 C5.98 5.75, 6.39 4.78, 6.6 3.92 M6.6 3.92 C6.61 2.82, 6.69 1.96, 6.59 0.68 M6.6 3.92 C6.61 3.12, 6.61 2.43, 6.59 0.68 M6.59 0.68 C6.33 0.07, 6.26 -0.52, 5.59 -1.85 M6.59 0.68 C6.27 -0.09, 5.91 -1.02, 5.59 -1.85 M5.59 -1.85 C4.56 -2.01, 3.48 -1.84, 2.55 -1.88 M5.59 -1.85 C4.51 -1.87, 3.37 -1.94, 2.55 -1.88 M2.55 -1.88 C1.73 -1.26, 1.03 -0.64, 0 0 M2.55 -1.88 C2.02 -1.45, 1.41 -1.08, 0 0" stroke="#000000" stroke-width="2" fill="none"></path></g></g><mask></mask><g stroke-linecap="round"><g transform="translate(45.11019691223146 235.5635835556578) rotate(180 -0.09931372328730959 13.353190386342106)" fill-rule="evenodd"><path d="M-0.52 -0.2 L-9.43 -6.36 L-21.32 15.23 L9.46 32.07 L22.48 11.49 L0.73 1.19" stroke="none" stroke-width="0" fill="#fff9db" fill-rule="evenodd"></path><path d="M0 0 C-3.29 -1.5, -6.46 -4.13, -9.2 -5.38 M0 0 C-3.3 -1.62, -6.34 -3.88, -9.2 -5.38 M-9.2 -5.38 C-12.75 -1.56, -14.79 3.73, -22.29 15 M-9.2 -5.38 C-12.72 -0.06, -15.86 4.52, -22.29 15 M-22.29 15 C-14.07 19.54, -6.11 23.09, 9.22 32.09 M-22.29 15 C-14.72 19.83, -6.17 23.35, 9.22 32.09 M9.22 32.09 C12.87 27.51, 15.17 22.76, 22.09 12.11 M9.22 32.09 C13.49 24.83, 18.86 18.02, 22.09 12.11 M22.09 12.11 C14.97 8.26, 8.47 5.12, -0.01 0.47 M22.09 12.11 C16.87 9.88, 12.38 6.86, -0.01 0.47 M-0.01 0.47 C-0.01 0.35, -0.03 0.24, 0 0 M-0.01 0.47 C-0.01 0.35, 0.01 0.22, 0 0" stroke="#000000" stroke-width="2" fill="none"></path></g></g><mask></mask><g stroke-linecap="round"><g transform="translate(56.47582117336469 219.13988141067273) rotate(0 -7.914350981480993 23.934237382925588)" fill-rule="evenodd"><path d="M0.72 0.48 L-25.43 41.31 L-22.67 40.72 L-19.23 43.09 L-16.85 44.16 L-16.18 47.37 L10.55 5.04 L0.76 -0.62" stroke="none" stroke-width="0" fill="#f8f9fa" fill-rule="evenodd"></path><path d="M0 0 C-8.18 13.19, -16.41 28.15, -25.77 41.74 M0 0 C-10.23 15.78, -20.55 32.57, -25.77 41.74 M-25.77 41.74 C-24.97 41.72, -24.23 41.31, -22.17 41.17 M-25.77 41.74 C-24.57 41.52, -23.36 41.28, -22.17 41.17 M-22.17 41.17 C-20.92 41.47, -19.93 41.85, -19.09 42.11 M-22.17 41.17 C-21.46 41.3, -20.8 41.65, -19.09 42.11 M-19.09 42.11 C-18.39 42.83, -17.69 43.77, -17.25 44.28 M-19.09 42.11 C-18.57 42.73, -18.15 43.29, -17.25 44.28 M-17.25 44.28 C-16.72 45.59, -16.2 47.09, -15.45 48.12 M-17.25 44.28 C-16.7 45.51, -16.14 46.9, -15.45 48.12 M-15.45 48.12 C-11.01 38.63, -5.09 30.21, 9.94 5.23 M-15.45 48.12 C-5.3 32.23, 3.66 15.45, 9.94 5.23 M9.94 5.23 C7.44 3.89, 4.65 2.46, 0.34 -0.26 M9.94 5.23 C7.9 3.73, 5.33 2.48, 0.34 -0.26 M0.34 -0.26 C0.26 -0.21, 0.16 -0.15, 0 0 M0.34 -0.26 C0.21 -0.15, 0.08 -0.06, 0 0" stroke="#000000" stroke-width="2" fill="none"></path></g></g><mask></mask><g stroke-linecap="round"><g transform="translate(10 272.77948094992576) rotate(0 16.71065771957683 1.5693449149277825)" fill-rule="evenodd"><path d="M0.74 0.85 L29.25 15.59 L32.24 10.24 L34.13 7.72 L33.01 3.77 L32.84 -2.55 L29.54 -5.74 L29.09 -8.98 L27.99 -10.38 L24.76 -12.59 L17.36 -12.11 L13.4 -9.96 L9.2 -8.42 L6.97 -7.18 L3.93 -3.41 L0.75 -2.03" stroke="none" stroke-width="0" fill="#e9ecef" fill-rule="evenodd"></path><path d="M0 0 C11.55 6.74, 23.15 11.18, 29.35 15.4 M0 0 C10.26 5.9, 21.08 10.98, 29.35 15.4 M29.35 15.4 C29.91 13.82, 30.91 12.67, 32.14 10.39 M29.35 15.4 C30.31 13.47, 31.51 11.8, 32.14 10.39 M32.14 10.39 C32.48 9.19, 32.86 7.84, 33.39 6.92 M32.14 10.39 C32.53 9.17, 33.12 7.9, 33.39 6.92 M33.39 6.92 C33.49 6.18, 33.34 5.09, 33.42 3.99 M33.39 6.92 C33.39 6.12, 33.43 5.15, 33.42 3.99 M33.42 3.99 C33.08 2.54, 33.4 0.33, 33.14 -2.56 M33.42 3.99 C33.21 1.78, 33.08 -0.62, 33.14 -2.56 M33.14 -2.56 C32.43 -3.57, 32.01 -4.63, 30.32 -6.52 M33.14 -2.56 C31.98 -4.09, 30.93 -5.7, 30.32 -6.52 M30.32 -6.52 C29.73 -7.49, 29.05 -8.48, 28.84 -9.13 M30.32 -6.52 C29.75 -7.54, 29.17 -8.53, 28.84 -9.13 M28.84 -9.13 C28.43 -9.68, 28.19 -10.1, 27.35 -10.97 M28.84 -9.13 C28.29 -9.75, 27.84 -10.39, 27.35 -10.97 M27.35 -10.97 C26.11 -11.44, 25.21 -11.77, 23.87 -12.26 M27.35 -10.97 C26.41 -11.37, 25.39 -11.76, 23.87 -12.26 M23.87 -12.26 C22.05 -12.43, 20.99 -11.95, 17.37 -11.79 M23.87 -12.26 C22.4 -12.2, 20.76 -12.02, 17.37 -11.79 M17.37 -11.79 C16.51 -11.54, 15.2 -11.15, 13.15 -10.22 M17.37 -11.79 C16.54 -11.49, 15.6 -11.17, 13.15 -10.22 M13.15 -10.22 C12.03 -9.41, 10.69 -8.79, 10.11 -8.57 M13.15 -10.22 C12.15 -9.76, 11.26 -9.24, 10.11 -8.57 M10.11 -8.57 C9.34 -7.97, 8.56 -7.7, 6.97 -6.92 M10.11 -8.57 C9.52 -8.23, 8.92 -7.95, 6.97 -6.92 M6.97 -6.92 C6.16 -6.07, 5.22 -5.52, 3.67 -4.21 M6.97 -6.92 C6.05 -6.03, 4.9 -5.23, 3.67 -4.21 M3.67 -4.21 C3.16 -3.51, 2.37 -2.78, 0.85 -1.14 M3.67 -4.21 C3.08 -3.62, 2.31 -2.77, 0.85 -1.14 M0.85 -1.14 C0.58 -0.67, 0.26 -0.3, 0 0 M0.85 -1.14 C0.63 -0.86, 0.4 -0.57, 0 0" stroke="#000000" stroke-width="2" fill="none"></path></g></g><mask></mask><g stroke-linecap="round"><g transform="translate(25.192607225807933 280.80256574426693) rotate(0 -2.962104937523918 4.332079182999081)"><path d="M0 0 C-1.15 1.96, -2.69 4.22, -5.92 8.66 M0 0 C-1.36 1.62, -2.51 3.51, -5.92 8.66" stroke="#000000" stroke-width="2" fill="none"></path></g></g><mask></mask><g stroke-linecap="round" transform="translate(16.15818269174588 289.1705128029464) rotate(30.198012973760893 1.9623948261969417 3.4804726914159687)"><path d="M2 -0.3 C2.41 -0.38, 2.78 0.02, 3.04 0.48 C3.31 0.94, 3.48 1.71, 3.58 2.45 C3.68 3.2, 3.74 4.31, 3.64 4.97 C3.54 5.64, 3.33 6.09, 3 6.44 C2.67 6.79, 2.07 7.27, 1.67 7.07 C1.28 6.87, 0.9 5.89, 0.62 5.21 C0.33 4.53, 0 3.65, -0.05 2.99 C-0.11 2.33, -0.04 1.75, 0.29 1.27 C0.63 0.78, 1.69 0.26, 1.96 0.08 C2.23 -0.1, 1.96 0.11, 1.91 0.2 M2.15 -0.29 C2.43 -0.25, 2.89 0.07, 3.14 0.68 C3.39 1.29, 3.64 2.61, 3.65 3.39 C3.66 4.18, 3.48 4.74, 3.2 5.38 C2.93 6.02, 2.4 6.98, 2 7.23 C1.6 7.47, 1.13 7.19, 0.82 6.84 C0.5 6.49, 0.3 5.81, 0.14 5.11 C-0.03 4.42, -0.38 3.39, -0.19 2.67 C-0.01 1.95, 0.82 1.28, 1.25 0.81 C1.68 0.33, 2.25 -0.03, 2.37 -0.19 C2.48 -0.34, 1.99 -0.31, 1.94 -0.13" stroke="none" stroke-width="0" fill="#ffffff"></path><path d="M1.97 -0.24 C2.38 -0.28, 2.58 0.06, 2.89 0.59 C3.2 1.12, 3.74 2.24, 3.84 2.94 C3.95 3.64, 3.68 4.17, 3.51 4.77 C3.34 5.37, 3.17 6.23, 2.84 6.55 C2.52 6.86, 2.01 6.9, 1.58 6.67 C1.15 6.44, 0.56 5.73, 0.26 5.16 C-0.04 4.59, -0.3 3.94, -0.21 3.26 C-0.12 2.57, 0.41 1.6, 0.8 1.04 C1.19 0.48, 1.95 0.08, 2.12 -0.09 C2.29 -0.26, 1.88 0.01, 1.81 0.03 M1.82 0.34 C2.26 0.53, 3.31 1, 3.66 1.51 C4 2.02, 3.94 2.67, 3.9 3.4 C3.85 4.13, 3.55 5.34, 3.38 5.88 C3.2 6.42, 3.27 6.53, 2.84 6.65 C2.4 6.76, 1.14 6.8, 0.76 6.57 C0.37 6.34, 0.64 5.88, 0.52 5.28 C0.41 4.68, -0.02 3.8, 0.07 2.98 C0.17 2.15, 0.79 0.86, 1.11 0.33 C1.42 -0.19, 1.81 -0.06, 1.98 -0.17 C2.16 -0.28, 2.05 -0.45, 2.14 -0.33" stroke="#000000" stroke-width="2" fill="none"></path></g><g stroke-linecap="round"><g transform="translate(157.74986990578805 27.84366968417141) rotate(0 -11.93122918713459 27.818286457587956)" fill-rule="evenodd"><path d="M0.08 -0.96 L1.95 2.54 L-0.48 40.32 L0.67 43.22 L-23.08 55.85 L-22.79 52.4 L-26.63 16.11 L-24.49 14.14 L0.65 -0.23" stroke="none" stroke-width="0" fill="#f3f0ff" fill-rule="evenodd"></path><path d="M0 0 C0.32 0.67, 0.73 1.1, 0.85 1.41 M0 0 C0.27 0.4, 0.5 0.77, 0.85 1.41 M0.85 1.41 C1.2 11.36, -0.35 22.07, 0.81 40.53 M0.85 1.41 C1.78 16.37, 1.7 30.21, 0.81 40.53 M0.81 40.53 C0.34 41.41, -0.14 42.76, -0.3 43.07 M0.81 40.53 C0.66 41.23, 0.28 41.89, -0.3 43.07 M-0.3 43.07 C-5.85 45, -13.37 49.41, -22.2 55.64 M-0.3 43.07 C-8.7 46.79, -15.54 51.44, -22.2 55.64 M-22.2 55.64 C-22.74 55.03, -23.14 54.36, -23.75 53.81 M-22.2 55.64 C-22.75 55, -23.44 54.27, -23.75 53.81 M-23.75 53.81 C-26.06 44.53, -26.38 35.35, -24.71 15.99 M-23.75 53.81 C-24.71 46.44, -25.37 37.76, -24.71 15.99 M-24.71 15.99 C-24.38 15.62, -24.22 15.1, -23.78 14.54 M-24.71 15.99 C-24.44 15.46, -23.93 14.81, -23.78 14.54 M-23.78 14.54 C-18.99 13.6, -15.82 8.2, -1.12 0.31 M-23.78 14.54 C-14.27 9.63, -7.63 2.94, -1.12 0.31 M-1.12 0.31 C-0.69 0.27, -0.47 0.08, 0 0 M-1.12 0.31 C-0.84 0.25, -0.67 0.17, 0 0" stroke="#000000" stroke-width="2" fill="none"></path></g></g><mask></mask><g stroke-linecap="round"><g transform="translate(95.05760339494623 80.48681511438275) rotate(0 23.838120508211887 -30.323700839547147)"><path d="M0 0 C0.71 -8.63, -0.1 -17.79, -0.29 -33.15 M0 0 C-0.33 -13.39, -0.6 -24.33, -0.29 -33.15 M-0.29 -33.15 C10.44 -40.32, 25.65 -46.45, 47.96 -60.65 M-0.29 -33.15 C15.69 -42.85, 31.25 -51.31, 47.96 -60.65 M47.96 -60.65 C47.7 -57.83, 47.37 -56.1, 47.73 -52.63 M47.96 -60.65 C47.96 -57.48, 47.85 -55.26, 47.73 -52.63" stroke="#000000" stroke-width="2" fill="none"></path></g></g><mask></mask><g stroke-linecap="round"><g transform="translate(124.75134610828763 67.40825880321009) rotate(0 -18.338862977902068 13.521418586100431)" fill-rule="evenodd"><path d="M0.25 -0.97 L-36.93 20.69 L-36.77 28.01 L0.32 6.78 L-0.08 0.15" stroke="none" stroke-width="0" fill="#ffffff" fill-rule="evenodd"></path><path d="M0 0 C-13.88 7.87, -27.05 16.25, -37.47 21.55 M0 0 C-10.59 6.17, -21.09 11.84, -37.47 21.55 M-37.47 21.55 C-37.28 23.11, -37.46 24.77, -37.52 27.04 M-37.47 21.55 C-37.33 23.2, -37.52 24.99, -37.52 27.04 M-37.52 27.04 C-28.32 21.84, -17.48 17.03, 0.79 6.05 M-37.52 27.04 C-23.91 19.09, -10.4 12.18, 0.79 6.05 M0.79 6.05 C1 4.46, 0.66 3.37, 0.84 0 M0.79 6.05 C0.76 4.64, 0.74 3.29, 0.84 0 M0.84 0 C0.65 0, 0.36 0.01, 0 0 M0.84 0 C0.52 0.01, 0.2 -0.02, 0 0" stroke="#000000" stroke-width="2" fill="none"></path></g></g><mask></mask><g stroke-linecap="round"><g transform="translate(268.5049676743122 70.14357435457748) rotate(0 28.900160299499134 -21.31247315334132)"><path d="M0 0 C0.32 -2.16, -0.55 -4.79, 0 -8.03 M0 0 C0.05 -1.74, 0.05 -3.22, 0 -8.03 M0 -8.03 C17.5 -15.78, 30.83 -27.16, 57.8 -42.62 M0 -8.03 C21.37 -21.08, 43.62 -33.57, 57.8 -42.62 M57.8 -42.62 C57.5 -39.49, 57.36 -37.56, 57.8 -33.59 M57.8 -42.62 C58.09 -40.06, 57.82 -37.32, 57.8 -33.59" stroke="#000000" stroke-width="2" fill="none"></path></g></g><mask></mask><g stroke-linecap="round"><g transform="translate(297.18195394436134 30.97772130337209) rotate(0 0 10.823612501655374)"><path d="M0 0 C-0.53 5.04, -0.73 10.71, 0 21.65 M0 0 C0.05 7.77, -0.12 14.73, 0 21.65" stroke="#000000" stroke-width="2" fill="none"></path></g></g><mask></mask><g stroke-linecap="round"><g transform="translate(289.03635317772614 20.935196451645098) rotate(0 8.703523581320269 1.339001270406726)" fill-rule="evenodd"><path d="M-0.39 -0.26 L-0.51 13.32 L17.34 2.26 L18.43 -10.97 L-0.57 0.43" stroke="none" stroke-width="0" fill="#e9ecef" fill-rule="evenodd"></path><path d="M0 0 C-0.61 4.09, 0.16 8.48, -0.11 13.61 M0 0 C-0.12 4.26, -0.06 8.76, -0.11 13.61 M-0.11 13.61 C7.43 9.95, 13.56 5.54, 17.52 3.12 M-0.11 13.61 C4.75 10.54, 9.43 7.47, 17.52 3.12 M17.52 3.12 C17.36 -2.56, 17.43 -6.68, 17.52 -10.94 M17.52 3.12 C17.55 -1.13, 17.21 -5.62, 17.52 -10.94 M17.52 -10.94 C12.7 -8.47, 9.65 -6.1, 0 0 M17.52 -10.94 C12.05 -7.24, 6.42 -3.67, 0 0 M0 0 C0 0, 0 0, 0 0 M0 0 C0 0, 0 0, 0 0" stroke="#000000" stroke-width="2" fill="none"></path></g></g><mask></mask><g stroke-linecap="round"><g transform="translate(260.6398691020074 83.36637063224057) rotate(0 9.10789714627299 2.3259422589858936)" fill-rule="evenodd"><path d="M-0.4 -0.29 L-0.3 14.3 L19.25 4 L17.77 -10.08 L0.69 -0.3" stroke="none" stroke-width="0" fill="#e7f5ff" fill-rule="evenodd"></path><path d="M0 0 C0.21 4.01, -0.04 7.95, -0.12 15.16 M0 0 C-0.06 6.16, 0.21 11.53, -0.12 15.16 M-0.12 15.16 C5.22 11.92, 10.35 9.47, 18.34 4.04 M-0.12 15.16 C5.38 11.45, 12.09 7.79, 18.34 4.04 M18.34 4.04 C18.23 0.18, 18.53 -4.69, 18.34 -10.51 M18.34 4.04 C18.02 -1.24, 18.14 -7.31, 18.34 -10.51 M18.34 -10.51 C13.76 -8.02, 7.84 -3.84, 0 0 M18.34 -10.51 C11.79 -6.52, 4.03 -2.62, 0 0 M0 0 C0 0, 0 0, 0 0 M0 0 C0 0, 0 0, 0 0" stroke="#000000" stroke-width="2" fill="none"></path></g></g><mask></mask><g stroke-linecap="round"><g transform="translate(288.68315190754265 65.94347030490223) rotate(0 9.10789714627299 2.32594225898589)" fill-rule="evenodd"><path d="M-0.18 -0.86 L0.78 15.13 L17.77 4.47 L19.03 -10.81 L0.6 -0.42" stroke="none" stroke-width="0" fill="#e7f5ff" fill-rule="evenodd"></path><path d="M0 0 C0.08 4.35, 0.6 8.38, -0.12 15.16 M0 0 C0.29 4.51, -0.12 9.57, -0.12 15.16 M-0.12 15.16 C5.95 12.18, 12.55 7.43, 18.34 4.04 M-0.12 15.16 C5.53 11.78, 10.48 8.71, 18.34 4.04 M18.34 4.04 C18.52 0.87, 18.98 -2.49, 18.34 -10.51 M18.34 4.04 C18.21 -1.6, 18.38 -7.18, 18.34 -10.51 M18.34 -10.51 C13.62 -7.15, 9.09 -4.21, 0 0 M18.34 -10.51 C12.52 -7.48, 7.53 -4.58, 0 0 M0 0 C0 0, 0 0, 0 0 M0 0 C0 0, 0 0, 0 0" stroke="#000000" stroke-width="2" fill="none"></path></g></g><mask></mask><g stroke-linecap="round"><g transform="translate(318.56072682553554 48.69927199223103) rotate(0 9.10789714627299 2.3259422589858865)" fill-rule="evenodd"><path d="M0.91 -0.03 L-0.7 15.59 L19.03 3.74 L18.94 -10.93 L0.51 -0.89" stroke="none" stroke-width="0" fill="#e7f5ff" fill-rule="evenodd"></path><path d="M0 0 C0.61 4.48, -0.02 9.39, -0.12 15.16 M0 0 C-0.02 6.13, 0.11 11.74, -0.12 15.16 M-0.12 15.16 C5.65 11.53, 10.85 7.51, 18.34 4.04 M-0.12 15.16 C4.82 12.08, 9.4 9.14, 18.34 4.04 M18.34 4.04 C18.95 -1.37, 18.9 -7.61, 18.34 -10.51 M18.34 4.04 C18.36 -1.87, 18.29 -7.14, 18.34 -10.51 M18.34 -10.51 C14.73 -7.36, 9.49 -4.5, 0 0 M18.34 -10.51 C13.15 -7.87, 7.48 -4.59, 0 0 M0 0 C0 0, 0 0, 0 0 M0 0 C0 0, 0 0, 0 0" stroke="#000000" stroke-width="2" fill="none"></path></g></g><mask></mask></svg>