<svg version="1.1" xmlns="http://www.w3.org/2000/svg" viewBox="0 0 277.2607852352153 262.2012751631584" width="554.5215704704306" height="524.4025503263168" filter="invert(93%) hue-rotate(180deg)">
  <!-- svg-source:excalidraw -->
  
  <defs>
    <style class="style-fonts">
      @font-face {
        font-family: "Virgil";
        src: url("https://excalidraw.com/Virgil.woff2");
      }
      @font-face {
        font-family: "Cascadia";
        src: url("https://excalidraw.com/Cascadia.woff2");
      }
      @font-face {
        font-family: "Assistant";
        src: url("https://excalidraw.com/Assistant-Regular.woff2");
      }
    </style>
    
  </defs>
  <g stroke-linecap="round" transform="translate(10 108.96779205359712) rotate(0 117.73122112457617 69.12069386687313)"><path d="M147.5 17.5 C164.95 26.9, 182.76 37.93, 205.96 52.5 C233.27 67.57, 235.57 73.34, 205.96 87.5 C188.38 95.69, 168.21 110.63, 147.5 120.74 C121.56 140.51, 118.51 137.04, 88.5 120.74 C71.32 111.88, 57.71 105.24, 29.5 87.5 C1.43 67.67, 1.87 73.21, 29.5 52.5 C42.16 44.52, 54.19 36.7, 88.5 17.5 C116.47 -1.75, 120.98 -0.43, 147.5 17.5" stroke="none" stroke-width="0" fill="#f8f0fc"></path><path d="M147.5 17.5 C164.33 25.59, 175.9 37.19, 205.96 52.5 M147.5 17.5 C162.69 25.82, 175.73 34.26, 205.96 52.5 M205.96 52.5 C235.91 71.83, 236.46 70.94, 205.96 87.5 M205.96 52.5 C233.67 69.64, 236.53 71.3, 205.96 87.5 M205.96 87.5 C186.82 98.58, 169.25 107.93, 147.5 120.74 M205.96 87.5 C185.41 99.06, 166.05 110.64, 147.5 120.74 M147.5 120.74 C117.86 139.41, 119.93 140.13, 88.5 120.74 M147.5 120.74 C120.07 138.09, 117.92 136.97, 88.5 120.74 M88.5 120.74 C73.27 114.47, 60.3 103.55, 29.5 87.5 M88.5 120.74 C67.32 110.06, 48.78 97.53, 29.5 87.5 M29.5 87.5 C0.01 71.53, 0.29 68.72, 29.5 52.5 M29.5 87.5 C-1.56 69.74, 0.72 71.6, 29.5 52.5 M29.5 52.5 C42.26 44.24, 54.82 37.02, 88.5 17.5 M29.5 52.5 C45.02 42.8, 60.48 34.85, 88.5 17.5 M88.5 17.5 C116.91 -0.14, 119.65 -0.39, 147.5 17.5 M88.5 17.5 C119.15 -1.28, 116.25 1.73, 147.5 17.5" stroke="transparent" stroke-width="4" fill="none"></path></g><g stroke-linecap="round"><g transform="translate(124.12203165595281 54.42266733364656) rotate(0 6.07421512486701 35.95809965605352)" fill-rule="evenodd"><path d="M1.12 -1.56 L-9.19 5.29 L-67.39 38.47 L-66.09 39.15 L-66.54 36.77 L-3.22 74.77 L3.34 71.51 L10.8 69.68 L23.48 65.93 L81.76 42.91 L77.51 36.11 L70.58 35.37 L18.38 4.48 L9 0.59 L5.1 -2.48 L-1.28 0.85" stroke="none" stroke-width="0" fill="#ffffff" fill-rule="evenodd"></path><path d="M0 0 C-3.01 0.6, -5.13 2.77, -7.43 3.65 M0 0 C-1.65 1.25, -3.33 1.73, -7.43 3.65 M-7.43 3.65 C-26.37 15.57, -45.98 26.16, -68.78 37.18 M-7.43 3.65 C-30.3 16.78, -53.91 28.54, -68.78 37.18 M-68.78 37.18 C-68.6 37.64, -68.44 37.77, -67.98 38.56 M-68.78 37.18 C-68.61 37.58, -68.38 38.07, -67.98 38.56 M-67.98 38.56 C-67.88 38.55, -67.7 38.54, -67.63 38.57 M-67.98 38.56 C-67.9 38.55, -67.83 38.56, -67.63 38.57 M-67.63 38.57 C-44.36 49.57, -23.28 61.29, -3.13 72.95 M-67.63 38.57 C-50.01 48.93, -32.78 56.44, -3.13 72.95 M-3.13 72.95 C-1.22 73.37, 1.08 72.45, 5.15 71.81 M-3.13 72.95 C0.1 72.78, 3.26 72.01, 5.15 71.81 M5.15 71.81 C6.53 71.2, 8.76 71.67, 10.62 71.45 M5.15 71.81 C7.06 71.89, 9.27 71.78, 10.62 71.45 M10.62 71.45 C13.54 69.29, 15.77 68.05, 21.54 64.42 M10.62 71.45 C13.57 69.2, 16.73 67.43, 21.54 64.42 M21.54 64.42 C44.9 54.37, 63.92 46.19, 80.93 42 M21.54 64.42 C36.68 58.71, 51.3 54.57, 80.93 42 M80.93 42 C80.71 40.88, 79.76 39.41, 78.64 37.5 M80.93 42 C80.71 41.31, 79.85 40.23, 78.64 37.5 M78.64 37.5 C76.43 37.05, 74.08 35.45, 70.3 34.19 M78.64 37.5 C75.59 36.39, 72.45 35.35, 70.3 34.19 M70.3 34.19 C51.9 24.37, 35.5 15.03, 19.57 5.32 M70.3 34.19 C52.89 24.13, 35.36 15.15, 19.57 5.32 M19.57 5.32 C16.57 3.04, 12.14 1.83, 9.75 0.02 M19.57 5.32 C17.35 4.68, 15.02 3.17, 9.75 0.02 M9.75 0.02 C8.28 0.16, 6.46 -0.17, 4.25 -1.03 M9.75 0.02 C8.43 0.02, 6.98 -0.55, 4.25 -1.03 M4.25 -1.03 C3.6 -1.12, 2.58 -0.24, 0 0 M4.25 -1.03 C3.31 -0.59, 2.52 -0.57, 0 0 M0 0 C0 0, 0 0, 0 0 M0 0 C0 0, 0 0, 0 0" stroke="transparent" stroke-width="4" fill="none"></path></g></g><mask></mask><g stroke-linecap="round"><g transform="translate(123.99623659176098 126.18117955678315) rotate(181.460877668467 -31.52834221085334 26.593883315543906)" fill-rule="evenodd"><path d="M-0.57 -0.78 L4.71 4.81 L4.34 10.61 L6.35 22.65 L6.5 58.55 L7.33 73.51 L8.24 80.31 L5.31 81.08 L1.81 83.51 L-56.37 53.03 L-70.13 52.02 L-67.71 50.36 L-68.61 -30.73 L-67.89 -32.06 L-0.71 1.18" stroke="none" stroke-width="0" fill="#ffffff" fill-rule="evenodd"></path><path d="M0 0 C2.12 2.02, 4.24 3.22, 4.69 4.71 M0 0 C0.95 1.22, 1.78 2.12, 4.69 4.71 M4.69 4.71 C5.57 6.48, 4.96 7.8, 6.15 10.55 M4.69 4.71 C4.98 6.31, 5.42 8.58, 6.15 10.55 M6.15 10.55 C6.74 12.32, 6.51 15.4, 5.89 21.25 M6.15 10.55 C6.49 13.8, 5.83 16.54, 5.89 21.25 M5.89 21.25 C6.52 32.68, 7.98 42.23, 6.67 59.08 M5.89 21.25 C6.17 34.27, 5.77 49.54, 6.67 59.08 M6.67 59.08 C7 64.88, 6.72 68.83, 6.15 73.22 M6.67 59.08 C7.16 62.66, 6.68 67.18, 6.15 73.22 M6.15 73.22 C6.03 75.07, 6.22 76.14, 7.52 80.24 M6.15 73.22 C6.69 75.66, 7.46 78.76, 7.52 80.24 M7.52 80.24 C6.86 80.69, 6.45 81.45, 5.87 82.32 M7.52 80.24 C7.16 80.85, 6.71 81.18, 5.87 82.32 M5.87 82.32 C4.97 83.08, 4 83.46, 3.27 83.84 M5.87 82.32 C5.03 82.67, 4.28 83.33, 3.27 83.84 M3.27 83.84 C-22.15 70.81, -43.75 58.92, -57.18 54.05 M3.27 83.84 C-17.83 73.46, -40.6 62.63, -57.18 54.05 M-57.18 54.05 C-60.06 53.08, -63.69 51.86, -68.33 50.68 M-57.18 54.05 C-60.22 53.39, -64.2 52.05, -68.33 50.68 M-68.33 50.68 C-68.36 49.97, -68.68 49.46, -68.83 48.97 M-68.33 50.68 C-68.47 50.28, -68.47 49.99, -68.83 48.97 M-68.83 48.97 C-68.85 24.12, -71.94 -4.68, -70.57 -30.08 M-68.83 48.97 C-69.23 22.22, -69.57 -6.1, -70.57 -30.08 M-70.57 -30.08 C-70.25 -30.07, -69.42 -30.11, -68.37 -30.65 M-70.57 -30.08 C-70.09 -30.16, -69.47 -30.47, -68.37 -30.65 M-68.37 -30.65 C-54.44 -25.38, -41.36 -19.07, 0 0 M-68.37 -30.65 C-50.62 -22.96, -35.2 -14.35, 0 0 M0 0 C0 0, 0 0, 0 0 M0 0 C0 0, 0 0, 0 0" stroke="transparent" stroke-width="2" fill="none"></path></g></g><mask></mask><g stroke-linecap="round"><g stroke-opacity="0.5" fill-opacity="0.5" transform="translate(128.01468323601068 55.271478640862824) rotate(0 6.07421512486701 35.958099656053506)" fill-rule="evenodd"><path d="M-1.9 -0.25 L-7.57 3.8 L-67.68 36.27 L-69.6 37.49 L-68.11 38.41 L-4.2 74.47 L4.07 70.65 L11.6 71.02 L20.69 64.46 L80.24 40.87 L79.09 38.09 L68.36 35.58 L20.95 6.1 L10.48 -0.74 L5.09 -3 L0.14 0.71" stroke="none" stroke-width="0" fill="#d0bfff" fill-rule="evenodd"></path><path d="M0 0 C-2.98 1.16, -4.62 3.04, -7.43 3.65 M0 0 C-2.78 1.73, -5.47 2.47, -7.43 3.65 M-7.43 3.65 C-24.38 14.01, -44.43 25.22, -68.78 37.18 M-7.43 3.65 C-24.5 13.03, -42.57 22.48, -68.78 37.18 M-68.78 37.18 C-68.48 37.65, -68.3 38.11, -67.98 38.56 M-68.78 37.18 C-68.54 37.58, -68.27 38.07, -67.98 38.56 M-67.98 38.56 C-67.87 38.6, -67.85 38.57, -67.63 38.57 M-67.98 38.56 C-67.87 38.58, -67.73 38.55, -67.63 38.57 M-67.63 38.57 C-45.13 49.76, -21.48 62.06, -3.13 72.95 M-67.63 38.57 C-51.82 47.01, -37.34 54.3, -3.13 72.95 M-3.13 72.95 C-1.86 72.89, -0.05 71.63, 5.15 71.81 M-3.13 72.95 C-1.1 72.58, 0.66 72.87, 5.15 71.81 M5.15 71.81 C6.63 71.69, 8.03 71.28, 10.62 71.45 M5.15 71.81 C7.33 71.55, 9.32 71.34, 10.62 71.45 M10.62 71.45 C14.36 69.84, 17.63 66.78, 21.54 64.42 M10.62 71.45 C14.48 68.76, 18.31 65.91, 21.54 64.42 M21.54 64.42 C36.05 58.23, 49.82 56.48, 80.93 42 M21.54 64.42 C42.14 55.52, 62.2 48.76, 80.93 42 M80.93 42 C80.39 40.7, 79.76 40.06, 78.64 37.5 M80.93 42 C80.31 40.79, 79.33 39.29, 78.64 37.5 M78.64 37.5 C76.57 35.82, 73.66 34.89, 70.3 34.19 M78.64 37.5 C76.17 36.86, 74.49 35.82, 70.3 34.19 M70.3 34.19 C61.12 29.06, 47.65 22.72, 19.57 5.32 M70.3 34.19 C51.18 22, 30.07 10.76, 19.57 5.32 M19.57 5.32 C16.46 3.38, 15.09 2.95, 9.75 0.02 M19.57 5.32 C16.08 3.77, 13.82 2.19, 9.75 0.02 M9.75 0.02 C8.8 -0.04, 7.52 -0.9, 4.25 -1.03 M9.75 0.02 C8.22 -0.35, 7.17 -0.41, 4.25 -1.03 M4.25 -1.03 C3.27 -0.36, 1.78 -0.57, 0 0 M4.25 -1.03 C3.06 -0.9, 2.11 -0.64, 0 0 M0 0 C0 0, 0 0, 0 0 M0 0 C0 0, 0 0, 0 0" stroke="transparent" stroke-width="4" fill="none"></path></g></g><mask></mask><g stroke-linecap="round"><g transform="translate(136.39568326182632 126.32516121389892) rotate(0 35.371731280068076 9.501736172288958)" fill-rule="evenodd"><path d="M-1.25 0.95 L-3.83 8.77 L64.4 51.9 L68.51 46.96 L71.29 41.55 L71.56 -29.27 L70.25 -32.28 L4.96 -2.94" stroke="none" stroke-width="0" fill="#da77f2" fill-rule="evenodd"></path><path d="M0 0 C-0.88 3.2, -1.03 4.2, -2.31 7.4 M0 0 C-0.65 2.23, -1.57 5.32, -2.31 7.4 M-2.31 7.4 C16.68 22.52, 37.6 32.98, 62.62 50.95 M-2.31 7.4 C23.34 24.53, 50.02 41.84, 62.62 50.95 M62.62 50.95 C64.25 49.67, 66.89 48.73, 70 46.41 M62.62 50.95 C65.25 48.85, 68.12 47.43, 70 46.41 M70 46.41 C70.17 45.52, 71.2 44.28, 71.65 43.45 M70 46.41 C70.53 45.44, 71.01 44.85, 71.65 43.45 M71.65 43.45 C71.6 22.61, 71.46 4.29, 73.06 -29.41 M71.65 43.45 C71.54 23.81, 70.92 4.84, 73.06 -29.41 M73.06 -29.41 C72.57 -30.59, 72.15 -31.5, 72.08 -31.95 M73.06 -29.41 C72.84 -29.91, 72.56 -30.65, 72.08 -31.95 M72.08 -31.95 C45.62 -22.09, 23.56 -11.6, 4.26 -2.67 M72.08 -31.95 C55.28 -26.1, 39.25 -18.95, 4.26 -2.67 M4.26 -2.67 C3.19 -2.04, 1.72 -1.16, 0 0 M4.26 -2.67 C3.12 -2.25, 2.29 -1.8, 0 0" stroke="transparent" stroke-width="1" fill="none"></path></g></g><mask></mask><g stroke-linecap="round"><g stroke-opacity="0.5" fill-opacity="0.5" transform="translate(124.7484819590037 125.32148670614242) rotate(181.460877668467 -31.52834221085334 26.593883315543906)" fill-rule="evenodd"><path d="M-1.94 0.55 L4.68 6.56 L5.94 8.76 L7.24 19.42 L7.92 60.77 L4.26 72.97 L7.37 80.39 L6.97 81.41 L1.66 82.77 L-57.66 53.89 L-69.39 52.2 L-69.91 47.81 L-69.59 -30.52 L-69.21 -30.61 L-0.69 -1.13" stroke="none" stroke-width="0" fill="#7950f2" fill-rule="evenodd"></path><path d="M0 0 C1.91 0.74, 3.06 2.86, 4.69 4.71 M0 0 C1.79 2.12, 3.63 3.77, 4.69 4.71 M4.69 4.71 C5.01 6.22, 6.19 8.71, 6.15 10.55 M4.69 4.71 C5.13 5.88, 5.23 7.52, 6.15 10.55 M6.15 10.55 C6.57 13.88, 6.91 16.38, 5.89 21.25 M6.15 10.55 C5.73 12.64, 6.09 15.36, 5.89 21.25 M5.89 21.25 C6.85 35.08, 5.49 50.14, 6.67 59.08 M5.89 21.25 C6.99 35.92, 6.28 49.68, 6.67 59.08 M6.67 59.08 C5.59 61.57, 5.82 66.51, 6.15 73.22 M6.67 59.08 C5.91 62.92, 6.83 67.4, 6.15 73.22 M6.15 73.22 C6.01 74.92, 6.6 78.15, 7.52 80.24 M6.15 73.22 C6.5 75.03, 7.13 76.79, 7.52 80.24 M7.52 80.24 C7.25 80.68, 6.34 81.52, 5.87 82.32 M7.52 80.24 C7.07 80.65, 6.77 81.31, 5.87 82.32 M5.87 82.32 C5.27 82.59, 3.9 83.15, 3.27 83.84 M5.87 82.32 C5.02 82.59, 4.31 83.23, 3.27 83.84 M3.27 83.84 C-9.53 76.22, -23.45 70.67, -57.18 54.05 M3.27 83.84 C-9.8 77.62, -20.9 71.55, -57.18 54.05 M-57.18 54.05 C-59.65 52.84, -61.06 52.78, -68.33 50.68 M-57.18 54.05 C-61.03 52.81, -65.46 52.01, -68.33 50.68 M-68.33 50.68 C-68.5 50.26, -68.52 49.8, -68.83 48.97 M-68.33 50.68 C-68.59 50.01, -68.73 49.56, -68.83 48.97 M-68.83 48.97 C-67.56 19.44, -69.75 -8.55, -70.57 -30.08 M-68.83 48.97 C-69.23 32.34, -69.11 15.29, -70.57 -30.08 M-70.57 -30.08 C-69.99 -30.39, -69.31 -30.59, -68.37 -30.65 M-70.57 -30.08 C-69.97 -30.33, -69.27 -30.36, -68.37 -30.65 M-68.37 -30.65 C-45.82 -20.31, -23.32 -10.3, 0 0 M-68.37 -30.65 C-48.55 -23.22, -30.05 -12.76, 0 0 M0 0 C0 0, 0 0, 0 0 M0 0 C0 0, 0 0, 0 0" stroke="transparent" stroke-width="2" fill="none"></path></g></g><mask></mask><g stroke-linecap="round"><g transform="translate(127.39343821451155 57.060566584481876) rotate(0 4.226471047068088 76.522854522019)"><path d="M0 0 C-2.59 1.41, -5.12 2.98, -7.4 3.56 M0 0 C-1.67 1.05, -3.32 1.45, -7.4 3.56 M-7.4 3.56 C-27.66 15.65, -53.11 25.65, -64.14 33.26 M-7.4 3.56 C-21 10.39, -33.98 16.79, -64.14 33.26 M-64.14 33.26 C-65.34 34.02, -68.65 35.01, -70.72 37.05 M-64.14 33.26 C-65.44 34.36, -66.51 34.44, -70.72 37.05 M-70.72 37.05 C-71.3 37.89, -71.35 39.36, -72.19 40.38 M-70.72 37.05 C-71.07 37.65, -71.45 38.36, -72.19 40.38 M-72.19 40.38 C-73.41 55.78, -72.42 68.19, -72.19 104.99 M-72.19 40.38 C-72.1 54.66, -72.47 69.57, -72.19 104.99 M-72.19 104.99 C-72.61 106.65, -72.5 107.89, -72.19 111.65 M-72.19 104.99 C-71.95 107.52, -72.18 110, -72.19 111.65 M-72.19 111.65 C-72.02 112.59, -71.65 113.25, -70.72 115.26 M-72.19 111.65 C-71.78 112.57, -71.5 113.41, -70.72 115.26 M-70.72 115.26 C-70.2 115.91, -68.77 116.55, -66.44 119.06 M-70.72 115.26 C-69.86 116.39, -68.82 117.4, -66.44 119.06 M-66.44 119.06 C-54.68 124.56, -46.01 129.07, -37.81 133.59 M-66.44 119.06 C-57.43 123.43, -49.72 127.59, -37.81 133.59 M-37.81 133.59 C-26.62 139, -18.35 141.56, -5.67 150.45 M-37.81 133.59 C-28.76 139.32, -18.96 144.1, -5.67 150.45 M-5.67 150.45 C-3.75 151.02, -1.86 152.94, 1.2 154.05 M-5.67 150.45 C-3.57 152.06, -0.94 152.83, 1.2 154.05 M1.2 154.05 C3.23 154.3, 4.63 153.53, 6.28 153.49 M1.2 154.05 C2.43 153.85, 3.39 154.04, 6.28 153.49 M6.28 153.49 C9.71 150.82, 12.1 150.3, 14.42 148.19 M6.28 153.49 C8.71 152.19, 11.67 150.54, 14.42 148.19 M14.42 148.19 C26.05 140.59, 40.52 136.24, 71.27 118.82 M14.42 148.19 C34.03 139.18, 55.6 128.5, 71.27 118.82 M71.27 118.82 C73.55 117.59, 74.72 117.3, 78.99 116.11 M71.27 118.82 C72.97 118, 74.5 117.58, 78.99 116.11 M78.99 116.11 C79.15 115.46, 79.64 114.56, 80.64 113.18 M78.99 116.11 C79.64 114.99, 80.38 113.78, 80.64 113.18 M80.64 113.18 C80.87 96.3, 82.54 80.46, 80.64 41 M80.64 113.18 C79.86 95.74, 79.94 77.7, 80.64 41 M80.64 41 C80.23 39.9, 79.34 38.33, 78.35 36.61 M80.64 41 C80.04 39.91, 79.43 38.79, 78.35 36.61 M78.35 36.61 C76.3 35.17, 74.82 33.79, 72.76 32.89 M78.35 36.61 C75.8 35.02, 74 33.93, 72.76 32.89 M72.76 32.89 C60.39 28.22, 49.65 21.58, 19.5 5.19 M72.76 32.89 C57.19 24.53, 40.03 17.26, 19.5 5.19 M19.5 5.19 C17.04 3.53, 12.33 1.67, 9.71 0.01 M19.5 5.19 C15.85 2.87, 11.85 0.8, 9.71 0.01 M9.71 0.01 C7.76 0.19, 6.52 -0.67, 4.24 -1.01 M9.71 0.01 C8.5 -0.38, 6.74 -0.4, 4.24 -1.01 M4.24 -1.01 C2.45 -1.04, 1.26 0.13, 0 0 M4.24 -1.01 C2.43 -0.54, 0.81 -0.37, 0 0" stroke="#000000" stroke-width="4" fill="none"></path></g></g><mask></mask><g stroke-linecap="round"><g transform="translate(67.29376866537598 50.584020027279166) rotate(0 33.54685069070655 -13.959309471486392)"><path d="M0 0 C2.41 1.25, 4.81 2.5, 11.77 6.11 M0 0 C4.55 2.36, 9.1 4.73, 11.77 6.11 M11.77 6.11 C14.18 4.83, 16.58 3.54, 21.74 0.79 M11.77 6.11 C14.08 4.88, 16.39 3.65, 21.74 0.79 M21.74 0.79 C21.89 -2.14, 22.05 -5.06, 22.22 -8.44 M21.74 0.79 C21.88 -1.84, 22.02 -4.47, 22.22 -8.44 M22.22 -8.44 C22.32 -9.72, 22.41 -11, 22.61 -13.83 M22.22 -8.44 C22.35 -10.17, 22.47 -11.89, 22.61 -13.83 M22.61 -13.83 C22.79 -14.93, 22.97 -16.02, 23.32 -18.15 M22.61 -13.83 C22.77 -14.81, 22.93 -15.78, 23.32 -18.15 M23.32 -18.15 C23.53 -18.67, 23.75 -19.19, 24.32 -20.56 M23.32 -18.15 C23.62 -18.87, 23.91 -19.59, 24.32 -20.56 M24.32 -20.56 C24.5 -20.45, 24.68 -20.34, 25.1 -20.08 M24.32 -20.56 C24.5 -20.45, 24.68 -20.34, 25.1 -20.08 M25.1 -20.08 C26.27 -19.62, 27.44 -19.15, 30.18 -18.07 M25.1 -20.08 C26.15 -19.66, 27.2 -19.25, 30.18 -18.07 M30.18 -18.07 C31.05 -17.42, 31.92 -16.77, 34.03 -15.18 M30.18 -18.07 C31.27 -17.25, 32.36 -16.43, 34.03 -15.18 M34.03 -15.18 C34.74 -14.3, 35.45 -13.41, 36.73 -11.81 M34.03 -15.18 C34.82 -14.2, 35.61 -13.22, 36.73 -11.81 M36.73 -11.81 C37.82 -10.74, 38.9 -9.67, 40.47 -8.11 M36.73 -11.81 C37.55 -11, 38.38 -10.19, 40.47 -8.11 M40.47 -8.11 C41.13 -6.72, 41.79 -5.33, 42.62 -3.58 M40.47 -8.11 C41.13 -6.72, 41.79 -5.33, 42.62 -3.58 M42.62 -3.58 C43.16 -2.2, 43.71 -0.81, 44.93 2.28 M42.62 -3.58 C43.16 -2.2, 43.7 -0.83, 44.93 2.28 M44.93 2.28 C45.05 4.01, 45.17 5.74, 45.37 8.62 M44.93 2.28 C45.02 3.65, 45.12 5.01, 45.37 8.62 M45.37 8.62 C45.36 10.03, 45.35 11.44, 45.35 12.67 M45.37 8.62 C45.36 10.17, 45.35 11.73, 45.35 12.67 M45.35 12.67 C51.8 10.48, 58.26 8.29, 67.65 5.11 M45.35 12.67 C51.76 10.49, 58.18 8.32, 67.65 5.11 M67.65 5.11 C66.81 1.26, 65.96 -2.6, 64.6 -8.84 M67.65 5.11 C66.8 1.23, 65.95 -2.65, 64.6 -8.84 M64.6 -8.84 C63.45 -10.87, 62.3 -12.89, 58.92 -18.8 M64.6 -8.84 C63.46 -10.85, 62.32 -12.85, 58.92 -18.8 M58.92 -18.8 C57.01 -21.37, 55.1 -23.93, 53.24 -26.43 M58.92 -18.8 C56.72 -21.75, 54.52 -24.71, 53.24 -26.43 M53.24 -26.43 C51.87 -27.8, 50.5 -29.17, 48.28 -31.4 M53.24 -26.43 C51.54 -28.13, 49.84 -29.83, 48.28 -31.4 M48.28 -31.4 C47.35 -32.11, 46.42 -32.81, 43.91 -34.72 M48.28 -31.4 C46.8 -32.53, 45.32 -33.65, 43.91 -34.72 M43.91 -34.72 C42.25 -35.4, 40.6 -36.08, 38.18 -37.07 M43.91 -34.72 C42.16 -35.44, 40.41 -36.16, 38.18 -37.07 M38.18 -37.07 C36.7 -37.64, 35.22 -38.22, 32.42 -39.3 M38.18 -37.07 C36.93 -37.55, 35.68 -38.04, 32.42 -39.3 M32.42 -39.3 C31.33 -39.61, 30.24 -39.91, 27.85 -40.58 M32.42 -39.3 C30.64 -39.8, 28.86 -40.3, 27.85 -40.58 M27.85 -40.58 C25.3 -40.5, 22.76 -40.41, 21.26 -40.36 M27.85 -40.58 C26.1 -40.52, 24.35 -40.47, 21.26 -40.36 M21.26 -40.36 C19.79 -39.9, 18.33 -39.43, 15.16 -38.43 M21.26 -40.36 C19.39 -39.77, 17.52 -39.18, 15.16 -38.43 M15.16 -38.43 C12.35 -36.85, 9.55 -35.27, 7.94 -34.36 M15.16 -38.43 C12.38 -36.87, 9.6 -35.3, 7.94 -34.36 M7.94 -34.36 C6.85 -33.66, 5.77 -32.96, 3.12 -31.24 M7.94 -34.36 C6.63 -33.51, 5.31 -32.66, 3.12 -31.24 M3.12 -31.24 C2.51 -29.69, 1.9 -28.13, 0.28 -23.97 M3.12 -31.24 C2.46 -29.55, 1.79 -27.85, 0.28 -23.97 M0.28 -23.97 C0.1 -22.62, -0.07 -21.27, -0.44 -18.4 M0.28 -23.97 C0.05 -22.23, -0.17 -20.5, -0.44 -18.4 M-0.44 -18.4 C-0.47 -13.4, -0.51 -8.4, -0.55 -0.8 M-0.44 -18.4 C-0.48 -12.64, -0.52 -6.89, -0.55 -0.8" stroke="#000" stroke-width="4" fill="none"></path></g></g><mask></mask><g stroke-linecap="round"><g transform="translate(94.4256112938125 24.630596262304152) rotate(0 8.658097101938495 20.663700921520984)" fill-rule="evenodd"><path d="M0 0 L-19.89 -3.25 L-22.5 -4.13 L-18.53 -7.13 L-9.26 -12.03 L-2.92 -13.19 L3.42 -12.74 L11.58 -9.82 L17.47 -6.14 L24.51 -0.05 L29.5 6.29 L33.58 13.09 L36.75 20.54 L38.66 26.93 L39.52 30.96 L39.82 50.14 L31.86 54.52 L27.53 30.3 L26.02 25.97 L22.1 20.34 L18.02 13.09 L14.9 8.56 L10.77 5.13 L6.9 1.31 L4.83 -0.3 L1.06 -0.05" stroke="none" stroke-width="0" fill="#9775fa" fill-rule="evenodd"></path><path d="M0 0 C-6.16 -1.01, -12.33 -2.01, -19.89 -3.25 M0 0 C-6.75 -1.1, -13.49 -2.2, -19.89 -3.25 M-19.89 -3.25 C-20.78 -3.55, -21.67 -3.85, -22.5 -4.13 M-19.89 -3.25 C-20.74 -3.53, -21.58 -3.82, -22.5 -4.13 M-22.5 -4.13 C-21.49 -4.89, -20.48 -5.66, -18.53 -7.13 M-22.5 -4.13 C-20.97 -5.28, -19.44 -6.44, -18.53 -7.13 M-18.53 -7.13 C-16.33 -8.29, -14.13 -9.45, -9.26 -12.03 M-18.53 -7.13 C-16.21 -8.35, -13.9 -9.58, -9.26 -12.03 M-9.26 -12.03 C-6.85 -12.47, -4.44 -12.91, -2.92 -13.19 M-9.26 -12.03 C-7.73 -12.31, -6.2 -12.59, -2.92 -13.19 M-2.92 -13.19 C-0.75 -13.03, 1.42 -12.88, 3.42 -12.74 M-2.92 -13.19 C-1.16 -13.06, 0.6 -12.94, 3.42 -12.74 M3.42 -12.74 C5.94 -11.83, 8.45 -10.93, 11.58 -9.82 M3.42 -12.74 C6.32 -11.7, 9.23 -10.66, 11.58 -9.82 M11.58 -9.82 C13.05 -8.9, 14.52 -7.98, 17.47 -6.14 M11.58 -9.82 C13.63 -8.54, 15.67 -7.26, 17.47 -6.14 M17.47 -6.14 C19.45 -4.42, 21.44 -2.71, 24.51 -0.05 M17.47 -6.14 C19.49 -4.4, 21.51 -2.65, 24.51 -0.05 M24.51 -0.05 C26.13 2, 27.74 4.05, 29.5 6.29 M24.51 -0.05 C26.31 2.23, 28.1 4.52, 29.5 6.29 M29.5 6.29 C30.55 8.05, 31.6 9.8, 33.58 13.09 M29.5 6.29 C31.13 9.01, 32.75 11.72, 33.58 13.09 M33.58 13.09 C34.82 16.01, 36.06 18.93, 36.75 20.54 M33.58 13.09 C34.44 15.11, 35.3 17.13, 36.75 20.54 M36.75 20.54 C37.15 21.9, 37.56 23.27, 38.66 26.93 M36.75 20.54 C37.45 22.89, 38.15 25.24, 38.66 26.93 M38.66 26.93 C38.88 27.95, 39.09 28.96, 39.52 30.96 M38.66 26.93 C39 28.53, 39.34 30.12, 39.52 30.96 M39.52 30.96 C39.59 35.55, 39.66 40.15, 39.82 50.14 M39.52 30.96 C39.6 36.18, 39.68 41.39, 39.82 50.14 M39.82 50.14 C36.89 51.75, 33.97 53.35, 31.86 54.52 M39.82 50.14 C37.37 51.48, 34.93 52.83, 31.86 54.52 M31.86 54.52 C30.79 48.54, 29.73 42.56, 27.53 30.3 M31.86 54.52 C30.56 47.2, 29.25 39.88, 27.53 30.3 M27.53 30.3 C26.98 28.71, 26.42 27.11, 26.02 25.97 M27.53 30.3 C27.03 28.85, 26.52 27.4, 26.02 25.97 M26.02 25.97 C24.99 24.5, 23.96 23.02, 22.1 20.34 M26.02 25.97 C25.02 24.54, 24.02 23.1, 22.1 20.34 M22.1 20.34 C20.65 17.77, 19.21 15.2, 18.02 13.09 M22.1 20.34 C21 18.39, 19.91 16.45, 18.02 13.09 M18.02 13.09 C16.99 11.59, 15.96 10.1, 14.9 8.56 M18.02 13.09 C17.29 12.03, 16.56 10.97, 14.9 8.56 M14.9 8.56 C13.29 7.22, 11.68 5.89, 10.77 5.13 M14.9 8.56 C13.86 7.69, 12.82 6.83, 10.77 5.13 M10.77 5.13 C9.95 4.33, 9.13 3.52, 6.9 1.31 M10.77 5.13 C9.4 3.78, 8.04 2.43, 6.9 1.31 M6.9 1.31 C6.47 0.98, 6.04 0.64, 4.83 -0.3 M6.9 1.31 C6.3 0.84, 5.7 0.37, 4.83 -0.3 M4.83 -0.3 C3.76 -0.23, 2.68 -0.16, 1.06 -0.05 M4.83 -0.3 C3.96 -0.24, 3.08 -0.19, 1.06 -0.05 M1.06 -0.05 C0.73 -0.03, 0.41 -0.02, 0 0 M1.06 -0.05 C0.69 -0.03, 0.33 -0.02, 0 0" stroke="transparent" stroke-width="4" fill="none"></path></g></g><mask></mask><g stroke-linecap="round"><g transform="translate(87.6027586497404 51.41270450287311) rotate(0 -4.314369381264498 -9.097292535697704)" fill-rule="evenodd"><path d="M0 0 L-9.1 4.8 L-11.66 -14.84 L-11.46 -22.54 L3.03 -22.99 L1.27 -18.46 L0.37 -13.73 L0.37 -6.88 L-0.09 -0.09" stroke="none" stroke-width="0" fill="#9775fa" fill-rule="evenodd"></path><path d="M0 0 C-3 1.58, -6 3.16, -9.1 4.8 M0 0 C-2.17 1.14, -4.34 2.29, -9.1 4.8 M-9.1 4.8 C-9.77 -0.33, -10.44 -5.45, -11.66 -14.84 M-9.1 4.8 C-9.78 -0.43, -10.47 -5.66, -11.66 -14.84 M-11.66 -14.84 C-11.62 -16.69, -11.57 -18.55, -11.46 -22.54 M-11.66 -14.84 C-11.62 -16.39, -11.58 -17.94, -11.46 -22.54 M-11.46 -22.54 C-6.49 -22.69, -1.53 -22.85, 3.03 -22.99 M-11.46 -22.54 C-7.68 -22.66, -3.9 -22.78, 3.03 -22.99 M3.03 -22.99 C2.49 -21.59, 1.94 -20.18, 1.27 -18.46 M3.03 -22.99 C2.6 -21.87, 2.16 -20.75, 1.27 -18.46 M1.27 -18.46 C0.98 -16.94, 0.69 -15.41, 0.37 -13.73 M1.27 -18.46 C1.06 -17.33, 0.84 -16.2, 0.37 -13.73 M0.37 -13.73 C0.37 -12.04, 0.37 -10.36, 0.37 -6.88 M0.37 -13.73 C0.37 -11.14, 0.37 -8.54, 0.37 -6.88 M0.37 -6.88 C0.27 -5.5, 0.18 -4.11, -0.09 -0.09 M0.37 -6.88 C0.2 -4.38, 0.03 -1.88, -0.09 -0.09 M-0.09 -0.09 C-0.07 -0.07, -0.05 -0.05, 0 0 M-0.09 -0.09 C-0.06 -0.07, -0.04 -0.04, 0 0" stroke="transparent" stroke-width="4" fill="none"></path></g></g><mask></mask><g stroke-linecap="round"><g transform="translate(79.60751860343191 56.15377693741675) rotate(0 17.187219431520248 -8.29316359903973)" fill-rule="evenodd"><path d="M0 0 L-11.95 -6.06 L-11.66 -14.84 L-11.46 -22.54 L-10.25 -28.88 L-7.84 -35.22 L-2.4 -39.05 L3.94 -40.21 L10.28 -39.75 L18.44 -36.83 L24.33 -33.16 L31.38 -27.07 L36.36 -20.73 L40.44 -13.93 L43.61 -6.48 L45.47 0.36 L46.33 4.39 L46.12 23.62 L34.09 17.13 L34.35 3.74 L33.89 -1.04 L32.99 -5.98 L30.27 -12.37 L25.99 -18.01 L21.91 -22.34 L16.22 -25.46 L11.64 -26.87 L7.87 -26.62 L3.03 -22.99 L1.27 -18.46 L0.37 -13.73 L0.37 -6.88 L-0.09 -0.09" stroke="none" stroke-width="0" fill="#7950f2" fill-rule="evenodd"></path><path d="M0 0 C-3.51 -1.78, -7.02 -3.56, -11.95 -6.06 M0 0 C-3.37 -1.71, -6.73 -3.41, -11.95 -6.06 M-11.95 -6.06 C-11.85 -9.06, -11.75 -12.07, -11.66 -14.84 M-11.95 -6.06 C-11.85 -9.13, -11.75 -12.2, -11.66 -14.84 M-11.66 -14.84 C-11.61 -16.7, -11.57 -18.57, -11.46 -22.54 M-11.66 -14.84 C-11.59 -17.54, -11.52 -20.24, -11.46 -22.54 M-11.46 -22.54 C-11.02 -24.84, -10.58 -27.15, -10.25 -28.88 M-11.46 -22.54 C-11.18 -24.03, -10.89 -25.52, -10.25 -28.88 M-10.25 -28.88 C-9.74 -30.23, -9.23 -31.57, -7.84 -35.22 M-10.25 -28.88 C-9.72 -30.3, -9.18 -31.71, -7.84 -35.22 M-7.84 -35.22 C-6.24 -36.35, -4.64 -37.47, -2.4 -39.05 M-7.84 -35.22 C-5.7 -36.73, -3.55 -38.24, -2.4 -39.05 M-2.4 -39.05 C-0.68 -39.36, 1.05 -39.68, 3.94 -40.21 M-2.4 -39.05 C0 -39.49, 2.4 -39.93, 3.94 -40.21 M3.94 -40.21 C5.37 -40.11, 6.79 -40, 10.28 -39.75 M3.94 -40.21 C6.14 -40.05, 8.34 -39.89, 10.28 -39.75 M10.28 -39.75 C11.98 -39.15, 13.68 -38.54, 18.44 -36.83 M10.28 -39.75 C12.76 -38.87, 15.24 -37.98, 18.44 -36.83 M18.44 -36.83 C20.28 -35.68, 22.13 -34.53, 24.33 -33.16 M18.44 -36.83 C20.05 -35.83, 21.66 -34.83, 24.33 -33.16 M24.33 -33.16 C25.91 -31.79, 27.5 -30.42, 31.38 -27.07 M24.33 -33.16 C27.11 -30.76, 29.89 -28.35, 31.38 -27.07 M31.38 -27.07 C32.79 -25.27, 34.2 -23.47, 36.36 -20.73 M31.38 -27.07 C32.92 -25.11, 34.46 -23.14, 36.36 -20.73 M36.36 -20.73 C37.35 -19.08, 38.33 -17.43, 40.44 -13.93 M36.36 -20.73 C37.39 -19, 38.43 -17.27, 40.44 -13.93 M40.44 -13.93 C41.48 -11.49, 42.51 -9.05, 43.61 -6.48 M40.44 -13.93 C41.23 -12.07, 42.02 -10.21, 43.61 -6.48 M43.61 -6.48 C44.35 -3.75, 45.09 -1.02, 45.47 0.36 M43.61 -6.48 C44.34 -3.79, 45.07 -1.1, 45.47 0.36 M45.47 0.36 C45.65 1.19, 45.82 2.02, 46.33 4.39 M45.47 0.36 C45.68 1.36, 45.89 2.35, 46.33 4.39 M46.33 4.39 C46.26 11.1, 46.18 17.81, 46.12 23.62 M46.33 4.39 C46.26 10.73, 46.19 17.07, 46.12 23.62 M46.12 23.62 C42.01 21.4, 37.9 19.18, 34.09 17.13 M46.12 23.62 C42.4 21.61, 38.67 19.6, 34.09 17.13 M34.09 17.13 C34.19 12.23, 34.28 7.33, 34.35 3.74 M34.09 17.13 C34.17 13.23, 34.24 9.33, 34.35 3.74 M34.35 3.74 C34.19 2.15, 34.04 0.57, 33.89 -1.04 M34.35 3.74 C34.25 2.75, 34.16 1.75, 33.89 -1.04 M33.89 -1.04 C33.68 -2.22, 33.46 -3.4, 32.99 -5.98 M33.89 -1.04 C33.61 -2.58, 33.33 -4.12, 32.99 -5.98 M32.99 -5.98 C32.35 -7.48, 31.71 -8.97, 30.27 -12.37 M32.99 -5.98 C31.99 -8.31, 31 -10.65, 30.27 -12.37 M30.27 -12.37 C28.67 -14.48, 27.07 -16.59, 25.99 -18.01 M30.27 -12.37 C28.84 -14.25, 27.42 -16.12, 25.99 -18.01 M25.99 -18.01 C24.85 -19.21, 23.72 -20.42, 21.91 -22.34 M25.99 -18.01 C24.49 -19.6, 22.99 -21.19, 21.91 -22.34 M21.91 -22.34 C20.23 -23.26, 18.55 -24.18, 16.22 -25.46 M21.91 -22.34 C20.18 -23.29, 18.44 -24.24, 16.22 -25.46 M16.22 -25.46 C14.58 -25.96, 12.94 -26.47, 11.64 -26.87 M16.22 -25.46 C15.06 -25.82, 13.9 -26.17, 11.64 -26.87 M11.64 -26.87 C10.34 -26.78, 9.04 -26.69, 7.87 -26.62 M11.64 -26.87 C10.56 -26.8, 9.49 -26.72, 7.87 -26.62 M7.87 -26.62 C6.24 -25.39, 4.61 -24.17, 3.03 -22.99 M7.87 -26.62 C6.78 -25.8, 5.69 -24.99, 3.03 -22.99 M3.03 -22.99 C2.36 -21.27, 1.69 -19.54, 1.27 -18.46 M3.03 -22.99 C2.43 -21.45, 1.83 -19.91, 1.27 -18.46 M1.27 -18.46 C0.96 -16.83, 0.65 -15.21, 0.37 -13.73 M1.27 -18.46 C0.97 -16.87, 0.66 -15.27, 0.37 -13.73 M0.37 -13.73 C0.37 -11.83, 0.37 -9.93, 0.37 -6.88 M0.37 -13.73 C0.37 -12.06, 0.37 -10.4, 0.37 -6.88 M0.37 -6.88 C0.24 -5.02, 0.12 -3.15, -0.09 -0.09 M0.37 -6.88 C0.27 -5.49, 0.18 -4.1, -0.09 -0.09 M-0.09 -0.09 C-0.07 -0.07, -0.05 -0.05, 0 0 M-0.09 -0.09 C-0.05 -0.06, -0.02 -0.02, 0 0" stroke="transparent" stroke-width="4" fill="none"></path></g></g><mask></mask><g stroke-linecap="round"><g stroke-opacity="0.7" fill-opacity="0.7" transform="translate(159.6745449393328 94.60926380797571) rotate(0 11.233033867158667 0.5997963555065837)" fill-rule="evenodd"><path d="M0.71 -0.23 L12.52 6 L21.95 2.84 L8.62 -6.02 L0.24 -1.12" stroke="none" stroke-width="0" fill="#7950f2" fill-rule="evenodd"></path><path d="M0 0 C3.43 2.67, 7.59 3.66, 12.48 6.62 M0 0 C4.85 2.45, 10.11 5.07, 12.48 6.62 M12.48 6.62 C14.9 5.32, 17.97 4.25, 22.47 1.9 M12.48 6.62 C16.21 4.57, 20.09 2.95, 22.47 1.9 M22.47 1.9 C17.48 -0.2, 14.38 -3.2, 9.32 -5.42 M22.47 1.9 C19.13 -0.36, 15.69 -1.89, 9.32 -5.42 M9.32 -5.42 C6.7 -4.62, 4.16 -3.13, 0.16 -0.54 M9.32 -5.42 C6.99 -4.33, 4.35 -3.07, 0.16 -0.54 M0.16 -0.54 C0.08 -0.37, 0.02 -0.17, 0 0 M0.16 -0.54 C0.12 -0.4, 0.08 -0.28, 0 0" stroke="transparent" stroke-width="2" fill="none"></path></g></g><mask></mask><g stroke-linecap="round"><g stroke-opacity="0.7" fill-opacity="0.7" transform="translate(168.7009452107983 90.5039235639864) rotate(0 -3.260845529519088 3.857116578754159)" fill-rule="evenodd"><path d="M0.19 -0.35 L-0.1 7.2 L-7.61 3.68 L0.28 -0.26" stroke="none" stroke-width="0" fill="#d0bfff" fill-rule="evenodd"></path><path d="M0 0 C0.11 2.34, 0.57 5.08, 0.52 7.71 M0 0 C0.17 1.72, 0.18 3.64, 0.52 7.71 M0.52 7.71 C-1.57 6.68, -3.69 5.43, -7.04 4.06 M0.52 7.71 C-1.09 6.93, -2.52 6.32, -7.04 4.06 M-7.04 4.06 C-4.09 2.27, -1.5 0.65, 0 0 M-7.04 4.06 C-4.27 2.56, -1.71 0.91, 0 0 M0 0 C0 0, 0 0, 0 0 M0 0 C0 0, 0 0, 0 0" stroke="transparent" stroke-width="4" fill="none"></path></g></g><mask></mask><g stroke-linecap="round"><g stroke-opacity="0.7" fill-opacity="0.7" transform="translate(88.47410769317423 154.65875105747773) rotate(0 2.1117268569638554 -6.905626992322254)" fill-rule="evenodd"><path d="M0 0 L-2.73 -2.83 L-4.09 -5.82 L-4.43 -9.52 L-3.84 -12.09 L-1.81 -13.81 L1.13 -13.51 L3.46 -12.38 L5.45 -10.35 L7.51 -8.1 L8.62 -4.8 L8.65 -4.76 L0 0" stroke="none" stroke-width="0" fill="#7950f2" fill-rule="evenodd"></path><path d="M0 0 C-1.07 -1.1, -2.13 -2.21, -2.73 -2.83 M0 0 C-0.64 -0.66, -1.28 -1.33, -2.73 -2.83 M-2.73 -2.83 C-3.12 -3.69, -3.51 -4.55, -4.09 -5.82 M-2.73 -2.83 C-3.01 -3.44, -3.29 -4.06, -4.09 -5.82 M-4.09 -5.82 C-4.2 -7.02, -4.31 -8.22, -4.43 -9.52 M-4.09 -5.82 C-4.16 -6.58, -4.23 -7.35, -4.43 -9.52 M-4.43 -9.52 C-4.3 -10.07, -4.18 -10.62, -3.84 -12.09 M-4.43 -9.52 C-4.29 -10.11, -4.16 -10.7, -3.84 -12.09 M-3.84 -12.09 C-3.42 -12.45, -3 -12.8, -1.81 -13.81 M-3.84 -12.09 C-3.05 -12.77, -2.25 -13.44, -1.81 -13.81 M-1.81 -13.81 C-1.08 -13.74, -0.35 -13.66, 1.13 -13.51 M-1.81 -13.81 C-1.16 -13.75, -0.51 -13.68, 1.13 -13.51 M1.13 -13.51 C1.69 -13.24, 2.24 -12.97, 3.46 -12.38 M1.13 -13.51 C1.71 -13.23, 2.3 -12.94, 3.46 -12.38 M3.46 -12.38 C4.24 -11.59, 5.01 -10.8, 5.45 -10.35 M3.46 -12.38 C4.07 -11.75, 4.69 -11.13, 5.45 -10.35 M5.45 -10.35 C6.04 -9.71, 6.63 -9.07, 7.51 -8.1 M5.45 -10.35 C6.08 -9.67, 6.7 -8.99, 7.51 -8.1 M7.51 -8.1 C7.78 -7.29, 8.06 -6.47, 8.62 -4.8 M7.51 -8.1 C7.87 -7.03, 8.23 -5.96, 8.62 -4.8 M8.62 -4.8 C8.63 -4.79, 8.64 -4.77, 8.65 -4.76 M8.62 -4.8 C8.62 -4.79, 8.63 -4.78, 8.65 -4.76 M8.65 -4.76 C5.59 -3.08, 2.53 -1.39, 0 0 M8.65 -4.76 C5.9 -3.25, 3.16 -1.74, 0 0 M0 0 C0 0, 0 0, 0 0 M0 0 C0 0, 0 0, 0 0" stroke="transparent" stroke-width="4" fill="none"></path></g></g><mask></mask><g stroke-linecap="round"><g stroke-opacity="0.6" fill-opacity="0.6" transform="translate(92.65441614999838 158.71897695167672) rotate(0 -0.10703386376729895 2.0312136214881775)" fill-rule="evenodd"><path d="M0 0 L0.26 10.97 L-0.46 12.45 L-2.9 11.92 L-3.93 10.53 L-4.77 8.85 L-4.4 -4.01 L4 -8.39 L4.56 -5.54 L3.81 -1.48 L2.78 -0.56 L0 0" stroke="none" stroke-width="0" fill="#9775fa" fill-rule="evenodd"></path><path d="M0 0 C0.06 2.65, 0.12 5.29, 0.26 10.97 M0 0 C0.06 2.54, 0.12 5.08, 0.26 10.97 M0.26 10.97 C0.03 11.44, -0.2 11.91, -0.46 12.45 M0.26 10.97 C0.05 11.39, -0.15 11.82, -0.46 12.45 M-0.46 12.45 C-1.04 12.33, -1.62 12.2, -2.9 11.92 M-0.46 12.45 C-1.24 12.28, -2.02 12.11, -2.9 11.92 M-2.9 11.92 C-3.16 11.57, -3.42 11.22, -3.93 10.53 M-2.9 11.92 C-3.13 11.61, -3.36 11.29, -3.93 10.53 M-3.93 10.53 C-4.11 10.17, -4.29 9.81, -4.77 8.85 M-3.93 10.53 C-4.18 10.03, -4.43 9.53, -4.77 8.85 M-4.77 8.85 C-4.69 5.9, -4.6 2.94, -4.4 -4.01 M-4.77 8.85 C-4.68 5.87, -4.6 2.89, -4.4 -4.01 M-4.4 -4.01 C-2.47 -5.02, -0.53 -6.03, 4 -8.39 M-4.4 -4.01 C-2.66 -4.92, -0.92 -5.82, 4 -8.39 M4 -8.39 C4.13 -7.75, 4.25 -7.11, 4.56 -5.54 M4 -8.39 C4.16 -7.58, 4.32 -6.77, 4.56 -5.54 M4.56 -5.54 C4.36 -4.47, 4.16 -3.41, 3.81 -1.48 M4.56 -5.54 C4.34 -4.36, 4.12 -3.18, 3.81 -1.48 M3.81 -1.48 C3.51 -1.22, 3.22 -0.95, 2.78 -0.56 M3.81 -1.48 C3.58 -1.28, 3.36 -1.08, 2.78 -0.56 M2.78 -0.56 C1.93 -0.39, 1.08 -0.22, 0 0 M2.78 -0.56 C1.93 -0.39, 1.08 -0.22, 0 0 M0 0 C0 0, 0 0, 0 0 M0 0 C0 0, 0 0, 0 0" stroke="transparent" stroke-width="4" fill="none"></path></g></g><mask></mask><g stroke-linecap="round"><g transform="translate(91.50852447623186 156.7357166523666) rotate(0 2.4941842962240344 -1.4836781976346742)" fill-rule="evenodd"><path d="M0 0 L4.6 -3.18 L4.99 -2 L3.46 0.08 L1.75 0.21" stroke="none" stroke-width="0" fill="#e5f2ff" fill-rule="evenodd"></path><path d="M0 0 C1.57 -1.08, 3.14 -2.16, 4.6 -3.18 M0 0 C1.49 -1.03, 2.98 -2.06, 4.6 -3.18 M4.6 -3.18 C4.7 -2.88, 4.8 -2.58, 4.99 -2 M4.6 -3.18 C4.75 -2.72, 4.9 -2.27, 4.99 -2 M4.99 -2 C4.63 -1.51, 4.27 -1.02, 3.46 0.08 M4.99 -2 C4.61 -1.48, 4.23 -0.96, 3.46 0.08 M3.46 0.08 C2.81 0.13, 2.16 0.18, 1.75 0.21 M3.46 0.08 C3.05 0.11, 2.64 0.14, 1.75 0.21 M1.75 0.21 C1.15 0.14, 0.55 0.07, 0 0 M1.75 0.21 C1.26 0.15, 0.78 0.09, 0 0" stroke="transparent" stroke-width="1" fill="none"></path></g></g><mask></mask><g stroke-linecap="round"><g transform="translate(128.73118969677682 133.94881222001482) rotate(0 38.30211653995889 32.436380749128716)" fill-rule="evenodd"><path d="M1.25 1.69 L-1.46 -7.94 L4.43 -8.48 L5.93 -4.64 L-1.37 -1.87 L-0.21 8.4 L-1.32 47.5 L-0.31 66.67 L1.16 72.87 L1.87 73.54 L67.14 39.08 L75.66 36.26 L74.92 34.1 L6.44 -2.54" stroke="none" stroke-width="0" fill="#eebefa" fill-rule="evenodd"></path><path d="M0 0 C-0.36 -2.31, 0.46 -4.06, 0.44 -7.7 M0 0 C0.19 -1.71, 0.07 -4.47, 0.44 -7.7 M0.44 -7.7 C1.38 -7.81, 2.81 -7.7, 4.57 -8.62 M0.44 -7.7 C1.14 -7.97, 1.97 -7.92, 4.57 -8.62 M4.57 -8.62 C4.71 -7.13, 4.46 -5.64, 4.83 -3.72 M4.57 -8.62 C4.49 -7.44, 4.86 -6.04, 4.83 -3.72 M4.83 -3.72 C2.98 -2.5, 1.64 -1.79, 0.24 -0.8 M4.83 -3.72 C3.44 -3.19, 2.65 -2.42, 0.24 -0.8 M0.24 -0.8 C0.32 2.88, 0.13 5.26, 0.26 8.56 M0.24 -0.8 C-0.13 1.16, 0.24 3.4, 0.26 8.56 M0.26 8.56 C-1.53 18.69, 0.82 27.54, -0.26 45.99 M0.26 8.56 C-0.86 21.81, -0.86 36.71, -0.26 45.99 M-0.26 45.99 C-2.01 49.2, 1.01 53.38, 0.77 67.83 M-0.26 45.99 C-0.43 54.31, 0.52 61.13, 0.77 67.83 M0.77 67.83 C0.55 69.25, 0.44 69.89, 0.18 73.3 M0.77 67.83 C0.51 69.51, 0.53 70.78, 0.18 73.3 M0.18 73.3 C0.69 73.16, 1.4 73.22, 2.72 73.49 M0.18 73.3 C0.99 73.41, 1.78 73.5, 2.72 73.49 M2.72 73.49 C26.44 60.42, 55.45 49.52, 67.84 40.21 M2.72 73.49 C21.79 63.2, 41.92 52.28, 67.84 40.21 M67.84 40.21 C70.01 39.22, 71.78 37.3, 75.21 35.66 M67.84 40.21 C70.47 38.64, 73.3 36.61, 75.21 35.66 M75.21 35.66 C75.56 34.5, 76.6 33.73, 76.86 32.71 M75.21 35.66 C75.8 34.42, 76.39 33.42, 76.86 32.71 M76.86 32.71 C48.07 18.34, 24.77 7.51, 5.07 -3.32 M76.86 32.71 C50.68 19.24, 22.76 4.79, 5.07 -3.32 M5.07 -3.32 C4.09 -2.45, 1.94 -1.94, 0 0 M5.07 -3.32 C3.37 -2.46, 1.95 -1.37, 0 0" stroke="transparent" stroke-width="2" fill="none"></path></g></g><mask></mask><g stroke-linecap="round"><g transform="translate(92.91724459655518 157.34039165548757) rotate(0 -2.242289092312319 -2.4744680243059065)"><path d="M0 0 C0.18 3.73, -0.05 7.45, 0.26 10.97 M0 0 C-0.02 3.57, 0.03 7.42, 0.26 10.97 M0.26 10.97 C0.15 11.41, -0.17 11.71, -0.46 12.45 M0.26 10.97 C-0.02 11.53, -0.23 11.97, -0.46 12.45 M-0.46 12.45 C-1.41 12.16, -2.28 11.95, -2.9 11.92 M-0.46 12.45 C-0.98 12.33, -1.6 12.15, -2.9 11.92 M-2.9 11.92 C-3.16 11.65, -3.38 11.25, -3.93 10.53 M-2.9 11.92 C-3.1 11.59, -3.34 11.34, -3.93 10.53 M-3.93 10.53 C-4.2 10.05, -4.48 9.5, -4.77 8.85 M-3.93 10.53 C-4.25 9.84, -4.61 9.17, -4.77 8.85 M-4.77 8.85 C-4.38 5.88, -4.21 2.25, -4.65 -2.65 M-4.77 8.85 C-4.83 4.44, -4.91 0.01, -4.65 -2.65 M-4.65 -2.65 C-5.13 -3.68, -5.68 -4.15, -7.34 -6.42 M-4.65 -2.65 C-5.59 -4.06, -6.59 -5.25, -7.34 -6.42 M-7.34 -6.42 C-7.65 -7.16, -7.98 -7.68, -8.7 -9.41 M-7.34 -6.42 C-7.73 -7.27, -8.24 -8.22, -8.7 -9.41 M-8.7 -9.41 C-8.7 -10.69, -8.86 -11.83, -9.04 -13.11 M-8.7 -9.41 C-8.83 -10.37, -8.8 -11.41, -9.04 -13.11 M-9.04 -13.11 C-8.77 -13.59, -8.77 -14.16, -8.46 -15.69 M-9.04 -13.11 C-8.75 -14.19, -8.59 -15.19, -8.46 -15.69 M-8.46 -15.69 C-7.92 -16.23, -7.18 -16.59, -6.43 -17.4 M-8.46 -15.69 C-7.88 -16.22, -7.16 -16.74, -6.43 -17.4 M-6.43 -17.4 C-5.62 -17.27, -4.89 -17.35, -3.49 -17.11 M-6.43 -17.4 C-5.72 -17.33, -4.88 -17.2, -3.49 -17.11 M-3.49 -17.11 C-2.6 -16.62, -1.86 -16.41, -1.15 -15.97 M-3.49 -17.11 C-2.94 -16.87, -2.32 -16.58, -1.15 -15.97 M-1.15 -15.97 C-0.39 -15.3, 0.48 -14.35, 0.84 -13.94 M-1.15 -15.97 C-0.32 -15.23, 0.46 -14.31, 0.84 -13.94 M0.84 -13.94 C1.27 -13.4, 1.61 -13.14, 2.9 -11.7 M0.84 -13.94 C1.3 -13.33, 1.81 -12.88, 2.9 -11.7 M2.9 -11.7 C3.28 -10.6, 3.57 -9.35, 4 -8.39 M2.9 -11.7 C3.3 -10.58, 3.64 -9.55, 4 -8.39 M4 -8.39 C4.23 -7.41, 4.44 -6.41, 4.56 -5.54 M4 -8.39 C4.15 -7.5, 4.3 -6.55, 4.56 -5.54 M4.56 -5.54 C4.21 -3.97, 4.18 -2.78, 3.81 -1.48 M4.56 -5.54 C4.39 -4.44, 4.12 -3.18, 3.81 -1.48 M3.81 -1.48 C3.45 -1.23, 3.18 -0.82, 2.78 -0.56 M3.81 -1.48 C3.6 -1.29, 3.39 -1.07, 2.78 -0.56 M2.78 -0.56 C2.03 -0.46, 1.35 -0.27, 0 0 M2.78 -0.56 C1.98 -0.36, 1.04 -0.25, 0 0" stroke="transparent" stroke-width="2" fill="none"></path></g></g><mask></mask><g stroke-linecap="round"><g stroke-opacity="0.9" fill-opacity="0.9" transform="translate(63.897452492567595 95.69541771058539) rotate(0 66.6253750713546 16.78300836260985)"><path d="M0 0 C16.51 8.56, 35.28 17.9, 65.49 33.57 M0 0 C24.71 12.74, 50.16 26.57, 65.49 33.57 M65.49 33.57 C84.99 23.71, 109.72 12.31, 133.25 3.42 M65.49 33.57 C84.24 24.01, 102.58 17.07, 133.25 3.42" stroke="#ffffff" stroke-width="2" fill="none"></path></g></g><mask></mask><g stroke-linecap="round"><g stroke-opacity="0.9" fill-opacity="0.9" transform="translate(130.52281364817657 131.03473180472952) rotate(0 0.25333614741515476 37.872602510632305)"><path d="M0 0 C0.89 22.68, 1.81 43.8, 0.51 75.75 M0 0 C-0.92 15.27, -0.03 31.69, 0.51 75.75" stroke="#ffffff" stroke-width="2" fill="none"></path></g></g><mask></mask><g stroke-linecap="round"><g transform="translate(200.24969342308242 173.7626426098081) rotate(0 -1.5149093288555378 38.23188485318576)" fill-rule="evenodd"><path d="M0.45 0.59 L-9.37 5.04 L-67.41 37.95 L-67.25 37.81 L-66.79 36.6 L-7.54 78.2 L0.69 77.31 L6.55 76.19 L17.72 68.27 L62.66 44.32 L64.45 40.73 L20.89 7.07 L8.01 -0.89 L5.15 0.42 L-1.93 -0.18" stroke="none" stroke-width="0" fill="#d0bfff" fill-rule="evenodd"></path><path d="M0 0 C-1.39 0.69, -5.06 1.63, -7.43 3.65 M0 0 C-1.47 1.1, -2.68 1.09, -7.43 3.65 M-7.43 3.65 C-27.79 12.88, -45.38 25.85, -68.78 37.18 M-7.43 3.65 C-20.29 10.21, -33.38 17.26, -68.78 37.18 M-68.78 37.18 C-68.69 37.61, -68.44 37.79, -67.98 38.56 M-68.78 37.18 C-68.56 37.46, -68.4 37.78, -67.98 38.56 M-67.98 38.56 C-67.93 38.58, -67.85 38.58, -67.63 38.57 M-67.98 38.56 C-67.83 38.56, -67.71 38.56, -67.63 38.57 M-67.63 38.57 C-53.56 48.83, -38.61 57.27, -7.68 77.49 M-67.63 38.57 C-54.05 48.13, -40.99 56.95, -7.68 77.49 M-7.68 77.49 C-6.49 76.86, -3.92 76.21, 0.6 76.36 M-7.68 77.49 C-5.86 77.49, -3.84 77.29, 0.6 76.36 M0.6 76.36 C2.88 76.16, 4.33 75.71, 6.08 76 M0.6 76.36 C2.38 76.22, 3.77 76.03, 6.08 76 M6.08 76 C10.49 74.34, 13.02 70.86, 16.99 68.96 M6.08 76 C8.92 74.27, 12.26 71.92, 16.99 68.96 M16.99 68.96 C29.11 62.02, 41.09 58.49, 63.41 44.02 M16.99 68.96 C31.97 62.23, 48.1 53.09, 63.41 44.02 M63.41 44.02 C64.36 42.53, 64.64 39.87, 65.75 38.73 M63.41 44.02 C64.04 42.74, 64.36 41.91, 65.75 38.73 M65.75 38.73 C50.52 24.88, 33.15 15.83, 19.57 5.32 M65.75 38.73 C50.89 28.49, 37.01 17.96, 19.57 5.32 M19.57 5.32 C16.4 3.53, 14.85 3.67, 9.75 0.02 M19.57 5.32 C15.76 3.89, 13.01 1.87, 9.75 0.02 M9.75 0.02 C8.54 -0.56, 6.58 -0.55, 4.25 -1.03 M9.75 0.02 C8.37 -0.26, 6.86 -0.36, 4.25 -1.03 M4.25 -1.03 C2.6 -0.43, 1.32 -0.14, 0 0 M4.25 -1.03 C2.59 -0.62, 1.09 -0.34, 0 0 M0 0 C0 0, 0 0, 0 0 M0 0 C0 0, 0 0, 0 0" stroke="#ffffff" stroke-width="4" fill="none"></path></g></g><mask></mask><g stroke-linecap="round"><g transform="translate(131.37608497535064 211.7205851022814) rotate(0 67.94235012993232 14.25419721090853)"><path d="M0 0 C12.5 8.78, 26.71 18.57, 44.71 30.83 M0 0 C13.79 7.41, 25.78 17.69, 44.71 30.83 M44.71 30.83 C50.3 34.06, 50.9 36.76, 61.6 40.48 M44.71 30.83 C49.33 33.62, 54.64 36.46, 61.6 40.48 M61.6 40.48 C64.14 40.5, 65.83 39.55, 71.26 40.48 M61.6 40.48 C63.92 40.28, 65.51 40.17, 71.26 40.48 M71.26 40.48 C73.14 39.52, 77.06 38.01, 82.12 34.98 M71.26 40.48 C74.49 38.49, 77.39 37.79, 82.12 34.98 M82.12 34.98 C92.09 27.92, 102.63 22.49, 129.85 9.1 M82.12 34.98 C93.35 29.5, 103.53 23.49, 129.85 9.1 M129.85 9.1 C131.11 6.4, 132.22 4.81, 135.88 1.33 M129.85 9.1 C130.77 7.8, 132.83 6.09, 135.88 1.33 M135.88 1.33 C129 -3.21, 126.1 -6.55, 113.96 -11.97 M135.88 1.33 C128.88 -2.92, 123.25 -6.21, 113.96 -11.97" stroke="#000000" stroke-width="4" fill="none"></path></g></g><mask></mask><g stroke-linecap="round"><g transform="translate(195.7509755669002 129.17203014870455) rotate(359.40836861563287 2.674166912179942 54.6543540381318)" fill-rule="evenodd"><path d="M-1.07 1.63 L-6.61 2.08 L-39.68 25.45 L-45.23 26.41 L-45.97 29.37 L-47.36 74.7 L-47.17 81.31 L-45.67 83.9 L-40.22 85.42 L-23.17 94.86 L-2.08 106.18 L-0.64 110.43 L2.75 108.12 L7.4 105.86 L43.5 85.88 L51.71 84.51 L52.64 79.5 L52.31 29.03 L47.88 27.78 L47.64 24.31 L11.18 2.88 L7.83 -0.35 L3.83 -0.77 L0.88 0.24" stroke="none" stroke-width="0" fill="#00bc8e" fill-rule="evenodd"></path><path d="M0 0 C-1.72 0.31, -2.49 1.38, -4.68 2.54 M0 0 C-1.72 1.07, -3.76 1.83, -4.68 2.54 M-4.68 2.54 C-14.89 8.99, -21.14 12.01, -40.58 23.75 M-4.68 2.54 C-14.69 7.06, -23.26 12.61, -40.58 23.75 M-40.58 23.75 C-42.51 24.35, -44.11 26.14, -44.75 26.46 M-40.58 23.75 C-41.81 24.19, -42.8 24.9, -44.75 26.46 M-44.75 26.46 C-44.84 27.26, -45.39 28.27, -45.67 28.84 M-44.75 26.46 C-45.07 27.24, -45.35 27.7, -45.67 28.84 M-45.67 28.84 C-47.52 42.51, -47.3 58.23, -45.67 74.99 M-45.67 28.84 C-46.16 46.05, -46.24 60.76, -45.67 74.99 M-45.67 74.99 C-45.92 75.82, -46.13 77.07, -45.67 79.75 M-45.67 74.99 C-45.5 76.75, -45.89 78.36, -45.67 79.75 M-45.67 79.75 C-45.42 80.23, -45.22 81.3, -44.75 82.32 M-45.67 79.75 C-45.45 80.49, -45.21 81.36, -44.75 82.32 M-44.75 82.32 C-43.84 83.28, -43.01 83.83, -42.04 85.03 M-44.75 82.32 C-43.89 83.24, -42.83 84.32, -42.04 85.03 M-42.04 85.03 C-36.8 86.05, -34.23 89.66, -23.92 95.41 M-42.04 85.03 C-33.9 90.13, -27.42 93.51, -23.92 95.41 M-23.92 95.41 C-17.53 99.84, -7.94 105.53, -3.59 107.45 M-23.92 95.41 C-17.92 98.57, -13.58 102.32, -3.59 107.45 M-3.59 107.45 C-2.57 107.69, -2.06 108.33, 0.76 110.03 M-3.59 107.45 C-2.15 108.25, -0.45 109.1, 0.76 110.03 M0.76 110.03 C1.75 109.99, 2.11 109.63, 3.97 109.63 M0.76 110.03 C1.96 109.76, 3.38 109.74, 3.97 109.63 M3.97 109.63 C4.86 109.61, 6.93 108.34, 9.12 107.21 M3.97 109.63 C5.4 109.22, 6.77 108.04, 9.12 107.21 M9.12 107.21 C24.3 97.35, 35.66 91.36, 45.31 86.14 M9.12 107.21 C19.32 100.37, 31.02 94.35, 45.31 86.14 M45.31 86.14 C46.11 85.65, 47.47 84.34, 49.98 82.93 M45.31 86.14 C46.8 85.28, 47.87 84.42, 49.98 82.93 M49.98 82.93 C50.27 82.25, 50.51 81.4, 51.02 80.83 M49.98 82.93 C50.35 82.23, 50.72 81.48, 51.02 80.83 M51.02 80.83 C52.94 68.63, 52.69 52.05, 51.02 29.28 M51.02 80.83 C49.83 67.62, 50.55 53.8, 51.02 29.28 M51.02 29.28 C50.53 28.28, 50.16 27.21, 49.57 26.15 M51.02 29.28 C50.78 28.29, 50.12 27.78, 49.57 26.15 M49.57 26.15 C48.78 25.01, 47.41 24.49, 46.04 23.49 M49.57 26.15 C48.78 25.52, 47.9 24.78, 46.04 23.49 M46.04 23.49 C32.01 14.45, 19.78 9.47, 12.34 3.71 M46.04 23.49 C38.36 19.3, 28.72 13.15, 12.34 3.71 M12.34 3.71 C11.61 3.52, 9.11 1.57, 6.15 0.01 M12.34 3.71 C10.5 2.49, 7.78 0.77, 6.15 0.01 M6.15 0.01 C5.31 -0.24, 5.02 -0.03, 2.68 -0.72 M6.15 0.01 C5.08 -0.08, 4.29 -0.46, 2.68 -0.72 M2.68 -0.72 C2.14 -0.52, 1.06 -0.29, 0 0 M2.68 -0.72 C1.97 -0.52, 1.36 -0.49, 0 0 M0 0 C0 0, 0 0, 0 0 M0 0 C0 0, 0 0, 0 0" stroke="#000000" stroke-width="2" fill="none"></path></g></g><mask></mask><g stroke-linecap="round" transform="translate(162.33695873681506 181.52410343577748) rotate(359.40836861563287 35.9744670354674 20.824885688710054)"><path d="M34.93 -1.58 L71.39 19.64 L36.92 42.77 L0.55 22.58" stroke="none" stroke-width="0" fill="#e5f2ff" fill-rule="evenodd"></path><path d="M36 0 C44.17 5.69, 54.87 12.31, 71.95 21 M36 0 C42.66 3.72, 49.89 9.09, 71.95 21 M71.95 21 C59.84 27.55, 46.12 33.84, 36 41.65 M71.95 21 C61.93 25.75, 53.82 31.63, 36 41.65 M36 41.65 C23.49 36.22, 12.62 29.08, 0 21 M36 41.65 C26.43 35.7, 18.81 30.77, 0 21 M0 21 C11.37 15.68, 22.53 7.58, 36 0 M0 21 C8 15.05, 17.37 10.07, 36 0" stroke="transparent" stroke-width="2" fill="none"></path></g><g stroke-linecap="round"><g transform="translate(162.40349809636416 166.13488157941805) rotate(359.40836861563287 18.021129653943262 7.137948435775456)" fill-rule="evenodd"><path d="M-1.16 -1.3 L-0.79 37.63 L36.59 17.77 L34.67 -22.93 L26.03 -18.01 L25.72 18.07 L16.81 26.25 L15.68 -9.84 L12.89 -7.17 L2.53 -0.06" stroke="none" stroke-width="0" fill="#b8c2cc" fill-rule="evenodd"></path><path d="M0 0 C1.67 10.77, -2.03 18.08, 0 36.28 M0 0 C-0.85 13.55, 0.2 24.52, 0 36.28 M0 36.28 C11.96 27.6, 25.18 20.14, 35.79 16.26 M0 36.28 C9.31 31.81, 17.04 26.3, 35.79 16.26 M35.79 16.26 C34.96 8.71, 35.13 -1.84, 36.04 -22.01 M35.79 16.26 C36.59 7.33, 36.45 0.1, 36.04 -22.01 M36.04 -22.01 C33.01 -20.23, 29.79 -19.18, 26.57 -16.35 M36.04 -22.01 C32.32 -20.15, 28.24 -18.04, 26.57 -16.35 M26.57 -16.35 C27.48 -6.35, 27.97 1.32, 26.68 18.42 M26.57 -16.35 C25.87 -3.4, 25.45 9.46, 26.68 18.42 M26.68 18.42 C24.69 18.85, 22.41 22.54, 15.32 25.13 M26.68 18.42 C22.56 20.15, 18.25 23.16, 15.32 25.13 M15.32 25.13 C15.06 16.73, 14.4 10.98, 15.12 -8.15 M15.32 25.13 C15.62 15.56, 14.43 4.94, 15.12 -8.15 M15.12 -8.15 C14.85 -8.55, 14.43 -8.83, 13.96 -9.09 M15.12 -8.15 C14.77 -8.37, 14.55 -8.65, 13.96 -9.09 M13.96 -9.09 C12.46 -6.29, 7.98 -4.48, 0.93 -1.53 M13.96 -9.09 C9.51 -6.76, 3.54 -3.66, 0.93 -1.53 M0.93 -1.53 C0.61 -1.17, 0.58 -0.56, 0 0 M0.93 -1.53 C0.55 -1.05, 0.39 -0.56, 0 0" stroke="transparent" stroke-width="2" fill="none"></path></g></g><mask></mask><g stroke-linecap="round"><g transform="translate(234.21419455200947 165.85364832350587) rotate(359.40836861563287 -18.10299289098637 7.364746597182432)" fill-rule="evenodd"><path d="M-0.79 1.35 L0.8 38.25 L-37.58 14.89 L-36.59 -23.67 L-27.53 -16.7 L-25.19 19.54 L-14.76 23.44 L-16.19 -6.23 L-12.35 -7.62 L-1.8 -2.54" stroke="none" stroke-width="0" fill="#f4f7fa" fill-rule="evenodd"></path><path d="M0 0 C-1.66 12.27, 1.33 22.32, 0 36.74 M0 0 C0.2 8.9, 0.4 19.86, 0 36.74 M0 36.74 C-10.18 29.24, -20.19 24.55, -36.21 15.81 M0 36.74 C-9.47 30.63, -19.86 25.15, -36.21 15.81 M-36.21 15.81 C-36.98 0.14, -37.4 -13.51, -36.04 -22.01 M-36.21 15.81 C-36.11 7.52, -36.34 -2.61, -36.04 -22.01 M-36.04 -22.01 C-33.22 -20.48, -27.99 -18.59, -26.57 -16.35 M-36.04 -22.01 C-34.06 -21.03, -31.64 -19.61, -26.57 -16.35 M-26.57 -16.35 C-24.84 -5.55, -24.89 6.32, -26.68 18.42 M-26.57 -16.35 C-27.73 -9.63, -27.54 -2.85, -26.68 18.42 M-26.68 18.42 C-23.04 21.27, -20.63 20.71, -15.32 25.13 M-26.68 18.42 C-23.46 20.77, -19.85 22.82, -15.32 25.13 M-15.32 25.13 C-16.09 13.69, -15.07 2.08, -15.12 -8.15 M-15.32 25.13 C-16.21 11.85, -15.11 -1.57, -15.12 -8.15 M-15.12 -8.15 C-14.82 -8.44, -14.63 -8.59, -13.96 -9.09 M-15.12 -8.15 C-14.67 -8.45, -14.41 -8.84, -13.96 -9.09 M-13.96 -9.09 C-10.4 -5.89, -5.38 -4.98, -0.93 -1.53 M-13.96 -9.09 C-9.88 -7.13, -5.73 -4.12, -0.93 -1.53 M-0.93 -1.53 C-0.45 -0.92, -0.3 -0.63, 0 0 M-0.93 -1.53 C-0.56 -0.97, -0.33 -0.5, 0 0" stroke="transparent" stroke-width="2" fill="none"></path></g></g><mask></mask><g stroke-linecap="round"><g transform="translate(163.49514841232883 164.17570844918458) rotate(359.40836861563287 34.717665160527986 19.33162470911239)"><path d="M0 0 C-0.23 0.34, -0.61 0.75, -0.7 1.04 M0 0 C-0.22 0.4, -0.55 0.76, -0.7 1.04 M-0.7 1.04 C-2.23 8.21, -1.83 18.84, -1.12 37.38 M-0.7 1.04 C-1.67 11.53, -0.27 22.92, -1.12 37.38 M-1.12 37.38 C-1.13 37.76, -0.96 38.49, -0.72 38.96 M-1.12 37.38 C-1.02 37.79, -0.85 38.18, -0.72 38.96 M-0.72 38.96 C11.55 43.8, 18.99 51.45, 33.85 58.92 M-0.72 38.96 C7.28 43.4, 16.41 49.48, 33.85 58.92 M33.85 58.92 C34.69 58.71, 35.01 58.68, 35.92 58.69 M33.85 58.92 C34.35 58.77, 34.94 58.85, 35.92 58.69 M35.92 58.69 C44.26 52.47, 51.4 49.15, 69.55 38.86 M35.92 58.69 C42.04 54.45, 50.19 50.42, 69.55 38.86 M69.55 38.86 C69.79 38.5, 70.18 38.31, 70.56 37.55 M69.55 38.86 C69.93 38.39, 70.22 37.98, 70.56 37.55 M70.56 37.55 C69.88 28.77, 70.95 19.59, 70.36 1.17 M70.56 37.55 C69.41 23.87, 69.8 12.8, 70.36 1.17 M70.36 1.17 C70.25 0.47, 69.78 -0.07, 69.53 -0.74 M70.36 1.17 C70.17 0.77, 70.05 0.33, 69.53 -0.74 M69.53 -0.74 C66.79 -3, 64.57 -4.81, 58.67 -6.65 M69.53 -0.74 C65.82 -2.94, 62.61 -3.92, 58.67 -6.65 M58.67 -6.65 C57.94 -6.98, 57.22 -7.29, 56.8 -7.44 M58.67 -6.65 C58.17 -6.95, 57.55 -6.99, 56.8 -7.44 M56.8 -7.44 C56.4 -6.82, 56.22 -6.46, 55.94 -6.01 M56.8 -7.44 C56.68 -7.04, 56.37 -6.79, 55.94 -6.01 M55.94 -6.01 C57.81 0.36, 54.08 8.5, 55.54 26.42 M55.94 -6.01 C55.11 0.64, 55.9 7.61, 55.54 26.42 M55.54 26.42 C51.06 23.84, 47.79 21.27, 44.73 20.23 M55.54 26.42 C51.81 23.89, 47.18 21.71, 44.73 20.23 M44.73 20.23 C45.24 9.28, 45.77 3.59, 43.7 -13.72 M44.73 20.23 C44.68 7.74, 43.98 -2.42, 43.7 -13.72 M43.7 -13.72 C41.1 -15.29, 37.94 -18.09, 34.92 -20.25 M43.7 -13.72 C41.34 -15.21, 37.74 -18, 34.92 -20.25 M34.92 -20.25 C31.6 -18.66, 27.58 -15.85, 25.45 -14.6 M34.92 -20.25 C32.93 -18.73, 30.84 -17.85, 25.45 -14.6 M25.45 -14.6 C23.86 -8.78, 27.73 1.13, 25.56 20.17 M25.45 -14.6 C24.99 -3.77, 25.81 5.64, 25.56 20.17 M25.56 20.17 C22.55 22.01, 18.72 25.32, 14.29 27.32 M25.56 20.17 C21.27 22.6, 18.34 24.68, 14.29 27.32 M14.29 27.32 C15.39 18.03, 12.99 8.69, 14 -6.4 M14.29 27.32 C14.62 15.08, 12.9 5.03, 14 -6.4 M14 -6.4 C13.81 -6.68, 13.39 -6.93, 12.83 -7.34 M14 -6.4 C13.58 -6.67, 13.25 -7.07, 12.83 -7.34 M12.83 -7.34 C10.94 -4.46, 6.68 -4.31, 0 0 M12.83 -7.34 C9.07 -5.35, 5.4 -3.46, 0 0" stroke="#000000" stroke-width="2" fill="none"></path></g></g><mask></mask></svg>