<svg version="1.1" xmlns="http://www.w3.org/2000/svg" viewBox="0 0 312.8644611327219 277.2524435468729" width="625.7289222654438" height="554.5048870937458">
  <!-- svg-source:excalidraw -->
  
  <defs>
    <style class="style-fonts">
      @font-face {
        font-family: "Virgil";
        src: url("https://excalidraw.com/Virgil.woff2");
      }
      @font-face {
        font-family: "Cascadia";
        src: url("https://excalidraw.com/Cascadia.woff2");
      }
      @font-face {
        font-family: "Assistant";
        src: url("https://app.excalidraw.com//dist/excalidraw-assets/Assistant-Regular.woff2");
      }
    </style>
    
  </defs>
  <g stroke-linecap="round"><g transform="translate(81.19918041631144 195.39430337633075) rotate(0 10.016604984554647 6.041762707136172)"><path d="M0 0 C3.96 2.65, 9.96 5.58, 20.03 12.08" stroke="#000000" stroke-width="2.5" fill="none" stroke-dasharray="8 10"></path></g></g><mask></mask><g stroke-linecap="round" transform="translate(10 89.44164409336895) rotate(0 64.30905949419275 37.75622788674809)"><path d="M81.25 9.5 C91.1 15.31, 96.02 16.81, 112.37 28.5 C128.07 40.15, 129.68 38.49, 112.37 47.5 C103.12 51.75, 92.99 59.96, 81.25 66.01 C62.56 74.39, 64.82 76.74, 48.75 66.01 C35.79 56.12, 25.28 55.09, 16.25 47.5 C1.57 40.01, -2.54 41.1, 16.25 28.5 C24.89 24.35, 32.41 19.99, 48.75 9.5 C63.71 -2.42, 63.2 1.37, 81.25 9.5" stroke="none" stroke-width="0" fill="#f8f9fa"></path><path d="M81.25 9.5 C89.37 13.55, 94.64 16.57, 112.37 28.5 M112.37 28.5 C128.22 37.89, 128.39 36.73, 112.37 47.5 M112.37 47.5 C101.83 54.42, 87.85 62.31, 81.25 66.01 M81.25 66.01 C65.2 75.31, 63.03 75.44, 48.75 66.01 M48.75 66.01 C36.02 59.8, 21.06 50.44, 16.25 47.5 M16.25 47.5 C1.35 36.83, 0.77 37.33, 16.25 28.5 M16.25 28.5 C22.02 25.53, 30.98 19.63, 48.75 9.5 M48.75 9.5 C65.43 -0.33, 63.42 1.73, 81.25 9.5" stroke="#000000" stroke-width="2.5" fill="none" stroke-dasharray="1.5 8"></path></g><g stroke-linecap="round"><g transform="translate(70.54714754809152 69.13280838610194) rotate(0 1.864864856023388 38.11392011850455)" fill-rule="evenodd"><path d="M-1.16 1.26 L-4.06 1.28 L-26.86 18.25 L-33 20 L-32.26 20.77 L-32.75 53.79 L-30.35 54.14 L-30.35 56.62 L-28.93 58.42 L-18.22 65.52 L-1.99 74.67 L1.47 76.33 L1.92 77.59 L7.72 75.09 L32.23 61.64 L33.64 56.69 L33.9 55.1 L35.93 21.82 L35.15 18.02 L31.29 16.99 L9.43 1.98 L4.78 1.61 L1.38 1.14 L-0.54 -0.03" stroke="none" stroke-width="0" fill="#00bc8e" fill-rule="evenodd"></path><path d="M0 0 C-0.89 0.27, -1.88 0.97, -3.27 1.77 M0 0 C-0.89 0.53, -1.81 1.05, -3.27 1.77 M-3.27 1.77 C-9.17 3.24, -14.82 10.58, -28.3 16.56 M-3.27 1.77 C-8.55 4.26, -15.39 9.36, -28.3 16.56 M-28.3 16.56 C-29.33 16.73, -29.49 17.29, -31.21 18.45 M-28.3 16.56 C-29.28 17.19, -30.49 18.04, -31.21 18.45 M-31.21 18.45 C-31.18 18.89, -31.4 19.11, -31.85 20.11 M-31.21 18.45 C-31.37 18.97, -31.49 19.47, -31.85 20.11 M-31.85 20.11 C-32.49 29.47, -32.7 41.44, -31.85 52.29 M-31.85 20.11 C-32.09 30.59, -32.48 41.67, -31.85 52.29 M-31.85 52.29 C-32.07 53.82, -32.09 54.7, -31.85 55.61 M-31.85 52.29 C-31.77 53.53, -31.9 54.61, -31.85 55.61 M-31.85 55.61 C-31.63 56.18, -31.54 56.4, -31.21 57.41 M-31.85 55.61 C-31.61 56.21, -31.37 56.84, -31.21 57.41 M-31.21 57.41 C-30.78 57.81, -30.11 58.35, -29.32 59.3 M-31.21 57.41 C-30.57 57.9, -29.92 58.53, -29.32 59.3 M-29.32 59.3 C-26.78 62.76, -22.99 64.39, -16.68 66.54 M-29.32 59.3 C-24.7 61.3, -20.3 63.64, -16.68 66.54 M-16.68 66.54 C-13.05 70, -9.11 69.91, -2.5 74.93 M-16.68 66.54 C-13.22 68.53, -7.83 71.1, -2.5 74.93 M-2.5 74.93 C-2.07 75.43, -0.93 75.71, 0.53 76.73 M-2.5 74.93 C-1.59 75.47, -0.67 76.15, 0.53 76.73 M0.53 76.73 C1.18 76.68, 1.99 76.47, 2.77 76.45 M0.53 76.73 C1.04 76.58, 1.83 76.5, 2.77 76.45 M2.77 76.45 C4.35 76.24, 5.13 74.94, 6.36 74.77 M2.77 76.45 C4.06 75.84, 5.15 75.37, 6.36 74.77 M6.36 74.77 C12.54 71.12, 24.09 66.03, 31.6 60.07 M6.36 74.77 C15.95 69.23, 26.02 62.83, 31.6 60.07 M31.6 60.07 C32.33 59.67, 33.32 58.67, 34.85 57.83 M31.6 60.07 C32.79 59.35, 33.77 58.75, 34.85 57.83 M34.85 57.83 C35.21 57.25, 35.23 56.92, 35.58 56.37 M34.85 57.83 C35.05 57.32, 35.32 56.82, 35.58 56.37 M35.58 56.37 C34.77 47.11, 36.83 37.91, 35.58 20.42 M35.58 56.37 C35.93 47.06, 36.27 37.39, 35.58 20.42 M35.58 20.42 C35.38 19.8, 34.76 19.21, 34.57 18.23 M35.58 20.42 C35.21 19.64, 34.87 18.62, 34.57 18.23 M34.57 18.23 C33.7 18.02, 33.19 17.32, 32.1 16.38 M34.57 18.23 C34.11 17.97, 33.41 17.6, 32.1 16.38 M32.1 16.38 C28.44 13.22, 22.5 9.52, 8.6 2.59 M32.1 16.38 C27.57 13.44, 21.55 8.81, 8.6 2.59 M8.6 2.59 C6.58 1.94, 5.46 0.52, 4.29 0.01 M8.6 2.59 C7.65 2.08, 6.52 1.34, 4.29 0.01 M4.29 0.01 C3.95 -0.01, 3.43 -0.24, 1.87 -0.5 M4.29 0.01 C3.6 -0.22, 2.95 -0.2, 1.87 -0.5 M1.87 -0.5 C1.09 -0.23, 0.74 -0.23, 0 0 M1.87 -0.5 C1.36 -0.37, 0.93 -0.29, 0 0 M0 0 C0 0, 0 0, 0 0 M0 0 C0 0, 0 0, 0 0" stroke="#000000" stroke-width="2" fill="none"></path></g></g><mask></mask><g stroke-linecap="round" transform="translate(47.1120809610544 105.63913325904332) rotate(0 25.08725950614945 14.522503167134914)"><path d="M26.99 -0.41 L48.82 14.38 L25.9 29.73 L1.21 16.37" stroke="none" stroke-width="0" fill="#e5f2ff" fill-rule="evenodd"></path><path d="M26 0 C32.7 4.44, 39.97 7.68, 50.17 15 M26 0 C35.56 5.61, 43.38 11.69, 50.17 15 M50.17 15 C42.59 21.07, 33.85 24.79, 26 29.05 M50.17 15 C42.36 19.7, 34.96 23.68, 26 29.05 M26 29.05 C20.39 24.07, 13.38 22.65, 0 15 M26 29.05 C18.57 26.3, 11.86 21.64, 0 15 M0 15 C8.04 10.26, 13.99 7.75, 26 0 M0 15 C9.38 10.74, 17.45 4.28, 26 0" stroke="transparent" stroke-width="2" fill="none"></path></g><g stroke-linecap="round"><g transform="translate(47.368522975983865 94.77879906751264) rotate(0 12.567267661719939 4.977740589548262)" fill-rule="evenodd"><path d="M0.1 0.1 L-0.38 25.29 L25.29 10.6 L25.13 -15.49 L18.58 -10.73 L19.25 12.89 L11.26 16.8 L10.84 -6.47 L9.54 -6.61 L0.35 -0.78" stroke="none" stroke-width="0" fill="#b8c2cc" fill-rule="evenodd"></path><path d="M0 0 C-0.14 5.4, 0.7 12.43, 0 25.3 M0 0 C-0.28 7.78, 0.11 15, 0 25.3 M0 25.3 C4.36 23.03, 10.09 20.02, 24.96 11.34 M0 25.3 C4.78 22.59, 9.95 19.1, 24.96 11.34 M24.96 11.34 C25.47 6.17, 24.5 -0.09, 25.13 -15.35 M24.96 11.34 C24.67 3.66, 25.05 -3.33, 25.13 -15.35 M25.13 -15.35 C22.8 -13.76, 20.68 -12.57, 18.53 -11.4 M25.13 -15.35 C22.94 -14.1, 20.7 -12.64, 18.53 -11.4 M18.53 -11.4 C18.85 -5.17, 19.21 -0.57, 18.61 12.84 M18.53 -11.4 C18.82 -4.6, 18.75 1.42, 18.61 12.84 M18.61 12.84 C15.83 14.8, 12.53 16.64, 10.68 17.52 M18.61 12.84 C16.01 14.36, 13.7 15.79, 10.68 17.52 M10.68 17.52 C11.29 10, 10.45 0.57, 10.54 -5.69 M10.68 17.52 C10.68 11.8, 11.04 6.16, 10.54 -5.69 M10.54 -5.69 C10.36 -5.87, 10.18 -5.98, 9.73 -6.34 M10.54 -5.69 C10.35 -5.82, 10.17 -6.01, 9.73 -6.34 M9.73 -6.34 C6.44 -4.63, 3.07 -2.05, 0.65 -1.07 M9.73 -6.34 C7.43 -5.07, 5.2 -3.87, 0.65 -1.07 M0.65 -1.07 C0.4 -0.66, 0.16 -0.3, 0 0 M0.65 -1.07 C0.47 -0.77, 0.32 -0.57, 0 0" stroke="transparent" stroke-width="2" fill="none"></path></g></g><mask></mask><g stroke-linecap="round"><g transform="translate(97.44570342137678 94.84004022450813) rotate(0 -12.62435604803818 5.135901218449931)" fill-rule="evenodd"><path d="M-0.38 -0.01 L0.33 24.88 L-25.26 10.88 L-25.09 -14.67 L-17.89 -11.36 L-18.02 12.12 L-10.38 16.74 L-10.74 -5.95 L-10.03 -6.05 L-1.55 -1.63" stroke="none" stroke-width="0" fill="#f4f7fa" fill-rule="evenodd"></path><path d="M0 0 C0.71 7.89, -0.04 15.58, 0 25.62 M0 0 C-0.04 7.68, -0.58 15.44, 0 25.62 M0 25.62 C-9.95 20.36, -21.02 13.56, -25.25 11.02 M0 25.62 C-9.4 19.83, -18.92 15.24, -25.25 11.02 M-25.25 11.02 C-25.75 4.67, -25.43 -2.9, -25.13 -15.35 M-25.25 11.02 C-25.2 1.29, -24.81 -9.13, -25.13 -15.35 M-25.13 -15.35 C-23.19 -14.22, -21.31 -12.86, -18.53 -11.4 M-25.13 -15.35 C-22.53 -13.87, -20.24 -12.39, -18.53 -11.4 M-18.53 -11.4 C-17.83 -4.68, -18.82 2.08, -18.61 12.84 M-18.53 -11.4 C-18.18 -4.36, -18.06 3.01, -18.61 12.84 M-18.61 12.84 C-16.32 14.32, -14.12 15.27, -10.68 17.52 M-18.61 12.84 C-16.73 13.98, -14.78 14.98, -10.68 17.52 M-10.68 17.52 C-10.87 11.75, -11.3 6.1, -10.54 -5.69 M-10.68 17.52 C-10.24 12.25, -10.93 7.42, -10.54 -5.69 M-10.54 -5.69 C-10.33 -5.81, -10.21 -5.94, -9.73 -6.34 M-10.54 -5.69 C-10.33 -5.88, -10.1 -6.05, -9.73 -6.34 M-9.73 -6.34 C-5.91 -4.29, -3.49 -2.48, -0.65 -1.07 M-9.73 -6.34 C-8.17 -5.26, -5.89 -4.11, -0.65 -1.07 M-0.65 -1.07 C-0.48 -0.85, -0.35 -0.48, 0 0 M-0.65 -1.07 C-0.48 -0.82, -0.3 -0.49, 0 0" stroke="transparent" stroke-width="2" fill="none"></path></g></g><mask></mask><g stroke-linecap="round"><g transform="translate(48.05533240441116 93.53792646876332) rotate(0 24.210812476278647 13.481158324732064)"><path d="M0 0 C-0.11 0.22, -0.22 0.28, -0.49 0.72 M0 0 C-0.21 0.25, -0.3 0.48, -0.49 0.72 M-0.49 0.72 C-2.55 8.95, 0.65 18.12, -0.78 26.07 M-0.49 0.72 C-1.49 9.89, -1.28 18.42, -0.78 26.07 M-0.78 26.07 C-0.71 26.38, -0.49 26.77, -0.5 27.17 M-0.78 26.07 C-0.68 26.4, -0.64 26.67, -0.5 27.17 M-0.5 27.17 C9.1 33.8, 18.48 37.81, 23.61 41.09 M-0.5 27.17 C4.4 30.09, 10.54 33.93, 23.61 41.09 M23.61 41.09 C24.08 40.92, 24.65 41.09, 25.05 40.93 M23.61 41.09 C24.16 40.99, 24.58 41.04, 25.05 40.93 M25.05 40.93 C33.12 35.49, 39.4 30.57, 48.5 27.1 M25.05 40.93 C33.59 36.09, 40.33 32.16, 48.5 27.1 M48.5 27.1 C48.71 26.74, 48.95 26.39, 49.2 26.18 M48.5 27.1 C48.65 26.85, 48.83 26.63, 49.2 26.18 M49.2 26.18 C47.64 21.56, 48.22 13.38, 49.07 0.81 M49.2 26.18 C50.09 15.76, 49.71 7.37, 49.07 0.81 M49.07 0.81 C48.83 0.52, 48.65 0.13, 48.49 -0.52 M49.07 0.81 C48.95 0.41, 48.66 -0.07, 48.49 -0.52 M48.49 -0.52 C45.73 -1.11, 43.57 -3.52, 40.92 -4.64 M48.49 -0.52 C45.51 -2.2, 42.28 -3.89, 40.92 -4.64 M40.92 -4.64 C40.46 -4.81, 40.14 -4.91, 39.61 -5.19 M40.92 -4.64 C40.54 -4.87, 40.1 -5, 39.61 -5.19 M39.61 -5.19 C39.39 -4.85, 39.22 -4.61, 39.01 -4.19 M39.61 -5.19 C39.52 -4.94, 39.26 -4.65, 39.01 -4.19 M39.01 -4.19 C38.65 3.74, 39.69 13.82, 38.73 18.42 M39.01 -4.19 C39.76 3.93, 39.47 11.17, 38.73 18.42 M38.73 18.42 C36.17 17.47, 32.81 14.93, 31.19 14.11 M38.73 18.42 C36.42 17.15, 33.45 15.72, 31.19 14.11 M31.19 14.11 C31.12 5.74, 32.34 -3.43, 30.48 -9.57 M31.19 14.11 C29.88 4.57, 30.23 -4.25, 30.48 -9.57 M30.48 -9.57 C28.35 -11.11, 26.38 -12.53, 24.35 -14.13 M30.48 -9.57 C29.24 -10.47, 27.98 -11.88, 24.35 -14.13 M24.35 -14.13 C22.75 -12.79, 20.87 -11.97, 17.75 -10.18 M24.35 -14.13 C22.49 -13.13, 20.69 -11.32, 17.75 -10.18 M17.75 -10.18 C19.08 -0.02, 16.45 6.03, 17.82 14.07 M17.75 -10.18 C18.63 -3.31, 17.9 3.51, 17.82 14.07 M17.82 14.07 C16.22 14.75, 14.02 16.28, 9.97 19.05 M17.82 14.07 C15.37 15.87, 12.79 16.91, 9.97 19.05 M9.97 19.05 C11.08 13.85, 8.27 8.1, 9.76 -4.46 M9.97 19.05 C10.25 12.24, 9.24 4.79, 9.76 -4.46 M9.76 -4.46 C9.46 -4.74, 9.08 -5.07, 8.95 -5.12 M9.76 -4.46 C9.59 -4.58, 9.37 -4.79, 8.95 -5.12 M8.95 -5.12 C6.09 -4.59, 5.28 -2.47, 0 0 M8.95 -5.12 C6.78 -3.57, 3.88 -2.61, 0 0" stroke="#000000" stroke-width="2" fill="none"></path></g></g><mask></mask><g stroke-linecap="round" transform="translate(116.84954629097524 30.810118470660882) rotate(0 64.30905949419275 37.75622788674809)"><path d="M81.25 9.5 C90.86 18.36, 104.6 21.42, 112.37 28.5 C127.49 37.82, 129.85 40.17, 112.37 47.5 C97.79 54.34, 91.96 62.55, 81.25 66.01 C67.01 72.97, 68.1 72.8, 48.75 66.01 C39.98 62.54, 30.83 54.61, 16.25 47.5 C-2.42 36.2, 1.37 38.67, 16.25 28.5 C24.66 24.68, 40.53 15.62, 48.75 9.5 C64.64 -2.2, 64.75 -3.04, 81.25 9.5" stroke="none" stroke-width="0" fill="#f8f9fa"></path><path d="M81.25 9.5 C91.69 14.32, 103.08 22.25, 112.37 28.5 M112.37 28.5 C128.41 36.03, 128.54 39.95, 112.37 47.5 M112.37 47.5 C106.16 49.87, 96.9 57.5, 81.25 66.01 M81.25 66.01 C63.83 76.28, 64.33 73.6, 48.75 66.01 M48.75 66.01 C42.65 63.11, 33.55 58.2, 16.25 47.5 M16.25 47.5 C-0.33 36.42, 1.73 36.21, 16.25 28.5 M16.25 28.5 C26.25 23.88, 33.88 17.34, 48.75 9.5 M48.75 9.5 C66.2 0.59, 65.27 0.88, 81.25 9.5" stroke="#000000" stroke-width="2.5" fill="none" stroke-dasharray="1.5 8"></path></g><g stroke-linecap="round"><g transform="translate(177.3966938390668 10.501282763393647) rotate(0 1.864864856023388 38.11392011850455)" fill-rule="evenodd"><path d="M1.5 -1.48 L-2.41 0.98 L-27.92 15.68 L-32.74 17.43 L-31.35 19.85 L-30.91 51.89 L-32.7 56.75 L-29.85 57.73 L-28.68 60.87 L-17.89 65.39 L-4.18 73.66 L0.88 78.13 L3.35 76.24 L5.55 75.37 L32.43 59.46 L35.34 59.43 L35.09 58.01 L35.04 20.4 L32.68 16.36 L31.45 16.18 L9.73 4.47 L5.7 -0.4 L-0.03 0.94 L-1.03 -1.63" stroke="none" stroke-width="0" fill="#00bc8e" fill-rule="evenodd"></path><path d="M0 0 C-0.95 0.64, -2.32 0.85, -3.27 1.77 M0 0 C-0.83 0.51, -1.83 0.85, -3.27 1.77 M-3.27 1.77 C-8.58 4.61, -17.45 7.29, -28.3 16.56 M-3.27 1.77 C-11.69 6.77, -21.11 12.37, -28.3 16.56 M-28.3 16.56 C-29 16.88, -29.24 17.54, -31.21 18.45 M-28.3 16.56 C-29.21 17.27, -30.3 17.95, -31.21 18.45 M-31.21 18.45 C-31.57 19.18, -31.72 19.61, -31.85 20.11 M-31.21 18.45 C-31.33 18.96, -31.59 19.32, -31.85 20.11 M-31.85 20.11 C-30.96 28.23, -33.25 35.83, -31.85 52.29 M-31.85 20.11 C-31.57 27.49, -31.51 34.69, -31.85 52.29 M-31.85 52.29 C-31.75 53.23, -31.78 54.26, -31.85 55.61 M-31.85 52.29 C-31.72 53.23, -31.89 54.12, -31.85 55.61 M-31.85 55.61 C-31.74 56.3, -31.59 56.55, -31.21 57.41 M-31.85 55.61 C-31.73 56.17, -31.46 56.56, -31.21 57.41 M-31.21 57.41 C-30.27 58.14, -29.98 59.11, -29.32 59.3 M-31.21 57.41 C-30.86 57.96, -30.31 58.17, -29.32 59.3 M-29.32 59.3 C-25.11 60.18, -21.54 64.93, -16.68 66.54 M-29.32 59.3 C-24.93 61.89, -21.15 63.96, -16.68 66.54 M-16.68 66.54 C-9.61 69.51, -7.44 73.23, -2.5 74.93 M-16.68 66.54 C-12.05 68.53, -7.94 71.62, -2.5 74.93 M-2.5 74.93 C-1.55 75.67, -0.9 76.11, 0.53 76.73 M-2.5 74.93 C-1.88 75.39, -1.32 75.64, 0.53 76.73 M0.53 76.73 C1.24 76.81, 2.36 76.74, 2.77 76.45 M0.53 76.73 C1.28 76.65, 1.85 76.54, 2.77 76.45 M2.77 76.45 C3.77 76.37, 4.24 75.83, 6.36 74.77 M2.77 76.45 C4.24 75.82, 5.54 75.15, 6.36 74.77 M6.36 74.77 C16.18 71.44, 24.49 65.15, 31.6 60.07 M6.36 74.77 C15.58 69.81, 24 64.96, 31.6 60.07 M31.6 60.07 C32.98 59.56, 34.02 58.29, 34.85 57.83 M31.6 60.07 C32.53 59.4, 33.32 58.74, 34.85 57.83 M34.85 57.83 C34.96 57.33, 35.19 57.07, 35.58 56.37 M34.85 57.83 C35.05 57.33, 35.36 56.81, 35.58 56.37 M35.58 56.37 C35.81 43.39, 36.84 32.13, 35.58 20.42 M35.58 56.37 C35.77 48.65, 35.55 40.03, 35.58 20.42 M35.58 20.42 C35.22 19.65, 34.63 18.95, 34.57 18.23 M35.58 20.42 C35.31 19.88, 35.1 19.38, 34.57 18.23 M34.57 18.23 C34.05 17.9, 33.74 17.4, 32.1 16.38 M34.57 18.23 C33.67 17.46, 33.03 17.02, 32.1 16.38 M32.1 16.38 C23.9 13.16, 14.2 8.03, 8.6 2.59 M32.1 16.38 C26.09 13.05, 18.44 8.21, 8.6 2.59 M8.6 2.59 C7.1 1.58, 6.57 1.32, 4.29 0.01 M8.6 2.59 C6.84 1.45, 5.26 0.47, 4.29 0.01 M4.29 0.01 C3.65 0.06, 2.91 -0.11, 1.87 -0.5 M4.29 0.01 C3.49 -0.22, 2.59 -0.34, 1.87 -0.5 M1.87 -0.5 C1.47 -0.35, 0.86 -0.33, 0 0 M1.87 -0.5 C1.33 -0.36, 0.79 -0.21, 0 0 M0 0 C0 0, 0 0, 0 0 M0 0 C0 0, 0 0, 0 0" stroke="#000000" stroke-width="2" fill="none"></path></g></g><mask></mask><g stroke-linecap="round" transform="translate(153.9616272520297 47.00760763633525) rotate(0 25.087259506149422 14.522503167134914)"><path d="M27.48 0.87 L51.29 13.59 L27.72 27.54 L-0.43 16.31" stroke="none" stroke-width="0" fill="#e5f2ff" fill-rule="evenodd"></path><path d="M26 0 C31.45 1.47, 37.16 8.85, 50.17 15 M26 0 C32.21 2.51, 36.85 7.67, 50.17 15 M50.17 15 C42.48 16.67, 39.75 20.68, 26 29.05 M50.17 15 C41.9 19.71, 32.32 25.73, 26 29.05 M26 29.05 C22.43 26.96, 16.04 22.61, 0 15 M26 29.05 C18.65 25.56, 11.93 21.92, 0 15 M0 15 C8.36 8.52, 16.8 4.78, 26 0 M0 15 C8.17 9.53, 16.46 4.85, 26 0" stroke="transparent" stroke-width="2" fill="none"></path></g><g stroke-linecap="round"><g transform="translate(154.21806926695916 36.14727344480434) rotate(0 12.567267661719939 4.977740589548262)" fill-rule="evenodd"><path d="M0.58 -0.72 L0.3 24.52 L24.76 11.07 L24.84 -15.06 L17.63 -11.96 L19.23 12.24 L11.03 17.05 L11.37 -4.77 L10.71 -6.47 L-0.24 -0.61" stroke="none" stroke-width="0" fill="#b8c2cc" fill-rule="evenodd"></path><path d="M0 0 C-0.05 8.82, -0.68 16.34, 0 25.3 M0 0 C-0.21 8.02, -0.23 15.57, 0 25.3 M0 25.3 C7.3 21.18, 13.91 18.62, 24.96 11.34 M0 25.3 C5.93 22.21, 12.23 18.11, 24.96 11.34 M24.96 11.34 C25.36 3.7, 24.78 -2.88, 25.13 -15.35 M24.96 11.34 C25.41 2.94, 25.22 -6.61, 25.13 -15.35 M25.13 -15.35 C22.7 -14.01, 20.65 -12.38, 18.53 -11.4 M25.13 -15.35 C22.53 -13.89, 20.4 -12.37, 18.53 -11.4 M18.53 -11.4 C17.72 -2.99, 19.15 6.2, 18.61 12.84 M18.53 -11.4 C18.42 -4.13, 18.38 4.01, 18.61 12.84 M18.61 12.84 C16.04 14.1, 13.86 16.27, 10.68 17.52 M18.61 12.84 C16.32 13.96, 14.09 15.41, 10.68 17.52 M10.68 17.52 C10.5 7.89, 10.77 -0.83, 10.54 -5.69 M10.68 17.52 C11 9.18, 10.49 1.63, 10.54 -5.69 M10.54 -5.69 C10.26 -5.85, 10.09 -6.12, 9.73 -6.34 M10.54 -5.69 C10.22 -5.98, 9.88 -6.2, 9.73 -6.34 M9.73 -6.34 C8.12 -5.48, 5.96 -4.12, 0.65 -1.07 M9.73 -6.34 C7.13 -4.82, 3.97 -2.84, 0.65 -1.07 M0.65 -1.07 C0.47 -0.79, 0.28 -0.45, 0 0 M0.65 -1.07 C0.5 -0.81, 0.37 -0.59, 0 0" stroke="transparent" stroke-width="2" fill="none"></path></g></g><mask></mask><g stroke-linecap="round"><g transform="translate(204.29524971235196 36.208514601799834) rotate(0 -12.62435604803818 5.135901218449931)" fill-rule="evenodd"><path d="M0.3 -0.78 L-0.19 25.35 L-25.55 11.31 L-26.03 -15.91 L-17.91 -12.01 L-18.25 12.37 L-9.85 18.44 L-9.57 -5.82 L-10.62 -5.88 L0.25 -1.01" stroke="none" stroke-width="0" fill="#f4f7fa" fill-rule="evenodd"></path><path d="M0 0 C-0.67 5.82, 0.03 10.79, 0 25.62 M0 0 C-0.36 5.37, -0.24 9.87, 0 25.62 M0 25.62 C-5 23.02, -11.51 19.4, -25.25 11.02 M0 25.62 C-7.55 21.48, -14.37 17.92, -25.25 11.02 M-25.25 11.02 C-25.42 2.48, -24.94 -7.12, -25.13 -15.35 M-25.25 11.02 C-25.15 1.59, -25.03 -7.23, -25.13 -15.35 M-25.13 -15.35 C-23.48 -14.2, -21.81 -13.68, -18.53 -11.4 M-25.13 -15.35 C-23.21 -14.19, -21.45 -13.34, -18.53 -11.4 M-18.53 -11.4 C-17.99 -1.69, -18.54 7.73, -18.61 12.84 M-18.53 -11.4 C-18.85 -3.66, -18.53 3.84, -18.61 12.84 M-18.61 12.84 C-15.43 14.98, -12.92 16.22, -10.68 17.52 M-18.61 12.84 C-16.7 13.91, -14.63 14.99, -10.68 17.52 M-10.68 17.52 C-10.5 11.44, -10.08 6.79, -10.54 -5.69 M-10.68 17.52 C-10.8 12.59, -10.7 6.43, -10.54 -5.69 M-10.54 -5.69 C-10.19 -5.99, -9.85 -6.19, -9.73 -6.34 M-10.54 -5.69 C-10.37 -5.83, -10.19 -5.99, -9.73 -6.34 M-9.73 -6.34 C-6.33 -4.28, -2.77 -2.7, -0.65 -1.07 M-9.73 -6.34 C-7.57 -4.75, -5.22 -3.95, -0.65 -1.07 M-0.65 -1.07 C-0.45 -0.72, -0.29 -0.41, 0 0 M-0.65 -1.07 C-0.44 -0.76, -0.26 -0.48, 0 0" stroke="transparent" stroke-width="2" fill="none"></path></g></g><mask></mask><g stroke-linecap="round"><g transform="translate(154.9048786953864 34.90640084605502) rotate(0 24.210812476278647 13.481158324732064)"><path d="M0 0 C-0.2 0.33, -0.48 0.53, -0.49 0.72 M0 0 C-0.2 0.23, -0.4 0.56, -0.49 0.72 M-0.49 0.72 C-1.34 7.46, -0.82 11.77, -0.78 26.07 M-0.49 0.72 C-1.05 11.46, -0.48 20.81, -0.78 26.07 M-0.78 26.07 C-0.67 26.39, -0.58 26.77, -0.5 27.17 M-0.78 26.07 C-0.65 26.48, -0.61 26.89, -0.5 27.17 M-0.5 27.17 C8.03 30.27, 13.2 33.59, 23.61 41.09 M-0.5 27.17 C7.51 30.6, 15.17 34.8, 23.61 41.09 M23.61 41.09 C24.03 41.1, 24.43 40.94, 25.05 40.93 M23.61 41.09 C23.96 41.06, 24.33 41, 25.05 40.93 M25.05 40.93 C30.41 37.14, 35.21 33.82, 48.5 27.1 M25.05 40.93 C30.94 37.49, 34.56 34.86, 48.5 27.1 M48.5 27.1 C48.72 26.94, 48.74 26.78, 49.2 26.18 M48.5 27.1 C48.69 26.81, 48.92 26.58, 49.2 26.18 M49.2 26.18 C50.99 17.42, 47.67 7.9, 49.07 0.81 M49.2 26.18 C48.37 21.21, 50.1 16.44, 49.07 0.81 M49.07 0.81 C48.94 0.37, 48.7 0.27, 48.49 -0.52 M49.07 0.81 C48.9 0.39, 48.77 0.11, 48.49 -0.52 M48.49 -0.52 C45.87 -1.58, 44.41 -2.61, 40.92 -4.64 M48.49 -0.52 C45.93 -2.34, 43.03 -3.88, 40.92 -4.64 M40.92 -4.64 C40.59 -4.92, 40.1 -4.86, 39.61 -5.19 M40.92 -4.64 C40.66 -4.71, 40.36 -4.91, 39.61 -5.19 M39.61 -5.19 C39.49 -4.94, 39.35 -4.81, 39.01 -4.19 M39.61 -5.19 C39.46 -4.9, 39.24 -4.45, 39.01 -4.19 M39.01 -4.19 C39.59 3.78, 39.18 12.58, 38.73 18.42 M39.01 -4.19 C39.75 0.75, 39.21 6.34, 38.73 18.42 M38.73 18.42 C37.02 18.05, 35.34 16.63, 31.19 14.11 M38.73 18.42 C36.05 17.25, 32.54 15.09, 31.19 14.11 M31.19 14.11 C30.63 6.59, 30.03 0.96, 30.48 -9.57 M31.19 14.11 C30.51 7.59, 31.3 2.63, 30.48 -9.57 M30.48 -9.57 C28.18 -11.26, 25.75 -12.76, 24.35 -14.13 M30.48 -9.57 C28.76 -10.55, 27.39 -12.22, 24.35 -14.13 M24.35 -14.13 C22.31 -12.26, 19.55 -10.34, 17.75 -10.18 M24.35 -14.13 C22.95 -13.56, 21.69 -12.53, 17.75 -10.18 M17.75 -10.18 C18.06 -2.15, 19.02 2.9, 17.82 14.07 M17.75 -10.18 C17.87 -0.11, 17.54 8.83, 17.82 14.07 M17.82 14.07 C15 16.21, 14.15 17.05, 9.97 19.05 M17.82 14.07 C16.52 14.69, 14.77 16.15, 9.97 19.05 M9.97 19.05 C11.94 13.62, 10.44 6.63, 9.76 -4.46 M9.97 19.05 C9.61 13.57, 10.48 7.34, 9.76 -4.46 M9.76 -4.46 C9.46 -4.71, 9.22 -4.92, 8.95 -5.12 M9.76 -4.46 C9.5 -4.75, 9.2 -4.92, 8.95 -5.12 M8.95 -5.12 C6.23 -4.08, 4.27 -2.26, 0 0 M8.95 -5.12 C6.64 -3.31, 3.99 -2.56, 0 0" stroke="#000000" stroke-width="2" fill="none"></path></g></g><mask></mask><g stroke-linecap="round" transform="translate(67.39679585336114 191.7399877733767) rotate(0 64.30905949419275 37.75622788674809)"><path d="M81.25 9.5 C89.33 17.51, 98.72 21.74, 112.37 28.5 C126.07 41.1, 125.91 37.23, 112.37 47.5 C102.59 54.76, 88.45 58.69, 81.25 66.01 C63.2 76.89, 65.67 76.48, 48.75 66.01 C39.32 62.22, 24.66 51.89, 16.25 47.5 C-2.2 37.75, -3.04 38.18, 16.25 28.5 C22.4 23.12, 30.57 19.23, 48.75 9.5 C63.13 1.84, 66.47 -2.51, 81.25 9.5" stroke="none" stroke-width="0" fill="#f8f9fa"></path><path d="M81.25 9.5 C90.69 15.25, 105.4 22.1, 112.37 28.5 M112.37 28.5 C129.39 37.33, 126.7 36.36, 112.37 47.5 M112.37 47.5 C102.39 53.4, 90.35 60.64, 81.25 66.01 M81.25 66.01 C63.42 77.25, 63.21 75.07, 48.75 66.01 M48.75 66.01 C40.52 60.57, 30.23 57.08, 16.25 47.5 M16.25 47.5 C0.59 38.27, 0.88 39.65, 16.25 28.5 M16.25 28.5 C29.51 21.11, 39.51 13.68, 48.75 9.5 M48.75 9.5 C64.9 0.68, 66.21 1.37, 81.25 9.5" stroke="#000000" stroke-width="2.5" fill="none" stroke-dasharray="1.5 8"></path></g><g stroke-linecap="round"><g transform="translate(127.94394340145266 171.43115206610946) rotate(0 1.864864856023388 38.11392011850455)" fill-rule="evenodd"><path d="M-0.85 1.14 L-1.91 2.09 L-27.67 18.14 L-32.42 17.31 L-33.53 18.84 L-31.5 53.69 L-31.27 55.4 L-32.01 58.01 L-28.49 58.69 L-16.19 68.14 L-2.99 76.58 L-0.01 76.7 L0.88 74.57 L5.71 74.56 L32.72 61.96 L36.26 57.42 L33.68 57.81 L34.55 18.79 L36.17 17.01 L31.45 17.97 L9.83 1.92 L6.2 -0.8 L3.49 -2.45 L0.07 -0.41" stroke="none" stroke-width="0" fill="#00bc8e" fill-rule="evenodd"></path><path d="M0 0 C-0.9 0.38, -2.14 1.09, -3.27 1.77 M0 0 C-0.78 0.48, -1.23 0.66, -3.27 1.77 M-3.27 1.77 C-9.6 4.54, -19.82 10.63, -28.3 16.56 M-3.27 1.77 C-13.28 7.56, -22.31 13.83, -28.3 16.56 M-28.3 16.56 C-28.93 17.3, -30.36 17.94, -31.21 18.45 M-28.3 16.56 C-29.13 17.14, -29.83 17.73, -31.21 18.45 M-31.21 18.45 C-31.37 19.01, -31.46 19.4, -31.85 20.11 M-31.21 18.45 C-31.36 18.89, -31.46 19.22, -31.85 20.11 M-31.85 20.11 C-33.16 30.09, -31.05 42.44, -31.85 52.29 M-31.85 20.11 C-32.2 31.28, -30.74 41, -31.85 52.29 M-31.85 52.29 C-32.15 53.27, -31.99 54.5, -31.85 55.61 M-31.85 52.29 C-31.99 53.13, -31.96 54.01, -31.85 55.61 M-31.85 55.61 C-31.72 56.2, -31.27 56.84, -31.21 57.41 M-31.85 55.61 C-31.63 56.06, -31.62 56.5, -31.21 57.41 M-31.21 57.41 C-30.88 57.85, -29.92 58.36, -29.32 59.3 M-31.21 57.41 C-30.66 57.98, -30 58.6, -29.32 59.3 M-29.32 59.3 C-26.95 60.11, -22.2 62.17, -16.68 66.54 M-29.32 59.3 C-27.06 60.73, -24 61.65, -16.68 66.54 M-16.68 66.54 C-11.34 70.1, -8.14 72.52, -2.5 74.93 M-16.68 66.54 C-13.59 68.34, -10.44 70.71, -2.5 74.93 M-2.5 74.93 C-2.09 75.42, -1.4 75.96, 0.53 76.73 M-2.5 74.93 C-1.45 75.72, 0.05 76.36, 0.53 76.73 M0.53 76.73 C1.37 76.69, 2.06 76.76, 2.77 76.45 M0.53 76.73 C1.04 76.74, 1.52 76.62, 2.77 76.45 M2.77 76.45 C3.59 75.68, 5.11 75.75, 6.36 74.77 M2.77 76.45 C3.65 76.02, 4.95 75.48, 6.36 74.77 M6.36 74.77 C17.26 69.22, 26.7 64.94, 31.6 60.07 M6.36 74.77 C16.2 69.33, 26.54 63.04, 31.6 60.07 M31.6 60.07 C32.22 59.45, 32.93 58.76, 34.85 57.83 M31.6 60.07 C32.57 59.42, 33.09 58.96, 34.85 57.83 M34.85 57.83 C35.02 57.42, 35.32 56.87, 35.58 56.37 M34.85 57.83 C35.19 57.39, 35.41 56.85, 35.58 56.37 M35.58 56.37 C33.85 43.45, 35.4 32.95, 35.58 20.42 M35.58 56.37 C35.34 47.63, 35.21 40.96, 35.58 20.42 M35.58 20.42 C35.43 19.5, 34.92 19.03, 34.57 18.23 M35.58 20.42 C35.15 19.52, 34.77 18.67, 34.57 18.23 M34.57 18.23 C33.31 17.71, 32.58 17, 32.1 16.38 M34.57 18.23 C33.98 17.74, 33.67 17.6, 32.1 16.38 M32.1 16.38 C23.63 10.11, 15.38 6.25, 8.6 2.59 M32.1 16.38 C23.16 11, 13.81 5.58, 8.6 2.59 M8.6 2.59 C7.84 2.02, 6.31 1.6, 4.29 0.01 M8.6 2.59 C7.6 1.96, 6.86 1.45, 4.29 0.01 M4.29 0.01 C3.53 -0.11, 3.24 -0.27, 1.87 -0.5 M4.29 0.01 C3.41 -0.2, 2.4 -0.38, 1.87 -0.5 M1.87 -0.5 C1.63 -0.49, 1.12 -0.33, 0 0 M1.87 -0.5 C1.27 -0.27, 0.82 -0.18, 0 0 M0 0 C0 0, 0 0, 0 0 M0 0 C0 0, 0 0, 0 0" stroke="#000000" stroke-width="2" fill="none"></path></g></g><mask></mask><g stroke-linecap="round" transform="translate(104.50887681441554 207.93747693905107) rotate(0 25.08725950614945 14.522503167134914)"><path d="M25.29 -1.34 L49.17 15.76 L26.37 29.58 L1.26 14.8" stroke="none" stroke-width="0" fill="#e5f2ff" fill-rule="evenodd"></path><path d="M26 0 C32.84 3.17, 36.12 5.91, 50.17 15 M26 0 C35.25 4.8, 43.5 10.48, 50.17 15 M50.17 15 C44.51 17.44, 41.48 21.92, 26 29.05 M50.17 15 C42.32 20.15, 33.44 25.19, 26 29.05 M26 29.05 C14.51 24.74, 5.58 17.03, 0 15 M26 29.05 C19.62 26.04, 11.6 21.3, 0 15 M0 15 C6.52 12.66, 9.89 10, 26 0 M0 15 C6.23 11.6, 12.13 8.2, 26 0" stroke="transparent" stroke-width="2" fill="none"></path></g><g stroke-linecap="round"><g transform="translate(104.765318829345 197.07714274752038) rotate(0 12.567267661719939 4.977740589548262)" fill-rule="evenodd"><path d="M0.35 -0.47 L0.83 26.22 L25.93 11.21 L24.25 -14.89 L19.43 -11.34 L18.9 12.71 L10.24 17.96 L10.73 -5.46 L10.64 -7.26 L1.28 -0.23" stroke="none" stroke-width="0" fill="#b8c2cc" fill-rule="evenodd"></path><path d="M0 0 C-0.91 5.29, 0.64 11.7, 0 25.3 M0 0 C0.19 8.9, -0.31 18.4, 0 25.3 M0 25.3 C6.21 22.85, 11.01 19.22, 24.96 11.34 M0 25.3 C7.14 21.51, 14.59 17.71, 24.96 11.34 M24.96 11.34 C24.91 1.78, 24.86 -6.48, 25.13 -15.35 M24.96 11.34 C24.72 2.28, 24.58 -6.48, 25.13 -15.35 M25.13 -15.35 C22.4 -13.52, 19.91 -12.46, 18.53 -11.4 M25.13 -15.35 C22.81 -13.88, 20.24 -12.59, 18.53 -11.4 M18.53 -11.4 C18.86 -4.71, 18.52 0.16, 18.61 12.84 M18.53 -11.4 C18.62 -2.86, 18.66 5.86, 18.61 12.84 M18.61 12.84 C15.93 14.03, 13.68 15.4, 10.68 17.52 M18.61 12.84 C16.21 14.17, 13.83 15.7, 10.68 17.52 M10.68 17.52 C9.73 11.74, 9.78 4.69, 10.54 -5.69 M10.68 17.52 C10.82 8.89, 10.69 0.41, 10.54 -5.69 M10.54 -5.69 C10.36 -5.8, 10.18 -6.03, 9.73 -6.34 M10.54 -5.69 C10.29 -5.89, 10.1 -6.07, 9.73 -6.34 M9.73 -6.34 C6.95 -4.97, 5.24 -3.9, 0.65 -1.07 M9.73 -6.34 C7.02 -4.84, 4.32 -3.05, 0.65 -1.07 M0.65 -1.07 C0.37 -0.66, 0.13 -0.3, 0 0 M0.65 -1.07 C0.44 -0.79, 0.31 -0.5, 0 0" stroke="transparent" stroke-width="2" fill="none"></path></g></g><mask></mask><g stroke-linecap="round"><g transform="translate(154.84249927473786 197.13838390451565) rotate(0 -12.62435604803818 5.135901218449931)" fill-rule="evenodd"><path d="M0.83 0.92 L0.98 25.49 L-26.13 11.48 L-24.24 -15.29 L-18.24 -11.53 L-19.05 13.29 L-10.49 17.75 L-9.63 -6.6 L-9.1 -5.51 L-0.22 -0.28" stroke="none" stroke-width="0" fill="#f4f7fa" fill-rule="evenodd"></path><path d="M0 0 C0.47 6.31, 0.43 14.29, 0 25.62 M0 0 C-0.37 6.95, -0.42 12.91, 0 25.62 M0 25.62 C-6.59 21.4, -14.24 18.17, -25.25 11.02 M0 25.62 C-7.92 21.26, -16.49 15.7, -25.25 11.02 M-25.25 11.02 C-25.49 1.76, -24.8 -6.79, -25.13 -15.35 M-25.25 11.02 C-25.56 1.33, -24.74 -8.19, -25.13 -15.35 M-25.13 -15.35 C-23.09 -14.05, -20.2 -12.43, -18.53 -11.4 M-25.13 -15.35 C-23.12 -14.24, -21.08 -12.8, -18.53 -11.4 M-18.53 -11.4 C-18.62 -4.23, -17.9 4.95, -18.61 12.84 M-18.53 -11.4 C-18.6 -4.9, -18.56 2.27, -18.61 12.84 M-18.61 12.84 C-15.66 14.33, -12.47 16.23, -10.68 17.52 M-18.61 12.84 C-15.62 14.42, -13.05 16.35, -10.68 17.52 M-10.68 17.52 C-11.27 11.12, -9.92 2.73, -10.54 -5.69 M-10.68 17.52 C-10.63 7.77, -10.9 -0.84, -10.54 -5.69 M-10.54 -5.69 C-10.35 -5.85, -10.22 -5.95, -9.73 -6.34 M-10.54 -5.69 C-10.27 -5.89, -10.05 -6.06, -9.73 -6.34 M-9.73 -6.34 C-7.16 -5.07, -4.68 -3.22, -0.65 -1.07 M-9.73 -6.34 C-7.67 -4.97, -5.46 -3.94, -0.65 -1.07 M-0.65 -1.07 C-0.47 -0.7, -0.2 -0.32, 0 0 M-0.65 -1.07 C-0.42 -0.73, -0.22 -0.38, 0 0" stroke="transparent" stroke-width="2" fill="none"></path></g></g><mask></mask><g stroke-linecap="round"><g transform="translate(105.4521282577723 195.83627014877084) rotate(0 24.210812476278647 13.481158324732064)"><path d="M0 0 C-0.05 0.21, -0.25 0.33, -0.49 0.72 M0 0 C-0.18 0.2, -0.29 0.46, -0.49 0.72 M-0.49 0.72 C-0.77 10.7, 0.02 18.56, -0.78 26.07 M-0.49 0.72 C-0.05 8.74, 0.01 17.97, -0.78 26.07 M-0.78 26.07 C-0.68 26.39, -0.58 26.53, -0.5 27.17 M-0.78 26.07 C-0.67 26.39, -0.61 26.63, -0.5 27.17 M-0.5 27.17 C10.01 33.3, 18.29 38.79, 23.61 41.09 M-0.5 27.17 C6.46 32.05, 14.65 36.27, 23.61 41.09 M23.61 41.09 C24.23 41.17, 24.63 40.97, 25.05 40.93 M23.61 41.09 C23.96 41.04, 24.36 40.99, 25.05 40.93 M25.05 40.93 C30.96 36.74, 37.36 35.28, 48.5 27.1 M25.05 40.93 C30.23 38.66, 35.75 33.84, 48.5 27.1 M48.5 27.1 C48.85 26.65, 49.18 26.4, 49.2 26.18 M48.5 27.1 C48.63 26.91, 48.78 26.68, 49.2 26.18 M49.2 26.18 C48.78 16.68, 49.16 5.4, 49.07 0.81 M49.2 26.18 C48.47 20.84, 48.72 12.51, 49.07 0.81 M49.07 0.81 C48.89 0.45, 48.6 -0.01, 48.49 -0.52 M49.07 0.81 C48.95 0.44, 48.78 0.01, 48.49 -0.52 M48.49 -0.52 C45.8 -2.15, 43.78 -4.02, 40.92 -4.64 M48.49 -0.52 C46.77 -1.77, 45.12 -2.18, 40.92 -4.64 M40.92 -4.64 C40.46 -4.74, 39.89 -5.04, 39.61 -5.19 M40.92 -4.64 C40.56 -4.77, 40.23 -5.01, 39.61 -5.19 M39.61 -5.19 C39.49 -4.77, 39.21 -4.45, 39.01 -4.19 M39.61 -5.19 C39.4 -4.87, 39.3 -4.59, 39.01 -4.19 M39.01 -4.19 C39.61 4.96, 38.98 12.73, 38.73 18.42 M39.01 -4.19 C38.9 3.77, 39.36 10.79, 38.73 18.42 M38.73 18.42 C37.46 17.55, 35.48 16.13, 31.19 14.11 M38.73 18.42 C36.65 16.95, 34.5 15.87, 31.19 14.11 M31.19 14.11 C30.01 4.87, 30.72 -1.8, 30.48 -9.57 M31.19 14.11 C31.17 7.06, 30.43 0.49, 30.48 -9.57 M30.48 -9.57 C29.13 -10.65, 26.88 -12.37, 24.35 -14.13 M30.48 -9.57 C28.07 -11.24, 26.17 -13.18, 24.35 -14.13 M24.35 -14.13 C21.12 -12.69, 19.52 -10.88, 17.75 -10.18 M24.35 -14.13 C21.56 -12.56, 19.5 -10.83, 17.75 -10.18 M17.75 -10.18 C16.58 -3.9, 16.3 5.88, 17.82 14.07 M17.75 -10.18 C18.51 -1.84, 18.6 5.83, 17.82 14.07 M17.82 14.07 C14.44 16.65, 13.18 17.8, 9.97 19.05 M17.82 14.07 C14.9 15.36, 12.54 17.59, 9.97 19.05 M9.97 19.05 C8.94 9.78, 8.4 2, 9.76 -4.46 M9.97 19.05 C10.3 13.32, 10.7 7.17, 9.76 -4.46 M9.76 -4.46 C9.43 -4.67, 9.16 -4.96, 8.95 -5.12 M9.76 -4.46 C9.51 -4.62, 9.26 -4.83, 8.95 -5.12 M8.95 -5.12 C6.88 -4.33, 4.97 -3.49, 0 0 M8.95 -5.12 C5.79 -3.05, 2.98 -1.85, 0 0" stroke="#000000" stroke-width="2" fill="none"></path></g></g><mask></mask><g stroke-linecap="round" transform="translate(174.24634214433638 133.10846215066817) rotate(0 64.30905949419275 37.75622788674809)"><path d="M81.25 9.5 C92.14 14.35, 99.73 20.2, 112.37 28.5 C129.99 38.67, 129.58 40.27, 112.37 47.5 C106.41 52.71, 93.77 56.4, 81.25 66.01 C64.75 72.47, 65.18 74.24, 48.75 66.01 C35.77 55.96, 24.42 49.57, 16.25 47.5 C1.84 39.47, -2.51 41.01, 16.25 28.5 C24.84 20.14, 36.6 15.52, 48.75 9.5 C67.22 2.09, 62.28 3.56, 81.25 9.5" stroke="none" stroke-width="0" fill="#f8f9fa"></path><path d="M81.25 9.5 C88.19 14.46, 96.53 17.18, 112.37 28.5 M112.37 28.5 C130.35 36.21, 128.17 37.55, 112.37 47.5 M112.37 47.5 C99.75 54.63, 89.16 62.81, 81.25 66.01 M81.25 66.01 C65.27 76.4, 66.65 77.1, 48.75 66.01 M48.75 66.01 C37.65 58.65, 26.62 53.75, 16.25 47.5 M16.25 47.5 C0.68 39.21, 1.37 37.14, 16.25 28.5 M16.25 28.5 C26.72 24.19, 35.18 16.75, 48.75 9.5 M48.75 9.5 C66.72 -1.5, 64.57 1.31, 81.25 9.5" stroke="#000000" stroke-width="2.5" fill="none" stroke-dasharray="1.5 8"></path></g><g stroke-linecap="round"><g transform="translate(234.7934896924279 112.7996264434014) rotate(0 1.8648648560234165 38.11392011850455)" fill-rule="evenodd"><path d="M0.58 -0.21 L-4.08 2.38 L-27.47 15.96 L-30.71 20.05 L-32.34 21.76 L-32.39 52.27 L-33.74 53.74 L-31.86 57.2 L-28.19 61.19 L-15.27 66.13 L-4.4 76.37 L-0.51 75.1 L4.37 75.22 L5.71 76.35 L32.83 59.41 L36.76 57.02 L37.2 54.43 L35.65 20.01 L35 19.55 L31.35 16.04 L6.97 3.58 L3.19 -1.26 L3.02 -0.11 L-1.47 0.63" stroke="none" stroke-width="0" fill="#00bc8e" fill-rule="evenodd"></path><path d="M0 0 C-1.26 0.36, -2.07 0.97, -3.27 1.77 M0 0 C-0.82 0.61, -1.86 0.99, -3.27 1.77 M-3.27 1.77 C-11.35 8.78, -19.64 13.11, -28.3 16.56 M-3.27 1.77 C-9.6 4.79, -14.69 8.83, -28.3 16.56 M-28.3 16.56 C-29.43 16.95, -30.36 18.17, -31.21 18.45 M-28.3 16.56 C-29.14 17.06, -30.32 17.96, -31.21 18.45 M-31.21 18.45 C-31.4 18.95, -31.76 19.48, -31.85 20.11 M-31.21 18.45 C-31.36 19.01, -31.69 19.64, -31.85 20.11 M-31.85 20.11 C-33.12 32.54, -33.59 45.33, -31.85 52.29 M-31.85 20.11 C-32.18 28.44, -32.3 37.27, -31.85 52.29 M-31.85 52.29 C-32.07 53.39, -31.96 53.91, -31.85 55.61 M-31.85 52.29 C-31.69 53.44, -31.75 54.93, -31.85 55.61 M-31.85 55.61 C-31.81 56.02, -31.73 56.3, -31.21 57.41 M-31.85 55.61 C-31.58 56.25, -31.49 56.79, -31.21 57.41 M-31.21 57.41 C-30.76 58.23, -30.13 58.45, -29.32 59.3 M-31.21 57.41 C-30.44 58.2, -29.75 58.94, -29.32 59.3 M-29.32 59.3 C-25.37 61.78, -19.96 65.06, -16.68 66.54 M-29.32 59.3 C-25.21 61.02, -21.73 63.6, -16.68 66.54 M-16.68 66.54 C-13.75 69.96, -9.99 71.79, -2.5 74.93 M-16.68 66.54 C-12.22 68.42, -10.17 71.04, -2.5 74.93 M-2.5 74.93 C-1.36 75.47, 0.02 76.39, 0.53 76.73 M-2.5 74.93 C-1.4 75.69, -0.46 76.26, 0.53 76.73 M0.53 76.73 C1.33 76.77, 1.92 76.4, 2.77 76.45 M0.53 76.73 C1.31 76.68, 1.92 76.58, 2.77 76.45 M2.77 76.45 C4.13 75.87, 5.74 75.16, 6.36 74.77 M2.77 76.45 C4 75.71, 5.54 75.15, 6.36 74.77 M6.36 74.77 C13.41 70.11, 20.87 65.54, 31.6 60.07 M6.36 74.77 C12.74 71.98, 19.06 67.65, 31.6 60.07 M31.6 60.07 C32.38 59.72, 33.03 59.1, 34.85 57.83 M31.6 60.07 C32.68 59.24, 33.78 58.87, 34.85 57.83 M34.85 57.83 C35.19 57.44, 35.23 56.72, 35.58 56.37 M34.85 57.83 C35.13 57.36, 35.29 56.88, 35.58 56.37 M35.58 56.37 C36.94 44.18, 37.15 33.85, 35.58 20.42 M35.58 56.37 C35.4 45.67, 35.09 33.46, 35.58 20.42 M35.58 20.42 C35.45 19.97, 34.86 19.45, 34.57 18.23 M35.58 20.42 C35.33 19.78, 34.93 19.07, 34.57 18.23 M34.57 18.23 C33.65 17.45, 32.5 16.52, 32.1 16.38 M34.57 18.23 C34.06 17.92, 33.39 17.31, 32.1 16.38 M32.1 16.38 C25.23 11.71, 22.19 10.13, 8.6 2.59 M32.1 16.38 C26.04 12.81, 18.74 8.14, 8.6 2.59 M8.6 2.59 C7.24 1.78, 5.55 0.91, 4.29 0.01 M8.6 2.59 C6.7 1.52, 5.27 0.56, 4.29 0.01 M4.29 0.01 C3.71 0, 3.27 -0.42, 1.87 -0.5 M4.29 0.01 C3.5 -0.08, 2.42 -0.27, 1.87 -0.5 M1.87 -0.5 C1.49 -0.22, 0.68 -0.15, 0 0 M1.87 -0.5 C1.31 -0.43, 0.92 -0.26, 0 0 M0 0 C0 0, 0 0, 0 0 M0 0 C0 0, 0 0, 0 0" stroke="#000000" stroke-width="2" fill="none"></path></g></g><mask></mask><g stroke-linecap="round" transform="translate(211.35842310539078 149.30595131634277) rotate(0 25.08725950614945 14.522503167134914)"><path d="M25.8 -1.22 L50.04 13.31 L26.1 28.34 L1.68 13.91" stroke="none" stroke-width="0" fill="#e5f2ff" fill-rule="evenodd"></path><path d="M26 0 C35.48 3.22, 41.06 9.38, 50.17 15 M26 0 C35.36 5.64, 45.7 11.99, 50.17 15 M50.17 15 C44.25 20.26, 33.65 24.99, 26 29.05 M50.17 15 C43.27 19.19, 37.16 23.46, 26 29.05 M26 29.05 C19.46 26.7, 13.54 22.73, 0 15 M26 29.05 C19.7 26.28, 14.31 22.55, 0 15 M0 15 C7.51 8.97, 18.49 5.23, 26 0 M0 15 C7.85 10.77, 17.81 5.08, 26 0" stroke="transparent" stroke-width="2" fill="none"></path></g><g stroke-linecap="round"><g transform="translate(211.6148651203203 138.4456171248121) rotate(0 12.567267661719967 4.977740589548262)" fill-rule="evenodd"><path d="M-0.44 0.44 L0.19 25.53 L25.87 10.42 L25.77 -14.51 L18.96 -10.62 L19.1 13.09 L10.79 17.62 L11.17 -6.43 L9.17 -6.07 L1.58 -1.21" stroke="none" stroke-width="0" fill="#b8c2cc" fill-rule="evenodd"></path><path d="M0 0 C-0.11 5.37, 1.05 11.65, 0 25.3 M0 0 C0.27 8.96, 0.04 17.84, 0 25.3 M0 25.3 C8.78 20.41, 18.84 13.9, 24.96 11.34 M0 25.3 C7.01 21.85, 13.21 17.61, 24.96 11.34 M24.96 11.34 C25.42 6.09, 24.32 0.59, 25.13 -15.35 M24.96 11.34 C25.2 5.41, 25.27 -0.6, 25.13 -15.35 M25.13 -15.35 C23.52 -14.25, 21.73 -13.04, 18.53 -11.4 M25.13 -15.35 C23.38 -14.21, 21.27 -13.15, 18.53 -11.4 M18.53 -11.4 C18.1 -3.45, 17.92 2.21, 18.61 12.84 M18.53 -11.4 C18.2 -4.33, 18.69 1.88, 18.61 12.84 M18.61 12.84 C15.93 14.65, 12.14 16.86, 10.68 17.52 M18.61 12.84 C16.64 14.16, 15.06 14.85, 10.68 17.52 M10.68 17.52 C11.06 9.53, 10.84 4.25, 10.54 -5.69 M10.68 17.52 C10.72 9.54, 10.27 1.21, 10.54 -5.69 M10.54 -5.69 C10.29 -5.95, 9.87 -6.19, 9.73 -6.34 M10.54 -5.69 C10.3 -5.91, 10.04 -6.1, 9.73 -6.34 M9.73 -6.34 C7.01 -4.4, 3.84 -2.94, 0.65 -1.07 M9.73 -6.34 C7.64 -5.11, 5.46 -4.16, 0.65 -1.07 M0.65 -1.07 C0.38 -0.63, 0.23 -0.23, 0 0 M0.65 -1.07 C0.48 -0.76, 0.28 -0.46, 0 0" stroke="transparent" stroke-width="2" fill="none"></path></g></g><mask></mask><g stroke-linecap="round"><g transform="translate(261.6920455657131 138.5068582818078) rotate(0 -12.62435604803818 5.135901218449931)" fill-rule="evenodd"><path d="M0.19 0.22 L0.91 24.7 L-24.61 11.86 L-24.7 -14.56 L-18.04 -11.15 L-18.5 12.94 L-10.05 16.77 L-11.1 -5.41 L-8.8 -6.49 L-0.2 -0.72" stroke="none" stroke-width="0" fill="#f4f7fa" fill-rule="evenodd"></path><path d="M0 0 C0.91 5.86, 0.45 10.57, 0 25.62 M0 0 C0.14 7.52, 0.49 14.99, 0 25.62 M0 25.62 C-8.56 20.14, -17.07 15.91, -25.25 11.02 M0 25.62 C-8.7 20.69, -17.33 15.97, -25.25 11.02 M-25.25 11.02 C-25.97 2.02, -25.97 -8.91, -25.13 -15.35 M-25.25 11.02 C-25.05 1.44, -25.39 -8.59, -25.13 -15.35 M-25.13 -15.35 C-23.37 -14.12, -21.86 -13.59, -18.53 -11.4 M-25.13 -15.35 C-22.73 -14.02, -20.31 -12.63, -18.53 -11.4 M-18.53 -11.4 C-19.14 -4.61, -18.81 2.66, -18.61 12.84 M-18.53 -11.4 C-18.41 -4.17, -18.22 3.57, -18.61 12.84 M-18.61 12.84 C-16.67 14.63, -14.33 15.84, -10.68 17.52 M-18.61 12.84 C-15.74 14.33, -12.94 15.93, -10.68 17.52 M-10.68 17.52 C-10.55 12.77, -10.19 5.95, -10.54 -5.69 M-10.68 17.52 C-11.02 10.6, -10.19 4.03, -10.54 -5.69 M-10.54 -5.69 C-10.4 -5.84, -10.13 -6.03, -9.73 -6.34 M-10.54 -5.69 C-10.3 -5.88, -10.06 -6.06, -9.73 -6.34 M-9.73 -6.34 C-6.8 -4.29, -3.53 -2.63, -0.65 -1.07 M-9.73 -6.34 C-7.49 -5.06, -4.61 -3.63, -0.65 -1.07 M-0.65 -1.07 C-0.38 -0.65, -0.22 -0.41, 0 0 M-0.65 -1.07 C-0.41 -0.7, -0.21 -0.32, 0 0" stroke="transparent" stroke-width="2" fill="none"></path></g></g><mask></mask><g stroke-linecap="round"><g transform="translate(212.30167454874754 137.20474452606254) rotate(0 24.210812476278647 13.481158324732064)"><path d="M0 0 C-0.09 0.18, -0.28 0.46, -0.49 0.72 M0 0 C-0.12 0.28, -0.31 0.45, -0.49 0.72 M-0.49 0.72 C-1.27 9.47, -0.06 19.63, -0.78 26.07 M-0.49 0.72 C-1.53 10.11, -0.07 19.83, -0.78 26.07 M-0.78 26.07 C-0.78 26.43, -0.52 26.89, -0.5 27.17 M-0.78 26.07 C-0.71 26.37, -0.63 26.78, -0.5 27.17 M-0.5 27.17 C7.02 30.34, 16.19 37.69, 23.61 41.09 M-0.5 27.17 C6.3 30.45, 13.3 34.91, 23.61 41.09 M23.61 41.09 C24.14 40.93, 24.74 40.9, 25.05 40.93 M23.61 41.09 C24.17 41.01, 24.61 41.05, 25.05 40.93 M25.05 40.93 C30.81 37.76, 40.51 30.84, 48.5 27.1 M25.05 40.93 C34.41 34.58, 43.13 30.35, 48.5 27.1 M48.5 27.1 C48.7 26.85, 48.77 26.73, 49.2 26.18 M48.5 27.1 C48.78 26.8, 48.92 26.6, 49.2 26.18 M49.2 26.18 C49.61 18.31, 49.36 12.64, 49.07 0.81 M49.2 26.18 C49.22 21.13, 49.79 14.78, 49.07 0.81 M49.07 0.81 C48.76 0.31, 48.62 -0.18, 48.49 -0.52 M49.07 0.81 C48.93 0.33, 48.73 -0.1, 48.49 -0.52 M48.49 -0.52 C45.44 -2.78, 43.05 -2.82, 40.92 -4.64 M48.49 -0.52 C45.97 -1.6, 43.92 -2.95, 40.92 -4.64 M40.92 -4.64 C40.53 -4.78, 40.01 -4.99, 39.61 -5.19 M40.92 -4.64 C40.54 -4.87, 40.03 -4.97, 39.61 -5.19 M39.61 -5.19 C39.41 -4.87, 39.17 -4.32, 39.01 -4.19 M39.61 -5.19 C39.44 -4.83, 39.25 -4.53, 39.01 -4.19 M39.01 -4.19 C38.74 3.11, 39.7 11.67, 38.73 18.42 M39.01 -4.19 C38.66 1.8, 38.54 8.06, 38.73 18.42 M38.73 18.42 C37.34 18.15, 34.7 15.84, 31.19 14.11 M38.73 18.42 C36.62 16.94, 34.23 15.79, 31.19 14.11 M31.19 14.11 C29.56 9.51, 32.53 2.05, 30.48 -9.57 M31.19 14.11 C31.63 4.53, 30.1 -3.52, 30.48 -9.57 M30.48 -9.57 C28.2 -10.96, 25.84 -12.54, 24.35 -14.13 M30.48 -9.57 C28.14 -10.69, 26.18 -12.45, 24.35 -14.13 M24.35 -14.13 C22.55 -13.14, 19.55 -11.85, 17.75 -10.18 M24.35 -14.13 C23.11 -13.57, 21.72 -12.4, 17.75 -10.18 M17.75 -10.18 C17.52 -2.11, 16.23 9.61, 17.82 14.07 M17.75 -10.18 C17.65 -0.99, 17.03 8.3, 17.82 14.07 M17.82 14.07 C16.59 15.28, 13.57 16.03, 9.97 19.05 M17.82 14.07 C15.64 15.49, 14.18 16.26, 9.97 19.05 M9.97 19.05 C10.97 9.72, 9.14 2.34, 9.76 -4.46 M9.97 19.05 C10.1 12.28, 10 7.37, 9.76 -4.46 M9.76 -4.46 C9.49 -4.63, 9.27 -4.9, 8.95 -5.12 M9.76 -4.46 C9.55 -4.61, 9.24 -4.83, 8.95 -5.12 M8.95 -5.12 C7.48 -4.65, 5.07 -2.6, 0 0 M8.95 -5.12 C6.33 -3.73, 3.19 -1.85, 0 0" stroke="#000000" stroke-width="2" fill="none"></path></g></g><mask></mask><g stroke-linecap="round"><g transform="translate(14.291557324053372 229.8868493275413) rotate(0 137.8217765803433 -79.57143980885371)"><path d="M0 0 C94.78 -53.87, 190.94 -109.67, 275.64 -159.14" stroke="#000000" stroke-width="2.5" fill="none" stroke-dasharray="8 10"></path></g></g><mask></mask><g stroke-linecap="round"><g transform="translate(211.86671760962372 90.66374113424263) rotate(0 10.016604984554647 6.041762707136172)"><path d="M0 0 C5.84 3.42, 11.53 7.46, 20.03 12.08" stroke="#000000" stroke-width="2.5" fill="none" stroke-dasharray="8 10"></path></g></g><mask></mask><g stroke-linecap="round"><g transform="translate(109.11788293019981 150.2036833779291) rotate(0 10.016604984554647 6.041762707136286)"><path d="M0 0 C7.67 5.16, 15.23 9.01, 20.03 12.08" stroke="#000000" stroke-width="2.5" fill="none" stroke-dasharray="8 10"></path></g></g><mask></mask><g stroke-linecap="round"><g transform="translate(183.92145318656912 135.92830848085396) rotate(0 10.016604984554647 6.041762707136172)"><path d="M0 0 C7.11 4.04, 11.88 7.99, 20.03 12.08" stroke="#000000" stroke-width="2.5" fill="none" stroke-dasharray="8 10"></path></g></g><mask></mask></svg>