<svg width="36" height="37" viewBox="0 0 36 37" fill="none" xmlns="http://www.w3.org/2000/svg">
  <path
    d="M7.563 22.863C7.56102 23.8653 7.16228 24.8261 6.45395 25.5352C5.74562 26.2444 4.78532 26.6443 3.783 26.6475C2.78016 26.6451 1.81909 26.2456 1.11011 25.5363C0.401134 24.827 0.00198066 23.8658 0 22.863C0.00277419 21.8608 0.402325 20.9005 1.11126 20.1921C1.8202 19.4837 2.78081 19.085 3.783 19.083H7.563V22.863ZM9.4695 22.863C9.47227 21.8611 9.87162 20.901 10.5802 20.1926C11.2888 19.4843 12.2491 19.0854 13.251 19.083C14.2529 19.0854 15.2132 19.4843 15.9218 20.1926C16.6304 20.901 17.0297 21.8611 17.0325 22.863V32.3325C17.0301 33.3348 16.631 34.2954 15.9224 35.0043C15.2138 35.7132 14.2533 36.1127 13.251 36.1155C12.2487 36.1127 11.2882 35.7132 10.5796 35.0043C9.871 34.2954 9.47188 33.3348 9.4695 32.3325V22.863ZM13.251 7.67848C12.2492 7.67571 11.2892 7.27662 10.5807 6.56837C9.87214 5.86013 9.47267 4.90028 9.4695 3.89848C9.47188 2.89615 9.871 1.93554 10.5796 1.22665C11.2882 0.517754 12.2487 0.118251 13.251 0.115479C14.2533 0.118251 15.2138 0.517754 15.9224 1.22665C16.631 1.93554 17.0301 2.89615 17.0325 3.89848V7.67848H13.251ZM13.251 9.58498C14.2531 9.58775 15.2133 9.98705 15.9219 10.6956C16.6304 11.4042 17.0297 12.3644 17.0325 13.3665C17.0297 14.3685 16.6304 15.3288 15.9219 16.0373C15.2133 16.7459 14.2531 17.1452 13.251 17.148H3.783C2.78068 17.1456 1.82006 16.7465 1.11117 16.0379C0.402275 15.3293 0.00277262 14.3688 0 13.3665C0.00277262 12.3642 0.402275 11.4037 1.11117 10.6951C1.82006 9.98647 2.78068 9.58735 3.783 9.58498H13.251ZM28.434 13.3665C28.4368 12.3642 28.8363 11.4037 29.5452 10.6951C30.2541 9.98647 31.2147 9.58735 32.217 9.58498C33.2193 9.58735 34.1799 9.98647 34.8888 10.6951C35.5977 11.4037 35.9972 12.3642 36 13.3665C35.9972 14.3688 35.5977 15.3293 34.8888 16.0379C34.1799 16.7465 33.2193 17.1456 32.217 17.148H28.434V13.3665ZM26.532 13.3665C26.5292 14.3691 26.1295 15.3297 25.4203 16.0384C24.7111 16.7471 23.7501 17.146 22.7475 17.148C21.7456 17.1452 20.7855 16.7459 20.0772 16.0373C19.3688 15.3286 18.9699 14.3684 18.9675 13.3665V3.89848C18.9695 2.89629 19.3683 1.93567 20.0766 1.22674C20.785 0.517804 21.7453 0.118253 22.7475 0.115479C23.7503 0.117459 24.7116 0.516612 25.4208 1.22559C26.1301 1.93457 26.5296 2.89564 26.532 3.89848V13.3665ZM22.7475 28.5495C23.7503 28.5515 24.7116 28.9506 25.4208 29.6596C26.1301 30.3686 26.5296 31.3296 26.532 32.3325C26.5296 33.3353 26.1301 34.2964 25.4208 35.0054C24.7116 35.7143 23.7503 36.1135 22.7475 36.1155C21.7453 36.1127 20.785 35.7132 20.0766 35.0042C19.3683 34.2953 18.9695 33.3347 18.9675 32.3325V28.5495H22.7475ZM22.7475 26.6475C21.7451 26.6447 20.7845 26.2449 20.0761 25.5357C19.3677 24.8264 18.9691 23.8654 18.9675 22.863C18.9699 21.8612 19.3689 20.9011 20.0773 20.1927C20.7856 19.4844 21.7457 19.0854 22.7475 19.083H32.217C33.2192 19.085 34.1798 19.4837 34.8887 20.1921C35.5977 20.9005 35.9972 21.8608 36 22.863C35.998 23.8658 35.5989 24.827 34.8899 25.5363C34.1809 26.2456 33.2198 26.6451 32.217 26.6475H22.7475Z"
    fill="currentColor" />
</svg>