<svg xmlns="http://www.w3.org/2000/svg" viewBox="0 0 680 380" fill="none">
  <style>
    text { font-family: system-ui, -apple-system, sans-serif; }
    .box { rx: 8; ry: 8; }
    .label { font-size: 14px; fill: #1a1a2e; font-weight: 600; }
    .sublabel { font-size: 11px; fill: #6b7280; }
    .arrow { stroke: #9ca3af; stroke-width: 2; marker-end: url(#arrowhead); }
    .branch { font-size: 11px; fill: #6b7280; font-style: italic; }
  </style>
  <defs>
    <marker id="arrowhead" markerWidth="8" markerHeight="6" refX="8" refY="3" orient="auto">
      <path d="M0,0 L8,3 L0,6" fill="#9ca3af"/>
    </marker>
  </defs>

  <!-- Q1 -->
  <rect class="box" x="180" y="20" width="300" height="60" fill="#f9fafb" stroke="#9ca3af" stroke-width="1.5"/>
  <text class="label" x="330" y="44" text-anchor="middle">Does it need to listen on a TCP port</text>
  <text class="label" x="330" y="62" text-anchor="middle">inside the workload?</text>

  <!-- Q1 → Service (Yes, right) -->
  <line class="arrow" x1="480" y1="50" x2="538" y2="50"/>
  <text class="branch" x="488" y="44">Yes</text>
  <rect class="box" x="540" y="20" width="120" height="60" fill="#eff6ff" stroke="#3b82f6" stroke-width="1.5"/>
  <text class="label" x="600" y="56" text-anchor="middle">Service</text>

  <!-- Q1 → Q2 (No, down) -->
  <line class="arrow" x1="330" y1="80" x2="330" y2="108"/>
  <text class="branch" x="338" y="98">No</text>

  <!-- Q2 -->
  <rect class="box" x="180" y="110" width="300" height="60" fill="#f9fafb" stroke="#9ca3af" stroke-width="1.5"/>
  <text class="label" x="330" y="134" text-anchor="middle">Should many workloads on the host</text>
  <text class="label" x="330" y="152" text-anchor="middle">share this capability in-process?</text>

  <!-- Q2 → Plugin (Yes, right) -->
  <line class="arrow" x1="480" y1="140" x2="538" y2="140"/>
  <text class="branch" x="488" y="134">Yes</text>
  <rect class="box" x="540" y="110" width="120" height="60" fill="#fff7ed" stroke="#f97316" stroke-width="1.5"/>
  <text class="label" x="600" y="146" text-anchor="middle">Plugin</text>

  <!-- Q2 → Q3 (No, down) -->
  <line class="arrow" x1="330" y1="170" x2="330" y2="198"/>
  <text class="branch" x="338" y="188">No</text>

  <!-- Q3 -->
  <rect class="box" x="180" y="200" width="300" height="60" fill="#f9fafb" stroke="#9ca3af" stroke-width="1.5"/>
  <text class="label" x="330" y="224" text-anchor="middle">Is it part of the application,</text>
  <text class="label" x="330" y="242" text-anchor="middle">or part of the platform?</text>

  <!-- Q3 → Service (Application, down-left) -->
  <line class="arrow" x1="250" y1="260" x2="250" y2="298"/>
  <text class="branch" x="258" y="282">Application</text>

  <!-- Q3 → Plugin (Platform, down-right) -->
  <line class="arrow" x1="410" y1="260" x2="410" y2="298"/>
  <text class="branch" x="418" y="282">Platform</text>

  <rect class="box" x="190" y="300" width="120" height="60" fill="#eff6ff" stroke="#3b82f6" stroke-width="1.5"/>
  <text class="label" x="250" y="336" text-anchor="middle">Service</text>

  <rect class="box" x="350" y="300" width="120" height="60" fill="#fff7ed" stroke="#f97316" stroke-width="1.5"/>
  <text class="label" x="410" y="336" text-anchor="middle">Plugin</text>
</svg>
