<svg id="eNDhQaK5dyn1" xmlns="http://www.w3.org/2000/svg" xmlns:xlink="http://www.w3.org/1999/xlink" viewBox="0 0 569.956627 442.34091" shape-rendering="geometricPrecision" text-rendering="geometricPrecision">
<style><![CDATA[
#eNDhQaK5dyn2_tr {animation: eNDhQaK5dyn2_tr__tr 1500ms linear 1 normal forwards}@keyframes eNDhQaK5dyn2_tr__tr { 0% {transform: translate(761.794394px,136.281725px) rotate(2.264407deg)} 6.666667% {transform: translate(761.794394px,136.281725px) rotate(2.264407deg);animation-timing-function: cubic-bezier(0.68,-0.55,0.265,1.55)} 40% {transform: translate(761.794394px,136.281725px) rotate(-2.147671deg);animation-timing-function: cubic-bezier(0.68,-0.55,0.265,1.55)} 73.333333% {transform: translate(761.794394px,136.281725px) rotate(0deg)} 100% {transform: translate(761.794394px,136.281725px) rotate(0deg)}} #eNDhQaK5dyn31_tr {animation: eNDhQaK5dyn31_tr__tr 1500ms linear 1 normal forwards}@keyframes eNDhQaK5dyn31_tr__tr { 0% {transform: translate(737.739121px,253.294963px) rotate(1.5deg)} 9.333333% {transform: translate(737.739121px,253.294963px) rotate(1.5deg);animation-timing-function: cubic-bezier(0.68,-0.55,0.265,1.55)} 42.666667% {transform: translate(737.739121px,253.294963px) rotate(-0.3deg);animation-timing-function: cubic-bezier(0.785,0.135,0.15,0.86)} 65.333333% {transform: translate(737.739121px,253.294963px) rotate(0deg)} 100% {transform: translate(737.739121px,253.294963px) rotate(0deg)}} #eNDhQaK5dyn59_tr {animation: eNDhQaK5dyn59_tr__tr 1500ms linear 1 normal forwards}@keyframes eNDhQaK5dyn59_tr__tr { 0% {transform: translate(771.416504px,204.444619px) rotate(1.5deg)} 7.333333% {transform: translate(771.416504px,204.444619px) rotate(1.5deg);animation-timing-function: cubic-bezier(0.68,-0.55,0.265,1.55)} 40.666667% {transform: translate(771.416504px,204.444619px) rotate(-0.3deg);animation-timing-function: cubic-bezier(0.785,0.135,0.15,0.86)} 63.333333% {transform: translate(771.416504px,204.444619px) rotate(0deg)} 100% {transform: translate(771.416504px,204.444619px) rotate(0deg)}} #eNDhQaK5dyn87_tr {animation: eNDhQaK5dyn87_tr__tr 1500ms linear 1 normal forwards}@keyframes eNDhQaK5dyn87_tr__tr { 0% {transform: translate(738.701331px,17.61808px) rotate(1.5deg)} 4% {transform: translate(738.701331px,17.61808px) rotate(1.5deg);animation-timing-function: cubic-bezier(0.68,-0.55,0.265,1.55)} 37.333333% {transform: translate(738.701331px,17.61808px) rotate(-0.3deg);animation-timing-function: cubic-bezier(0.785,0.135,0.15,0.86)} 60% {transform: translate(738.701331px,17.61808px) rotate(0deg)} 100% {transform: translate(738.701331px,17.61808px) rotate(0deg)}} #eNDhQaK5dyn115_tr {animation: eNDhQaK5dyn115_tr__tr 1500ms linear 1 normal forwards}@keyframes eNDhQaK5dyn115_tr__tr { 0% {transform: translate(777.18977px,407.386222px) rotate(1.5deg);animation-timing-function: cubic-bezier(0.68,-0.55,0.265,1.55)} 33.333333% {transform: translate(777.18977px,407.386222px) rotate(-0.3deg);animation-timing-function: cubic-bezier(0.785,0.135,0.15,0.86)} 56% {transform: translate(777.18977px,407.386222px) rotate(0deg)} 100% {transform: translate(777.18977px,407.386222px) rotate(0deg)}} #eNDhQaK5dyn127_tr {animation: eNDhQaK5dyn127_tr__tr 1500ms linear 1 normal forwards}@keyframes eNDhQaK5dyn127_tr__tr { 0% {transform: translate(787.77409px,410.272855px) rotate(1.5deg)} 2.666667% {transform: translate(787.77409px,410.272855px) rotate(1.5deg);animation-timing-function: cubic-bezier(0.68,-0.55,0.265,1.55)} 36% {transform: translate(787.77409px,410.272855px) rotate(0deg);animation-timing-function: cubic-bezier(0.68,-0.55,0.265,1.55)} 63.333333% {transform: translate(787.77409px,410.272855px) rotate(0deg)} 100% {transform: translate(787.77409px,410.272855px) rotate(0deg)}} #eNDhQaK5dyn139_tr {animation: eNDhQaK5dyn139_tr__tr 1500ms linear 1 normal forwards}@keyframes eNDhQaK5dyn139_tr__tr { 0% {transform: translate(802.207254px,448.761293px) rotate(0.5deg)} 5.333333% {transform: translate(802.207254px,448.761293px) rotate(0.5deg);animation-timing-function: cubic-bezier(0.68,-0.55,0.265,1.55)} 38.666667% {transform: translate(802.207254px,448.761293px) rotate(0deg);animation-timing-function: cubic-bezier(0.68,-0.55,0.265,1.55)} 66% {transform: translate(802.207254px,448.761293px) rotate(0deg)} 100% {transform: translate(802.207254px,448.761293px) rotate(0deg)}} #eNDhQaK5dyn151_tr {animation: eNDhQaK5dyn151_tr__tr 1500ms linear 1 normal forwards}@keyframes eNDhQaK5dyn151_tr__tr { 0% {transform: translate(687.704151px,393.656909px) rotate(2.264407deg);animation-timing-function: cubic-bezier(0.68,-0.55,0.265,1.55)} 8% {transform: translate(687.704151px,393.656909px) rotate(2.264407deg);animation-timing-function: cubic-bezier(0.68,-0.55,0.265,1.55)} 33.333333% {transform: translate(687.704151px,393.656909px) rotate(-2.147671deg);animation-timing-function: cubic-bezier(0.68,-0.55,0.265,1.55)} 41.333333% {transform: translate(687.704151px,393.656909px) rotate(-2.147671deg);animation-timing-function: cubic-bezier(0.68,-0.55,0.265,1.55)} 66.666667% {transform: translate(687.704151px,393.656909px) rotate(0deg)} 74.666667% {transform: translate(687.704151px,393.656909px) rotate(0deg)} 100% {transform: translate(687.704151px,393.656909px) rotate(0deg)}}
]]></style>
<g id="eNDhQaK5dyn2_tr" transform="translate(761.794394,136.281725) rotate(2.264407)"><g transform="translate(-761.794393,-136.281706)"><g><g transform="matrix(.984601-.174814 0.174814 0.984601 211.954 173.684)"><path d="M0,0l.61.29-4.53,3.23-83.15,27.83-89.81-57.36-.55-1.3l102.07-34.78L0.54,0.46" fill="#007054" fill-rule="evenodd" stroke-width="0" stroke-linecap="round"/><path d="M0,0c.17.08.33.16.61.29M0,0c.12.06.25.12.61.29m0,0c-1.5,1.06-2.99,2.13-4.53,3.23M0.61,0.29c-1.77,1.26-3.54,2.53-4.53,3.23m0,0c-29.26,9.79-58.52,19.58-83.15,27.83M-3.92,3.52C-29.26,12,-54.6,20.48,-87.07,31.35m0,0c-21.13-13.5-42.27-27-89.81-57.36m89.81,57.36c-35.33-22.57-70.67-45.13-89.81-57.36m0,0c-.18-.41-.35-.82-.55-1.3m.55,1.3c-.13-.31-.26-.61-.55-1.3m0,0c36.76-12.52,73.52-25.05,102.07-34.78m-102.07,34.78c31.01-10.56,62.01-21.13,102.07-34.78m0,0c18.99,15.65,37.97,31.29,75.9,62.55m-75.9-62.55c15.94,13.13,31.87,26.27,75.9,62.55m0,0C0.33,0.29,0.13,0.11,0,0m.54.46C0.39,0.33,0.24,0.21,0,0" fill="none" fill-rule="evenodd" stroke="rgba(0,0,0,0)" stroke-width="2" stroke-linecap="round"/></g></g><g transform="translate(.000001 0.000001)"><g><g transform="matrix(.984601-.174814 0.174814 0.984601 33.4498 178.552)"><path d="M0,0l-1.91-1.99-.28-3.73l1.68-52.26l1.77-6.75l6.12-4.56l89.76-38.05l4.07.24-.15,71.26L6.71,-1.99L3.47,-0.78L0,0" fill="#00bc8e" fill-rule="evenodd" stroke-width="0" stroke-linecap="round"/><path d="M0,0c-.42-.44-.84-.87-1.91-1.99M0,0c-.42-.43-.83-.87-1.91-1.99m0,0c-.07-.91-.14-1.83-.28-3.73m.28,3.73c-.08-1.13-.17-2.26-.28-3.73m0,0c.54-16.72,1.08-33.45,1.68-52.26M-2.19,-5.72c.56-17.27,1.11-34.55,1.68-52.26m0,0c.52-2,1.05-4,1.77-6.75m-1.77,6.75c.6-2.29,1.21-4.59,1.77-6.75m0,0c1.53-1.14,3.06-2.27,6.12-4.56m-6.12,4.56c2.25-1.67,4.5-3.35,6.12-4.56m0,0c33.07-14.01,66.13-28.03,89.76-38.05M7.38,-69.29c27.14-11.5,54.28-23.01,89.76-38.05m0,0c1.41.08,2.81.17,4.07.24m-4.07-.24c1.01.06,2.03.12,4.07.24m0,0c-.04,18.91-.08,37.82-.15,71.26m.15-71.26c-.05,27.26-.11,54.52-.15,71.26m0,0c-18.95,6.8-37.91,13.6-94.35,33.85m94.35-33.85C71.55,-25.25,42.04,-14.67,6.71,-1.99m0,0c-.97.36-1.93.72-3.24,1.21m3.24-1.21c-1.1.41-2.2.82-3.24,1.21m0,0C2.19,-0.49,0.9,-0.2,0,0m3.47-.78c-.74.17-1.49.34-3.47.78M0,0C0,0,0,0,0,0M0,0C0,0,0,0,0,0" fill="none" fill-rule="evenodd" stroke="rgba(0,0,0,0)" stroke-width="2" stroke-linecap="round"/></g></g><g><g transform="matrix(.984601-.174814 0.174814 0.984601 212.427 174.387)"><path d="M0,0l1.47-2.68.79-4.18.79-52.4-1.94-4.4-2.88-3.07-69.9-66.01-3.99-1.19.21,70.67L0,0" fill="#00bc8e" fill-rule="evenodd" stroke-width="0" stroke-linecap="round"/><path d="M0,0c.59-1.07,1.17-2.13,1.47-2.68M0,0c.47-.85.93-1.7,1.47-2.68m0,0c.3-1.59.6-3.18.79-4.18m-.79,4.18c.31-1.64.62-3.29.79-4.18m0,0c.26-17.24.52-34.49.79-52.4m-.79,52.4c.19-12.37.37-24.74.79-52.4m0,0c-.57-1.29-1.14-2.58-1.94-4.4m1.94,4.4c-.75-1.7-1.5-3.4-1.94-4.4m0,0c-.67-.71-1.33-1.41-2.88-3.07m2.88,3.07c-1-1.06-1.99-2.12-2.88-3.07m0,0c-27.29-25.77-54.58-51.54-69.9-66.01m69.9,66.01c-23.35-22.06-46.71-44.11-69.9-66.01m0,0c-.86-.26-1.71-.51-3.99-1.19m3.99,1.19c-1.4-.42-2.81-.84-3.99-1.19m0,0c.07,22.91.14,45.81.21,70.67m-.21-70.67c.07,23.87.14,47.75.21,70.67m0,0C-59.93,-50.24,-44.41,-37.23,0,0m-75.45-63.26C-58.24,-48.83,-41.03,-34.4,0,0M0,0C0,0,0,0,0,0M0,0C0,0,0,0,0,0" fill="none" fill-rule="evenodd" stroke="rgba(0,0,0,0)" stroke-width="2" stroke-linecap="round"/></g></g><g><g transform="matrix(.984601-.174814 0.174814 0.984601 98.6434 84.2552)"><path d="M0,0l20.47-8.19-.26,53.86L0,53.23L-58.59,74.88v-48.45l28.14-12.24-.84,40.19L0.14,41.93L-0.28,0.17" fill="#e5f2ff" fill-opacity="0.8" fill-rule="evenodd" stroke-width="0" stroke-opacity="0.8" stroke-linecap="round"/><path d="M0,0c4.52-1.81,9.04-3.62,20.47-8.19M0,0c4.3-1.72,8.6-3.44,20.47-8.19m0,0c-.08,15.92-.15,31.84-.26,53.86m.26-53.86c-.07,15.75-.15,31.5-.26,53.86m0,0C15.69,47.36,11.18,49.05,0,53.23m20.21-7.56C14.31,47.88,8.41,50.08,0,53.23m0,0c-22.82,8.43-45.65,16.86-58.59,21.65M0,53.23c-15.14,5.59-30.29,11.19-58.59,21.65m0,0c0-13.07,0-26.13,0-48.45m0,48.45c0-12.96,0-25.91,0-48.45m0,0c9.05-3.94,18.1-7.87,28.14-12.24M-58.59,26.43c7.87-3.43,15.75-6.85,28.14-12.24m0,0c-.31,15.09-.63,30.17-.84,40.19m.84-40.19c-.25,12.13-.51,24.26-.84,40.19m0,0c10.19-4.04,20.38-8.07,31.43-12.45M-31.29,54.38c7.66-3.03,15.32-6.07,31.43-12.45m0,0c-.13-13.15-.27-26.3-.42-41.76m.42,41.76c-.12-11.65-.24-23.3-.42-41.76m0,0c.06-.04.13-.08.28-.17m-.28.17c.08-.05.17-.1.28-.17" fill="none" fill-opacity="0.8" fill-rule="evenodd" stroke="rgba(0,0,0,0)" stroke-width="2" stroke-opacity="0.8" stroke-linecap="round"/></g></g><g><g transform="matrix(.984601-.174814 0.174814 0.984601 118.422 72.1979)"><path d="M0,0L17.83,14.24l-.72,42L38.52,74.27l1.05-35.54L58.45,55.29l-1.58,46.09L17.15,68L-0.26,53.86v-54.5" fill="#fff" fill-opacity="0.7" fill-rule="evenodd" stroke-width="0" stroke-opacity="0.7" stroke-linecap="round"/><path d="M0,0C5.68,4.54,11.36,9.07,17.83,14.24M0,0C7.02,5.6,14.03,11.21,17.83,14.24m0,0c-.24,13.81-.48,27.62-.72,42m.72-42c-.17,9.56-.33,19.13-.72,42m0,0c6.53,5.5,13.05,10.99,21.41,18.03M17.11,56.24c4.61,3.88,9.22,7.77,21.41,18.03m0,0c.34-11.58.69-23.16,1.05-35.54M38.52,74.27c.27-8.96.53-17.93,1.05-35.54m0,0c4.37,3.83,8.73,7.66,18.88,16.56M39.57,38.73c5.51,4.83,11.02,9.66,18.88,16.56m0,0c-.49,14.29-.98,28.59-1.58,46.09m1.58-46.09c-.32,9.39-.64,18.77-1.58,46.09m0,0C45.21,91.58,33.55,81.78,17.15,68m39.72,33.38C43.6,90.23,30.33,79.08,17.15,68m0,0c-4.24-3.45-8.49-6.9-17.41-14.14M17.15,68C10.81,62.85,4.46,57.69,-0.26,53.86m0,0c0-18.85,0-37.7,0-54.5m0,54.5c0-14.77,0-29.55,0-54.5m0,0c.1.26.21.51.26.64m-.26-.64c.1.25.2.49.26.64" fill="none" fill-opacity="0.7" fill-rule="evenodd" stroke="rgba(0,0,0,0)" stroke-width="2" stroke-opacity="0.7" stroke-linecap="round"/></g></g><g><g transform="matrix(.984601-.174814 0.174814 0.984601 23.0407 123.413)"><path d="M0,0c-.43,10.81-.86,21.62-1.86,46.94M0,0c-.53,13.25-1.05,26.51-1.86,46.94m0,0c.14,1.6.29,3.2.62,6.93m-.62-6.93c.13,1.42.25,2.84.62,6.93m0,0c.73,1.09,1.46,2.19,1.86,2.79m-1.86-2.79c.55.83,1.11,1.66,1.86,2.79m0,0c2.59,1.67,5.18,3.35,7.34,4.75M0.62,56.66c2.9,1.88,5.8,3.76,7.34,4.75m0,0c27.41,17.5,54.81,35,69.79,44.57M7.96,61.41c24.6,15.71,49.2,31.42,69.79,44.57m0,0c2.13,1.4,4.27,2.79,9.31,6.1m-9.31-6.1c1.94,1.26,3.87,2.53,9.31,6.1m0,0c2.55,0,5.1,0,8.37,0m-8.37,0c2.02,0,4.05,0,8.37,0m0,0c28.72-9.46,57.43-18.92,76.3-25.13m-76.3,25.13c25.62-8.44,51.24-16.87,76.3-25.13m0,0c.98-.47,1.95-.95,4.66-2.27m-4.66,2.27c1.08-.52,2.15-1.05,4.66-2.27m0,0c.87-1.21,1.74-2.42,2.37-3.31m-2.37,3.31c.68-.96,1.37-1.91,2.37-3.31m0,0c.13-1.65.25-3.31.42-5.58m-.42,5.58c.15-1.95.29-3.9.42-5.58m0,0c.47-16.19.95-32.38,1.44-49.32m-1.44,49.32c.42-14.43.84-28.86,1.44-49.32m0,0c-.48-1.49-.97-2.99-1.34-4.14m1.34,4.14c-.39-1.22-.79-2.45-1.34-4.14m0,0c-.6-1.17-1.2-2.34-2.38-4.65m2.38,4.65c-.93-1.83-1.87-3.65-2.38-4.65m0,0c-1.44-1.15-2.88-2.3-4.65-3.72m4.65,3.72c-1.56-1.25-3.12-2.5-4.65-3.72m0,0c-10.52-10.14-21.04-20.29-37.22-35.88m37.22,35.88c-13.06-12.59-26.11-25.17-37.22-35.88m0,0c-6.36-6.02-12.73-12.04-25.13-23.78m25.13,23.78c-5.06-4.78-10.11-9.57-25.13-23.78m0,0c-1.04-1.02-2.08-2.04-4.65-4.55m4.65,4.55c-1.6-1.57-3.2-3.13-4.65-4.55m0,0c-.79-.11-1.58-.22-3.72-.51m3.72.51c-1.46-.2-2.92-.4-3.72-.51m0,0c-.89,0-1.78,0-3.72,0m3.72,0c-1.01,0-2.01,0-3.72,0m0,0c-1.1.4-2.2.8-5.07,1.86m5.07-1.86c-1.4.51-2.8,1.02-5.07,1.86m0,0C64.12,-36.83,35.5,-24.75,9.93,-13.96M92.74,-48.9c-19.92,8.4-39.84,16.81-82.81,34.94m0,0c-1.23.83-2.45,1.66-6.1,4.14m6.1-4.14c-2.36,1.6-4.71,3.19-6.1,4.14m0,0c-1.04,1.63-2.07,3.26-3.21,5.06m3.21-5.06c-.92,1.45-1.84,2.89-3.21,5.06m0,0C0.43,-3.3,0.24,-1.83,0,0m.62-4.76C0.42,-3.22,0.22,-1.68,0,0" fill="none" stroke="#000" stroke-width="4" stroke-linecap="round"/></g></g></g><g><g transform="matrix(.984601-.174814 0.174814 0.984601 54.6469 167.648)"><path d="M0,0L66.34,43.66l69.72-24.68-57.38-47.46L0,0" fill="#fff" fill-opacity="0.3" fill-rule="evenodd" stroke-width="0" stroke-opacity="0.3" stroke-linecap="round"/><path d="M0,0C17.16,11.29,34.32,22.59,66.34,43.66M0,0C24.43,16.08,48.86,32.16,66.34,43.66m0,0c27.89-9.87,55.77-19.74,69.72-24.68M66.34,43.66c17.86-6.32,35.72-12.64,69.72-24.68m0,0c-16.22-13.41-32.43-26.82-57.38-47.46m57.38,47.46C115.89,2.3,95.72,-14.38,78.68,-28.48m0,0C57.58,-20.84,36.47,-13.2,0,0m78.68-28.48C53.32,-19.3,27.96,-10.12,0,0M0,0C0,0,0,0,0,0M0,0C0,0,0,0,0,0" fill="none" fill-opacity="0.3" fill-rule="evenodd" stroke="rgba(0,0,0,0)" stroke-width="2" stroke-opacity="0.3" stroke-linecap="round"/></g></g></g></g><g id="eNDhQaK5dyn31_tr" transform="translate(737.739121,253.294963) rotate(1.5)"><g transform="translate(-737.73912,-253.294953)"><g><g transform="matrix(.970909-.239448 0.239448 0.970909 341.688 359.846)"><path d="M0,0l.3.14-2.22,1.59-40.77,13.64-44.02-28.12-.27-.64l50.04-17.05L0.26,0.23" fill="#007054" fill-rule="evenodd" stroke-width="0" stroke-linecap="round"/><path d="M0,0c.08.04.16.08.3.14M0,0c.09.04.18.09.3.14m0,0c-.46.33-.92.65-2.22,1.59M0.3,0.14c-.57.41-1.13.81-2.22,1.59m0,0c-11,3.68-22,7.36-40.77,13.64M-1.92,1.73c-15.95,5.33-31.9,10.67-40.77,13.64m0,0c-9.1-5.82-18.21-11.63-44.02-28.12m44.02,28.12c-12.75-8.15-25.5-16.29-44.02-28.12m0,0c-.09-.2-.17-.39-.27-.64m.27.64c-.07-.16-.14-.31-.27-.64m0,0c19.93-6.79,39.87-13.58,50.04-17.05m-50.04,17.05c12.11-4.13,24.23-8.25,50.04-17.05m0,0c12.28,10.13,24.57,20.25,37.2,30.67m-37.2-30.67c14.73,12.15,29.46,24.29,37.2,30.67m0,0C0.17,0.14,0.07,0.06,0,0m.26.23C0.18,0.15,0.09,0.08,0,0" fill="none" fill-rule="evenodd" stroke="rgba(0,0,0,0)" stroke-width="2" stroke-linecap="round"/></g></g><g><g transform="matrix(.970909-.239448 0.239448 0.970909 254.528 368.006)"><path d="M0,0l-.94-.97-.13-1.83.82-25.62.87-3.31l3-2.24l44-18.65l2,.12-.08,34.93L3.29,-0.97l-1.59.59L0,0" fill="#00bc8e" fill-rule="evenodd" stroke-width="0" stroke-linecap="round"/><path d="M0,0c-.19-.19-.38-.39-.94-.97M0,0c-.31-.33-.63-.65-.94-.97m0,0c-.03-.51-.07-1.01-.13-1.83m.13,1.83c-.03-.48-.07-.96-.13-1.83m0,0c.24-7.54.48-15.08.82-25.62M-1.07,-2.8c.17-5.5.35-10.99.82-25.62m0,0c.17-.67.35-1.33.87-3.31m-.87,3.31c.19-.72.37-1.43.87-3.31m0,0c.8-.6,1.61-1.2,3-2.24m-3,2.24c.82-.61,1.64-1.22,3-2.24m0,0c17.24-7.31,34.48-14.62,44-18.65m-44,18.65c10.76-4.56,21.52-9.12,44-18.65m0,0c.55.03,1.09.06,2,.12m-2-.12c.79.04,1.57.09,2,.12m0,0c-.02,11.09-.05,22.18-.08,34.93m.08-34.93c-.02,8.74-.04,17.48-.08,34.93m0,0c-10.09,3.62-20.18,7.24-46.25,16.6m46.25-16.6c-17.23,6.18-34.46,12.36-46.25,16.6m0,0c-.4.15-.8.29-1.59.59m1.59-.59c-.32.12-.64.24-1.59.59m0,0c-.46.1-.91.2-1.7.38m1.7-.38c-.39.08-.77.17-1.7.38M0,0C0,0,0,0,0,0M0,0C0,0,0,0,0,0" fill="none" fill-rule="evenodd" stroke="rgba(0,0,0,0)" stroke-width="2" stroke-linecap="round"/></g></g><g><g transform="matrix(.970909-.239448 0.239448 0.970909 341.943 360.175)"><path d="M0,0l.72-1.32.39-2.04.39-25.69-.96-2.16-1.41-1.5-34.26-32.36-1.96-.59.1,34.65L0,0" fill="#00bc8e" fill-rule="evenodd" stroke-width="0" stroke-linecap="round"/><path d="M0,0c.27-.48.53-.97.72-1.32M0,0c.18-.33.36-.66.72-1.32m0,0c.11-.55.21-1.11.39-2.04m-.39,2.04c.11-.55.21-1.1.39-2.04m0,0c.14-9.64.29-19.27.39-25.69M1.11,-3.36c.1-6.63.2-13.25.39-25.69m0,0c-.25-.56-.5-1.12-.96-2.16m.96,2.16c-.38-.84-.75-1.68-.96-2.16m0,0c-.46-.49-.92-.98-1.41-1.5m1.41,1.5c-.56-.6-1.12-1.2-1.41-1.5m0,0c-12.88-12.17-25.77-24.34-34.26-32.36m34.26,32.36c-11.13-10.52-22.26-21.03-34.26-32.36m0,0c-.6-.18-1.19-.36-1.96-.59m1.96.59c-.76-.23-1.52-.46-1.96-.59m0,0c.03,9.96.06,19.91.1,34.65m-.1-34.65c.04,11.71.07,23.43.1,34.65m0,0C-26.39,-22.13,-15.8,-13.25,0,0m-36.99-31.01C-25.36,-21.26,-13.73,-11.51,0,0M0,0C0,0,0,0,0,0M0,0C0,0,0,0,0,0" fill="none" fill-rule="evenodd" stroke="rgba(0,0,0,0)" stroke-width="2" stroke-linecap="round"/></g></g><g><g transform="matrix(.970909-.239448 0.239448 0.970909 283.366 319.769)"><path d="M0,0l10.04-4.01-.13,26.4L0,26.09L-28.72,36.71v-23.75l13.79-6-.41,19.7l15.41-6.1-.21-20.48" fill="#e5f2ff" fill-opacity="0.8" fill-rule="evenodd" stroke-width="0" stroke-opacity="0.8" stroke-linecap="round"/><path d="M0,0c3.4-1.36,6.8-2.72,10.04-4.01M0,0c2.21-.88,4.41-1.77,10.04-4.01m0,0C10,2.7,9.97,9.41,9.91,22.39m.13-26.4c-.05,8.53-.09,17.07-.13,26.4m0,0C5.97,23.86,2.04,25.33,0,26.09m9.91-3.7C6.39,23.71,2.87,25.02,0,26.09m0,0c-9.56,3.53-19.12,7.07-28.72,10.62M0,26.09c-7.38,2.73-14.75,5.45-28.72,10.62m0,0c0-5.3,0-10.6,0-23.75m0,23.75c0-9.27,0-18.53,0-23.75m0,0c4.39-1.91,8.77-3.82,13.79-6m-13.79,6c5.45-2.37,10.9-4.74,13.79-6m0,0c-.14,6.83-.28,13.66-.41,19.7m.41-19.7c-.14,6.93-.29,13.86-.41,19.7m0,0c3.19-1.27,6.38-2.53,15.41-6.1m-15.41,6.1c3.65-1.45,7.29-2.89,15.41-6.1m0,0c-.08-7.31-.15-14.61-.21-20.48m.21,20.48c-.06-5.83-.12-11.65-.21-20.48m0,0c.04-.02.09-.05.14-.08m-.14.08c.04-.02.07-.04.14-.08" fill="none" fill-opacity="0.8" fill-rule="evenodd" stroke="rgba(0,0,0,0)" stroke-width="2" stroke-opacity="0.8" stroke-linecap="round"/></g></g><g><g transform="matrix(.970909-.239448 0.239448 0.970909 264.544 361.985)"><path d="M0,0L32.52,21.41L66.7,9.31L38.57,-13.96L0,0" fill="#fff" fill-opacity="0.3" fill-rule="evenodd" stroke-width="0" stroke-opacity="0.3" stroke-linecap="round"/><path d="M0,0C11.16,7.34,22.31,14.69,32.52,21.41M0,0C11.52,7.58,23.03,15.16,32.52,21.41m0,0c7.93-2.81,15.86-5.62,34.18-12.1M32.52,21.41c9.36-3.32,18.72-6.63,34.18-12.1m0,0c-10.88-9-21.75-17.99-28.13-23.27M66.7,9.31c-8.87-7.34-17.75-14.68-28.13-23.27m0,0C23.44,-8.48,8.31,-3.01,0,0m38.57-13.96C27.18,-9.84,15.78,-5.71,0,0M0,0C0,0,0,0,0,0M0,0C0,0,0,0,0,0" fill="none" fill-opacity="0.3" fill-rule="evenodd" stroke="rgba(0,0,0,0)" stroke-width="2" stroke-opacity="0.3" stroke-linecap="round"/></g></g><g><g transform="matrix(.970909-.239448 0.239448 0.970909 292.651 313.23)"><path d="M0,0L8.74,6.98L8.39,27.57l10.49,8.84.52-17.42l9.26,8.11-.78,22.6L8.41,33.34L-0.13,26.4v-26.71" fill="#fff" fill-opacity="0.7" fill-rule="evenodd" stroke-width="0" stroke-opacity="0.7" stroke-linecap="round"/><path d="M0,0C3.08,2.46,6.16,4.92,8.74,6.98M0,0C2.57,2.05,5.13,4.1,8.74,6.98m0,0c-.12,7.22-.25,14.43-.35,20.59M8.74,6.98c-.09,5.34-.18,10.69-.35,20.59m0,0c4.14,3.49,8.28,6.98,10.49,8.84M8.39,27.57c3.04,2.57,6.09,5.13,10.49,8.84m0,0c.12-4.04.24-8.08.52-17.42m-.52,17.42c.15-4.99.3-9.98.52-17.42m0,0c2.54,2.23,5.09,4.46,9.26,8.11M19.4,18.99c3.7,3.24,7.4,6.48,9.26,8.11m0,0c-.23,6.62-.46,13.24-.78,22.6m.78-22.6c-.23,6.59-.46,13.18-.78,22.6m0,0c-3.95-3.32-7.89-6.63-19.47-16.36M27.88,49.7c-5.72-4.81-11.45-9.62-19.47-16.36m0,0c-3.07-2.49-6.14-4.99-8.54-6.94m8.54,6.94c-2.29-1.86-4.58-3.72-8.54-6.94m0,0c0-9.25,0-18.5,0-26.71m0,26.71c0-9.7,0-19.4,0-26.71m0,0c.04.08.07.16.13.31m-.13-.31c.04.08.07.17.13.31" fill="none" fill-opacity="0.7" fill-rule="evenodd" stroke="rgba(0,0,0,0)" stroke-width="2" stroke-opacity="0.7" stroke-linecap="round"/></g></g><g><g transform="matrix(.970909-.239448 0.239448 0.970909 247.652 341.37)"><path d="M0,0c-.25,6.18-.49,12.37-.91,23.01M0,0c-.24,6.14-.49,12.28-.91,23.01m0,0c.11,1.27.23,2.54.3,3.4m-.3-3.4c.08.9.16,1.81.3,3.4m0,0c.26.38.52.77.91,1.37m-.91-1.37c.22.32.44.65.91,1.37m0,0c1.24.8,2.48,1.6,3.6,2.33M0.3,27.78c1,.64,2,1.29,3.6,2.33m0,0c8.81,5.62,17.62,11.25,34.22,21.84M3.9,30.11c10.06,6.42,20.12,12.84,34.22,21.84m0,0c1.19.79,2.38,1.57,4.56,2.99m-4.56-2.99c1.71,1.13,3.42,2.25,4.56,2.99m0,0c.94,0,1.88,0,4.1,0m-4.1,0c.99,0,1.99,0,4.1,0m0,0c9.53-3.13,19.05-6.27,37.41-12.31M46.78,54.94c8-2.63,15.99-5.26,37.41-12.31m0,0c.78-.39,1.57-.77,2.28-1.12m-2.28,1.12c.59-.29,1.18-.58,2.28-1.12m0,0c.24-.34.49-.68,1.17-1.62m-1.17,1.62c.42-.59.85-1.18,1.17-1.62m0,0c.07-.97.14-1.94.2-2.74m-.2,2.74c.07-1.05.15-2.1.2-2.74m0,0c.19-6.55.38-13.1.71-24.17m-.71,24.17c.15-5.12.3-10.24.71-24.17m0,0c-.21-.66-.43-1.31-.66-2.03m.66,2.03c-.15-.47-.3-.93-.66-2.03m0,0c-.4-.78-.8-1.56-1.17-2.28m1.17,2.28c-.31-.61-.62-1.21-1.17-2.28m0,0c-.72-.58-1.44-1.15-2.28-1.83m2.28,1.83c-.6-.49-1.21-.97-2.28-1.83m0,0C77.5,0.15,70.56,-6.54,66.2,-10.75M84.44,6.84c-4.45-4.29-8.9-8.58-18.24-17.59m0,0c-3.82-3.61-7.64-7.23-12.32-11.65M66.2,-10.75c-4.21-3.98-8.42-7.96-12.32-11.65m0,0c-.7-.69-1.4-1.37-2.28-2.23m2.28,2.23c-.89-.87-1.78-1.74-2.28-2.23m0,0c-.53-.08-1.06-.15-1.83-.26m1.83.26c-.67-.1-1.34-.19-1.83-.26m0,0c-.54,0-1.07,0-1.82,0m1.82,0c-.65,0-1.3,0-1.82,0m0,0c-.87.32-1.74.64-2.48.92m2.48-.92c-.54.2-1.08.4-2.48.92m0,0c-11.36,4.79-22.72,9.58-40.6,17.13m40.6-17.13c-13.1,5.52-26.2,11.05-40.6,17.13m0,0c-1.16.78-2.32,1.57-2.99,2.02m2.99-2.02c-.72.48-1.43.97-2.99,2.02m0,0c-.4.63-.8,1.26-1.58,2.49m1.58-2.49c-.44.69-.87,1.37-1.58,2.49m0,0c-.06.49-.12.98-.3,2.33m.3-2.33c-.1.8-.21,1.61-.3,2.33" fill="none" stroke="#000" stroke-width="4" stroke-linecap="round"/></g></g></g></g><g id="eNDhQaK5dyn59_tr" transform="translate(771.416504,204.444619) rotate(1.5)"><g transform="translate(-771.416504,-204.444613)"><g><g transform="matrix(.985469-.169853 0.169853 0.985469 526.428 293.091)"><path d="M0,0l.19.09-1.44,1.03-26.44,8.85-28.56-18.24-.18-.41l32.46-11.07L0.17,0.15" fill="#007054" fill-rule="evenodd" stroke-width="0" stroke-linecap="round"/><path d="M0,0c.05.02.09.04.19.09M0,0c.07.03.13.06.19.09m0,0c-.53.39-1.07.77-1.44,1.03M0.19,0.09c-.51.37-1.03.74-1.44,1.03m0,0c-9.1,3.05-18.21,6.09-26.44,8.85M-1.25,1.12c-9.6,3.21-19.21,6.43-26.44,8.85m0,0c-6.36-4.06-12.72-8.12-28.56-18.24M-27.69,9.97c-7.6-4.85-15.2-9.7-28.56-18.24m0,0c-.05-.11-.1-.23-.18-.41m.18.41c-.04-.09-.08-.17-.18-.41m0,0c6.79-2.32,13.57-4.63,32.46-11.07M-56.43,-8.68c10.63-3.63,21.26-7.25,32.46-11.07m0,0c8.47,6.98,16.94,13.96,24.14,19.9m-24.14-19.9c6.77,5.58,13.54,11.16,24.14,19.9m0,0C0.12,0.11,0.07,0.06,0,0m.17.15C0.14,0.12,0.1,0.09,0,0" fill="none" fill-rule="evenodd" stroke="rgba(0,0,0,0)" stroke-width="2" stroke-linecap="round"/></g></g><g><g transform="matrix(.985469-.169853 0.169853 0.985469 469.651 294.353)"><path d="M0,0l-.61-.63-.09-1.19.54-16.62.56-2.15l1.95-1.45l28.54-12.1l1.3.08-.05,22.66L2.13,-0.63l-1.03.38L0,0" fill="#00bc8e" fill-rule="evenodd" stroke-width="0" stroke-linecap="round"/><path d="M0,0c-.22-.23-.44-.46-.61-.63M0,0c-.14-.14-.28-.29-.61-.63m0,0c-.03-.46-.06-.91-.09-1.19m.09,1.19c-.03-.45-.06-.89-.09-1.19m0,0c.15-4.48.29-8.96.54-16.62M-0.7,-1.82c.11-3.37.22-6.74.54-16.62m0,0c.14-.55.29-1.09.56-2.15m-.56,2.15c.2-.76.4-1.53.56-2.15m0,0c.64-.47,1.27-.94,1.95-1.45M0.4,-20.59c.54-.4,1.08-.8,1.95-1.45m0,0c10.89-4.61,21.78-9.23,28.54-12.1M2.35,-22.04c8.84-3.74,17.68-7.49,28.54-12.1m0,0c.39.02.77.05,1.3.08m-1.3-.08c.36.02.71.04,1.3.08m0,0c-.01,6.22-.03,12.44-.05,22.66m.05-22.66c-.02,8.41-.04,16.83-.05,22.66m0,0c-9.43,3.39-18.87,6.77-30.01,10.77M32.14,-11.4C21.12,-7.44,10.1,-3.49,2.13,-0.63m0,0c-.37.14-.75.28-1.03.38m1.03-.38c-.29.11-.58.22-1.03.38m0,0c-.42.1-.84.19-1.1.25m1.1-.25c-.43.1-.86.2-1.1.25M0,0C0,0,0,0,0,0M0,0C0,0,0,0,0,0" fill="none" fill-rule="evenodd" stroke="rgba(0,0,0,0)" stroke-width="2" stroke-linecap="round"/></g></g><g><g transform="matrix(.985469-.169853 0.169853 0.985469 526.578 293.315)"><path d="M0,0l.47-.85.25-1.33.25-16.67-.62-1.4-.91-.97-22.23-21-1.27-.38.06,22.48L0,0" fill="#00bc8e" fill-rule="evenodd" stroke-width="0" stroke-linecap="round"/><path d="M0,0c.13-.23.25-.46.47-.85M0,0c.1-.19.21-.38.47-.85m0,0c.08-.43.16-.86.25-1.33m-.25,1.33c.1-.52.19-1.04.25-1.33m0,0c.07-4.88.15-9.76.25-16.67M0.72,-2.18c.06-4.28.13-8.56.25-16.67m0,0c-.24-.53-.47-1.06-.62-1.4m.62,1.4c-.14-.32-.28-.64-.62-1.4m0,0c-.18-.19-.37-.39-.91-.97m.91.97c-.36-.39-.73-.78-.91-.97m0,0c-5.71-5.39-11.42-10.78-22.23-21m22.23,21c-7.59-7.17-15.18-14.33-22.23-21m0,0c-.35-.1-.71-.21-1.27-.38m1.27.38c-.5-.15-1.01-.3-1.27-.38m0,0c.02,6.74.04,13.47.06,22.48m-.06-22.48c.02,5.93.03,11.86.06,22.48m0,0c5.1,4.27,10.19,8.54,24,20.12m-24-20.12C-16.83,-14.11,-9.67,-8.11,0,0M0,0C0,0,0,0,0,0M0,0C0,0,0,0,0,0" fill="none" fill-rule="evenodd" stroke="rgba(0,0,0,0)" stroke-width="2" stroke-linecap="round"/></g></g><g><g transform="matrix(.985469-.169853 0.169853 0.985469 490.535 264.468)"><path d="M0,0l6.51-2.6-.08,17.13L0,16.93l-18.63,6.88v-15.4l8.95-3.9-.27,12.78l9.99-3.95-.13-13.29" fill="#e5f2ff" fill-opacity="0.8" fill-rule="evenodd" stroke-width="0" stroke-opacity="0.8" stroke-linecap="round"/><path d="M0,0c1.77-.71,3.54-1.42,6.51-2.6M0,0c1.49-.6,2.99-1.19,6.51-2.6m0,0c-.02,4.12-.04,8.25-.08,17.13M6.51,-2.6c-.03,5.77-.06,11.54-.08,17.13m0,0c-1.39.52-2.79,1.04-6.43,2.4m6.43-2.4c-1.34.49-2.67.99-6.43,2.4m0,0c-5.06,1.87-10.11,3.73-18.63,6.88M0,16.93c-6.58,2.43-13.15,4.86-18.63,6.88m0,0c0-4.05,0-8.1,0-15.4m0,15.4c0-5.48,0-10.96,0-15.4m0,0c3.53-1.54,7.06-3.08,8.95-3.9m-8.95,3.9c3.24-1.41,6.48-2.82,8.95-3.9m0,0c-.08,3.5-.15,7-.27,12.78m.27-12.78c-.08,3.48-.15,6.96-.27,12.78m0,0c2.7-1.06,5.4-2.13,9.99-3.95m-9.99,3.95c2.29-.91,4.59-1.81,9.99-3.95m0,0c-.05-5.02-.1-10.03-.13-13.29m.13,13.29c-.02-2.85-.05-5.69-.13-13.29m0,0c.03-.02.07-.04.09-.05m-.09.05c.03-.01.06-.03.09-.05" fill="none" fill-opacity="0.8" fill-rule="evenodd" stroke="rgba(0,0,0,0)" stroke-width="2" stroke-opacity="0.8" stroke-linecap="round"/></g></g><g><g transform="matrix(.985469-.169853 0.169853 0.985469 476.409 290.919)"><path d="M0,0L21.1,13.89L43.27,6.04L25.02,-9.06L0,0" fill="#fff" fill-opacity="0.3" fill-rule="evenodd" stroke-width="0" stroke-opacity="0.3" stroke-linecap="round"/><path d="M0,0C8.39,5.52,16.77,11.04,21.1,13.89M0,0C6.49,4.27,12.97,8.54,21.1,13.89m0,0c5.99-2.12,11.98-4.24,22.17-7.85M21.1,13.89C29.41,10.94,37.73,8,43.27,6.04m0,0c-7.05-5.83-14.1-11.66-18.25-15.1M43.27,6.04c-6.46-5.35-12.93-10.7-18.25-15.1m0,0C17.46,-6.32,9.89,-3.58,0,0m25.02-9.06C17.48,-6.33,9.95,-3.6,0,0M0,0C0,0,0,0,0,0M0,0C0,0,0,0,0,0" fill="none" fill-opacity="0.3" fill-rule="evenodd" stroke="rgba(0,0,0,0)" stroke-width="2" stroke-opacity="0.3" stroke-linecap="round"/></g></g><g><g transform="matrix(.985469-.169853 0.169853 0.985469 496.845 260.665)"><path d="M0,0L5.67,4.53L5.44,17.89l6.81,5.73.34-11.3l6,5.26-.5,14.66L5.45,21.63l-5.53-4.5v-17.33" fill="#fff" fill-opacity="0.7" fill-rule="evenodd" stroke-width="0" stroke-opacity="0.7" stroke-linecap="round"/><path d="M0,0C1.53,1.22,3.05,2.44,5.67,4.53M0,0C1.84,1.47,3.68,2.94,5.67,4.53m0,0c-.09,5.19-.18,10.39-.23,13.36M5.67,4.53c-.06,3.62-.12,7.24-.23,13.36m0,0c2.41,2.03,4.82,4.06,6.81,5.73M5.44,17.89c2.01,1.69,4.02,3.38,6.81,5.73m0,0c.11-3.55.21-7.11.34-11.3m-.34,11.3c.11-3.83.23-7.66.34-11.3m0,0c1.42,1.25,2.84,2.5,6,5.26m-6-5.26c1.72,1.51,3.44,3.02,6,5.26m0,0c-.13,3.89-.27,7.77-.5,14.66m.5-14.66c-.13,3.72-.26,7.44-.5,14.66m0,0c-4.76-3.99-9.51-7.99-12.64-10.61M18.09,32.24c-4.78-4.01-9.55-8.02-12.64-10.61m0,0c-1.9-1.55-3.81-3.1-5.53-4.5m5.53,4.5c-1.71-1.4-3.43-2.8-5.53-4.5m0,0c0-6.87,0-13.73,0-17.33m0,17.33c0-3.57,0-7.13,0-17.33m0,0c.03.07.06.15.08.2m-.08-.2c.01.04.03.08.08.2" fill="none" fill-opacity="0.7" fill-rule="evenodd" stroke="rgba(0,0,0,0)" stroke-width="2" stroke-opacity="0.7" stroke-linecap="round"/></g></g><g><g transform="matrix(.985469-.169853 0.169853 0.985469 466.429 276.8)"><path d="M0,0c-.16,3.92-.31,7.84-.59,14.93M0,0c-.21,5.29-.42,10.58-.59,14.93m0,0c.06.64.11,1.27.2,2.2m-.2-2.2c.05.63.11,1.26.2,2.2m0,0c.14.22.29.44.59.89m-.59-.89c.18.28.37.56.59.89m0,0c.65.42,1.31.85,2.33,1.51M0.2,18.02c.71.46,1.43.93,2.33,1.51m0,0c5.18,3.31,10.36,6.62,22.2,14.17M2.53,19.53C10.5,24.62,18.46,29.7,24.73,33.7m0,0c.82.55,1.65,1.09,2.96,1.94M24.73,33.7c1.13.74,2.26,1.48,2.96,1.94m0,0c.78,0,1.57,0,2.66,0m-2.66,0c1.04,0,2.09,0,2.66,0m0,0c7.82-2.57,15.65-5.15,24.27-7.99M30.35,35.64c7.48-2.46,14.97-4.92,24.27-7.99m0,0c.47-.23.94-.46,1.48-.72m-1.48.72c.34-.16.68-.33,1.48-.72m0,0c.16-.23.33-.46.75-1.05m-.75,1.05c.18-.26.36-.51.75-1.05m0,0c.04-.53.08-1.06.13-1.78m-.13,1.78c.04-.53.08-1.05.13-1.78m0,0c.11-3.71.22-7.42.46-15.68M56.98,24.1c.19-6.25.37-12.5.46-15.68m0,0c-.11-.35-.22-.69-.42-1.32m.42,1.32c-.13-.42-.26-.83-.42-1.32m0,0c-.17-.32-.34-.65-.76-1.48m.76,1.48c-.26-.51-.53-1.02-.76-1.48m0,0c-.5-.4-1-.8-1.48-1.18m1.48,1.18c-.34-.27-.67-.53-1.48-1.18m0,0c-3.28-3.17-6.56-6.33-11.84-11.41M54.78,4.44c-3.72-3.59-7.44-7.17-11.84-11.41m0,0c-2.3-2.18-4.6-4.36-7.99-7.56m7.99,7.56c-2.21-2.1-4.43-4.2-7.99-7.56m0,0c-.41-.41-.83-.82-1.48-1.45m1.48,1.45c-.43-.42-.85-.84-1.48-1.45m0,0c-.44-.06-.89-.12-1.18-.17m1.18.17c-.37-.05-.75-.11-1.18-.17m0,0c-.44,0-.88,0-1.18,0m1.18,0c-.38,0-.75,0-1.18,0m0,0c-.48.18-.96.35-1.61.6m1.61-.6c-.51.19-1.01.38-1.61.6m0,0c-6.94,2.93-13.88,5.85-26.34,11.11M29.5,-15.55C18.98,-11.11,8.46,-6.68,3.16,-4.44m0,0c-.48.33-.96.65-1.94,1.32m1.94-1.32c-.44.3-.89.6-1.94,1.32m0,0c-.34.52-.67,1.05-1.02,1.61m1.02-1.61c-.41.63-.81,1.27-1.02,1.61m0,0c-.05.38-.1.77-.2,1.51m.2-1.51C0.13,-1,0.06,-0.49,0,0" fill="none" stroke="#000" stroke-width="4" stroke-linecap="round"/></g></g></g></g><g id="eNDhQaK5dyn87_tr" transform="translate(738.701331,17.61808) rotate(1.5)"><g transform="translate(-738.70133,-17.618073)"><g><g transform="matrix(.99342-.114532 0.114532 0.99342 265.457 84.3021)"><path d="M0,0l-1.2-1.25-.18-2.35l1.06-32.91l1.12-4.25l3.85-2.87L61.17,-67.6l2.57.15-.1,44.88L4.23,-1.25l-2.04.76L0,0" fill="#00bc8e" fill-rule="evenodd" stroke-width="0" stroke-linecap="round"/><path d="M0,0c-.33-.34-.66-.68-1.2-1.25M0,0c-.35-.37-.71-.74-1.2-1.25m0,0c-.05-.61-.09-1.21-.18-2.35m.18,2.35c-.06-.83-.12-1.65-.18-2.35m0,0c.37-11.51.74-23.01,1.06-32.91M-1.38,-3.6c.36-11.13.72-22.25,1.06-32.91m0,0c.36-1.39.73-2.78,1.12-4.25m-1.12,4.25c.32-1.23.64-2.46,1.12-4.25m0,0c1.05-.79,2.11-1.58,3.85-2.87M0.8,-40.76c.9-.68,1.8-1.35,3.85-2.87m0,0c13.92-5.9,27.84-11.81,56.52-23.97M4.65,-43.63c22.5-9.54,44.99-19.08,56.52-23.97m0,0c.57.04,1.14.07,2.57.15m-2.57-.15c.73.05,1.46.09,2.57.15m0,0c-.04,16.27-.07,32.55-.1,44.88m.1-44.88c-.03,12.1-.05,24.21-.1,44.88m0,0C41.05,-14.46,18.45,-6.36,4.23,-1.25m59.41-21.32c-17.51,6.28-35.02,12.56-59.41,21.32m0,0c-.8.29-1.59.59-2.04.76m2.04-.76c-.52.19-1.04.38-2.04.76m0,0c-.57.13-1.14.26-2.19.49m2.19-.49c-.62.14-1.24.28-2.19.49M0,0C0,0,0,0,0,0M0,0C0,0,0,0,0,0" fill="none" fill-rule="evenodd" stroke="rgba(0,0,0,0)" stroke-width="2" stroke-linecap="round"/></g></g><g><g transform="matrix(.99342-.114532 0.114532 0.99342 378.117 88.5475)"><path d="M0,0l.93-1.69.49-2.63.5-33-1.22-2.77-1.81-1.93-44.02-41.57-2.51-.75.13,44.51L0,0" fill="#00bc8e" fill-rule="evenodd" stroke-width="0" stroke-linecap="round"/><path d="M0,0c.25-.46.51-.93.93-1.69M0,0c.35-.64.71-1.29.93-1.69m0,0c.19-1,.37-2.01.49-2.63m-.49,2.63c.15-.83.31-1.66.49-2.63m0,0c.17-11.15.34-22.3.5-33m-.5,33c.15-9.45.29-18.91.5-33m0,0c-.34-.76-.67-1.52-1.22-2.77m1.22,2.77c-.42-.94-.83-1.89-1.22-2.77m0,0c-.67-.71-1.33-1.42-1.81-1.93m1.81,1.93c-.44-.47-.89-.94-1.81-1.93m0,0c-17.15-16.19-34.29-32.38-44.02-41.57m44.02,41.57c-16.1-15.2-32.19-30.4-44.02-41.57m0,0c-.95-.29-1.89-.57-2.51-.75m2.51.75c-.69-.21-1.38-.42-2.51-.75m0,0c.05,17.09.1,34.18.13,44.51m-.13-44.51c.03,10.19.06,20.39.13,44.51m0,0C-31.07,-26.05,-14.63,-12.27,0,0m-47.51-39.83C-30.32,-25.42,-13.12,-11,0,0M0,0C0,0,0,0,0,0M0,0C0,0,0,0,0,0" fill="none" fill-rule="evenodd" stroke="rgba(0,0,0,0)" stroke-width="2" stroke-linecap="round"/></g></g><g><g transform="matrix(.99342-.114532 0.114532 0.99342 310.052 27.5294)"><path d="M0,0l12.89-5.16-.16,33.92L0,33.52L-36.9,47.15v-30.51l17.73-7.7-.54,25.3l19.8-7.83L-0.18,0.1" fill="#e5f2ff" fill-opacity="0.8" fill-rule="evenodd" stroke-width="0" stroke-opacity="0.8" stroke-linecap="round"/><path d="M0,0c4.12-1.65,8.24-3.3,12.89-5.16M0,0c2.78-1.11,5.55-2.22,12.89-5.16m0,0c-.06,12.46-.12,24.92-.16,33.92m.16-33.92c-.04,9.55-.09,19.1-.16,33.92m0,0C9.76,29.87,6.79,30.98,0,33.52m12.73-4.76C8.89,30.2,5.05,31.63,0,33.52m0,0c-12.92,4.77-25.84,9.55-36.9,13.63M0,33.52c-12.39,4.58-24.78,9.16-36.9,13.63m0,0c0-6.15,0-12.3,0-30.51m0,30.51c0-10.97,0-21.94,0-30.51m0,0c5.54-2.4,11.07-4.81,17.73-7.7m-17.73,7.7c4-1.74,8-3.47,17.73-7.7m0,0c-.18,8.55-.36,17.09-.54,25.3m.54-25.3c-.17,8.13-.35,16.27-.54,25.3m0,0c5.09-2.01,10.18-4.03,19.8-7.83m-19.8,7.83c6.53-2.58,13.06-5.16,19.8-7.83m0,0c-.07-6.88-.14-13.76-.27-26.31m.27,26.31c-.08-7.55-.16-15.1-.27-26.31m0,0c.06-.03.13-.07.18-.1m-.18.1c.06-.03.12-.07.18-.1" fill="none" fill-opacity="0.8" fill-rule="evenodd" stroke="rgba(0,0,0,0)" stroke-width="2" stroke-opacity="0.8" stroke-linecap="round"/></g></g><g><g transform="matrix(.99342-.114532 0.114532 0.99342 322.947 20.7091)"><path d="M0,0L11.23,8.97l-.46,26.45L24.26,46.77l.66-22.38L36.81,34.82l-1,29.02L10.8,42.82l-10.96-8.9-.01-34.32" fill="#fff" fill-opacity="0.7" fill-rule="evenodd" stroke-width="0" stroke-opacity="0.7" stroke-linecap="round"/><path d="M0,0C3.35,2.68,6.7,5.35,11.23,8.97M0,0C3.6,2.87,7.2,5.75,11.23,8.97m0,0c-.18,10.21-.35,20.42-.46,26.45m.46-26.45c-.12,7.04-.24,14.08-.46,26.45m0,0c4.18,3.51,8.35,7.02,13.49,11.35M10.77,35.42c4.77,4.01,9.53,8.02,13.49,11.35m0,0c.18-5.99.35-11.99.66-22.38m-.66,22.38c.15-5.23.31-10.46.66-22.38m0,0c2.48,2.18,4.97,4.36,11.89,10.43M24.92,24.39c3.22,2.82,6.44,5.65,11.89,10.43m0,0c-.39,11.24-.77,22.47-1,29.02m1-29.02c-.23,6.6-.45,13.19-1,29.02m0,0C30.2,59.13,24.59,54.41,10.8,42.82M35.81,63.84C29.38,58.43,22.94,53.02,10.8,42.82m0,0c-2.94-2.38-5.88-4.77-10.96-8.9m10.96,8.9c-4.35-3.53-8.7-7.06-10.96-8.9m0,0c0-8.62,0-17.24-.01-34.32m.01,34.32c0-12.15-.01-24.29-.01-34.32m0,0c.05.1.09.2.17.4m-.17-.4c.07.16.14.32.17.4" fill="none" fill-opacity="0.7" fill-rule="evenodd" stroke="rgba(0,0,0,0)" stroke-width="2" stroke-opacity="0.7" stroke-linecap="round"/></g><g><g transform="matrix(.99342-.114532 0.114532 0.99342 377.846 88.0872)"><path d="M0,0l.38.18-2.85,2.04-52.36,17.52-56.56-36.12-.34-.82l64.27-21.9L0.34,0.29" fill="#007054" fill-rule="evenodd" stroke-width="0" stroke-linecap="round"/><path d="M0,0c.15.07.29.14.38.18M0,0c.12.05.23.11.38.18m0,0c-.99.71-1.98,1.42-2.85,2.04M0.38,0.18c-.86.61-1.72,1.23-2.85,2.04m0,0c-11.72,3.92-23.43,7.84-52.36,17.52M-2.47,2.22c-11.51,3.85-23.03,7.7-52.36,17.52m0,0c-19.24-12.28-38.47-24.57-56.56-36.12m56.56,36.12c-16.37-10.45-32.73-20.9-56.56-36.12m0,0c-.12-.29-.25-.59-.34-.82m.34.82c-.11-.27-.23-.54-.34-.82m0,0c23.14-7.88,46.28-15.77,64.27-21.9m-64.27,21.9c13.83-4.71,27.66-9.42,64.27-21.9m0,0c11.24,9.26,22.48,18.53,47.8,39.39m-47.8-39.39c10.4,8.57,20.8,17.14,47.8,39.39m0,0C0.21,0.18,0.08,0.07,0,0m.34.29C0.24,0.21,0.15,0.13,0,0" fill="none" fill-rule="evenodd" stroke="rgba(0,0,0,0)" stroke-width="2" stroke-linecap="round"/></g></g></g><g><g transform="matrix(.99342-.114532 0.114532 0.99342 261.028 49.2437)"><path d="M0,0c-.32,8.15-.65,16.3-1.17,29.56M0,0c-.41,10.45-.83,20.9-1.17,29.56m0,0c.09,1.06.19,2.12.39,4.36m-.39-4.36c.11,1.22.22,2.44.39,4.36m0,0c.26.39.51.78,1.17,1.76m-1.17-1.76c.23.35.47.71,1.17,1.76m0,0c1.8,1.17,3.6,2.33,4.62,3m-4.62-3c1.24.8,2.48,1.61,4.62,3m0,0c17.24,11,34.47,22,43.95,28.06M5.01,38.68C17.58,46.7,30.15,54.73,48.96,66.74m0,0c2.26,1.48,4.52,2.96,5.86,3.84m-5.86-3.84c1.74,1.13,3.47,2.27,5.86,3.84m0,0c1.08,0,2.15,0,5.28,0m-5.28,0c1.44,0,2.88,0,5.28,0m0,0c10.33-3.4,20.67-6.81,48.05-15.82M60.1,70.58c15.1-4.97,30.2-9.95,48.05-15.82m0,0c.83-.41,1.66-.82,2.93-1.44m-2.93,1.44c.97-.48,1.94-.95,2.93-1.44m0,0c.34-.47.68-.94,1.49-2.08m-1.49,2.08c.35-.49.7-.98,1.49-2.08m0,0c.1-1.32.2-2.65.27-3.51m-.27,3.51c.07-.84.13-1.67.27-3.51m0,0c.21-7.41.43-14.81.91-31.06m-.91,31.06c.2-7.16.41-14.31.91-31.06m0,0c-.21-.65-.42-1.29-.85-2.61m.85,2.61c-.24-.73-.48-1.46-.85-2.61m0,0c-.35-.68-.7-1.36-1.5-2.93m1.5,2.93c-.34-.65-.67-1.31-1.5-2.93m0,0c-1.1-.87-2.19-1.75-2.93-2.34m2.93,2.34c-1.03-.82-2.06-1.65-2.93-2.34m0,0c-6.15-5.93-12.31-11.87-23.44-22.59M108.47,8.79c-4.77-4.6-9.54-9.19-23.44-22.59m0,0c-4.05-3.84-8.11-7.68-15.82-14.98M85.03,-13.8c-4.02-3.81-8.05-7.62-15.82-14.98m0,0c-1.01-.99-2.02-1.98-2.93-2.86m2.93,2.86c-.91-.89-1.82-1.78-2.93-2.86m0,0c-.72-.1-1.44-.2-2.34-.33m2.34.33c-.93-.13-1.86-.26-2.34-.33m0,0c-.86,0-1.72,0-2.35,0m2.35,0c-.81,0-1.62,0-2.35,0m0,0c-1.14.42-2.28.84-3.19,1.17m3.19-1.17c-.94.35-1.88.69-3.19,1.17m0,0c-19.8,8.36-39.61,16.72-52.15,22.01M58.4,-30.8c-14,5.91-27.99,11.82-52.15,22.01m0,0c-1.38.93-2.75,1.87-3.84,2.6m3.84-2.6c-1.06.72-2.11,1.43-3.84,2.6m0,0c-.62.98-1.23,1.95-2.02,3.19m2.02-3.19c-.6.94-1.19,1.88-2.02,3.19m0,0c-.11.83-.21,1.65-.39,3m.39-3C0.25,-1.89,0.1,-0.78,0,0" fill="none" stroke="#000" stroke-width="4" stroke-linecap="round"/></g></g><g><g transform="matrix(.99342-.114532 0.114532 0.99342 279.199 78.2606)"><path d="M0,0L41.78,27.5l43.9-15.54-36.13-29.89L0,0" fill="#fff" fill-opacity="0.3" fill-rule="evenodd" stroke-width="0" stroke-opacity="0.3" stroke-linecap="round"/><path d="M0,0C15.01,9.88,30.02,19.76,41.78,27.5M0,0C12.53,8.25,25.07,16.5,41.78,27.5m0,0c13.76-4.88,27.53-9.75,43.9-15.54M41.78,27.5c15.25-5.4,30.5-10.8,43.9-15.54m0,0c-9.12-7.55-18.25-15.1-36.13-29.89M85.68,11.96C73.34,1.75,61,-8.46,49.55,-17.93m0,0C39.11,-14.16,28.68,-10.38,0,0m49.55-17.93C30.29,-10.96,11.03,-3.99,0,0M0,0C0,0,0,0,0,0M0,0C0,0,0,0,0,0" fill="none" fill-opacity="0.3" fill-rule="evenodd" stroke="rgba(0,0,0,0)" stroke-width="2" stroke-opacity="0.3" stroke-linecap="round"/></g></g></g></g><g id="eNDhQaK5dyn115_tr" transform="translate(777.18977,407.386222) rotate(1.5)"><g transform="translate(-777.18977,-407.386215)"><g><g transform="translate(296.858 69.921)"><path d="M0,0c1.32-.6,4.6-.86,7.94-3.6s6.38-9.34,12.1-12.83c5.71-3.49,17.03-7.59,22.18-8.12c5.14-.53,4.41,3.91,8.69,4.94c4.28,1.04,12.26-1.32,17,1.25c4.75,2.58,7.15,10.98,11.48,14.23c4.32,3.25,11.51,2,14.45,5.28C96.78,4.42,94.93,11.2,97,15.51c2.06,4.32,5.44,4.6,9.23,11.53c3.79,6.92,11.07,21.9,13.54,30.04c2.46,8.14,1.44,12.82,1.25,18.8-.19,5.97.92,12.01-2.4,17.04s-14.28,11.42-17.53,13.14-1.64-4.01-1.97-2.81c-.33,1.19-1.38,6.88,0,9.98c1.37,3.1,6.38,3.04,8.26,8.6c1.87,5.57,5.58,19.08,2.98,24.78s-9.14,7.84-18.58,9.41c-9.45,1.57-29.64,1.87-38.09,0-8.45-1.88-9.46-8.67-12.62-11.24-3.16-2.58-4.98-2.29-6.35-4.2-1.38-1.91-.18-6.12-1.91-7.28-1.73-1.15-6.76,1.04-8.49.35-1.72-.69.27-4.27-1.84-4.48-2.1-.21-6.37,3.22-10.8,3.22-4.44,0-9.89-.46-15.81-3.22-5.92-2.75-14.95-9.88-19.73-13.3s-6.13-3.49-8.97-7.21-6.47-7.73-8.08-15.13c-1.6-7.41-2.34-22.81-1.54-29.29.81-6.48,4.52-6.49,6.4-9.59c1.87-3.1,5.91-10.06,4.85-8.99-1.07,1.06-7.84,15.71-11.25,15.37-3.4-.34-9.52-10.9-9.17-17.44.34-6.54,8.07-17.21,11.24-21.79c3.17-4.59,5.23-2.61,7.79-5.71s2.15-10.2,7.58-12.88s20.84-2.67,25.01-3.21" fill="#fff" fill-rule="evenodd" stroke-width="0" stroke-linecap="round"/><path d="M0,0c1.32-.6,4.6-.86,7.94-3.6s6.38-9.34,12.1-12.83c5.71-3.49,17.03-7.59,22.18-8.12c5.14-.53,4.41,3.91,8.69,4.94c4.28,1.04,12.26-1.32,17,1.25c4.75,2.58,7.15,10.98,11.48,14.23c4.32,3.25,11.51,2,14.45,5.28C96.78,4.42,94.93,11.2,97,15.51c2.06,4.32,5.44,4.6,9.23,11.53c3.79,6.92,11.07,21.9,13.54,30.04c2.46,8.14,1.44,12.82,1.25,18.8-.19,5.97.92,12.01-2.4,17.04s-14.28,11.42-17.53,13.14-1.64-4.01-1.97-2.81c-.33,1.19-1.38,6.88,0,9.98c1.37,3.1,6.38,3.04,8.26,8.6c1.87,5.57,5.58,19.08,2.98,24.78s-9.14,7.84-18.58,9.41c-9.45,1.57-29.64,1.87-38.09,0-8.45-1.88-9.46-8.67-12.62-11.24-3.16-2.58-4.98-2.29-6.35-4.2-1.38-1.91-.18-6.12-1.91-7.28-1.73-1.15-6.76,1.04-8.49.35-1.72-.69.27-4.27-1.84-4.48-2.1-.21-6.37,3.22-10.8,3.22-4.44,0-9.89-.46-15.81-3.22-5.92-2.75-14.95-9.88-19.73-13.3s-6.13-3.49-8.97-7.21-6.47-7.73-8.08-15.13c-1.6-7.41-2.34-22.81-1.54-29.29.81-6.48,4.52-6.49,6.4-9.59c1.87-3.1,5.91-10.06,4.85-8.99-1.07,1.06-7.84,15.71-11.25,15.37-3.4-.34-9.52-10.9-9.17-17.44.34-6.54,8.07-17.21,11.24-21.79c3.17-4.59,5.23-2.61,7.79-5.71s2.15-10.2,7.58-12.88s20.84-2.67,25.01-3.21M0,0c1.32-.6,4.6-.86,7.94-3.6s6.38-9.34,12.1-12.83c5.71-3.49,17.03-7.59,22.18-8.12c5.14-.53,4.41,3.91,8.69,4.94c4.28,1.04,12.26-1.32,17,1.25c4.75,2.58,7.15,10.98,11.48,14.23c4.32,3.25,11.51,2,14.45,5.28C96.78,4.42,94.93,11.2,97,15.51c2.06,4.32,5.44,4.6,9.23,11.53c3.79,6.92,11.07,21.9,13.54,30.04c2.46,8.14,1.44,12.82,1.25,18.8-.19,5.97.92,12.01-2.4,17.04s-14.28,11.42-17.53,13.14-1.64-4.01-1.97-2.81c-.33,1.19-1.38,6.88,0,9.98c1.37,3.1,6.38,3.04,8.26,8.6c1.87,5.57,5.58,19.08,2.98,24.78s-9.14,7.84-18.58,9.41c-9.45,1.57-29.64,1.87-38.09,0-8.45-1.88-9.46-8.67-12.62-11.24-3.16-2.58-4.98-2.29-6.35-4.2-1.38-1.91-.18-6.12-1.91-7.28-1.73-1.15-6.76,1.04-8.49.35-1.72-.69.27-4.27-1.84-4.48-2.1-.21-6.37,3.22-10.8,3.22-4.44,0-9.89-.46-15.81-3.22-5.92-2.75-14.95-9.88-19.73-13.3s-6.13-3.49-8.97-7.21-6.47-7.73-8.08-15.13c-1.6-7.41-2.34-22.81-1.54-29.29.81-6.48,4.52-6.49,6.4-9.59c1.87-3.1,5.91-10.06,4.85-8.99-1.07,1.06-7.84,15.71-11.25,15.37-3.4-.34-9.52-10.9-9.17-17.44.34-6.54,8.07-17.21,11.24-21.79c3.17-4.59,5.23-2.61,7.79-5.71s2.15-10.2,7.58-12.88s20.84-2.67,25.01-3.21" fill="none" fill-rule="evenodd" stroke="rgba(0,0,0,0)" stroke-width="2" stroke-linecap="round"/></g></g><g><g transform="translate(349.29 130.677)"><path d="M0,0C2.57,2.62,12.08,11.18,15.42,15.69c3.34,4.52,4.11,7.36,4.63,11.4.51,4.05-3.65,10.18-1.54,12.87c2.12,2.68,10.28,1.28,14.23,3.24s5.66,5.55,9.49,8.51s10.75,3.58,13.5,9.25c2.74,5.68,5.58,19.09,2.98,24.78-2.6,5.7-9.14,7.84-18.58,9.41-9.45,1.57-29.64,1.87-38.09,0s-9.46-8.67-12.62-11.24-4.97-2.28-6.35-4.2c-1.38-1.91-.18-6.12-1.91-7.27-1.73-1.16-6.76,1.03-8.48.35-1.73-.69.26-4.27-1.84-4.48-2.11-.21-6.38,3.21-10.81,3.21-4.44,0-9.89-.46-15.81-3.21-5.92-2.76-15.58-9.51-19.73-13.31-4.16-3.8-5.42-5.39-5.2-9.5.21-4.1,3.82-10.81,6.48-15.13c2.67-4.33,5.33-6.69,9.51-10.8c4.17-4.12,10.1-11.33,15.55-13.91c5.44-2.59,8.9-.69,17.1-1.63C-23.88,3.09,-5.35,0.67,0,0" fill="#e9ecef" fill-rule="evenodd" stroke-width="0" stroke-linecap="round"/><path d="M0,0C2.57,2.62,12.08,11.18,15.42,15.69c3.34,4.52,4.11,7.36,4.63,11.4.51,4.05-3.65,10.18-1.54,12.87c2.12,2.68,10.28,1.28,14.23,3.24s5.66,5.55,9.49,8.51s10.75,3.58,13.5,9.25c2.74,5.68,5.58,19.09,2.98,24.78-2.6,5.7-9.14,7.84-18.58,9.41-9.45,1.57-29.64,1.87-38.09,0s-9.46-8.67-12.62-11.24-4.97-2.28-6.35-4.2c-1.38-1.91-.18-6.12-1.91-7.27-1.73-1.16-6.76,1.03-8.48.35-1.73-.69.26-4.27-1.84-4.48-2.11-.21-6.38,3.21-10.81,3.21-4.44,0-9.89-.46-15.81-3.21-5.92-2.76-15.58-9.51-19.73-13.31-4.16-3.8-5.42-5.39-5.2-9.5.21-4.1,3.82-10.81,6.48-15.13c2.67-4.33,5.33-6.69,9.51-10.8c4.17-4.12,10.1-11.33,15.55-13.91c5.44-2.59,8.9-.69,17.1-1.63C-23.88,3.09,-5.35,0.67,0,0M0,0C2.57,2.62,12.08,11.18,15.42,15.69c3.34,4.52,4.11,7.36,4.63,11.4.51,4.05-3.65,10.18-1.54,12.87c2.12,2.68,10.28,1.28,14.23,3.24s5.66,5.55,9.49,8.51s10.75,3.58,13.5,9.25c2.74,5.68,5.58,19.09,2.98,24.78-2.6,5.7-9.14,7.84-18.58,9.41-9.45,1.57-29.64,1.87-38.09,0s-9.46-8.67-12.62-11.24-4.97-2.28-6.35-4.2c-1.38-1.91-.18-6.12-1.91-7.27-1.73-1.16-6.76,1.03-8.48.35-1.73-.69.26-4.27-1.84-4.48-2.11-.21-6.38,3.21-10.81,3.21-4.44,0-9.89-.46-15.81-3.21-5.92-2.76-15.58-9.51-19.73-13.31-4.16-3.8-5.42-5.39-5.2-9.5.21-4.1,3.82-10.81,6.48-15.13c2.67-4.33,5.33-6.69,9.51-10.8c4.17-4.12,10.1-11.33,15.55-13.91c5.44-2.59,8.9-.69,17.1-1.63C-23.88,3.09,-5.35,0.67,0,0" fill="none" fill-rule="evenodd" stroke="rgba(0,0,0,0)" stroke-width="2" stroke-linecap="round"/></g></g><g><g transform="translate(297.007 70.0383)"><path d="M0,0c1.32-.6,4.6-.86,7.94-3.6s6.38-9.34,12.1-12.83c5.71-3.49,17.03-7.59,22.18-8.12c5.14-.53,4.41,3.91,8.69,4.94c4.28,1.04,12.26-1.32,17,1.25c4.75,2.58,7.15,10.98,11.48,14.23c4.32,3.25,11.51,2,14.45,5.28C96.78,4.42,94.93,11.2,97,15.51c2.06,4.32,5.44,4.6,9.23,11.53c3.79,6.92,11.07,21.9,13.54,30.04c2.46,8.14,1.44,12.82,1.25,18.8-.19,5.97.92,12.01-2.4,17.04s-14.28,11.42-17.53,13.14-1.64-4.01-1.97-2.81c-.33,1.19-1.38,6.88,0,9.98c1.37,3.1,6.38,3.04,8.26,8.6c1.87,5.57,5.58,19.08,2.98,24.78s-9.14,7.84-18.58,9.41c-9.45,1.57-29.64,1.87-38.09,0-8.45-1.88-9.46-8.67-12.62-11.24-3.16-2.58-4.98-2.29-6.35-4.2-1.38-1.91-.18-6.12-1.91-7.28-1.73-1.15-6.76,1.04-8.49.35-1.72-.69.27-4.27-1.84-4.48-2.1-.21-6.37,3.22-10.8,3.22-4.44,0-9.89-.46-15.81-3.22-5.92-2.75-14.95-9.88-19.73-13.3s-6.13-3.49-8.97-7.21-6.47-7.73-8.08-15.13c-1.6-7.41-2.34-22.81-1.54-29.29.81-6.48,4.52-6.49,6.4-9.59c1.87-3.1,5.91-10.06,4.85-8.99-1.07,1.06-7.84,15.71-11.25,15.37-3.4-.34-9.52-10.9-9.17-17.44.34-6.54,8.07-17.21,11.24-21.79c3.17-4.59,5.23-2.61,7.79-5.71s2.15-10.2,7.58-12.88s20.84-2.67,25.01-3.21M0,0c1.32-.6,4.6-.86,7.94-3.6s6.38-9.34,12.1-12.83c5.71-3.49,17.03-7.59,22.18-8.12c5.14-.53,4.41,3.91,8.69,4.94c4.28,1.04,12.26-1.32,17,1.25c4.75,2.58,7.15,10.98,11.48,14.23c4.32,3.25,11.51,2,14.45,5.28C96.78,4.42,94.93,11.2,97,15.51c2.06,4.32,5.44,4.6,9.23,11.53c3.79,6.92,11.07,21.9,13.54,30.04c2.46,8.14,1.44,12.82,1.25,18.8-.19,5.97.92,12.01-2.4,17.04s-14.28,11.42-17.53,13.14-1.64-4.01-1.97-2.81c-.33,1.19-1.38,6.88,0,9.98c1.37,3.1,6.38,3.04,8.26,8.6c1.87,5.57,5.58,19.08,2.98,24.78s-9.14,7.84-18.58,9.41c-9.45,1.57-29.64,1.87-38.09,0-8.45-1.88-9.46-8.67-12.62-11.24-3.16-2.58-4.98-2.29-6.35-4.2-1.38-1.91-.18-6.12-1.91-7.28-1.73-1.15-6.76,1.04-8.49.35-1.72-.69.27-4.27-1.84-4.48-2.1-.21-6.37,3.22-10.8,3.22-4.44,0-9.89-.46-15.81-3.22-5.92-2.75-14.95-9.88-19.73-13.3s-6.13-3.49-8.97-7.21-6.47-7.73-8.08-15.13c-1.6-7.41-2.34-22.81-1.54-29.29.81-6.48,4.52-6.49,6.4-9.59c1.87-3.1,5.91-10.06,4.85-8.99-1.07,1.06-7.84,15.71-11.25,15.37-3.4-.34-9.52-10.9-9.17-17.44.34-6.54,8.07-17.21,11.24-21.79c3.17-4.59,5.23-2.61,7.79-5.71s2.15-10.2,7.58-12.88s20.84-2.67,25.01-3.21" fill="none" stroke="#000" stroke-width="2" stroke-linecap="round"/></g></g></g></g><g id="eNDhQaK5dyn127_tr" transform="translate(787.77409,410.272855) rotate(1.5)"><g transform="translate(-787.77409,-410.272854)"><g><g transform="translate(294.411 330.797)"><path d="M0,0c-1.04-.77-3.39-3.83-6.25-4.63s-7.93-.28-10.92-.18c-2.99.11-4.93-.19-7.02.8-2.09.98-4.04,3.31-5.54,5.11-1.5,1.79-2.33,4.72-3.46,5.68-1.14.96-2.3-.4-3.37.07-1.08.47-1.96,2.39-3.1,2.75-1.13.35-1.95-1.85-3.71-.62-1.75,1.23-5.18,5.66-6.83,7.98-1.65,2.33-2.5,3.81-3.07,5.97-.56,2.16.22,5.78-.34,7.01-.56,1.24-2.38-.87-3.02.42-.65,1.28-1.15,3.36-.85,7.27s1.48,12.22,2.63,16.16c1.16,3.95,2.76,5.41,4.31,7.53s3.42,4.02,4.97,5.19s3.07,1.43,4.33,1.86c1.27.42,2.53-.27,3.27.71.73.99.63,2.88,1.13,5.2.51,2.31.81,6.1,1.89,8.67c1.08,2.58,2.51,5.35,4.57,6.79s4.65,1.15,7.79,1.86s7.72,2.48,11.05,2.4s7.02-2.06,8.93-2.88c1.92-.81,1.76-.9,2.55-2c.79-1.09.97-3.81,2.19-4.59s4.38-.72,5.15-.07c.76.65-1.17,2.81-.54,3.98.63,1.16,2.82,2.39,4.32,3.02s2.92,1.04,4.68.76c1.77-.29,4.4-2.1,5.89-2.47s2.03-.19,3.05.27c1.02.45,2.68,2.62,3.09,2.47.42-.15-1.49-2.54-.61-3.37.87-.82,5.73-1.68,5.84-1.58.1.11-4.61,1.22-5.23,2.2-.61.99.07,2.13,1.52,3.71c1.44,1.58,5.16,4.43,7.18,5.77c2.01,1.34,3.06,2.06,4.91,2.28c1.85.21,4.91-.35,6.19-.97c1.28-.61.47-2.37,1.51-2.75c1.05-.37,3.1,1.16,4.76.48c1.66-.67,3.21-3.63,5.21-4.53c2-.91,5.01.17,6.8-.89c1.8-1.07,3.42-2.65,3.98-5.49.56-2.85.08-9.34-.61-11.56-.68-2.22-2.99-1.09-3.5-1.76-.52-.68-.69-1.14.41-2.3c1.1-1.15,5.35-1.49,6.18-4.64.82-3.15-.52-10.08-1.23-14.26s-1.16-7.35-3.03-10.8-6.41-7.62-8.18-9.89c-1.76-2.26-1.04-3.08-2.4-3.71s-3.7.6-5.76-.07c-2.06-.66-4.58-3.46-6.61-3.92-2.04-.45-4.57,1.23-5.61,1.17-1.05-.06-.44-.02-.65-1.51s-.1-4.72-.62-7.42.25-5.77-2.51-8.78c-2.77-3.01-9.77-7.91-14.08-9.27-4.31-1.37-8.8.27-11.8,1.07-2.99.8-4.59,3.15-6.18,3.71s-2.76.23-3.37-.34-.23-2.56-.28-3.07" fill="#fff" fill-rule="evenodd" stroke-width="0" stroke-linecap="round"/><path d="M0,0c-1.04-.77-3.39-3.83-6.25-4.63s-7.93-.28-10.92-.18c-2.99.11-4.93-.19-7.02.8-2.09.98-4.04,3.31-5.54,5.11-1.5,1.79-2.33,4.72-3.46,5.68-1.14.96-2.3-.4-3.37.07-1.08.47-1.96,2.39-3.1,2.75-1.13.35-1.95-1.85-3.71-.62-1.75,1.23-5.18,5.66-6.83,7.98-1.65,2.33-2.5,3.81-3.07,5.97-.56,2.16.22,5.78-.34,7.01-.56,1.24-2.38-.87-3.02.42-.65,1.28-1.15,3.36-.85,7.27s1.48,12.22,2.63,16.16c1.16,3.95,2.76,5.41,4.31,7.53s3.42,4.02,4.97,5.19s3.07,1.43,4.33,1.86c1.27.42,2.53-.27,3.27.71.73.99.63,2.88,1.13,5.2.51,2.31.81,6.1,1.89,8.67c1.08,2.58,2.51,5.35,4.57,6.79s4.65,1.15,7.79,1.86s7.72,2.48,11.05,2.4s7.02-2.06,8.93-2.88c1.92-.81,1.76-.9,2.55-2c.79-1.09.97-3.81,2.19-4.59s4.38-.72,5.15-.07c.76.65-1.17,2.81-.54,3.98.63,1.16,2.82,2.39,4.32,3.02s2.92,1.04,4.68.76c1.77-.29,4.4-2.1,5.89-2.47s2.03-.19,3.05.27c1.02.45,2.68,2.62,3.09,2.47.42-.15-1.49-2.54-.61-3.37.87-.82,5.73-1.68,5.84-1.58.1.11-4.61,1.22-5.23,2.2-.61.99.07,2.13,1.52,3.71c1.44,1.58,5.16,4.43,7.18,5.77c2.01,1.34,3.06,2.06,4.91,2.28c1.85.21,4.91-.35,6.19-.97c1.28-.61.47-2.37,1.51-2.75c1.05-.37,3.1,1.16,4.76.48c1.66-.67,3.21-3.63,5.21-4.53c2-.91,5.01.17,6.8-.89c1.8-1.07,3.42-2.65,3.98-5.49.56-2.85.08-9.34-.61-11.56-.68-2.22-2.99-1.09-3.5-1.76-.52-.68-.69-1.14.41-2.3c1.1-1.15,5.35-1.49,6.18-4.64.82-3.15-.52-10.08-1.23-14.26s-1.16-7.35-3.03-10.8-6.41-7.62-8.18-9.89c-1.76-2.26-1.04-3.08-2.4-3.71s-3.7.6-5.76-.07c-2.06-.66-4.58-3.46-6.61-3.92-2.04-.45-4.57,1.23-5.61,1.17-1.05-.06-.44-.02-.65-1.51s-.1-4.72-.62-7.42.25-5.77-2.51-8.78c-2.77-3.01-9.77-7.91-14.08-9.27-4.31-1.37-8.8.27-11.8,1.07-2.99.8-4.59,3.15-6.18,3.71s-2.76.23-3.37-.34-.23-2.56-.28-3.07M0,0c-1.04-.77-3.39-3.83-6.25-4.63s-7.93-.28-10.92-.18c-2.99.11-4.93-.19-7.02.8-2.09.98-4.04,3.31-5.54,5.11-1.5,1.79-2.33,4.72-3.46,5.68-1.14.96-2.3-.4-3.37.07-1.08.47-1.96,2.39-3.1,2.75-1.13.35-1.95-1.85-3.71-.62-1.75,1.23-5.18,5.66-6.83,7.98-1.65,2.33-2.5,3.81-3.07,5.97-.56,2.16.22,5.78-.34,7.01-.56,1.24-2.38-.87-3.02.42-.65,1.28-1.15,3.36-.85,7.27s1.48,12.22,2.63,16.16c1.16,3.95,2.76,5.41,4.31,7.53s3.42,4.02,4.97,5.19s3.07,1.43,4.33,1.86c1.27.42,2.53-.27,3.27.71.73.99.63,2.88,1.13,5.2.51,2.31.81,6.1,1.89,8.67c1.08,2.58,2.51,5.35,4.57,6.79s4.65,1.15,7.79,1.86s7.72,2.48,11.05,2.4s7.02-2.06,8.93-2.88c1.92-.81,1.76-.9,2.55-2c.79-1.09.97-3.81,2.19-4.59s4.38-.72,5.15-.07c.76.65-1.17,2.81-.54,3.98.63,1.16,2.82,2.39,4.32,3.02s2.92,1.04,4.68.76c1.77-.29,4.4-2.1,5.89-2.47s2.03-.19,3.05.27c1.02.45,2.68,2.62,3.09,2.47.42-.15-1.49-2.54-.61-3.37.87-.82,5.73-1.68,5.84-1.58.1.11-4.61,1.22-5.23,2.2-.61.99.07,2.13,1.52,3.71c1.44,1.58,5.16,4.43,7.18,5.77c2.01,1.34,3.06,2.06,4.91,2.28c1.85.21,4.91-.35,6.19-.97c1.28-.61.47-2.37,1.51-2.75c1.05-.37,3.1,1.16,4.76.48c1.66-.67,3.21-3.63,5.21-4.53c2-.91,5.01.17,6.8-.89c1.8-1.07,3.42-2.65,3.98-5.49.56-2.85.08-9.34-.61-11.56-.68-2.22-2.99-1.09-3.5-1.76-.52-.68-.69-1.14.41-2.3c1.1-1.15,5.35-1.49,6.18-4.64.82-3.15-.52-10.08-1.23-14.26s-1.16-7.35-3.03-10.8-6.41-7.62-8.18-9.89c-1.76-2.26-1.04-3.08-2.4-3.71s-3.7.6-5.76-.07c-2.06-.66-4.58-3.46-6.61-3.92-2.04-.45-4.57,1.23-5.61,1.17-1.05-.06-.44-.02-.65-1.51s-.1-4.72-.62-7.42.25-5.77-2.51-8.78c-2.77-3.01-9.77-7.91-14.08-9.27-4.31-1.37-8.8.27-11.8,1.07-2.99.8-4.59,3.15-6.18,3.71s-2.76.23-3.37-.34-.23-2.56-.28-3.07" fill="none" fill-rule="evenodd" stroke="rgba(0,0,0,0)" stroke-width="2" stroke-linecap="round"/></g></g><g><g transform="translate(276.478 365.608)"><path d="M0,0c-.91-.12-3.82-.23-5.49-.71s-3.31-1.43-4.53-2.18c-1.22-.74-1.6-1.02-2.79-2.28s-2.71-5.18-4.34-5.25c-1.62-.07-3.78,3-5.38,4.85s-2.86,4.55-4.21,6.24c-1.35,1.7-2.33,2.78-3.88,3.93-1.55,1.16-4.09,1.14-5.39,2.99-1.31,1.84-2.95,4.97-2.44,8.09s3.76,7.98,5.51,10.61c1.75,2.64,3.42,4.02,4.97,5.2c1.55,1.17,3.07,1.42,4.33,1.85c1.27.43,2.53-.27,3.27.72.73.98.63,2.88,1.13,5.19.51,2.32.81,6.1,1.89,8.68s2.51,5.35,4.57,6.79s4.65,1.15,7.79,1.86s7.72,2.48,11.05,2.4s7.02-2.07,8.93-2.88c1.92-.81,1.76-.9,2.55-2s.97-3.82,2.19-4.59c1.22-.78,4.38-.72,5.15-.07.76.65-1.17,2.81-.54,3.97.63,1.17,2.82,2.4,4.32,3.03s2.92,1.04,4.68.75c1.77-.28,4.4-2.1,5.89-2.46c1.49-.37,2.03-.19,3.05.26c1.02.46,2.68,2.63,3.09,2.48.42-.15-1.49-2.54-.62-3.37.88-.82,5.74-1.68,5.85-1.58.1.1-4.61,1.21-5.23,2.2-.62.98.07,2.13,1.52,3.71c1.44,1.58,5.16,4.43,7.18,5.77c2.01,1.34,3.06,2.05,4.91,2.27s4.91-.34,6.19-.96.47-2.37,1.51-2.75c1.05-.38,3.1,1.16,4.76.48c1.66-.67,3.21-3.63,5.21-4.53c2-.91,7.12.41,6.8-.9-.32-1.3-6.52-4.31-8.72-6.95s-3.53-5.43-4.48-8.89c-.94-3.47.25-10.36-1.18-11.89-1.43-1.54-4.81,2.36-7.4,2.68-2.6.32-4.88-.14-8.16-.78-3.28-.63-9.35-1.04-11.53-3.01-2.18-1.98.31-7.33-1.57-8.83s-7.38,1.88-9.72-.19c-2.34-2.06-2.48-9.03-4.3-12.21-1.81-3.17-4.02-5.46-6.61-6.85-2.6-1.38-5.64-1.32-8.94-1.47s-9.03.48-10.84.58" fill="#e9ecef" fill-rule="evenodd" stroke-width="0" stroke-linecap="round"/><path d="M0,0c-.91-.12-3.82-.23-5.49-.71s-3.31-1.43-4.53-2.18c-1.22-.74-1.6-1.02-2.79-2.28s-2.71-5.18-4.34-5.25c-1.62-.07-3.78,3-5.38,4.85s-2.86,4.55-4.21,6.24c-1.35,1.7-2.33,2.78-3.88,3.93-1.55,1.16-4.09,1.14-5.39,2.99-1.31,1.84-2.95,4.97-2.44,8.09s3.76,7.98,5.51,10.61c1.75,2.64,3.42,4.02,4.97,5.2c1.55,1.17,3.07,1.42,4.33,1.85c1.27.43,2.53-.27,3.27.72.73.98.63,2.88,1.13,5.19.51,2.32.81,6.1,1.89,8.68s2.51,5.35,4.57,6.79s4.65,1.15,7.79,1.86s7.72,2.48,11.05,2.4s7.02-2.07,8.93-2.88c1.92-.81,1.76-.9,2.55-2s.97-3.82,2.19-4.59c1.22-.78,4.38-.72,5.15-.07.76.65-1.17,2.81-.54,3.97.63,1.17,2.82,2.4,4.32,3.03s2.92,1.04,4.68.75c1.77-.28,4.4-2.1,5.89-2.46c1.49-.37,2.03-.19,3.05.26c1.02.46,2.68,2.63,3.09,2.48.42-.15-1.49-2.54-.62-3.37.88-.82,5.74-1.68,5.85-1.58.1.1-4.61,1.21-5.23,2.2-.62.98.07,2.13,1.52,3.71c1.44,1.58,5.16,4.43,7.18,5.77c2.01,1.34,3.06,2.05,4.91,2.27s4.91-.34,6.19-.96.47-2.37,1.51-2.75c1.05-.38,3.1,1.16,4.76.48c1.66-.67,3.21-3.63,5.21-4.53c2-.91,7.12.41,6.8-.9-.32-1.3-6.52-4.31-8.72-6.95s-3.53-5.43-4.48-8.89c-.94-3.47.25-10.36-1.18-11.89-1.43-1.54-4.81,2.36-7.4,2.68-2.6.32-4.88-.14-8.16-.78-3.28-.63-9.35-1.04-11.53-3.01-2.18-1.98.31-7.33-1.57-8.83s-7.38,1.88-9.72-.19c-2.34-2.06-2.48-9.03-4.3-12.21-1.81-3.17-4.02-5.46-6.61-6.85-2.6-1.38-5.64-1.32-8.94-1.47s-9.03.48-10.84.58M0,0c-.91-.12-3.82-.23-5.49-.71s-3.31-1.43-4.53-2.18c-1.22-.74-1.6-1.02-2.79-2.28s-2.71-5.18-4.34-5.25c-1.62-.07-3.78,3-5.38,4.85s-2.86,4.55-4.21,6.24c-1.35,1.7-2.33,2.78-3.88,3.93-1.55,1.16-4.09,1.14-5.39,2.99-1.31,1.84-2.95,4.97-2.44,8.09s3.76,7.98,5.51,10.61c1.75,2.64,3.42,4.02,4.97,5.2c1.55,1.17,3.07,1.42,4.33,1.85c1.27.43,2.53-.27,3.27.72.73.98.63,2.88,1.13,5.19.51,2.32.81,6.1,1.89,8.68s2.51,5.35,4.57,6.79s4.65,1.15,7.79,1.86s7.72,2.48,11.05,2.4s7.02-2.07,8.93-2.88c1.92-.81,1.76-.9,2.55-2s.97-3.82,2.19-4.59c1.22-.78,4.38-.72,5.15-.07.76.65-1.17,2.81-.54,3.97.63,1.17,2.82,2.4,4.32,3.03s2.92,1.04,4.68.75c1.77-.28,4.4-2.1,5.89-2.46c1.49-.37,2.03-.19,3.05.26c1.02.46,2.68,2.63,3.09,2.48.42-.15-1.49-2.54-.62-3.37.88-.82,5.74-1.68,5.85-1.58.1.1-4.61,1.21-5.23,2.2-.62.98.07,2.13,1.52,3.71c1.44,1.58,5.16,4.43,7.18,5.77c2.01,1.34,3.06,2.05,4.91,2.27s4.91-.34,6.19-.96.47-2.37,1.51-2.75c1.05-.38,3.1,1.16,4.76.48c1.66-.67,3.21-3.63,5.21-4.53c2-.91,7.12.41,6.8-.9-.32-1.3-6.52-4.31-8.72-6.95s-3.53-5.43-4.48-8.89c-.94-3.47.25-10.36-1.18-11.89-1.43-1.54-4.81,2.36-7.4,2.68-2.6.32-4.88-.14-8.16-.78-3.28-.63-9.35-1.04-11.53-3.01-2.18-1.98.31-7.33-1.57-8.83s-7.38,1.88-9.72-.19c-2.34-2.06-2.48-9.03-4.3-12.21-1.81-3.17-4.02-5.46-6.61-6.85-2.6-1.38-5.64-1.32-8.94-1.47s-9.03.48-10.84.58" fill="none" fill-rule="evenodd" stroke="rgba(0,0,0,0)" stroke-width="2" stroke-linecap="round"/></g></g><g><g transform="translate(294.245 330.751)"><path d="M0,0c-1.04-.77-3.39-3.83-6.25-4.63s-7.93-.28-10.92-.18c-2.99.11-4.93-.19-7.02.8-2.09.98-4.04,3.31-5.54,5.11-1.5,1.79-2.33,4.72-3.46,5.68-1.14.96-2.3-.4-3.37.07-1.08.47-1.96,2.39-3.1,2.75-1.13.35-1.95-1.85-3.71-.62-1.75,1.23-5.18,5.66-6.83,7.98-1.65,2.33-2.5,3.81-3.07,5.97-.56,2.16.22,5.78-.34,7.01-.56,1.24-2.38-.87-3.02.42-.65,1.28-1.15,3.36-.85,7.27s1.48,12.22,2.63,16.16c1.16,3.95,2.76,5.41,4.31,7.53s3.42,4.02,4.97,5.19s3.07,1.43,4.33,1.86c1.27.42,2.53-.27,3.27.71.73.99.63,2.88,1.13,5.2.51,2.31.81,6.1,1.89,8.67c1.08,2.58,2.51,5.35,4.57,6.79s4.65,1.15,7.79,1.86s7.72,2.48,11.05,2.4s7.02-2.06,8.93-2.88c1.92-.81,1.76-.9,2.55-2c.79-1.09.97-3.81,2.19-4.59s4.38-.72,5.15-.07c.76.65-1.17,2.81-.54,3.98.63,1.16,2.82,2.39,4.32,3.02s2.92,1.04,4.68.76c1.77-.29,4.4-2.1,5.89-2.47s2.03-.19,3.05.27c1.02.45,2.68,2.62,3.09,2.47.42-.15-1.49-2.54-.61-3.37.87-.82,5.73-1.68,5.84-1.58.1.11-4.61,1.22-5.23,2.2-.61.99.07,2.13,1.52,3.71c1.44,1.58,5.16,4.43,7.18,5.77c2.01,1.34,3.06,2.06,4.91,2.28c1.85.21,4.91-.35,6.19-.97c1.28-.61.47-2.37,1.51-2.75c1.05-.37,3.1,1.16,4.76.48c1.66-.67,3.21-3.63,5.21-4.53c2-.91,5.01.17,6.8-.89c1.8-1.07,3.42-2.65,3.98-5.49.56-2.85.08-9.34-.61-11.56-.68-2.22-2.99-1.09-3.5-1.76-.52-.68-.69-1.14.41-2.3c1.1-1.15,5.35-1.49,6.18-4.64.82-3.15-.52-10.08-1.23-14.26s-1.16-7.35-3.03-10.8-6.41-7.62-8.18-9.89c-1.76-2.26-1.04-3.08-2.4-3.71s-3.7.6-5.76-.07c-2.06-.66-4.58-3.46-6.61-3.92-2.04-.45-4.57,1.23-5.61,1.17-1.05-.06-.44-.02-.65-1.51s-.1-4.72-.62-7.42.25-5.77-2.51-8.78c-2.77-3.01-9.77-7.91-14.08-9.27-4.31-1.37-8.8.27-11.8,1.07-2.99.8-4.59,3.15-6.18,3.71s-2.76.23-3.37-.34-.23-2.56-.28-3.07M0,0c-1.04-.77-3.39-3.83-6.25-4.63s-7.93-.28-10.92-.18c-2.99.11-4.93-.19-7.02.8-2.09.98-4.04,3.31-5.54,5.11-1.5,1.79-2.33,4.72-3.46,5.68-1.14.96-2.3-.4-3.37.07-1.08.47-1.96,2.39-3.1,2.75-1.13.35-1.95-1.85-3.71-.62-1.75,1.23-5.18,5.66-6.83,7.98-1.65,2.33-2.5,3.81-3.07,5.97-.56,2.16.22,5.78-.34,7.01-.56,1.24-2.38-.87-3.02.42-.65,1.28-1.15,3.36-.85,7.27s1.48,12.22,2.63,16.16c1.16,3.95,2.76,5.41,4.31,7.53s3.42,4.02,4.97,5.19s3.07,1.43,4.33,1.86c1.27.42,2.53-.27,3.27.71.73.99.63,2.88,1.13,5.2.51,2.31.81,6.1,1.89,8.67c1.08,2.58,2.51,5.35,4.57,6.79s4.65,1.15,7.79,1.86s7.72,2.48,11.05,2.4s7.02-2.06,8.93-2.88c1.92-.81,1.76-.9,2.55-2c.79-1.09.97-3.81,2.19-4.59s4.38-.72,5.15-.07c.76.65-1.17,2.81-.54,3.98.63,1.16,2.82,2.39,4.32,3.02s2.92,1.04,4.68.76c1.77-.29,4.4-2.1,5.89-2.47s2.03-.19,3.05.27c1.02.45,2.68,2.62,3.09,2.47.42-.15-1.49-2.54-.61-3.37.87-.82,5.73-1.68,5.84-1.58.1.11-4.61,1.22-5.23,2.2-.61.99.07,2.13,1.52,3.71c1.44,1.58,5.16,4.43,7.18,5.77c2.01,1.34,3.06,2.06,4.91,2.28c1.85.21,4.91-.35,6.19-.97c1.28-.61.47-2.37,1.51-2.75c1.05-.37,3.1,1.16,4.76.48c1.66-.67,3.21-3.63,5.21-4.53c2-.91,5.01.17,6.8-.89c1.8-1.07,3.42-2.65,3.98-5.49.56-2.85.08-9.34-.61-11.56-.68-2.22-2.99-1.09-3.5-1.76-.52-.68-.69-1.14.41-2.3c1.1-1.15,5.35-1.49,6.18-4.64.82-3.15-.52-10.08-1.23-14.26s-1.16-7.35-3.03-10.8-6.41-7.62-8.18-9.89c-1.76-2.26-1.04-3.08-2.4-3.71s-3.7.6-5.76-.07c-2.06-.66-4.58-3.46-6.61-3.92-2.04-.45-4.57,1.23-5.61,1.17-1.05-.06-.44-.02-.65-1.51s-.1-4.72-.62-7.42.25-5.77-2.51-8.78c-2.77-3.01-9.77-7.91-14.08-9.27-4.31-1.37-8.8.27-11.8,1.07-2.99.8-4.59,3.15-6.18,3.71s-2.76.23-3.37-.34-.23-2.56-.28-3.07" fill="none" stroke="#000" stroke-width="2" stroke-linecap="round"/></g></g></g></g><g id="eNDhQaK5dyn139_tr" transform="translate(802.207254,448.761293) rotate(0.5)"><g transform="translate(-802.207254,-448.761292)"><g><g transform="translate(537.083 350.276)"><path d="M0,0c2.79-1.02,13.17-3.57,16.77-6.14s3.94-5.47,4.84-9.26s1.35-9.95.55-13.49c-.8-3.55-2.93-6.43-5.35-7.79s-6.96-.4-9.16-.36c-2.2.05-3.92,2.03-4.04.63-.13-1.4,3.36-6.25,3.31-9.04-.06-2.79-1-5.17-3.63-7.7-2.62-2.53-8.21-4.02-12.12-7.48-3.92-3.47-7.58-10.7-11.38-13.33-3.8-2.62-8.59-3.08-11.41-2.43s-3.89,7.24-5.51,6.32c-1.62-.91-.58-9.33-4.2-11.82-3.63-2.49-11.78-3.81-17.55-3.11-5.76.71-13.46,3.32-17.05,7.34-3.6,4.02-3.47,13.84-4.52,16.78-1.04,2.94.47,1-1.74.84-2.21-.15-8.51-3.19-11.53-1.79s-6.38,6.38-6.57,10.18s4.91,7.49,5.43,12.6c.52,5.12-4.99,12.36-2.3,18.09c2.68,5.73,13.57,10.94,18.41,16.27c4.84,5.32,6.16,11.54,10.63,15.69s11.23,7.65,16.17,9.21s9.78,1.4,13.47.15c3.7-1.25,4.99-6.74,8.69-7.63c3.69-.9,8.49,4.15,13.47,2.24s13.68-11.43,16.41-13.72" fill="#fff" fill-rule="evenodd" stroke-width="0" stroke-linecap="round"/><path d="M0,0c2.79-1.02,13.17-3.57,16.77-6.14s3.94-5.47,4.84-9.26s1.35-9.95.55-13.49c-.8-3.55-2.93-6.43-5.35-7.79s-6.96-.4-9.16-.36c-2.2.05-3.92,2.03-4.04.63-.13-1.4,3.36-6.25,3.31-9.04-.06-2.79-1-5.17-3.63-7.7-2.62-2.53-8.21-4.02-12.12-7.48-3.92-3.47-7.58-10.7-11.38-13.33-3.8-2.62-8.59-3.08-11.41-2.43s-3.89,7.24-5.51,6.32c-1.62-.91-.58-9.33-4.2-11.82-3.63-2.49-11.78-3.81-17.55-3.11-5.76.71-13.46,3.32-17.05,7.34-3.6,4.02-3.47,13.84-4.52,16.78-1.04,2.94.47,1-1.74.84-2.21-.15-8.51-3.19-11.53-1.79s-6.38,6.38-6.57,10.18s4.91,7.49,5.43,12.6c.52,5.12-4.99,12.36-2.3,18.09c2.68,5.73,13.57,10.94,18.41,16.27c4.84,5.32,6.16,11.54,10.63,15.69s11.23,7.65,16.17,9.21s9.78,1.4,13.47.15c3.7-1.25,4.99-6.74,8.69-7.63c3.69-.9,8.49,4.15,13.47,2.24s13.68-11.43,16.41-13.72M0,0c2.79-1.02,13.17-3.57,16.77-6.14s3.94-5.47,4.84-9.26s1.35-9.95.55-13.49c-.8-3.55-2.93-6.43-5.35-7.79s-6.96-.4-9.16-.36c-2.2.05-3.92,2.03-4.04.63-.13-1.4,3.36-6.25,3.31-9.04-.06-2.79-1-5.17-3.63-7.7-2.62-2.53-8.21-4.02-12.12-7.48-3.92-3.47-7.58-10.7-11.38-13.33-3.8-2.62-8.59-3.08-11.41-2.43s-3.89,7.24-5.51,6.32c-1.62-.91-.58-9.33-4.2-11.82-3.63-2.49-11.78-3.81-17.55-3.11-5.76.71-13.46,3.32-17.05,7.34-3.6,4.02-3.47,13.84-4.52,16.78-1.04,2.94.47,1-1.74.84-2.21-.15-8.51-3.19-11.53-1.79s-6.38,6.38-6.57,10.18s4.91,7.49,5.43,12.6c.52,5.12-4.99,12.36-2.3,18.09c2.68,5.73,13.57,10.94,18.41,16.27c4.84,5.32,6.16,11.54,10.63,15.69s11.23,7.65,16.17,9.21s9.78,1.4,13.47.15c3.7-1.25,4.99-6.74,8.69-7.63c3.69-.9,8.49,4.15,13.47,2.24s13.68-11.43,16.41-13.72" fill="none" fill-rule="evenodd" stroke="rgba(0,0,0,0)" stroke-width="2" stroke-linecap="round"/></g></g><g><g transform="translate(536.559 349.569)"><path d="M0,0c.13-2.52,1.77-10.82.78-15.13-1-4.32-4.09-7.97-6.75-10.77-2.65-2.8-5.71-4.43-9.17-6.04-3.46-1.6-8.81-2.37-11.57-3.58s-3.26-3.41-5-3.67c-1.74-.25-4.53,2.56-5.44,2.11-.91-.44,1.54-3.36,0-4.77s-4.53-3.16-9.22-3.68-13.53.43-18.92.58c-5.4.14-8.95-1.12-13.45.29-4.51,1.41-11.01,5.92-13.57,8.17-2.56,2.24-1,2.71-1.81,5.3s-5.61,5.81-3.04,10.23c2.56,4.42,13.57,10.94,18.41,16.27c4.84,5.32,6.16,11.54,10.63,15.69s11.23,7.65,16.17,9.21s9.78,1.4,13.47.15c3.7-1.25,4.99-6.74,8.69-7.63c3.69-.9,8.49,4.15,13.47,2.24s13.68-11.43,16.41-13.72" fill="#e9ecef" fill-rule="evenodd" stroke-width="0" stroke-linecap="round"/><path d="M0,0c.13-2.52,1.77-10.82.78-15.13-1-4.32-4.09-7.97-6.75-10.77-2.65-2.8-5.71-4.43-9.17-6.04-3.46-1.6-8.81-2.37-11.57-3.58s-3.26-3.41-5-3.67c-1.74-.25-4.53,2.56-5.44,2.11-.91-.44,1.54-3.36,0-4.77s-4.53-3.16-9.22-3.68-13.53.43-18.92.58c-5.4.14-8.95-1.12-13.45.29-4.51,1.41-11.01,5.92-13.57,8.17-2.56,2.24-1,2.71-1.81,5.3s-5.61,5.81-3.04,10.23c2.56,4.42,13.57,10.94,18.41,16.27c4.84,5.32,6.16,11.54,10.63,15.69s11.23,7.65,16.17,9.21s9.78,1.4,13.47.15c3.7-1.25,4.99-6.74,8.69-7.63c3.69-.9,8.49,4.15,13.47,2.24s13.68-11.43,16.41-13.72M0,0c.13-2.52,1.77-10.82.78-15.13-1-4.32-4.09-7.97-6.75-10.77-2.65-2.8-5.71-4.43-9.17-6.04-3.46-1.6-8.81-2.37-11.57-3.58s-3.26-3.41-5-3.67c-1.74-.25-4.53,2.56-5.44,2.11-.91-.44,1.54-3.36,0-4.77s-4.53-3.16-9.22-3.68-13.53.43-18.92.58c-5.4.14-8.95-1.12-13.45.29-4.51,1.41-11.01,5.92-13.57,8.17-2.56,2.24-1,2.71-1.81,5.3s-5.61,5.81-3.04,10.23c2.56,4.42,13.57,10.94,18.41,16.27c4.84,5.32,6.16,11.54,10.63,15.69s11.23,7.65,16.17,9.21s9.78,1.4,13.47.15c3.7-1.25,4.99-6.74,8.69-7.63c3.69-.9,8.49,4.15,13.47,2.24s13.68-11.43,16.41-13.72" fill="none" fill-rule="evenodd" stroke="rgba(0,0,0,0)" stroke-width="2" stroke-linecap="round"/></g></g><g><g transform="translate(537.383 349.579)"><path d="M0,0c2.79-1.02,13.17-3.57,16.77-6.14s3.94-5.47,4.84-9.26s1.35-9.95.55-13.49c-.8-3.55-2.93-6.43-5.35-7.79s-6.96-.4-9.16-.36c-2.2.05-3.92,2.03-4.04.63-.13-1.4,3.36-6.25,3.31-9.04-.06-2.79-1-5.17-3.63-7.7-2.62-2.53-8.21-4.02-12.12-7.48-3.92-3.47-7.58-10.7-11.38-13.33-3.8-2.62-8.59-3.08-11.41-2.43s-3.89,7.24-5.51,6.32c-1.62-.91-.58-9.33-4.2-11.82-3.63-2.49-11.78-3.81-17.55-3.11-5.76.71-13.46,3.32-17.05,7.34-3.6,4.02-3.47,13.84-4.52,16.78-1.04,2.94.47,1-1.74.84-2.21-.15-8.51-3.19-11.53-1.79s-6.38,6.38-6.57,10.18s4.91,7.49,5.43,12.6c.52,5.12-4.99,12.36-2.3,18.09c2.68,5.73,13.57,10.94,18.41,16.27c4.84,5.32,6.16,11.54,10.63,15.69s11.23,7.65,16.17,9.21s9.78,1.4,13.47.15c3.7-1.25,4.99-6.74,8.69-7.63c3.69-.9,8.49,4.15,13.47,2.24s13.68-11.43,16.41-13.72M0,0c2.79-1.02,13.17-3.57,16.77-6.14s3.94-5.47,4.84-9.26s1.35-9.95.55-13.49c-.8-3.55-2.93-6.43-5.35-7.79s-6.96-.4-9.16-.36c-2.2.05-3.92,2.03-4.04.63-.13-1.4,3.36-6.25,3.31-9.04-.06-2.79-1-5.17-3.63-7.7-2.62-2.53-8.21-4.02-12.12-7.48-3.92-3.47-7.58-10.7-11.38-13.33-3.8-2.62-8.59-3.08-11.41-2.43s-3.89,7.24-5.51,6.32c-1.62-.91-.58-9.33-4.2-11.82-3.63-2.49-11.78-3.81-17.55-3.11-5.76.71-13.46,3.32-17.05,7.34-3.6,4.02-3.47,13.84-4.52,16.78-1.04,2.94.47,1-1.74.84-2.21-.15-8.51-3.19-11.53-1.79s-6.38,6.38-6.57,10.18s4.91,7.49,5.43,12.6c.52,5.12-4.99,12.36-2.3,18.09c2.68,5.73,13.57,10.94,18.41,16.27c4.84,5.32,6.16,11.54,10.63,15.69s11.23,7.65,16.17,9.21s9.78,1.4,13.47.15c3.7-1.25,4.99-6.74,8.69-7.63c3.69-.9,8.49,4.15,13.47,2.24s13.68-11.43,16.41-13.72" fill="none" stroke="#000" stroke-width="2" stroke-linecap="round"/></g></g></g></g><g id="eNDhQaK5dyn151_tr" transform="translate(687.704151,393.656909) rotate(2.264407)"><g transform="translate(-687.70415,-393.65688)"><g><g transform="translate(90.3227 138.249)"><path d="M0,0c3.31-5.09,13.64-25.57,19.85-30.56c6.2-4.98,12.66,1.46,17.39.66c4.72-.8,7.2-4.76,10.96-5.48s7.39.94,11.61,1.17c4.21.23,9.36-1.15,13.66.2c4.31,1.35,8.87,5.25,12.19,7.89s5.54,3.81,7.76,7.94c2.22,4.14,5.08,13.35,5.56,16.87.48,3.53-3.11,3.48-2.67,4.3.45.82,1.48-.41,5.33.61c3.86,1.01,13,1.8,17.82,5.48s9.39,12.13,11.11,16.6c1.73,4.46-.4,8.4-.76,10.2-.35,1.8-2.15-.18-1.37.61.79.78,4.39.33,6.09,4.11s4.55,13.88,4.11,18.58c-.43,4.69-4.89,7.86-6.7,9.59-1.8,1.72-4.54-.03-4.11.76s3.66,2.26,6.7,3.96c3.05,1.7,7.36,4.19,11.58,6.24c4.21,2.06,10.58,1.42,13.7,6.09s4.77,15.99,5.02,21.93c.26,5.94-1.09,10.38-3.5,13.7-2.41,3.33-7.43,4.98-10.96,6.24-3.53,1.27-6.68,0-10.2,1.38-3.53,1.37-7.77,4.11-10.97,6.85-3.19,2.74-3.3,8.09-8.22,9.59s-14.11-1.29-21.32-.61c-7.2.69-15.53,4.72-21.92,4.72-6.4,0-12.11-2.21-16.45-4.72s-6.49-7.49-9.59-10.35c-3.1-2.87-6.37-5.48-8.98-6.86-2.62-1.37-4.67-2.05-6.7-1.37-2.03.69-3.53,4.9-5.48,5.49-1.96.58-3.84-2.09-6.25-1.98-2.41.1-5.15,1.34-8.22,2.58-3.07,1.25-4.69,4.19-10.2,4.88-5.51.68-15.41.15-22.84-.76-7.44-.92-15.41-1.78-21.78-4.72-6.37-2.95-13.14-8.84-16.44-12.95s-4.24-8.17-3.35-11.72s6.65-7.89,8.68-9.59s3.93.17,3.5-.61c-.43-.79-2.79-.89-6.09-4.11-3.3-3.23-10.18-10.21-13.7-15.23-3.53-5.03-5.18-9.92-7.46-14.92-2.29-5-6.32-9.7-6.25-15.08.08-5.38,3.76-11.49,6.7-17.2c2.95-5.71,6.73-12.84,10.97-17.06c4.23-4.21,11.82-5.71,14.46-8.22s-1.93-4.54,1.37-6.85s13.39-6.55,18.43-7.01c5.03-.46,8.31,2.98,11.78,4.25c3.46,1.27,6.28,2.36,9.01,3.37c2.73,1.02,6.15,2.28,7.37,2.74" fill="#fff" fill-rule="evenodd" stroke-width="0" stroke-linecap="round"/><path d="M0,0c3.31-5.09,13.64-25.57,19.85-30.56c6.2-4.98,12.66,1.46,17.39.66c4.72-.8,7.2-4.76,10.96-5.48s7.39.94,11.61,1.17c4.21.23,9.36-1.15,13.66.2c4.31,1.35,8.87,5.25,12.19,7.89s5.54,3.81,7.76,7.94c2.22,4.14,5.08,13.35,5.56,16.87.48,3.53-3.11,3.48-2.67,4.3.45.82,1.48-.41,5.33.61c3.86,1.01,13,1.8,17.82,5.48s9.39,12.13,11.11,16.6c1.73,4.46-.4,8.4-.76,10.2-.35,1.8-2.15-.18-1.37.61.79.78,4.39.33,6.09,4.11s4.55,13.88,4.11,18.58c-.43,4.69-4.89,7.86-6.7,9.59-1.8,1.72-4.54-.03-4.11.76s3.66,2.26,6.7,3.96c3.05,1.7,7.36,4.19,11.58,6.24c4.21,2.06,10.58,1.42,13.7,6.09s4.77,15.99,5.02,21.93c.26,5.94-1.09,10.38-3.5,13.7-2.41,3.33-7.43,4.98-10.96,6.24-3.53,1.27-6.68,0-10.2,1.38-3.53,1.37-7.77,4.11-10.97,6.85-3.19,2.74-3.3,8.09-8.22,9.59s-14.11-1.29-21.32-.61c-7.2.69-15.53,4.72-21.92,4.72-6.4,0-12.11-2.21-16.45-4.72s-6.49-7.49-9.59-10.35c-3.1-2.87-6.37-5.48-8.98-6.86-2.62-1.37-4.67-2.05-6.7-1.37-2.03.69-3.53,4.9-5.48,5.49-1.96.58-3.84-2.09-6.25-1.98-2.41.1-5.15,1.34-8.22,2.58-3.07,1.25-4.69,4.19-10.2,4.88-5.51.68-15.41.15-22.84-.76-7.44-.92-15.41-1.78-21.78-4.72-6.37-2.95-13.14-8.84-16.44-12.95s-4.24-8.17-3.35-11.72s6.65-7.89,8.68-9.59s3.93.17,3.5-.61c-.43-.79-2.79-.89-6.09-4.11-3.3-3.23-10.18-10.21-13.7-15.23-3.53-5.03-5.18-9.92-7.46-14.92-2.29-5-6.32-9.7-6.25-15.08.08-5.38,3.76-11.49,6.7-17.2c2.95-5.71,6.73-12.84,10.97-17.06c4.23-4.21,11.82-5.71,14.46-8.22s-1.93-4.54,1.37-6.85s13.39-6.55,18.43-7.01c5.03-.46,8.31,2.98,11.78,4.25c3.46,1.27,6.28,2.36,9.01,3.37c2.73,1.02,6.15,2.28,7.37,2.74M0,0c3.31-5.09,13.64-25.57,19.85-30.56c6.2-4.98,12.66,1.46,17.39.66c4.72-.8,7.2-4.76,10.96-5.48s7.39.94,11.61,1.17c4.21.23,9.36-1.15,13.66.2c4.31,1.35,8.87,5.25,12.19,7.89s5.54,3.81,7.76,7.94c2.22,4.14,5.08,13.35,5.56,16.87.48,3.53-3.11,3.48-2.67,4.3.45.82,1.48-.41,5.33.61c3.86,1.01,13,1.8,17.82,5.48s9.39,12.13,11.11,16.6c1.73,4.46-.4,8.4-.76,10.2-.35,1.8-2.15-.18-1.37.61.79.78,4.39.33,6.09,4.11s4.55,13.88,4.11,18.58c-.43,4.69-4.89,7.86-6.7,9.59-1.8,1.72-4.54-.03-4.11.76s3.66,2.26,6.7,3.96c3.05,1.7,7.36,4.19,11.58,6.24c4.21,2.06,10.58,1.42,13.7,6.09s4.77,15.99,5.02,21.93c.26,5.94-1.09,10.38-3.5,13.7-2.41,3.33-7.43,4.98-10.96,6.24-3.53,1.27-6.68,0-10.2,1.38-3.53,1.37-7.77,4.11-10.97,6.85-3.19,2.74-3.3,8.09-8.22,9.59s-14.11-1.29-21.32-.61c-7.2.69-15.53,4.72-21.92,4.72-6.4,0-12.11-2.21-16.45-4.72s-6.49-7.49-9.59-10.35c-3.1-2.87-6.37-5.48-8.98-6.86-2.62-1.37-4.67-2.05-6.7-1.37-2.03.69-3.53,4.9-5.48,5.49-1.96.58-3.84-2.09-6.25-1.98-2.41.1-5.15,1.34-8.22,2.58-3.07,1.25-4.69,4.19-10.2,4.88-5.51.68-15.41.15-22.84-.76-7.44-.92-15.41-1.78-21.78-4.72-6.37-2.95-13.14-8.84-16.44-12.95s-4.24-8.17-3.35-11.72s6.65-7.89,8.68-9.59s3.93.17,3.5-.61c-.43-.79-2.79-.89-6.09-4.11-3.3-3.23-10.18-10.21-13.7-15.23-3.53-5.03-5.18-9.92-7.46-14.92-2.29-5-6.32-9.7-6.25-15.08.08-5.38,3.76-11.49,6.7-17.2c2.95-5.71,6.73-12.84,10.97-17.06c4.23-4.21,11.82-5.71,14.46-8.22s-1.93-4.54,1.37-6.85s13.39-6.55,18.43-7.01c5.03-.46,8.31,2.98,11.78,4.25c3.46,1.27,6.28,2.36,9.01,3.37c2.73,1.02,6.15,2.28,7.37,2.74" fill="none" fill-rule="evenodd" stroke="rgba(0,0,0,0)" stroke-width="2" stroke-linecap="round"/></g></g><g><g transform="translate(108.385 183.874)"><path d="M0,0c2.64.42,11.56.24,15.86,2.51c4.31,2.28,5.91,10.27,9.96,11.14s7.62-6.07,14.35-5.9c6.72.16,20.5,3.88,25.99,6.92c5.48,3.03,5.91,8.15,6.92,11.3s-1.46,6.59-.84,7.6c.61,1.01,2.78-2.14,4.55-1.52s3.45,3.35,6.08,5.23c2.62,1.89,6.72,3.13,9.67,6.07c2.96,2.94,5.03,10.18,8.05,11.56c3.01,1.38,6.72-3.39,10.07-3.3c3.36.1,7.13,1.83,10.05,3.88c2.92,2.06,5.43,5.81,7.46,8.46s4.39,5.02,4.73,7.44-.94,5.06-2.69,7.09c-1.76,2.03-4.71,3.09-7.84,5.08s-7.77,4.11-10.96,6.85c-3.2,2.74-3.3,8.1-8.23,9.6-4.92,1.49-14.11-1.3-21.31-.61-7.21.68-15.53,4.72-21.93,4.72-6.39,0-12.1-2.21-16.44-4.72-4.34-2.52-6.5-7.49-9.6-10.36-3.09-2.86-6.37-5.48-8.98-6.85s-4.67-2.05-6.7-1.37c-2.03.69-3.53,4.9-5.48,5.48-1.96.59-3.83-2.08-6.24-1.98s-5.16,1.35-8.23,2.59-4.69,4.19-10.2,4.87c-5.51.69-15.4.16-22.84-.76-7.43-.91-15.4-1.77-21.77-4.72-6.37-2.94-13.15-8.83-16.45-12.94s-4.23-8.17-3.35-11.72c.89-3.56,6.65-7.9,8.68-9.6s3.94.18,3.5-.61c-.43-.78-6.42-.01-6.09-4.11.33-4.09,2.44-14.48,8.07-20.46c5.63-5.97,19.24-13.95,25.72-15.39s9.34,7.65,13.16,6.75c3.83-.9,5.91-9.11,9.79-12.15C-9.62,3.03,-2.25,1.01,0,0" fill="#e9ecef" fill-rule="evenodd" stroke-width="0" stroke-linecap="round"/><path d="M0,0c2.64.42,11.56.24,15.86,2.51c4.31,2.28,5.91,10.27,9.96,11.14s7.62-6.07,14.35-5.9c6.72.16,20.5,3.88,25.99,6.92c5.48,3.03,5.91,8.15,6.92,11.3s-1.46,6.59-.84,7.6c.61,1.01,2.78-2.14,4.55-1.52s3.45,3.35,6.08,5.23c2.62,1.89,6.72,3.13,9.67,6.07c2.96,2.94,5.03,10.18,8.05,11.56c3.01,1.38,6.72-3.39,10.07-3.3c3.36.1,7.13,1.83,10.05,3.88c2.92,2.06,5.43,5.81,7.46,8.46s4.39,5.02,4.73,7.44-.94,5.06-2.69,7.09c-1.76,2.03-4.71,3.09-7.84,5.08s-7.77,4.11-10.96,6.85c-3.2,2.74-3.3,8.1-8.23,9.6-4.92,1.49-14.11-1.3-21.31-.61-7.21.68-15.53,4.72-21.93,4.72-6.39,0-12.1-2.21-16.44-4.72-4.34-2.52-6.5-7.49-9.6-10.36-3.09-2.86-6.37-5.48-8.98-6.85s-4.67-2.05-6.7-1.37c-2.03.69-3.53,4.9-5.48,5.48-1.96.59-3.83-2.08-6.24-1.98s-5.16,1.35-8.23,2.59-4.69,4.19-10.2,4.87c-5.51.69-15.4.16-22.84-.76-7.43-.91-15.4-1.77-21.77-4.72-6.37-2.94-13.15-8.83-16.45-12.94s-4.23-8.17-3.35-11.72c.89-3.56,6.65-7.9,8.68-9.6s3.94.18,3.5-.61c-.43-.78-6.42-.01-6.09-4.11.33-4.09,2.44-14.48,8.07-20.46c5.63-5.97,19.24-13.95,25.72-15.39s9.34,7.65,13.16,6.75c3.83-.9,5.91-9.11,9.79-12.15C-9.62,3.03,-2.25,1.01,0,0M0,0c2.64.42,11.56.24,15.86,2.51c4.31,2.28,5.91,10.27,9.96,11.14s7.62-6.07,14.35-5.9c6.72.16,20.5,3.88,25.99,6.92c5.48,3.03,5.91,8.15,6.92,11.3s-1.46,6.59-.84,7.6c.61,1.01,2.78-2.14,4.55-1.52s3.45,3.35,6.08,5.23c2.62,1.89,6.72,3.13,9.67,6.07c2.96,2.94,5.03,10.18,8.05,11.56c3.01,1.38,6.72-3.39,10.07-3.3c3.36.1,7.13,1.83,10.05,3.88c2.92,2.06,5.43,5.81,7.46,8.46s4.39,5.02,4.73,7.44-.94,5.06-2.69,7.09c-1.76,2.03-4.71,3.09-7.84,5.08s-7.77,4.11-10.96,6.85c-3.2,2.74-3.3,8.1-8.23,9.6-4.92,1.49-14.11-1.3-21.31-.61-7.21.68-15.53,4.72-21.93,4.72-6.39,0-12.1-2.21-16.44-4.72-4.34-2.52-6.5-7.49-9.6-10.36-3.09-2.86-6.37-5.48-8.98-6.85s-4.67-2.05-6.7-1.37c-2.03.69-3.53,4.9-5.48,5.48-1.96.59-3.83-2.08-6.24-1.98s-5.16,1.35-8.23,2.59-4.69,4.19-10.2,4.87c-5.51.69-15.4.16-22.84-.76-7.43-.91-15.4-1.77-21.77-4.72-6.37-2.94-13.15-8.83-16.45-12.94s-4.23-8.17-3.35-11.72c.89-3.56,6.65-7.9,8.68-9.6s3.94.18,3.5-.61c-.43-.78-6.42-.01-6.09-4.11.33-4.09,2.44-14.48,8.07-20.46c5.63-5.97,19.24-13.95,25.72-15.39s9.34,7.65,13.16,6.75c3.83-.9,5.91-9.11,9.79-12.15C-9.62,3.03,-2.25,1.01,0,0" fill="none" fill-rule="evenodd" stroke="rgba(0,0,0,0)" stroke-width="2" stroke-linecap="round"/></g></g><g><g transform="translate(89.8582 138.81)"><path d="M0,0c3.31-5.09,13.64-25.57,19.85-30.56c6.2-4.98,12.66,1.46,17.39.66c4.72-.8,7.2-4.76,10.96-5.48s7.39.94,11.61,1.17c4.21.23,9.36-1.15,13.66.2c4.31,1.35,8.87,5.25,12.19,7.89s5.54,3.81,7.76,7.94c2.22,4.14,5.08,13.35,5.56,16.87.48,3.53-3.11,3.48-2.67,4.3.45.82,1.48-.41,5.33.61c3.86,1.01,13,1.8,17.82,5.48s9.39,12.13,11.11,16.6c1.73,4.46-.4,8.4-.76,10.2-.35,1.8-2.15-.18-1.37.61.79.78,4.39.33,6.09,4.11s4.55,13.88,4.11,18.58c-.43,4.69-4.89,7.86-6.7,9.59-1.8,1.72-4.54-.03-4.11.76s3.66,2.26,6.7,3.96c3.05,1.7,7.36,4.19,11.58,6.24c4.21,2.06,10.58,1.42,13.7,6.09s4.77,15.99,5.02,21.93c.26,5.94-1.09,10.38-3.5,13.7-2.41,3.33-7.43,4.98-10.96,6.24-3.53,1.27-6.68,0-10.2,1.38-3.53,1.37-7.77,4.11-10.97,6.85-3.19,2.74-3.3,8.09-8.22,9.59s-14.11-1.29-21.32-.61c-7.2.69-15.53,4.72-21.92,4.72-6.4,0-12.11-2.21-16.45-4.72s-6.49-7.49-9.59-10.35c-3.1-2.87-6.37-5.48-8.98-6.86-2.62-1.37-4.67-2.05-6.7-1.37-2.03.69-3.53,4.9-5.48,5.49-1.96.58-3.84-2.09-6.25-1.98-2.41.1-5.15,1.34-8.22,2.58-3.07,1.25-4.69,4.19-10.2,4.88-5.51.68-15.41.15-22.84-.76-7.44-.92-15.41-1.78-21.78-4.72-6.37-2.95-13.14-8.84-16.44-12.95s-4.24-8.17-3.35-11.72s6.65-7.89,8.68-9.59s3.93.17,3.5-.61c-.43-.79-2.79-.89-6.09-4.11-3.3-3.23-10.18-10.21-13.7-15.23-3.53-5.03-5.18-9.92-7.46-14.92-2.29-5-6.32-9.7-6.25-15.08.08-5.38,3.76-11.49,6.7-17.2c2.95-5.71,6.73-12.84,10.97-17.06c4.23-4.21,11.82-5.71,14.46-8.22s-1.93-4.54,1.37-6.85s13.39-6.55,18.43-7.01c5.03-.46,8.31,2.98,11.78,4.25c3.46,1.27,6.28,2.36,9.01,3.37c2.73,1.02,6.15,2.28,7.37,2.74M0,0c3.31-5.09,13.64-25.57,19.85-30.56c6.2-4.98,12.66,1.46,17.39.66c4.72-.8,7.2-4.76,10.96-5.48s7.39.94,11.61,1.17c4.21.23,9.36-1.15,13.66.2c4.31,1.35,8.87,5.25,12.19,7.89s5.54,3.81,7.76,7.94c2.22,4.14,5.08,13.35,5.56,16.87.48,3.53-3.11,3.48-2.67,4.3.45.82,1.48-.41,5.33.61c3.86,1.01,13,1.8,17.82,5.48s9.39,12.13,11.11,16.6c1.73,4.46-.4,8.4-.76,10.2-.35,1.8-2.15-.18-1.37.61.79.78,4.39.33,6.09,4.11s4.55,13.88,4.11,18.58c-.43,4.69-4.89,7.86-6.7,9.59-1.8,1.72-4.54-.03-4.11.76s3.66,2.26,6.7,3.96c3.05,1.7,7.36,4.19,11.58,6.24c4.21,2.06,10.58,1.42,13.7,6.09s4.77,15.99,5.02,21.93c.26,5.94-1.09,10.38-3.5,13.7-2.41,3.33-7.43,4.98-10.96,6.24-3.53,1.27-6.68,0-10.2,1.38-3.53,1.37-7.77,4.11-10.97,6.85-3.19,2.74-3.3,8.09-8.22,9.59s-14.11-1.29-21.32-.61c-7.2.69-15.53,4.72-21.92,4.72-6.4,0-12.11-2.21-16.45-4.72s-6.49-7.49-9.59-10.35c-3.1-2.87-6.37-5.48-8.98-6.86-2.62-1.37-4.67-2.05-6.7-1.37-2.03.69-3.53,4.9-5.48,5.49-1.96.58-3.84-2.09-6.25-1.98-2.41.1-5.15,1.34-8.22,2.58-3.07,1.25-4.69,4.19-10.2,4.88-5.51.68-15.41.15-22.84-.76-7.44-.92-15.41-1.78-21.78-4.72-6.37-2.95-13.14-8.84-16.44-12.95s-4.24-8.17-3.35-11.72s6.65-7.89,8.68-9.59s3.93.17,3.5-.61c-.43-.79-2.79-.89-6.09-4.11-3.3-3.23-10.18-10.21-13.7-15.23-3.53-5.03-5.18-9.92-7.46-14.92-2.29-5-6.32-9.7-6.25-15.08.08-5.38,3.76-11.49,6.7-17.2c2.95-5.71,6.73-12.84,10.97-17.06c4.23-4.21,11.82-5.71,14.46-8.22s-1.93-4.54,1.37-6.85s13.39-6.55,18.43-7.01c5.03-.46,8.31,2.98,11.78,4.25c3.46,1.27,6.28,2.36,9.01,3.37c2.73,1.02,6.15,2.28,7.37,2.74" fill="none" stroke="#000" stroke-width="2" stroke-linecap="round"/></g></g></g></g></svg>
