<svg version="1.1" xmlns="http://www.w3.org/2000/svg" viewBox="0 0 310.14406948086753 190.06532541393358" width="620.2881389617351" height="380.13065082786716">
  <!-- svg-source:excalidraw -->
  
  <defs>
    <style class="style-fonts">
      @font-face {
        font-family: "Virgil";
        src: url("https://excalidraw.com/Virgil.woff2");
      }
      @font-face {
        font-family: "Cascadia";
        src: url("https://excalidraw.com/Cascadia.woff2");
      }
      @font-face {
        font-family: "Assistant";
        src: url("https://excalidraw.com/Assistant-Regular.woff2");
      }
    </style>
    
  </defs>
  <g stroke-linecap="round"><g transform="translate(49.94371819617436 135.05748175178655) rotate(0 6.0751077625305925 -14.319883744390609)" fill-rule="evenodd"><path d="M0.78 0.95 L19.17 4.44 L21.23 10.97 L16.98 13.36 L15.37 13.44 L24.64 14.51 L24.81 18.64 L17.6 21.6 L18.52 23.61 L23.26 23.09 L25.24 25.53 L19.04 26.6 L19.4 27.4 L25.43 29.96 L27.63 37.2 L32.11 41.4 L25.47 44.92 L15.66 45.3 L6.24 35.35 L-1.71 19.39 L-8.42 2.9 L-20.84 3.21 L-28.57 -0.69 L-37.84 -9.68 L-40.84 -18 L-39.41 -26.75 L-37.8 -37.79 L-35.41 -43.23 L-29.17 -49.86 L-26.6 -50.1 L-11.3 -51.43 L-0.9 -56.21 L13.85 -59.78 L25.2 -66.04 L31.33 -68.31 L33.43 -72.07 L48.77 10.89 L52.25 15.23 L45.49 11.12 L28.87 0.73 L18.09 3.09 L-1.59 -0.65" stroke="none" stroke-width="0" fill="#868e96" fill-rule="evenodd"></path><path d="M0 0 C4.82 1.04, 12.03 3.93, 20.61 5.21 M0 0 C5.56 1.91, 12.42 3.21, 20.61 5.21 M20.61 5.21 C21.39 7.33, 21.64 8.43, 22.2 10.05 M20.61 5.21 C21.48 7.18, 22.09 9.16, 22.2 10.05 M22.2 10.05 C20.86 10.48, 18.8 11.53, 16.71 12.29 M22.2 10.05 C20.53 10.61, 18.96 11.45, 16.71 12.29 M16.71 12.29 C16.63 13.06, 16.55 13.44, 16.06 15.26 M16.71 12.29 C16.6 13, 16.4 13.52, 16.06 15.26 M16.06 15.26 C18.06 15.18, 20.21 15.16, 22.85 14.97 M16.06 15.26 C18.22 14.94, 20.84 15.31, 22.85 14.97 M22.85 14.97 C23.05 16.21, 22.95 17.12, 23.14 18.15 M22.85 14.97 C22.9 16.17, 23.12 17.09, 23.14 18.15 M23.14 18.15 C21.61 19, 20.46 18.88, 18.66 19.82 M23.14 18.15 C22.41 18.56, 21.52 18.91, 18.66 19.82 M18.66 19.82 C18.79 20.56, 19.22 21.41, 19.24 22.71 M18.66 19.82 C18.92 20.48, 19.01 21.2, 19.24 22.71 M19.24 22.71 C20.99 22.05, 22.66 21.94, 23.5 21.77 M19.24 22.71 C20.49 22.25, 21.53 22.09, 23.5 21.77 M23.5 21.77 C24.04 22.93, 24.06 24.76, 24.73 25.67 M23.5 21.77 C24.05 23.09, 24.07 23.86, 24.73 25.67 M24.73 25.67 C23.66 26.35, 22.33 25.9, 20.61 26.61 M24.73 25.67 C23.12 26.06, 21.56 26.3, 20.61 26.61 M20.61 26.61 C20.59 26.91, 20.67 27.43, 20.54 28.28 M20.61 26.61 C20.51 27.13, 20.53 27.68, 20.54 28.28 M20.54 28.28 C21.51 28.05, 22.26 28.11, 24.16 27.99 M20.54 28.28 C22.08 28.25, 23.3 28.11, 24.16 27.99 M24.16 27.99 C24.86 29.37, 27.05 31.86, 28.64 37.39 M24.16 27.99 C25.8 31.68, 26.83 34.1, 28.64 37.39 M28.64 37.39 C29.02 38.62, 29.65 39.26, 31.32 41.59 M28.64 37.39 C29.47 38.73, 30.29 39.78, 31.32 41.59 M31.32 41.59 C29.4 42.58, 28.12 43.69, 26.76 44.55 M31.32 41.59 C29.47 42.69, 27.8 43.75, 26.76 44.55 M26.76 44.55 C22.54 44.44, 17.54 44.1, 14.03 44.91 M26.76 44.55 C23.23 44.88, 20.67 45.16, 14.03 44.91 M14.03 44.91 C11.91 42.11, 9.93 38.25, 7.23 36.74 M14.03 44.91 C12.69 43.13, 10.54 40.56, 7.23 36.74 M7.23 36.74 C3.68 33.05, 2.65 27.51, -0.29 20.47 M7.23 36.74 C5.63 33.67, 2.91 28.73, -0.29 20.47 M-0.29 20.47 C-1.29 14.4, -6.31 4.46, -6.44 1.23 M-0.29 20.47 C-1.18 15.85, -2.58 11.8, -6.44 1.23 M-6.44 1.23 C-11.41 1.9, -14.31 2.93, -19.45 2.24 M-6.44 1.23 C-10.81 1.62, -15.02 2.33, -19.45 2.24 M-19.45 2.24 C-23.02 1.41, -25.87 0.79, -29.58 -0.72 M-19.45 2.24 C-21.82 1.03, -23.89 0.36, -29.58 -0.72 M-29.58 -0.72 C-31.32 -3.33, -35.12 -7.31, -36.67 -10.13 M-29.58 -0.72 C-31.83 -2.89, -33.45 -6.21, -36.67 -10.13 M-36.67 -10.13 C-38.33 -13.18, -38.37 -15.35, -39.27 -19.53 M-36.67 -10.13 C-37.56 -13.03, -38.03 -16.77, -39.27 -19.53 M-39.27 -19.53 C-38.67 -20.89, -38.87 -23.32, -39.92 -28.35 M-39.27 -19.53 C-39.3 -22.86, -40.08 -26.21, -39.92 -28.35 M-39.92 -28.35 C-39.2 -31.71, -37.89 -32.89, -37.68 -39.13 M-39.92 -28.35 C-39.59 -30.77, -39.44 -32.59, -37.68 -39.13 M-37.68 -39.13 C-36.29 -40.21, -35.61 -42.08, -34.5 -44.26 M-37.68 -39.13 C-36.65 -40.32, -36.15 -41.69, -34.5 -44.26 M-34.5 -44.26 C-32.69 -45.89, -32.17 -46.4, -29.29 -49.83 M-34.5 -44.26 C-33.23 -45.83, -32.18 -46.76, -29.29 -49.83 M-29.29 -49.83 C-27.88 -50.74, -26.46 -51.3, -24.73 -51.78 M-29.29 -49.83 C-27.29 -50.7, -25.56 -51.44, -24.73 -51.78 M-24.73 -51.78 C-21.31 -51.14, -19.9 -52.78, -12.37 -52.72 M-24.73 -51.78 C-20.71 -52.15, -15.91 -52.48, -12.37 -52.72 M-12.37 -52.72 C-10.43 -52.68, -8.43 -53.73, -0.29 -55.04 M-12.37 -52.72 C-8.67 -52.91, -4.48 -54.57, -0.29 -55.04 M-0.29 -55.04 C3.39 -55.88, 8.62 -57.95, 12.08 -58.29 M-0.29 -55.04 C4.89 -56.12, 9.86 -56.91, 12.08 -58.29 M12.08 -58.29 C13.91 -60.8, 15.8 -60.41, 24.45 -64.15 M12.08 -58.29 C15.62 -60.22, 20 -61.36, 24.45 -64.15 M24.45 -64.15 C26.29 -64.59, 28.06 -66.75, 30.86 -68.49 M24.45 -64.15 C26.7 -66, 29.58 -67.44, 30.86 -68.49 M30.86 -68.49 C31.99 -70.03, 33.11 -71.73, 35.15 -73.55 M30.86 -68.49 C32.21 -69.86, 33.36 -71.4, 35.15 -73.55 M35.15 -73.55 C38.58 -41.69, 43.82 -5.78, 48.24 10.7 M35.15 -73.55 C36.72 -53.29, 40.56 -34.57, 48.24 10.7 M48.24 10.7 C49.43 12.19, 50.59 12.64, 52.07 13.96 M48.24 10.7 C49.4 11.53, 50 12.06, 52.07 13.96 M52.07 13.96 C49.91 12.48, 47.96 12.87, 44.98 11.35 M52.07 13.96 C49.56 13.1, 47.05 11.83, 44.98 11.35 M44.98 11.35 C41.58 9.83, 38.58 5.95, 28.06 2.6 M44.98 11.35 C39.17 8.22, 33.54 6.38, 28.06 2.6 M28.06 2.6 C25.54 1.87, 23.63 2.42, 18.01 1.59 M28.06 2.6 C26.22 2.12, 23.95 2.5, 18.01 1.59 M18.01 1.59 C9.67 2.68, 4.23 -0.34, -0.29 0.29 M18.01 1.59 C12.03 1.62, 7.5 0.09, -0.29 0.29 M-0.29 0.29 C-0.15 0.21, -0.09 0.07, 0 0 M-0.29 0.29 C-0.2 0.21, -0.11 0.09, 0 0" stroke="transparent" stroke-width="4" fill="none"></path></g></g><mask></mask><g stroke-linecap="round" transform="translate(83.7383663445712 46.42893255337708) rotate(353.8275598387079 19.058479603903493 54.4470083007385)"><path d="M24.54 2.45 C27.55 4.1, 30.67 10.85, 32.96 18.17 C35.25 25.5, 37.71 36.69, 38.27 46.41 C38.82 56.12, 37.64 67.45, 36.31 76.47 C34.97 85.48, 33.12 95.18, 30.25 100.5 C27.38 105.81, 22.69 108.29, 19.08 108.34 C15.47 108.39, 11.6 105.8, 8.57 100.79 C5.53 95.77, 2.44 87.25, 0.87 78.25 C-0.69 69.26, -1.28 56.57, -0.82 46.8 C-0.37 37.04, 1.35 26.96, 3.61 19.66 C5.88 12.36, 8.84 5.36, 12.77 2.99 C16.69 0.61, 24.42 4.39, 27.17 5.4 C29.92 6.41, 29.43 8.33, 29.27 9.07 M15.79 -0.23 C19.32 -2.2, 25.14 1.05, 28.56 5.36 C31.99 9.67, 34.69 17.36, 36.32 25.64 C37.96 33.91, 38.41 45.12, 38.37 55 C38.33 64.88, 38.24 76.61, 36.09 84.94 C33.94 93.28, 29.06 101.13, 25.48 105.02 C21.89 108.91, 17.84 110.08, 14.58 108.26 C11.31 106.44, 8.13 100.78, 5.88 94.1 C3.62 87.43, 1.82 77.88, 1.02 68.19 C0.23 58.51, 0.3 45.42, 1.11 35.98 C1.91 26.55, 3.05 17.47, 5.88 11.57 C8.7 5.67, 16 2.22, 18.05 0.57 C20.1 -1.08, 18.47 1.02, 18.17 1.66" stroke="none" stroke-width="0" fill="#ffffff"></path><path d="M23.08 0.38 C26.39 1.35, 30.28 8.31, 32.72 15.31 C35.16 22.32, 37.04 32.85, 37.73 42.41 C38.43 51.97, 37.97 63.33, 36.88 72.69 C35.79 82.04, 33.91 92.54, 31.21 98.54 C28.51 104.55, 24.01 107.87, 20.65 108.7 C17.29 109.53, 14.19 107.98, 11.05 103.54 C7.9 99.1, 3.55 90.63, 1.77 82.07 C-0.01 73.51, -0.07 62.13, 0.36 52.16 C0.8 42.19, 2.3 30.41, 4.38 22.23 C6.45 14.05, 9.34 6.39, 12.81 3.08 C16.27 -0.24, 22.94 1.82, 25.15 2.34 C27.35 2.86, 26.18 5.25, 26.05 6.21 M24.61 1.79 C27.58 3.59, 29.49 10.48, 31.67 17.78 C33.84 25.09, 36.7 35.86, 37.66 45.62 C38.61 55.38, 38.75 67.54, 37.4 76.35 C36.04 85.15, 32.32 93.19, 29.52 98.45 C26.73 103.72, 24 107.48, 20.64 107.94 C17.28 108.4, 12.55 106.38, 9.39 101.21 C6.23 96.05, 3.17 86.02, 1.68 76.97 C0.18 67.92, 0.19 56.5, 0.42 46.91 C0.65 37.33, 0.94 26.92, 3.06 19.47 C5.18 12.01, 9.65 4.95, 13.14 2.18 C16.64 -0.58, 22.01 2.65, 24.03 2.88 C26.05 3.1, 25.62 2.95, 25.28 3.52" stroke="#868e96" stroke-width="4" fill="none"></path></g><g stroke-linecap="round"><g transform="translate(27.865245867787507 85.52101740757053) rotate(0 2.6651494863695007 24.998863708697172)" fill-rule="evenodd"><path d="M-0.52 -0.42 L-4.32 6.14 L-3.9 16.87 L-5.83 30.26 L-2.75 41.82 L6.01 52.68 L11.75 52.42 L5.47 45.49 L1.32 31.77 L0.36 25.33 L1.81 19.75 L0.22 11.51 L1.32 10.02 L2.49 1.79 L6.95 -2.03 L0.14 -1.51" stroke="none" stroke-width="0" fill="#fa5252" fill-rule="evenodd"></path><path d="M0 0 C-0.8 2.6, -1.44 3.48, -3.07 7.49 M0 0 C-0.91 2.48, -2.1 5.28, -3.07 7.49 M-3.07 7.49 C-2.75 12.71, -5.04 16.84, -4.59 18.09 M-3.07 7.49 C-3.62 11.39, -4.34 14.7, -4.59 18.09 M-4.59 18.09 C-4.44 21.45, -3.78 24.22, -4.05 29.24 M-4.59 18.09 C-4.96 20.85, -4.35 23.7, -4.05 29.24 M-4.05 29.24 C-4.14 33.94, -3.42 37.17, -2.23 40.19 M-4.05 29.24 C-3.39 32.29, -3.4 36.04, -2.23 40.19 M-2.23 40.19 C0.62 44.67, 2.25 45.41, 4.52 51.29 M-2.23 40.19 C-0.28 43.39, 1.53 45.75, 4.52 51.29 M4.52 51.29 C6.52 51.4, 8.05 51.29, 9.92 51.51 M4.52 51.29 C6.42 51.3, 8.71 51.22, 9.92 51.51 M9.92 51.51 C7.23 48.96, 5.5 45.92, 5.11 43.52 M9.92 51.51 C8.28 48.9, 6.63 45.91, 5.11 43.52 M5.11 43.52 C4.01 41.65, 3.46 39.04, 2.46 32.99 M5.11 43.52 C4.99 40.87, 3.57 38.79, 2.46 32.99 M2.46 32.99 C2.17 31.6, 2.2 29.85, 1.57 25.99 M2.46 32.99 C2.56 31.51, 2.38 29.98, 1.57 25.99 M1.57 25.99 C1.42 24.31, 1.02 23.36, 0.93 19.03 M1.57 25.99 C1.4 23.15, 1.25 20.8, 0.93 19.03 M0.93 19.03 C1.53 16.16, 1.3 14.3, 1.33 13.11 M0.93 19.03 C0.9 17.44, 1.48 15.3, 1.33 13.11 M1.33 13.11 C1.53 11.98, 1.94 10.46, 2.01 8.46 M1.33 13.11 C1.42 11.88, 1.67 10.48, 2.01 8.46 M2.01 8.46 C2.84 7.68, 2.6 6.38, 3.54 3.38 M2.01 8.46 C2.37 6.86, 3.22 4.93, 3.54 3.38 M3.54 3.38 C4.3 2.41, 4.67 1.37, 6.2 -1.51 M3.54 3.38 C4.55 1.54, 5.55 -0.67, 6.2 -1.51 M6.2 -1.51 C4.38 -1.07, 3.15 -0.76, 0.76 -0.47 M6.2 -1.51 C4.24 -1.24, 2.13 -0.98, 0.76 -0.47 M0.76 -0.47 C0.61 -0.25, 0.21 -0.19, 0 0 M0.76 -0.47 C0.57 -0.38, 0.37 -0.2, 0 0" stroke="#fa5252" stroke-width="4" fill="none"></path></g></g><mask></mask><g stroke-linecap="round"><g transform="translate(34.90380583039655 82.92488155943465) rotate(0 0.10994721161637244 27.204344236993506)"><path d="M0 0 C-0.79 1.59, -1.66 4.05, -2.82 6 M0 0 C-0.87 2.03, -1.4 3.71, -2.82 6 M-2.82 6 C-3.48 7.88, -3.32 9.33, -3.99 10.86 M-2.82 6 C-3.43 7.89, -3.77 9.48, -3.99 10.86 M-3.99 10.86 C-3.79 12.55, -4.35 14.43, -4.14 15.72 M-3.99 10.86 C-4.12 12.35, -4 13.83, -4.14 15.72 M-4.14 15.72 C-4.61 17.44, -4.23 18.89, -4.39 21.47 M-4.14 15.72 C-4.43 16.86, -4.25 18.06, -4.39 21.47 M-4.39 21.47 C-3.89 22.44, -4.11 24.08, -3.55 26.33 M-4.39 21.47 C-3.84 23.39, -3.63 25.11, -3.55 26.33 M-3.55 26.33 C-3.6 27.42, -3.17 28.98, -3.55 30.99 M-3.55 26.33 C-3.49 27.47, -3.37 28.81, -3.55 30.99 M-3.55 30.99 C-3.78 32.59, -3 33.93, -2.86 35.61 M-3.55 30.99 C-3.25 32.55, -3.2 34.35, -2.86 35.61 M-2.86 35.61 C-2.87 36.82, -2.93 37.6, -2.23 40.03 M-2.86 35.61 C-2.82 36.55, -2.72 37.44, -2.23 40.03 M-2.23 40.03 C-1.95 41.08, -2.12 41.77, -1.54 43.57 M-2.23 40.03 C-1.89 41.02, -1.95 41.79, -1.54 43.57 M-1.54 43.57 C-1.18 45.59, 0.05 46.32, 0.23 48.23 M-1.54 43.57 C-1.09 44.65, -0.59 45.57, 0.23 48.23 M0.23 48.23 C0.6 48.61, 0.93 49.03, 1.75 50.19 M0.23 48.23 C0.73 48.71, 0.92 49.28, 1.75 50.19 M1.75 50.19 C2.97 51, 3.45 52.54, 4.61 54.41 M1.75 50.19 C2.57 51.6, 3.45 52.86, 4.61 54.41" stroke="#ffffff" stroke-width="4" fill="none"></path></g></g><mask></mask><g stroke-linecap="round"><g transform="translate(27.713194680487504 84.47277285353994) rotate(0 -0.23088204451141792 26.803662588128418)"><path d="M0 0 C-1.02 1.74, -2.44 3.78, -3.39 4.87 M0 0 C-0.68 1.4, -1.95 3.07, -3.39 4.87 M-3.39 4.87 C-3.72 7.18, -3.98 8.57, -4.57 9.73 M-3.39 4.87 C-3.92 6.49, -4.18 8.46, -4.57 9.73 M-4.57 9.73 C-4.85 11.53, -4.66 12.43, -4.72 14.59 M-4.57 9.73 C-4.49 11.28, -4.71 12.48, -4.72 14.59 M-4.72 14.59 C-4.76 16.64, -5.45 18.99, -4.97 20.34 M-4.72 14.59 C-4.84 15.8, -4.87 17.36, -4.97 20.34 M-4.97 20.34 C-4.88 21.92, -3.86 24.45, -4.13 25.2 M-4.97 20.34 C-4.53 22.07, -4.38 24.11, -4.13 25.2 M-4.13 25.2 C-3.77 26.81, -4.18 27.77, -4.13 29.86 M-4.13 25.2 C-3.91 26.23, -4.17 27.5, -4.13 29.86 M-4.13 29.86 C-3.71 31.9, -3.44 33.28, -3.44 34.48 M-4.13 29.86 C-4.03 31.52, -3.86 32.81, -3.44 34.48 M-3.44 34.48 C-3.55 36.16, -3.42 38.1, -2.8 38.9 M-3.44 34.48 C-3.46 35.66, -3.16 36.75, -2.8 38.9 M-2.8 38.9 C-2.86 39.76, -2.45 41.47, -2.12 42.43 M-2.8 38.9 C-2.68 39.86, -2.28 41.13, -2.12 42.43 M-2.12 42.43 C-1.2 43.44, -1.57 45.21, -0.35 47.1 M-2.12 42.43 C-1.43 43.7, -1.41 45, -0.35 47.1 M-0.35 47.1 C-0.01 47.44, 0.16 47.76, 1.17 49.06 M-0.35 47.1 C0.18 47.92, 0.86 48.64, 1.17 49.06 M1.17 49.06 C2.11 50.16, 3.28 51.46, 4.5 53.61 M1.17 49.06 C2.17 50.57, 3.43 52.42, 4.5 53.61" stroke="#ffffff" stroke-width="4" fill="none"></path></g></g><mask></mask><g stroke-linecap="round"><g transform="translate(87.52757422909235 87.36411947111014) rotate(0 8.496233390332918 14.462354831188009)" fill-rule="evenodd"><path d="M-0.96 -0.12 L-0.66 12.6 L1.53 22.94 L3.04 29.14 L16.71 25.44 L13.22 21.36 L12.76 12.89 L13.66 7.36 L15.04 2.18 L6.77 2.42 L0.71 -0.4" stroke="none" stroke-width="0" fill="#fa5252" fill-rule="evenodd"></path><path d="M0 0 C0.05 3.04, -0.14 5.66, -0.19 12.37 M0 0 C0 4.61, 0.22 8.46, -0.19 12.37 M-0.19 12.37 C1.07 16.11, 1.9 19.77, 2.06 22.49 M-0.19 12.37 C0.65 15.71, 1.34 19.13, 2.06 22.49 M2.06 22.49 C2.43 24.1, 2.84 26.32, 3.37 28.92 M2.06 22.49 C2.47 24.42, 3.03 26.48, 3.37 28.92 M3.37 28.92 C7.09 28.03, 11.53 26.24, 17.18 25.61 M3.37 28.92 C7.2 28.28, 11.32 27.27, 17.18 25.61 M17.18 25.61 C16.69 24.77, 15.9 23.83, 13.31 20.55 M17.18 25.61 C15.86 24.03, 14.68 22.32, 13.31 20.55 M13.31 20.55 C12.84 18.38, 12.36 16.74, 11.81 13.24 M13.31 20.55 C12.92 18.83, 12.76 17.32, 11.81 13.24 M11.81 13.24 C12.29 10.99, 12.57 8.7, 12.74 7 M11.81 13.24 C11.96 11.44, 12.45 9.71, 12.74 7 M12.74 7 C13.3 5.44, 14.26 3.22, 14.99 1.94 M12.74 7 C13.46 5.38, 14.23 3.82, 14.99 1.94 M14.99 1.94 C12.53 2.18, 10.36 2.22, 7.37 2 M14.99 1.94 C12.63 1.91, 10.13 1.86, 7.37 2 M7.37 2 C4.1 1.22, 1.39 0.53, 0 0 M7.37 2 C4.64 1.47, 2.06 0.65, 0 0 M0 0 C0 0, 0 0, 0 0 M0 0 C0 0, 0 0, 0 0" stroke="#fa5252" stroke-width="4" fill="none"></path></g></g><mask></mask><g stroke-linecap="round" transform="translate(102.95825626248302 90.11290510127105) rotate(353.85543016656334 4.46677493315633 11.120082486422916)"><path d="M5.13 0.03 C6.04 0.31, 7.51 2.32, 8.13 4.18 C8.76 6.05, 8.85 8.81, 8.87 11.22 C8.88 13.64, 8.85 16.9, 8.22 18.67 C7.59 20.44, 6.13 21.48, 5.1 21.84 C4.06 22.19, 2.89 21.92, 2 20.8 C1.12 19.68, 0.15 17.43, -0.21 15.13 C-0.58 12.82, -0.54 9.21, -0.19 6.97 C0.15 4.73, 0.93 2.71, 1.84 1.67 C2.74 0.64, 4.52 0.81, 5.24 0.74 C5.96 0.67, 6.05 1.1, 6.14 1.24 M4.34 0.49 C5.12 0.48, 6.1 1.31, 6.94 2.85 C7.79 4.4, 9.11 7.42, 9.39 9.75 C9.66 12.07, 9.19 14.91, 8.6 16.8 C8.01 18.69, 6.71 20.39, 5.83 21.08 C4.95 21.78, 4.31 21.8, 3.34 20.97 C2.38 20.15, 0.65 18.19, 0.03 16.12 C-0.6 14.05, -0.69 10.9, -0.41 8.55 C-0.12 6.21, 0.85 3.44, 1.75 2.05 C2.65 0.66, 4.48 0.6, 5 0.2 C5.51 -0.2, 4.98 -0.47, 4.83 -0.35" stroke="none" stroke-width="0" fill="#1e1e1e"></path><path d="M4.41 0.01 C5.35 -0.16, 7.06 1.42, 7.75 3.01 C8.43 4.59, 8.38 7.18, 8.51 9.51 C8.64 11.84, 8.87 15.01, 8.52 17 C8.17 18.98, 7.27 20.71, 6.4 21.42 C5.53 22.13, 4.25 22.08, 3.31 21.28 C2.37 20.48, 1.35 18.59, 0.75 16.63 C0.16 14.67, -0.4 11.81, -0.26 9.51 C-0.12 7.2, 0.75 4.38, 1.6 2.8 C2.46 1.21, 4.38 0.4, 4.87 0.01 C5.36 -0.38, 4.57 0.36, 4.52 0.47 M4.88 0.27 C5.78 0.02, 6.47 0.68, 7.22 2.09 C7.98 3.5, 9.22 6.28, 9.42 8.74 C9.62 11.19, 9.04 14.78, 8.45 16.81 C7.85 18.84, 6.76 20.21, 5.86 20.91 C4.97 21.61, 4.06 21.73, 3.08 21 C2.09 20.26, 0.46 18.49, -0.05 16.48 C-0.56 14.48, -0.26 11.19, 0.02 8.96 C0.3 6.73, 0.77 4.55, 1.63 3.11 C2.49 1.67, 4.83 0.86, 5.18 0.32 C5.53 -0.23, 3.93 -0.42, 3.72 -0.18" stroke="#ffffff" stroke-width="4" fill="none"></path></g><g stroke-linecap="round"><g transform="translate(144.70360258594428 61.484370625507154) rotate(0 77.72023344746162 -6.770547868791255)" fill-rule="evenodd"><path d="M0.47 -0.93 L1.22 39.07 L154.44 11.44 L156.02 -51.47 L-1.63 -0.71" stroke="none" stroke-width="0" fill="#fa5252" fill-rule="evenodd"></path><path d="M0 0 C2.59 11.83, -0.07 20, 1.83 37.94 M0 0 C-0.46 8.36, 1.11 18.29, 1.83 37.94 M1.83 37.94 C38.91 31.89, 79.29 24.2, 153.75 12.69 M1.83 37.94 C44.96 31.32, 89.19 24.08, 153.75 12.69 M153.75 12.69 C155.78 -10.02, 154.3 -33.43, 155.44 -51.48 M153.75 12.69 C155.01 -8.9, 154.03 -29.71, 155.44 -51.48 M155.44 -51.48 C107.99 -37.41, 58.58 -20.4, 0 0 M155.44 -51.48 C116.03 -39.84, 77.51 -26.85, 0 0 M0 0 C0 0, 0 0, 0 0 M0 0 C0 0, 0 0, 0 0" stroke="transparent" stroke-width="4" fill="none"></path></g></g><mask></mask><g stroke-linecap="round"><g transform="translate(159.6552331650853 65.29280307530144) rotate(0 5.994747894727425 10.437926834429732)"><path d="M0 0 C-0.46 4.27, -0.46 8.7, 0.14 20.88 M0 0 C0.04 5.93, -0.24 12.03, 0.14 20.88 M0.14 20.88 C3.18 19.92, 6.11 20.12, 11.99 18.9 M0.14 20.88 C4.14 20.45, 7.89 19.49, 11.99 18.9" stroke="#ffffff" stroke-width="4" fill="none"></path></g></g><mask></mask><g stroke-linecap="round"><g transform="translate(178.13318147743325 83.62970177763145) rotate(0 10.155819866118009 -13.329513574279986)"><path d="M0 0 C2.7 -10, 6.35 -21.2, 8.32 -25.95 M0 0 C1.7 -5.66, 3.64 -12.53, 8.32 -25.95 M8.32 -25.95 C9.5 -26.05, 10.78 -26.37, 12.55 -26.66 M8.32 -25.95 C10.03 -26.27, 11.65 -26.45, 12.55 -26.66 M12.55 -26.66 C15.43 -18.97, 17.77 -10.84, 20.31 -3.81 M12.55 -26.66 C14.91 -19.63, 16.78 -12.45, 20.31 -3.81" stroke="#ffffff" stroke-width="4" fill="none"></path></g></g><mask></mask><g stroke-linecap="round"><g transform="translate(181.3773844940531 76.01283687804289) rotate(0 6.629502132911057 -1.6221092565854178)"><path d="M0 0 C3.82 -1.62, 7.47 -1.81, 13.26 -3.24 M0 0 C4.16 -1.37, 8.57 -2.16, 13.26 -3.24" stroke="#ffffff" stroke-width="4" fill="none"></path></g></g><mask></mask><g stroke-linecap="round"><g transform="translate(210.998546432299 76.71810042468428) rotate(0 -0.2821147165873299 -12.412667864335845)"><path d="M0 0 C-0.81 -7.58, -0.08 -15.98, -0.56 -24.83 M0 0 C-0.23 -9.52, -0.76 -19.13, -0.56 -24.83" stroke="#ffffff" stroke-width="4" fill="none"></path></g></g><mask></mask><g stroke-linecap="round"><g transform="translate(200.98377617619894 54.43171966254204) rotate(0 8.886342382853286 -2.538954966529559)"><path d="M0 0 C3.89 -1.47, 8.09 -2.52, 17.77 -5.08 M0 0 C3.63 -1.2, 8.14 -2.19, 17.77 -5.08" stroke="#ffffff" stroke-width="4" fill="none"></path></g></g><mask></mask><g stroke-linecap="round"><g transform="translate(239.63229911421354 43.57062850150692) rotate(0 -5.924223089718453 14.66951973669154)"><path d="M0 0 C-3.46 0.9, -8.51 2.31, -12.55 3.81 M0 0 C-3.67 1.2, -7.63 2.58, -12.55 3.81 M-12.55 3.81 C-12.49 13.81, -11.4 23.19, -11.99 29.34 M-12.55 3.81 C-12.29 10.48, -11.83 17.02, -11.99 29.34 M-11.99 29.34 C-9.16 28.08, -6.16 28.06, 0.71 26.66 M-11.99 29.34 C-9.29 28.64, -6.33 27.95, 0.71 26.66" stroke="#ffffff" stroke-width="4" fill="none"></path></g></g><mask></mask><g stroke-linecap="round"><g transform="translate(227.6428033247587 58.94541565897771) rotate(0 5.360009153095007 -0.9873705149531133)"><path d="M0 0 C2.31 -0.56, 5.48 -1.4, 10.72 -1.97 M0 0 C3.02 -0.34, 6.32 -0.91, 10.72 -1.97" stroke="#ffffff" stroke-width="4" fill="none"></path></g></g><mask></mask><g stroke-linecap="round"><g transform="translate(260.5081682796242 39.762196051712635) rotate(0 -7.193716069534389 14.105305800068209)"><path d="M-0.08 0.01 C-0.93 -0.12, -3.71 -1.44, -5.35 -1.21 C-7 -0.98, -8.6 -0.3, -9.93 1.37 C-11.26 3.04, -13.9 6.84, -13.33 8.8 C-12.76 10.77, -8.57 11.47, -6.5 13.16 C-4.44 14.84, -1.77 16.69, -0.92 18.9 C-0.08 21.11, -0.07 24.74, -1.45 26.44 C-2.82 28.14, -7.02 28.8, -9.15 29.11 C-11.29 29.41, -13.41 28.44, -14.27 28.28 M-0.78 -0.46 C-1.44 -0.47, -2.77 -0.96, -4.34 -0.55 C-5.9 -0.14, -8.67 0.62, -10.16 2.03 C-11.65 3.43, -13.79 6.24, -13.26 7.89 C-12.72 9.53, -8.88 10.16, -6.96 11.91 C-5.05 13.65, -2.76 16.01, -1.77 18.35 C-0.78 20.7, 0.27 24.26, -1.03 26 C-2.32 27.75, -7.22 28.54, -9.54 28.83 C-11.86 29.12, -14.24 27.89, -14.96 27.76" stroke="#ffffff" stroke-width="4" fill="none"></path></g></g><mask></mask><g stroke-linecap="round"><g transform="translate(276.285918580362 64.11286076337024) rotate(0 -0.8701730737816433 -14.879997483120064)"><path d="M-0.42 -0.08 C-0.66 -5.02, -1.28 -24.79, -1.51 -29.66 M0.37 -0.6 C0.08 -5.72, -1.4 -25.65, -1.83 -30.57" stroke="#ffffff" stroke-width="4" fill="none"></path></g></g><mask></mask><g stroke-linecap="round"><g transform="translate(265.14768029188394 36.67333370056781) rotate(0 9.368887009124023 -2.987601868008028)"><path d="M0 0 C4.39 -1.51, 9.26 -1.99, 18.74 -5.98 M0 0 C7.4 -1.96, 14.51 -4.77, 18.74 -5.98" stroke="#ffffff" stroke-width="4" fill="none"></path></g></g><mask></mask><g stroke-linecap="round"><g transform="translate(158.19388908359088 128.96332173323162) rotate(0 12.388939577641622 -13.259506710807273)"><path d="M0 0 C2.09 -7.48, 3.28 -15.82, 3.62 -24.11 M0 0 C1.08 -6.83, 2.04 -13.05, 3.62 -24.11 M3.62 -24.11 C4.79 -24.26, 6.1 -24.11, 7.23 -24.11 M3.62 -24.11 C4.68 -24.17, 5.8 -24.16, 7.23 -24.11 M7.23 -24.11 C9.26 -19.42, 12.15 -12.51, 18.62 -1.21 M7.23 -24.11 C10.39 -16.55, 14.56 -9.8, 18.62 -1.21 M18.62 -1.21 C19.68 -1.12, 21.02 -1.18, 21.56 -1.21 M18.62 -1.21 C19.39 -1.26, 20.13 -1.21, 21.56 -1.21 M21.56 -1.21 C22.56 -6.37, 22.25 -12.86, 24.78 -26.52 M21.56 -1.21 C22.34 -6.51, 22.8 -11.6, 24.78 -26.52" stroke="#1e1e1e" stroke-width="4" fill="none"></path></g></g><mask></mask><g stroke-linecap="round"><g transform="translate(211.7676699211163 98.82807920866958) rotate(0 -8.772710474694236 14.732786051701169)"><path d="M0 0 C-3.45 1.35, -8.32 2.07, -14.2 2.95 M0 0 C-5.07 1.18, -10.23 2.17, -14.2 2.95 M-14.2 2.95 C-14.48 13.12, -16.78 22.17, -17.55 29.47 M-14.2 2.95 C-15.01 11.02, -16.66 19.47, -17.55 29.47 M-17.55 29.47 C-14.27 30.09, -10.41 29.41, -3.08 28.93 M-17.55 29.47 C-12.77 29.05, -7.74 28.71, -3.08 28.93" stroke="#1e1e1e" stroke-width="4" fill="none"></path></g></g><mask></mask><g stroke-linecap="round"><g transform="translate(208.68716538351782 112.08758591947685) rotate(0 -6.227945216918215 0.60270485049125)"><path d="M0 0 C-4.81 0.77, -8.92 1.12, -12.46 1.21 M0 0 C-3.15 0.39, -6.17 0.68, -12.46 1.21" stroke="#1e1e1e" stroke-width="4" fill="none"></path></g></g><mask></mask><g stroke-linecap="round"><g transform="translate(219.13405926834844 96.41725980670458) rotate(0 17.7463176613943 13.259506710807273)"><path d="M0 0 C1.9 11.65, 2.16 22.95, 3.62 31.34 M0 0 C1.66 10.64, 2.1 21.68, 3.62 31.34 M3.62 31.34 C4.92 31.14, 6.02 31.06, 7.77 30.67 M3.62 31.34 C4.58 31.12, 5.61 30.98, 7.77 30.67 M7.77 30.67 C12.28 17.19, 16.81 5.81, 18.48 -0.67 M7.77 30.67 C10.41 22.75, 13.18 15.72, 18.48 -0.67 M18.48 -0.67 C20.01 9.64, 19.86 19.54, 21.7 30.14 M18.48 -0.67 C19.37 8.73, 20.47 17.49, 21.7 30.14 M21.7 30.14 C22.71 30.16, 23.67 30.07, 25.72 30.14 M21.7 30.14 C23.17 30.19, 24.85 30.07, 25.72 30.14 M25.72 30.14 C28.9 16.92, 33.09 5.26, 35.49 -4.82 M25.72 30.14 C27.65 22.85, 30.43 15.36, 35.49 -4.82" stroke="#1e1e1e" stroke-width="4" fill="none"></path></g></g><mask></mask><g stroke-linecap="round"><g transform="translate(278.08209336333607 90.31097864093954) rotate(0 -8.198229058511174 16.78399484194449)"><path d="M0.34 -0.51 C-0.53 -0.74, -2.96 -1, -4.67 -0.67 C-6.38 -0.34, -8.66 -0.04, -9.93 1.47 C-11.2 2.99, -11.99 6.09, -12.28 8.44 C-12.57 10.8, -13.31 13.37, -11.68 15.62 C-10.06 17.87, -3.9 19.47, -2.52 21.94 C-1.15 24.41, -2.18 28.44, -3.42 30.43 C-4.66 32.41, -7.9 33.56, -9.96 33.86 C-12.02 34.17, -14.58 32.49, -15.79 32.26 M-0.94 -1.82 C-1.99 -2.49, -3.87 -3.34, -5.48 -2.56 C-7.09 -1.77, -9.57 0.87, -10.58 2.9 C-11.58 4.93, -11.62 7.93, -11.52 9.61 C-11.42 11.29, -11.7 11.09, -9.96 12.97 C-8.22 14.84, -2.16 18.17, -1.07 20.88 C0.02 23.58, -1.74 27.14, -3.4 29.17 C-5.07 31.21, -8.76 32.25, -11.05 33.08 C-13.34 33.92, -16.17 34.42, -17.14 34.21" stroke="#1e1e1e" stroke-width="4" fill="none"></path></g></g><mask></mask></svg>