<?xml version="1.0" encoding="UTF-8"?>
<svg id="Layer_1" data-name="Layer 1" xmlns="http://www.w3.org/2000/svg" viewBox="0 0 381.57 200">
  <path d="M220.95,99.48c0,3.72-.21,18.29-.21,18.29-1.07,5.46-6.95,6.63-9.63,2.25-.39-.57-1.16-.71-1.72-.33,0,0,0,0,0,0-11.16,6.55-25.51,2.81-32.06-8.35-6.55-11.16-2.81-25.51,8.35-32.06,11.16-6.55,25.51-2.81,32.06,8.35,2.11,3.59,3.22,7.68,3.22,11.84ZM210.25,99.58c0,7.09-5.75,12.84-12.84,12.84s-12.84-5.75-12.84-12.84,5.75-12.84,12.84-12.84,12.84,5.75,12.84,12.84Z" style="fill: #fff; fill-rule: evenodd; stroke-width: 0px;"/>
  <path d="M224.69,117.66c0,7.06,10.27,6.31,10.27,0,0,0-.21-16.37.21-20.11,1.28-6.42,4.92-10.38,12.84-11.02,6.14-.49,7.59-9.2,0-10.16-12.62-.32-22.25,9.41-23.32,21.18-.21,6.63,0,20.11,0,20.11Z" style="fill: #fff; stroke-width: 0px;"/>
  <path d="M298.39,99.48v19.08c.13,4.19.36,14.18-8.34,21.03-16.47,13.8-34.87.21-36.58-8.34-1.39-6.2,6.27-8.77,9.2-4.17,3.74,5.88,8.84,8.51,14.55,7.68,5.56-.81,10.48-5.31,10.48-14.74,0-.53-.47-.75-1.05-.43-11.11,6.52-25.39,2.8-31.91-8.3-6.52-11.11-2.8-25.39,8.3-31.91,3.58-2.1,7.67-3.21,11.82-3.21,12.88,0,23.53,10.44,23.53,23.32ZM274.86,112.2c7.09,0,12.84-5.75,12.84-12.84s-5.75-12.84-12.84-12.84-12.84,5.75-12.84,12.84,5.75,12.84,12.84,12.84ZM325.45,76.05c12.94,0,23.42,10.49,23.42,23.42s-10.49,23.42-23.42,23.42-23.42-10.49-23.42-23.42,10.49-23.42,23.42-23.42ZM338.18,99.58c0,7.09-5.75,12.84-12.84,12.84s-12.84-5.75-12.84-12.84,5.75-12.84,12.84-12.84,12.84,5.75,12.84,12.84Z" style="fill: #fff; fill-rule: evenodd; stroke-width: 0px;"/>
  <path d="M75.69,52.41c0,1.4-1.13,2.53-2.53,2.53s-2.53-1.13-2.53-2.53,1.13-2.52,2.52-2.52,2.52,1.13,2.52,2.52h.02ZM55.54,118.56c-.38.29-.92.22-1.22-.15-17.88-22.83-7.51-52.35,12.69-63.9.37-.31.92-.27,1.24.1.31.37.27.92-.1,1.24-.08.07-.18.12-.28.16-19.4,11.12-29.29,39.47-12.17,61.33.3.37.24.91-.13,1.2,0,0-.01.01-.02.02ZM70.99,101.17c1.98,0,3.59-1.61,3.59-3.59s-1.61-3.59-3.59-3.59-3.59,1.61-3.59,3.59,1.61,3.59,3.59,3.59ZM106.18,101.17c1.98,0,3.59-1.61,3.59-3.59s-1.61-3.59-3.59-3.59-3.59,1.61-3.59,3.59,1.61,3.59,3.59,3.59Z" style="fill: #fff; stroke-width: 0px;"/>
  <path d="M36.61,104.2c-.94.66-2.23.44-2.89-.5-.25-.36-.38-.78-.38-1.22v-20.45c.01-1.15.96-2.06,2.1-2.05.39,0,.78.12,1.11.34,6.55-29.08,35.43-47.34,64.51-40.79,20.31,4.57,36.18,20.42,40.78,40.73.98-.59,2.26-.27,2.85.71.2.33.3.71.3,1.09v20.43c0,1.15-.91,2.08-2.06,2.09-.41,0-.81-.11-1.15-.34-3.75,16.24-14.78,29.84-29.89,36.86l-.02.36c.95,1.52,2.22,2.81,3.72,3.79,2.3,1.18,4.81,1.89,7.38,2.1,0,0-3.4,1.71-7.55,1.33-2.61-.21-3.72.43-4.13,1.71l.28-4.21-.28,4.19c-.43,9.56-.94,15.19-1.11,17.16l-.06.81v.21c-.09.53-.17,1.37,1.93,2.22,1.18.49,3.14,1.05,4.83,1.52,1.71.49,3.12.9,3.12,1.05,0,.3-9.39,0-9.39,0-5.39,0-5.39-4.02-5.39-5.01s-1.45-17.8-1.45-17.8l-.49,21.71c0,.98.49,2.44,3.91,3.42,0,0,7.49,1.13,7.49,1.54,0,.43-8.96,0-8.96,0-6.8,0-6.8-3.98-6.8-3.98l-1.48-17.8s-.49,17.8-.49,20.24c0,1.93.34,3.38,5.69,4.36,1.03.3,2.48.6,3.85.9,2.08.43,3.94.86,3.94,1.07,0,.34-11.89,0-11.89,0-6.35-.49-6.95-4.92-6.95-4.92l-2.42-8.84-2.4,8.86s-.98,4.41-7.36,4.9c0,0-10.78.34-10.78,0,0-.21,1.56-.6,3.42-1.03,1.22-.3,2.57-.62,3.64-.94,3.72-1.09,5.69-2.44,5.69-4.36,0-2.44-.49-20.24-.49-20.24l-1.48,17.8s0,4.36-6.8,4.36c0,0-9.71.02-9.71-.39,0-.43,8.19-1.54,8.19-1.54,3.42-.98,3.91-2.44,3.91-3.42l-.47-21.71s-1.5,16.81-1.5,17.8,0,5.39-5.35,5.39c0,0-9.07-.45-9.07-.77,0-.15,1.13-.43,2.59-.77,1.67-.39,3.77-.88,5.05-1.41,2.08-.86,1.99-1.71,1.93-2.22v-.21l-1.2-17.78c-.41-1.24-1.5-1.93-4.11-1.71-2.6.2-5.2-.26-7.57-1.33,2.57-.2,5.08-.9,7.38-2.08,1.44-.91,2.58-2.23,3.27-3.79l-.02-.86c-14.83-7.11-25.61-20.58-29.31-36.6h0ZM112.06,138.17l.24-4.45c.39-7.23.73-13.52,1.03-20.84,7.41-3.81,10.32-12.91,6.5-20.31-1.32-2.56-3.33-4.68-5.82-6.13v-.28c0-13.65-10.44-25.5-25.14-25.5s-24.47,12.3-24.47,25.48v.04c-7.34,3.94-10.09,13.09-6.14,20.42,1.54,2.87,3.97,5.16,6.91,6.53l.68,24.75c-25.27-12.91-35.29-43.87-22.38-69.14,12.91-25.27,43.87-35.29,69.14-22.38,25.27,12.91,35.29,43.87,22.38,69.14-5.02,9.82-13.05,17.76-22.93,22.66h0ZM98.07,123.24c-.13,5.46-2.42,13.5-9.48,13.5s-9.07-9.09-9.07-13.99c0,0,3.21,4.54,9.07,4.54s9.48-4.54,9.48-4.54v.49ZM71.54,111.33c6.55,0,11.85-5.31,11.85-11.85s-5.31-11.85-11.85-11.85-11.85,5.31-11.85,11.85,5.31,11.85,11.85,11.85ZM106.41,111.33c6.55,0,11.85-5.31,11.85-11.85s-5.31-11.85-11.85-11.85-11.85,5.31-11.85,11.85,5.31,11.85,11.85,11.85h0Z" style="fill: #fff; fill-rule: evenodd; stroke-width: 0px;"/>
</svg>