<?xml version="1.0" encoding="UTF-8"?>
<svg id="Layer_1" data-name="Layer 1" xmlns="http://www.w3.org/2000/svg" viewBox="0 0 581.19 200">
  <path d="M211.4,129.27c-18.09,0-27.2-13.02-27.2-27.47s9.45-27.12,27.37-27.12c6.86,0,11.78,1.51,15.96,4.18l-5.17,8.47c-3.26-2.11-7.08-3.17-10.96-3.04-9.72,0-14.92,7.75-14.92,17.4s5,18.11,15.07,18.11c4.3.11,8.5-1.31,11.86-4.01l4.73,8.14c-2.67,2.4-9.01,5.52-16.78,5.52l.04-.17ZM249.83,96.8c-5.81,0-7.67,4.9-7.67,12.05s2.32,12.2,8.14,12.2,7.85-4.84,7.85-11.95-2.4-12.3-8.29-12.3h-.02ZM250.03,129.27c-13.56,0-19.45-10.17-19.45-20.15s5.89-20.61,19.45-20.61,19.7,10.07,19.7,20.07-6.06,20.53-19.7,20.53v.15ZM286.78,89.67v24.8c0,3.84,1.36,5.71,5,5.71,3.93,0,6.86-3.74,7.67-4.65v-25.86h10.89v27.12c-.05,3.8.3,7.6,1.07,11.33h-10.79c-.44-1.69-.7-3.43-.79-5.17-2.05,2.67-6.06,6.06-12.49,6.06-8.56,0-11.58-5.42-11.58-12.59v-26.85h11.04s0,.1,0,.1ZM337.14,129.27c-12.49,0-20.15-8.14-20.15-20.24,0-13.02,8.66-20.34,20.53-20.34,4.16-.14,8.28.91,11.86,3.04l-3.49,7.5c-2.39-1.52-5.19-2.29-8.02-2.23-6.06,0-9.3,4.73-9.3,11.78s3.02,12.13,9.55,12.13c4.46,0,7.05-1.61,8.21-2.32l3.29,7.3c-1.78,1.16-5.35,3.39-12.49,3.39ZM378.89,128.38v-24.87c0-3.84-1.36-5.71-5-5.71-3.93,0-6.97,3.87-7.75,4.65v25.86h-10.89v-57.09h10.89v23.01c1.94-1.94,5.71-5.52,12.05-5.52,8.56,0,11.58,5.42,11.58,12.59v27.02h-10.89v.06ZM409.57,119.91c1.66.57,3.42.84,5.17.77,5.81,0,9.1-4.11,9.1-12.05,0-7.13-2.4-11.62-7.75-11.62-2.41.05-4.69,1.08-6.33,2.85l-.19,20.05ZM409.57,71.48v21.41c2.52-2.51,5.9-3.94,9.45-4.01,9.63,0,16.41,6.59,16.41,19.95s-8.91,20.61-20.69,20.61c-8.83,0-14.18-2.23-16.14-3.1v-55.13h10.96v.27ZM461.21,111.37h-1.36c-5.97,0-10.17,1.78-10.17,6.16,0,2.77,2.23,3.93,4.65,3.93,3.87,0,5.81-1.94,6.86-3.22l.02-6.88ZM462.38,128.42c-.35-1.34-.56-2.72-.62-4.11-1.69,2.05-5.35,5.08-10.79,5.08-6.59,0-11.68-3.93-11.68-10.89,0-10.07,10.34-13.56,20.59-13.56h1.36v-1.94c0-3.22-1.36-5.17-6.16-5.17s-8.39,2.6-9.8,3.56l-4.73-6.59c2.32-1.94,7.5-5.81,15.79-5.81,10.69,0,15.79,4.11,15.79,14.45v13.56c-.05,3.89.3,7.77,1.07,11.58l-10.81-.17ZM491.72,129.31c-6.97,0-11.62-2.05-13.83-3.87l3.87-7.75c1.51,1.07,5.27,3.22,9.55,3.22,4.01,0,6.24-1.16,6.24-3.29,0-2.52-4.38-3.22-9.69-5.89-5.35-2.58-8.47-5.52-8.47-11.62,0-7.32,5.81-11.95,14.63-11.95,4.36-.09,8.67.95,12.49,3.04l-3.74,7.4c-1.51-.89-4.55-2.4-8.21-2.4s-5.27,1.24-5.27,3.29c0,2.52,3.56,3.1,8.02,4.9,6.06,2.52,10.46,5.35,10.46,11.78-.19,8.29-6.06,12.59-15.61,12.59l-.45.56ZM536.59,104.12c-.1-4.26-1.78-7.75-6.39-7.75-4.26,0-6.78,2.77-7.5,7.75h13.89ZM532.48,121.07c5.27,0,8.14-1.69,10.07-2.67l3.49,6.97c-2.6,1.43-6.51,3.74-14.53,3.74-13.02,0-20.42-8.14-20.42-20.53s8.47-20.07,19.26-20.07c12.2,0,18.11,8.47,16.78,22.92h-24.35c.45,5.81,3.49,9.63,9.72,9.63l-.02.02Z" style="fill: #fff; stroke-width: 0px;"/>
  <path d="M100.13,30.78c-38.39.01-69.51,31.13-69.52,69.52.01,38.39,31.13,69.51,69.52,69.52,38.41,0,69.54-31.14,69.54-69.54h0c-.01-38.39-31.13-69.51-69.52-69.52l-.02.02ZM147.07,112.49c0,4.2-2.42,7.88-7.17,8.72-8.19,1.47-25.42,2.32-39.81,2.32s-31.61-.83-39.81-2.32c-4.73-.83-7.17-4.51-7.17-8.72v-27.12c0-4.2,3.25-8.08,7.17-8.72,4.14-.56,8.32-.84,12.49-.83,1.69,0,3.04,1.26,3.04,3.25v18.98l24.37-.52,24.37.52v-18.98c0-2,1.36-3.25,3.04-3.25,4.18,0,8.35.28,12.49.83,4.15.84,7.14,4.48,7.15,8.72l-.19,27.12h.02Z" style="fill: #fff; stroke-width: 0px;"/>
</svg>