<?xml version="1.0" encoding="UTF-8"?>
<svg id="Layer_1" data-name="Layer 1" xmlns="http://www.w3.org/2000/svg" viewBox="0 0 343.87 200">
  <path d="M176.54,64.29c-4.28,0-8,1.43-10.57,4.28-2.57,2.86-4,7.14-4,12v4h-8.28v7.14h8.28v43.42h7.71v-43.42h10.28v-7.14h-10.28v-4c0-3.43.57-5.71,2-7.43s3.43-2.57,6-2.57,1.71,0,2.57.29l2,1.14,2-6c-1.14-.57-2.29-1.14-3.43-1.43-1.71,0-3.14-.29-4.28-.29ZM192.54,65.71h7.71v69.7h-7.71v-69.7ZM248.53,121.99c-1.71,2-3.71,4-6.28,5.43-2.57,1.71-5.71,2.29-8.57,2.29s-3.14,0-4.57-.57c-1.43-.29-2.57-1.14-3.71-2-1.14-1.14-2-2.29-2.29-3.71-.57-1.71-.57-3.71-.57-5.71v-33.14h-7.71v35.42c0,5.43,1.43,9.71,4,12,2.57,2.57,6.57,4,12,4s7.14-.57,10.28-2.29c3.14-1.43,5.43-3.43,7.71-5.71v7.14h7.71v-50.27h-7.71v37.13h-.29ZM294.23,109.13l18.28-24.57h-9.14l-14,19.14-14-19.14h-9.14l18.28,24.57-19.42,25.71h9.14l15.14-20.85,15.14,20.85h9.14s-19.42-25.71-19.42-25.71Z" style="fill: #fff; stroke-width: 0px;"/>
  <g>
    <g id="flux-icon">
      <g id="Group">
        <g>
          <path id="Fill-5" d="M95.96,112.59l-11.35-7.38v3.5c3.7,1.59,7.51,2.82,11.35,3.88" style="fill: #fff; fill-rule: evenodd; stroke-width: 0px;"/>
          <path id="Fill-7" d="M84.61,115v4.91c3.75,1.14,7.54,2.08,11.3,3.01,12.26,3.02,23.85,5.88,33.16,15.2.47.47.92.95,1.36,1.44.96-1.83.48-4.23-1.43-5.48l-18.43-11.98c-4.47-1.48-9.03-2.61-13.54-3.71-4.25-1.05-8.4-2.09-12.42-3.38" style="fill: #fff; fill-rule: evenodd; stroke-width: 0px;"/>
          <path id="Fill-9" d="M74.71,110.97c-1.59-.82-3.16-1.7-4.67-2.72l-4.21,2.74c2.84,2.09,5.82,3.78,8.88,5.21v-5.22Z" style="fill: #fff; fill-rule: evenodd; stroke-width: 0px;"/>
          <path id="Fill-11" d="M88.81,126.59c-1.41-.35-2.81-.69-4.2-1.05v4.82c1.03.26,2.05.51,3.08.77,12.26,3.02,23.85,5.88,33.16,15.19.02.02.03.03.05.05l3.98-2.59c-.24-.25-.47-.51-.72-.76-10.24-10.24-23.01-13.39-35.35-16.43" style="fill: #fff; fill-rule: evenodd; stroke-width: 0px;"/>
          <path id="Fill-13" d="M74.71,122.67c-5.33-1.83-10.38-4.17-14.99-7.72l-4.13,2.68c5.87,4.84,12.4,7.78,19.12,9.95v-4.92Z" style="fill: #fff; fill-rule: evenodd; stroke-width: 0px;"/>
          <path id="Fill-15" d="M74.71,133.33c-9.17-2.4-17.8-5.34-25.17-11.76l-4.06,2.64c8.66,7.98,18.95,11.31,29.23,13.95v-4.83Z" style="fill: #fff; fill-rule: evenodd; stroke-width: 0px;"/>
          <path id="Fill-17" d="M84.61,140.65c9.6,2.48,18.62,5.44,26.26,12.25l4.03-2.62c-8.93-8.4-19.65-11.75-30.3-14.45v4.83Z" style="fill: #fff; fill-rule: evenodd; stroke-width: 0px;"/>
          <path id="Fill-19" d="M39.49,128.11l-4,2.6c.14.14.27.29.41.44,10.24,10.24,23,13.39,35.35,16.43,10.69,2.63,20.87,5.15,29.47,11.92l4.1-2.67c-9.7-8.16-21.25-11.03-32.46-13.79-12.14-2.99-23.61-5.83-32.88-14.93" style="fill: #fff; fill-rule: evenodd; stroke-width: 0px;"/>
          <path id="Fill-21" d="M30.98,136.07c-.47-.47-.9-.94-1.34-1.42-1.83,1.83-1.61,4.98.68,6.47l13.85,9.01c6.13,2.54,12.54,4.13,18.85,5.68,9.84,2.43,19.25,4.75,27.4,10.39l4.19-2.73c-9.26-6.96-20.01-9.63-30.47-12.21-12.26-3.02-23.85-5.88-33.16-15.19" style="fill: #fff; fill-rule: evenodd; stroke-width: 0px;"/>
          <path id="Fill-23" d="M76.07,170.85c.92.45,1.83.92,2.73,1.43,1.07.23,2.2.04,3.15-.58l2.33-1.51c-7.47-5-15.77-7.53-24.05-9.64l15.84,10.3Z" style="fill: #fff; fill-rule: evenodd; stroke-width: 0px;"/>
        </g>
      </g>
    </g>
    <path d="M129,59.28l-47.05-30.59c-1.39-.9-3.19-.9-4.58,0l-47.05,30.59c-2.55,1.66-2.55,5.39,0,7.04l44.39,28.86v-20.98c0-1.37-1.11-2.48-2.48-2.48h-3.27c-1.91,0-3.1-2.06-2.14-3.71l10.69-18.52c.95-1.65,3.34-1.65,4.29,0l10.69,18.52c.95,1.65-.24,3.71-2.14,3.71h-3.26c-1.37,0-2.48,1.11-2.48,2.48v20.98l44.39-28.86c2.55-1.66,2.55-5.39,0-7.04Z" style="fill: #fff; fill-rule: evenodd; stroke-width: 0px;"/>
  </g>
</svg>