<?xml version="1.0" encoding="UTF-8"?>
<svg id="Layer_1" data-name="Layer 1" xmlns="http://www.w3.org/2000/svg" version="1.1" viewBox="0 0 440.3 200">
  <defs>
    <style>
      .cls-1 {
        fill: #fff;
        stroke-width: 0px;
      }
    </style>
  </defs>
  <g id="nats">
    <path class="cls-1" d="M31.8,135.9h37.7l21.6,20v-20h28.8v-71.4H31.8v71.4ZM46,81.1h16.5l31.8,29.7v-29.7h10.5v38.3h-16l-32.3-30.2v30.2h-10.5s0-38.3,0-38.3Z"/>
    <path class="cls-1" d="M170.6,87.7l-11.4,16.3h22.9s-11.4-16.3-11.4-16.3ZM127.3,135.9h88.1v-71.5h-88.1v71.5ZM163.9,80.9h14l27.5,38.6h-12.6l-5.2-7.4h-34.1l-5.2,7.4h-12.1l27.5-38.6h0,0Z"/>
    <path class="cls-1" d="M222.8,135.9h88.1v-71.4h-88.1v71.4ZM236.7,81.1h59.6v8.7h-24.3v29.7h-10.9v-29.7h-24.4v-8.7h0,0Z"/>
    <path class="cls-1" d="M318.4,64.4v71.4h88.1v-71.4h-88.1ZM386.7,115.1c-2.9,2.9-9.1,5.1-23.9,5.1s-21.5-1.7-27.4-4.2v-8.9c5.6,2.5,18,4.9,27.4,4.9s14.1-.3,15.6-1.9c.5-.5.7-1.1.6-1.8,0-.6-.2-1.2-.6-1.6-.9-.9-2.3-1.5-15.5-1.9-14-.3-20.9-1.8-24.1-5-1.6-1.8-2.5-4.2-2.3-6.7,0-2.9.5-5.5,2.9-7.9,3.2-3.2,9.5-4.7,22.4-4.7s19.3,1.5,24.4,3.6v9c-5.8-2.5-15.9-4.3-24.3-4.3s-13.2.5-14.5,1.8c-.9,1-1,2.5,0,3.5,1.2,1.2,5.5,1.5,15.5,1.7,14.6.3,21,1.6,24.1,4.7,1.7,1.9,2.6,4.3,2.5,6.9.3,2.9-.7,5.7-2.7,7.9h0s0,0,0,0Z"/>
  </g>
</svg>