<?xml version="1.0" encoding="UTF-8"?>
<svg id="Layer_1" data-name="Layer 1" xmlns="http://www.w3.org/2000/svg" viewBox="0 0 512.3 200">
  <g id="opentelemetry">
    <path d="M116.73,107.36c-6.72,6.72-6.72,17.63,0,24.35,6.72,6.72,17.63,6.72,24.35,0,6.72-6.72,6.72-17.63,0-24.35-6.72-6.72-17.63-6.72-24.35,0h0ZM134.96,125.58c-3.31,3.31-8.74,3.31-12.06,0s-3.31-8.74,0-12.06,8.74-3.31,12.06,0c3.31,3.31,3.31,8.74,0,12.06ZM151.25,110.86h7.23v3.64c1.75-2.39,4.19-4.14,7.92-4.14,5.94,0,11.6,4.65,11.6,13.16v.09c0,8.51-5.57,13.16-11.6,13.16-3.87,0-6.21-1.75-7.92-3.82v10.91h-7.23v-33h0ZM170.77,123.65v-.09c0-4.23-2.85-7.04-6.21-7.04s-6.17,2.81-6.17,7.04v.09c0,4.23,2.81,7.04,6.17,7.04,3.36-.05,6.21-2.76,6.21-7.04ZM183.1,123.7v-.09c0-7.23,5.15-13.21,12.52-13.21,8.47,0,12.33,6.58,12.33,13.76,0,.55-.05,1.24-.09,1.89h-17.63c.69,3.27,2.99,4.97,6.21,4.97,2.39,0,4.14-.74,6.17-2.58l4.1,3.64c-2.35,2.95-5.75,4.74-10.36,4.74-7.64-.05-13.26-5.39-13.26-13.12ZM200.96,121.53c-.41-3.22-2.3-5.39-5.34-5.39s-4.92,2.12-5.48,5.39h10.82ZM213.11,110.86h7.36v3.68c1.7-2.16,3.87-4.14,7.59-4.14,5.57,0,8.79,3.68,8.79,9.62v16.75h-7.36v-14.45c0-3.5-1.66-5.25-4.46-5.25s-4.6,1.8-4.6,5.25v14.45h-7.36v-25.91h.05ZM140.8,22.72l-10.54,10.54c-2.07,2.07-2.07,5.43,0,7.5l41.19,41.19c2.07,2.07,5.43,2.07,7.5,0l10.54-10.54c2.07-2.07,2.07-5.43,0-7.5l-41.19-41.19c-2.07-2.07-5.43-2.07-7.5,0ZM66.93,157.43c1.89-1.89,1.89-4.92,0-6.81l-5.39-5.39c-1.89-1.89-4.92-1.89-6.81,0l-11.05,11.05-3.04-3.04c-1.66-1.66-4.42-1.66-6.08,0s-1.66,4.42,0,6.08l18.27,18.27c1.66,1.66,4.42,1.66,6.08,0s1.66-4.42,0-6.08l-3.04-3.04s11.05-11.05,11.05-11.05Z" style="fill: #fff; stroke-width: 0px;"/>
    <path d="M122.71,52.96l-23.43,23.43c-2.07,2.07-2.07,5.52,0,7.59l14.45,14.45c10.22-7.36,24.58-6.44,33.78,2.76l11.69-11.69c2.07-2.07,2.07-5.52,0-7.59l-28.9-28.9c-2.12-2.12-5.52-2.12-7.59-.05h0ZM107.66,104.55l-8.56-8.56c-1.98-1.98-5.29-1.98-7.27,0l-30.15,30.15c-1.98,1.98-1.98,5.29,0,7.27l17.08,17.08c1.98,1.98,5.29,1.98,7.27,0l19.38-19.38c-4.05-8.51-3.31-18.73,2.26-26.56h0ZM250.48,109.29h-10.49v-7h28.58v7h-10.49v27.48h-7.59v-27.48ZM268.62,123.65v-.09c0-7.23,5.15-13.21,12.52-13.21,8.47,0,12.33,6.58,12.33,13.76,0,.55-.05,1.24-.09,1.89h-17.63c.69,3.27,2.99,4.97,6.21,4.97,2.39,0,4.14-.74,6.17-2.58l4.1,3.64c-2.35,2.95-5.75,4.74-10.36,4.74-7.64,0-13.26-5.34-13.26-13.12h0ZM286.47,121.53c-.41-3.22-2.3-5.39-5.34-5.39s-4.92,2.12-5.48,5.39h10.82ZM298.58,102.3h7.18v34.47h-7.18v-34.47ZM310.87,123.7v-.09c0-7.23,5.15-13.21,12.52-13.21,8.47,0,12.33,6.58,12.33,13.76,0,.55-.05,1.24-.09,1.89h-17.63c.69,3.27,2.99,4.97,6.21,4.97,2.39,0,4.14-.74,6.17-2.58l4.1,3.64c-2.35,2.95-5.75,4.74-10.36,4.74-7.59-.05-13.26-5.39-13.26-13.12h0ZM328.77,121.58c-.41-3.22-2.3-5.39-5.34-5.39s-4.92,2.12-5.48,5.39h10.82ZM340.88,110.86h7.36v3.68c1.7-2.16,3.91-4.14,7.64-4.14,3.36,0,5.94,1.52,7.27,4.1,2.26-2.67,4.97-4.1,8.51-4.1,5.48,0,8.74,3.27,8.74,9.53v16.85h-7.36v-14.45c0-3.5-1.56-5.25-4.28-5.25s-4.46,1.8-4.46,5.25v14.45h-7.36v-14.45c0-3.5-1.56-5.25-4.28-5.25s-4.46,1.8-4.46,5.25v14.45h-7.36v-25.91h.05ZM385.52,123.65v-.09c0-7.23,5.15-13.21,12.52-13.21,8.47,0,12.33,6.58,12.33,13.76,0,.55-.05,1.24-.09,1.89h-17.63c.69,3.27,2.99,4.97,6.21,4.97,2.39,0,4.14-.74,6.17-2.58l4.1,3.64c-2.35,2.95-5.75,4.74-10.36,4.74-7.64,0-13.26-5.34-13.26-13.12h0ZM403.38,121.53c-.41-3.22-2.3-5.39-5.34-5.39s-4.92,2.12-5.48,5.39h10.82ZM416.31,128.94v-12.38h-3.13v-6.35h3.13v-6.67h7.41v6.67h6.17v6.35h-6.12v11.14c0,1.7.74,2.53,2.39,2.53,1.38,0,2.58-.32,3.64-.92v5.94c-1.56.92-3.36,1.52-5.85,1.52-4.56,0-7.64-1.8-7.64-7.82h0ZM435.46,110.67h7.46v5.29c1.52-3.64,3.96-5.98,8.38-5.8v7.82h-.41c-4.97,0-8.01,2.99-8.01,9.3v9.71h-7.46v-26.33h.05ZM475,110.4h7.92l-10.31,27.52c-2.07,5.48-4.28,7.5-8.84,7.5-2.76,0-4.79-.69-6.77-1.84l2.53-5.52c1.01.6,2.26,1.06,3.27,1.06,1.29,0,2.03-.41,2.67-1.75l-10.54-26.97h8.05l6.12,18.27,5.89-18.27h0Z" style="fill: #fff; stroke-width: 0px;"/>
  </g>
</svg>