<?xml version="1.0" encoding="UTF-8"?>
<svg id="Layer_1" data-name="Layer 1" xmlns="http://www.w3.org/2000/svg" viewBox="0 0 441.5 294.33">
  <defs>
    <style>
      .cls-1 {
        letter-spacing: -.01em;
      }

      .cls-2, .cls-3, .cls-4, .cls-5 {
        stroke: #002e5d;
        stroke-linecap: round;
        stroke-linejoin: round;
      }

      .cls-2, .cls-6 {
        fill: #002e5d;
      }

      .cls-3 {
        fill: #ffb600;
      }

      .cls-7 {
        font-family: CaveatRoman-Bold, Caveat;
        font-size: 20px;
        font-variation-settings: 'wght' 700;
        font-weight: 700;
      }

      .cls-7, .cls-8, .cls-5 {
        fill: #00c389;
      }

      .cls-8 {
        stroke-width: 0px;
      }

      .cls-4 {
        fill: #768692;
      }

      .cls-6 {
        font-family: CascadiaMonoPL-Regular, 'Cascadia Mono PL';
        font-size: 11px;
        letter-spacing: -.02em;
      }
    </style>
  </defs>
  <text class="cls-7" transform="translate(294.36 139.56) rotate(-1.65) scale(1.01 1)"><tspan x="0" y="0">get capabilities </tspan><tspan x="0" y="18">for free!</tspan></text>
  <text class="cls-7" transform="translate(215.84 258.57) rotate(-5.78) scale(1.01 1)"><tspan x="0" y="0">make this</tspan><tspan x="0" y="18">reusable</tspan></text>
  <g>
    <g>
      <polygon class="cls-4" points="148.48 236.83 286.51 216.82 286.51 186.45 148.48 206.46 148.48 236.83"/>
      <polygon class="cls-4" points="286.51 186.45 148.48 206.46 129.43 190.36 267.45 170.35 286.51 186.45"/>
      <polygon class="cls-2" points="129.43 190.36 129.43 220.73 148.48 236.83 148.48 206.46 129.43 190.36"/>
      <g>
        <g>
          <path class="cls-2" d="M142.79,184.57c-2.92.42-4.68,1.41-4.69,2.45v5.69c0,.34.18.68.58,1.02,1.21,1.02,4.03,1.64,7.01,1.64v-11.01c-.97,0-1.95.06-2.9.2Z"/>
          <path class="cls-4" d="M153.28,187.03c0-.34-.18-.68-.58-1.02-1.21-1.02-4.03-1.64-7.01-1.64v11.01c.97,0,1.95-.06,2.9-.2,2.92-.42,4.68-1.41,4.69-2.45v-5.69Z"/>
        </g>
        <path class="cls-4" d="M152.7,186.01c1.6,1.36-.23,2.91-4.11,3.47s-8.31-.08-9.92-1.44.23-2.91,4.11-3.47,8.31.08,9.92,1.44Z"/>
      </g>
      <g>
        <g>
          <path class="cls-2" d="M152.32,192.62c-2.92.42-4.68,1.41-4.69,2.45v5.69c0,.34.18.68.58,1.02,1.21,1.02,4.03,1.64,7.01,1.64v-11.01c-.97,0-1.95.06-2.9.2Z"/>
          <path class="cls-4" d="M162.81,195.08c0-.34-.18-.68-.58-1.02-1.21-1.02-4.03-1.64-7.01-1.64v11.01c.97,0,1.95-.06,2.9-.2,2.92-.42,4.68-1.41,4.69-2.45v-5.69Z"/>
        </g>
        <path class="cls-4" d="M162.23,194.06c1.6,1.36-.23,2.91-4.11,3.47s-8.31-.08-9.92-1.44.23-2.91,4.11-3.47,8.31.08,9.92,1.44Z"/>
      </g>
    </g>
    <g>
      <g>
        <g>
          <path class="cls-2" d="M257.81,167.9c-2.92.42-4.68,1.41-4.69,2.45v5.69c0,.34.18.68.58,1.02,1.21,1.02,4.03,1.64,7.01,1.64v-11.01c-.97,0-1.95.06-2.9.2Z"/>
          <path class="cls-4" d="M268.31,170.35c0-.34-.18-.68-.58-1.02-1.21-1.02-4.03-1.64-7.01-1.64v11.01c.97,0,1.95-.06,2.9-.2,2.92-.42,4.68-1.41,4.69-2.45v-5.69Z"/>
        </g>
        <path class="cls-4" d="M267.73,169.33c1.6,1.36-.23,2.91-4.11,3.47-3.87.56-8.31-.08-9.92-1.44s.23-2.91,4.11-3.47c3.87-.56,8.31.08,9.92,1.44Z"/>
      </g>
      <g>
        <g>
          <path class="cls-2" d="M267.34,175.95c-2.92.42-4.68,1.41-4.69,2.45v5.69c0,.34.18.68.58,1.02,1.21,1.02,4.03,1.64,7.01,1.64v-11.01c-.97,0-1.95.06-2.9.2Z"/>
          <path class="cls-4" d="M277.84,178.4c0-.34-.18-.68-.58-1.02-1.21-1.02-4.03-1.64-7.01-1.64v11.01c.97,0,1.95-.06,2.9-.2,2.92-.42,4.68-1.41,4.69-2.45v-5.69Z"/>
        </g>
        <path class="cls-4" d="M277.26,177.39c1.6,1.36-.23,2.91-4.11,3.47-3.87.56-8.31-.08-9.92-1.44s.23-2.91,4.11-3.47c3.87-.56,8.31.08,9.92,1.44Z"/>
      </g>
    </g>
    <g>
      <g>
        <g>
          <path class="cls-2" d="M234.81,171.23c-2.92.42-4.68,1.41-4.69,2.45v5.69c0,.34.18.68.58,1.02,1.21,1.02,4.03,1.64,7.01,1.64v-11.01c-.97,0-1.95.06-2.9.2Z"/>
          <path class="cls-4" d="M245.3,173.69c0-.34-.18-.68-.58-1.02-1.21-1.02-4.03-1.64-7.01-1.64v11.01c.97,0,1.95-.06,2.9-.2,2.92-.42,4.68-1.41,4.69-2.45v-5.69Z"/>
        </g>
        <path class="cls-4" d="M244.72,172.67c1.6,1.36-.23,2.91-4.11,3.47s-8.31-.08-9.92-1.44c-1.6-1.36.23-2.91,4.11-3.47s8.31.08,9.92,1.44Z"/>
      </g>
      <g>
        <g>
          <path class="cls-2" d="M244.34,179.28c-2.92.42-4.68,1.41-4.69,2.45v5.69c0,.34.18.68.58,1.02,1.21,1.02,4.03,1.64,7.01,1.64v-11.01c-.97,0-1.95.06-2.9.2Z"/>
          <path class="cls-4" d="M254.83,181.74c0-.34-.18-.68-.58-1.02-1.21-1.02-4.03-1.64-7.01-1.64v11.01c.97,0,1.95-.06,2.9-.2,2.92-.42,4.68-1.41,4.69-2.45v-5.69Z"/>
        </g>
        <path class="cls-4" d="M254.25,180.72c1.6,1.36-.23,2.91-4.11,3.47s-8.31-.08-9.92-1.44.23-2.91,4.11-3.47,8.31.08,9.92,1.44Z"/>
      </g>
    </g>
    <g>
      <g>
        <g>
          <path class="cls-2" d="M211.8,174.57c-2.92.42-4.68,1.41-4.69,2.45v5.69c0,.34.18.68.58,1.02,1.21,1.02,4.03,1.64,7.01,1.64v-11.01c-.97,0-1.95.06-2.9.2Z"/>
          <path class="cls-4" d="M222.3,177.02c0-.34-.18-.68-.58-1.02-1.21-1.02-4.03-1.64-7.01-1.64v11.01c.97,0,1.95-.06,2.9-.2,2.92-.42,4.68-1.41,4.69-2.45v-5.69Z"/>
        </g>
        <path class="cls-4" d="M221.72,176c1.6,1.36-.23,2.91-4.11,3.47-3.87.56-8.31-.08-9.92-1.44s.23-2.91,4.11-3.47c3.87-.56,8.31.08,9.92,1.44Z"/>
      </g>
      <g>
        <g>
          <path class="cls-2" d="M221.33,182.62c-2.92.42-4.68,1.41-4.69,2.45v5.69c0,.34.18.68.58,1.02,1.21,1.02,4.03,1.64,7.01,1.64v-11.01c-.97,0-1.95.06-2.9.2Z"/>
          <path class="cls-4" d="M231.83,185.07c0-.34-.18-.68-.58-1.02-1.21-1.02-4.03-1.64-7.01-1.64v11.01c.97,0,1.95-.06,2.9-.2,2.92-.42,4.68-1.41,4.69-2.45v-5.69Z"/>
        </g>
        <path class="cls-4" d="M231.25,184.06c1.6,1.36-.23,2.91-4.11,3.47-3.87.56-8.31-.08-9.92-1.44s.23-2.91,4.11-3.47c3.87-.56,8.31.08,9.92,1.44Z"/>
      </g>
    </g>
    <g>
      <g>
        <g>
          <path class="cls-2" d="M188.8,177.9c-2.92.42-4.68,1.41-4.69,2.45v5.69c0,.34.18.68.58,1.02,1.21,1.02,4.03,1.64,7.01,1.64v-11.01c-.97,0-1.95.06-2.9.2Z"/>
          <path class="cls-4" d="M199.29,180.36c0-.34-.18-.68-.58-1.02-1.21-1.02-4.03-1.64-7.01-1.64v11.01c.97,0,1.95-.06,2.9-.2,2.92-.42,4.68-1.41,4.69-2.45v-5.69Z"/>
        </g>
        <path class="cls-4" d="M198.71,179.34c1.6,1.36-.23,2.91-4.11,3.47s-8.31-.08-9.92-1.44c-1.6-1.36.23-2.91,4.11-3.47s8.31.08,9.92,1.44Z"/>
      </g>
      <g>
        <g>
          <path class="cls-2" d="M198.33,185.95c-2.92.42-4.68,1.41-4.69,2.45v5.69c0,.34.18.68.58,1.02,1.21,1.02,4.03,1.64,7.01,1.64v-11.01c-.97,0-1.95.06-2.9.2Z"/>
          <path class="cls-4" d="M208.82,188.41c0-.34-.18-.68-.58-1.02-1.21-1.02-4.03-1.64-7.01-1.64v11.01c.97,0,1.95-.06,2.9-.2,2.92-.42,4.68-1.41,4.69-2.45v-5.69Z"/>
        </g>
        <path class="cls-4" d="M208.24,187.39c1.6,1.36-.23,2.91-4.11,3.47s-8.31-.08-9.92-1.44.23-2.91,4.11-3.47,8.31.08,9.92,1.44Z"/>
      </g>
    </g>
    <g>
      <g>
        <g>
          <path class="cls-2" d="M165.79,181.24c-2.92.42-4.68,1.41-4.69,2.45v5.69c0,.34.18.68.58,1.02,1.21,1.02,4.03,1.64,7.01,1.64v-11.01c-.97,0-1.95.06-2.9.2Z"/>
          <path class="cls-4" d="M176.29,183.69c0-.34-.18-.68-.58-1.02-1.21-1.02-4.03-1.64-7.01-1.64v11.01c.97,0,1.95-.06,2.9-.2,2.92-.42,4.68-1.41,4.69-2.45v-5.69Z"/>
        </g>
        <path class="cls-4" d="M175.71,182.67c1.6,1.36-.23,2.91-4.11,3.47-3.87.56-8.31-.08-9.92-1.44s.23-2.91,4.11-3.47c3.87-.56,8.31.08,9.92,1.44Z"/>
      </g>
      <g>
        <g>
          <path class="cls-2" d="M175.32,189.29c-2.92.42-4.68,1.41-4.69,2.45v5.69c0,.34.18.68.58,1.02,1.21,1.02,4.03,1.64,7.01,1.64v-11.01c-.97,0-1.95.06-2.9.2Z"/>
          <path class="cls-4" d="M185.82,191.74c0-.34-.18-.68-.58-1.02-1.21-1.02-4.03-1.64-7.01-1.64v11.01c.97,0,1.95-.06,2.9-.2,2.92-.42,4.68-1.41,4.69-2.45v-5.69Z"/>
        </g>
        <path class="cls-4" d="M185.24,190.73c1.6,1.36-.23,2.91-4.11,3.47-3.87.56-8.31-.08-9.92-1.44s.23-2.91,4.11-3.47c3.87-.56,8.31.08,9.92,1.44Z"/>
      </g>
    </g>
  </g>
  <g>
    <polygon class="cls-3" points="129.43 209.08 106.42 212.41 83.42 215.75 102.47 231.85 125.48 228.52 148.48 225.18 129.43 209.08"/>
    <polygon class="cls-3" points="125.48 228.52 102.47 231.85 102.47 262.22 125.48 258.88 148.48 255.55 148.48 225.18 125.48 228.52"/>
    <polygon class="cls-2" points="83.42 215.75 83.42 246.11 102.47 262.22 102.47 231.85 83.42 215.75"/>
    <g>
      <g>
        <path class="cls-2" d="M96.78,209.96c-2.92.42-4.68,1.41-4.69,2.45v5.69c0,.34.18.68.58,1.02,1.21,1.02,4.03,1.64,7.01,1.64v-11.01c-.97,0-1.95.06-2.9.2Z"/>
        <path class="cls-3" d="M107.27,212.41c0-.34-.18-.68-.58-1.02-1.21-1.02-4.03-1.64-7.01-1.64v11.01c.97,0,1.95-.06,2.9-.2,2.92-.42,4.68-1.41,4.69-2.45v-5.69Z"/>
      </g>
      <path class="cls-3" d="M106.69,211.4c1.6,1.36-.23,2.91-4.11,3.47s-8.31-.08-9.92-1.44.23-2.91,4.11-3.47c3.87-.56,8.31.08,9.92,1.44Z"/>
    </g>
    <g>
      <g>
        <path class="cls-2" d="M106.31,218.01c-2.92.42-4.68,1.41-4.69,2.45v5.69c0,.34.18.68.58,1.02,1.21,1.02,4.03,1.64,7.01,1.64v-11.01c-.97,0-1.95.06-2.9.2Z"/>
        <path class="cls-3" d="M116.8,220.47c0-.34-.18-.68-.58-1.02-1.21-1.02-4.03-1.64-7.01-1.64v11.01c.97,0,1.95-.06,2.9-.2,2.92-.42,4.68-1.41,4.69-2.45v-5.69Z"/>
      </g>
      <path class="cls-3" d="M116.22,219.45c1.6,1.36-.23,2.91-4.11,3.47-3.87.56-8.31-.08-9.92-1.44s.23-2.91,4.11-3.47c3.87-.56,8.31.08,9.92,1.44Z"/>
    </g>
    <g>
      <g>
        <path class="cls-2" d="M119.78,206.63c-2.92.42-4.68,1.41-4.69,2.45v5.69c0,.34.18.68.58,1.02,1.21,1.02,4.03,1.64,7.01,1.64v-11.01c-.97,0-1.95.06-2.9.2Z"/>
        <path class="cls-3" d="M130.28,209.08c0-.34-.18-.68-.58-1.02-1.21-1.02-4.03-1.64-7.01-1.64v11.01c.97,0,1.95-.06,2.9-.2,2.92-.42,4.68-1.41,4.69-2.45v-5.69Z"/>
      </g>
      <path class="cls-3" d="M129.7,208.06c1.6,1.36-.23,2.91-4.11,3.47-3.87.56-8.31-.08-9.92-1.44s.23-2.91,4.11-3.47,8.31.08,9.92,1.44Z"/>
    </g>
    <g>
      <g>
        <path class="cls-2" d="M129.31,214.68c-2.92.42-4.68,1.41-4.69,2.45v5.69c0,.34.18.68.58,1.02,1.21,1.02,4.03,1.64,7.01,1.64v-11.01c-.97,0-1.95.06-2.9.2Z"/>
        <path class="cls-3" d="M139.81,217.13c0-.34-.18-.68-.58-1.02-1.21-1.02-4.03-1.64-7.01-1.64v11.01c.97,0,1.95-.06,2.9-.2,2.92-.42,4.68-1.41,4.69-2.45v-5.69Z"/>
      </g>
      <path class="cls-3" d="M139.23,216.12c1.6,1.36-.23,2.91-4.11,3.47s-8.31-.08-9.92-1.44.23-2.91,4.11-3.47c3.87-.56,8.31.08,9.92,1.44Z"/>
    </g>
  </g>
  <g>
    <polygon class="cls-4" points="83.42 195.52 60.41 198.86 37.41 202.19 56.46 218.3 79.47 214.96 102.47 211.63 83.42 195.52"/>
    <polygon class="cls-4" points="79.47 214.96 56.46 218.3 56.46 248.66 79.47 245.33 102.47 241.99 102.47 211.63 79.47 214.96"/>
    <polygon class="cls-2" points="37.41 202.19 37.41 232.56 56.46 248.66 56.46 218.3 37.41 202.19"/>
    <g>
      <g>
        <path class="cls-2" d="M50.77,196.41c-2.92.42-4.68,1.41-4.69,2.45v5.69c0,.34.18.68.58,1.02,1.21,1.02,4.03,1.64,7.01,1.64v-11.01c-.97,0-1.95.06-2.9.2Z"/>
        <path class="cls-4" d="M61.26,198.86c0-.34-.18-.68-.58-1.02-1.21-1.02-4.03-1.64-7.01-1.64v11.01c.97,0,1.95-.06,2.9-.2,2.92-.42,4.68-1.41,4.69-2.45v-5.69Z"/>
      </g>
      <path class="cls-4" d="M60.68,197.84c1.6,1.36-.23,2.91-4.11,3.47s-8.31-.08-9.92-1.44.23-2.91,4.11-3.47c3.87-.56,8.31.08,9.92,1.44Z"/>
    </g>
    <g>
      <g>
        <path class="cls-2" d="M60.3,204.46c-2.92.42-4.68,1.41-4.69,2.45v5.69c0,.34.18.68.58,1.02,1.21,1.02,4.03,1.64,7.01,1.64v-11.01c-.97,0-1.95.06-2.9.2Z"/>
        <path class="cls-4" d="M70.79,206.91c0-.34-.18-.68-.58-1.02-1.21-1.02-4.03-1.64-7.01-1.64v11.01c.97,0,1.95-.06,2.9-.2,2.92-.42,4.68-1.41,4.69-2.45v-5.69Z"/>
      </g>
      <path class="cls-4" d="M70.21,205.89c1.6,1.36-.23,2.91-4.11,3.47-3.87.56-8.31-.08-9.92-1.44s.23-2.91,4.11-3.47c3.87-.56,8.31.08,9.92,1.44Z"/>
    </g>
    <g>
      <g>
        <path class="cls-2" d="M73.77,193.07c-2.92.42-4.68,1.41-4.69,2.45v5.69c0,.34.18.68.58,1.02,1.21,1.02,4.03,1.64,7.01,1.64v-11.01c-.97,0-1.95.06-2.9.2Z"/>
        <path class="cls-4" d="M84.27,195.52c0-.34-.18-.68-.58-1.02-1.21-1.02-4.03-1.64-7.01-1.64v11.01c.97,0,1.95-.06,2.9-.2,2.92-.42,4.68-1.41,4.69-2.45v-5.69Z"/>
      </g>
      <path class="cls-4" d="M83.69,194.51c1.6,1.36-.23,2.91-4.11,3.47s-8.31-.08-9.92-1.44.23-2.91,4.11-3.47,8.31.08,9.92,1.44Z"/>
    </g>
    <g>
      <g>
        <path class="cls-2" d="M83.3,201.12c-2.92.42-4.68,1.41-4.69,2.45v5.69c0,.34.18.68.58,1.02,1.21,1.02,4.03,1.64,7.01,1.64v-11.01c-.97,0-1.95.06-2.9.2Z"/>
        <path class="cls-4" d="M93.8,203.58c0-.34-.18-.68-.58-1.02-1.21-1.02-4.03-1.64-7.01-1.64v11.01c.97,0,1.95-.06,2.9-.2,2.92-.42,4.68-1.41,4.69-2.45v-5.69Z"/>
      </g>
      <path class="cls-4" d="M93.22,202.56c1.6,1.36-.23,2.91-4.11,3.47s-8.31-.08-9.92-1.44.23-2.91,4.11-3.47c3.87-.56,8.31.08,9.92,1.44Z"/>
    </g>
  </g>
  <g>
    <polygon class="cls-3" points="244.45 125.88 221.45 129.22 198.44 132.56 217.5 148.66 240.5 145.32 263.51 141.99 244.45 125.88"/>
    <polygon class="cls-3" points="240.5 145.32 217.5 148.66 217.5 179.02 240.5 175.69 263.51 172.35 263.51 141.99 240.5 145.32"/>
    <polygon class="cls-2" points="198.44 132.56 198.44 162.92 217.5 179.02 217.5 148.66 198.44 132.56"/>
    <g>
      <g>
        <path class="cls-2" d="M211.8,126.77c-2.92.42-4.68,1.41-4.69,2.45v5.69c0,.34.18.68.58,1.02,1.21,1.02,4.03,1.64,7.01,1.64v-11.01c-.97,0-1.95.06-2.9.2Z"/>
        <path class="cls-3" d="M222.3,129.22c0-.34-.18-.68-.58-1.02-1.21-1.02-4.03-1.64-7.01-1.64v11.01c.97,0,1.95-.06,2.9-.2,2.92-.42,4.68-1.41,4.69-2.45v-5.69Z"/>
      </g>
      <path class="cls-3" d="M221.72,128.2c1.6,1.36-.23,2.91-4.11,3.47s-8.31-.08-9.92-1.44.23-2.91,4.11-3.47,8.31.08,9.92,1.44Z"/>
    </g>
    <g>
      <g>
        <path class="cls-2" d="M221.33,134.82c-2.92.42-4.68,1.41-4.69,2.45v5.69c0,.34.18.68.58,1.02,1.21,1.02,4.03,1.64,7.01,1.64v-11.01c-.97,0-1.95.06-2.9.2Z"/>
        <path class="cls-3" d="M231.83,137.27c0-.34-.18-.68-.58-1.02-1.21-1.02-4.03-1.64-7.01-1.64v11.01c.97,0,1.95-.06,2.9-.2,2.92-.42,4.68-1.41,4.69-2.45v-5.69Z"/>
      </g>
      <path class="cls-3" d="M231.25,136.26c1.6,1.36-.23,2.91-4.11,3.47s-8.31-.08-9.92-1.44c-1.6-1.36.23-2.91,4.11-3.47s8.31.08,9.92,1.44Z"/>
    </g>
    <g>
      <g>
        <path class="cls-2" d="M234.81,123.43c-2.92.42-4.68,1.41-4.69,2.45v5.69c0,.34.18.68.58,1.02,1.21,1.02,4.03,1.64,7.01,1.64v-11.01c-.97,0-1.95.06-2.9.2Z"/>
        <path class="cls-3" d="M245.3,125.88c0-.34-.18-.68-.58-1.02-1.21-1.02-4.03-1.64-7.01-1.64v11.01c.97,0,1.95-.06,2.9-.2,2.92-.42,4.68-1.41,4.69-2.45v-5.69Z"/>
      </g>
      <path class="cls-3" d="M244.72,124.87c1.6,1.36-.23,2.91-4.11,3.47s-8.31-.08-9.92-1.44.23-2.91,4.11-3.47c3.87-.56,8.31.08,9.92,1.44Z"/>
    </g>
    <g>
      <g>
        <path class="cls-2" d="M244.34,131.48c-2.92.42-4.68,1.41-4.69,2.45v5.69c0,.34.18.68.58,1.02,1.21,1.02,4.03,1.64,7.01,1.64v-11.01c-.97,0-1.95.06-2.9.2Z"/>
        <path class="cls-3" d="M254.83,133.94c0-.34-.18-.68-.58-1.02-1.21-1.02-4.03-1.64-7.01-1.64v11.01c.97,0,1.95-.06,2.9-.2,2.92-.42,4.68-1.41,4.69-2.45v-5.69Z"/>
      </g>
      <path class="cls-3" d="M254.25,132.92c1.6,1.36-.23,2.91-4.11,3.47s-8.31-.08-9.92-1.44.23-2.91,4.11-3.47c3.87-.56,8.31.08,9.92,1.44Z"/>
    </g>
  </g>
  <g>
    <polygon class="cls-4" points="198.44 138.25 175.44 141.58 152.43 144.92 129.43 148.25 148.48 164.36 171.49 161.02 194.49 157.69 217.5 154.35 198.44 138.25"/>
    <polygon class="cls-4" points="194.49 157.69 171.49 161.02 148.48 164.36 148.48 194.72 171.49 191.39 194.49 188.05 217.5 184.72 217.5 154.35 194.49 157.69"/>
    <polygon class="cls-2" points="129.43 148.25 129.43 178.62 148.48 194.72 148.48 164.36 129.43 148.25"/>
    <g>
      <g>
        <path class="cls-2" d="M142.79,142.46c-2.92.42-4.68,1.41-4.69,2.45v5.69c0,.34.18.68.58,1.02,1.21,1.02,4.03,1.64,7.01,1.64v-11.01c-.97,0-1.95.06-2.9.2Z"/>
        <path class="cls-4" d="M153.28,144.92c0-.34-.18-.68-.58-1.02-1.21-1.02-4.03-1.64-7.01-1.64v11.01c.97,0,1.95-.06,2.9-.2,2.92-.42,4.68-1.41,4.69-2.45v-5.69Z"/>
      </g>
      <path class="cls-4" d="M152.7,143.9c1.6,1.36-.23,2.91-4.11,3.47s-8.31-.08-9.92-1.44.23-2.91,4.11-3.47c3.87-.56,8.31.08,9.92,1.44Z"/>
    </g>
    <g>
      <g>
        <path class="cls-2" d="M152.32,150.52c-2.92.42-4.68,1.41-4.69,2.45v5.69c0,.34.18.68.58,1.02,1.21,1.02,4.03,1.64,7.01,1.64v-11.01c-.97,0-1.95.06-2.9.2Z"/>
        <path class="cls-4" d="M162.81,152.97c0-.34-.18-.68-.58-1.02-1.21-1.02-4.03-1.64-7.01-1.64v11.01c.97,0,1.95-.06,2.9-.2,2.92-.42,4.68-1.41,4.69-2.45v-5.69Z"/>
      </g>
      <path class="cls-4" d="M162.23,151.95c1.6,1.36-.23,2.91-4.11,3.47s-8.31-.08-9.92-1.44.23-2.91,4.11-3.47,8.31.08,9.92,1.44Z"/>
    </g>
    <g>
      <g>
        <path class="cls-2" d="M188.8,135.79c-2.92.42-4.68,1.41-4.69,2.45v5.69c0,.34.18.68.58,1.02,1.21,1.02,4.03,1.64,7.01,1.64v-11.01c-.97,0-1.95.06-2.9.2Z"/>
        <path class="cls-4" d="M199.29,138.25c0-.34-.18-.68-.58-1.02-1.21-1.02-4.03-1.64-7.01-1.64v11.01c.97,0,1.95-.06,2.9-.2,2.92-.42,4.68-1.41,4.69-2.45v-5.69Z"/>
      </g>
      <path class="cls-4" d="M198.71,137.23c1.6,1.36-.23,2.91-4.11,3.47-3.87.56-8.31-.08-9.92-1.44s.23-2.91,4.11-3.47c3.87-.56,8.31.08,9.92,1.44Z"/>
    </g>
    <g>
      <g>
        <path class="cls-2" d="M198.33,143.85c-2.92.42-4.68,1.41-4.69,2.45v5.69c0,.34.18.68.58,1.02,1.21,1.02,4.03,1.64,7.01,1.64v-11.01c-.97,0-1.95.06-2.9.2Z"/>
        <path class="cls-4" d="M208.82,146.3c0-.34-.18-.68-.58-1.02-1.21-1.02-4.03-1.64-7.01-1.64v11.01c.97,0,1.95-.06,2.9-.2,2.92-.42,4.68-1.41,4.69-2.45v-5.69Z"/>
      </g>
      <path class="cls-4" d="M208.24,145.28c1.6,1.36-.23,2.91-4.11,3.47-3.87.56-8.31-.08-9.92-1.44s.23-2.91,4.11-3.47c3.87-.56,8.31.08,9.92,1.44Z"/>
    </g>
    <g>
      <g>
        <path class="cls-2" d="M165.79,139.13c-2.92.42-4.68,1.41-4.69,2.45v5.69c0,.34.18.68.58,1.02,1.21,1.02,4.03,1.64,7.01,1.64v-11.01c-.97,0-1.95.06-2.9.2Z"/>
        <path class="cls-4" d="M176.29,141.58c0-.34-.18-.68-.58-1.02-1.21-1.02-4.03-1.64-7.01-1.64v11.01c.97,0,1.95-.06,2.9-.2,2.92-.42,4.68-1.41,4.69-2.45v-5.69Z"/>
      </g>
      <path class="cls-4" d="M175.71,140.57c1.6,1.36-.23,2.91-4.11,3.47-3.87.56-8.31-.08-9.92-1.44s.23-2.91,4.11-3.47,8.31.08,9.92,1.44Z"/>
    </g>
    <g>
      <g>
        <path class="cls-2" d="M175.32,147.18c-2.92.42-4.68,1.41-4.69,2.45v5.69c0,.34.18.68.58,1.02,1.21,1.02,4.03,1.64,7.01,1.64v-11.01c-.97,0-1.95.06-2.9.2Z"/>
        <path class="cls-4" d="M185.82,149.64c0-.34-.18-.68-.58-1.02-1.21-1.02-4.03-1.64-7.01-1.64v11.01c.97,0,1.95-.06,2.9-.2,2.92-.42,4.68-1.41,4.69-2.45v-5.69Z"/>
      </g>
      <path class="cls-4" d="M185.24,148.62c1.6,1.36-.23,2.91-4.11,3.47s-8.31-.08-9.92-1.44.23-2.91,4.11-3.47,8.31.08,9.92,1.44Z"/>
    </g>
  </g>
  <g>
    <polygon class="cls-5" points="263.51 100.39 240.5 103.72 221.45 87.62 244.45 84.29 263.51 100.39"/>
    <polygon class="cls-5" points="240.5 134.09 263.51 130.75 263.51 100.39 240.5 103.72 240.5 134.09"/>
    <polygon class="cls-2" points="221.45 87.62 221.45 117.99 240.5 134.09 240.5 103.72 221.45 87.62"/>
    <g>
      <g>
        <path class="cls-2" d="M234.81,81.83c-2.92.42-4.68,1.41-4.69,2.45v5.69c0,.34.18.68.58,1.02,1.21,1.02,4.03,1.64,7.01,1.64v-11.01c-.97,0-1.95.06-2.9.2Z"/>
        <path class="cls-5" d="M245.3,84.29c0-.34-.18-.68-.58-1.02-1.21-1.02-4.03-1.64-7.01-1.64v11.01c.97,0,1.95-.06,2.9-.2,2.92-.42,4.68-1.41,4.69-2.45v-5.69Z"/>
      </g>
      <path class="cls-5" d="M244.72,83.27c1.6,1.36-.23,2.91-4.11,3.47-3.87.56-8.31-.08-9.92-1.44s.23-2.91,4.11-3.47c3.87-.56,8.31.08,9.92,1.44Z"/>
    </g>
    <g>
      <g>
        <path class="cls-2" d="M244.34,89.88c-2.92.42-4.68,1.41-4.69,2.45v5.69c0,.34.18.68.58,1.02,1.21,1.02,4.03,1.64,7.01,1.64v-11.01c-.97,0-1.95.06-2.9.2Z"/>
        <path class="cls-5" d="M254.83,92.34c0-.34-.18-.68-.58-1.02-1.21-1.02-4.03-1.64-7.01-1.64v11.01c.97,0,1.95-.06,2.9-.2,2.92-.42,4.68-1.41,4.69-2.45v-5.69Z"/>
      </g>
      <path class="cls-5" d="M254.25,91.32c1.6,1.36-.23,2.91-4.11,3.47-3.87.56-8.31-.08-9.92-1.44s.23-2.91,4.11-3.47c3.87-.56,8.31.08,9.92,1.44Z"/>
    </g>
  </g>
  <g>
    <polygon class="cls-5" points="129.43 158.62 106.42 161.96 83.42 165.29 60.41 168.63 37.41 171.96 56.46 188.07 79.47 184.73 102.47 181.4 125.48 178.06 148.48 174.73 129.43 158.62"/>
    <polygon class="cls-5" points="56.46 188.07 56.46 218.43 148.48 205.09 148.48 174.73 56.46 188.07"/>
    <polygon class="cls-2" points="37.41 171.96 37.41 202.33 56.46 218.43 56.46 188.07 37.41 171.96"/>
    <g>
      <g>
        <path class="cls-2" d="M50.77,166.17c-2.92.42-4.68,1.41-4.69,2.45v5.69c0,.34.18.68.58,1.02,1.21,1.02,4.03,1.64,7.01,1.64v-11.01c-.97,0-1.95.06-2.9.2Z"/>
        <path class="cls-5" d="M61.26,168.63c0-.34-.18-.68-.58-1.02-1.21-1.02-4.03-1.64-7.01-1.64v11.01c.97,0,1.95-.06,2.9-.2,2.92-.42,4.68-1.41,4.69-2.45v-5.69Z"/>
      </g>
      <path class="cls-5" d="M60.68,167.61c1.6,1.36-.23,2.91-4.11,3.47s-8.31-.08-9.92-1.44.23-2.91,4.11-3.47c3.87-.56,8.31.08,9.92,1.44Z"/>
    </g>
    <g>
      <g>
        <path class="cls-2" d="M60.3,174.23c-2.92.42-4.68,1.41-4.69,2.45v5.69c0,.34.18.68.58,1.02,1.21,1.02,4.03,1.64,7.01,1.64v-11.01c-.97,0-1.95.06-2.9.2Z"/>
        <path class="cls-5" d="M70.79,176.68c0-.34-.18-.68-.58-1.02-1.21-1.02-4.03-1.64-7.01-1.64v11.01c.97,0,1.95-.06,2.9-.2,2.92-.42,4.68-1.41,4.69-2.45v-5.69Z"/>
      </g>
      <path class="cls-5" d="M70.21,175.66c1.6,1.36-.23,2.91-4.11,3.47s-8.31-.08-9.92-1.44.23-2.91,4.11-3.47c3.87-.56,8.31.08,9.92,1.44Z"/>
    </g>
    <g>
      <g>
        <path class="cls-2" d="M119.78,156.17c-2.92.42-4.68,1.41-4.69,2.45v5.69c0,.34.18.68.58,1.02,1.21,1.02,4.03,1.64,7.01,1.64v-11.01c-.97,0-1.95.06-2.9.2Z"/>
        <path class="cls-5" d="M130.28,158.62c0-.34-.18-.68-.58-1.02-1.21-1.02-4.03-1.64-7.01-1.64v11.01c.97,0,1.95-.06,2.9-.2,2.92-.42,4.68-1.41,4.69-2.45v-5.69Z"/>
      </g>
      <path class="cls-5" d="M129.7,157.61c1.6,1.36-.23,2.91-4.11,3.47-3.87.56-8.31-.08-9.92-1.44s.23-2.91,4.11-3.47c3.87-.56,8.31.08,9.92,1.44Z"/>
    </g>
    <g>
      <g>
        <path class="cls-2" d="M129.31,164.22c-2.92.42-4.68,1.41-4.69,2.45v5.69c0,.34.18.68.58,1.02,1.21,1.02,4.03,1.64,7.01,1.64v-11.01c-.97,0-1.95.06-2.9.2Z"/>
        <path class="cls-5" d="M139.81,166.67c0-.34-.18-.68-.58-1.02-1.21-1.02-4.03-1.64-7.01-1.64v11.01c.97,0,1.95-.06,2.9-.2,2.92-.42,4.68-1.41,4.69-2.45v-5.69Z"/>
      </g>
      <path class="cls-5" d="M139.23,165.66c1.6,1.36-.23,2.91-4.11,3.47s-8.31-.08-9.92-1.44.23-2.91,4.11-3.47,8.31.08,9.92,1.44Z"/>
    </g>
    <g>
      <g>
        <path class="cls-2" d="M96.78,159.5c-2.92.42-4.68,1.41-4.69,2.45v5.69c0,.34.18.68.58,1.02,1.21,1.02,4.03,1.64,7.01,1.64v-11.01c-.97,0-1.95.06-2.9.2Z"/>
        <path class="cls-5" d="M107.27,161.96c0-.34-.18-.68-.58-1.02-1.21-1.02-4.03-1.64-7.01-1.64v11.01c.97,0,1.95-.06,2.9-.2,2.92-.42,4.68-1.41,4.69-2.45v-5.69Z"/>
      </g>
      <path class="cls-5" d="M106.69,160.94c1.6,1.36-.23,2.91-4.11,3.47-3.87.56-8.31-.08-9.92-1.44-1.6-1.36.23-2.91,4.11-3.47s8.31.08,9.92,1.44Z"/>
    </g>
    <g>
      <g>
        <path class="cls-2" d="M106.31,167.56c-2.92.42-4.68,1.41-4.69,2.45v5.69c0,.34.18.68.58,1.02,1.21,1.02,4.03,1.64,7.01,1.64v-11.01c-.97,0-1.95.06-2.9.2Z"/>
        <path class="cls-5" d="M116.8,170.01c0-.34-.18-.68-.58-1.02-1.21-1.02-4.03-1.64-7.01-1.64v11.01c.97,0,1.95-.06,2.9-.2,2.92-.42,4.68-1.41,4.69-2.45v-5.69Z"/>
      </g>
      <path class="cls-5" d="M116.22,168.99c1.6,1.36-.23,2.91-4.11,3.47-3.87.56-8.31-.08-9.92-1.44s.23-2.91,4.11-3.47c3.87-.56,8.31.08,9.92,1.44Z"/>
    </g>
    <g>
      <g>
        <path class="cls-2" d="M73.77,162.84c-2.92.42-4.68,1.41-4.69,2.45v5.69c0,.34.18.68.58,1.02,1.21,1.02,4.03,1.64,7.01,1.64v-11.01c-.97,0-1.95.06-2.9.2Z"/>
        <path class="cls-5" d="M84.27,165.29c0-.34-.18-.68-.58-1.02-1.21-1.02-4.03-1.64-7.01-1.64v11.01c.97,0,1.95-.06,2.9-.2,2.92-.42,4.68-1.41,4.69-2.45v-5.69Z"/>
      </g>
      <path class="cls-5" d="M83.69,164.28c1.6,1.36-.23,2.91-4.11,3.47s-8.31-.08-9.92-1.44.23-2.91,4.11-3.47c3.87-.56,8.31.08,9.92,1.44Z"/>
    </g>
    <g>
      <g>
        <path class="cls-2" d="M83.3,170.89c-2.92.42-4.68,1.41-4.69,2.45v5.69c0,.34.18.68.58,1.02,1.21,1.02,4.03,1.64,7.01,1.64v-11.01c-.97,0-1.95.06-2.9.2Z"/>
        <path class="cls-5" d="M93.8,173.34c0-.34-.18-.68-.58-1.02-1.21-1.02-4.03-1.64-7.01-1.64v11.01c.97,0,1.95-.06,2.9-.2,2.92-.42,4.68-1.41,4.69-2.45v-5.69Z"/>
      </g>
      <path class="cls-5" d="M93.22,172.33c1.6,1.36-.23,2.91-4.11,3.47s-8.31-.08-9.92-1.44.23-2.91,4.11-3.47,8.31.08,9.92,1.44Z"/>
    </g>
  </g>
  <g>
    <polygon class="cls-3" points="198.44 107.88 175.44 111.22 152.43 114.55 171.49 130.66 194.49 127.32 217.5 123.99 198.44 107.88"/>
    <polygon class="cls-3" points="194.49 127.32 171.49 130.66 171.49 161.02 194.49 157.69 217.5 154.35 217.5 123.99 194.49 127.32"/>
    <polygon class="cls-2" points="152.43 114.55 152.43 144.92 171.49 161.02 171.49 130.66 152.43 114.55"/>
    <g>
      <g>
        <path class="cls-2" d="M165.79,108.76c-2.92.42-4.68,1.41-4.69,2.45v5.69c0,.34.18.68.58,1.02,1.21,1.02,4.03,1.64,7.01,1.64v-11.01c-.97,0-1.95.06-2.9.2Z"/>
        <path class="cls-3" d="M176.29,111.22c0-.34-.18-.68-.58-1.02-1.21-1.02-4.03-1.64-7.01-1.64v11.01c.97,0,1.95-.06,2.9-.2,2.92-.42,4.68-1.41,4.69-2.45v-5.69Z"/>
      </g>
      <path class="cls-3" d="M175.71,110.2c1.6,1.36-.23,2.91-4.11,3.47s-8.31-.08-9.92-1.44.23-2.91,4.11-3.47,8.31.08,9.92,1.44Z"/>
    </g>
    <g>
      <g>
        <path class="cls-2" d="M175.32,116.82c-2.92.42-4.68,1.41-4.69,2.45v5.69c0,.34.18.68.58,1.02,1.21,1.02,4.03,1.64,7.01,1.64v-11.01c-.97,0-1.95.06-2.9.2Z"/>
        <path class="cls-3" d="M185.82,119.27c0-.34-.18-.68-.58-1.02-1.21-1.02-4.03-1.64-7.01-1.64v11.01c.97,0,1.95-.06,2.9-.2,2.92-.42,4.68-1.41,4.69-2.45v-5.69Z"/>
      </g>
      <path class="cls-3" d="M185.24,118.25c1.6,1.36-.23,2.91-4.11,3.47s-8.31-.08-9.92-1.44c-1.6-1.36.23-2.91,4.11-3.47s8.31.08,9.92,1.44Z"/>
    </g>
    <g>
      <g>
        <path class="cls-2" d="M188.8,105.43c-2.92.42-4.68,1.41-4.69,2.45v5.69c0,.34.18.68.58,1.02,1.21,1.02,4.03,1.64,7.01,1.64v-11.01c-.97,0-1.95.06-2.9.2Z"/>
        <path class="cls-3" d="M199.29,107.88c0-.34-.18-.68-.58-1.02-1.21-1.02-4.03-1.64-7.01-1.64v11.01c.97,0,1.95-.06,2.9-.2,2.92-.42,4.68-1.41,4.69-2.45v-5.69Z"/>
      </g>
      <path class="cls-3" d="M198.71,106.87c1.6,1.36-.23,2.91-4.11,3.47s-8.31-.08-9.92-1.44c-1.6-1.36.23-2.91,4.11-3.47,3.87-.56,8.31.08,9.92,1.44Z"/>
    </g>
    <g>
      <g>
        <path class="cls-2" d="M198.33,113.48c-2.92.42-4.68,1.41-4.69,2.45v5.69c0,.34.18.68.58,1.02,1.21,1.02,4.03,1.64,7.01,1.64v-11.01c-.97,0-1.95.06-2.9.2Z"/>
        <path class="cls-3" d="M208.82,115.94c0-.34-.18-.68-.58-1.02-1.21-1.02-4.03-1.64-7.01-1.64v11.01c.97,0,1.95-.06,2.9-.2,2.92-.42,4.68-1.41,4.69-2.45v-5.69Z"/>
      </g>
      <path class="cls-3" d="M208.24,114.92c1.6,1.36-.23,2.91-4.11,3.47s-8.31-.08-9.92-1.44.23-2.91,4.11-3.47c3.87-.56,8.31.08,9.92,1.44Z"/>
    </g>
  </g>
  <g>
    <polygon class="cls-4" points="152.43 101.19 129.43 104.52 106.42 107.86 83.42 111.19 60.41 114.53 79.47 130.63 102.47 127.3 125.48 123.96 148.48 120.63 171.49 117.29 152.43 101.19"/>
    <polygon class="cls-4" points="79.47 130.63 79.47 161 171.49 147.66 171.49 117.29 79.47 130.63"/>
    <polygon class="cls-2" points="60.41 114.53 60.41 144.89 79.47 161 79.47 130.63 60.41 114.53"/>
    <g>
      <g>
        <path class="cls-2" d="M73.77,108.74c-2.92.42-4.68,1.41-4.69,2.45v5.69c0,.34.18.68.58,1.02,1.21,1.02,4.03,1.64,7.01,1.64v-11.01c-.97,0-1.95.06-2.9.2Z"/>
        <path class="cls-4" d="M84.27,111.19c0-.34-.18-.68-.58-1.02-1.21-1.02-4.03-1.64-7.01-1.64v11.01c.97,0,1.95-.06,2.9-.2,2.92-.42,4.68-1.41,4.69-2.45v-5.69Z"/>
      </g>
      <path class="cls-4" d="M83.69,110.18c1.6,1.36-.23,2.91-4.11,3.47s-8.31-.08-9.92-1.44.23-2.91,4.11-3.47c3.87-.56,8.31.08,9.92,1.44Z"/>
    </g>
    <g>
      <g>
        <path class="cls-2" d="M83.3,116.79c-2.92.42-4.68,1.41-4.69,2.45v5.69c0,.34.18.68.58,1.02,1.21,1.02,4.03,1.64,7.01,1.64v-11.01c-.97,0-1.95.06-2.9.2Z"/>
        <path class="cls-4" d="M93.8,119.25c0-.34-.18-.68-.58-1.02-1.21-1.02-4.03-1.64-7.01-1.64v11.01c.97,0,1.95-.06,2.9-.2,2.92-.42,4.68-1.41,4.69-2.45v-5.69Z"/>
      </g>
      <path class="cls-4" d="M93.22,118.23c1.6,1.36-.23,2.91-4.11,3.47s-8.31-.08-9.92-1.44.23-2.91,4.11-3.47c3.87-.56,8.31.08,9.92,1.44Z"/>
    </g>
    <g>
      <g>
        <path class="cls-2" d="M142.79,98.73c-2.92.42-4.68,1.41-4.69,2.45v5.69c0,.34.18.68.58,1.02,1.21,1.02,4.03,1.64,7.01,1.64v-11.01c-.97,0-1.95.06-2.9.2Z"/>
        <path class="cls-4" d="M153.28,101.19c0-.34-.18-.68-.58-1.02-1.21-1.02-4.03-1.64-7.01-1.64v11.01c.97,0,1.95-.06,2.9-.2,2.92-.42,4.68-1.41,4.69-2.45v-5.69Z"/>
      </g>
      <path class="cls-4" d="M152.7,100.17c1.6,1.36-.23,2.91-4.11,3.47-3.87.56-8.31-.08-9.92-1.44s.23-2.91,4.11-3.47,8.31.08,9.92,1.44Z"/>
    </g>
    <g>
      <g>
        <path class="cls-2" d="M152.32,106.79c-2.92.42-4.68,1.41-4.69,2.45v5.69c0,.34.18.68.58,1.02,1.21,1.02,4.03,1.64,7.01,1.64v-11.01c-.97,0-1.95.06-2.9.2Z"/>
        <path class="cls-4" d="M162.81,109.24c0-.34-.18-.68-.58-1.02-1.21-1.02-4.03-1.64-7.01-1.64v11.01c.97,0,1.95-.06,2.9-.2,2.92-.42,4.68-1.41,4.69-2.45v-5.69Z"/>
      </g>
      <path class="cls-4" d="M162.23,108.22c1.6,1.36-.23,2.91-4.11,3.47s-8.31-.08-9.92-1.44c-1.6-1.36.23-2.91,4.11-3.47s8.31.08,9.92,1.44Z"/>
    </g>
    <g>
      <g>
        <path class="cls-2" d="M119.78,102.07c-2.92.42-4.68,1.41-4.69,2.45v5.69c0,.34.18.68.58,1.02,1.21,1.02,4.03,1.64,7.01,1.64v-11.01c-.97,0-1.95.06-2.9.2Z"/>
        <path class="cls-4" d="M130.28,104.52c0-.34-.18-.68-.58-1.02-1.21-1.02-4.03-1.64-7.01-1.64v11.01c.97,0,1.95-.06,2.9-.2,2.92-.42,4.68-1.41,4.69-2.45v-5.69Z"/>
      </g>
      <path class="cls-4" d="M129.7,103.51c1.6,1.36-.23,2.91-4.11,3.47-3.87.56-8.31-.08-9.92-1.44s.23-2.91,4.11-3.47c3.87-.56,8.31.08,9.92,1.44Z"/>
    </g>
    <g>
      <g>
        <path class="cls-2" d="M129.31,110.12c-2.92.42-4.68,1.41-4.69,2.45v5.69c0,.34.18.68.58,1.02,1.21,1.02,4.03,1.64,7.01,1.64v-11.01c-.97,0-1.95.06-2.9.2Z"/>
        <path class="cls-4" d="M139.81,112.58c0-.34-.18-.68-.58-1.02-1.21-1.02-4.03-1.64-7.01-1.64v11.01c.97,0,1.95-.06,2.9-.2,2.92-.42,4.68-1.41,4.69-2.45v-5.69Z"/>
      </g>
      <path class="cls-4" d="M139.23,111.56c1.6,1.36-.23,2.91-4.11,3.47-3.87.56-8.31-.08-9.92-1.44s.23-2.91,4.11-3.47c3.87-.56,8.31.08,9.92,1.44Z"/>
    </g>
    <g>
      <g>
        <path class="cls-2" d="M96.78,105.4c-2.92.42-4.68,1.41-4.69,2.45v5.69c0,.34.18.68.58,1.02,1.21,1.02,4.03,1.64,7.01,1.64v-11.01c-.97,0-1.95.06-2.9.2Z"/>
        <path class="cls-4" d="M107.27,107.86c0-.34-.18-.68-.58-1.02-1.21-1.02-4.03-1.64-7.01-1.64v11.01c.97,0,1.95-.06,2.9-.2,2.92-.42,4.68-1.41,4.69-2.45v-5.69Z"/>
      </g>
      <path class="cls-4" d="M106.69,106.84c1.6,1.36-.23,2.91-4.11,3.47s-8.31-.08-9.92-1.44.23-2.91,4.11-3.47,8.31.08,9.92,1.44Z"/>
    </g>
    <g>
      <g>
        <path class="cls-2" d="M106.31,113.46c-2.92.42-4.68,1.41-4.69,2.45v5.69c0,.34.18.68.58,1.02,1.21,1.02,4.03,1.64,7.01,1.64v-11.01c-.97,0-1.95.06-2.9.2Z"/>
        <path class="cls-4" d="M116.8,115.91c0-.34-.18-.68-.58-1.02-1.21-1.02-4.03-1.64-7.01-1.64v11.01c.97,0,1.95-.06,2.9-.2,2.92-.42,4.68-1.41,4.69-2.45v-5.69Z"/>
      </g>
      <path class="cls-4" d="M116.22,114.89c1.6,1.36-.23,2.91-4.11,3.47s-8.31-.08-9.92-1.44.23-2.91,4.11-3.47,8.31.08,9.92,1.44Z"/>
    </g>
  </g>
  <g>
    <g>
      <polygon class="cls-5" points="217.5 62.69 79.47 82.7 60.41 66.6 198.44 46.58 217.5 62.69"/>
      <polygon class="cls-5" points="79.47 113.06 217.5 93.05 217.5 62.69 79.47 82.7 79.47 113.06"/>
      <polygon class="cls-2" points="60.41 66.6 60.41 96.96 79.47 113.06 79.47 82.7 60.41 66.6"/>
      <g>
        <g>
          <path class="cls-2" d="M73.77,60.81c-2.92.42-4.68,1.41-4.69,2.45v5.69c0,.34.18.68.58,1.02,1.21,1.02,4.03,1.64,7.01,1.64v-11.01c-.97,0-1.95.06-2.9.2Z"/>
          <path class="cls-5" d="M84.27,63.26c0-.34-.18-.68-.58-1.02-1.21-1.02-4.03-1.64-7.01-1.64v11.01c.97,0,1.95-.06,2.9-.2,2.92-.42,4.68-1.41,4.69-2.45v-5.69Z"/>
        </g>
        <path class="cls-5" d="M83.69,62.24c1.6,1.36-.23,2.91-4.11,3.47-3.87.56-8.31-.08-9.92-1.44s.23-2.91,4.11-3.47,8.31.08,9.92,1.44Z"/>
      </g>
      <g>
        <g>
          <path class="cls-2" d="M83.3,68.86c-2.92.42-4.68,1.41-4.69,2.45v5.69c0,.34.18.68.58,1.02,1.21,1.02,4.03,1.64,7.01,1.64v-11.01c-.97,0-1.95.06-2.9.2Z"/>
          <path class="cls-5" d="M93.8,71.31c0-.34-.18-.68-.58-1.02-1.21-1.02-4.03-1.64-7.01-1.64v11.01c.97,0,1.95-.06,2.9-.2,2.92-.42,4.68-1.41,4.69-2.45v-5.69Z"/>
        </g>
        <path class="cls-5" d="M93.22,70.3c1.6,1.36-.23,2.91-4.11,3.47s-8.31-.08-9.92-1.44.23-2.91,4.11-3.47,8.31.08,9.92,1.44Z"/>
      </g>
    </g>
    <g>
      <g>
        <g>
          <path class="cls-2" d="M188.8,44.13c-2.92.42-4.68,1.41-4.69,2.45v5.69c0,.34.18.68.58,1.02,1.21,1.02,4.03,1.64,7.01,1.64v-11.01c-.97,0-1.95.06-2.9.2Z"/>
          <path class="cls-5" d="M199.29,46.58c0-.34-.18-.68-.58-1.02-1.21-1.02-4.03-1.64-7.01-1.64v11.01c.97,0,1.95-.06,2.9-.2,2.92-.42,4.68-1.41,4.69-2.45v-5.69Z"/>
        </g>
        <path class="cls-5" d="M198.71,45.57c1.6,1.36-.23,2.91-4.11,3.47-3.87.56-8.31-.08-9.92-1.44s.23-2.91,4.11-3.47c3.87-.56,8.31.08,9.92,1.44Z"/>
      </g>
      <g>
        <g>
          <path class="cls-2" d="M198.33,52.18c-2.92.42-4.68,1.41-4.69,2.45v5.69c0,.34.18.68.58,1.02,1.21,1.02,4.03,1.64,7.01,1.64v-11.01c-.97,0-1.95.06-2.9.2Z"/>
          <path class="cls-5" d="M208.82,54.64c0-.34-.18-.68-.58-1.02-1.21-1.02-4.03-1.64-7.01-1.64v11.01c.97,0,1.95-.06,2.9-.2,2.92-.42,4.68-1.41,4.69-2.45v-5.69Z"/>
        </g>
        <path class="cls-5" d="M208.24,53.62c1.6,1.36-.23,2.91-4.11,3.47-3.87.56-8.31-.08-9.92-1.44s.23-2.91,4.11-3.47c3.87-.56,8.31.08,9.92,1.44Z"/>
      </g>
    </g>
    <g>
      <g>
        <g>
          <path class="cls-2" d="M165.79,47.47c-2.92.42-4.68,1.41-4.69,2.45v5.69c0,.34.18.68.58,1.02,1.21,1.02,4.03,1.64,7.01,1.64v-11.01c-.97,0-1.95.06-2.9.2Z"/>
          <path class="cls-5" d="M176.29,49.92c0-.34-.18-.68-.58-1.02-1.21-1.02-4.03-1.64-7.01-1.64v11.01c.97,0,1.95-.06,2.9-.2,2.92-.42,4.68-1.41,4.69-2.45v-5.69Z"/>
        </g>
        <path class="cls-5" d="M175.71,48.9c1.6,1.36-.23,2.91-4.11,3.47s-8.31-.08-9.92-1.44c-1.6-1.36.23-2.91,4.11-3.47s8.31.08,9.92,1.44Z"/>
      </g>
      <g>
        <g>
          <path class="cls-2" d="M175.32,55.52c-2.92.42-4.68,1.41-4.69,2.45v5.69c0,.34.18.68.58,1.02,1.21,1.02,4.03,1.64,7.01,1.64v-11.01c-.97,0-1.95.06-2.9.2Z"/>
          <path class="cls-5" d="M185.82,57.97c0-.34-.18-.68-.58-1.02-1.21-1.02-4.03-1.64-7.01-1.64v11.01c.97,0,1.95-.06,2.9-.2,2.92-.42,4.68-1.41,4.69-2.45v-5.69Z"/>
        </g>
        <path class="cls-5" d="M185.24,56.95c1.6,1.36-.23,2.91-4.11,3.47-3.87.56-8.31-.08-9.92-1.44s.23-2.91,4.11-3.47,8.31.08,9.92,1.44Z"/>
      </g>
    </g>
    <g>
      <g>
        <g>
          <path class="cls-2" d="M142.79,50.8c-2.92.42-4.68,1.41-4.69,2.45v5.69c0,.34.18.68.58,1.02,1.21,1.02,4.03,1.64,7.01,1.64v-11.01c-.97,0-1.95.06-2.9.2Z"/>
          <path class="cls-5" d="M153.28,53.25c0-.34-.18-.68-.58-1.02-1.21-1.02-4.03-1.64-7.01-1.64v11.01c.97,0,1.95-.06,2.9-.2,2.92-.42,4.68-1.41,4.69-2.45v-5.69Z"/>
        </g>
        <path class="cls-5" d="M152.7,52.24c1.6,1.36-.23,2.91-4.11,3.47-3.87.56-8.31-.08-9.92-1.44s.23-2.91,4.11-3.47c3.87-.56,8.31.08,9.92,1.44Z"/>
      </g>
      <g>
        <g>
          <path class="cls-2" d="M152.32,58.85c-2.92.42-4.68,1.41-4.69,2.45v5.69c0,.34.18.68.58,1.02,1.21,1.02,4.03,1.64,7.01,1.64v-11.01c-.97,0-1.95.06-2.9.2Z"/>
          <path class="cls-5" d="M162.81,61.31c0-.34-.18-.68-.58-1.02-1.21-1.02-4.03-1.64-7.01-1.64v11.01c.97,0,1.95-.06,2.9-.2,2.92-.42,4.68-1.41,4.69-2.45v-5.69Z"/>
        </g>
        <path class="cls-5" d="M162.23,60.29c1.6,1.36-.23,2.91-4.11,3.47-3.87.56-8.31-.08-9.92-1.44-1.6-1.36.23-2.91,4.11-3.47,3.87-.56,8.31.08,9.92,1.44Z"/>
      </g>
    </g>
    <g>
      <g>
        <g>
          <path class="cls-2" d="M119.78,54.14c-2.92.42-4.68,1.41-4.69,2.45v5.69c0,.34.18.68.58,1.02,1.21,1.02,4.03,1.64,7.01,1.64v-11.01c-.97,0-1.95.06-2.9.2Z"/>
          <path class="cls-5" d="M130.28,56.59c0-.34-.18-.68-.58-1.02-1.21-1.02-4.03-1.64-7.01-1.64v11.01c.97,0,1.95-.06,2.9-.2,2.92-.42,4.68-1.41,4.69-2.45v-5.69Z"/>
        </g>
        <path class="cls-5" d="M129.7,55.57c1.6,1.36-.23,2.91-4.11,3.47s-8.31-.08-9.92-1.44.23-2.91,4.11-3.47,8.31.08,9.92,1.44Z"/>
      </g>
      <g>
        <g>
          <path class="cls-2" d="M129.31,62.19c-2.92.42-4.68,1.41-4.69,2.45v5.69c0,.34.18.68.58,1.02,1.21,1.02,4.03,1.64,7.01,1.64v-11.01c-.97,0-1.95.06-2.9.2Z"/>
          <path class="cls-5" d="M139.81,64.64c0-.34-.18-.68-.58-1.02-1.21-1.02-4.03-1.64-7.01-1.64v11.01c.97,0,1.95-.06,2.9-.2,2.92-.42,4.68-1.41,4.69-2.45v-5.69Z"/>
        </g>
        <path class="cls-5" d="M139.23,63.63c1.6,1.36-.23,2.91-4.11,3.47s-8.31-.08-9.92-1.44.23-2.91,4.11-3.47c3.87-.56,8.31.08,9.92,1.44Z"/>
      </g>
    </g>
    <g>
      <g>
        <g>
          <path class="cls-2" d="M96.78,57.47c-2.92.42-4.68,1.41-4.69,2.45v5.69c0,.34.18.68.58,1.02,1.21,1.02,4.03,1.64,7.01,1.64v-11.01c-.97,0-1.95.06-2.9.2Z"/>
          <path class="cls-5" d="M107.27,59.93c0-.34-.18-.68-.58-1.02-1.21-1.02-4.03-1.64-7.01-1.64v11.01c.97,0,1.95-.06,2.9-.2,2.92-.42,4.68-1.41,4.69-2.45v-5.69Z"/>
        </g>
        <path class="cls-5" d="M106.69,58.91c1.6,1.36-.23,2.91-4.11,3.47-3.87.56-8.31-.08-9.92-1.44s.23-2.91,4.11-3.47c3.87-.56,8.31.08,9.92,1.44Z"/>
      </g>
      <g>
        <g>
          <path class="cls-2" d="M106.31,65.52c-2.92.42-4.68,1.41-4.69,2.45v5.69c0,.34.18.68.58,1.02,1.21,1.02,4.03,1.64,7.01,1.64v-11.01c-.97,0-1.95.06-2.9.2Z"/>
          <path class="cls-5" d="M116.8,67.98c0-.34-.18-.68-.58-1.02-1.21-1.02-4.03-1.64-7.01-1.64v11.01c.97,0,1.95-.06,2.9-.2,2.92-.42,4.68-1.41,4.69-2.45v-5.69Z"/>
        </g>
        <path class="cls-5" d="M116.22,66.96c1.6,1.36-.23,2.91-4.11,3.47s-8.31-.08-9.92-1.44.23-2.91,4.11-3.47c3.87-.56,8.31.08,9.92,1.44Z"/>
      </g>
    </g>
  </g>
  <path class="cls-8" d="M71.49,174.02c.81.28,1.62.58,2.42.91.4.17.8.35,1.2.54.09.04,1.07.58,1.1.56-.03.03-.11-.14-.1-.13,0,0-.11.45-.12.51-.11.44-.22.87-.33,1.31-.23.92-.46,1.85-.69,2.77-.31,1.25,1.62,1.78,1.93.53.26-1.04.52-2.09.78-3.13s.79-2.29-.02-3.21c-.31-.35-.73-.55-1.14-.75-.46-.22-.92-.44-1.39-.64-1.02-.44-2.05-.84-3.09-1.2-.51-.17-1.09.2-1.23.7-.15.55.19,1.06.7,1.23h0Z"/>
  <g>
    <path class="cls-8" d="M27.64,44.59c-5.2,4.44-5.16,12.67-3.08,18.61,1.39,3.99,3.78,7.85,6.91,10.71,2.97,2.71,6.65,4.55,10.41,5.89,4.41,1.57,9.07,2.45,13.73,2.76,1.03.07,1.02-1.53,0-1.6-3.92-.26-7.82-.97-11.57-2.13s-7.24-2.7-10.26-5.05-5.51-5.85-7.08-9.45c-1.41-3.24-2.1-6.83-1.78-10.36.29-3.07,1.45-6.2,3.84-8.24.78-.67-.35-1.8-1.13-1.13h0Z"/>
    <path class="cls-8" d="M49.72,76.24c1.43,2.31,3.22,4.37,5.33,6.09l.16-1.26c-2.72,1.64-5.45,3.28-8.17,4.92-.88.53-.08,1.91.81,1.38,2.72-1.64,5.45-3.28,8.17-4.92.4-.24.57-.92.16-1.26-2-1.63-3.71-3.57-5.08-5.76-.54-.87-1.93-.07-1.38.81h0Z"/>
  </g>
  <text class="cls-7" transform="translate(30.72 34.72) rotate(-6.26) scale(1.01 1)"><tspan class="cls-1" x="0" y="0">j</tspan><tspan x="4.06" y="0">ust build</tspan><tspan x="0" y="18">this bit!</tspan></text>
  <path class="cls-8" d="M208.61,265.01c-5.93.88-12.01,1.32-18.03,1.03-7.3-.35-14.74-1.78-21.19-5.34-3.82-2.11-7.19-4.97-9.79-8.48l-.69,1.2c3.2.07,6.4.12,9.61.18,1.04.02,1.02-1.54,0-1.6-3.18-.18-6.43-.41-9.61-.18-.44.03-.79.34-.8.8-.05,2.84-.1,5.68-.15,8.52-.02,1.03,1.58,1.03,1.6,0,.05-2.84.1-5.68.15-8.52l-.8.8c3.18-.24,6.43,0,9.61.18v-1.6c-3.2-.06-6.4-.11-9.61-.18-.56-.01-1.06.71-.69,1.2,4.79,6.47,11.79,10.6,19.49,12.69,7.06,1.92,14.51,2.28,21.79,1.85,3.19-.19,6.37-.55,9.54-1.02.43-.06.66-.6.56-.98-.12-.46-.56-.62-.98-.56h0Z"/>
  <path class="cls-8" d="M362.01,151.36c3.69,1.99,5.63,6.16,5.95,10.25.46,6.01-2.12,11.87-5.81,16.49-4.59,5.76-10.66,10.03-17.51,12.66s-14.49,4.12-21.91,5.06-15,1.38-22.52,1.55c-.84.02-1.68.03-2.51.05-.63,0-1.14.91-.57,1.37,1.5,1.18,3,2.35,4.5,3.53l.97-1.26c-2.06-1.07-4.12-2.14-6.18-3.21v1.38c1.79-1.38,3.58-2.75,5.37-4.13.35-.27.52-.69.29-1.09-.19-.34-.75-.55-1.09-.29-1.79,1.38-3.58,2.75-5.37,4.13-.44.34-.59,1.08,0,1.38,2.06,1.07,4.12,2.14,6.18,3.21.76.39,1.72-.67.97-1.26-1.5-1.18-3-2.35-4.5-3.53l-.57,1.37c7.66-.12,15.32-.48,22.94-1.35s15.53-2.21,22.9-4.81c3.25-1.15,6.45-2.54,9.38-4.38,3.42-2.14,6.58-4.87,9.24-7.9,4.26-4.84,7.46-10.99,7.47-17.57,0-4.63-1.72-9.45-5.55-12.26-.4-.29-.81-.55-1.24-.78-.91-.49-1.71.89-.81,1.38h0Z"/>
  <g>
    <g>
      <g>
        <polygon class="cls-5" points="300.07 21.65 286.37 23.63 280.69 18.84 294.4 16.85 300.07 21.65"/>
        <polygon class="cls-5" points="286.37 32.68 300.07 30.69 300.07 21.65 286.37 23.63 286.37 32.68"/>
        <g>
          <path class="cls-2" d="M288.65,15.39c-1.74.25-2.79.84-2.79,1.46v3.39c0,.2.11.41.34.61.72.61,2.4.98,4.18.98v-6.56c-.58,0-1.16.04-1.73.12Z"/>
          <path class="cls-5" d="M294.9,16.85c0-.2-.11-.41-.34-.61-.72-.61-2.4-.98-4.18-.98v6.56c.58,0,1.16-.04,1.73-.12,1.74-.25,2.79-.84,2.79-1.46v-3.39Z"/>
        </g>
        <path class="cls-5" d="M294.56,16.25c.96.81-.14,1.73-2.45,2.07s-4.95-.05-5.91-.86.14-1.73,2.45-2.07,4.95.05,5.91.86Z"/>
        <polygon class="cls-2" points="280.69 18.84 280.69 27.88 286.37 32.68 286.37 23.63 280.69 18.84"/>
      </g>
      <text class="cls-6" transform="translate(306.49 27.76) scale(1.01 1)"><tspan x="0" y="0">Business Logic</tspan></text>
    </g>
    <g>
      <g>
        <polygon class="cls-3" points="300.07 43.66 286.37 45.65 280.69 40.85 294.4 38.86 300.07 43.66"/>
        <polygon class="cls-3" points="286.37 54.69 300.07 52.7 300.07 43.66 286.37 45.65 286.37 54.69"/>
        <g>
          <path class="cls-2" d="M288.65,37.4c-1.74.25-2.79.84-2.79,1.46v3.39c0,.2.11.41.34.61.72.61,2.4.98,4.18.98v-6.56c-.58,0-1.16.04-1.73.12Z"/>
          <path class="cls-3" d="M294.9,38.86c0-.2-.11-.41-.34-.61-.72-.61-2.4-.98-4.18-.98v6.56c.58,0,1.16-.04,1.73-.12,1.74-.25,2.79-.84,2.79-1.46v-3.39Z"/>
        </g>
        <path class="cls-3" d="M294.56,38.26c.96.81-.14,1.73-2.45,2.07s-4.95-.05-5.91-.86.14-1.73,2.45-2.07,4.95.05,5.91.86Z"/>
        <polygon class="cls-2" points="280.69 40.85 280.69 49.89 286.37 54.69 286.37 45.65 280.69 40.85"/>
      </g>
      <text class="cls-6" transform="translate(306.49 49.77) scale(1.01 1)"><tspan x="0" y="0">Reusable Components</tspan></text>
    </g>
    <g>
      <g>
        <polygon class="cls-4" points="300.07 65.35 286.37 67.34 280.69 62.54 294.4 60.56 300.07 65.35"/>
        <polygon class="cls-4" points="286.37 76.38 300.07 74.4 300.07 65.35 286.37 67.34 286.37 76.38"/>
        <g>
          <path class="cls-2" d="M288.65,59.1c-1.74.25-2.79.84-2.79,1.46v3.39c0,.2.11.41.34.61.72.61,2.4.98,4.18.98v-6.56c-.58,0-1.16.04-1.73.12Z"/>
          <path class="cls-4" d="M294.9,60.56c0-.2-.11-.41-.34-.61-.72-.61-2.4-.98-4.18-.98v6.56c.58,0,1.16-.04,1.73-.12,1.74-.25,2.79-.84,2.79-1.46v-3.39Z"/>
        </g>
        <path class="cls-4" d="M294.56,59.95c.96.81-.14,1.73-2.45,2.07s-4.95-.05-5.91-.86.14-1.73,2.45-2.07,4.95.05,5.91.86Z"/>
        <polygon class="cls-2" points="280.69 62.54 280.69 71.59 286.37 76.38 286.37 67.34 280.69 62.54"/>
      </g>
      <text class="cls-6" transform="translate(306.49 71.46) scale(1.01 1)"><tspan x="0" y="0">Reusable Providers</tspan></text>
    </g>
  </g>
</svg>