<?xml version="1.0" encoding="UTF-8"?>
<svg id="Layer_1" data-name="Layer 1" xmlns="http://www.w3.org/2000/svg" viewBox="0 0 441.5 294.33">
  <defs>
    <style>
      .cls-1 {
        letter-spacing: -.01em;
      }

      .cls-2, .cls-3, .cls-4, .cls-5 {
        stroke: #002e5d;
        stroke-linecap: round;
        stroke-linejoin: round;
      }

      .cls-2, .cls-6 {
        fill: #002e5d;
      }

      .cls-3 {
        fill: #ffb600;
      }

      .cls-7 {
        font-family: CaveatRoman-Bold, Caveat;
        font-size: 20px;
        font-variation-settings: 'wght' 700;
        font-weight: 700;
      }

      .cls-7, .cls-8, .cls-5 {
        fill: #00c389;
      }

      .cls-8 {
        stroke-width: 0px;
      }

      .cls-4 {
        fill: #768692;
      }

      .cls-6 {
        font-family: CascadiaMonoPL-Regular, 'Cascadia Mono PL';
        font-size: 11px;
        letter-spacing: -.02em;
      }
    </style>
  </defs>
  <text class="cls-7" transform="translate(313.8 143.35) rotate(-1.65) scale(1.01 1)"><tspan x="0" y="0">get capabilities </tspan><tspan x="0" y="18">for free!</tspan></text>
  <text class="cls-7" transform="translate(235.29 262.37) rotate(-5.78) scale(1.01 1)"><tspan x="0" y="0">make this</tspan><tspan x="0" y="18">reusable</tspan></text>
  <g>
    <polygon class="cls-4" points="190.93 206.93 190.93 237.29 305.96 220.61 305.96 190.25 190.93 206.93"/>
    <polygon class="cls-2" points="171.88 190.82 171.88 221.19 190.93 237.29 190.93 206.93 171.88 190.82"/>
    <polygon class="cls-4" points="286.9 174.15 171.88 190.82 190.93 206.93 305.96 190.25 286.9 174.15"/>
    <g>
      <g>
        <path class="cls-2" d="M185.24,185.03c-2.92.42-4.68,1.41-4.69,2.45v5.69c0,.34.18.68.58,1.02,1.21,1.02,4.03,1.64,7.01,1.64v-11.01c-.97,0-1.95.06-2.9.2Z"/>
        <path class="cls-4" d="M195.73,187.49c0-.34-.18-.68-.58-1.02-1.21-1.02-4.03-1.64-7.01-1.64v11.01c.97,0,1.95-.06,2.9-.2,2.92-.42,4.68-1.41,4.69-2.45v-5.69Z"/>
      </g>
      <path class="cls-4" d="M195.15,186.47c1.6,1.36-.23,2.91-4.11,3.47s-8.31-.08-9.92-1.44.23-2.91,4.11-3.47,8.31.08,9.92,1.44Z"/>
    </g>
    <g>
      <g>
        <path class="cls-2" d="M194.77,193.08c-2.92.42-4.68,1.41-4.69,2.45v5.69c0,.34.18.68.58,1.02,1.21,1.02,4.03,1.64,7.01,1.64v-11.01c-.97,0-1.95.06-2.9.2Z"/>
        <path class="cls-4" d="M205.26,195.54c0-.34-.18-.68-.58-1.02-1.21-1.02-4.03-1.64-7.01-1.64v11.01c.97,0,1.95-.06,2.9-.2,2.92-.42,4.68-1.41,4.69-2.45v-5.69Z"/>
      </g>
      <path class="cls-4" d="M204.68,194.52c1.6,1.36-.23,2.91-4.11,3.47s-8.31-.08-9.92-1.44.23-2.91,4.11-3.47,8.31.08,9.92,1.44Z"/>
    </g>
    <g>
      <g>
        <path class="cls-2" d="M254.25,175.03c-2.92.42-4.68,1.41-4.69,2.45v5.69c0,.34.18.68.58,1.02,1.21,1.02,4.03,1.64,7.01,1.64v-11.01c-.97,0-1.95.06-2.9.2Z"/>
        <path class="cls-4" d="M264.75,177.48c0-.34-.18-.68-.58-1.02-1.21-1.02-4.03-1.64-7.01-1.64v11.01c.97,0,1.95-.06,2.9-.2,2.92-.42,4.68-1.41,4.69-2.45v-5.69Z"/>
      </g>
      <path class="cls-4" d="M264.17,176.47c1.6,1.36-.23,2.91-4.11,3.47s-8.31-.08-9.92-1.44.23-2.91,4.11-3.47,8.31.08,9.92,1.44Z"/>
    </g>
    <g>
      <g>
        <path class="cls-2" d="M263.78,183.08c-2.92.42-4.68,1.41-4.69,2.45v5.69c0,.34.18.68.58,1.02,1.21,1.02,4.03,1.64,7.01,1.64v-11.01c-.97,0-1.95.06-2.9.2Z"/>
        <path class="cls-4" d="M274.28,185.53c0-.34-.18-.68-.58-1.02-1.21-1.02-4.03-1.64-7.01-1.64v11.01c.97,0,1.95-.06,2.9-.2,2.92-.42,4.68-1.41,4.69-2.45v-5.69Z"/>
      </g>
      <path class="cls-4" d="M273.7,184.52c1.6,1.36-.23,2.91-4.11,3.47s-8.31-.08-9.92-1.44.23-2.91,4.11-3.47,8.31.08,9.92,1.44Z"/>
    </g>
    <g>
      <g>
        <path class="cls-2" d="M231.25,178.36c-2.92.42-4.68,1.41-4.69,2.45v5.69c0,.34.18.68.58,1.02,1.21,1.02,4.03,1.64,7.01,1.64v-11.01c-.97,0-1.95.06-2.9.2Z"/>
        <path class="cls-4" d="M241.74,180.82c0-.34-.18-.68-.58-1.02-1.21-1.02-4.03-1.64-7.01-1.64v11.01c.97,0,1.95-.06,2.9-.2,2.92-.42,4.68-1.41,4.69-2.45v-5.69Z"/>
      </g>
      <path class="cls-4" d="M241.16,179.8c1.6,1.36-.23,2.91-4.11,3.47s-8.31-.08-9.92-1.44.23-2.91,4.11-3.47,8.31.08,9.92,1.44Z"/>
    </g>
    <g>
      <g>
        <path class="cls-2" d="M240.78,186.41c-2.92.42-4.68,1.41-4.69,2.45v5.69c0,.34.18.68.58,1.02,1.21,1.02,4.03,1.64,7.01,1.64v-11.01c-.97,0-1.95.06-2.9.2Z"/>
        <path class="cls-4" d="M251.27,188.87c0-.34-.18-.68-.58-1.02-1.21-1.02-4.03-1.64-7.01-1.64v11.01c.97,0,1.95-.06,2.9-.2,2.92-.42,4.68-1.41,4.69-2.45v-5.69Z"/>
      </g>
      <path class="cls-4" d="M250.69,187.85c1.6,1.36-.23,2.91-4.11,3.47s-8.31-.08-9.92-1.44.23-2.91,4.11-3.47,8.31.08,9.92,1.44Z"/>
    </g>
    <g>
      <g>
        <path class="cls-2" d="M208.24,181.7c-2.92.42-4.68,1.41-4.69,2.45v5.69c0,.34.18.68.58,1.02,1.21,1.02,4.03,1.64,7.01,1.64v-11.01c-.97,0-1.95.06-2.9.2Z"/>
        <path class="cls-4" d="M218.74,184.15c0-.34-.18-.68-.58-1.02-1.21-1.02-4.03-1.64-7.01-1.64v11.01c.97,0,1.95-.06,2.9-.2,2.92-.42,4.68-1.41,4.69-2.45v-5.69Z"/>
      </g>
      <path class="cls-4" d="M218.16,183.14c1.6,1.36-.23,2.91-4.11,3.47s-8.31-.08-9.92-1.44.23-2.91,4.11-3.47,8.31.08,9.92,1.44Z"/>
    </g>
    <g>
      <g>
        <path class="cls-2" d="M217.77,189.75c-2.92.42-4.68,1.41-4.69,2.45v5.69c0,.34.18.68.58,1.02,1.21,1.02,4.03,1.64,7.01,1.64v-11.01c-.97,0-1.95.06-2.9.2Z"/>
        <path class="cls-4" d="M228.27,192.2c0-.34-.18-.68-.58-1.02-1.21-1.02-4.03-1.64-7.01-1.64v11.01c.97,0,1.95-.06,2.9-.2,2.92-.42,4.68-1.41,4.69-2.45v-5.69Z"/>
      </g>
      <path class="cls-4" d="M227.69,191.19c1.6,1.36-.23,2.91-4.11,3.47s-8.31-.08-9.92-1.44.23-2.91,4.11-3.47,8.31.08,9.92,1.44Z"/>
    </g>
    <g>
      <g>
        <path class="cls-2" d="M277.26,171.69c-2.92.42-4.68,1.41-4.69,2.45v5.69c0,.34.18.68.58,1.02,1.21,1.02,4.03,1.64,7.01,1.64v-11.01c-.97,0-1.95.06-2.9.2Z"/>
        <path class="cls-4" d="M287.75,174.15c0-.34-.18-.68-.58-1.02-1.21-1.02-4.03-1.64-7.01-1.64v11.01c.97,0,1.95-.06,2.9-.2,2.92-.42,4.68-1.41,4.69-2.45v-5.69Z"/>
      </g>
      <path class="cls-4" d="M287.17,173.13c1.6,1.36-.23,2.91-4.11,3.47s-8.31-.08-9.92-1.44.23-2.91,4.11-3.47,8.31.08,9.92,1.44Z"/>
    </g>
    <g>
      <g>
        <path class="cls-2" d="M286.79,179.74c-2.92.42-4.68,1.41-4.69,2.45v5.69c0,.34.18.68.58,1.02,1.21,1.02,4.03,1.64,7.01,1.64v-11.01c-.97,0-1.95.06-2.9.2Z"/>
        <path class="cls-4" d="M297.28,182.2c0-.34-.18-.68-.58-1.02-1.21-1.02-4.03-1.64-7.01-1.64v11.01c.97,0,1.95-.06,2.9-.2,2.92-.42,4.68-1.41,4.69-2.45v-5.69Z"/>
      </g>
      <path class="cls-4" d="M296.7,181.18c1.6,1.36-.23,2.91-4.11,3.47s-8.31-.08-9.92-1.44.23-2.91,4.11-3.47,8.31.08,9.92,1.44Z"/>
    </g>
  </g>
  <g>
    <polygon class="cls-3" points="171.88 203.78 148.87 207.12 125.87 210.45 144.92 226.56 167.93 223.22 190.93 219.89 171.88 203.78"/>
    <polygon class="cls-3" points="167.93 223.22 144.92 226.56 144.92 256.92 167.93 253.59 190.93 250.25 190.93 219.89 167.93 223.22"/>
    <polygon class="cls-2" points="125.87 210.45 125.87 240.82 144.92 256.92 144.92 226.56 125.87 210.45"/>
    <g>
      <g>
        <path class="cls-2" d="M139.23,204.66c-2.92.42-4.68,1.41-4.69,2.45v5.69c0,.34.18.68.58,1.02,1.21,1.02,4.03,1.64,7.01,1.64v-11.01c-.97,0-1.95.06-2.9.2Z"/>
        <path class="cls-3" d="M149.72,207.12c0-.34-.18-.68-.58-1.02-1.21-1.02-4.03-1.64-7.01-1.64v11.01c.97,0,1.95-.06,2.9-.2,2.92-.42,4.68-1.41,4.69-2.45v-5.69Z"/>
      </g>
      <path class="cls-3" d="M149.15,206.1c1.6,1.36-.23,2.91-4.11,3.47s-8.31-.08-9.92-1.44.23-2.91,4.11-3.47,8.31.08,9.92,1.44Z"/>
    </g>
    <g>
      <g>
        <path class="cls-2" d="M148.76,212.72c-2.92.42-4.68,1.41-4.69,2.45v5.69c0,.34.18.68.58,1.02,1.21,1.02,4.03,1.64,7.01,1.64v-11.01c-.97,0-1.95.06-2.9.2Z"/>
        <path class="cls-3" d="M159.25,215.17c0-.34-.18-.68-.58-1.02-1.21-1.02-4.03-1.64-7.01-1.64v11.01c.97,0,1.95-.06,2.9-.2,2.92-.42,4.68-1.41,4.69-2.45v-5.69Z"/>
      </g>
      <path class="cls-3" d="M158.67,214.15c1.6,1.36-.23,2.91-4.11,3.47s-8.31-.08-9.92-1.44c-1.6-1.36.23-2.91,4.11-3.47s8.31.08,9.92,1.44Z"/>
    </g>
    <g>
      <g>
        <path class="cls-2" d="M162.23,201.33c-2.92.42-4.68,1.41-4.69,2.45v5.69c0,.34.18.68.58,1.02,1.21,1.02,4.03,1.64,7.01,1.64v-11.01c-.97,0-1.95.06-2.9.2Z"/>
        <path class="cls-3" d="M172.73,203.78c0-.34-.18-.68-.58-1.02-1.21-1.02-4.03-1.64-7.01-1.64v11.01c.97,0,1.95-.06,2.9-.2,2.92-.42,4.68-1.41,4.69-2.45v-5.69Z"/>
      </g>
      <path class="cls-3" d="M172.15,202.77c1.6,1.36-.23,2.91-4.11,3.47s-8.31-.08-9.92-1.44c-1.6-1.36.23-2.91,4.11-3.47,3.87-.56,8.31.08,9.92,1.44Z"/>
    </g>
    <g>
      <g>
        <path class="cls-2" d="M171.76,209.38c-2.92.42-4.68,1.41-4.69,2.45v5.69c0,.34.18.68.58,1.02,1.21,1.02,4.03,1.64,7.01,1.64v-11.01c-.97,0-1.95.06-2.9.2Z"/>
        <path class="cls-3" d="M182.26,211.84c0-.34-.18-.68-.58-1.02-1.21-1.02-4.03-1.64-7.01-1.64v11.01c.97,0,1.95-.06,2.9-.2,2.92-.42,4.68-1.41,4.69-2.45v-5.69Z"/>
      </g>
      <path class="cls-3" d="M181.68,210.82c1.6,1.36-.23,2.91-4.11,3.47s-8.31-.08-9.92-1.44.23-2.91,4.11-3.47c3.87-.56,8.31.08,9.92,1.44Z"/>
    </g>
  </g>
  <g>
    <polygon class="cls-3" points="263.89 129.68 240.89 133.02 217.89 136.35 236.94 152.45 259.95 149.12 282.95 145.78 263.89 129.68"/>
    <polygon class="cls-3" points="259.95 149.12 236.94 152.45 236.94 182.82 259.95 179.48 282.95 176.15 282.95 145.78 259.95 149.12"/>
    <polygon class="cls-2" points="217.89 136.35 217.89 166.72 236.94 182.82 236.94 152.45 217.89 136.35"/>
    <g>
      <g>
        <path class="cls-2" d="M231.25,130.56c-2.92.42-4.68,1.41-4.69,2.45v5.69c0,.34.18.68.58,1.02,1.21,1.02,4.03,1.64,7.01,1.64v-11.01c-.97,0-1.95.06-2.9.2Z"/>
        <path class="cls-3" d="M241.74,133.02c0-.34-.18-.68-.58-1.02-1.21-1.02-4.03-1.64-7.01-1.64v11.01c.97,0,1.95-.06,2.9-.2,2.92-.42,4.68-1.41,4.69-2.45v-5.69Z"/>
      </g>
      <path class="cls-3" d="M241.16,132c1.6,1.36-.23,2.91-4.11,3.47s-8.31-.08-9.92-1.44.23-2.91,4.11-3.47,8.31.08,9.92,1.44Z"/>
    </g>
    <g>
      <g>
        <path class="cls-2" d="M240.78,138.61c-2.92.42-4.68,1.41-4.69,2.45v5.69c0,.34.18.68.58,1.02,1.21,1.02,4.03,1.64,7.01,1.64v-11.01c-.97,0-1.95.06-2.9.2Z"/>
        <path class="cls-3" d="M251.27,141.07c0-.34-.18-.68-.58-1.02-1.21-1.02-4.03-1.64-7.01-1.64v11.01c.97,0,1.95-.06,2.9-.2,2.92-.42,4.68-1.41,4.69-2.45v-5.69Z"/>
      </g>
      <path class="cls-3" d="M250.69,140.05c1.6,1.36-.23,2.91-4.11,3.47s-8.31-.08-9.92-1.44c-1.6-1.36.23-2.91,4.11-3.47s8.31.08,9.92,1.44Z"/>
    </g>
    <g>
      <g>
        <path class="cls-2" d="M254.25,127.23c-2.92.42-4.68,1.41-4.69,2.45v5.69c0,.34.18.68.58,1.02,1.21,1.02,4.03,1.64,7.01,1.64v-11.01c-.97,0-1.95.06-2.9.2Z"/>
        <path class="cls-3" d="M264.75,129.68c0-.34-.18-.68-.58-1.02-1.21-1.02-4.03-1.64-7.01-1.64v11.01c.97,0,1.95-.06,2.9-.2,2.92-.42,4.68-1.41,4.69-2.45v-5.69Z"/>
      </g>
      <path class="cls-3" d="M264.17,128.66c1.6,1.36-.23,2.91-4.11,3.47s-8.31-.08-9.92-1.44.23-2.91,4.11-3.47c3.87-.56,8.31.08,9.92,1.44Z"/>
    </g>
    <g>
      <g>
        <path class="cls-2" d="M263.78,135.28c-2.92.42-4.68,1.41-4.69,2.45v5.69c0,.34.18.68.58,1.02,1.21,1.02,4.03,1.64,7.01,1.64v-11.01c-.97,0-1.95.06-2.9.2Z"/>
        <path class="cls-3" d="M274.28,137.73c0-.34-.18-.68-.58-1.02-1.21-1.02-4.03-1.64-7.01-1.64v11.01c.97,0,1.95-.06,2.9-.2,2.92-.42,4.68-1.41,4.69-2.45v-5.69Z"/>
      </g>
      <path class="cls-3" d="M273.7,136.72c1.6,1.36-.23,2.91-4.11,3.47s-8.31-.08-9.92-1.44.23-2.91,4.11-3.47c3.87-.56,8.31.08,9.92,1.44Z"/>
    </g>
  </g>
  <g>
    <polygon class="cls-4" points="217.89 142.04 194.88 145.38 171.88 148.71 148.87 152.05 167.93 168.15 190.93 164.82 213.94 161.48 236.94 158.15 217.89 142.04"/>
    <polygon class="cls-4" points="213.94 161.48 190.93 164.82 167.93 168.15 167.93 198.52 190.93 195.18 213.94 191.85 236.94 188.51 236.94 158.15 213.94 161.48"/>
    <polygon class="cls-2" points="148.87 152.05 148.87 182.41 167.93 198.52 167.93 168.15 148.87 152.05"/>
    <g>
      <g>
        <path class="cls-2" d="M162.23,146.26c-2.92.42-4.68,1.41-4.69,2.45v5.69c0,.34.18.68.58,1.02,1.21,1.02,4.03,1.64,7.01,1.64v-11.01c-.97,0-1.95.06-2.9.2Z"/>
        <path class="cls-4" d="M172.73,148.71c0-.34-.18-.68-.58-1.02-1.21-1.02-4.03-1.64-7.01-1.64v11.01c.97,0,1.95-.06,2.9-.2,2.92-.42,4.68-1.41,4.69-2.45v-5.69Z"/>
      </g>
      <path class="cls-4" d="M172.15,147.7c1.6,1.36-.23,2.91-4.11,3.47s-8.31-.08-9.92-1.44.23-2.91,4.11-3.47c3.87-.56,8.31.08,9.92,1.44Z"/>
    </g>
    <g>
      <g>
        <path class="cls-2" d="M171.76,154.31c-2.92.42-4.68,1.41-4.69,2.45v5.69c0,.34.18.68.58,1.02,1.21,1.02,4.03,1.64,7.01,1.64v-11.01c-.97,0-1.95.06-2.9.2Z"/>
        <path class="cls-4" d="M182.26,156.77c0-.34-.18-.68-.58-1.02-1.21-1.02-4.03-1.64-7.01-1.64v11.01c.97,0,1.95-.06,2.9-.2,2.92-.42,4.68-1.41,4.69-2.45v-5.69Z"/>
      </g>
      <path class="cls-4" d="M181.68,155.75c1.6,1.36-.23,2.91-4.11,3.47s-8.31-.08-9.92-1.44.23-2.91,4.11-3.47,8.31.08,9.92,1.44Z"/>
    </g>
    <g>
      <g>
        <path class="cls-2" d="M208.24,139.59c-2.92.42-4.68,1.41-4.69,2.45v5.69c0,.34.18.68.58,1.02,1.21,1.02,4.03,1.64,7.01,1.64v-11.01c-.97,0-1.95.06-2.9.2Z"/>
        <path class="cls-4" d="M218.74,142.04c0-.34-.18-.68-.58-1.02-1.21-1.02-4.03-1.64-7.01-1.64v11.01c.97,0,1.95-.06,2.9-.2,2.92-.42,4.68-1.41,4.69-2.45v-5.69Z"/>
      </g>
      <path class="cls-4" d="M218.16,141.03c1.6,1.36-.23,2.91-4.11,3.47-3.87.56-8.31-.08-9.92-1.44s.23-2.91,4.11-3.47c3.87-.56,8.31.08,9.92,1.44Z"/>
    </g>
    <g>
      <g>
        <path class="cls-2" d="M217.77,147.64c-2.92.42-4.68,1.41-4.69,2.45v5.69c0,.34.18.68.58,1.02,1.21,1.02,4.03,1.64,7.01,1.64v-11.01c-.97,0-1.95.06-2.9.2Z"/>
        <path class="cls-4" d="M228.27,150.1c0-.34-.18-.68-.58-1.02-1.21-1.02-4.03-1.64-7.01-1.64v11.01c.97,0,1.95-.06,2.9-.2,2.92-.42,4.68-1.41,4.69-2.45v-5.69Z"/>
      </g>
      <path class="cls-4" d="M227.69,149.08c1.6,1.36-.23,2.91-4.11,3.47-3.87.56-8.31-.08-9.92-1.44s.23-2.91,4.11-3.47c3.87-.56,8.31.08,9.92,1.44Z"/>
    </g>
    <g>
      <g>
        <path class="cls-2" d="M185.24,142.93c-2.92.42-4.68,1.41-4.69,2.45v5.69c0,.34.18.68.58,1.02,1.21,1.02,4.03,1.64,7.01,1.64v-11.01c-.97,0-1.95.06-2.9.2Z"/>
        <path class="cls-4" d="M195.73,145.38c0-.34-.18-.68-.58-1.02-1.21-1.02-4.03-1.64-7.01-1.64v11.01c.97,0,1.95-.06,2.9-.2,2.92-.42,4.68-1.41,4.69-2.45v-5.69Z"/>
      </g>
      <path class="cls-4" d="M195.15,144.36c1.6,1.36-.23,2.91-4.11,3.47-3.87.56-8.31-.08-9.92-1.44s.23-2.91,4.11-3.47,8.31.08,9.92,1.44Z"/>
    </g>
    <g>
      <g>
        <path class="cls-2" d="M194.77,150.98c-2.92.42-4.68,1.41-4.69,2.45v5.69c0,.34.18.68.58,1.02,1.21,1.02,4.03,1.64,7.01,1.64v-11.01c-.97,0-1.95.06-2.9.2Z"/>
        <path class="cls-4" d="M205.26,153.43c0-.34-.18-.68-.58-1.02-1.21-1.02-4.03-1.64-7.01-1.64v11.01c.97,0,1.95-.06,2.9-.2,2.92-.42,4.68-1.41,4.69-2.45v-5.69Z"/>
      </g>
      <path class="cls-4" d="M204.68,152.41c1.6,1.36-.23,2.91-4.11,3.47s-8.31-.08-9.92-1.44.23-2.91,4.11-3.47,8.31.08,9.92,1.44Z"/>
    </g>
  </g>
  <g>
    <polygon class="cls-5" points="282.95 104.18 259.95 107.52 240.89 91.42 263.89 88.08 282.95 104.18"/>
    <polygon class="cls-5" points="259.95 137.88 282.95 134.55 282.95 104.18 259.95 107.52 259.95 137.88"/>
    <polygon class="cls-2" points="240.89 91.42 240.89 121.78 259.95 137.88 259.95 107.52 240.89 91.42"/>
    <g>
      <g>
        <path class="cls-2" d="M254.25,85.63c-2.92.42-4.68,1.41-4.69,2.45v5.69c0,.34.18.68.58,1.02,1.21,1.02,4.03,1.64,7.01,1.64v-11.01c-.97,0-1.95.06-2.9.2Z"/>
        <path class="cls-5" d="M264.75,88.08c0-.34-.18-.68-.58-1.02-1.21-1.02-4.03-1.64-7.01-1.64v11.01c.97,0,1.95-.06,2.9-.2,2.92-.42,4.68-1.41,4.69-2.45v-5.69Z"/>
      </g>
      <path class="cls-5" d="M264.17,87.06c1.6,1.36-.23,2.91-4.11,3.47-3.87.56-8.31-.08-9.92-1.44s.23-2.91,4.11-3.47c3.87-.56,8.31.08,9.92,1.44Z"/>
    </g>
    <g>
      <g>
        <path class="cls-2" d="M263.78,93.68c-2.92.42-4.68,1.41-4.69,2.45v5.69c0,.34.18.68.58,1.02,1.21,1.02,4.03,1.64,7.01,1.64v-11.01c-.97,0-1.95.06-2.9.2Z"/>
        <path class="cls-5" d="M274.28,96.13c0-.34-.18-.68-.58-1.02-1.21-1.02-4.03-1.64-7.01-1.64v11.01c.97,0,1.95-.06,2.9-.2,2.92-.42,4.68-1.41,4.69-2.45v-5.69Z"/>
      </g>
      <path class="cls-5" d="M273.7,95.12c1.6,1.36-.23,2.91-4.11,3.47-3.87.56-8.31-.08-9.92-1.44s.23-2.91,4.11-3.47c3.87-.56,8.31.08,9.92,1.44Z"/>
    </g>
  </g>
  <g>
    <polygon class="cls-5" points="148.87 162.42 125.87 165.75 102.86 169.09 79.86 172.42 56.85 175.76 75.91 191.86 98.91 188.53 121.92 185.19 144.92 181.86 167.93 178.52 148.87 162.42"/>
    <polygon class="cls-5" points="75.91 191.86 75.91 222.23 167.93 208.89 167.93 178.52 75.91 191.86"/>
    <polygon class="cls-2" points="56.85 175.76 56.85 206.12 75.91 222.23 75.91 191.86 56.85 175.76"/>
    <g>
      <g>
        <path class="cls-2" d="M70.21,169.97c-2.92.42-4.68,1.41-4.69,2.45v5.69c0,.34.18.68.58,1.02,1.21,1.02,4.03,1.64,7.01,1.64v-11.01c-.97,0-1.95.06-2.9.2Z"/>
        <path class="cls-5" d="M80.71,172.42c0-.34-.18-.68-.58-1.02-1.21-1.02-4.03-1.64-7.01-1.64v11.01c.97,0,1.95-.06,2.9-.2,2.92-.42,4.68-1.41,4.69-2.45v-5.69Z"/>
      </g>
      <path class="cls-5" d="M80.13,171.41c1.6,1.36-.23,2.91-4.11,3.47s-8.31-.08-9.92-1.44.23-2.91,4.11-3.47c3.87-.56,8.31.08,9.92,1.44Z"/>
    </g>
    <g>
      <g>
        <path class="cls-2" d="M79.74,178.02c-2.92.42-4.68,1.41-4.69,2.45v5.69c0,.34.18.68.58,1.02,1.21,1.02,4.03,1.64,7.01,1.64v-11.01c-.97,0-1.95.06-2.9.2Z"/>
        <path class="cls-5" d="M90.24,180.48c0-.34-.18-.68-.58-1.02-1.21-1.02-4.03-1.64-7.01-1.64v11.01c.97,0,1.95-.06,2.9-.2,2.92-.42,4.68-1.41,4.69-2.45v-5.69Z"/>
      </g>
      <path class="cls-5" d="M89.66,179.46c1.6,1.36-.23,2.91-4.11,3.47s-8.31-.08-9.92-1.44.23-2.91,4.11-3.47c3.87-.56,8.31.08,9.92,1.44Z"/>
    </g>
    <g>
      <g>
        <path class="cls-2" d="M139.23,159.96c-2.92.42-4.68,1.41-4.69,2.45v5.69c0,.34.18.68.58,1.02,1.21,1.02,4.03,1.64,7.01,1.64v-11.01c-.97,0-1.95.06-2.9.2Z"/>
        <path class="cls-5" d="M149.72,162.42c0-.34-.18-.68-.58-1.02-1.21-1.02-4.03-1.64-7.01-1.64v11.01c.97,0,1.95-.06,2.9-.2,2.92-.42,4.68-1.41,4.69-2.45v-5.69Z"/>
      </g>
      <path class="cls-5" d="M149.14,161.4c1.6,1.36-.23,2.91-4.11,3.47-3.87.56-8.31-.08-9.92-1.44s.23-2.91,4.11-3.47c3.87-.56,8.31.08,9.92,1.44Z"/>
    </g>
    <g>
      <g>
        <path class="cls-2" d="M148.76,168.02c-2.92.42-4.68,1.41-4.69,2.45v5.69c0,.34.18.68.58,1.02,1.21,1.02,4.03,1.64,7.01,1.64v-11.01c-.97,0-1.95.06-2.9.2Z"/>
        <path class="cls-5" d="M159.25,170.47c0-.34-.18-.68-.58-1.02-1.21-1.02-4.03-1.64-7.01-1.64v11.01c.97,0,1.95-.06,2.9-.2,2.92-.42,4.68-1.41,4.69-2.45v-5.69Z"/>
      </g>
      <path class="cls-5" d="M158.67,169.45c1.6,1.36-.23,2.91-4.11,3.47s-8.31-.08-9.92-1.44.23-2.91,4.11-3.47,8.31.08,9.92,1.44Z"/>
    </g>
    <g>
      <g>
        <path class="cls-2" d="M116.22,163.3c-2.92.42-4.68,1.41-4.69,2.45v5.69c0,.34.18.68.58,1.02,1.21,1.02,4.03,1.64,7.01,1.64v-11.01c-.97,0-1.95.06-2.9.2Z"/>
        <path class="cls-5" d="M126.72,165.75c0-.34-.18-.68-.58-1.02-1.21-1.02-4.03-1.64-7.01-1.64v11.01c.97,0,1.95-.06,2.9-.2,2.92-.42,4.68-1.41,4.69-2.45v-5.69Z"/>
      </g>
      <path class="cls-5" d="M126.14,164.74c1.6,1.36-.23,2.91-4.11,3.47-3.87.56-8.31-.08-9.92-1.44-1.6-1.36.23-2.91,4.11-3.47s8.31.08,9.92,1.44Z"/>
    </g>
    <g>
      <g>
        <path class="cls-2" d="M125.75,171.35c-2.92.42-4.68,1.41-4.69,2.45v5.69c0,.34.18.68.58,1.02,1.21,1.02,4.03,1.64,7.01,1.64v-11.01c-.97,0-1.95.06-2.9.2Z"/>
        <path class="cls-5" d="M136.25,173.81c0-.34-.18-.68-.58-1.02-1.21-1.02-4.03-1.64-7.01-1.64v11.01c.97,0,1.95-.06,2.9-.2,2.92-.42,4.68-1.41,4.69-2.45v-5.69Z"/>
      </g>
      <path class="cls-5" d="M135.67,172.79c1.6,1.36-.23,2.91-4.11,3.47-3.87.56-8.31-.08-9.92-1.44s.23-2.91,4.11-3.47c3.87-.56,8.31.08,9.92,1.44Z"/>
    </g>
    <g>
      <g>
        <path class="cls-2" d="M93.22,166.64c-2.92.42-4.68,1.41-4.69,2.45v5.69c0,.34.18.68.58,1.02,1.21,1.02,4.03,1.64,7.01,1.64v-11.01c-.97,0-1.95.06-2.9.2Z"/>
        <path class="cls-5" d="M103.71,169.09c0-.34-.18-.68-.58-1.02-1.21-1.02-4.03-1.64-7.01-1.64v11.01c.97,0,1.95-.06,2.9-.2,2.92-.42,4.68-1.41,4.69-2.45v-5.69Z"/>
      </g>
      <path class="cls-5" d="M103.13,168.07c1.6,1.36-.23,2.91-4.11,3.47s-8.31-.08-9.92-1.44.23-2.91,4.11-3.47c3.87-.56,8.31.08,9.92,1.44Z"/>
    </g>
    <g>
      <g>
        <path class="cls-2" d="M102.75,174.69c-2.92.42-4.68,1.41-4.69,2.45v5.69c0,.34.18.68.58,1.02,1.21,1.02,4.03,1.64,7.01,1.64v-11.01c-.97,0-1.95.06-2.9.2Z"/>
        <path class="cls-5" d="M113.24,177.14c0-.34-.18-.68-.58-1.02-1.21-1.02-4.03-1.64-7.01-1.64v11.01c.97,0,1.95-.06,2.9-.2,2.92-.42,4.68-1.41,4.69-2.45v-5.69Z"/>
      </g>
      <path class="cls-5" d="M112.66,176.12c1.6,1.36-.23,2.91-4.11,3.47s-8.31-.08-9.92-1.44.23-2.91,4.11-3.47,8.31.08,9.92,1.44Z"/>
    </g>
  </g>
  <g>
    <polygon class="cls-3" points="217.89 111.68 194.88 115.01 171.88 118.35 190.93 134.45 213.94 131.12 236.94 127.78 217.89 111.68"/>
    <polygon class="cls-3" points="213.94 131.12 190.93 134.45 190.93 164.82 213.94 161.48 236.94 158.15 236.94 127.78 213.94 131.12"/>
    <polygon class="cls-2" points="171.88 118.35 171.88 148.71 190.93 164.82 190.93 134.45 171.88 118.35"/>
    <g>
      <g>
        <path class="cls-2" d="M185.24,112.56c-2.92.42-4.68,1.41-4.69,2.45v5.69c0,.34.18.68.58,1.02,1.21,1.02,4.03,1.64,7.01,1.64v-11.01c-.97,0-1.95.06-2.9.2Z"/>
        <path class="cls-3" d="M195.73,115.01c0-.34-.18-.68-.58-1.02-1.21-1.02-4.03-1.64-7.01-1.64v11.01c.97,0,1.95-.06,2.9-.2,2.92-.42,4.68-1.41,4.69-2.45v-5.69Z"/>
      </g>
      <path class="cls-3" d="M195.15,114c1.6,1.36-.23,2.91-4.11,3.47s-8.31-.08-9.92-1.44.23-2.91,4.11-3.47,8.31.08,9.92,1.44Z"/>
    </g>
    <g>
      <g>
        <path class="cls-2" d="M194.77,120.61c-2.92.42-4.68,1.41-4.69,2.45v5.69c0,.34.18.68.58,1.02,1.21,1.02,4.03,1.64,7.01,1.64v-11.01c-.97,0-1.95.06-2.9.2Z"/>
        <path class="cls-3" d="M205.26,123.07c0-.34-.18-.68-.58-1.02-1.21-1.02-4.03-1.64-7.01-1.64v11.01c.97,0,1.95-.06,2.9-.2,2.92-.42,4.68-1.41,4.69-2.45v-5.69Z"/>
      </g>
      <path class="cls-3" d="M204.68,122.05c1.6,1.36-.23,2.91-4.11,3.47s-8.31-.08-9.92-1.44c-1.6-1.36.23-2.91,4.11-3.47s8.31.08,9.92,1.44Z"/>
    </g>
    <g>
      <g>
        <path class="cls-2" d="M208.24,109.23c-2.92.42-4.68,1.41-4.69,2.45v5.69c0,.34.18.68.58,1.02,1.21,1.02,4.03,1.64,7.01,1.64v-11.01c-.97,0-1.95.06-2.9.2Z"/>
        <path class="cls-3" d="M218.74,111.68c0-.34-.18-.68-.58-1.02-1.21-1.02-4.03-1.64-7.01-1.64v11.01c.97,0,1.95-.06,2.9-.2,2.92-.42,4.68-1.41,4.69-2.45v-5.69Z"/>
      </g>
      <path class="cls-3" d="M218.16,110.66c1.6,1.36-.23,2.91-4.11,3.47s-8.31-.08-9.92-1.44c-1.6-1.36.23-2.91,4.11-3.47,3.87-.56,8.31.08,9.92,1.44Z"/>
    </g>
    <g>
      <g>
        <path class="cls-2" d="M217.77,117.28c-2.92.42-4.68,1.41-4.69,2.45v5.69c0,.34.18.68.58,1.02,1.21,1.02,4.03,1.64,7.01,1.64v-11.01c-.97,0-1.95.06-2.9.2Z"/>
        <path class="cls-3" d="M228.27,119.73c0-.34-.18-.68-.58-1.02-1.21-1.02-4.03-1.64-7.01-1.64v11.01c.97,0,1.95-.06,2.9-.2,2.92-.42,4.68-1.41,4.69-2.45v-5.69Z"/>
      </g>
      <path class="cls-3" d="M227.69,118.71c1.6,1.36-.23,2.91-4.11,3.47s-8.31-.08-9.92-1.44.23-2.91,4.11-3.47c3.87-.56,8.31.08,9.92,1.44Z"/>
    </g>
  </g>
  <g>
    <polygon class="cls-4" points="171.88 104.98 148.87 108.32 125.87 111.65 102.86 114.99 79.86 118.32 98.91 134.43 121.92 131.09 144.92 127.76 167.93 124.42 190.93 121.09 171.88 104.98"/>
    <polygon class="cls-4" points="98.91 134.43 98.91 164.79 190.93 151.45 190.93 121.09 98.91 134.43"/>
    <polygon class="cls-2" points="79.86 118.32 79.86 148.69 98.91 164.79 98.91 134.43 79.86 118.32"/>
    <g>
      <g>
        <path class="cls-2" d="M93.22,112.54c-2.92.42-4.68,1.41-4.69,2.45v5.69c0,.34.18.68.58,1.02,1.21,1.02,4.03,1.64,7.01,1.64v-11.01c-.97,0-1.95.06-2.9.2Z"/>
        <path class="cls-4" d="M103.71,114.99c0-.34-.18-.68-.58-1.02-1.21-1.02-4.03-1.64-7.01-1.64v11.01c.97,0,1.95-.06,2.9-.2,2.92-.42,4.68-1.41,4.69-2.45v-5.69Z"/>
      </g>
      <path class="cls-4" d="M103.13,113.97c1.6,1.36-.23,2.91-4.11,3.47s-8.31-.08-9.92-1.44.23-2.91,4.11-3.47c3.87-.56,8.31.08,9.92,1.44Z"/>
    </g>
    <g>
      <g>
        <path class="cls-2" d="M102.75,120.59c-2.92.42-4.68,1.41-4.69,2.45v5.69c0,.34.18.68.58,1.02,1.21,1.02,4.03,1.64,7.01,1.64v-11.01c-.97,0-1.95.06-2.9.2Z"/>
        <path class="cls-4" d="M113.24,123.04c0-.34-.18-.68-.58-1.02-1.21-1.02-4.03-1.64-7.01-1.64v11.01c.97,0,1.95-.06,2.9-.2,2.92-.42,4.68-1.41,4.69-2.45v-5.69Z"/>
      </g>
      <path class="cls-4" d="M112.66,122.02c1.6,1.36-.23,2.91-4.11,3.47s-8.31-.08-9.92-1.44.23-2.91,4.11-3.47c3.87-.56,8.31.08,9.92,1.44Z"/>
    </g>
    <g>
      <g>
        <path class="cls-2" d="M162.23,102.53c-2.92.42-4.68,1.41-4.69,2.45v5.69c0,.34.18.68.58,1.02,1.21,1.02,4.03,1.64,7.01,1.64v-11.01c-.97,0-1.95.06-2.9.2Z"/>
        <path class="cls-4" d="M172.73,104.98c0-.34-.18-.68-.58-1.02-1.21-1.02-4.03-1.64-7.01-1.64v11.01c.97,0,1.95-.06,2.9-.2,2.92-.42,4.68-1.41,4.69-2.45v-5.69Z"/>
      </g>
      <path class="cls-4" d="M172.15,103.97c1.6,1.36-.23,2.91-4.11,3.47-3.87.56-8.31-.08-9.92-1.44s.23-2.91,4.11-3.47,8.31.08,9.92,1.44Z"/>
    </g>
    <g>
      <g>
        <path class="cls-2" d="M171.76,110.58c-2.92.42-4.68,1.41-4.69,2.45v5.69c0,.34.18.68.58,1.02,1.21,1.02,4.03,1.64,7.01,1.64v-11.01c-.97,0-1.95.06-2.9.2Z"/>
        <path class="cls-4" d="M182.26,113.04c0-.34-.18-.68-.58-1.02-1.21-1.02-4.03-1.64-7.01-1.64v11.01c.97,0,1.95-.06,2.9-.2,2.92-.42,4.68-1.41,4.69-2.45v-5.69Z"/>
      </g>
      <path class="cls-4" d="M181.68,112.02c1.6,1.36-.23,2.91-4.11,3.47s-8.31-.08-9.92-1.44c-1.6-1.36.23-2.91,4.11-3.47s8.31.08,9.92,1.44Z"/>
    </g>
    <g>
      <g>
        <path class="cls-2" d="M139.23,105.87c-2.92.42-4.68,1.41-4.69,2.45v5.69c0,.34.18.68.58,1.02,1.21,1.02,4.03,1.64,7.01,1.64v-11.01c-.97,0-1.95.06-2.9.2Z"/>
        <path class="cls-4" d="M149.72,108.32c0-.34-.18-.68-.58-1.02-1.21-1.02-4.03-1.64-7.01-1.64v11.01c.97,0,1.95-.06,2.9-.2,2.92-.42,4.68-1.41,4.69-2.45v-5.69Z"/>
      </g>
      <path class="cls-4" d="M149.14,107.3c1.6,1.36-.23,2.91-4.11,3.47-3.87.56-8.31-.08-9.92-1.44s.23-2.91,4.11-3.47c3.87-.56,8.31.08,9.92,1.44Z"/>
    </g>
    <g>
      <g>
        <path class="cls-2" d="M148.76,113.92c-2.92.42-4.68,1.41-4.69,2.45v5.69c0,.34.18.68.58,1.02,1.21,1.02,4.03,1.64,7.01,1.64v-11.01c-.97,0-1.95.06-2.9.2Z"/>
        <path class="cls-4" d="M159.25,116.37c0-.34-.18-.68-.58-1.02-1.21-1.02-4.03-1.64-7.01-1.64v11.01c.97,0,1.95-.06,2.9-.2,2.92-.42,4.68-1.41,4.69-2.45v-5.69Z"/>
      </g>
      <path class="cls-4" d="M158.67,115.35c1.6,1.36-.23,2.91-4.11,3.47-3.87.56-8.31-.08-9.92-1.44s.23-2.91,4.11-3.47c3.87-.56,8.31.08,9.92,1.44Z"/>
    </g>
    <g>
      <g>
        <path class="cls-2" d="M116.22,109.2c-2.92.42-4.68,1.41-4.69,2.45v5.69c0,.34.18.68.58,1.02,1.21,1.02,4.03,1.64,7.01,1.64v-11.01c-.97,0-1.95.06-2.9.2Z"/>
        <path class="cls-4" d="M126.72,111.65c0-.34-.18-.68-.58-1.02-1.21-1.02-4.03-1.64-7.01-1.64v11.01c.97,0,1.95-.06,2.9-.2,2.92-.42,4.68-1.41,4.69-2.45v-5.69Z"/>
      </g>
      <path class="cls-4" d="M126.14,110.64c1.6,1.36-.23,2.91-4.11,3.47s-8.31-.08-9.92-1.44.23-2.91,4.11-3.47,8.31.08,9.92,1.44Z"/>
    </g>
    <g>
      <g>
        <path class="cls-2" d="M125.75,117.25c-2.92.42-4.68,1.41-4.69,2.45v5.69c0,.34.18.68.58,1.02,1.21,1.02,4.03,1.64,7.01,1.64v-11.01c-.97,0-1.95.06-2.9.2Z"/>
        <path class="cls-4" d="M136.25,119.71c0-.34-.18-.68-.58-1.02-1.21-1.02-4.03-1.64-7.01-1.64v11.01c.97,0,1.95-.06,2.9-.2,2.92-.42,4.68-1.41,4.69-2.45v-5.69Z"/>
      </g>
      <path class="cls-4" d="M135.67,118.69c1.6,1.36-.23,2.91-4.11,3.47s-8.31-.08-9.92-1.44.23-2.91,4.11-3.47,8.31.08,9.92,1.44Z"/>
    </g>
  </g>
  <g>
    <polygon class="cls-4" points="125.87 220.67 102.86 224.01 79.86 227.34 56.85 230.68 33.85 234.01 52.9 250.12 75.91 246.78 98.91 243.45 121.92 240.11 144.92 236.78 125.87 220.67"/>
    <polygon class="cls-4" points="52.9 250.12 52.9 280.48 144.92 267.14 144.92 236.78 52.9 250.12"/>
    <polygon class="cls-2" points="33.85 234.01 33.85 264.38 52.9 280.48 52.9 250.12 33.85 234.01"/>
    <g>
      <g>
        <path class="cls-2" d="M47.21,228.23c-2.92.42-4.68,1.41-4.69,2.45v5.69c0,.34.18.68.58,1.02,1.21,1.02,4.03,1.64,7.01,1.64v-11.01c-.97,0-1.95.06-2.9.2Z"/>
        <path class="cls-4" d="M57.7,230.68c0-.34-.18-.68-.58-1.02-1.21-1.02-4.03-1.64-7.01-1.64v11.01c.97,0,1.95-.06,2.9-.2,2.92-.42,4.68-1.41,4.69-2.45v-5.69Z"/>
      </g>
      <path class="cls-4" d="M57.12,229.66c1.6,1.36-.23,2.91-4.11,3.47s-8.31-.08-9.92-1.44.23-2.91,4.11-3.47c3.87-.56,8.31.08,9.92,1.44Z"/>
    </g>
    <g>
      <g>
        <path class="cls-2" d="M56.74,236.28c-2.92.42-4.68,1.41-4.69,2.45v5.69c0,.34.18.68.58,1.02,1.21,1.02,4.03,1.64,7.01,1.64v-11.01c-.97,0-1.95.06-2.9.2Z"/>
        <path class="cls-4" d="M67.23,238.73c0-.34-.18-.68-.58-1.02-1.21-1.02-4.03-1.64-7.01-1.64v11.01c.97,0,1.95-.06,2.9-.2,2.92-.42,4.68-1.41,4.69-2.45v-5.69Z"/>
      </g>
      <path class="cls-4" d="M66.65,237.71c1.6,1.36-.23,2.91-4.11,3.47s-8.31-.08-9.92-1.44.23-2.91,4.11-3.47c3.87-.56,8.31.08,9.92,1.44Z"/>
    </g>
    <g>
      <g>
        <path class="cls-2" d="M116.22,218.22c-2.92.42-4.68,1.41-4.69,2.45v5.69c0,.34.18.68.58,1.02,1.21,1.02,4.03,1.64,7.01,1.64v-11.01c-.97,0-1.95.06-2.9.2Z"/>
        <path class="cls-4" d="M126.72,220.67c0-.34-.18-.68-.58-1.02-1.21-1.02-4.03-1.64-7.01-1.64v11.01c.97,0,1.95-.06,2.9-.2,2.92-.42,4.68-1.41,4.69-2.45v-5.69Z"/>
      </g>
      <path class="cls-4" d="M126.14,219.66c1.6,1.36-.23,2.91-4.11,3.47-3.87.56-8.31-.08-9.92-1.44s.23-2.91,4.11-3.47,8.31.08,9.92,1.44Z"/>
    </g>
    <g>
      <g>
        <path class="cls-2" d="M125.75,226.27c-2.92.42-4.68,1.41-4.69,2.45v5.69c0,.34.18.68.58,1.02,1.21,1.02,4.03,1.64,7.01,1.64v-11.01c-.97,0-1.95.06-2.9.2Z"/>
        <path class="cls-4" d="M136.25,228.73c0-.34-.18-.68-.58-1.02-1.21-1.02-4.03-1.64-7.01-1.64v11.01c.97,0,1.95-.06,2.9-.2,2.92-.42,4.68-1.41,4.69-2.45v-5.69Z"/>
      </g>
      <path class="cls-4" d="M135.67,227.71c1.6,1.36-.23,2.91-4.11,3.47s-8.31-.08-9.92-1.44c-1.6-1.36.23-2.91,4.11-3.47s8.31.08,9.92,1.44Z"/>
    </g>
    <g>
      <g>
        <path class="cls-2" d="M93.22,221.55c-2.92.42-4.68,1.41-4.69,2.45v5.69c0,.34.18.68.58,1.02,1.21,1.02,4.03,1.64,7.01,1.64v-11.01c-.97,0-1.95.06-2.9.2Z"/>
        <path class="cls-4" d="M103.71,224.01c0-.34-.18-.68-.58-1.02-1.21-1.02-4.03-1.64-7.01-1.64v11.01c.97,0,1.95-.06,2.9-.2,2.92-.42,4.68-1.41,4.69-2.45v-5.69Z"/>
      </g>
      <path class="cls-4" d="M103.13,222.99c1.6,1.36-.23,2.91-4.11,3.47-3.87.56-8.31-.08-9.92-1.44s.23-2.91,4.11-3.47c3.87-.56,8.31.08,9.92,1.44Z"/>
    </g>
    <g>
      <g>
        <path class="cls-2" d="M102.75,229.61c-2.92.42-4.68,1.41-4.69,2.45v5.69c0,.34.18.68.58,1.02,1.21,1.02,4.03,1.64,7.01,1.64v-11.01c-.97,0-1.95.06-2.9.2Z"/>
        <path class="cls-4" d="M113.24,232.06c0-.34-.18-.68-.58-1.02-1.21-1.02-4.03-1.64-7.01-1.64v11.01c.97,0,1.95-.06,2.9-.2,2.92-.42,4.68-1.41,4.69-2.45v-5.69Z"/>
      </g>
      <path class="cls-4" d="M112.66,231.04c1.6,1.36-.23,2.91-4.11,3.47-3.87.56-8.31-.08-9.92-1.44s.23-2.91,4.11-3.47c3.87-.56,8.31.08,9.92,1.44Z"/>
    </g>
    <g>
      <g>
        <path class="cls-2" d="M70.21,224.89c-2.92.42-4.68,1.41-4.69,2.45v5.69c0,.34.18.68.58,1.02,1.21,1.02,4.03,1.64,7.01,1.64v-11.01c-.97,0-1.95.06-2.9.2Z"/>
        <path class="cls-4" d="M80.71,227.34c0-.34-.18-.68-.58-1.02-1.21-1.02-4.03-1.64-7.01-1.64v11.01c.97,0,1.95-.06,2.9-.2,2.92-.42,4.68-1.41,4.69-2.45v-5.69Z"/>
      </g>
      <path class="cls-4" d="M80.13,226.33c1.6,1.36-.23,2.91-4.11,3.47s-8.31-.08-9.92-1.44.23-2.91,4.11-3.47,8.31.08,9.92,1.44Z"/>
    </g>
    <g>
      <g>
        <path class="cls-2" d="M79.74,232.94c-2.92.42-4.68,1.41-4.69,2.45v5.69c0,.34.18.68.58,1.02,1.21,1.02,4.03,1.64,7.01,1.64v-11.01c-.97,0-1.95.06-2.9.2Z"/>
        <path class="cls-4" d="M90.24,235.4c0-.34-.18-.68-.58-1.02-1.21-1.02-4.03-1.64-7.01-1.64v11.01c.97,0,1.95-.06,2.9-.2,2.92-.42,4.68-1.41,4.69-2.45v-5.69Z"/>
      </g>
      <path class="cls-4" d="M89.66,234.38c1.6,1.36-.23,2.91-4.11,3.47s-8.31-.08-9.92-1.44.23-2.91,4.11-3.47,8.31.08,9.92,1.44Z"/>
    </g>
  </g>
  <g>
    <g>
      <polygon class="cls-5" points="236.94 66.48 98.91 86.49 79.86 70.39 217.89 50.38 236.94 66.48"/>
      <polygon class="cls-5" points="98.91 116.86 236.94 96.85 236.94 66.48 98.91 86.49 98.91 116.86"/>
      <polygon class="cls-2" points="79.86 70.39 79.86 100.76 98.91 116.86 98.91 86.49 79.86 70.39"/>
      <g>
        <g>
          <path class="cls-2" d="M93.22,64.6c-2.92.42-4.68,1.41-4.69,2.45v5.69c0,.34.18.68.58,1.02,1.21,1.02,4.03,1.64,7.01,1.64v-11.01c-.97,0-1.95.06-2.9.2Z"/>
          <path class="cls-5" d="M103.71,67.06c0-.34-.18-.68-.58-1.02-1.21-1.02-4.03-1.64-7.01-1.64v11.01c.97,0,1.95-.06,2.9-.2,2.92-.42,4.68-1.41,4.69-2.45v-5.69Z"/>
        </g>
        <path class="cls-5" d="M103.13,66.04c1.6,1.36-.23,2.91-4.11,3.47-3.87.56-8.31-.08-9.92-1.44s.23-2.91,4.11-3.47,8.31.08,9.92,1.44Z"/>
      </g>
      <g>
        <g>
          <path class="cls-2" d="M102.75,72.65c-2.92.42-4.68,1.41-4.69,2.45v5.69c0,.34.18.68.58,1.02,1.21,1.02,4.03,1.64,7.01,1.64v-11.01c-.97,0-1.95.06-2.9.2Z"/>
          <path class="cls-5" d="M113.24,75.11c0-.34-.18-.68-.58-1.02-1.21-1.02-4.03-1.64-7.01-1.64v11.01c.97,0,1.95-.06,2.9-.2,2.92-.42,4.68-1.41,4.69-2.45v-5.69Z"/>
        </g>
        <path class="cls-5" d="M112.66,74.09c1.6,1.36-.23,2.91-4.11,3.47s-8.31-.08-9.92-1.44.23-2.91,4.11-3.47,8.31.08,9.92,1.44Z"/>
      </g>
    </g>
    <g>
      <g>
        <g>
          <path class="cls-2" d="M208.24,47.93c-2.92.42-4.68,1.41-4.69,2.45v5.69c0,.34.18.68.58,1.02,1.21,1.02,4.03,1.64,7.01,1.64v-11.01c-.97,0-1.95.06-2.9.2Z"/>
          <path class="cls-5" d="M218.74,50.38c0-.34-.18-.68-.58-1.02-1.21-1.02-4.03-1.64-7.01-1.64v11.01c.97,0,1.95-.06,2.9-.2,2.92-.42,4.68-1.41,4.69-2.45v-5.69Z"/>
        </g>
        <path class="cls-5" d="M218.16,49.36c1.6,1.36-.23,2.91-4.11,3.47-3.87.56-8.31-.08-9.92-1.44s.23-2.91,4.11-3.47c3.87-.56,8.31.08,9.92,1.44Z"/>
      </g>
      <g>
        <g>
          <path class="cls-2" d="M217.77,55.98c-2.92.42-4.68,1.41-4.69,2.45v5.69c0,.34.18.68.58,1.02,1.21,1.02,4.03,1.64,7.01,1.64v-11.01c-.97,0-1.95.06-2.9.2Z"/>
          <path class="cls-5" d="M228.27,58.43c0-.34-.18-.68-.58-1.02-1.21-1.02-4.03-1.64-7.01-1.64v11.01c.97,0,1.95-.06,2.9-.2,2.92-.42,4.68-1.41,4.69-2.45v-5.69Z"/>
        </g>
        <path class="cls-5" d="M227.69,57.42c1.6,1.36-.23,2.91-4.11,3.47-3.87.56-8.31-.08-9.92-1.44s.23-2.91,4.11-3.47c3.87-.56,8.31.08,9.92,1.44Z"/>
      </g>
    </g>
    <g>
      <g>
        <g>
          <path class="cls-2" d="M185.24,51.26c-2.92.42-4.68,1.41-4.69,2.45v5.69c0,.34.18.68.58,1.02,1.21,1.02,4.03,1.64,7.01,1.64v-11.01c-.97,0-1.95.06-2.9.2Z"/>
          <path class="cls-5" d="M195.73,53.72c0-.34-.18-.68-.58-1.02-1.21-1.02-4.03-1.64-7.01-1.64v11.01c.97,0,1.95-.06,2.9-.2,2.92-.42,4.68-1.41,4.69-2.45v-5.69Z"/>
        </g>
        <path class="cls-5" d="M195.15,52.7c1.6,1.36-.23,2.91-4.11,3.47s-8.31-.08-9.92-1.44c-1.6-1.36.23-2.91,4.11-3.47s8.31.08,9.92,1.44Z"/>
      </g>
      <g>
        <g>
          <path class="cls-2" d="M194.77,59.31c-2.92.42-4.68,1.41-4.69,2.45v5.69c0,.34.18.68.58,1.02,1.21,1.02,4.03,1.64,7.01,1.64v-11.01c-.97,0-1.95.06-2.9.2Z"/>
          <path class="cls-5" d="M205.26,61.77c0-.34-.18-.68-.58-1.02-1.21-1.02-4.03-1.64-7.01-1.64v11.01c.97,0,1.95-.06,2.9-.2,2.92-.42,4.68-1.41,4.69-2.45v-5.69Z"/>
        </g>
        <path class="cls-5" d="M204.68,60.75c1.6,1.36-.23,2.91-4.11,3.47-3.87.56-8.31-.08-9.92-1.44s.23-2.91,4.11-3.47,8.31.08,9.92,1.44Z"/>
      </g>
    </g>
    <g>
      <g>
        <g>
          <path class="cls-2" d="M162.23,54.6c-2.92.42-4.68,1.41-4.69,2.45v5.69c0,.34.18.68.58,1.02,1.21,1.02,4.03,1.64,7.01,1.64v-11.01c-.97,0-1.95.06-2.9.2Z"/>
          <path class="cls-5" d="M172.73,57.05c0-.34-.18-.68-.58-1.02-1.21-1.02-4.03-1.64-7.01-1.64v11.01c.97,0,1.95-.06,2.9-.2,2.92-.42,4.68-1.41,4.69-2.45v-5.69Z"/>
        </g>
        <path class="cls-5" d="M172.15,56.03c1.6,1.36-.23,2.91-4.11,3.47-3.87.56-8.31-.08-9.92-1.44s.23-2.91,4.11-3.47c3.87-.56,8.31.08,9.92,1.44Z"/>
      </g>
      <g>
        <g>
          <path class="cls-2" d="M171.76,62.65c-2.92.42-4.68,1.41-4.69,2.45v5.69c0,.34.18.68.58,1.02,1.21,1.02,4.03,1.64,7.01,1.64v-11.01c-.97,0-1.95.06-2.9.2Z"/>
          <path class="cls-5" d="M182.26,65.1c0-.34-.18-.68-.58-1.02-1.21-1.02-4.03-1.64-7.01-1.64v11.01c.97,0,1.95-.06,2.9-.2,2.92-.42,4.68-1.41,4.69-2.45v-5.69Z"/>
        </g>
        <path class="cls-5" d="M181.68,64.09c1.6,1.36-.23,2.91-4.11,3.47-3.87.56-8.31-.08-9.92-1.44-1.6-1.36.23-2.91,4.11-3.47,3.87-.56,8.31.08,9.92,1.44Z"/>
      </g>
    </g>
    <g>
      <g>
        <g>
          <path class="cls-2" d="M139.23,57.93c-2.92.42-4.68,1.41-4.69,2.45v5.69c0,.34.18.68.58,1.02,1.21,1.02,4.03,1.64,7.01,1.64v-11.01c-.97,0-1.95.06-2.9.2Z"/>
          <path class="cls-5" d="M149.72,60.39c0-.34-.18-.68-.58-1.02-1.21-1.02-4.03-1.64-7.01-1.64v11.01c.97,0,1.95-.06,2.9-.2,2.92-.42,4.68-1.41,4.69-2.45v-5.69Z"/>
        </g>
        <path class="cls-5" d="M149.14,59.37c1.6,1.36-.23,2.91-4.11,3.47s-8.31-.08-9.92-1.44.23-2.91,4.11-3.47,8.31.08,9.92,1.44Z"/>
      </g>
      <g>
        <g>
          <path class="cls-2" d="M148.76,65.98c-2.92.42-4.68,1.41-4.69,2.45v5.69c0,.34.18.68.58,1.02,1.21,1.02,4.03,1.64,7.01,1.64v-11.01c-.97,0-1.95.06-2.9.2Z"/>
          <path class="cls-5" d="M159.25,68.44c0-.34-.18-.68-.58-1.02-1.21-1.02-4.03-1.64-7.01-1.64v11.01c.97,0,1.95-.06,2.9-.2,2.92-.42,4.68-1.41,4.69-2.45v-5.69Z"/>
        </g>
        <path class="cls-5" d="M158.67,67.42c1.6,1.36-.23,2.91-4.11,3.47s-8.31-.08-9.92-1.44.23-2.91,4.11-3.47c3.87-.56,8.31.08,9.92,1.44Z"/>
      </g>
    </g>
    <g>
      <g>
        <g>
          <path class="cls-2" d="M116.22,61.27c-2.92.42-4.68,1.41-4.69,2.45v5.69c0,.34.18.68.58,1.02,1.21,1.02,4.03,1.64,7.01,1.64v-11.01c-.97,0-1.95.06-2.9.2Z"/>
          <path class="cls-5" d="M126.72,63.72c0-.34-.18-.68-.58-1.02-1.21-1.02-4.03-1.64-7.01-1.64v11.01c.97,0,1.95-.06,2.9-.2,2.92-.42,4.68-1.41,4.69-2.45v-5.69Z"/>
        </g>
        <path class="cls-5" d="M126.14,62.7c1.6,1.36-.23,2.91-4.11,3.47-3.87.56-8.31-.08-9.92-1.44s.23-2.91,4.11-3.47c3.87-.56,8.31.08,9.92,1.44Z"/>
      </g>
      <g>
        <g>
          <path class="cls-2" d="M125.75,69.32c-2.92.42-4.68,1.41-4.69,2.45v5.69c0,.34.18.68.58,1.02,1.21,1.02,4.03,1.64,7.01,1.64v-11.01c-.97,0-1.95.06-2.9.2Z"/>
          <path class="cls-5" d="M136.25,71.77c0-.34-.18-.68-.58-1.02-1.21-1.02-4.03-1.64-7.01-1.64v11.01c.97,0,1.95-.06,2.9-.2,2.92-.42,4.68-1.41,4.69-2.45v-5.69Z"/>
        </g>
        <path class="cls-5" d="M135.67,70.76c1.6,1.36-.23,2.91-4.11,3.47s-8.31-.08-9.92-1.44.23-2.91,4.11-3.47c3.87-.56,8.31.08,9.92,1.44Z"/>
      </g>
    </g>
  </g>
  <path class="cls-8" d="M90.94,177.81c.81.28,1.62.58,2.42.91.4.17.8.35,1.2.54.09.04,1.07.58,1.1.56-.03.03-.11-.14-.1-.13,0,0-.11.45-.12.51-.11.44-.22.87-.33,1.31-.23.92-.46,1.85-.69,2.77-.31,1.25,1.62,1.78,1.93.53.26-1.04.52-2.09.78-3.13s.79-2.29-.02-3.21c-.31-.35-.73-.55-1.14-.75-.46-.22-.92-.44-1.39-.64-1.02-.44-2.05-.84-3.09-1.2-.51-.17-1.09.2-1.23.7-.15.55.19,1.06.7,1.23h0Z"/>
  <g>
    <path class="cls-8" d="M47.08,48.39c-5.2,4.44-5.16,12.67-3.08,18.61,1.39,3.99,3.78,7.85,6.91,10.71,2.97,2.71,6.65,4.55,10.41,5.89,4.41,1.57,9.07,2.45,13.73,2.76,1.03.07,1.02-1.53,0-1.6-3.92-.26-7.82-.97-11.57-2.13s-7.24-2.7-10.26-5.05-5.51-5.85-7.08-9.45c-1.41-3.24-2.1-6.83-1.78-10.36.29-3.07,1.45-6.2,3.84-8.24.78-.67-.35-1.8-1.13-1.13h0Z"/>
    <path class="cls-8" d="M69.16,80.03c1.43,2.31,3.22,4.37,5.33,6.09l.16-1.26c-2.72,1.64-5.45,3.28-8.17,4.92-.88.53-.08,1.91.81,1.38,2.72-1.64,5.45-3.28,8.17-4.92.4-.24.57-.92.16-1.26-2-1.63-3.71-3.57-5.08-5.76-.54-.87-1.93-.07-1.38.81h0Z"/>
  </g>
  <text class="cls-7" transform="translate(50.16 38.51) rotate(-6.26) scale(1.01 1)"><tspan class="cls-1" x="0" y="0">j</tspan><tspan x="4.06" y="0">ust build</tspan><tspan x="0" y="18">this bit!</tspan></text>
  <path class="cls-8" d="M228.05,268.81c-5.93.88-12.01,1.32-18.03,1.03-7.3-.35-14.74-1.78-21.19-5.34-3.82-2.11-7.19-4.97-9.79-8.48l-.69,1.2c3.2.07,6.4.12,9.61.18,1.04.02,1.02-1.54,0-1.6-3.18-.18-6.43-.41-9.61-.18-.44.03-.79.34-.8.8-.05,2.84-.1,5.68-.15,8.52-.02,1.03,1.58,1.03,1.6,0,.05-2.84.1-5.68.15-8.52l-.8.8c3.18-.24,6.43,0,9.61.18v-1.6c-3.2-.06-6.4-.11-9.61-.18-.56-.01-1.06.71-.69,1.2,4.79,6.47,11.79,10.6,19.49,12.69,7.06,1.92,14.51,2.28,21.79,1.85,3.19-.19,6.37-.55,9.54-1.02.43-.06.66-.6.56-.98-.12-.46-.56-.62-.98-.56h0Z"/>
  <path class="cls-8" d="M381.46,155.15c3.69,1.99,5.63,6.16,5.95,10.25.46,6.01-2.12,11.87-5.81,16.49-4.59,5.76-10.66,10.03-17.51,12.66s-14.49,4.12-21.91,5.06-15,1.38-22.52,1.55c-.84.02-1.68.03-2.51.05-.63,0-1.14.91-.57,1.37,1.5,1.18,3,2.35,4.5,3.53l.97-1.26c-2.06-1.07-4.12-2.14-6.18-3.21v1.38c1.79-1.38,3.58-2.75,5.37-4.13.35-.27.52-.69.29-1.09-.19-.34-.75-.55-1.09-.29-1.79,1.38-3.58,2.75-5.37,4.13-.44.34-.59,1.08,0,1.38,2.06,1.07,4.12,2.14,6.18,3.21.76.39,1.72-.67.97-1.26-1.5-1.18-3-2.35-4.5-3.53l-.57,1.37c7.66-.12,15.32-.48,22.94-1.35s15.53-2.21,22.9-4.81c3.25-1.15,6.45-2.54,9.38-4.38,3.42-2.14,6.58-4.87,9.24-7.9,4.26-4.84,7.46-10.99,7.47-17.57,0-4.63-1.72-9.45-5.55-12.26-.4-.29-.81-.55-1.24-.78-.91-.49-1.71.89-.81,1.38h0Z"/>
  <g>
    <g>
      <g>
        <polygon class="cls-5" points="295.07 17.65 281.37 19.63 275.69 14.84 289.4 12.85 295.07 17.65"/>
        <polygon class="cls-5" points="281.37 28.68 295.07 26.69 295.07 17.65 281.37 19.63 281.37 28.68"/>
        <g>
          <path class="cls-2" d="M283.65,11.39c-1.74.25-2.79.84-2.79,1.46v3.39c0,.2.11.41.34.61.72.61,2.4.98,4.18.98v-6.56c-.58,0-1.16.04-1.73.12Z"/>
          <path class="cls-5" d="M289.9,12.85c0-.2-.11-.41-.34-.61-.72-.61-2.4-.98-4.18-.98v6.56c.58,0,1.16-.04,1.73-.12,1.74-.25,2.79-.84,2.79-1.46v-3.39Z"/>
        </g>
        <path class="cls-5" d="M289.56,12.25c.96.81-.14,1.73-2.45,2.07s-4.95-.05-5.91-.86.14-1.73,2.45-2.07,4.95.05,5.91.86Z"/>
        <polygon class="cls-2" points="275.69 14.84 275.69 23.88 281.37 28.68 281.37 19.63 275.69 14.84"/>
      </g>
      <text class="cls-6" transform="translate(301.49 23.76) scale(1.01 1)"><tspan x="0" y="0">Business Logic</tspan></text>
    </g>
    <g>
      <g>
        <polygon class="cls-3" points="295.07 39.66 281.37 41.65 275.69 36.85 289.4 34.86 295.07 39.66"/>
        <polygon class="cls-3" points="281.37 50.69 295.07 48.7 295.07 39.66 281.37 41.65 281.37 50.69"/>
        <g>
          <path class="cls-2" d="M283.65,33.4c-1.74.25-2.79.84-2.79,1.46v3.39c0,.2.11.41.34.61.72.61,2.4.98,4.18.98v-6.56c-.58,0-1.16.04-1.73.12Z"/>
          <path class="cls-3" d="M289.9,34.86c0-.2-.11-.41-.34-.61-.72-.61-2.4-.98-4.18-.98v6.56c.58,0,1.16-.04,1.73-.12,1.74-.25,2.79-.84,2.79-1.46v-3.39Z"/>
        </g>
        <path class="cls-3" d="M289.56,34.26c.96.81-.14,1.73-2.45,2.07s-4.95-.05-5.91-.86.14-1.73,2.45-2.07,4.95.05,5.91.86Z"/>
        <polygon class="cls-2" points="275.69 36.85 275.69 45.89 281.37 50.69 281.37 41.65 275.69 36.85"/>
      </g>
      <text class="cls-6" transform="translate(301.49 45.77) scale(1.01 1)"><tspan x="0" y="0">Reusable Components</tspan></text>
    </g>
    <g>
      <g>
        <polygon class="cls-4" points="295.07 61.35 281.37 63.34 275.69 58.54 289.4 56.56 295.07 61.35"/>
        <polygon class="cls-4" points="281.37 72.38 295.07 70.4 295.07 61.35 281.37 63.34 281.37 72.38"/>
        <g>
          <path class="cls-2" d="M283.65,55.1c-1.74.25-2.79.84-2.79,1.46v3.39c0,.2.11.41.34.61.72.61,2.4.98,4.18.98v-6.56c-.58,0-1.16.04-1.73.12Z"/>
          <path class="cls-4" d="M289.9,56.56c0-.2-.11-.41-.34-.61-.72-.61-2.4-.98-4.18-.98v6.56c.58,0,1.16-.04,1.73-.12,1.74-.25,2.79-.84,2.79-1.46v-3.39Z"/>
        </g>
        <path class="cls-4" d="M289.56,55.95c.96.81-.14,1.73-2.45,2.07s-4.95-.05-5.91-.86.14-1.73,2.45-2.07,4.95.05,5.91.86Z"/>
        <polygon class="cls-2" points="275.69 58.54 275.69 67.59 281.37 72.38 281.37 63.34 275.69 58.54"/>
      </g>
      <text class="cls-6" transform="translate(301.49 67.46) scale(1.01 1)"><tspan x="0" y="0">Capability Providers</tspan></text>
    </g>
  </g>
</svg>