<?xml version="1.0" encoding="UTF-8"?>
<svg id="Layer_1" data-name="Layer 1" xmlns="http://www.w3.org/2000/svg" viewBox="0 0 441.5 294.33">
  <defs>
    <style>
      .cls-1, .cls-2, .cls-3, .cls-4 {
        stroke: #002e5d;
        stroke-linecap: round;
        stroke-linejoin: round;
      }

      .cls-1, .cls-5, .cls-6, .cls-7 {
        fill: #002e5d;
      }

      .cls-2 {
        fill: #ffb600;
      }

      .cls-8 {
        stroke-width: 0px;
      }

      .cls-8, .cls-4, .cls-9 {
        fill: #00c389;
      }

      .cls-3 {
        fill: #768692;
      }

      .cls-10 {
        letter-spacing: -.02em;
      }

      .cls-5 {
        font-size: 11px;
        letter-spacing: -.02em;
      }

      .cls-5, .cls-6 {
        font-family: CascadiaMonoPL-Regular, 'Cascadia Mono PL';
      }

      .cls-9 {
        font-family: CaveatRoman-Bold, Caveat;
        font-size: 17px;
        font-variation-settings: 'wght' 700;
        font-weight: 700;
      }

      .cls-6, .cls-7, .cls-11 {
        font-size: 10px;
      }

      .cls-12 {
        letter-spacing: .02em;
      }

      .cls-7, .cls-11 {
        font-family: CascadiaMonoPL-SemiBold, 'Cascadia Mono PL';
        font-weight: 600;
      }

      .cls-11 {
        fill: #fff;
      }
    </style>
  </defs>
  <text class="cls-6" transform="translate(341.43 244.62) scale(1.01 1)"><tspan x="0" y="0">NATS Messaging</tspan><tspan x="0" y="16">Valkey/Redis</tspan><tspan x="0" y="32">PostgresQL</tspan></text>
  <text class="cls-6" transform="translate(242.72 244.62) scale(1.01 1)"><tspan x="0" y="0">Web PubSub</tspan><tspan x="0" y="16">MemoryStore</tspan><tspan x="0" y="32">Azure Cloud DB</tspan></text>
  <text class="cls-7" transform="translate(65.17 244.62) scale(1.01 1)"><tspan x="0" y="0">wasi:messaging</tspan><tspan x="5.86" y="16">wasi:keyvalue</tspan><tspan x="-23.44" y="32">wasmcloud:postgres</tspan></text>
  <text class="cls-7" transform="translate(242.96 226.69) scale(1.01 1)"><tspan x="0" y="0">azure</tspan></text>
  <text class="cls-6" transform="translate(162.61 244.62) scale(1.01 1)"><tspan x="0" y="0">AWS SQS</tspan><tspan x="0" y="16">ElastiCache</tspan><tspan x="0" y="32">Amazon RDS</tspan></text>
  <text class="cls-7" transform="translate(162.85 226.69) scale(1.01 1)"><tspan x="0" y="0">aws</tspan></text>
  <text class="cls-7" transform="translate(341.9 226.69) scale(1.01 1)"><tspan x="0" y="0">open source</tspan></text>
  <text class="cls-9" transform="translate(299.21 116.07) rotate(6.3)"><tspan x="0" y="0" xml:space="preserve">  providers swappable</tspan><tspan x="0" y="18">per location at runti</tspan><tspan class="cls-12" x="117.89" y="18">m</tspan><tspan x="128.64" y="18">e</tspan></text>
  <text class="cls-9" transform="translate(13.76 205.3) rotate(-4.35)"><tspan x="0" y="0">open source contracts</tspan><tspan class="cls-10" x="0" y="18">a</tspan><tspan x="7.24" y="18">void vendor lock-in</tspan></text>
  <path class="cls-8" d="M17.71,228.8c-3.92,7.89-6.2,16.91-5.44,25.76.53,6.16,2.69,13.35,8.45,16.59,2.99,1.69,6.48,1.83,9.75.98.51-.13.68-.8.31-1.17-1.19-1.18-2.45-2.27-3.78-3.29-.55-.42-1.35.41-.96.96.9,1.27,1.94,2.4,3.15,3.38v-.99c-1.54,1.54-3.21,2.94-5,4.19-.73.51-.04,1.73.71,1.21,1.89-1.31,3.65-2.78,5.28-4.4.25-.25.29-.75,0-.99-1.11-.9-2.1-1.93-2.94-3.1l-.96.96c1.23.95,2.39,1.98,3.49,3.07l.31-1.17c-2.65.69-5.5.7-8.01-.5s-4.27-3.2-5.56-5.53c-3.46-6.23-3.52-14.11-2.33-20.95.86-4.97,2.49-9.78,4.73-14.3.4-.8-.81-1.51-1.21-.71h0Z"/>
  <path class="cls-8" d="M356.28,149.41c-5.88,6.35-10.12,14.03-13.13,22.11s-4.78,16.35-5.72,24.79c-.47,4.25-.71,8.53-.69,12.81,0,.62.76.9,1.19.49,1.02-.94,1.79-2.11,2.8-3.05l-.99-.99c-.99.96-1.81,2.09-2.8,3.05h.99l-2.34-2.94c-.56-.7-1.55.29-.99.99l2.34,2.94c.24.3.74.24.99,0,.99-.96,1.81-2.09,2.8-3.05.65-.63-.33-1.6-.99-.99-1.02.94-1.79,2.11-2.8,3.05l1.19.49c-.04-7.77.75-15.56,2.33-23.17,1.73-8.31,4.43-16.49,8.52-23.95,2.29-4.18,5.03-8.1,8.27-11.6.61-.66-.38-1.65-.99-.99h0Z"/>
  <path class="cls-8" d="M341.15,146.07c-5.02,4.97-10.34,9.67-15.98,13.93-6.04,4.56-12.45,8.66-19.22,12.05-7.06,3.54-14.52,6.3-22.24,8-8.11,1.78-16.46,2.34-24.73,1.6-9.31-.83-18.45-3.33-27.02-7.06-1.18-.51-2.35-1.05-3.51-1.6v1.21c1.31-.56,2.99-1.18,4.44-.88l.19-1.37c-1.99-.09-3.98.74-5.76,1.53-.3.13-.37.51-.32.79.32,2,1.42,3.61,2.17,5.45.33.82,1.69.46,1.35-.37-.74-1.84-1.85-3.47-2.17-5.45l-.32.79c1.56-.69,3.32-1.42,5.06-1.34.78.04.96-1.21.19-1.37-1.86-.39-3.82.3-5.52,1.02-.47.2-.44,1,0,1.21,8.71,4.17,17.98,7.15,27.57,8.44,8.49,1.14,17.11.92,25.53-.59,7.91-1.42,15.58-3.98,22.87-7.36s13.72-7.31,20-11.87c5.87-4.26,11.4-8.96,16.63-13.99.6-.58,1.2-1.17,1.8-1.76.64-.63-.35-1.62-.99-.99h0Z"/>
  <g>
    <g>
      <g>
        <polygon class="cls-3" points="170.64 131.65 170.64 162.02 285.66 145.34 285.66 114.98 170.64 131.65"/>
        <polygon class="cls-1" points="151.58 115.55 151.58 145.91 170.64 162.02 170.64 131.65 151.58 115.55"/>
        <polygon class="cls-3" points="266.6 98.87 151.58 115.55 170.64 131.65 285.66 114.98 266.6 98.87"/>
        <g>
          <g>
            <path class="cls-1" d="M164.94,109.76c-2.92.42-4.68,1.41-4.69,2.45v5.69c0,.34.18.68.58,1.02,1.21,1.02,4.03,1.64,7.01,1.64v-11.01c-.97,0-1.95.06-2.9.2Z"/>
            <path class="cls-3" d="M175.44,112.21c0-.34-.18-.68-.58-1.02-1.21-1.02-4.03-1.64-7.01-1.64v11.01c.97,0,1.95-.06,2.9-.2,2.92-.42,4.68-1.41,4.69-2.45v-5.69Z"/>
          </g>
          <path class="cls-3" d="M174.86,111.2c1.6,1.36-.23,2.91-4.11,3.47s-8.31-.08-9.92-1.44.23-2.91,4.11-3.47,8.31.08,9.92,1.44Z"/>
        </g>
        <g>
          <g>
            <path class="cls-1" d="M174.47,117.81c-2.92.42-4.68,1.41-4.69,2.45v5.69c0,.34.18.68.58,1.02,1.21,1.02,4.03,1.64,7.01,1.64v-11.01c-.97,0-1.95.06-2.9.2Z"/>
            <path class="cls-3" d="M184.97,120.27c0-.34-.18-.68-.58-1.02-1.21-1.02-4.03-1.64-7.01-1.64v11.01c.97,0,1.95-.06,2.9-.2,2.92-.42,4.68-1.41,4.69-2.45v-5.69Z"/>
          </g>
          <path class="cls-3" d="M184.39,119.25c1.6,1.36-.23,2.91-4.11,3.47s-8.31-.08-9.92-1.44.23-2.91,4.11-3.47,8.31.08,9.92,1.44Z"/>
        </g>
        <g>
          <g>
            <path class="cls-1" d="M233.96,99.75c-2.92.42-4.68,1.41-4.69,2.45v5.69c0,.34.18.68.58,1.02,1.21,1.02,4.03,1.64,7.01,1.64v-11.01c-.97,0-1.95.06-2.9.2Z"/>
            <path class="cls-3" d="M244.45,102.21c0-.34-.18-.68-.58-1.02-1.21-1.02-4.03-1.64-7.01-1.64v11.01c.97,0,1.95-.06,2.9-.2,2.92-.42,4.68-1.41,4.69-2.45v-5.69Z"/>
          </g>
          <path class="cls-3" d="M243.87,101.19c1.6,1.36-.23,2.91-4.11,3.47s-8.31-.08-9.92-1.44.23-2.91,4.11-3.47,8.31.08,9.92,1.44Z"/>
        </g>
        <g>
          <g>
            <path class="cls-1" d="M243.49,107.81c-2.92.42-4.68,1.41-4.69,2.45v5.69c0,.34.18.68.58,1.02,1.21,1.02,4.03,1.64,7.01,1.64v-11.01c-.97,0-1.95.06-2.9.2Z"/>
            <path class="cls-3" d="M253.98,110.26c0-.34-.18-.68-.58-1.02-1.21-1.02-4.03-1.64-7.01-1.64v11.01c.97,0,1.95-.06,2.9-.2,2.92-.42,4.68-1.41,4.69-2.45v-5.69Z"/>
          </g>
          <path class="cls-3" d="M253.4,109.24c1.6,1.36-.23,2.91-4.11,3.47s-8.31-.08-9.92-1.44.23-2.91,4.11-3.47,8.31.08,9.92,1.44Z"/>
        </g>
        <g>
          <g>
            <path class="cls-1" d="M210.95,103.09c-2.92.42-4.68,1.41-4.69,2.45v5.69c0,.34.18.68.58,1.02,1.21,1.02,4.03,1.64,7.01,1.64v-11.01c-.97,0-1.95.06-2.9.2Z"/>
            <path class="cls-3" d="M221.45,105.54c0-.34-.18-.68-.58-1.02-1.21-1.02-4.03-1.64-7.01-1.64v11.01c.97,0,1.95-.06,2.9-.2,2.92-.42,4.68-1.41,4.69-2.45v-5.69Z"/>
          </g>
          <path class="cls-3" d="M220.87,104.53c1.6,1.36-.23,2.91-4.11,3.47s-8.31-.08-9.92-1.44.23-2.91,4.11-3.47,8.31.08,9.92,1.44Z"/>
        </g>
        <g>
          <g>
            <path class="cls-1" d="M220.48,111.14c-2.92.42-4.68,1.41-4.69,2.45v5.69c0,.34.18.68.58,1.02,1.21,1.02,4.03,1.64,7.01,1.64v-11.01c-.97,0-1.95.06-2.9.2Z"/>
            <path class="cls-3" d="M230.98,113.59c0-.34-.18-.68-.58-1.02-1.21-1.02-4.03-1.64-7.01-1.64v11.01c.97,0,1.95-.06,2.9-.2,2.92-.42,4.68-1.41,4.69-2.45v-5.69Z"/>
          </g>
          <path class="cls-3" d="M230.4,112.58c1.6,1.36-.23,2.91-4.11,3.47s-8.31-.08-9.92-1.44.23-2.91,4.11-3.47,8.31.08,9.92,1.44Z"/>
        </g>
        <g>
          <g>
            <path class="cls-1" d="M187.95,106.42c-2.92.42-4.68,1.41-4.69,2.45v5.69c0,.34.18.68.58,1.02,1.21,1.02,4.03,1.64,7.01,1.64v-11.01c-.97,0-1.95.06-2.9.2Z"/>
            <path class="cls-3" d="M198.44,108.88c0-.34-.18-.68-.58-1.02-1.21-1.02-4.03-1.64-7.01-1.64v11.01c.97,0,1.95-.06,2.9-.2,2.92-.42,4.68-1.41,4.69-2.45v-5.69Z"/>
          </g>
          <path class="cls-3" d="M197.86,107.86c1.6,1.36-.23,2.91-4.11,3.47s-8.31-.08-9.92-1.44.23-2.91,4.11-3.47,8.31.08,9.92,1.44Z"/>
        </g>
        <g>
          <g>
            <path class="cls-1" d="M197.48,114.48c-2.92.42-4.68,1.41-4.69,2.45v5.69c0,.34.18.68.58,1.02,1.21,1.02,4.03,1.64,7.01,1.64v-11.01c-.97,0-1.95.06-2.9.2Z"/>
            <path class="cls-3" d="M207.97,116.93c0-.34-.18-.68-.58-1.02-1.21-1.02-4.03-1.64-7.01-1.64v11.01c.97,0,1.95-.06,2.9-.2,2.92-.42,4.68-1.41,4.69-2.45v-5.69Z"/>
          </g>
          <path class="cls-3" d="M207.39,115.91c1.6,1.36-.23,2.91-4.11,3.47s-8.31-.08-9.92-1.44.23-2.91,4.11-3.47,8.31.08,9.92,1.44Z"/>
        </g>
        <g>
          <g>
            <path class="cls-1" d="M256.96,96.42c-2.92.42-4.68,1.41-4.69,2.45v5.69c0,.34.18.68.58,1.02,1.21,1.02,4.03,1.64,7.01,1.64v-11.01c-.97,0-1.95.06-2.9.2Z"/>
            <path class="cls-3" d="M267.46,98.87c0-.34-.18-.68-.58-1.02-1.21-1.02-4.03-1.64-7.01-1.64v11.01c.97,0,1.95-.06,2.9-.2,2.92-.42,4.68-1.41,4.69-2.45v-5.69Z"/>
          </g>
          <path class="cls-3" d="M266.88,97.86c1.6,1.36-.23,2.91-4.11,3.47s-8.31-.08-9.92-1.44.23-2.91,4.11-3.47,8.31.08,9.92,1.44Z"/>
        </g>
        <g>
          <g>
            <path class="cls-1" d="M266.49,104.47c-2.92.42-4.68,1.41-4.69,2.45v5.69c0,.34.18.68.58,1.02,1.21,1.02,4.03,1.64,7.01,1.64v-11.01c-.97,0-1.95.06-2.9.2Z"/>
            <path class="cls-3" d="M276.99,106.92c0-.34-.18-.68-.58-1.02-1.21-1.02-4.03-1.64-7.01-1.64v11.01c.97,0,1.95-.06,2.9-.2,2.92-.42,4.68-1.41,4.69-2.45v-5.69Z"/>
          </g>
          <path class="cls-3" d="M276.41,105.91c1.6,1.36-.23,2.91-4.11,3.47s-8.31-.08-9.92-1.44.23-2.91,4.11-3.47,8.31.08,9.92,1.44Z"/>
        </g>
      </g>
      <g>
        <polygon class="cls-2" points="151.58 115.68 128.58 119.02 105.57 122.35 124.63 138.46 147.63 135.12 170.64 131.79 151.58 115.68"/>
        <polygon class="cls-2" points="147.63 135.12 124.63 138.46 124.63 168.82 147.63 165.49 170.64 162.15 170.64 131.79 147.63 135.12"/>
        <polygon class="cls-1" points="105.57 122.35 105.57 152.72 124.63 168.82 124.63 138.46 105.57 122.35"/>
        <g>
          <g>
            <path class="cls-1" d="M118.93,116.56c-2.92.42-4.68,1.41-4.69,2.45v5.69c0,.34.18.68.58,1.02,1.21,1.02,4.03,1.64,7.01,1.64v-11.01c-.97,0-1.95.06-2.9.2Z"/>
            <path class="cls-2" d="M129.43,119.02c0-.34-.18-.68-.58-1.02-1.21-1.02-4.03-1.64-7.01-1.64v11.01c.97,0,1.95-.06,2.9-.2,2.92-.42,4.68-1.41,4.69-2.45v-5.69Z"/>
          </g>
          <path class="cls-2" d="M128.85,118c1.6,1.36-.23,2.91-4.11,3.47s-8.31-.08-9.92-1.44.23-2.91,4.11-3.47,8.31.08,9.92,1.44Z"/>
        </g>
        <g>
          <g>
            <path class="cls-1" d="M128.46,124.62c-2.92.42-4.68,1.41-4.69,2.45v5.69c0,.34.18.68.58,1.02,1.21,1.02,4.03,1.64,7.01,1.64v-11.01c-.97,0-1.95.06-2.9.2Z"/>
            <path class="cls-2" d="M138.96,127.07c0-.34-.18-.68-.58-1.02-1.21-1.02-4.03-1.64-7.01-1.64v11.01c.97,0,1.95-.06,2.9-.2,2.92-.42,4.68-1.41,4.69-2.45v-5.69Z"/>
          </g>
          <path class="cls-2" d="M138.38,126.05c1.6,1.36-.23,2.91-4.11,3.47s-8.31-.08-9.92-1.44c-1.6-1.36.23-2.91,4.11-3.47s8.31.08,9.92,1.44Z"/>
        </g>
        <g>
          <g>
            <path class="cls-1" d="M141.94,113.23c-2.92.42-4.68,1.41-4.69,2.45v5.69c0,.34.18.68.58,1.02,1.21,1.02,4.03,1.64,7.01,1.64v-11.01c-.97,0-1.95.06-2.9.2Z"/>
            <path class="cls-2" d="M152.43,115.68c0-.34-.18-.68-.58-1.02-1.21-1.02-4.03-1.64-7.01-1.64v11.01c.97,0,1.95-.06,2.9-.2,2.92-.42,4.68-1.41,4.69-2.45v-5.69Z"/>
          </g>
          <path class="cls-2" d="M151.85,114.67c1.6,1.36-.23,2.91-4.11,3.47s-8.31-.08-9.92-1.44c-1.6-1.36.23-2.91,4.11-3.47,3.87-.56,8.31.08,9.92,1.44Z"/>
        </g>
        <g>
          <g>
            <path class="cls-1" d="M151.47,121.28c-2.92.42-4.68,1.41-4.69,2.45v5.69c0,.34.18.68.58,1.02,1.21,1.02,4.03,1.64,7.01,1.64v-11.01c-.97,0-1.95.06-2.9.2Z"/>
            <path class="cls-2" d="M161.96,123.73c0-.34-.18-.68-.58-1.02-1.21-1.02-4.03-1.64-7.01-1.64v11.01c.97,0,1.95-.06,2.9-.2,2.92-.42,4.68-1.41,4.69-2.45v-5.69Z"/>
          </g>
          <path class="cls-2" d="M161.38,122.72c1.6,1.36-.23,2.91-4.11,3.47s-8.31-.08-9.92-1.44.23-2.91,4.11-3.47c3.87-.56,8.31.08,9.92,1.44Z"/>
        </g>
      </g>
      <g>
        <polygon class="cls-3" points="105.57 122.35 82.57 125.69 59.56 129.02 36.56 132.36 13.55 135.69 32.61 151.8 55.61 148.46 78.62 145.13 101.62 141.79 124.63 138.46 105.57 122.35"/>
        <polygon class="cls-3" points="32.61 151.8 32.61 182.16 124.63 168.82 124.63 138.46 32.61 151.8"/>
        <polygon class="cls-1" points="13.55 135.69 13.55 166.06 32.61 182.16 32.61 151.8 13.55 135.69"/>
        <g>
          <g>
            <path class="cls-1" d="M26.91,129.9c-2.92.42-4.68,1.41-4.69,2.45v5.69c0,.34.18.68.58,1.02,1.21,1.02,4.03,1.64,7.01,1.64v-11.01c-.97,0-1.95.06-2.9.2Z"/>
            <path class="cls-3" d="M37.41,132.36c0-.34-.18-.68-.58-1.02-1.21-1.02-4.03-1.64-7.01-1.64v11.01c.97,0,1.95-.06,2.9-.2,2.92-.42,4.68-1.41,4.69-2.45v-5.69Z"/>
          </g>
          <path class="cls-3" d="M36.83,131.34c1.6,1.36-.23,2.91-4.11,3.47s-8.31-.08-9.92-1.44.23-2.91,4.11-3.47c3.87-.56,8.31.08,9.92,1.44Z"/>
        </g>
        <g>
          <g>
            <path class="cls-1" d="M36.44,137.96c-2.92.42-4.68,1.41-4.69,2.45v5.69c0,.34.18.68.58,1.02,1.21,1.02,4.03,1.64,7.01,1.64v-11.01c-.97,0-1.95.06-2.9.2Z"/>
            <path class="cls-3" d="M46.94,140.41c0-.34-.18-.68-.58-1.02-1.21-1.02-4.03-1.64-7.01-1.64v11.01c.97,0,1.95-.06,2.9-.2,2.92-.42,4.68-1.41,4.69-2.45v-5.69Z"/>
          </g>
          <path class="cls-3" d="M46.36,139.39c1.6,1.36-.23,2.91-4.11,3.47s-8.31-.08-9.92-1.44.23-2.91,4.11-3.47c3.87-.56,8.31.08,9.92,1.44Z"/>
        </g>
        <g>
          <g>
            <path class="cls-1" d="M95.93,119.9c-2.92.42-4.68,1.41-4.69,2.45v5.69c0,.34.18.68.58,1.02,1.21,1.02,4.03,1.64,7.01,1.64v-11.01c-.97,0-1.95.06-2.9.2Z"/>
            <path class="cls-3" d="M106.42,122.35c0-.34-.18-.68-.58-1.02-1.21-1.02-4.03-1.64-7.01-1.64v11.01c.97,0,1.95-.06,2.9-.2,2.92-.42,4.68-1.41,4.69-2.45v-5.69Z"/>
          </g>
          <path class="cls-3" d="M105.84,121.34c1.6,1.36-.23,2.91-4.11,3.47-3.87.56-8.31-.08-9.92-1.44s.23-2.91,4.11-3.47,8.31.08,9.92,1.44Z"/>
        </g>
        <g>
          <g>
            <path class="cls-1" d="M105.46,127.95c-2.92.42-4.68,1.41-4.69,2.45v5.69c0,.34.18.68.58,1.02,1.21,1.02,4.03,1.64,7.01,1.64v-11.01c-.97,0-1.95.06-2.9.2Z"/>
            <path class="cls-3" d="M115.95,130.4c0-.34-.18-.68-.58-1.02-1.21-1.02-4.03-1.64-7.01-1.64v11.01c.97,0,1.95-.06,2.9-.2,2.92-.42,4.68-1.41,4.69-2.45v-5.69Z"/>
          </g>
          <path class="cls-3" d="M115.37,129.39c1.6,1.36-.23,2.91-4.11,3.47s-8.31-.08-9.92-1.44c-1.6-1.36.23-2.91,4.11-3.47s8.31.08,9.92,1.44Z"/>
        </g>
        <g>
          <g>
            <path class="cls-1" d="M72.92,123.23c-2.92.42-4.68,1.41-4.69,2.45v5.69c0,.34.18.68.58,1.02,1.21,1.02,4.03,1.64,7.01,1.64v-11.01c-.97,0-1.95.06-2.9.2Z"/>
            <path class="cls-3" d="M83.42,125.69c0-.34-.18-.68-.58-1.02-1.21-1.02-4.03-1.64-7.01-1.64v11.01c.97,0,1.95-.06,2.9-.2,2.92-.42,4.68-1.41,4.69-2.45v-5.69Z"/>
          </g>
          <path class="cls-3" d="M82.84,124.67c1.6,1.36-.23,2.91-4.11,3.47-3.87.56-8.31-.08-9.92-1.44-1.6-1.36.23-2.91,4.11-3.47,3.87-.56,8.31.08,9.92,1.44Z"/>
        </g>
        <g>
          <g>
            <path class="cls-1" d="M82.45,131.29c-2.92.42-4.68,1.41-4.69,2.45v5.69c0,.34.18.68.58,1.02,1.21,1.02,4.03,1.64,7.01,1.64v-11.01c-.97,0-1.95.06-2.9.2Z"/>
            <path class="cls-3" d="M92.95,133.74c0-.34-.18-.68-.58-1.02-1.21-1.02-4.03-1.64-7.01-1.64v11.01c.97,0,1.95-.06,2.9-.2,2.92-.42,4.68-1.41,4.69-2.45v-5.69Z"/>
          </g>
          <path class="cls-3" d="M92.37,132.72c1.6,1.36-.23,2.91-4.11,3.47-3.87.56-8.31-.08-9.92-1.44s.23-2.91,4.11-3.47c3.87-.56,8.31.08,9.92,1.44Z"/>
        </g>
        <g>
          <g>
            <path class="cls-1" d="M49.92,126.57c-2.92.42-4.68,1.41-4.69,2.45v5.69c0,.34.18.68.58,1.02,1.21,1.02,4.03,1.64,7.01,1.64v-11.01c-.97,0-1.95.06-2.9.2Z"/>
            <path class="cls-3" d="M60.41,129.02c0-.34-.18-.68-.58-1.02-1.21-1.02-4.03-1.64-7.01-1.64v11.01c.97,0,1.95-.06,2.9-.2,2.92-.42,4.68-1.41,4.69-2.45v-5.69Z"/>
          </g>
          <path class="cls-3" d="M59.83,128.01c1.6,1.36-.23,2.91-4.11,3.47s-8.31-.08-9.92-1.44.23-2.91,4.11-3.47,8.31.08,9.92,1.44Z"/>
        </g>
        <g>
          <g>
            <path class="cls-1" d="M59.45,134.62c-2.92.42-4.68,1.41-4.69,2.45v5.69c0,.34.18.68.58,1.02,1.21,1.02,4.03,1.64,7.01,1.64v-11.01c-.97,0-1.95.06-2.9.2Z"/>
            <path class="cls-3" d="M69.94,137.07c0-.34-.18-.68-.58-1.02-1.21-1.02-4.03-1.64-7.01-1.64v11.01c.97,0,1.95-.06,2.9-.2,2.92-.42,4.68-1.41,4.69-2.45v-5.69Z"/>
          </g>
          <path class="cls-3" d="M69.36,136.06c1.6,1.36-.23,2.91-4.11,3.47s-8.31-.08-9.92-1.44.23-2.91,4.11-3.47,8.31.08,9.92,1.44Z"/>
        </g>
      </g>
      <g>
        <polygon class="cls-2" points="243.6 71.98 220.6 75.31 197.59 78.65 216.65 94.75 239.65 91.42 262.66 88.08 243.6 71.98"/>
        <polygon class="cls-2" points="239.65 91.42 216.65 94.75 216.65 125.12 239.65 121.78 262.66 118.45 262.66 88.08 239.65 91.42"/>
        <polygon class="cls-1" points="197.59 78.65 197.59 109.01 216.65 125.12 216.65 94.75 197.59 78.65"/>
        <g>
          <g>
            <path class="cls-1" d="M210.95,72.86c-2.92.42-4.68,1.41-4.69,2.45v5.69c0,.34.18.68.58,1.02,1.21,1.02,4.03,1.64,7.01,1.64v-11.01c-.97,0-1.95.06-2.9.2Z"/>
            <path class="cls-2" d="M221.45,75.31c0-.34-.18-.68-.58-1.02-1.21-1.02-4.03-1.64-7.01-1.64v11.01c.97,0,1.95-.06,2.9-.2,2.92-.42,4.68-1.41,4.69-2.45v-5.69Z"/>
          </g>
          <path class="cls-2" d="M220.87,74.3c1.6,1.36-.23,2.91-4.11,3.47s-8.31-.08-9.92-1.44.23-2.91,4.11-3.47c3.87-.56,8.31.08,9.92,1.44Z"/>
        </g>
        <g>
          <g>
            <path class="cls-1" d="M220.48,80.91c-2.92.42-4.68,1.41-4.69,2.45v5.69c0,.34.18.68.58,1.02,1.21,1.02,4.03,1.64,7.01,1.64v-11.01c-.97,0-1.95.06-2.9.2Z"/>
            <path class="cls-2" d="M230.98,83.36c0-.34-.18-.68-.58-1.02-1.21-1.02-4.03-1.64-7.01-1.64v11.01c.97,0,1.95-.06,2.9-.2,2.92-.42,4.68-1.41,4.69-2.45v-5.69Z"/>
          </g>
          <path class="cls-2" d="M230.4,82.35c1.6,1.36-.23,2.91-4.11,3.47s-8.31-.08-9.92-1.44c-1.6-1.36.23-2.91,4.11-3.47s8.31.08,9.92,1.44Z"/>
        </g>
        <g>
          <g>
            <path class="cls-1" d="M233.96,69.52c-2.92.42-4.68,1.41-4.69,2.45v5.69c0,.34.18.68.58,1.02,1.21,1.02,4.03,1.64,7.01,1.64v-11.01c-.97,0-1.95.06-2.9.2Z"/>
            <path class="cls-2" d="M244.45,71.98c0-.34-.18-.68-.58-1.02-1.21-1.02-4.03-1.64-7.01-1.64v11.01c.97,0,1.95-.06,2.9-.2,2.92-.42,4.68-1.41,4.69-2.45v-5.69Z"/>
          </g>
          <path class="cls-2" d="M243.87,70.96c1.6,1.36-.23,2.91-4.11,3.47s-8.31-.08-9.92-1.44.23-2.91,4.11-3.47,8.31.08,9.92,1.44Z"/>
        </g>
        <g>
          <g>
            <path class="cls-1" d="M243.49,77.57c-2.92.42-4.68,1.41-4.69,2.45v5.69c0,.34.18.68.58,1.02,1.21,1.02,4.03,1.64,7.01,1.64v-11.01c-.97,0-1.95.06-2.9.2Z"/>
            <path class="cls-2" d="M253.98,80.03c0-.34-.18-.68-.58-1.02-1.21-1.02-4.03-1.64-7.01-1.64v11.01c.97,0,1.95-.06,2.9-.2,2.92-.42,4.68-1.41,4.69-2.45v-5.69Z"/>
          </g>
          <path class="cls-2" d="M253.4,79.01c1.6,1.36-.23,2.91-4.11,3.47s-8.31-.08-9.92-1.44.23-2.91,4.11-3.47c3.87-.56,8.31.08,9.92,1.44Z"/>
        </g>
      </g>
      <g>
        <polygon class="cls-3" points="197.59 78.65 174.59 81.98 151.58 85.32 128.58 88.65 147.63 104.76 170.64 101.42 193.64 98.09 216.65 94.75 197.59 78.65"/>
        <polygon class="cls-3" points="193.64 98.09 170.64 101.42 147.63 104.76 147.63 135.12 170.64 131.79 193.64 128.45 216.65 125.12 216.65 94.75 193.64 98.09"/>
        <polygon class="cls-1" points="128.58 88.65 128.58 119.02 147.63 135.12 147.63 104.76 128.58 88.65"/>
        <g>
          <g>
            <path class="cls-1" d="M141.94,82.86c-2.92.42-4.68,1.41-4.69,2.45v5.69c0,.34.18.68.58,1.02,1.21,1.02,4.03,1.64,7.01,1.64v-11.01c-.97,0-1.95.06-2.9.2Z"/>
            <path class="cls-3" d="M152.43,85.32c0-.34-.18-.68-.58-1.02-1.21-1.02-4.03-1.64-7.01-1.64v11.01c.97,0,1.95-.06,2.9-.2,2.92-.42,4.68-1.41,4.69-2.45v-5.69Z"/>
          </g>
          <path class="cls-3" d="M151.85,84.3c1.6,1.36-.23,2.91-4.11,3.47s-8.31-.08-9.92-1.44c-1.6-1.36.23-2.91,4.11-3.47,3.87-.56,8.31.08,9.92,1.44Z"/>
        </g>
        <g>
          <g>
            <path class="cls-1" d="M151.47,90.92c-2.92.42-4.68,1.41-4.69,2.45v5.69c0,.34.18.68.58,1.02,1.21,1.02,4.03,1.64,7.01,1.64v-11.01c-.97,0-1.95.06-2.9.2Z"/>
            <path class="cls-3" d="M161.96,93.37c0-.34-.18-.68-.58-1.02-1.21-1.02-4.03-1.64-7.01-1.64v11.01c.97,0,1.95-.06,2.9-.2,2.92-.42,4.68-1.41,4.69-2.45v-5.69Z"/>
          </g>
          <path class="cls-3" d="M161.38,92.35c1.6,1.36-.23,2.91-4.11,3.47s-8.31-.08-9.92-1.44.23-2.91,4.11-3.47c3.87-.56,8.31.08,9.92,1.44Z"/>
        </g>
        <g>
          <g>
            <path class="cls-1" d="M187.95,76.19c-2.92.42-4.68,1.41-4.69,2.45v5.69c0,.34.18.68.58,1.02,1.21,1.02,4.03,1.64,7.01,1.64v-11.01c-.97,0-1.95.06-2.9.2Z"/>
            <path class="cls-3" d="M198.44,78.65c0-.34-.18-.68-.58-1.02-1.21-1.02-4.03-1.64-7.01-1.64v11.01c.97,0,1.95-.06,2.9-.2,2.92-.42,4.68-1.41,4.69-2.45v-5.69Z"/>
          </g>
          <path class="cls-3" d="M197.86,77.63c1.6,1.36-.23,2.91-4.11,3.47-3.87.56-8.31-.08-9.92-1.44s.23-2.91,4.11-3.47c3.87-.56,8.31.08,9.92,1.44Z"/>
        </g>
        <g>
          <g>
            <path class="cls-1" d="M197.48,84.25c-2.92.42-4.68,1.41-4.69,2.45v5.69c0,.34.18.68.58,1.02,1.21,1.02,4.03,1.64,7.01,1.64v-11.01c-.97,0-1.95.06-2.9.2Z"/>
            <path class="cls-3" d="M207.97,86.7c0-.34-.18-.68-.58-1.02-1.21-1.02-4.03-1.64-7.01-1.64v11.01c.97,0,1.95-.06,2.9-.2,2.92-.42,4.68-1.41,4.69-2.45v-5.69Z"/>
          </g>
          <path class="cls-3" d="M207.39,85.68c1.6,1.36-.23,2.91-4.11,3.47-3.87.56-8.31-.08-9.92-1.44s.23-2.91,4.11-3.47c3.87-.56,8.31.08,9.92,1.44Z"/>
        </g>
        <g>
          <g>
            <path class="cls-1" d="M164.94,79.53c-2.92.42-4.68,1.41-4.69,2.45v5.69c0,.34.18.68.58,1.02,1.21,1.02,4.03,1.64,7.01,1.64v-11.01c-.97,0-1.95.06-2.9.2Z"/>
            <path class="cls-3" d="M175.44,81.98c0-.34-.18-.68-.58-1.02-1.21-1.02-4.03-1.64-7.01-1.64v11.01c.97,0,1.95-.06,2.9-.2,2.92-.42,4.68-1.41,4.69-2.45v-5.69Z"/>
          </g>
          <path class="cls-3" d="M174.86,80.97c1.6,1.36-.23,2.91-4.11,3.47s-8.31-.08-9.92-1.44c-1.6-1.36.23-2.91,4.11-3.47s8.31.08,9.92,1.44Z"/>
        </g>
        <g>
          <g>
            <path class="cls-1" d="M174.47,87.58c-2.92.42-4.68,1.41-4.69,2.45v5.69c0,.34.18.68.58,1.02,1.21,1.02,4.03,1.64,7.01,1.64v-11.01c-.97,0-1.95.06-2.9.2Z"/>
            <path class="cls-3" d="M184.97,90.03c0-.34-.18-.68-.58-1.02-1.21-1.02-4.03-1.64-7.01-1.64v11.01c.97,0,1.95-.06,2.9-.2,2.92-.42,4.68-1.41,4.69-2.45v-5.69Z"/>
          </g>
          <path class="cls-3" d="M184.39,89.02c1.6,1.36-.23,2.91-4.11,3.47s-8.31-.08-9.92-1.44.23-2.91,4.11-3.47,8.31.08,9.92,1.44Z"/>
        </g>
      </g>
      <g>
        <polygon class="cls-4" points="262.66 57.72 239.65 61.05 220.6 44.95 243.6 41.61 262.66 57.72"/>
        <polygon class="cls-4" points="239.65 91.42 262.66 88.08 262.66 57.72 239.65 61.05 239.65 91.42"/>
        <polygon class="cls-1" points="220.6 44.95 220.6 75.31 239.65 91.42 239.65 61.05 220.6 44.95"/>
        <g>
          <g>
            <path class="cls-1" d="M233.96,39.16c-2.92.42-4.68,1.41-4.69,2.45v5.69c0,.34.18.68.58,1.02,1.21,1.02,4.03,1.64,7.01,1.64v-11.01c-.97,0-1.95.06-2.9.2Z"/>
            <path class="cls-4" d="M244.45,41.61c0-.34-.18-.68-.58-1.02-1.21-1.02-4.03-1.64-7.01-1.64v11.01c.97,0,1.95-.06,2.9-.2,2.92-.42,4.68-1.41,4.69-2.45v-5.69Z"/>
          </g>
          <path class="cls-4" d="M243.87,40.6c1.6,1.36-.23,2.91-4.11,3.47s-8.31-.08-9.92-1.44.23-2.91,4.11-3.47,8.31.08,9.92,1.44Z"/>
        </g>
        <g>
          <g>
            <path class="cls-1" d="M243.49,47.21c-2.92.42-4.68,1.41-4.69,2.45v5.69c0,.34.18.68.58,1.02,1.21,1.02,4.03,1.64,7.01,1.64v-11.01c-.97,0-1.95.06-2.9.2Z"/>
            <path class="cls-4" d="M253.98,49.66c0-.34-.18-.68-.58-1.02-1.21-1.02-4.03-1.64-7.01-1.64v11.01c.97,0,1.95-.06,2.9-.2,2.92-.42,4.68-1.41,4.69-2.45v-5.69Z"/>
          </g>
          <path class="cls-4" d="M253.4,48.65c1.6,1.36-.23,2.91-4.11,3.47-3.87.56-8.31-.08-9.92-1.44s.23-2.91,4.11-3.47c3.87-.56,8.31.08,9.92,1.44Z"/>
        </g>
      </g>
      <g>
        <polygon class="cls-4" points="128.58 88.53 105.57 91.87 82.57 95.2 59.56 98.54 36.56 101.87 55.62 117.98 78.62 114.64 101.62 111.3 124.63 107.97 147.63 104.63 128.58 88.53"/>
        <polygon class="cls-4" points="55.62 117.98 55.62 148.34 147.63 135 147.63 104.63 55.62 117.98"/>
        <polygon class="cls-1" points="36.56 101.87 36.56 132.24 55.62 148.34 55.62 117.98 36.56 101.87"/>
        <g>
          <g>
            <path class="cls-1" d="M49.92,96.08c-2.92.42-4.68,1.41-4.69,2.45v5.69c0,.34.18.68.58,1.02,1.21,1.02,4.03,1.64,7.01,1.64v-11.01c-.97,0-1.95.06-2.9.2Z"/>
            <path class="cls-4" d="M60.41,98.54c0-.34-.18-.68-.58-1.02-1.21-1.02-4.03-1.64-7.01-1.64v11.01c.97,0,1.95-.06,2.9-.2,2.92-.42,4.68-1.41,4.69-2.45v-5.69Z"/>
          </g>
          <path class="cls-4" d="M59.84,97.52c1.6,1.36-.23,2.91-4.11,3.47s-8.31-.08-9.92-1.44.23-2.91,4.11-3.47c3.87-.56,8.31.08,9.92,1.44Z"/>
        </g>
        <g>
          <g>
            <path class="cls-1" d="M59.45,104.13c-2.92.42-4.68,1.41-4.69,2.45v5.69c0,.34.18.68.58,1.02,1.21,1.02,4.03,1.64,7.01,1.64v-11.01c-.97,0-1.95.06-2.9.2Z"/>
            <path class="cls-4" d="M69.94,106.59c0-.34-.18-.68-.58-1.02-1.21-1.02-4.03-1.64-7.01-1.64v11.01c.97,0,1.95-.06,2.9-.2,2.92-.42,4.68-1.41,4.69-2.45v-5.69Z"/>
          </g>
          <path class="cls-4" d="M69.36,105.57c1.6,1.36-.23,2.91-4.11,3.47s-8.31-.08-9.92-1.44.23-2.91,4.11-3.47c3.87-.56,8.31.08,9.92,1.44Z"/>
        </g>
        <g>
          <g>
            <path class="cls-1" d="M118.93,86.08c-2.92.42-4.68,1.41-4.69,2.45v5.69c0,.34.18.68.58,1.02,1.21,1.02,4.03,1.64,7.01,1.64v-11.01c-.97,0-1.95.06-2.9.2Z"/>
            <path class="cls-4" d="M129.43,88.53c0-.34-.18-.68-.58-1.02-1.21-1.02-4.03-1.64-7.01-1.64v11.01c.97,0,1.95-.06,2.9-.2,2.92-.42,4.68-1.41,4.69-2.45v-5.69Z"/>
          </g>
          <path class="cls-4" d="M128.85,87.51c1.6,1.36-.23,2.91-4.11,3.47-3.87.56-8.31-.08-9.92-1.44s.23-2.91,4.11-3.47c3.87-.56,8.31.08,9.92,1.44Z"/>
        </g>
        <g>
          <g>
            <path class="cls-1" d="M128.46,94.13c-2.92.42-4.68,1.41-4.69,2.45v5.69c0,.34.18.68.58,1.02,1.21,1.02,4.03,1.64,7.01,1.64v-11.01c-.97,0-1.95.06-2.9.2Z"/>
            <path class="cls-4" d="M138.96,96.58c0-.34-.18-.68-.58-1.02-1.21-1.02-4.03-1.64-7.01-1.64v11.01c.97,0,1.95-.06,2.9-.2,2.92-.42,4.68-1.41,4.69-2.45v-5.69Z"/>
          </g>
          <path class="cls-4" d="M138.38,95.57c1.6,1.36-.23,2.91-4.11,3.47s-8.31-.08-9.92-1.44c-1.6-1.36.23-2.91,4.11-3.47s8.31.08,9.92,1.44Z"/>
        </g>
        <g>
          <g>
            <path class="cls-1" d="M95.93,89.41c-2.92.42-4.68,1.41-4.69,2.45v5.69c0,.34.18.68.58,1.02,1.21,1.02,4.03,1.64,7.01,1.64v-11.01c-.97,0-1.95.06-2.9.2Z"/>
            <path class="cls-4" d="M106.42,91.87c0-.34-.18-.68-.58-1.02-1.21-1.02-4.03-1.64-7.01-1.64v11.01c.97,0,1.95-.06,2.9-.2,2.92-.42,4.68-1.41,4.69-2.45v-5.69Z"/>
          </g>
          <path class="cls-4" d="M105.85,90.85c1.6,1.36-.23,2.91-4.11,3.47-3.87.56-8.31-.08-9.92-1.44-1.6-1.36.23-2.91,4.11-3.47s8.31.08,9.92,1.44Z"/>
        </g>
        <g>
          <g>
            <path class="cls-1" d="M105.46,97.46c-2.92.42-4.68,1.41-4.69,2.45v5.69c0,.34.18.68.58,1.02,1.21,1.02,4.03,1.64,7.01,1.64v-11.01c-.97,0-1.95.06-2.9.2Z"/>
            <path class="cls-4" d="M115.95,99.92c0-.34-.18-.68-.58-1.02-1.21-1.02-4.03-1.64-7.01-1.64v11.01c.97,0,1.95-.06,2.9-.2,2.92-.42,4.68-1.41,4.69-2.45v-5.69Z"/>
          </g>
          <path class="cls-4" d="M115.37,98.9c1.6,1.36-.23,2.91-4.11,3.47-3.87.56-8.31-.08-9.92-1.44s.23-2.91,4.11-3.47c3.87-.56,8.31.08,9.92,1.44Z"/>
        </g>
        <g>
          <g>
            <path class="cls-1" d="M72.92,92.75c-2.92.42-4.68,1.41-4.69,2.45v5.69c0,.34.18.68.58,1.02,1.21,1.02,4.03,1.64,7.01,1.64v-11.01c-.97,0-1.95.06-2.9.2Z"/>
            <path class="cls-4" d="M83.42,95.2c0-.34-.18-.68-.58-1.02-1.21-1.02-4.03-1.64-7.01-1.64v11.01c.97,0,1.95-.06,2.9-.2,2.92-.42,4.68-1.41,4.69-2.45v-5.69Z"/>
          </g>
          <path class="cls-4" d="M82.84,94.19c1.6,1.36-.23,2.91-4.11,3.47s-8.31-.08-9.92-1.44.23-2.91,4.11-3.47c3.87-.56,8.31.08,9.92,1.44Z"/>
        </g>
        <g>
          <g>
            <path class="cls-1" d="M82.45,100.8c-2.92.42-4.68,1.41-4.69,2.45v5.69c0,.34.18.68.58,1.02,1.21,1.02,4.03,1.64,7.01,1.64v-11.01c-.97,0-1.95.06-2.9.2Z"/>
            <path class="cls-4" d="M92.95,103.25c0-.34-.18-.68-.58-1.02-1.21-1.02-4.03-1.64-7.01-1.64v11.01c.97,0,1.95-.06,2.9-.2,2.92-.42,4.68-1.41,4.69-2.45v-5.69Z"/>
          </g>
          <path class="cls-4" d="M92.37,102.24c1.6,1.36-.23,2.91-4.11,3.47s-8.31-.08-9.92-1.44c-1.6-1.36.23-2.91,4.11-3.47s8.31.08,9.92,1.44Z"/>
        </g>
      </g>
      <g>
        <g>
          <path class="cls-1" d="M210.95,72.86c-2.92.42-4.68,1.41-4.69,2.45v5.69c0,.34.18.68.58,1.02,1.21,1.02,4.03,1.64,7.01,1.64v-11.01c-.97,0-1.95.06-2.9.2Z"/>
          <path class="cls-2" d="M221.45,75.31c0-.34-.18-.68-.58-1.02-1.21-1.02-4.03-1.64-7.01-1.64v11.01c.97,0,1.95-.06,2.9-.2,2.92-.42,4.68-1.41,4.69-2.45v-5.69Z"/>
        </g>
        <path class="cls-2" d="M220.87,74.3c1.6,1.36-.23,2.91-4.11,3.47s-8.31-.08-9.92-1.44.23-2.91,4.11-3.47c3.87-.56,8.31.08,9.92,1.44Z"/>
      </g>
      <g>
        <g>
          <path class="cls-1" d="M220.48,80.91c-2.92.42-4.68,1.41-4.69,2.45v5.69c0,.34.18.68.58,1.02,1.21,1.02,4.03,1.64,7.01,1.64v-11.01c-.97,0-1.95.06-2.9.2Z"/>
          <path class="cls-2" d="M230.98,83.36c0-.34-.18-.68-.58-1.02-1.21-1.02-4.03-1.64-7.01-1.64v11.01c.97,0,1.95-.06,2.9-.2,2.92-.42,4.68-1.41,4.69-2.45v-5.69Z"/>
        </g>
        <path class="cls-2" d="M230.4,82.35c1.6,1.36-.23,2.91-4.11,3.47s-8.31-.08-9.92-1.44c-1.6-1.36.23-2.91,4.11-3.47s8.31.08,9.92,1.44Z"/>
      </g>
      <g>
        <polygon class="cls-2" points="197.59 48.28 174.59 51.62 151.58 54.95 170.64 71.06 193.64 67.72 216.65 64.39 197.59 48.28"/>
        <polygon class="cls-2" points="193.64 67.72 170.64 71.06 170.64 101.42 193.64 98.09 216.65 94.75 216.65 64.39 193.64 67.72"/>
        <polygon class="cls-1" points="151.58 54.95 151.58 85.32 170.64 101.42 170.64 71.06 151.58 54.95"/>
        <g>
          <g>
            <path class="cls-1" d="M164.94,49.16c-2.92.42-4.68,1.41-4.69,2.45v5.69c0,.34.18.68.58,1.02,1.21,1.02,4.03,1.64,7.01,1.64v-11.01c-.97,0-1.95.06-2.9.2Z"/>
            <path class="cls-2" d="M175.44,51.62c0-.34-.18-.68-.58-1.02-1.21-1.02-4.03-1.64-7.01-1.64v11.01c.97,0,1.95-.06,2.9-.2,2.92-.42,4.68-1.41,4.69-2.45v-5.69Z"/>
          </g>
          <path class="cls-2" d="M174.86,50.6c1.6,1.36-.23,2.91-4.11,3.47s-8.31-.08-9.92-1.44.23-2.91,4.11-3.47,8.31.08,9.92,1.44Z"/>
        </g>
        <g>
          <g>
            <path class="cls-1" d="M174.47,57.22c-2.92.42-4.68,1.41-4.69,2.45v5.69c0,.34.18.68.58,1.02,1.21,1.02,4.03,1.64,7.01,1.64v-11.01c-.97,0-1.95.06-2.9.2Z"/>
            <path class="cls-2" d="M184.97,59.67c0-.34-.18-.68-.58-1.02-1.21-1.02-4.03-1.64-7.01-1.64v11.01c.97,0,1.95-.06,2.9-.2,2.92-.42,4.68-1.41,4.69-2.45v-5.69Z"/>
          </g>
          <path class="cls-2" d="M184.39,58.65c1.6,1.36-.23,2.91-4.11,3.47s-8.31-.08-9.92-1.44c-1.6-1.36.23-2.91,4.11-3.47s8.31.08,9.92,1.44Z"/>
        </g>
        <g>
          <g>
            <path class="cls-1" d="M187.95,45.83c-2.92.42-4.68,1.41-4.69,2.45v5.69c0,.34.18.68.58,1.02,1.21,1.02,4.03,1.64,7.01,1.64v-11.01c-.97,0-1.95.06-2.9.2Z"/>
            <path class="cls-2" d="M198.44,48.28c0-.34-.18-.68-.58-1.02-1.21-1.02-4.03-1.64-7.01-1.64v11.01c.97,0,1.95-.06,2.9-.2,2.92-.42,4.68-1.41,4.69-2.45v-5.69Z"/>
          </g>
          <path class="cls-2" d="M197.86,47.27c1.6,1.36-.23,2.91-4.11,3.47s-8.31-.08-9.92-1.44c-1.6-1.36.23-2.91,4.11-3.47,3.87-.56,8.31.08,9.92,1.44Z"/>
        </g>
        <g>
          <g>
            <path class="cls-1" d="M197.48,53.88c-2.92.42-4.68,1.41-4.69,2.45v5.69c0,.34.18.68.58,1.02,1.21,1.02,4.03,1.64,7.01,1.64v-11.01c-.97,0-1.95.06-2.9.2Z"/>
            <path class="cls-2" d="M207.97,56.33c0-.34-.18-.68-.58-1.02-1.21-1.02-4.03-1.64-7.01-1.64v11.01c.97,0,1.95-.06,2.9-.2,2.92-.42,4.68-1.41,4.69-2.45v-5.69Z"/>
          </g>
          <path class="cls-2" d="M207.39,55.32c1.6,1.36-.23,2.91-4.11,3.47s-8.31-.08-9.92-1.44.23-2.91,4.11-3.47c3.87-.56,8.31.08,9.92,1.44Z"/>
        </g>
      </g>
      <g>
        <polygon class="cls-3" points="151.58 54.95 128.58 58.29 105.57 61.62 82.57 64.96 59.56 68.29 78.62 84.4 101.62 81.06 124.63 77.73 147.63 74.39 170.64 71.06 151.58 54.95"/>
        <polygon class="cls-3" points="78.62 84.4 78.62 114.76 170.64 101.42 170.64 71.06 78.62 84.4"/>
        <polygon class="cls-1" points="59.56 68.29 59.56 98.66 78.62 114.76 78.62 84.4 59.56 68.29"/>
        <g>
          <g>
            <path class="cls-1" d="M72.92,62.5c-2.92.42-4.68,1.41-4.69,2.45v5.69c0,.34.18.68.58,1.02,1.21,1.02,4.03,1.64,7.01,1.64v-11.01c-.97,0-1.95.06-2.9.2Z"/>
            <path class="cls-3" d="M83.42,64.96c0-.34-.18-.68-.58-1.02-1.21-1.02-4.03-1.64-7.01-1.64v11.01c.97,0,1.95-.06,2.9-.2,2.92-.42,4.68-1.41,4.69-2.45v-5.69Z"/>
          </g>
          <path class="cls-3" d="M82.84,63.94c1.6,1.36-.23,2.91-4.11,3.47s-8.31-.08-9.92-1.44.23-2.91,4.11-3.47c3.87-.56,8.31.08,9.92,1.44Z"/>
        </g>
        <g>
          <g>
            <path class="cls-1" d="M82.45,70.56c-2.92.42-4.68,1.41-4.69,2.45v5.69c0,.34.18.68.58,1.02,1.21,1.02,4.03,1.64,7.01,1.64v-11.01c-.97,0-1.95.06-2.9.2Z"/>
            <path class="cls-3" d="M92.95,73.01c0-.34-.18-.68-.58-1.02-1.21-1.02-4.03-1.64-7.01-1.64v11.01c.97,0,1.95-.06,2.9-.2,2.92-.42,4.68-1.41,4.69-2.45v-5.69Z"/>
          </g>
          <path class="cls-3" d="M92.37,71.99c1.6,1.36-.23,2.91-4.11,3.47s-8.31-.08-9.92-1.44.23-2.91,4.11-3.47c3.87-.56,8.31.08,9.92,1.44Z"/>
        </g>
        <g>
          <g>
            <path class="cls-1" d="M141.94,52.5c-2.92.42-4.68,1.41-4.69,2.45v5.69c0,.34.18.68.58,1.02,1.21,1.02,4.03,1.64,7.01,1.64v-11.01c-.97,0-1.95.06-2.9.2Z"/>
            <path class="cls-3" d="M152.43,54.95c0-.34-.18-.68-.58-1.02-1.21-1.02-4.03-1.64-7.01-1.64v11.01c.97,0,1.95-.06,2.9-.2,2.92-.42,4.68-1.41,4.69-2.45v-5.69Z"/>
          </g>
          <path class="cls-3" d="M151.85,53.94c1.6,1.36-.23,2.91-4.11,3.47-3.87.56-8.31-.08-9.92-1.44-1.6-1.36.23-2.91,4.11-3.47s8.31.08,9.92,1.44Z"/>
        </g>
        <g>
          <g>
            <path class="cls-1" d="M151.47,60.55c-2.92.42-4.68,1.41-4.69,2.45v5.69c0,.34.18.68.58,1.02,1.21,1.02,4.03,1.64,7.01,1.64v-11.01c-.97,0-1.95.06-2.9.2Z"/>
            <path class="cls-3" d="M161.96,63c0-.34-.18-.68-.58-1.02-1.21-1.02-4.03-1.64-7.01-1.64v11.01c.97,0,1.95-.06,2.9-.2,2.92-.42,4.68-1.41,4.69-2.45v-5.69Z"/>
          </g>
          <path class="cls-3" d="M161.38,61.99c1.6,1.36-.23,2.91-4.11,3.47s-8.31-.08-9.92-1.44c-1.6-1.36.23-2.91,4.11-3.47s8.31.08,9.92,1.44Z"/>
        </g>
        <g>
          <g>
            <path class="cls-1" d="M118.93,55.83c-2.92.42-4.68,1.41-4.69,2.45v5.69c0,.34.18.68.58,1.02,1.21,1.02,4.03,1.64,7.01,1.64v-11.01c-.97,0-1.95.06-2.9.2Z"/>
            <path class="cls-3" d="M129.43,58.29c0-.34-.18-.68-.58-1.02-1.21-1.02-4.03-1.64-7.01-1.64v11.01c.97,0,1.95-.06,2.9-.2,2.92-.42,4.68-1.41,4.69-2.45v-5.69Z"/>
          </g>
          <path class="cls-3" d="M128.85,57.27c1.6,1.36-.23,2.91-4.11,3.47-3.87.56-8.31-.08-9.92-1.44s.23-2.91,4.11-3.47c3.87-.56,8.31.08,9.92,1.44Z"/>
        </g>
        <g>
          <g>
            <path class="cls-1" d="M128.46,63.89c-2.92.42-4.68,1.41-4.69,2.45v5.69c0,.34.18.68.58,1.02,1.21,1.02,4.03,1.64,7.01,1.64v-11.01c-.97,0-1.95.06-2.9.2Z"/>
            <path class="cls-3" d="M138.96,66.34c0-.34-.18-.68-.58-1.02-1.21-1.02-4.03-1.64-7.01-1.64v11.01c.97,0,1.95-.06,2.9-.2,2.92-.42,4.68-1.41,4.69-2.45v-5.69Z"/>
          </g>
          <path class="cls-3" d="M138.38,65.32c1.6,1.36-.23,2.91-4.11,3.47-3.87.56-8.31-.08-9.92-1.44s.23-2.91,4.11-3.47c3.87-.56,8.31.08,9.92,1.44Z"/>
        </g>
        <g>
          <g>
            <path class="cls-1" d="M95.93,59.17c-2.92.42-4.68,1.41-4.69,2.45v5.69c0,.34.18.68.58,1.02,1.21,1.02,4.03,1.64,7.01,1.64v-11.01c-.97,0-1.95.06-2.9.2Z"/>
            <path class="cls-3" d="M106.42,61.62c0-.34-.18-.68-.58-1.02-1.21-1.02-4.03-1.64-7.01-1.64v11.01c.97,0,1.95-.06,2.9-.2,2.92-.42,4.68-1.41,4.69-2.45v-5.69Z"/>
          </g>
          <path class="cls-3" d="M105.85,60.61c1.6,1.36-.23,2.91-4.11,3.47s-8.31-.08-9.92-1.44c-1.6-1.36.23-2.91,4.11-3.47s8.31.08,9.92,1.44Z"/>
        </g>
        <g>
          <g>
            <path class="cls-1" d="M105.46,67.22c-2.92.42-4.68,1.41-4.69,2.45v5.69c0,.34.18.68.58,1.02,1.21,1.02,4.03,1.64,7.01,1.64v-11.01c-.97,0-1.95.06-2.9.2Z"/>
            <path class="cls-3" d="M115.95,69.67c0-.34-.18-.68-.58-1.02-1.21-1.02-4.03-1.64-7.01-1.64v11.01c.97,0,1.95-.06,2.9-.2,2.92-.42,4.68-1.41,4.69-2.45v-5.69Z"/>
          </g>
          <path class="cls-3" d="M115.37,68.66c1.6,1.36-.23,2.91-4.11,3.47s-8.31-.08-9.92-1.44.23-2.91,4.11-3.47,8.31.08,9.92,1.44Z"/>
        </g>
      </g>
      <g>
        <g>
          <polygon class="cls-4" points="216.65 34.02 78.62 54.03 59.56 37.93 197.59 17.92 216.65 34.02"/>
          <polygon class="cls-4" points="78.62 84.4 216.65 64.39 216.65 34.02 78.62 54.03 78.62 84.4"/>
          <polygon class="cls-1" points="59.56 37.93 59.56 68.29 78.62 84.4 78.62 54.03 59.56 37.93"/>
          <g>
            <g>
              <path class="cls-1" d="M72.92,32.14c-2.92.42-4.68,1.41-4.69,2.45v5.69c0,.34.18.68.58,1.02,1.21,1.02,4.03,1.64,7.01,1.64v-11.01c-.97,0-1.95.06-2.9.2Z"/>
              <path class="cls-4" d="M83.42,34.59c0-.34-.18-.68-.58-1.02-1.21-1.02-4.03-1.64-7.01-1.64v11.01c.97,0,1.95-.06,2.9-.2,2.92-.42,4.68-1.41,4.69-2.45v-5.69Z"/>
            </g>
            <path class="cls-4" d="M82.84,33.58c1.6,1.36-.23,2.91-4.11,3.47s-8.31-.08-9.92-1.44.23-2.91,4.11-3.47,8.31.08,9.92,1.44Z"/>
          </g>
          <g>
            <g>
              <path class="cls-1" d="M82.45,40.19c-2.92.42-4.68,1.41-4.69,2.45v5.69c0,.34.18.68.58,1.02,1.21,1.02,4.03,1.64,7.01,1.64v-11.01c-.97,0-1.95.06-2.9.2Z"/>
              <path class="cls-4" d="M92.95,42.64c0-.34-.18-.68-.58-1.02-1.21-1.02-4.03-1.64-7.01-1.64v11.01c.97,0,1.95-.06,2.9-.2,2.92-.42,4.68-1.41,4.69-2.45v-5.69Z"/>
            </g>
            <path class="cls-4" d="M92.37,41.63c1.6,1.36-.23,2.91-4.11,3.47s-8.31-.08-9.92-1.44.23-2.91,4.11-3.47,8.31.08,9.92,1.44Z"/>
          </g>
        </g>
        <g>
          <g>
            <g>
              <path class="cls-1" d="M187.95,15.46c-2.92.42-4.68,1.41-4.69,2.45v5.69c0,.34.18.68.58,1.02,1.21,1.02,4.03,1.64,7.01,1.64v-11.01c-.97,0-1.95.06-2.9.2Z"/>
              <path class="cls-4" d="M198.44,17.92c0-.34-.18-.68-.58-1.02-1.21-1.02-4.03-1.64-7.01-1.64v11.01c.97,0,1.95-.06,2.9-.2,2.92-.42,4.68-1.41,4.69-2.45v-5.69Z"/>
            </g>
            <path class="cls-4" d="M197.86,16.9c1.6,1.36-.23,2.91-4.11,3.47-3.87.56-8.31-.08-9.92-1.44s.23-2.91,4.11-3.47c3.87-.56,8.31.08,9.92,1.44Z"/>
          </g>
          <g>
            <g>
              <path class="cls-1" d="M197.48,23.52c-2.92.42-4.68,1.41-4.69,2.45v5.69c0,.34.18.68.58,1.02,1.21,1.02,4.03,1.64,7.01,1.64v-11.01c-.97,0-1.95.06-2.9.2Z"/>
              <path class="cls-4" d="M207.97,25.97c0-.34-.18-.68-.58-1.02-1.21-1.02-4.03-1.64-7.01-1.64v11.01c.97,0,1.95-.06,2.9-.2,2.92-.42,4.68-1.41,4.69-2.45v-5.69Z"/>
            </g>
            <path class="cls-4" d="M207.39,24.95c1.6,1.36-.23,2.91-4.11,3.47-3.87.56-8.31-.08-9.92-1.44s.23-2.91,4.11-3.47c3.87-.56,8.31.08,9.92,1.44Z"/>
          </g>
        </g>
        <g>
          <g>
            <g>
              <path class="cls-1" d="M164.94,18.8c-2.92.42-4.68,1.41-4.69,2.45v5.69c0,.34.18.68.58,1.02,1.21,1.02,4.03,1.64,7.01,1.64v-11.01c-.97,0-1.95.06-2.9.2Z"/>
              <path class="cls-4" d="M175.44,21.25c0-.34-.18-.68-.58-1.02-1.21-1.02-4.03-1.64-7.01-1.64v11.01c.97,0,1.95-.06,2.9-.2,2.92-.42,4.68-1.41,4.69-2.45v-5.69Z"/>
            </g>
            <path class="cls-4" d="M174.86,20.24c1.6,1.36-.23,2.91-4.11,3.47s-8.31-.08-9.92-1.44.23-2.91,4.11-3.47,8.31.08,9.92,1.44Z"/>
          </g>
          <g>
            <g>
              <path class="cls-1" d="M174.47,26.85c-2.92.42-4.68,1.41-4.69,2.45v5.69c0,.34.18.68.58,1.02,1.21,1.02,4.03,1.64,7.01,1.64v-11.01c-.97,0-1.95.06-2.9.2Z"/>
              <path class="cls-4" d="M184.97,29.3c0-.34-.18-.68-.58-1.02-1.21-1.02-4.03-1.64-7.01-1.64v11.01c.97,0,1.95-.06,2.9-.2,2.92-.42,4.68-1.41,4.69-2.45v-5.69Z"/>
            </g>
            <path class="cls-4" d="M184.39,28.29c1.6,1.36-.23,2.91-4.11,3.47s-8.31-.08-9.92-1.44c-1.6-1.36.23-2.91,4.11-3.47s8.31.08,9.92,1.44Z"/>
          </g>
        </g>
        <g>
          <g>
            <g>
              <path class="cls-1" d="M141.94,22.13c-2.92.42-4.68,1.41-4.69,2.45v5.69c0,.34.18.68.58,1.02,1.21,1.02,4.03,1.64,7.01,1.64v-11.01c-.97,0-1.95.06-2.9.2Z"/>
              <path class="cls-4" d="M152.43,24.59c0-.34-.18-.68-.58-1.02-1.21-1.02-4.03-1.64-7.01-1.64v11.01c.97,0,1.95-.06,2.9-.2,2.92-.42,4.68-1.41,4.69-2.45v-5.69Z"/>
            </g>
            <path class="cls-4" d="M151.85,23.57c1.6,1.36-.23,2.91-4.11,3.47-3.87.56-8.31-.08-9.92-1.44s.23-2.91,4.11-3.47c3.87-.56,8.31.08,9.92,1.44Z"/>
          </g>
          <g>
            <g>
              <path class="cls-1" d="M151.47,30.19c-2.92.42-4.68,1.41-4.69,2.45v5.69c0,.34.18.68.58,1.02,1.21,1.02,4.03,1.64,7.01,1.64v-11.01c-.97,0-1.95.06-2.9.2Z"/>
              <path class="cls-4" d="M161.96,32.64c0-.34-.18-.68-.58-1.02-1.21-1.02-4.03-1.64-7.01-1.64v11.01c.97,0,1.95-.06,2.9-.2,2.92-.42,4.68-1.41,4.69-2.45v-5.69Z"/>
            </g>
            <path class="cls-4" d="M161.38,31.62c1.6,1.36-.23,2.91-4.11,3.47-3.87.56-8.31-.08-9.92-1.44s.23-2.91,4.11-3.47c3.87-.56,8.31.08,9.92,1.44Z"/>
          </g>
        </g>
        <g>
          <g>
            <g>
              <path class="cls-1" d="M118.93,25.47c-2.92.42-4.68,1.41-4.69,2.45v5.69c0,.34.18.68.58,1.02,1.21,1.02,4.03,1.64,7.01,1.64v-11.01c-.97,0-1.95.06-2.9.2Z"/>
              <path class="cls-4" d="M129.43,27.92c0-.34-.18-.68-.58-1.02-1.21-1.02-4.03-1.64-7.01-1.64v11.01c.97,0,1.95-.06,2.9-.2,2.92-.42,4.68-1.41,4.69-2.45v-5.69Z"/>
            </g>
            <path class="cls-4" d="M128.85,26.91c1.6,1.36-.23,2.91-4.11,3.47s-8.31-.08-9.92-1.44c-1.6-1.36.23-2.91,4.11-3.47s8.31.08,9.92,1.44Z"/>
          </g>
          <g>
            <g>
              <path class="cls-1" d="M128.46,33.52c-2.92.42-4.68,1.41-4.69,2.45v5.69c0,.34.18.68.58,1.02,1.21,1.02,4.03,1.64,7.01,1.64v-11.01c-.97,0-1.95.06-2.9.2Z"/>
              <path class="cls-4" d="M138.96,35.97c0-.34-.18-.68-.58-1.02-1.21-1.02-4.03-1.64-7.01-1.64v11.01c.97,0,1.95-.06,2.9-.2,2.92-.42,4.68-1.41,4.69-2.45v-5.69Z"/>
            </g>
            <path class="cls-4" d="M138.38,34.96c1.6,1.36-.23,2.91-4.11,3.47s-8.31-.08-9.92-1.44.23-2.91,4.11-3.47,8.31.08,9.92,1.44Z"/>
          </g>
        </g>
        <g>
          <g>
            <g>
              <path class="cls-1" d="M95.93,28.8c-2.92.42-4.68,1.41-4.69,2.45v5.69c0,.34.18.68.58,1.02,1.21,1.02,4.03,1.64,7.01,1.64v-11.01c-.97,0-1.95.06-2.9.2Z"/>
              <path class="cls-4" d="M106.42,31.26c0-.34-.18-.68-.58-1.02-1.21-1.02-4.03-1.64-7.01-1.64v11.01c.97,0,1.95-.06,2.9-.2,2.92-.42,4.68-1.41,4.69-2.45v-5.69Z"/>
            </g>
            <path class="cls-4" d="M105.85,30.24c1.6,1.36-.23,2.91-4.11,3.47-3.87.56-8.31-.08-9.92-1.44s.23-2.91,4.11-3.47c3.87-.56,8.31.08,9.92,1.44Z"/>
          </g>
          <g>
            <g>
              <path class="cls-1" d="M105.46,36.86c-2.92.42-4.68,1.41-4.69,2.45v5.69c0,.34.18.68.58,1.02,1.21,1.02,4.03,1.64,7.01,1.64v-11.01c-.97,0-1.95.06-2.9.2Z"/>
              <path class="cls-4" d="M115.95,39.31c0-.34-.18-.68-.58-1.02-1.21-1.02-4.03-1.64-7.01-1.64v11.01c.97,0,1.95-.06,2.9-.2,2.92-.42,4.68-1.41,4.69-2.45v-5.69Z"/>
            </g>
            <path class="cls-4" d="M115.37,38.29c1.6,1.36-.23,2.91-4.11,3.47s-8.31-.08-9.92-1.44.23-2.91,4.11-3.47c3.87-.56,8.31.08,9.92,1.44Z"/>
          </g>
        </g>
      </g>
      <g>
        <g>
          <path class="cls-1" d="M49.92,96.08c-2.92.42-4.68,1.41-4.69,2.45v5.69c0,.34.18.68.58,1.02,1.21,1.02,4.03,1.64,7.01,1.64v-11.01c-.97,0-1.95.06-2.9.2Z"/>
          <path class="cls-4" d="M60.41,98.54c0-.34-.18-.68-.58-1.02-1.21-1.02-4.03-1.64-7.01-1.64v11.01c.97,0,1.95-.06,2.9-.2,2.92-.42,4.68-1.41,4.69-2.45v-5.69Z"/>
        </g>
        <path class="cls-4" d="M59.84,97.52c1.6,1.36-.23,2.91-4.11,3.47s-8.31-.08-9.92-1.44.23-2.91,4.11-3.47c3.87-.56,8.31.08,9.92,1.44Z"/>
      </g>
      <g>
        <g>
          <path class="cls-1" d="M59.45,104.13c-2.92.42-4.68,1.41-4.69,2.45v5.69c0,.34.18.68.58,1.02,1.21,1.02,4.03,1.64,7.01,1.64v-11.01c-.97,0-1.95.06-2.9.2Z"/>
          <path class="cls-4" d="M69.94,106.59c0-.34-.18-.68-.58-1.02-1.21-1.02-4.03-1.64-7.01-1.64v11.01c.97,0,1.95-.06,2.9-.2,2.92-.42,4.68-1.41,4.69-2.45v-5.69Z"/>
        </g>
        <path class="cls-4" d="M69.36,105.57c1.6,1.36-.23,2.91-4.11,3.47s-8.31-.08-9.92-1.44.23-2.91,4.11-3.47c3.87-.56,8.31.08,9.92,1.44Z"/>
      </g>
      <g>
        <g>
          <path class="cls-1" d="M26.91,129.78c-2.92.42-4.68,1.41-4.69,2.45v5.69c0,.34.18.68.58,1.02,1.21,1.02,4.03,1.64,7.01,1.64v-11.01c-.97,0-1.95.06-2.9.2Z"/>
          <path class="cls-3" d="M37.41,132.24c0-.34-.18-.68-.58-1.02-1.21-1.02-4.03-1.64-7.01-1.64v11.01c.97,0,1.95-.06,2.9-.2,2.92-.42,4.68-1.41,4.69-2.45v-5.69Z"/>
        </g>
        <path class="cls-3" d="M36.83,131.22c1.6,1.36-.23,2.91-4.11,3.47s-8.31-.08-9.92-1.44.23-2.91,4.11-3.47c3.87-.56,8.31.08,9.92,1.44Z"/>
      </g>
      <g>
        <g>
          <path class="cls-1" d="M36.44,137.83c-2.92.42-4.68,1.41-4.69,2.45v5.69c0,.34.18.68.58,1.02,1.21,1.02,4.03,1.64,7.01,1.64v-11.01c-.97,0-1.95.06-2.9.2Z"/>
          <path class="cls-3" d="M46.94,140.29c0-.34-.18-.68-.58-1.02-1.21-1.02-4.03-1.64-7.01-1.64v11.01c.97,0,1.95-.06,2.9-.2,2.92-.42,4.68-1.41,4.69-2.45v-5.69Z"/>
        </g>
        <path class="cls-3" d="M46.36,139.27c1.6,1.36-.23,2.91-4.11,3.47s-8.31-.08-9.92-1.44.23-2.91,4.11-3.47c3.87-.56,8.31.08,9.92,1.44Z"/>
      </g>
    </g>
    <text class="cls-11" transform="translate(176.01 149.44) rotate(-8.3) scale(1.02 .99) skewX(-8.05)"><tspan x="0" y="0">wasmcloud:postgres</tspan></text>
    <text class="cls-11" transform="translate(84.2 101.92) rotate(-8.3) scale(1.02 .99) skewX(-8.05)"><tspan x="0" y="0">wasi:messaging</tspan></text>
    <text class="cls-11" transform="translate(41.81 168.72) rotate(-8.3) scale(1.02 .99) skewX(-8.05)"><tspan x="0" y="0">wasi:keyvalue</tspan></text>
  </g>
  <g>
    <g>
      <g>
        <polygon class="cls-4" points="295.07 17.65 281.37 19.63 275.69 14.84 289.4 12.85 295.07 17.65"/>
        <polygon class="cls-4" points="281.37 28.68 295.07 26.69 295.07 17.65 281.37 19.63 281.37 28.68"/>
        <g>
          <path class="cls-1" d="M283.65,11.39c-1.74.25-2.79.84-2.79,1.46v3.39c0,.2.11.41.34.61.72.61,2.4.98,4.18.98v-6.56c-.58,0-1.16.04-1.73.12Z"/>
          <path class="cls-4" d="M289.9,12.85c0-.2-.11-.41-.34-.61-.72-.61-2.4-.98-4.18-.98v6.56c.58,0,1.16-.04,1.73-.12,1.74-.25,2.79-.84,2.79-1.46v-3.39Z"/>
        </g>
        <path class="cls-4" d="M289.56,12.25c.96.81-.14,1.73-2.45,2.07s-4.95-.05-5.91-.86.14-1.73,2.45-2.07,4.95.05,5.91.86Z"/>
        <polygon class="cls-1" points="275.69 14.84 275.69 23.88 281.37 28.68 281.37 19.63 275.69 14.84"/>
      </g>
      <text class="cls-5" transform="translate(301.49 23.76) scale(1.01 1)"><tspan x="0" y="0">Business Logic</tspan></text>
    </g>
    <g>
      <g>
        <polygon class="cls-2" points="295.07 39.66 281.37 41.65 275.69 36.85 289.4 34.86 295.07 39.66"/>
        <polygon class="cls-2" points="281.37 50.69 295.07 48.7 295.07 39.66 281.37 41.65 281.37 50.69"/>
        <g>
          <path class="cls-1" d="M283.65,33.4c-1.74.25-2.79.84-2.79,1.46v3.39c0,.2.11.41.34.61.72.61,2.4.98,4.18.98v-6.56c-.58,0-1.16.04-1.73.12Z"/>
          <path class="cls-2" d="M289.9,34.86c0-.2-.11-.41-.34-.61-.72-.61-2.4-.98-4.18-.98v6.56c.58,0,1.16-.04,1.73-.12,1.74-.25,2.79-.84,2.79-1.46v-3.39Z"/>
        </g>
        <path class="cls-2" d="M289.56,34.26c.96.81-.14,1.73-2.45,2.07s-4.95-.05-5.91-.86.14-1.73,2.45-2.07,4.95.05,5.91.86Z"/>
        <polygon class="cls-1" points="275.69 36.85 275.69 45.89 281.37 50.69 281.37 41.65 275.69 36.85"/>
      </g>
      <text class="cls-5" transform="translate(301.49 45.77) scale(1.01 1)"><tspan x="0" y="0">Reusable Components</tspan></text>
    </g>
    <g>
      <g>
        <polygon class="cls-3" points="295.07 61.35 281.37 63.34 275.69 58.54 289.4 56.56 295.07 61.35"/>
        <polygon class="cls-3" points="281.37 72.38 295.07 70.4 295.07 61.35 281.37 63.34 281.37 72.38"/>
        <g>
          <path class="cls-1" d="M283.65,55.1c-1.74.25-2.79.84-2.79,1.46v3.39c0,.2.11.41.34.61.72.61,2.4.98,4.18.98v-6.56c-.58,0-1.16.04-1.73.12Z"/>
          <path class="cls-3" d="M289.9,56.56c0-.2-.11-.41-.34-.61-.72-.61-2.4-.98-4.18-.98v6.56c.58,0,1.16-.04,1.73-.12,1.74-.25,2.79-.84,2.79-1.46v-3.39Z"/>
        </g>
        <path class="cls-3" d="M289.56,55.95c.96.81-.14,1.73-2.45,2.07s-4.95-.05-5.91-.86.14-1.73,2.45-2.07,4.95.05,5.91.86Z"/>
        <polygon class="cls-1" points="275.69 58.54 275.69 67.59 281.37 72.38 281.37 63.34 275.69 58.54"/>
      </g>
      <text class="cls-5" transform="translate(301.49 67.46) scale(1.01 1)"><tspan x="0" y="0">Capability Providers</tspan></text>
    </g>
  </g>
</svg>