<?xml version="1.0" encoding="UTF-8"?>
<svg id="Layer_1" data-name="Layer 1" xmlns="http://www.w3.org/2000/svg" viewBox="0 0 441.5 294.33">
  <defs>
    <style>
      .cls-1, .cls-2, .cls-3, .cls-4 {
        stroke: #002e5d;
        stroke-linecap: round;
        stroke-linejoin: round;
      }

      .cls-1, .cls-5, .cls-6, .cls-7, .cls-8 {
        fill: #002e5d;
      }

      .cls-2 {
        fill: #ffb600;
      }

      .cls-9, .cls-7 {
        stroke-width: 0px;
      }

      .cls-9, .cls-4, .cls-10 {
        fill: #00c389;
      }

      .cls-3 {
        fill: #768692;
      }

      .cls-11 {
        letter-spacing: -.02em;
      }

      .cls-5 {
        font-size: 16px;
      }

      .cls-5, .cls-10 {
        font-family: CaveatRoman-Bold, Caveat;
        font-variation-settings: 'wght' 700;
        font-weight: 700;
      }

      .cls-6 {
        font-family: CascadiaMonoPL-Regular, 'Cascadia Mono PL';
      }

      .cls-6, .cls-8 {
        font-size: 11px;
      }

      .cls-8 {
        font-family: CascadiaMonoPL-SemiBold, 'Cascadia Mono PL';
        font-weight: 600;
      }

      .cls-10 {
        font-size: 17px;
      }
    </style>
  </defs>
  <g>
    <g>
      <g>
        <polygon class="cls-3" points="276.97 164.12 415 144.11 415 113.74 276.97 133.75 276.97 164.12"/>
        <polygon class="cls-3" points="415 113.74 276.97 133.75 257.91 117.65 395.94 97.64 415 113.74"/>
        <polygon class="cls-1" points="257.91 117.65 257.91 148.01 276.97 164.12 276.97 133.75 257.91 117.65"/>
        <g>
          <g>
            <path class="cls-1" d="M271.27,111.86c-2.92.42-4.68,1.41-4.69,2.45v5.69c0,.34.18.68.58,1.02,1.21,1.02,4.03,1.64,7.01,1.64v-11.01c-.97,0-1.95.06-2.9.2Z"/>
            <path class="cls-3" d="M281.77,114.31c0-.34-.18-.68-.58-1.02-1.21-1.02-4.03-1.64-7.01-1.64v11.01c.97,0,1.95-.06,2.9-.2,2.92-.42,4.68-1.41,4.69-2.45v-5.69Z"/>
          </g>
          <path class="cls-3" d="M281.19,113.3c1.6,1.36-.23,2.91-4.11,3.47s-8.31-.08-9.92-1.44.23-2.91,4.11-3.47,8.31.08,9.92,1.44Z"/>
        </g>
        <g>
          <g>
            <path class="cls-1" d="M280.8,119.91c-2.92.42-4.68,1.41-4.69,2.45v5.69c0,.34.18.68.58,1.02,1.21,1.02,4.03,1.64,7.01,1.64v-11.01c-.97,0-1.95.06-2.9.2Z"/>
            <path class="cls-3" d="M291.3,122.37c0-.34-.18-.68-.58-1.02-1.21-1.02-4.03-1.64-7.01-1.64v11.01c.97,0,1.95-.06,2.9-.2,2.92-.42,4.68-1.41,4.69-2.45v-5.69Z"/>
          </g>
          <path class="cls-3" d="M290.72,121.35c1.6,1.36-.23,2.91-4.11,3.47s-8.31-.08-9.92-1.44.23-2.91,4.11-3.47,8.31.08,9.92,1.44Z"/>
        </g>
      </g>
      <g>
        <g>
          <g>
            <path class="cls-1" d="M386.3,95.18c-2.92.42-4.68,1.41-4.69,2.45v5.69c0,.34.18.68.58,1.02,1.21,1.02,4.03,1.64,7.01,1.64v-11.01c-.97,0-1.95.06-2.9.2Z"/>
            <path class="cls-3" d="M396.79,97.64c0-.34-.18-.68-.58-1.02-1.21-1.02-4.03-1.64-7.01-1.64v11.01c.97,0,1.95-.06,2.9-.2,2.92-.42,4.68-1.41,4.69-2.45v-5.69Z"/>
          </g>
          <path class="cls-3" d="M396.21,96.62c1.6,1.36-.23,2.91-4.11,3.47-3.87.56-8.31-.08-9.92-1.44s.23-2.91,4.11-3.47c3.87-.56,8.31.08,9.92,1.44Z"/>
        </g>
        <g>
          <g>
            <path class="cls-1" d="M395.83,103.24c-2.92.42-4.68,1.41-4.69,2.45v5.69c0,.34.18.68.58,1.02,1.21,1.02,4.03,1.64,7.01,1.64v-11.01c-.97,0-1.95.06-2.9.2Z"/>
            <path class="cls-3" d="M406.32,105.69c0-.34-.18-.68-.58-1.02-1.21-1.02-4.03-1.64-7.01-1.64v11.01c.97,0,1.95-.06,2.9-.2,2.92-.42,4.68-1.41,4.69-2.45v-5.69Z"/>
          </g>
          <path class="cls-3" d="M405.74,104.67c1.6,1.36-.23,2.91-4.11,3.47-3.87.56-8.31-.08-9.92-1.44s.23-2.91,4.11-3.47c3.87-.56,8.31.08,9.92,1.44Z"/>
        </g>
      </g>
      <g>
        <g>
          <g>
            <path class="cls-1" d="M363.29,98.52c-2.92.42-4.68,1.41-4.69,2.45v5.69c0,.34.18.68.58,1.02,1.21,1.02,4.03,1.64,7.01,1.64v-11.01c-.97,0-1.95.06-2.9.2Z"/>
            <path class="cls-3" d="M373.79,100.97c0-.34-.18-.68-.58-1.02-1.21-1.02-4.03-1.64-7.01-1.64v11.01c.97,0,1.95-.06,2.9-.2,2.92-.42,4.68-1.41,4.69-2.45v-5.69Z"/>
          </g>
          <path class="cls-3" d="M373.21,99.96c1.6,1.36-.23,2.91-4.11,3.47s-8.31-.08-9.92-1.44c-1.6-1.36.23-2.91,4.11-3.47s8.31.08,9.92,1.44Z"/>
        </g>
        <g>
          <g>
            <path class="cls-1" d="M372.82,106.57c-2.92.42-4.68,1.41-4.69,2.45v5.69c0,.34.18.68.58,1.02,1.21,1.02,4.03,1.64,7.01,1.64v-11.01c-.97,0-1.95.06-2.9.2Z"/>
            <path class="cls-3" d="M383.32,109.03c0-.34-.18-.68-.58-1.02-1.21-1.02-4.03-1.64-7.01-1.64v11.01c.97,0,1.95-.06,2.9-.2,2.92-.42,4.68-1.41,4.69-2.45v-5.69Z"/>
          </g>
          <path class="cls-3" d="M382.74,108.01c1.6,1.36-.23,2.91-4.11,3.47s-8.31-.08-9.92-1.44.23-2.91,4.11-3.47,8.31.08,9.92,1.44Z"/>
        </g>
      </g>
      <g>
        <g>
          <g>
            <path class="cls-1" d="M340.29,101.85c-2.92.42-4.68,1.41-4.69,2.45v5.69c0,.34.18.68.58,1.02,1.21,1.02,4.03,1.64,7.01,1.64v-11.01c-.97,0-1.95.06-2.9.2Z"/>
            <path class="cls-3" d="M350.78,104.31c0-.34-.18-.68-.58-1.02-1.21-1.02-4.03-1.64-7.01-1.64v11.01c.97,0,1.95-.06,2.9-.2,2.92-.42,4.68-1.41,4.69-2.45v-5.69Z"/>
          </g>
          <path class="cls-3" d="M350.2,103.29c1.6,1.36-.23,2.91-4.11,3.47-3.87.56-8.31-.08-9.92-1.44s.23-2.91,4.11-3.47c3.87-.56,8.31.08,9.92,1.44Z"/>
        </g>
        <g>
          <g>
            <path class="cls-1" d="M349.82,109.91c-2.92.42-4.68,1.41-4.69,2.45v5.69c0,.34.18.68.58,1.02,1.21,1.02,4.03,1.64,7.01,1.64v-11.01c-.97,0-1.95.06-2.9.2Z"/>
            <path class="cls-3" d="M360.31,112.36c0-.34-.18-.68-.58-1.02-1.21-1.02-4.03-1.64-7.01-1.64v11.01c.97,0,1.95-.06,2.9-.2,2.92-.42,4.68-1.41,4.69-2.45v-5.69Z"/>
          </g>
          <path class="cls-3" d="M359.73,111.34c1.6,1.36-.23,2.91-4.11,3.47-3.87.56-8.31-.08-9.92-1.44s.23-2.91,4.11-3.47c3.87-.56,8.31.08,9.92,1.44Z"/>
        </g>
      </g>
      <g>
        <g>
          <g>
            <path class="cls-1" d="M317.28,105.19c-2.92.42-4.68,1.41-4.69,2.45v5.69c0,.34.18.68.58,1.02,1.21,1.02,4.03,1.64,7.01,1.64v-11.01c-.97,0-1.95.06-2.9.2Z"/>
            <path class="cls-3" d="M327.78,107.64c0-.34-.18-.68-.58-1.02-1.21-1.02-4.03-1.64-7.01-1.64v11.01c.97,0,1.95-.06,2.9-.2,2.92-.42,4.68-1.41,4.69-2.45v-5.69Z"/>
          </g>
          <path class="cls-3" d="M327.2,106.63c1.6,1.36-.23,2.91-4.11,3.47s-8.31-.08-9.92-1.44.23-2.91,4.11-3.47,8.31.08,9.92,1.44Z"/>
        </g>
        <g>
          <g>
            <path class="cls-1" d="M326.81,113.24c-2.92.42-4.68,1.41-4.69,2.45v5.69c0,.34.18.68.58,1.02,1.21,1.02,4.03,1.64,7.01,1.64v-11.01c-.97,0-1.95.06-2.9.2Z"/>
            <path class="cls-3" d="M337.31,115.7c0-.34-.18-.68-.58-1.02-1.21-1.02-4.03-1.64-7.01-1.64v11.01c.97,0,1.95-.06,2.9-.2,2.92-.42,4.68-1.41,4.69-2.45v-5.69Z"/>
          </g>
          <path class="cls-3" d="M336.73,114.68c1.6,1.36-.23,2.91-4.11,3.47s-8.31-.08-9.92-1.44.23-2.91,4.11-3.47,8.31.08,9.92,1.44Z"/>
        </g>
      </g>
      <g>
        <g>
          <g>
            <path class="cls-1" d="M294.28,108.53c-2.92.42-4.68,1.41-4.69,2.45v5.69c0,.34.18.68.58,1.02,1.21,1.02,4.03,1.64,7.01,1.64v-11.01c-.97,0-1.95.06-2.9.2Z"/>
            <path class="cls-3" d="M304.77,110.98c0-.34-.18-.68-.58-1.02-1.21-1.02-4.03-1.64-7.01-1.64v11.01c.97,0,1.95-.06,2.9-.2,2.92-.42,4.68-1.41,4.69-2.45v-5.69Z"/>
          </g>
          <path class="cls-3" d="M304.19,109.96c1.6,1.36-.23,2.91-4.11,3.47-3.87.56-8.31-.08-9.92-1.44s.23-2.91,4.11-3.47c3.87-.56,8.31.08,9.92,1.44Z"/>
        </g>
        <g>
          <g>
            <path class="cls-1" d="M303.81,116.58c-2.92.42-4.68,1.41-4.69,2.45v5.69c0,.34.18.68.58,1.02,1.21,1.02,4.03,1.64,7.01,1.64v-11.01c-.97,0-1.95.06-2.9.2Z"/>
            <path class="cls-3" d="M314.3,119.03c0-.34-.18-.68-.58-1.02-1.21-1.02-4.03-1.64-7.01-1.64v11.01c.97,0,1.95-.06,2.9-.2,2.92-.42,4.68-1.41,4.69-2.45v-5.69Z"/>
          </g>
          <path class="cls-3" d="M313.72,118.01c1.6,1.36-.23,2.91-4.11,3.47-3.87.56-8.31-.08-9.92-1.44s.23-2.91,4.11-3.47c3.87-.56,8.31.08,9.92,1.44Z"/>
        </g>
      </g>
    </g>
    <g>
      <polygon class="cls-2" points="257.91 117.65 234.91 120.98 211.9 124.32 230.96 140.42 253.96 137.09 276.97 133.75 257.91 117.65"/>
      <polygon class="cls-2" points="253.96 137.09 230.96 140.42 230.96 170.79 253.96 167.45 276.97 164.12 276.97 133.75 253.96 137.09"/>
      <polygon class="cls-1" points="211.9 124.32 211.9 154.68 230.96 170.79 230.96 140.42 211.9 124.32"/>
      <g>
        <g>
          <path class="cls-1" d="M225.26,118.53c-2.92.42-4.68,1.41-4.69,2.45v5.69c0,.34.18.68.58,1.02,1.21,1.02,4.03,1.64,7.01,1.64v-11.01c-.97,0-1.95.06-2.9.2Z"/>
          <path class="cls-2" d="M235.76,120.98c0-.34-.18-.68-.58-1.02-1.21-1.02-4.03-1.64-7.01-1.64v11.01c.97,0,1.95-.06,2.9-.2,2.92-.42,4.68-1.41,4.69-2.45v-5.69Z"/>
        </g>
        <path class="cls-2" d="M235.18,119.97c1.6,1.36-.23,2.91-4.11,3.47-3.87.56-8.31-.08-9.92-1.44s.23-2.91,4.11-3.47c3.87-.56,8.31.08,9.92,1.44Z"/>
      </g>
      <g>
        <g>
          <path class="cls-1" d="M234.79,126.58c-2.92.42-4.68,1.41-4.69,2.45v5.69c0,.34.18.68.58,1.02,1.21,1.02,4.03,1.64,7.01,1.64v-11.01c-.97,0-1.95.06-2.9.2Z"/>
          <path class="cls-2" d="M245.29,129.04c0-.34-.18-.68-.58-1.02-1.21-1.02-4.03-1.64-7.01-1.64v11.01c.97,0,1.95-.06,2.9-.2,2.92-.42,4.68-1.41,4.69-2.45v-5.69Z"/>
        </g>
        <path class="cls-2" d="M244.71,128.02c1.6,1.36-.23,2.91-4.11,3.47-3.87.56-8.31-.08-9.92-1.44s.23-2.91,4.11-3.47c3.87-.56,8.31.08,9.92,1.44Z"/>
      </g>
      <g>
        <g>
          <path class="cls-1" d="M248.27,115.2c-2.92.42-4.68,1.41-4.69,2.45v5.69c0,.34.18.68.58,1.02,1.21,1.02,4.03,1.64,7.01,1.64v-11.01c-.97,0-1.95.06-2.9.2Z"/>
          <path class="cls-2" d="M258.76,117.65c0-.34-.18-.68-.58-1.02-1.21-1.02-4.03-1.64-7.01-1.64v11.01c.97,0,1.95-.06,2.9-.2,2.92-.42,4.68-1.41,4.69-2.45v-5.69Z"/>
        </g>
        <path class="cls-2" d="M258.18,116.63c1.6,1.36-.23,2.91-4.11,3.47s-8.31-.08-9.92-1.44.23-2.91,4.11-3.47,8.31.08,9.92,1.44Z"/>
      </g>
      <g>
        <g>
          <path class="cls-1" d="M257.8,123.25c-2.92.42-4.68,1.41-4.69,2.45v5.69c0,.34.18.68.58,1.02,1.21,1.02,4.03,1.64,7.01,1.64v-11.01c-.97,0-1.95.06-2.9.2Z"/>
          <path class="cls-2" d="M268.29,125.7c0-.34-.18-.68-.58-1.02-1.21-1.02-4.03-1.64-7.01-1.64v11.01c.97,0,1.95-.06,2.9-.2,2.92-.42,4.68-1.41,4.69-2.45v-5.69Z"/>
        </g>
        <path class="cls-2" d="M267.71,124.68c1.6,1.36-.23,2.91-4.11,3.47s-8.31-.08-9.92-1.44.23-2.91,4.11-3.47,8.31.08,9.92,1.44Z"/>
      </g>
    </g>
    <g>
      <polygon class="cls-3" points="211.9 124.32 188.9 127.65 165.89 130.99 184.95 147.09 207.95 143.76 230.96 140.42 211.9 124.32"/>
      <polygon class="cls-3" points="207.95 143.76 184.95 147.09 184.95 177.46 207.95 174.12 230.96 170.79 230.96 140.42 207.95 143.76"/>
      <polygon class="cls-1" points="165.89 130.99 165.89 161.35 184.95 177.46 184.95 147.09 165.89 130.99"/>
      <g>
        <g>
          <path class="cls-1" d="M179.25,125.2c-2.92.42-4.68,1.41-4.69,2.45v5.69c0,.34.18.68.58,1.02,1.21,1.02,4.03,1.64,7.01,1.64v-11.01c-.97,0-1.95.06-2.9.2Z"/>
          <path class="cls-3" d="M189.75,127.65c0-.34-.18-.68-.58-1.02-1.21-1.02-4.03-1.64-7.01-1.64v11.01c.97,0,1.95-.06,2.9-.2,2.92-.42,4.68-1.41,4.69-2.45v-5.69Z"/>
        </g>
        <path class="cls-3" d="M189.17,126.64c1.6,1.36-.23,2.91-4.11,3.47-3.87.56-8.31-.08-9.92-1.44s.23-2.91,4.11-3.47c3.87-.56,8.31.08,9.92,1.44Z"/>
      </g>
      <g>
        <g>
          <path class="cls-1" d="M188.78,133.25c-2.92.42-4.68,1.41-4.69,2.45v5.69c0,.34.18.68.58,1.02,1.21,1.02,4.03,1.64,7.01,1.64v-11.01c-.97,0-1.95.06-2.9.2Z"/>
          <path class="cls-3" d="M199.28,135.71c0-.34-.18-.68-.58-1.02-1.21-1.02-4.03-1.64-7.01-1.64v11.01c.97,0,1.95-.06,2.9-.2,2.92-.42,4.68-1.41,4.69-2.45v-5.69Z"/>
        </g>
        <path class="cls-3" d="M198.7,134.69c1.6,1.36-.23,2.91-4.11,3.47-3.87.56-8.31-.08-9.92-1.44s.23-2.91,4.11-3.47c3.87-.56,8.31.08,9.92,1.44Z"/>
      </g>
      <g>
        <g>
          <path class="cls-1" d="M202.26,121.87c-2.92.42-4.68,1.41-4.69,2.45v5.69c0,.34.18.68.58,1.02,1.21,1.02,4.03,1.64,7.01,1.64v-11.01c-.97,0-1.95.06-2.9.2Z"/>
          <path class="cls-3" d="M212.75,124.32c0-.34-.18-.68-.58-1.02-1.21-1.02-4.03-1.64-7.01-1.64v11.01c.97,0,1.95-.06,2.9-.2,2.92-.42,4.68-1.41,4.69-2.45v-5.69Z"/>
        </g>
        <path class="cls-3" d="M212.18,123.3c1.6,1.36-.23,2.91-4.11,3.47s-8.31-.08-9.92-1.44.23-2.91,4.11-3.47,8.31.08,9.92,1.44Z"/>
      </g>
      <g>
        <g>
          <path class="cls-1" d="M211.79,129.92c-2.92.42-4.68,1.41-4.69,2.45v5.69c0,.34.18.68.58,1.02,1.21,1.02,4.03,1.64,7.01,1.64v-11.01c-.97,0-1.95.06-2.9.2Z"/>
          <path class="cls-3" d="M222.28,132.37c0-.34-.18-.68-.58-1.02-1.21-1.02-4.03-1.64-7.01-1.64v11.01c.97,0,1.95-.06,2.9-.2,2.92-.42,4.68-1.41,4.69-2.45v-5.69Z"/>
        </g>
        <path class="cls-3" d="M221.7,131.35c1.6,1.36-.23,2.91-4.11,3.47s-8.31-.08-9.92-1.44.23-2.91,4.11-3.47,8.31.08,9.92,1.44Z"/>
      </g>
    </g>
    <g>
      <polygon class="cls-2" points="372.94 70.73 349.93 74.07 326.93 77.4 345.98 93.5 368.99 90.17 391.99 86.83 372.94 70.73"/>
      <polygon class="cls-2" points="368.99 90.17 345.98 93.5 345.98 123.87 368.99 120.53 391.99 117.2 391.99 86.83 368.99 90.17"/>
      <polygon class="cls-1" points="326.93 77.4 326.93 107.77 345.98 123.87 345.98 93.5 326.93 77.4"/>
      <g>
        <g>
          <path class="cls-1" d="M340.29,71.61c-2.92.42-4.68,1.41-4.69,2.45v5.69c0,.34.18.68.58,1.02,1.21,1.02,4.03,1.64,7.01,1.64v-11.01c-.97,0-1.95.06-2.9.2Z"/>
          <path class="cls-2" d="M350.78,74.07c0-.34-.18-.68-.58-1.02-1.21-1.02-4.03-1.64-7.01-1.64v11.01c.97,0,1.95-.06,2.9-.2,2.92-.42,4.68-1.41,4.69-2.45v-5.69Z"/>
        </g>
        <path class="cls-2" d="M350.2,73.05c1.6,1.36-.23,2.91-4.11,3.47s-8.31-.08-9.92-1.44.23-2.91,4.11-3.47c3.87-.56,8.31.08,9.92,1.44Z"/>
      </g>
      <g>
        <g>
          <path class="cls-1" d="M349.82,79.66c-2.92.42-4.68,1.41-4.69,2.45v5.69c0,.34.18.68.58,1.02,1.21,1.02,4.03,1.64,7.01,1.64v-11.01c-.97,0-1.95.06-2.9.2Z"/>
          <path class="cls-2" d="M360.31,82.12c0-.34-.18-.68-.58-1.02-1.21-1.02-4.03-1.64-7.01-1.64v11.01c.97,0,1.95-.06,2.9-.2,2.92-.42,4.68-1.41,4.69-2.45v-5.69Z"/>
        </g>
        <path class="cls-2" d="M359.73,81.1c1.6,1.36-.23,2.91-4.11,3.47s-8.31-.08-9.92-1.44c-1.6-1.36.23-2.91,4.11-3.47s8.31.08,9.92,1.44Z"/>
      </g>
      <g>
        <g>
          <path class="cls-1" d="M363.29,68.28c-2.92.42-4.68,1.41-4.69,2.45v5.69c0,.34.18.68.58,1.02,1.21,1.02,4.03,1.64,7.01,1.64v-11.01c-.97,0-1.95.06-2.9.2Z"/>
          <path class="cls-2" d="M373.79,70.73c0-.34-.18-.68-.58-1.02-1.21-1.02-4.03-1.64-7.01-1.64v11.01c.97,0,1.95-.06,2.9-.2,2.92-.42,4.68-1.41,4.69-2.45v-5.69Z"/>
        </g>
        <path class="cls-2" d="M373.21,69.71c1.6,1.36-.23,2.91-4.11,3.47s-8.31-.08-9.92-1.44.23-2.91,4.11-3.47,8.31.08,9.92,1.44Z"/>
      </g>
      <g>
        <g>
          <path class="cls-1" d="M372.82,76.33c-2.92.42-4.68,1.41-4.69,2.45v5.69c0,.34.18.68.58,1.02,1.21,1.02,4.03,1.64,7.01,1.64v-11.01c-.97,0-1.95.06-2.9.2Z"/>
          <path class="cls-2" d="M383.32,78.78c0-.34-.18-.68-.58-1.02-1.21-1.02-4.03-1.64-7.01-1.64v11.01c.97,0,1.95-.06,2.9-.2,2.92-.42,4.68-1.41,4.69-2.45v-5.69Z"/>
        </g>
        <path class="cls-2" d="M382.74,77.77c1.6,1.36-.23,2.91-4.11,3.47s-8.31-.08-9.92-1.44.23-2.91,4.11-3.47c3.87-.56,8.31.08,9.92,1.44Z"/>
      </g>
    </g>
    <g>
      <polygon class="cls-3" points="326.93 77.4 303.92 80.74 280.92 84.07 257.91 87.41 276.97 103.51 299.97 100.17 322.98 96.84 345.98 93.5 326.93 77.4"/>
      <polygon class="cls-3" points="322.98 96.84 299.97 100.17 276.97 103.51 276.97 133.87 299.97 130.54 322.98 127.2 345.98 123.87 345.98 93.5 322.98 96.84"/>
      <polygon class="cls-1" points="257.91 87.41 257.91 117.77 276.97 133.87 276.97 103.51 257.91 87.41"/>
      <g>
        <g>
          <path class="cls-1" d="M271.27,81.62c-2.92.42-4.68,1.41-4.69,2.45v5.69c0,.34.18.68.58,1.02,1.21,1.02,4.03,1.64,7.01,1.64v-11.01c-.97,0-1.95.06-2.9.2Z"/>
          <path class="cls-3" d="M281.77,84.07c0-.34-.18-.68-.58-1.02-1.21-1.02-4.03-1.64-7.01-1.64v11.01c.97,0,1.95-.06,2.9-.2,2.92-.42,4.68-1.41,4.69-2.45v-5.69Z"/>
        </g>
        <path class="cls-3" d="M281.19,83.05c1.6,1.36-.23,2.91-4.11,3.47s-8.31-.08-9.92-1.44c-1.6-1.36.23-2.91,4.11-3.47,3.87-.56,8.31.08,9.92,1.44Z"/>
      </g>
      <g>
        <g>
          <path class="cls-1" d="M280.8,89.67c-2.92.42-4.68,1.41-4.69,2.45v5.69c0,.34.18.68.58,1.02,1.21,1.02,4.03,1.64,7.01,1.64v-11.01c-.97,0-1.95.06-2.9.2Z"/>
          <path class="cls-3" d="M291.3,92.12c0-.34-.18-.68-.58-1.02-1.21-1.02-4.03-1.64-7.01-1.64v11.01c.97,0,1.95-.06,2.9-.2,2.92-.42,4.68-1.41,4.69-2.45v-5.69Z"/>
        </g>
        <path class="cls-3" d="M290.72,91.11c1.6,1.36-.23,2.91-4.11,3.47s-8.31-.08-9.92-1.44.23-2.91,4.11-3.47c3.87-.56,8.31.08,9.92,1.44Z"/>
      </g>
      <g>
        <g>
          <path class="cls-1" d="M317.28,74.95c-2.92.42-4.68,1.41-4.69,2.45v5.69c0,.34.18.68.58,1.02,1.21,1.02,4.03,1.64,7.01,1.64v-11.01c-.97,0-1.95.06-2.9.2Z"/>
          <path class="cls-3" d="M327.78,77.4c0-.34-.18-.68-.58-1.02-1.21-1.02-4.03-1.64-7.01-1.64v11.01c.97,0,1.95-.06,2.9-.2,2.92-.42,4.68-1.41,4.69-2.45v-5.69Z"/>
        </g>
        <path class="cls-3" d="M327.2,76.38c1.6,1.36-.23,2.91-4.11,3.47-3.87.56-8.31-.08-9.92-1.44s.23-2.91,4.11-3.47c3.87-.56,8.31.08,9.92,1.44Z"/>
      </g>
      <g>
        <g>
          <path class="cls-1" d="M326.81,83c-2.92.42-4.68,1.41-4.69,2.45v5.69c0,.34.18.68.58,1.02,1.21,1.02,4.03,1.64,7.01,1.64v-11.01c-.97,0-1.95.06-2.9.2Z"/>
          <path class="cls-3" d="M337.31,85.45c0-.34-.18-.68-.58-1.02-1.21-1.02-4.03-1.64-7.01-1.64v11.01c.97,0,1.95-.06,2.9-.2,2.92-.42,4.68-1.41,4.69-2.45v-5.69Z"/>
        </g>
        <path class="cls-3" d="M336.73,84.44c1.6,1.36-.23,2.91-4.11,3.47-3.87.56-8.31-.08-9.92-1.44s.23-2.91,4.11-3.47c3.87-.56,8.31.08,9.92,1.44Z"/>
      </g>
      <g>
        <g>
          <path class="cls-1" d="M294.28,78.28c-2.92.42-4.68,1.41-4.69,2.45v5.69c0,.34.18.68.58,1.02,1.21,1.02,4.03,1.64,7.01,1.64v-11.01c-.97,0-1.95.06-2.9.2Z"/>
          <path class="cls-3" d="M304.77,80.74c0-.34-.18-.68-.58-1.02-1.21-1.02-4.03-1.64-7.01-1.64v11.01c.97,0,1.95-.06,2.9-.2,2.92-.42,4.68-1.41,4.69-2.45v-5.69Z"/>
        </g>
        <path class="cls-3" d="M304.19,79.72c1.6,1.36-.23,2.91-4.11,3.47s-8.31-.08-9.92-1.44c-1.6-1.36.23-2.91,4.11-3.47s8.31.08,9.92,1.44Z"/>
      </g>
      <g>
        <g>
          <path class="cls-1" d="M303.81,86.33c-2.92.42-4.68,1.41-4.69,2.45v5.69c0,.34.18.68.58,1.02,1.21,1.02,4.03,1.64,7.01,1.64v-11.01c-.97,0-1.95.06-2.9.2Z"/>
          <path class="cls-3" d="M314.3,88.79c0-.34-.18-.68-.58-1.02-1.21-1.02-4.03-1.64-7.01-1.64v11.01c.97,0,1.95-.06,2.9-.2,2.92-.42,4.68-1.41,4.69-2.45v-5.69Z"/>
        </g>
        <path class="cls-3" d="M313.72,87.77c1.6,1.36-.23,2.91-4.11,3.47s-8.31-.08-9.92-1.44.23-2.91,4.11-3.47,8.31.08,9.92,1.44Z"/>
      </g>
    </g>
    <g>
      <polygon class="cls-4" points="391.99 56.47 368.99 59.8 349.93 43.7 372.94 40.37 391.99 56.47"/>
      <polygon class="cls-4" points="368.99 90.17 391.99 86.83 391.99 56.47 368.99 59.8 368.99 90.17"/>
      <polygon class="cls-1" points="349.93 43.7 349.93 74.07 368.99 90.17 368.99 59.8 349.93 43.7"/>
      <g>
        <g>
          <path class="cls-1" d="M363.29,37.91c-2.92.42-4.68,1.41-4.69,2.45v5.69c0,.34.18.68.58,1.02,1.21,1.02,4.03,1.64,7.01,1.64v-11.01c-.97,0-1.95.06-2.9.2Z"/>
          <path class="cls-4" d="M373.79,40.37c0-.34-.18-.68-.58-1.02-1.21-1.02-4.03-1.64-7.01-1.64v11.01c.97,0,1.95-.06,2.9-.2,2.92-.42,4.68-1.41,4.69-2.45v-5.69Z"/>
        </g>
        <path class="cls-4" d="M373.21,39.35c1.6,1.36-.23,2.91-4.11,3.47s-8.31-.08-9.92-1.44.23-2.91,4.11-3.47,8.31.08,9.92,1.44Z"/>
      </g>
      <g>
        <g>
          <path class="cls-1" d="M372.82,45.96c-2.92.42-4.68,1.41-4.69,2.45v5.69c0,.34.18.68.58,1.02,1.21,1.02,4.03,1.64,7.01,1.64v-11.01c-.97,0-1.95.06-2.9.2Z"/>
          <path class="cls-4" d="M383.32,48.42c0-.34-.18-.68-.58-1.02-1.21-1.02-4.03-1.64-7.01-1.64v11.01c.97,0,1.95-.06,2.9-.2,2.92-.42,4.68-1.41,4.69-2.45v-5.69Z"/>
        </g>
        <path class="cls-4" d="M382.74,47.4c1.6,1.36-.23,2.91-4.11,3.47-3.87.56-8.31-.08-9.92-1.44s.23-2.91,4.11-3.47c3.87-.56,8.31.08,9.92,1.44Z"/>
      </g>
    </g>
    <g>
      <polygon class="cls-4" points="257.91 87.28 234.91 90.62 211.9 93.95 188.9 97.29 165.89 100.62 184.95 116.73 207.95 113.39 230.96 110.06 253.96 106.72 276.97 103.39 257.91 87.28"/>
      <polygon class="cls-4" points="184.95 116.73 184.95 147.09 276.97 133.75 276.97 103.39 184.95 116.73"/>
      <polygon class="cls-1" points="165.89 100.63 165.89 130.99 184.95 147.09 184.95 116.73 165.89 100.63"/>
      <g>
        <g>
          <path class="cls-1" d="M179.25,94.84c-2.92.42-4.68,1.41-4.69,2.45v5.69c0,.34.18.68.58,1.02,1.21,1.02,4.03,1.64,7.01,1.64v-11.01c-.97,0-1.95.06-2.9.2Z"/>
          <path class="cls-4" d="M189.75,97.29c0-.34-.18-.68-.58-1.02-1.21-1.02-4.03-1.64-7.01-1.64v11.01c.97,0,1.95-.06,2.9-.2,2.92-.42,4.68-1.41,4.69-2.45v-5.69Z"/>
        </g>
        <path class="cls-4" d="M189.17,96.27c1.6,1.36-.23,2.91-4.11,3.47s-8.31-.08-9.92-1.44.23-2.91,4.11-3.47c3.87-.56,8.31.08,9.92,1.44Z"/>
      </g>
      <g>
        <g>
          <path class="cls-1" d="M188.78,102.89c-2.92.42-4.68,1.41-4.69,2.45v5.69c0,.34.18.68.58,1.02,1.21,1.02,4.03,1.64,7.01,1.64v-11.01c-.97,0-1.95.06-2.9.2Z"/>
          <path class="cls-4" d="M199.28,105.34c0-.34-.18-.68-.58-1.02-1.21-1.02-4.03-1.64-7.01-1.64v11.01c.97,0,1.95-.06,2.9-.2,2.92-.42,4.68-1.41,4.69-2.45v-5.69Z"/>
        </g>
        <path class="cls-4" d="M198.7,104.33c1.6,1.36-.23,2.91-4.11,3.47s-8.31-.08-9.92-1.44.23-2.91,4.11-3.47c3.87-.56,8.31.08,9.92,1.44Z"/>
      </g>
      <g>
        <g>
          <path class="cls-1" d="M248.27,84.83c-2.92.42-4.68,1.41-4.69,2.45v5.69c0,.34.18.68.58,1.02,1.21,1.02,4.03,1.64,7.01,1.64v-11.01c-.97,0-1.95.06-2.9.2Z"/>
          <path class="cls-4" d="M258.76,87.28c0-.34-.18-.68-.58-1.02-1.21-1.02-4.03-1.64-7.01-1.64v11.01c.97,0,1.95-.06,2.9-.2,2.92-.42,4.68-1.41,4.69-2.45v-5.69Z"/>
        </g>
        <path class="cls-4" d="M258.18,86.27c1.6,1.36-.23,2.91-4.11,3.47-3.87.56-8.31-.08-9.92-1.44s.23-2.91,4.11-3.47c3.87-.56,8.31.08,9.92,1.44Z"/>
      </g>
      <g>
        <g>
          <path class="cls-1" d="M257.8,92.88c-2.92.42-4.68,1.41-4.69,2.45v5.69c0,.34.18.68.58,1.02,1.21,1.02,4.03,1.64,7.01,1.64v-11.01c-.97,0-1.95.06-2.9.2Z"/>
          <path class="cls-4" d="M268.29,95.34c0-.34-.18-.68-.58-1.02-1.21-1.02-4.03-1.64-7.01-1.64v11.01c.97,0,1.95-.06,2.9-.2,2.92-.42,4.68-1.41,4.69-2.45v-5.69Z"/>
        </g>
        <path class="cls-4" d="M267.71,94.32c1.6,1.36-.23,2.91-4.11,3.47s-8.31-.08-9.92-1.44c-1.6-1.36.23-2.91,4.11-3.47s8.31.08,9.92,1.44Z"/>
      </g>
      <g>
        <g>
          <path class="cls-1" d="M225.26,88.17c-2.92.42-4.68,1.41-4.69,2.45v5.69c0,.34.18.68.58,1.02,1.21,1.02,4.03,1.64,7.01,1.64v-11.01c-.97,0-1.95.06-2.9.2Z"/>
          <path class="cls-4" d="M235.76,90.62c0-.34-.18-.68-.58-1.02-1.21-1.02-4.03-1.64-7.01-1.64v11.01c.97,0,1.95-.06,2.9-.2,2.92-.42,4.68-1.41,4.69-2.45v-5.69Z"/>
        </g>
        <path class="cls-4" d="M235.18,89.6c1.6,1.36-.23,2.91-4.11,3.47-3.87.56-8.31-.08-9.92-1.44-1.6-1.36.23-2.91,4.11-3.47s8.31.08,9.92,1.44Z"/>
      </g>
      <g>
        <g>
          <path class="cls-1" d="M234.79,96.22c-2.92.42-4.68,1.41-4.69,2.45v5.69c0,.34.18.68.58,1.02,1.21,1.02,4.03,1.64,7.01,1.64v-11.01c-.97,0-1.95.06-2.9.2Z"/>
          <path class="cls-4" d="M245.29,98.67c0-.34-.18-.68-.58-1.02-1.21-1.02-4.03-1.64-7.01-1.64v11.01c.97,0,1.95-.06,2.9-.2,2.92-.42,4.68-1.41,4.69-2.45v-5.69Z"/>
        </g>
        <path class="cls-4" d="M244.71,97.65c1.6,1.36-.23,2.91-4.11,3.47-3.87.56-8.31-.08-9.92-1.44s.23-2.91,4.11-3.47c3.87-.56,8.31.08,9.92,1.44Z"/>
      </g>
      <g>
        <g>
          <path class="cls-1" d="M202.26,91.5c-2.92.42-4.68,1.41-4.69,2.45v5.69c0,.34.18.68.58,1.02,1.21,1.02,4.03,1.64,7.01,1.64v-11.01c-.97,0-1.95.06-2.9.2Z"/>
          <path class="cls-4" d="M212.75,93.95c0-.34-.18-.68-.58-1.02-1.21-1.02-4.03-1.64-7.01-1.64v11.01c.97,0,1.95-.06,2.9-.2,2.92-.42,4.68-1.41,4.69-2.45v-5.69Z"/>
        </g>
        <path class="cls-4" d="M212.18,92.94c1.6,1.36-.23,2.91-4.11,3.47s-8.31-.08-9.92-1.44.23-2.91,4.11-3.47c3.87-.56,8.31.08,9.92,1.44Z"/>
      </g>
      <g>
        <g>
          <path class="cls-1" d="M211.79,99.55c-2.92.42-4.68,1.41-4.69,2.45v5.69c0,.34.18.68.58,1.02,1.21,1.02,4.03,1.64,7.01,1.64v-11.01c-.97,0-1.95.06-2.9.2Z"/>
          <path class="cls-4" d="M222.28,102.01c0-.34-.18-.68-.58-1.02-1.21-1.02-4.03-1.64-7.01-1.64v11.01c.97,0,1.95-.06,2.9-.2,2.92-.42,4.68-1.41,4.69-2.45v-5.69Z"/>
        </g>
        <path class="cls-4" d="M221.7,100.99c1.6,1.36-.23,2.91-4.11,3.47s-8.31-.08-9.92-1.44c-1.6-1.36.23-2.91,4.11-3.47s8.31.08,9.92,1.44Z"/>
      </g>
    </g>
    <g>
      <g>
        <path class="cls-1" d="M340.29,71.61c-2.92.42-4.68,1.41-4.69,2.45v5.69c0,.34.18.68.58,1.02,1.21,1.02,4.03,1.64,7.01,1.64v-11.01c-.97,0-1.95.06-2.9.2Z"/>
        <path class="cls-2" d="M350.78,74.07c0-.34-.18-.68-.58-1.02-1.21-1.02-4.03-1.64-7.01-1.64v11.01c.97,0,1.95-.06,2.9-.2,2.92-.42,4.68-1.41,4.69-2.45v-5.69Z"/>
      </g>
      <path class="cls-2" d="M350.2,73.05c1.6,1.36-.23,2.91-4.11,3.47s-8.31-.08-9.92-1.44.23-2.91,4.11-3.47c3.87-.56,8.31.08,9.92,1.44Z"/>
    </g>
    <g>
      <g>
        <path class="cls-1" d="M349.82,79.66c-2.92.42-4.68,1.41-4.69,2.45v5.69c0,.34.18.68.58,1.02,1.21,1.02,4.03,1.64,7.01,1.64v-11.01c-.97,0-1.95.06-2.9.2Z"/>
        <path class="cls-2" d="M360.31,82.12c0-.34-.18-.68-.58-1.02-1.21-1.02-4.03-1.64-7.01-1.64v11.01c.97,0,1.95-.06,2.9-.2,2.92-.42,4.68-1.41,4.69-2.45v-5.69Z"/>
      </g>
      <path class="cls-2" d="M359.73,81.1c1.6,1.36-.23,2.91-4.11,3.47s-8.31-.08-9.92-1.44c-1.6-1.36.23-2.91,4.11-3.47s8.31.08,9.92,1.44Z"/>
    </g>
    <g>
      <polygon class="cls-2" points="326.93 47.04 303.92 50.37 280.92 53.71 299.97 69.81 322.98 66.47 345.98 63.14 326.93 47.04"/>
      <polygon class="cls-2" points="322.98 66.47 299.97 69.81 299.97 100.17 322.98 96.84 345.98 93.5 345.98 63.14 322.98 66.47"/>
      <polygon class="cls-1" points="280.92 53.71 280.92 84.07 299.97 100.17 299.97 69.81 280.92 53.71"/>
      <g>
        <g>
          <path class="cls-1" d="M294.28,47.92c-2.92.42-4.68,1.41-4.69,2.45v5.69c0,.34.18.68.58,1.02,1.21,1.02,4.03,1.64,7.01,1.64v-11.01c-.97,0-1.95.06-2.9.2Z"/>
          <path class="cls-2" d="M304.77,50.37c0-.34-.18-.68-.58-1.02-1.21-1.02-4.03-1.64-7.01-1.64v11.01c.97,0,1.95-.06,2.9-.2,2.92-.42,4.68-1.41,4.69-2.45v-5.69Z"/>
        </g>
        <path class="cls-2" d="M304.19,49.35c1.6,1.36-.23,2.91-4.11,3.47s-8.31-.08-9.92-1.44.23-2.91,4.11-3.47,8.31.08,9.92,1.44Z"/>
      </g>
      <g>
        <g>
          <path class="cls-1" d="M303.81,55.97c-2.92.42-4.68,1.41-4.69,2.45v5.69c0,.34.18.68.58,1.02,1.21,1.02,4.03,1.64,7.01,1.64v-11.01c-.97,0-1.95.06-2.9.2Z"/>
          <path class="cls-2" d="M314.3,58.42c0-.34-.18-.68-.58-1.02-1.21-1.02-4.03-1.64-7.01-1.64v11.01c.97,0,1.95-.06,2.9-.2,2.92-.42,4.68-1.41,4.69-2.45v-5.69Z"/>
        </g>
        <path class="cls-2" d="M313.72,57.41c1.6,1.36-.23,2.91-4.11,3.47s-8.31-.08-9.92-1.44c-1.6-1.36.23-2.91,4.11-3.47s8.31.08,9.92,1.44Z"/>
      </g>
      <g>
        <g>
          <path class="cls-1" d="M317.28,44.58c-2.92.42-4.68,1.41-4.69,2.45v5.69c0,.34.18.68.58,1.02,1.21,1.02,4.03,1.64,7.01,1.64v-11.01c-.97,0-1.95.06-2.9.2Z"/>
          <path class="cls-2" d="M327.78,47.04c0-.34-.18-.68-.58-1.02-1.21-1.02-4.03-1.64-7.01-1.64v11.01c.97,0,1.95-.06,2.9-.2,2.92-.42,4.68-1.41,4.69-2.45v-5.69Z"/>
        </g>
        <path class="cls-2" d="M327.2,46.02c1.6,1.36-.23,2.91-4.11,3.47s-8.31-.08-9.92-1.44c-1.6-1.36.23-2.91,4.11-3.47,3.87-.56,8.31.08,9.92,1.44Z"/>
      </g>
      <g>
        <g>
          <path class="cls-1" d="M326.81,52.63c-2.92.42-4.68,1.41-4.69,2.45v5.69c0,.34.18.68.58,1.02,1.21,1.02,4.03,1.64,7.01,1.64v-11.01c-.97,0-1.95.06-2.9.2Z"/>
          <path class="cls-2" d="M337.31,55.09c0-.34-.18-.68-.58-1.02-1.21-1.02-4.03-1.64-7.01-1.64v11.01c.97,0,1.95-.06,2.9-.2,2.92-.42,4.68-1.41,4.69-2.45v-5.69Z"/>
        </g>
        <path class="cls-2" d="M336.73,54.07c1.6,1.36-.23,2.91-4.11,3.47s-8.31-.08-9.92-1.44.23-2.91,4.11-3.47c3.87-.56,8.31.08,9.92,1.44Z"/>
      </g>
    </g>
    <g>
      <polygon class="cls-3" points="280.92 53.71 257.91 57.04 234.91 60.38 211.9 63.71 188.9 67.05 207.95 83.15 230.96 79.81 253.96 76.48 276.97 73.14 299.97 69.81 280.92 53.71"/>
      <polygon class="cls-3" points="207.95 83.15 207.95 113.51 299.97 100.17 299.97 69.81 207.95 83.15"/>
      <polygon class="cls-1" points="188.9 67.05 188.9 97.41 207.95 113.51 207.95 83.15 188.9 67.05"/>
      <g>
        <g>
          <path class="cls-1" d="M202.26,61.26c-2.92.42-4.68,1.41-4.69,2.45v5.69c0,.34.18.68.58,1.02,1.21,1.02,4.03,1.64,7.01,1.64v-11.01c-.97,0-1.95.06-2.9.2Z"/>
          <path class="cls-3" d="M212.75,63.71c0-.34-.18-.68-.58-1.02-1.21-1.02-4.03-1.64-7.01-1.64v11.01c.97,0,1.95-.06,2.9-.2,2.92-.42,4.68-1.41,4.69-2.45v-5.69Z"/>
        </g>
        <path class="cls-3" d="M212.18,62.69c1.6,1.36-.23,2.91-4.11,3.47s-8.31-.08-9.92-1.44.23-2.91,4.11-3.47c3.87-.56,8.31.08,9.92,1.44Z"/>
      </g>
      <g>
        <g>
          <path class="cls-1" d="M211.79,69.31c-2.92.42-4.68,1.41-4.69,2.45v5.69c0,.34.18.68.58,1.02,1.21,1.02,4.03,1.64,7.01,1.64v-11.01c-.97,0-1.95.06-2.9.2Z"/>
          <path class="cls-3" d="M222.28,71.76c0-.34-.18-.68-.58-1.02-1.21-1.02-4.03-1.64-7.01-1.64v11.01c.97,0,1.95-.06,2.9-.2,2.92-.42,4.68-1.41,4.69-2.45v-5.69Z"/>
        </g>
        <path class="cls-3" d="M221.7,70.75c1.6,1.36-.23,2.91-4.11,3.47s-8.31-.08-9.92-1.44.23-2.91,4.11-3.47c3.87-.56,8.31.08,9.92,1.44Z"/>
      </g>
      <g>
        <g>
          <path class="cls-1" d="M271.27,51.25c-2.92.42-4.68,1.41-4.69,2.45v5.69c0,.34.18.68.58,1.02,1.21,1.02,4.03,1.64,7.01,1.64v-11.01c-.97,0-1.95.06-2.9.2Z"/>
          <path class="cls-3" d="M281.77,53.71c0-.34-.18-.68-.58-1.02-1.21-1.02-4.03-1.64-7.01-1.64v11.01c.97,0,1.95-.06,2.9-.2,2.92-.42,4.68-1.41,4.69-2.45v-5.69Z"/>
        </g>
        <path class="cls-3" d="M281.19,52.69c1.6,1.36-.23,2.91-4.11,3.47-3.87.56-8.31-.08-9.92-1.44-1.6-1.36.23-2.91,4.11-3.47s8.31.08,9.92,1.44Z"/>
      </g>
      <g>
        <g>
          <path class="cls-1" d="M280.8,59.3c-2.92.42-4.68,1.41-4.69,2.45v5.69c0,.34.18.68.58,1.02,1.21,1.02,4.03,1.64,7.01,1.64v-11.01c-.97,0-1.95.06-2.9.2Z"/>
          <path class="cls-3" d="M291.3,61.76c0-.34-.18-.68-.58-1.02-1.21-1.02-4.03-1.64-7.01-1.64v11.01c.97,0,1.95-.06,2.9-.2,2.92-.42,4.68-1.41,4.69-2.45v-5.69Z"/>
        </g>
        <path class="cls-3" d="M290.72,60.74c1.6,1.36-.23,2.91-4.11,3.47s-8.31-.08-9.92-1.44c-1.6-1.36.23-2.91,4.11-3.47s8.31.08,9.92,1.44Z"/>
      </g>
      <g>
        <g>
          <path class="cls-1" d="M248.27,54.59c-2.92.42-4.68,1.41-4.69,2.45v5.69c0,.34.18.68.58,1.02,1.21,1.02,4.03,1.64,7.01,1.64v-11.01c-.97,0-1.95.06-2.9.2Z"/>
          <path class="cls-3" d="M258.76,57.04c0-.34-.18-.68-.58-1.02-1.21-1.02-4.03-1.64-7.01-1.64v11.01c.97,0,1.95-.06,2.9-.2,2.92-.42,4.68-1.41,4.69-2.45v-5.69Z"/>
        </g>
        <path class="cls-3" d="M258.18,56.02c1.6,1.36-.23,2.91-4.11,3.47-3.87.56-8.31-.08-9.92-1.44s.23-2.91,4.11-3.47c3.87-.56,8.31.08,9.92,1.44Z"/>
      </g>
      <g>
        <g>
          <path class="cls-1" d="M257.8,62.64c-2.92.42-4.68,1.41-4.69,2.45v5.69c0,.34.18.68.58,1.02,1.21,1.02,4.03,1.64,7.01,1.64v-11.01c-.97,0-1.95.06-2.9.2Z"/>
          <path class="cls-3" d="M268.29,65.09c0-.34-.18-.68-.58-1.02-1.21-1.02-4.03-1.64-7.01-1.64v11.01c.97,0,1.95-.06,2.9-.2,2.92-.42,4.68-1.41,4.69-2.45v-5.69Z"/>
        </g>
        <path class="cls-3" d="M267.71,64.08c1.6,1.36-.23,2.91-4.11,3.47-3.87.56-8.31-.08-9.92-1.44s.23-2.91,4.11-3.47c3.87-.56,8.31.08,9.92,1.44Z"/>
      </g>
      <g>
        <g>
          <path class="cls-1" d="M225.26,57.92c-2.92.42-4.68,1.41-4.69,2.45v5.69c0,.34.18.68.58,1.02,1.21,1.02,4.03,1.64,7.01,1.64v-11.01c-.97,0-1.95.06-2.9.2Z"/>
          <path class="cls-3" d="M235.76,60.38c0-.34-.18-.68-.58-1.02-1.21-1.02-4.03-1.64-7.01-1.64v11.01c.97,0,1.95-.06,2.9-.2,2.92-.42,4.68-1.41,4.69-2.45v-5.69Z"/>
        </g>
        <path class="cls-3" d="M235.18,59.36c1.6,1.36-.23,2.91-4.11,3.47s-8.31-.08-9.92-1.44c-1.6-1.36.23-2.91,4.11-3.47s8.31.08,9.92,1.44Z"/>
      </g>
      <g>
        <g>
          <path class="cls-1" d="M234.79,65.97c-2.92.42-4.68,1.41-4.69,2.45v5.69c0,.34.18.68.58,1.02,1.21,1.02,4.03,1.64,7.01,1.64v-11.01c-.97,0-1.95.06-2.9.2Z"/>
          <path class="cls-3" d="M245.29,68.43c0-.34-.18-.68-.58-1.02-1.21-1.02-4.03-1.64-7.01-1.64v11.01c.97,0,1.95-.06,2.9-.2,2.92-.42,4.68-1.41,4.69-2.45v-5.69Z"/>
        </g>
        <path class="cls-3" d="M244.71,67.41c1.6,1.36-.23,2.91-4.11,3.47s-8.31-.08-9.92-1.44.23-2.91,4.11-3.47,8.31.08,9.92,1.44Z"/>
      </g>
    </g>
    <g>
      <g>
        <polygon class="cls-4" points="345.98 32.77 207.95 52.78 188.9 36.68 326.93 16.67 345.98 32.77"/>
        <polygon class="cls-4" points="207.95 83.15 345.98 63.14 345.98 32.77 207.95 52.78 207.95 83.15"/>
        <polygon class="cls-1" points="188.9 36.68 188.9 67.05 207.95 83.15 207.95 52.78 188.9 36.68"/>
        <g>
          <g>
            <path class="cls-1" d="M202.26,30.89c-2.92.42-4.68,1.41-4.69,2.45v5.69c0,.34.18.68.58,1.02,1.21,1.02,4.03,1.64,7.01,1.64v-11.01c-.97,0-1.95.06-2.9.2Z"/>
            <path class="cls-4" d="M212.75,33.35c0-.34-.18-.68-.58-1.02-1.21-1.02-4.03-1.64-7.01-1.64v11.01c.97,0,1.95-.06,2.9-.2,2.92-.42,4.68-1.41,4.69-2.45v-5.69Z"/>
          </g>
          <path class="cls-4" d="M212.18,32.33c1.6,1.36-.23,2.91-4.11,3.47s-8.31-.08-9.92-1.44.23-2.91,4.11-3.47,8.31.08,9.92,1.44Z"/>
        </g>
        <g>
          <g>
            <path class="cls-1" d="M211.79,38.94c-2.92.42-4.68,1.41-4.69,2.45v5.69c0,.34.18.68.58,1.02,1.21,1.02,4.03,1.64,7.01,1.64v-11.01c-.97,0-1.95.06-2.9.2Z"/>
            <path class="cls-4" d="M222.28,41.4c0-.34-.18-.68-.58-1.02-1.21-1.02-4.03-1.64-7.01-1.64v11.01c.97,0,1.95-.06,2.9-.2,2.92-.42,4.68-1.41,4.69-2.45v-5.69Z"/>
          </g>
          <path class="cls-4" d="M221.7,40.38c1.6,1.36-.23,2.91-4.11,3.47s-8.31-.08-9.92-1.44.23-2.91,4.11-3.47,8.31.08,9.92,1.44Z"/>
        </g>
      </g>
      <g>
        <g>
          <g>
            <path class="cls-1" d="M317.28,14.22c-2.92.42-4.68,1.41-4.69,2.45v5.69c0,.34.18.68.58,1.02,1.21,1.02,4.03,1.64,7.01,1.64v-11.01c-.97,0-1.95.06-2.9.2Z"/>
            <path class="cls-4" d="M327.78,16.67c0-.34-.18-.68-.58-1.02-1.21-1.02-4.03-1.64-7.01-1.64v11.01c.97,0,1.95-.06,2.9-.2,2.92-.42,4.68-1.41,4.69-2.45v-5.69Z"/>
          </g>
          <path class="cls-4" d="M327.2,15.65c1.6,1.36-.23,2.91-4.11,3.47-3.87.56-8.31-.08-9.92-1.44s.23-2.91,4.11-3.47c3.87-.56,8.31.08,9.92,1.44Z"/>
        </g>
        <g>
          <g>
            <path class="cls-1" d="M326.81,22.27c-2.92.42-4.68,1.41-4.69,2.45v5.69c0,.34.18.68.58,1.02,1.21,1.02,4.03,1.64,7.01,1.64v-11.01c-.97,0-1.95.06-2.9.2Z"/>
            <path class="cls-4" d="M337.31,24.72c0-.34-.18-.68-.58-1.02-1.21-1.02-4.03-1.64-7.01-1.64v11.01c.97,0,1.95-.06,2.9-.2,2.92-.42,4.68-1.41,4.69-2.45v-5.69Z"/>
          </g>
          <path class="cls-4" d="M336.73,23.71c1.6,1.36-.23,2.91-4.11,3.47-3.87.56-8.31-.08-9.92-1.44s.23-2.91,4.11-3.47c3.87-.56,8.31.08,9.92,1.44Z"/>
        </g>
      </g>
      <g>
        <g>
          <g>
            <path class="cls-1" d="M294.28,17.55c-2.92.42-4.68,1.41-4.69,2.45v5.69c0,.34.18.68.58,1.02,1.21,1.02,4.03,1.64,7.01,1.64v-11.01c-.97,0-1.95.06-2.9.2Z"/>
            <path class="cls-4" d="M304.77,20.01c0-.34-.18-.68-.58-1.02-1.21-1.02-4.03-1.64-7.01-1.64v11.01c.97,0,1.95-.06,2.9-.2,2.92-.42,4.68-1.41,4.69-2.45v-5.69Z"/>
          </g>
          <path class="cls-4" d="M304.19,18.99c1.6,1.36-.23,2.91-4.11,3.47s-8.31-.08-9.92-1.44.23-2.91,4.11-3.47,8.31.08,9.92,1.44Z"/>
        </g>
        <g>
          <g>
            <path class="cls-1" d="M303.81,25.6c-2.92.42-4.68,1.41-4.69,2.45v5.69c0,.34.18.68.58,1.02,1.21,1.02,4.03,1.64,7.01,1.64v-11.01c-.97,0-1.95.06-2.9.2Z"/>
            <path class="cls-4" d="M314.3,28.06c0-.34-.18-.68-.58-1.02-1.21-1.02-4.03-1.64-7.01-1.64v11.01c.97,0,1.95-.06,2.9-.2,2.92-.42,4.68-1.41,4.69-2.45v-5.69Z"/>
          </g>
          <path class="cls-4" d="M313.72,27.04c1.6,1.36-.23,2.91-4.11,3.47s-8.31-.08-9.92-1.44c-1.6-1.36.23-2.91,4.11-3.47s8.31.08,9.92,1.44Z"/>
        </g>
      </g>
      <g>
        <g>
          <g>
            <path class="cls-1" d="M271.27,20.89c-2.92.42-4.68,1.41-4.69,2.45v5.69c0,.34.18.68.58,1.02,1.21,1.02,4.03,1.64,7.01,1.64v-11.01c-.97,0-1.95.06-2.9.2Z"/>
            <path class="cls-4" d="M281.77,23.34c0-.34-.18-.68-.58-1.02-1.21-1.02-4.03-1.64-7.01-1.64v11.01c.97,0,1.95-.06,2.9-.2,2.92-.42,4.68-1.41,4.69-2.45v-5.69Z"/>
          </g>
          <path class="cls-4" d="M281.19,22.32c1.6,1.36-.23,2.91-4.11,3.47-3.87.56-8.31-.08-9.92-1.44s.23-2.91,4.11-3.47c3.87-.56,8.31.08,9.92,1.44Z"/>
        </g>
        <g>
          <g>
            <path class="cls-1" d="M280.8,28.94c-2.92.42-4.68,1.41-4.69,2.45v5.69c0,.34.18.68.58,1.02,1.21,1.02,4.03,1.64,7.01,1.64v-11.01c-.97,0-1.95.06-2.9.2Z"/>
            <path class="cls-4" d="M291.3,31.39c0-.34-.18-.68-.58-1.02-1.21-1.02-4.03-1.64-7.01-1.64v11.01c.97,0,1.95-.06,2.9-.2,2.92-.42,4.68-1.41,4.69-2.45v-5.69Z"/>
          </g>
          <path class="cls-4" d="M290.72,30.38c1.6,1.36-.23,2.91-4.11,3.47-3.87.56-8.31-.08-9.92-1.44s.23-2.91,4.11-3.47c3.87-.56,8.31.08,9.92,1.44Z"/>
        </g>
      </g>
      <g>
        <g>
          <g>
            <path class="cls-1" d="M248.27,24.22c-2.92.42-4.68,1.41-4.69,2.45v5.69c0,.34.18.68.58,1.02,1.21,1.02,4.03,1.64,7.01,1.64v-11.01c-.97,0-1.95.06-2.9.2Z"/>
            <path class="cls-4" d="M258.76,26.68c0-.34-.18-.68-.58-1.02-1.21-1.02-4.03-1.64-7.01-1.64v11.01c.97,0,1.95-.06,2.9-.2,2.92-.42,4.68-1.41,4.69-2.45v-5.69Z"/>
          </g>
          <path class="cls-4" d="M258.18,25.66c1.6,1.36-.23,2.91-4.11,3.47s-8.31-.08-9.92-1.44c-1.6-1.36.23-2.91,4.11-3.47s8.31.08,9.92,1.44Z"/>
        </g>
        <g>
          <g>
            <path class="cls-1" d="M257.8,32.27c-2.92.42-4.68,1.41-4.69,2.45v5.69c0,.34.18.68.58,1.02,1.21,1.02,4.03,1.64,7.01,1.64v-11.01c-.97,0-1.95.06-2.9.2Z"/>
            <path class="cls-4" d="M268.29,34.73c0-.34-.18-.68-.58-1.02-1.21-1.02-4.03-1.64-7.01-1.64v11.01c.97,0,1.95-.06,2.9-.2,2.92-.42,4.68-1.41,4.69-2.45v-5.69Z"/>
          </g>
          <path class="cls-4" d="M267.71,33.71c1.6,1.36-.23,2.91-4.11,3.47s-8.31-.08-9.92-1.44.23-2.91,4.11-3.47,8.31.08,9.92,1.44Z"/>
        </g>
      </g>
      <g>
        <g>
          <g>
            <path class="cls-1" d="M225.26,27.56c-2.92.42-4.68,1.41-4.69,2.45v5.69c0,.34.18.68.58,1.02,1.21,1.02,4.03,1.64,7.01,1.64v-11.01c-.97,0-1.95.06-2.9.2Z"/>
            <path class="cls-4" d="M235.76,30.01c0-.34-.18-.68-.58-1.02-1.21-1.02-4.03-1.64-7.01-1.64v11.01c.97,0,1.95-.06,2.9-.2,2.92-.42,4.68-1.41,4.69-2.45v-5.69Z"/>
          </g>
          <path class="cls-4" d="M235.18,28.99c1.6,1.36-.23,2.91-4.11,3.47-3.87.56-8.31-.08-9.92-1.44s.23-2.91,4.11-3.47c3.87-.56,8.31.08,9.92,1.44Z"/>
        </g>
        <g>
          <g>
            <path class="cls-1" d="M234.79,35.61c-2.92.42-4.68,1.41-4.69,2.45v5.69c0,.34.18.68.58,1.02,1.21,1.02,4.03,1.64,7.01,1.64v-11.01c-.97,0-1.95.06-2.9.2Z"/>
            <path class="cls-4" d="M245.29,38.06c0-.34-.18-.68-.58-1.02-1.21-1.02-4.03-1.64-7.01-1.64v11.01c.97,0,1.95-.06,2.9-.2,2.92-.42,4.68-1.41,4.69-2.45v-5.69Z"/>
          </g>
          <path class="cls-4" d="M244.71,37.05c1.6,1.36-.23,2.91-4.11,3.47s-8.31-.08-9.92-1.44.23-2.91,4.11-3.47c3.87-.56,8.31.08,9.92,1.44Z"/>
        </g>
      </g>
    </g>
    <g>
      <g>
        <path class="cls-1" d="M179.25,94.84c-2.92.42-4.68,1.41-4.69,2.45v5.69c0,.34.18.68.58,1.02,1.21,1.02,4.03,1.64,7.01,1.64v-11.01c-.97,0-1.95.06-2.9.2Z"/>
        <path class="cls-4" d="M189.75,97.29c0-.34-.18-.68-.58-1.02-1.21-1.02-4.03-1.64-7.01-1.64v11.01c.97,0,1.95-.06,2.9-.2,2.92-.42,4.68-1.41,4.69-2.45v-5.69Z"/>
      </g>
      <path class="cls-4" d="M189.17,96.27c1.6,1.36-.23,2.91-4.11,3.47s-8.31-.08-9.92-1.44.23-2.91,4.11-3.47c3.87-.56,8.31.08,9.92,1.44Z"/>
    </g>
    <g>
      <g>
        <path class="cls-1" d="M188.78,102.89c-2.92.42-4.68,1.41-4.69,2.45v5.69c0,.34.18.68.58,1.02,1.21,1.02,4.03,1.64,7.01,1.64v-11.01c-.97,0-1.95.06-2.9.2Z"/>
        <path class="cls-4" d="M199.28,105.34c0-.34-.18-.68-.58-1.02-1.21-1.02-4.03-1.64-7.01-1.64v11.01c.97,0,1.95-.06,2.9-.2,2.92-.42,4.68-1.41,4.69-2.45v-5.69Z"/>
      </g>
      <path class="cls-4" d="M198.7,104.33c1.6,1.36-.23,2.91-4.11,3.47s-8.31-.08-9.92-1.44.23-2.91,4.11-3.47c3.87-.56,8.31.08,9.92,1.44Z"/>
    </g>
  </g>
  <text class="cls-8" transform="translate(38.71 228.71) scale(1.01 1)"><tspan x="0" y="0">wasi:messaging</tspan><tspan x="6.44" y="23">wasi:keyvalue</tspan><tspan x="-25.78" y="46">wasmcloud:postgres</tspan></text>
  <text class="cls-6" transform="translate(240.11 230.06) scale(1.01 1)"><tspan x="0" y="0">Web PubSub</tspan><tspan x="0" y="23">Cache for Redis</tspan><tspan x="0" y="46">Azure Database</tspan></text>
  <text class="cls-6" transform="translate(159.03 230.06) scale(1.01 1)"><tspan x="0" y="0">AWS SQS</tspan><tspan x="0" y="23">ElastiCache</tspan><tspan x="0" y="46">Amazon RDS</tspan></text>
  <text class="cls-8" transform="translate(159.28 206.2) scale(1.01 1)"><tspan x="0" y="0">aws</tspan></text>
  <text class="cls-8" transform="translate(240.58 206.2) scale(1.01 1)"><tspan x="0" y="0">azure</tspan></text>
  <text class="cls-6" transform="translate(347.07 230.06) scale(1.01 1)"><tspan x="0" y="0">Cloud Pub/Sub</tspan><tspan x="0" y="23">MemoryStore</tspan><tspan x="0" y="46">Cloud SQL</tspan></text>
  <text class="cls-8" transform="translate(347.54 206.2) scale(1.01 1)"><tspan x="0" y="0">gcp</tspan></text>
  <g>
    <text class="cls-5" transform="translate(140.27 230.06) scale(1.01 1)"><tspan x="0" y="0">1</tspan><tspan x="0" y="23">2</tspan><tspan x="0" y="46">3</tspan></text>
    <path class="cls-7" d="M147.94,240.69c-3.46-2.13-7.06,1.19-8.66,4.07-1.78,3.18-2.39,7.46.75,10,2.83,2.29,6.97,2.87,9.87.42,1.4-1.18,2.13-2.88,2.38-4.66.28-1.94.3-4.15-.47-5.98s-2.29-2.93-4.27-3.14c-2.38-.25-4.82.09-7.07.88-.6.21-.34,1.18.27.96,1.72-.6,3.51-.92,5.33-.92,1.61,0,3.19.18,4.22,1.54s1.17,3.19,1.13,4.86-.27,3.26-1.19,4.62c-.83,1.23-2.19,2.09-3.64,2.38-1.6.32-3.28-.15-4.7-.91s-2.54-1.83-2.95-3.35-.07-3.22.48-4.69c1.08-2.83,4.51-7.37,8-5.22.55.34,1.05-.53.5-.86h0Z"/>
    <path class="cls-7" d="M147.68,215.98c-3.6.34-7.1,1.93-8.56,5.45-.72,1.74-.71,3.64-.21,5.43.47,1.69,1.3,3.58,2.67,4.73s3.3,1.51,5.08,1.44,3.58-.64,4.98-1.82c2.73-2.3,3.2-6.15,1.47-9.18-.97-1.7-2.5-2.96-4.33-3.63-2.01-.73-4.18-.69-6.26-.37-.63.1-.36,1.06.27.96,3.1-.49,6.52-.11,8.68,2.41,2,2.34,2.34,5.8.33,8.24-1.01,1.23-2.45,1.99-4.01,2.27s-3.27.19-4.66-.49c-1.48-.73-2.33-2.29-2.9-3.78s-.91-3.23-.51-4.86c.9-3.7,4.44-5.47,7.96-5.81.64-.06.64-1.06,0-1h0Z"/>
    <path class="cls-7" d="M148.98,264.4c-1.88-.42-3.84-.82-5.77-.48-1.76.31-3.25,1.35-4.21,2.85-2.03,3.15-1.41,7.69.65,10.69.97,1.41,2.36,2.48,4.1,2.68,1.87.22,3.75-.59,5.23-1.68,1.57-1.16,2.97-2.67,3.87-4.41s1-3.53.18-5.29c-1.74-3.75-6.08-6.03-10.11-5.99-.64,0-.64,1.01,0,1,3.14-.03,6.2,1.39,8.19,3.83,1.11,1.35,1.83,3.08,1.33,4.83-.47,1.62-1.64,3.08-2.84,4.22-2.32,2.21-5.99,3.76-8.53,1-2.12-2.31-2.94-6.3-1.8-9.21.65-1.66,1.96-2.99,3.72-3.44,1.88-.48,3.89-.03,5.74.38.63.14.89-.82.27-.96h0Z"/>
  </g>
  <g>
    <text class="cls-5" transform="translate(203.88 163.98) scale(1.01 1)"><tspan x="0" y="0">2</tspan></text>
    <path class="cls-7" d="M211.9,151.71c-3.56-2.19-7.27,1.16-8.94,4.14-1.82,3.26-2.42,7.64.78,10.24,2.92,2.37,7.16,2.95,10.15.42,1.43-1.21,2.18-2.95,2.43-4.78.28-1.98.3-4.21-.48-6.08s-2.39-3.04-4.46-3.26c-2.39-.25-4.86.09-7.12.88-.85.3-.48,1.65.37,1.35,1.7-.6,3.47-.92,5.28-.91,1.53,0,3.05.15,4.05,1.44s1.14,3.13,1.1,4.75-.26,3.19-1.16,4.52c-.81,1.19-2.12,2.01-3.52,2.29-1.55.31-3.18-.15-4.54-.89s-2.46-1.76-2.86-3.23-.06-3.15.48-4.59c1.03-2.7,4.34-7.17,7.71-5.1.77.47,1.47-.74.71-1.21h0Z"/>
  </g>
  <g>
    <text class="cls-5" transform="translate(240.97 97.6) scale(1.01 1)"><tspan x="0" y="0">1</tspan></text>
    <path class="cls-7" d="M248.7,83.39c-3.69.35-7.27,1.99-8.76,5.59-.73,1.77-.72,3.71-.21,5.54.48,1.72,1.33,3.64,2.72,4.82s3.39,1.57,5.22,1.49,3.68-.67,5.12-1.88c2.79-2.35,3.27-6.32,1.5-9.42-1-1.75-2.57-3.04-4.45-3.72-2.04-.74-4.25-.7-6.37-.37-.89.14-.51,1.49.37,1.35,3.03-.48,6.38-.1,8.48,2.36,1.93,2.25,2.26,5.6.33,7.96-.99,1.21-2.39,1.95-3.92,2.22-1.44.26-3.17.19-4.5-.47-1.44-.7-2.26-2.22-2.81-3.66s-.9-3.16-.51-4.75c.88-3.61,4.33-5.33,7.77-5.66.89-.08.9-1.49,0-1.4h0Z"/>
  </g>
  <g>
    <text class="cls-5" transform="translate(341.79 143.65) scale(1.01 1)"><tspan x="0" y="0">3</tspan></text>
    <path class="cls-7" d="M350.89,131.67c-1.92-.43-3.91-.83-5.88-.48-1.81.31-3.34,1.4-4.33,2.94-2.07,3.21-1.45,7.84.65,10.89,1.01,1.47,2.46,2.58,4.27,2.78,1.9.21,3.82-.59,5.33-1.7,1.6-1.18,3.02-2.71,3.94-4.48s1.03-3.66.18-5.5c-1.77-3.82-6.19-6.13-10.28-6.09-.9,0-.9,1.41,0,1.4,3.09-.03,6.1,1.37,8.05,3.77,1.06,1.3,1.76,2.95,1.28,4.64-.46,1.59-1.61,3.01-2.79,4.13-2.25,2.13-5.79,3.67-8.25,1-2.07-2.25-2.87-6.18-1.75-9.02.63-1.6,1.89-2.86,3.58-3.3,1.84-.47,3.82-.03,5.63.38.88.2,1.25-1.15.37-1.35h0Z"/>
  </g>
  <text class="cls-10" transform="translate(78.65 56.42) rotate(-4.35)"><tspan x="0" y="0">swappable</tspan><tspan x="0" y="18">at runtime</tspan></text>
  <text class="cls-10" transform="translate(18.09 181.25) rotate(-4.35)"><tspan class="cls-11" x="0" y="0">a</tspan><tspan x="7.24" y="0">voids vendor lock-in</tspan></text>
  <path class="cls-9" d="M92.93,178.45c2.14,5.75,5.63,10.94,10.58,14.63,2.55,1.9,5.39,3.37,8.31,4.62,3.06,1.31,6.23,2.47,9.51,3.08,3.69.69,7.54.67,11.1-.59.59-.21.67-.93.17-1.28-1.3-.92-2.64-1.75-4.04-2.5-.69-.37-1.42.52-.85,1.1,1.08,1.08,2.29,2.01,3.62,2.76l-.25-.96c-1.26,1.73-2.67,3.34-4.21,4.82-.65.63.34,1.62.99.99,1.63-1.57,3.1-3.28,4.43-5.1.22-.3.05-.79-.25-.96-1.23-.7-2.34-1.54-3.34-2.54l-.85,1.1c1.4.75,2.75,1.58,4.04,2.5l.17-1.28c-6.23,2.19-12.82.38-18.7-2.01s-10.78-5.41-14.47-10.27c-1.96-2.57-3.48-5.46-4.61-8.49-.31-.84-1.66-.47-1.35.37h0Z"/>
  <path class="cls-9" d="M147.06,70.16c2.55,3.51,5.96,6.31,9.56,8.7,4.38,2.91,9.14,5.23,13.99,7.23,10.67,4.39,22.05,7.27,33.5,8.64,5.68.68,11.46.97,17.17.46.61-.05.91-.72.49-1.19-1.1-1.26-2.2-2.52-3.3-3.78l-.99.99c1.04,1.12,2.08,2.24,3.12,3.35v-.99c-1.08,1.24-2.15,2.48-3.23,3.71-.59.68.4,1.67.99.99,1.08-1.24,2.15-2.48,3.23-3.71.25-.29.27-.7,0-.99-1.04-1.12-2.08-2.24-3.12-3.35-.62-.67-1.58.32-.99.99,1.1,1.26,2.2,2.52,3.3,3.78l.49-1.19c-10.54.94-21.34-.62-31.59-3.07s-21.19-6.18-30.51-11.89c-4.07-2.49-8.08-5.48-10.92-9.38-.52-.72-1.74-.02-1.21.71h0Z"/>
  <path class="cls-9" d="M108.75,76.94c.54,8.48,2.71,16.77,6.14,24.54s8.19,15.09,13.68,21.66c5.57,6.66,11.96,12.6,18.88,17.83s14.02,9.49,21.7,13.03c7.07,3.26,14.5,5.83,22.17,7.26.86.16,1.73.31,2.59.44.48.07,1.06-.3.86-.86-.52-1.5-1.44-2.73-2.71-3.68-.65-.49-1.38.54-.85,1.1.98,1.03,1.71,2.25,2.16,3.6l.18-.68c-1.73,1.42-3.45,2.83-5.18,4.25-.7.57.3,1.56.99.99,1.73-1.42,3.45-2.83,5.18-4.25.18-.15.25-.47.18-.68-.53-1.59-1.37-3.01-2.52-4.22l-.85,1.1c.96.72,1.67,1.72,2.06,2.84l.86-.86c-7.48-1.13-14.78-3.38-21.73-6.36-7.61-3.26-14.85-7.38-21.6-12.18-6.97-4.95-13.41-10.65-19.11-17.02s-10.55-13.32-14.3-20.92-6.22-15.55-7.13-23.85c-.11-1.02-.2-2.05-.26-3.08-.06-.89-1.46-.9-1.4,0h0Z"/>
</svg>