<svg width="36" height="36" viewBox="0 0 36 36" fill="none" xmlns="http://www.w3.org/2000/svg">
<path d="M17.275 16.7469C13.8604 17.4961 9.10215 17.7993 5.62764 17.2227C4.95264 17.1107 4.00083 16.9241 3.34632 17.2163C3.07276 17.3385 3.1374 20.8668 3.12558 21.2306C2.99877 25.1324 3.11798 25.677 3.08506 29.5781C3.08153 29.9964 2.95232 31.8674 3.69682 32.1269C5.68077 32.6626 8.18021 32.5633 10.2006 32.5829C11.9033 32.5995 16.8592 32.3524 17.2204 31.623C17.5816 30.8937 17.8912 22.4044 17.5904 19.5713" stroke="#00BC8E" stroke-width="3" stroke-linecap="round"/>
<path d="M17 12C17.5394 9.98644 17.8229 6.67948 17.5 3.5" stroke="#00BC8E" stroke-width="3" stroke-linecap="round"/>
<path d="M21.9785 14.6933C24.1119 12.0893 26.2292 9.58888 28.6413 7.2464" stroke="#00BC8E" stroke-width="3" stroke-linecap="round"/>
<path d="M23 19.3055C26.376 19.1831 29.2861 19.5189 33.4281 20.4271" stroke="#00BC8E" stroke-width="3" stroke-linecap="round"/>
</svg>
