<svg width="36" height="36" viewBox="0 0 36 36" fill="none" xmlns="http://www.w3.org/2000/svg">
  <path
    d="M23 7.5C23.8333 7.16667 26 6 28.5 6.5C31 7 33.287 8.89078 33 13C32.8017 15.8392 31 17.5 29.7879 18.5665M23 7.5C22.6667 5.83334 20.9 2.5 16.5 2.5C12.1 2.5 10.3333 6.83333 10 9M23 7.5C22.3159 7.77365 22 8 22 8M10 9C8.33333 8.66667 4.6 8.8 3 12C1 16 3.5 19 6.5 19H10M10 9C9.8477 9.81065 9.7402 10.1489 9.5 10.5"
    stroke="currentColor" stroke-width="3" stroke-linecap="round" />
  <path
    d="M21.5149 29.0477L20.869 26.6372M22.07 18.5648L16.9728 19.9306C15.9744 20.1981 15.3819 21.2244 15.6494 22.2229V22.2229C15.9169 23.2213 16.9432 23.8138 17.9417 23.5463L21.8587 22.4967C22.8571 22.2292 23.8834 22.8217 24.151 23.8202V23.8202C24.4185 24.8186 23.826 25.8449 22.8275 26.1125L17.7304 27.4782M18.9313 19.4058L18.2855 16.9953"
    stroke="currentColor" stroke-width="3" stroke-linecap="round" />
  <circle cx="20" cy="23" r="10.5" stroke="currentColor" stroke-width="3" />
</svg>