<svg width="36" height="36" viewBox="0 0 36 36" fill="none" xmlns="http://www.w3.org/2000/svg">
  <path
    d="M8.33389 10.2908C12.8313 12.2062 17.7913 17.2494 20 22M24 13.5714C21 17 15.3174 19.951 13.5 24.5M18 11.5C18 7.5 21 4 25.5 4C30 4 33 7.5 33 11.5C33 15.5 30.5 19 25.5 19M8.33389 27.5717C6.5 23.5 6 20 7 16M16.5 29.5C19.5 30 22.3454 29.2852 23.4286 28.5M6.5 6C8 6 9 7 9 8.5C9 10 8 11 6.5 11C5 11 4 10 4 8.5C4 7 5 6 6.5 6ZM9 27.5C10.5 27.5 11.5 28.5 11.5 30C11.5 31.5 10.5 32.5 9 32.5C7.5 32.5 6.5 31.5 6.5 30C6.5 28.5 7.5 27.5 9 27.5ZM25.5 9C27 9 28 10 28 11.5C28 13 27 14 25.5 14C24 14 23 13 23 11.5C23 10 24 9 25.5 9ZM25.5 24.5C27 24.5 28 25.5 28 27C28 28.5 27 29.5 25.5 29.5C24 29.5 23 28.5 23 27C23 25.5 24 24.5 25.5 24.5Z"
    stroke="currentColor" stroke-width="3" stroke-linecap="round" stroke-linejoin="round" />
</svg>