<svg width="38" height="36" viewBox="0 0 38 36" fill="none" xmlns="http://www.w3.org/2000/svg">
<path d="M12 28C15 22.5 15.0035 16.4834 15.6301 15.9252C16.2566 15.367 28.4182 14.7015 28.9403 15.1447C29.4625 15.5878 26.4043 27.4211 25.7136 28.7648C25.2959 29.5774 12 28.0233 12 28.0233" stroke="#00BC8E" stroke-width="3" stroke-linecap="round"/>
<path d="M20 11C20.5 9.5 20.5469 8.74932 20.9115 8.05505C21.276 7.36078 35.4947 6.31936 35.9504 7.62113C36.4061 8.9229 33.5806 22.4612 33.2161 22.8083C32.8515 23.1555 33.0634 22.953 32 22.8083" stroke="#00BC8E" stroke-width="3" stroke-linecap="round"/>
<path d="M10.5 17C8.65385 17 3.73201 17 2 17" stroke="#00BC8E" stroke-width="3" stroke-linecap="round"/>
<path d="M15.5833 10.1079C12.8356 10.2476 10.8585 10.3341 5 10" stroke="#00BC8E" stroke-width="3" stroke-linecap="round"/>
<path d="M8.38924 24.2561C6.82674 24.2561 4.61112 24 3 24" stroke="#00BC8E" stroke-width="3" stroke-linecap="round"/>
</svg>
