<svg width="36" height="26" viewBox="0 0 36 26" fill="none" xmlns="http://www.w3.org/2000/svg" color="#002E5D">
  <path
    d="M35.2485 3.9957C34.8208 2.47761 33.637 1.287 32.1121 0.86612C29.3044 0.115514 18.0172 0.115515 18.0172 0.115515C18.0172 0.115515 6.75136 0.0975088 3.91437 0.86612C2.3974 1.28812 1.20791 2.47761 0.784781 3.9957C0.252493 6.87321 -0.0119636 9.78561 0.000415243 12.7115C-0.00521148 15.6183 0.258119 18.5262 0.784781 21.3857C1.20791 22.9038 2.3974 24.0944 3.91437 24.522C6.7221 25.2726 18.0172 25.2726 18.0172 25.2726C18.0172 25.2726 29.2763 25.2726 32.1121 24.522C33.637 24.0944 34.8208 22.9049 35.2485 21.3857C35.765 18.5262 36.0171 15.6183 35.9991 12.7115C36.0171 9.78561 35.7706 6.87321 35.2485 3.9957ZM14.4116 18.0985V7.30084L23.8071 12.7115L14.4116 18.0985Z"
    fill="currentColor" />
</svg>