<svg width="1600" height="70" fill="none" xmlns="http://www.w3.org/2000/svg"><mask id="a" maskUnits="userSpaceOnUse" x="0" y="0" width="1600" height="71"><path transform="rotate(180 1600 70)" fill="#FFF" d="M1600 70h1600v70H1600z"/></mask>
<!-- change the bottom fill-value to change color -->
<g mask="url(#a)" fill="#FFF"><path d="M915.507 51.267c-.667.056-1.333 0-2.056-.111a34.345 34.345 0 0 1-2.334-.445c.833.945 1.278 1.334 2.501 1.89 1.278.556 3.168 1.167 4.557 1.667-.722.223-2.056.723-.667 1.334 1.334.612 3.002.723 4.447 1 .111-1.722.834-2.723 1.945-3.834-2.334-.5-4.502-1.501-6.725-2.224-.556.445-1.001.667-1.668.723zM868.097 36.095c.945-3.947 1.89-7.837 2.779-11.784-4.891 3.447-6.948 6.448-2.779 11.784zM904.781 49.716c-1.112 1.279-2.113 2.557-2.113 4.336 0 1.778.778 3.001 1.612 4.446 1.723-.389 5.781-.778 6.225-2.946.723-3.557-3.668-4.335-5.724-5.836zM826.967 45.71a68.73 68.73 0 0 0-.722 3.28c5.613-.722 7.003-1.334.722-3.28zM1323.19 32.763c0-.11.17 0 .17.055 0 0-.11-.11-.17-.055-.06 0-.06.11 0 .11s.22-.055.28-.055c.05 0 0 0 0 0l.05-.055c-.05 0-.33.055-.33 0zM1198.63 43.711c-5.94-.444-11.56-1.612-16.89 1.612-1.11.667-.45 1.779.55 2.112 5.45 1.89 11.79 1.223 17.07.111 2.66-.556 7.22.056 5.89-3.28-2.11-.166-4.61-.444-6.62-.555zM1242.88 38.873c-3.23.39-10.79.612-6.4 4.002 2.67 2.057 8.84.778 11.56.278 3.45-.556 7.29-.945 6.01-4.947-3.06-.833-8.78.39-11.17.667zM288.724 70a162.12 162.12 0 0 1-2.168-3.223c-6.614 2.835-2.223 2.946 2.168 3.224z"/><path d="M3722.66-182.279c-41.96-.389-83.2.667-125.06 1.168-70.58.833-140.61 2.39-211.2 2.556-98.49.223-196.92 1.112-295.41 1.612.89-.222 1.67-.611 2.5-1 31.85-2.835 63.53-7.504 95.43-9.894-12.06-1.556-23.79 1.112-34.96-4.946-21.68-.111-43.35-.556-64.97-.223 2.78-.222 5.44-.111 7.78-1.834-2.23 0-4.28.056-6.39-.778 8.33-.5 15.95-1.056 23.34-5.502-22.01 2.334-43.8 3.446-65.86 2.39 14.23-3.613 28.84-3.502 43.24-5.725-18.84-1.001-37.68-1.779-56.53-2.001-.33-3.224-6.11-3.446-8.44-4.447 9.11-1.611 18.28-2.112 27.51-2.779-2-.222-9.28-.833-4.67-3.39 6.61.167 13.12-.389 19.62-1.112-2.39 2.335-4.39 3.391-.28 4.891 12.84-4.446 24.73-6.336 38.18-4.613a10.4 10.4 0 0 0-1.61-1.556c29.29.834 58.36-1 87.71.723 3.06.166 6.89-.167 10.06-.556 9.5-1.056 18.9-1.056 28.46-1.223.39 0 .83-.222 1-.834.16-.611-.89-1.223-1.45-1.334-12.23-1.5-24.45-1.834-36.74-1.945-2.55.334-5 1-7.45 1.834 2.17-1.445 4.62-1.501 6.95-2.612 3.28-.5 14.51.389 14.34-4.669-.05-1.723-4.83-1.723-6-1.89 24.95-.166 50.13-.222 75.2-.389 8.39-.278 21.4 1.445 22.07-10.171.16-2.334-.95-3.057-1.67-5.113-.34-1.001-2.56-1.056-3.39-1.223 2.11-5.503-9.73-3.502-13.84-3.557-2.56 0-8.78-.223-11.95-.223 9.45-.111 19.12-.5 28.62-1.334 1.45-.555 3.5-1 3.67-2.945 41.74-3.224 83.54-5.725 125.39-7.059 16.23-13.562 35.07-9.393 54.25-7.337 8.45-3.223 17.39-3.112 25.73-6.781-10.11-.5-19.95-.166-29.79-3.056-1.89-3.113-3.78-5.003-.28-7.559 23.46-.334 46.75.5 70.09-2.279-20.57-1.279-41.02-3.78-61.58-4.558.83-2.723.66-5.947-2.56-6.169-1.06 7.67-11.23 6.28-16.79 7.447-6.44-.667-11.67-1.945-16.78-6.447 12.34-4.669 25.12-7.448 37.74-11.338-6.78-5.058-13.29-4.78-21.18-3.613-27.12-1.334-53.24-.556-80.48 1.834-27.23 2.39-55.58 5.113-82.98 5.614-5.78.111-7.11-2.335-13.67-1.668-28.79 2.946-59.42 5.447-88.93 3.113 2.83-.222 5.94-.5 8.78-1.056-4.06.389-9.67.167-13.28-.111-2.12-.167-.73-.056-1.23-.111-.44-.056-1.05-.056-2.05-.167-5.34-.389-11.18-.89-17.18-1.167 1.06-.112 1.39-.334.78-.556-1.45-.5-5.39-.723-11.12-.723-10.28-.556-.44-.667 2.56-.945 2.78-.111 8.17-.111 7-.389-3.16-.778-1.39-1.945-16.23-1.945-7.22 0-13.56-.334-19.78-.667-1.11-.111-1.67-.222-1.95-.333.45.111 1.06.222 1.95.333-1.5-.667 1.72-.834 8.17-.667 2.83.056 7.22.278 7.95-.111.94-.5-4.34-.5-8.23-.5h-.11c-2.28-.334-1.56-.501 2.56-.612 3.72-.111 8.17.056 11.06-.278 4.94-.222 9.89-.389 14.78-.611-2.95-.556-12.95-.611-8.67-1.334 2.17-.389 8.11-.222 11.17-.056 14.45.89 9.45-.5 11.67-.889 1.73-.278-2.94-.722-1.72-1.167 8.84-1.112 6-1.556-11.17-1.723v-.5c1.89-.056 3.72-.167 5.61-.223-.28 0-.5-.055-.78-.055h.23l.55.055c4.67-.055 9.9.223 14.01-.222 6.61-.667-.28-.889-5.17-1.112-6.28-.277-13.01-.5-19.57-.722-.05-.222-.16-.556 3.4-.556 8.78.056 17.34-.333 26.12-.111 5.06.778 14.62.167 20.79.611 5.55.389 10.83.612 15.39-.111 4.28-.667 2.5-2.167-3.56-2.39-11.5-.444-22.67-.945-35.12-1.167-23.46-.445-41.47-2.056-64.92-2.501-2.45-.278-4.28-.611-6.39-.889 2.83-.112 5.55-.445 7.89-.779.44-.055.67-.111.94-.111h.89c6.73 0 15.4 1.112 22.51 0 16.51-.222 32.96-.778 49.36-.055 4.39.166 8.06-.111 12.23-1.501 0-.167-.5-.722-.61-.722-2.34-.112.55-.167 2.66-.167h11.45c-2.94.111-6 .333-9 .945 5.28 1.445 9.84 1.611 15.4 1.611 20-.166 40.96-.555 60.91.167 28.13 1.056 55.69-.778 83.76 1.056 2.84.167 6.45-.167 9.39-.5 8.95-1.056 17.79-1 26.74-1.167.39 0 .78-.223.94-.834.12-.611-.83-1.223-1.39-1.334-11.5-1.556-22.95-1.89-34.51-2.056-2.39.333-4.73 1-7 1.834 2-1.445 4.33-1.501 6.5-2.612 3.17-.556 13.62.333 13.45-4.614-.06-1.723-4.5-1.723-5.67-1.889 23.45-.112 47.13-.167 70.7-.278 8.28-.278 20.12 1.222 20.73-10.172.11-2.278-.89-3.112-1.56-5.113-.33-1-2.39-1.056-3.22-1.223 2-5.502-9.12-3.557-13.06-3.557-2.5 0-8.28-.222-11.34-.278 8.89-.111 18.01-.444 27.01-1.278 6.06-3.724-.16-5.002-4-5.947-39.41-.167-78.81.278-118.16.889-28.18.445-56.08.945-84.21 1.223-5.56-.389-10.78-.445-16.56.167-31.24.389-65.53.611-96.1.611-5.56 0-10.95-.056-16.4-.056-.05 0-.05-.055-.11-.055 6.62-.5 8.01-1.056-.67-1.501-.05-.055-.16-.111-.33-.167-1.83-.222-3.72-.389-5.56-.611 2.12-.056 4.23-.167 6.34-.167 5 0 11.5 0 11.39-.556-.11-.555-5.94-.778-12-.722-3.62-.167-7.17-.278-10.78-.445-2.01-.278-10.56-.667 1.16-.778 9.62-.111 19.18-.389 28.46.111 4.95.334 11.62 0 16.67.334 4.9.333 10.12.611 14.62-.056 4.17-.611 3-2.279-2.44-2.445-9.56-.278-18.46-.779-28.13-1.001 9.01-.945 17.51-2.112 23.62-2.946 7.62-1 4.28-.555 3.45-.444 8.06-.334 18.06-1.056 26.46-1.723 27.68-2.168 56.19-6.336 83.37-9.06 29.29-2.946 57.08-6.447 86.04-8.393 3.83-.277 5.55-1 8.72-3.112-11.06.389-22.45-.222-33.35.5-41.57 2.612-82.59 5.225-124 11.394-16 2.39-32.9 1.279-48.35 7.893-3.28.222-6.06.611-9.45.667-18.62.333-37.85 2.445-56.52 3.89-3.45-.167-6.9-.389-10.18-.611-2.16-.111-4.89-.278-7.39-.278-9.5 0-15.67-.556-21.56-1.112-1.23-.5-5.01-.833-10.34-.944-9.28-1.835-28.29-2.446-46.41-3.224-.84-.056-1.61-.111-2.45-.111 7.23-.501 14.45-1.001 21.62-1.501 3.62 1 6.51 2.056 8.67-.056 3.17.112 6.34.278 9.34.445 7.73.667 15.84 1.278 22.96 2.001 3.16.333 5.67.5 10.11.333 4.73-.222 5.62-.5 2-.833-3.67-.389-.61-.445 3.23-.501l10.17.501c1.94.444 3.94.889 5.89 1.334 1.22.278 3.39.611 6.72.389 4.9-.334 13.57-.111 15.07-.834.22-.111.11-.222-.28-.278 1.61-.278 3.22-.722 4.89-1.389 2.17.055 4.56.055 7.17.055-1-.111-2.11-.222-3.11-.278 2.33-.111 5.06-.333 6.56-.611.33.055-.12-.111.22.055.33.167-.67-.333.39.167.83.389 3.05 1.001 4.17 0-.17-.167.22-1.167 2.77-3.724 5.9-5.891 27.74-9.17 36.8-1.612.39-.333.44-.444.44-.5h.06c.11 0 .11-.055.11-.055.22-.056.45-.056.72-.111 4.73-.723 12.06-2.335 16.73-5.392 6.51.445 13.29 1.612 19.62.5 6.34-1.111 9.06-7.836 14.23-10.282 3.45-1.612 3.23.445 6.17 1.445 3.11 8.559 14.62 6.281 19.95 5.78 7.12-.667 10.01-1.389 7.9-7.892.33-.056-2.84.5.72-.167 3.56-.667-5.67 1.001 4.11-.778 10.17-1.89 40.69-6.503 55.03-6.058 4.61.278 5.83 2.001 8.78 4.391 0-.167 0-.111 0 0s-.06.389-.11.945c0 .055 10.78 4.224 14.34.277.05-.055.28.278.39.334 1.83.556 3.61 1.334 5.39 2.001 3.06-.278 5.56-.556 7.72-3.057 1.5-.778 2.89-1.167 3.73-2.779-.28 0-1.11-.056.5 0 2.11.111-3.67-.222 2.44.055 6.12.278 27.02 1.557 35.8-3.112 6.22-3.335 13.17-3.224 19.78-3.78 5.23-.444 9.79-.333 14.34-3.501-.11-.056-.27-.167-.61-.334-1.89-1.056-7.95-1.834-10.22-1.556-5.06.556-8.4 1.056-9.56-4.669-4.51-3.001-6.45-4.446-12.29-3.279-10 2.057-20.9 5.225-31.01 1.278-.06 0-.06.056-.06.056-.11-.222-.27-.556-.55-1.112-1.78-3.446-6.28-5.891 3.5-5.335 4.67.278 12.84-2.112 17.4-5.114-14.79-3.279-28.68-3.057-43.41 1.112-.11-.056-.28-.111-.61-.222-1.5-.612-8.29-2.39-8.12-6.114 3.89-.556 8.62-1.112 12.56-1.612 12.51-1.501 24.62-2.724 37.02-4.002-.28.667-.67 1.278-.95 1.945 5.01 1.112 11.18 3.002 14.4-2.334 1.72-2.89-3.72-4.113-5.5-4.113-.5 0-1.45-.111-2-.056 5.22-4.835 11.61-1.945 17.84-1.556 2.28-6.503 11.89-1.945 16.84-2.39 12.17-1.111 24.51-4.669 36.4-7.948-9.22-1.167-18.28.334-27.51.556-.05-2.89.56-4.502 2.78-6.169 4.06.833 6.95.5 8.12-4.28-6.84.778-13.29.333-20.01-1.167 9-4.891 17.5-6.948 27.45-4.447 7.84-3.89 15.84-4.78 24.35-5.836 3.17-8.17 9.83-6.225 16.73-5.78 2-4.335 3.78-8.004 7.89-10.338-2.67-.334-5.34 0-8-.667 2.05-7.226 4.94-10.06 11.61-11.783-.44 1.334-1.17 2.557-1.72 3.89 5.39-1.445 9.95-3.056 14-7.336 3.95.611 5.51-1.056 9.62-1.723 6.5-1.001 13.62-.167 19.01-5.725-.61-.111-1.33-.222-2.06-.278.06-.111.11-.167.17-.278-.56 0-1.17.056-1.72.056-.06 0 .11.055.05.055-4.06-.222-7.22-.667-10.5-3.39.33-.111.61-.222 1-.222.05 0-.11.389.11.389.17 0 .5-.501.78-.501 2.61-.055 4.89.612 6.89-1.611a36.879 36.879 0 0 0-3.56-.501c2.45-.166 4.89-.277 7.34-.389-.06.056-.11.112-.17.167.78.167 1.61.334 2.39.5-.05-.222-.11-.444-.11-.722 7.62-.056 15.4-.167 22.96-.334 4.22-.111 7.94-.333 11.89-1.778 12.56-.945 23.84-1.557 36.74-2.057 11.61-.444 24.79-1.723 36.52-4.002-23.74.223-48.3.334-71.82.278-2.72 0-5.16-.111-6.5-.5-.17-.056-.17-.055-.28-.055h.28c.61-.056 3.73-.001 3.28-2.113 4.5.445 7.84.723 12.45-.055 4.06-.667 8.56-.723 13.06-.834 3.11-.111 6.01.389 9.12-1.723 2-1.334 5-.889 7.56-.945 5.78-.111 11.84-.111 17.56-1.445 11.34-.333 22.62-.611 33.9-.945-36.9-1.556-73.81.612-110.66-1.889 44.52-2.446 89.15-3.502 133.73-4.725-5.78-1.834-11.34-3.057-17.45-3.279-20.73-.723-41.58-1.056-62.36-1.723-3.78-2.446-7.73-2.279-12.01-2.612 19.9-.723 39.74 0 59.64-1.668-10.62-.166-21.18-.833-31.79-.611 3.39-1.167 6.95-1.056 10.39-1.668-2.22-1.056-5.11-.055-7.17-1.111-.89-.445-.22-.5 1.06-.556 10.17-.278 21.28-.667 31.73-1h.23c.22-.056.16.055.77-.056.89-.167 16.79-2.557 16.79-2.557s.28-.5.5-.278c-.17-.055-.5.278-.5.278.05 0 19.23-.5 20.23-.556-4-1.834-11-1.778-15.62-1.611-3.22.111-7.72-.278-9.84-.334-4.33-.167-7.55-1-4.16-4.28 4.05-4.001 2.55-4.502-1.28-7.003-1-4.946-1.89-2.945-7.73-3.112-7.95-.223-21.23-1.001-30.01-1.279-2.17-.055-5.39.334-6.17-1.333-1.28-2.724 3.78-1.946 5.22-2.224.61-.111 2.28-.278 1.95-1.612-12.23-2.556-24.79-3.334-37.07-3.779a14.41 14.41 0 0 0-1.34-.167c-5.05-.667-14.17-1.389-20.23.223-3.17.833-6.89 1.056-10.17.778-.11 0 .06.111-.06-.056-.16-.167.28.278-.16-.278-.45-.5-1.17.334-.28 1.445.05.056.11-.055.11.056.22.667.45 1.278.39 1.945-.06-.055.67-.111-.39.111-1.06.167-4.17-.111-5.45-.945-.94 1.001-1.44 1.223-2.22 0 0-.111-.06-.222-.06-.444-.16-.834-1-3.279-2.33-3.335-4.17 1.723-8.06 1.501-12.39.834 0-.167.27.833-.17-.5-.44-1.279-1.11-5.281-1.17-7.115-1.61-.556-6.11.612-5.22 2.724 1.28 3.112-.61 2.501-.39 5.057h-.06.06l-.11-.055c-.39-.167.61.278-.45-.222-1.39-.667-5-2.668-6.83-.612-.5 0-1.28-.167-1.67-.222-1.56-.111-2.56.889-4 1.111-.61-1-1.17-.722-2.17-.944-.56-.112-1.17-.667-1.89-.723-4.56-.222-9.17-.445-13.67-1.278-2.73 1.889-4.62 2.89-7.12.222-4.28-4.502-7.39-2.001-12.5-1.056-5.34-1.556-10.56-3.502-15.95-4.947-1.67-.444-3.4-.333-5.06-.444-1.67-.111-3 .111-4.67-.056-.61-.055-1.28-.778-1.95-.834-22.34-1.056-43.79-1.334-66.53-1.556-3.83-.055-7.17.056-11.89 0-43.97-.278-78.42-.444-124.78-1.334-68.14-1.278-146.18-1.945-216.21-2.334 1.28-.445 4-.945 5.56-2.501-.11-.056-.28-.167-.56-.334-2.05-1.111-8.5-1.834-10.83-1.612-5.17.501-9.01 1.279-9.95-4.724-5.06-3.057-6.45-4.502-13.01-3.279-11.28 2.112-23.79 4.669-35.51 1.334-.06-.056-.06 0-.12 0-.16-.278-.44-.667-.83-1.223-3.28-4.502-10.56-5.836 5.17-5.225 7.5.278 19.67-2.556 27.51-5.558-21.23-2.723-41.74-2.612-62.86 1.89.11 0 .61.278-.22-.111-.84-.389.83.5-1.28-.556s-8.95-5.725-11.06-8.337c-.5-.111 3 0-2.17-.167-7.33-.278-20.06 2.057-29.68 1.946-7.06-.112-18.12-6.281-23.62 1.556.06.222-.33.834-2.11 2.168-4.39 3.168-19.23 2.167-26.35 6.836-.11.056-6.83.445-7.5.167-12.06-4.836-12.67-2.057-23.18 2.723 0 0 .78-.167-.17.056-1 .222 1.78-.5-1.16.166-4.23 1.001-17.68 4.669-22.51 1.39-8.28-5.614-13.79-4.28-22.46-3.779-8.67.5-16.84 1.111-25.4 1.778-12.06.834 9.12 5.225-8.17 3.891-15.28-1.167-30.46-2.335-45.63 1.723.11-.111.39.278.28.222-2.45-1.223-11.28-4.113-13.17-3.001-10.9 6.892-26.57 5.613-36.24 6.114-7.12.389-10.01.055-11.51 5.057-.05.112 0 .167 0 .223.73-.334 2.45-1.167-2.11 1.334-7.23 3.946-19.06-1.001-29.46-1.167-106.43-1.446-214.09-.445-320.75-.445-12.01 0-24.51-.167-36.41-.111 1.89-1.167 2.39-2.335 1.56-4.502-2-1.223-4-2.001-6.34-2.613-1.39.278-12.73 1.001-7.61-2.779 3.78-2.779 11.78-1.111 15.62-5.446 0 0 .11.055.16.055 6.34.389 15.23 2.446 20.73-.945 5.51-3.335 4.73-6.336-1.39-9.226-9.61-4.558-22.06-6.503-33.57-6.948-6.72-.222-21.45-3.501-23.06 7.17-.39 2.612-7.17 1.612-9.9 1.334-16.06-1.945-28.73-4.335-43.18 6.837-10.56 8.17-22.79 8.337-36.57 9.782-10.9 1.111-24.24 1.223-36.24 1.945-23.68 1.334-48.41 2.279-72.26 4.724-100.04-.333-200.09-1.111-300.19-.889-11.56 0-22.95-.222-34.46 1.112-9.5 1.111-19.06.778-28.62.722-39.24-.222-78.43-1.278-117.67-.555h-.39c-41.57-.667-82.64-.278-124.11-.667-198.42-1.834-396.56-4.669-594.765-7.337-64.806-.889-129.558-1.389-194.309-2.779-17.119-2.445-32.182-8.281-48.245.056-.389.278-1.055.611-2.278 1.167-4.947 2.334-14.562-1.501-22.566-1.612-161.017-1.945-323.09-2.557-484.385-3.39-12.45-.056-24.9.278-37.294-.167-2.28-.389-4.502-.111-6.781-.056-5.336.167-10.783.167-16.118.112-26.346-.278-52.746-2.891-79.036-1.779-42.241 1.779-84.594 1.39-126.779 1.39-12.951 0-24.901.166-37.573 2.834-30.847 1.612-61.528-4.28-91.041 8.226-.055-.055-.111-.055-.222-.167-.89-.5 1.445.612-1.001-.611-3.335-1.667-11.95-.389-15.173 4.002-.389-.111 1-.334-.889.055-1.89.389-7.282 1.334-9.894 1.668-92.486.055-184.917.222-277.403.278-12.338 0-24.677-.223-37.016-.389-2.279-.501-4.447-.111-6.726-.056-5.28.167-10.671.167-16.007.111-26.234-.222-52.468-3.39-78.702-1.945-42.13 2.334-84.316 1.667-126.39 1.779-12.951.055-24.789.166-37.35 3.334-30.681 2.168-61.306-4.446-90.267 9.727h-.27c-.89 0 1.441-.056-1.12 0-2.55.056-11.56.889-14.72 3.613.11-.056.16-.056-.06 0-.06.055-.11.055-.11.111-.06 0-.06 0 0-.056-.22.056-.67.167-1.39.389-4.23 1.168-13.78 3.002-18.84 3.78-3.45.5-4.78.778-6.56 3.501 0-.111 0-.055 0 0l-.06.056c0 .056-.05.278-.16.667-.34 1.612.61-3.279-.73 2.168-1.89 7.614-5.44 8.17 11.95 5.836 18.29-2.502 43.079-.501 63.199-.779 15.285-.222 31.625.278 46.966.056-1.223.167-3.057.389-4.058.445h-2.612c-8.615.055-22.899.111-34.849.333-39.186.778-79.706 3.446-119.556 4.725-43.02 1.389-86.93 3.223-129.89 3.723-5.67.056-9.45.723-14.62 2.502 16.29.222 33.46 1.445 49.58 1.334 61.25-.334 122.11-.556 183.194-4.836 16.563-1.167 33.571-.389 50.189-1.501 20.899-.222 41.797-.278 62.639-.333-.667.278-1.278.611-1.611 1.111-.389-.222.055 0-.334-.166-.055-.056-.167-.056-.333-.167-1.334-.667-3.613-.889-5.225-.111.389 0-.111.556-4.391 2.668-10.227 5.058-36.905 6.836-50.189.667-.389.166-.611.278-.667.333h-.167c-.278 0-.611.056-1.056.056-7.17.5-17.674 1.778-25.289 4.502-8.671-.778-18.175-2.224-26.623-1.501-9.057.778-16.957 7.448-24.847 9.393-5.22 1.334-3.78-.222-7.95-1.778-1.77-10.45-20.06-6.892-25.62-6.726-7.33.223-15.62-.833-14.84 7.393-.44.055 3.5-.278-.94.111-4.45.389 7.44-.612-3.84.333-21.9 1.779-60.86 3.891-86.7 3.391-4.84-.612-6.67-2.112-9.79-4.891 0-.056-.05-.112-.11-.223-.44-.722 1.06 1.112-.28-.667-2.89-3.89-14.95-2.556-19.95-1.167-.11 0-.39-.167-.5-.222-2.28-.723-4.61-1.501-6.89-2.279-4.61.167-8.84.389-13.06 2.612-2.45.612-4.95 1.001-7.01 2.501a5.193 5.193 0 0 0-.66-.166c-2.67-.667 4.33.889-2.95-.778-10-2.335-36.18-4.391-48.96 2-9.23 2.224-17.79 2.39-26.68 2.446-7.06.056-13.06.167-19.73 2.612.11.111.27.223.61.389 2 1.334 9.39 2.224 11.61 2.112 4.89-.277 11.17-1.278 9.06 5.114 5.17 4.002 6.12 4.835 13.51 3.835 12.73-1.668 27.62-4.447 40.63.5.11.056.11 0 .11-.056.11.334.22.779.44 1.501 1.56 4.891 6.9 6.392-8.61 4.725-7.34-.834-23.12 1.723-31.63 4.001 22.51 3.224 45.47 2.335 68.31 1.39-.11-.222-.28-.667.11.278.45.945-.33-.834.67 1.389 1.22 2.724 3.34 9.338 8.06 7.726.56.333-3.61.056 2.5.278 7 .222 21.9-1.167 31.74-.334 7.39.612 19.23 7.448 25.45-.222 0-.278.56-.945 2.34-2.279 4.83-3.557 23.06-3.612 31.73-5.224.12 0 7.23-.111 7.84.166 10.56 5.003 15.67 1.557 25.73-1.445.06 0 .06 0 .23-.055 1.05-.223-1.84.5 1.16-.111 4.28-.89 19.85-4.447 24.18-.278 7.45 7.114 12.73 4.946 21.4 4.835 8.67-.055 17.56-.222 26.07-.5 8.613.055-3.45-5.225 11.003-3.335 12.783 1.723 31.347 3.668 45.353.445.112.055-.222-.278-.055-.223 2.445 1.223 9.782 4.447 11.838 3.558 12.117-5.392 28.124-4.058 38.74-4.225 7.837-.111 9.894.501 13.951-4.446-.445-.111-.167-.111-.056-.167 7.837-4.446 15.285-4.113 24.122-4.502 2.668-.111 5.281-.111 8.449-1.167 15.84-5.336 6.058-7.559-2.779-8.948-7.115-1.112-33.738 4.946-29.18-9.005 10.06 2.557 20.287 2.724 30.291.723 3.668-.723 10.283-2.223 12.617-2.723 16.73.778 31.792-1.612 48.022-.779-11.283-6.225-20.788-7.725-34.349-8.003-1.723-.056-10.727 5.891-13.673 6.114-.5.111.945.5-.945-.111-2.557-.779-5.891-1.89-7.448-5.836-1.334-3.446-3.612-5.392-6.225-6.448 11.783-.055 23.566-.055 35.349-.167 21.51-.222 43.131-.389 64.696-.444.223.111.501.222.778.278 1.612.444 3.113.667 4.614-.334h39.295c.556.223 1.056.389 1.612.556 1.612.445 4.391.723 5.725.389 1.334-.278 1.278-.667 2.334-.945 24.233.056 47.577 0 72.255 0 7.392 0 17.23-.111 24.956-1.556-30.181-.556-60.583-.222-90.819-.333 10.06-1.946 20.231-3.224 30.18-5.892 25.067-.056 50.078-.056 75.145-.111-3.39.444-6.558 1.111-9.726 2.556 63.306 1.668 126.612 3.28 189.918 5.003-.111.278-.055.555-.222.833-5.002.834-11.727 2.057-16.285 2.779-3.835.612-4.446.445-6.836 3.057.111-.055.111-.055.055 0-.055.056.223-.222-.055.056-.223.278.333-.222-.223.333-.833.834-8.17 3.558-6.503 5.392-31.069-.056-61.805-.834-92.93-1.445-21.843-.445-44.02-.667-65.863-3.391-6.559.167-13.451.556-19.732 0-.5-.111-1.167-.222-2.334-.444-7.114-1.334-23.344-2.224-32.292-1.056-.334-.056-.222-.056-.334-.056h-.055c-1.668.056-3.28.278-4.947.056-2.612-.389-5.725-2.39-7.837.055-29.291.5-58.582 1.056-87.873 1.556-5.613-1.611-9.171-1.889-13.673 2.279-.166.056-.333.056-.722.111-2.335.39-9.671-.889-11.227 2.001-.167.278 7.392 2.335 8.559 1.89 58.471 2.946 116.441 1.334 174.857 3.613 73.644 2.834 147.344 5.613 221.155 6.28 36.516.334 73.533 3.891 109.994-.222.833.111 1.389.222 2.167.334 25.901 3.223 49.245 4.446 75.868 1.667 17.23-1.779 38.406-.334 55.859.278 5.113.167 2.612.889 1.667 3.668-11.116-.389-21.065-1.612-32.292-1.056-39.463 1.945-79.258 3.724-118.887 4.891-49.022 1.445-98.211.445-147.233 0-23.789-.222-47.466-2.112-71.255-.889-2.056.111-4.057.445-6.114.333h.056c-7.503-2.112-14.118-1.945-21.899-1.889-10.782.055-21.509 0-32.292-.223 4.78.834 9.282 2.446 13.173 5.336.444-.055.333 0 .333 0h.111c.612.667.723 1.445.723 2.39 7.67 3.057 13.061 7.114 21.343 4.391l.055.056c7.059 3.001 13.006 2.167 20.121-.056-.056 0 .055 0 0 0 .055 0 0-.056.111 0 4.446 2.168 8.504.333 13.061-.556.056 0-.222-.055.056 0 .333.056-.556-.055.389.056.889.111 4.224.389 5.558.222.055 0-.556-.222.556.167 1.111.389 6.002 1.778 7.003 1.945.222.056.278.056.333.056h-.111c.055.055-.167.166-.167.222-7.559-.222-15.062-.556-22.621-.945-1.723 2.612-3.891 3.168-6.836 3.78-13.673-2.891-30.903-2.335-43.909-1.39-12.95.889-19.842 2.334-30.125-5.336-4.613 1.056-8.281 3.947-12.505 6.337-27.568.555-54.97 1.222-82.426-1.279-17.619 2.335-35.239 4.058-52.913 5.947 2.779-2.112 6.114-2.501 9.171-3.89-22.844 1.334-45.354 1.778-68.087-.834-5.335 4.613-11.838 6.058-17.952 9.115 16.007.223 31.181 1.112 46.521 6.281-8.282-.167-16.396-1.39-24.678-.612 27.902 2.446 55.469.056 83.371-1.889-.556 1.723-1.612 2.723-3.002 3.724-41.852 1.167-83.593 2.334-124.444 3.724a66.281 66.281 0 0 0-4.558-2.001c-4.28-1.723-8.393-3.502-12.339-6.003-.167-.111-.167 0-.444-.334-.278-.277-.89-.722-1.335-1.111-.444-.445-.944-1.112-1.222-1.834-.389-1.056-.667-2.224-.889-3.28.277-.111.666-.333 1.333-.778 3.057-2.112 4.169-10.56-3.612-6.669 0 0 .055.055 0 .055-4.169.834-8.337 1.668-12.561 2.501-.167.723-.001 1.501-.167 2.224 0 .055 0 .111-.056.111-.111 0 1.334-.612-.889.389-3.78 1.723-13.729 5.169-17.508 6.503-.445.166-.723.278-1 .333h-.223c-1.667.334-4.002-.222-5.336.111-2.667.556-3.835 1.668-6.058 3.002-6.336 3.89-12.728 4.946-20.009 5.058-6.947-1.668-14.006-2.168-20.843-4.558-11.56-3.891-24.622-10.727-33.626.611-.111.223-.444.612-1.111 1.223-2.224 2.112-10.561-1.334-13.618-2.946-12.172-6.614-21.232-5.836-33.462-.278-13.45 3.558-26.18 7.337-38.13 14.952.23.166.28.444.56.611 6.06-.056 13.78-.5 19.45-.445 2.73.056 3.84 1.001 5.39 1.668-6.72.5-12.78 1-14.72 1.778-2.06.223-4.17.445-6.23.667-27.18-.444-49.08.167-62.97 2.501-8.17.556-11.73 1.501-18.18 2.168-6.17.778-13.73 1.501-18.12 2.39-5.72 1.112-16.34 2.168-11.95 3.557-21.73 1.001-29.9 3.002-20.67 4.947 1 .222 1 .445 1.44.722-5.22.056-9.83.39-15.34.278v.723c3.84 0 5.01.333 7.51.5 1.11.334 2.83.612 3.28.945 1.27.834 9.28 1.612 6.83 2.446-2.39.833-1.28 1.445 3.67 2.056-2.11.389-7.73.834-.22 1.223 18.01 1.389 18.56 1.89 3.28 2.89-9.56.723-6.51 1.501-.5 2.279 1.11.778-.67 1.667 8.56 2.167.89.056 1.72.167 2.61.223-.22.111 0 .333-.72.333-18.18.89-22.4 1.89-15.51 3.891 1.94.722 8.61 1.167 13.06 1.723.95.445 8.06.834-1.11 1.334-11.78.556-12.78 1.667-3.72 2.834h.05c.78.056 1.22.112 1.56.167-.5-.055-1.06-.111-1.56-.167 3.45.612-5.5.723-6.61 1.112 1.66.278 4.33.334 7.06.334 3.11 0 6.39-.056 9.22 0 6.84.166 5.28.555-4.94 1.222h-9.45c-4.89 0-11.06-.111-12.73.389-1.56.501 4.67.667 8.22.834 8.01.445 7.4.945 1.06 1.445-16.51 1.167-16.51 1.334-.83 2.279 1.28.056 1.78.278 2.61.389-3.56 1.056-10.12 2.057-4.45 3.224.84.055 1.17.111 1.34.222-.45-.056-.89-.111-1.34-.222-1.28.444 1.17.833 3.5 1.222 4.67.834 10.06 1.668 4.17 2.668-3.55.056-6.39.223-7.61.501-4.56.833-9.4 1.611.89 2.39 10.06.722 8.5 1.389-.5 2.056-2.28 0-6.51-.167-6.23.167.34.389 4.5.556 8.9.556 16.67.944 17.84 1.167 10.11 2.223-2.67 0-5.78-.056-7.89.055-5 .223-14.56-.278-14.9.334-.33.611 9.78.445 15.12.611.67.223 4.11.501.72.612-9.17.333-4.67.667-.55 1 2.55.222 5.28.445 7.89.611.06 1.168 8.95 1.501 19.01 1.723h-.11c5.33.39 4.44 1.001 8.28 1.446 1.94.389 3.56.778 2.56 1.222-4.73.556-.06.89 4 1.056 13.67.556 11.67 1.445 7.33 2.446-1.83.333-7.17.056-8.83.389-5.45.611-5.17 1.223.16 1.834 3.17.723-.05 1.668 7.9 2.279 1.66.167 3.39.278 5.05.445-.05.055.23.222-.16.222-19.07 1.056-23.68 2.279-15.45 4.168.72.112 1.38.167 2.11.278 1.61.389 5.06.667 8.39.945-.83.5 10.84.834 1.83 1.445-12.61.834-13.89 1.723-4.61 3.002 3.73.667-6.22.667-6.56 1.222 2.11.056 4.12.112 6.17.167 4.84.111 13.06-.278 13.56.389.56.667-8.39.667-14 .89-1.17.055-2.67 0-4 0-4.84 0-10.95-.167-12.79.389-1.67.5 4.17.667 7.78.833 7.78.389 8.62.834 1.89 1.39-1.55.055-3.44.111-4.61.222-11.34 1.112-11.39 1.112 1.89 2.001 3.33.222 2.67.5 2.72.778-5.78 1.223-7.22 2.446-2.11 3.669 5.61 1 14.06 2 5.61 3.223-4.28.223-10.11.334-8.89.945-6.11 1.001-1.22 1.667 8.06 2.223 3.45.556 2.84 1.056-2.17 1.501-3.5 0-8.5-.111-9.11.278-.78.5 4.06.611 8.72.667 6.84.333 13.45.722 15.84 1.445-6.39 1.167-20.89.611-32.34 1.167 7.17.334 12.95.5 19.12.556.83.167 3.66.445 1.66.556-12.39.556-3.83.833 1.39 1.167 3 1.223 10.68 1.945 24.24 2.223 6.28.389 10.89.945 14.61 1.556 3.73.612 7.12 1.223 15.18 1.39l1 .055h1.11c5.89.167 12.23.278 17.67.501 15.73.722 31.41 1.389 49.36 1.445 4.34 0 9.06.167 9.115.722h-.111c-3.444.056-6.944.111-10.334.223-3.78.111-11.01 0-9.06.555 1.44.39 7.89.223 11.89.056 6.78-.222 13.618-.389 20.566-.389-6.281.278-12.506.5-18.846.778-78.25 3.502-157.79 6.225-236.38 4.613-19.12 10.45-37.24 7.448-57.69 4.391-9.51 2.612-19.4 2.39-28.85 5.336 9.62.945 19.06.889 28.24 4.558.38 4.113.44 5.669-3.28 7.447-23.68-.889-47.25-2.834-70.92-1.389 19.78 2.279 39.4 5.836 59.19 7.67-1.45 1.834-4 5.725-.39 6.169 4.39-7.169 13.17-5.446 20.23-6.447 5.73.889 10.28 1.834 13.73 7.226-14.17 3.89-28.62 6.058-42.96 9.226 5.28 6.392 12.11 5.447 19.39 4.669 27.46 2.779 53.47 3.279 81.32 2.278 27.84-1 57.3-2.278 85.31-1.278 5.78.222 6.23 2.668 12.9 2.335 29.12-1.39 60.3-2.724 89.93 1.445-2.95.055-6.12.222-9.01.611 3.95-.167 9.34.334 12.84.778 2.17.278.45.111 1.23.222h.16c.39.056.89.112 1.67.223 14.62 1.834 32.793 4.391 48.3.556-11.895.166-24.01-.612-35.96-1.557 13.23.278 26.455.834 39.628 1.501 5.502-4.113 11.338-3.835 17.841-3.668-1.612 1.778-.889 3.001 0 4.946-7.003.389-13.839.945-20.731 2.39 1.167.278 2.334.501 3.501.778-9.727-.055-19.508-.222-29.239-.333-2.22-.445-4.44-.111-6.67-.056-5.28.167-10.67.167-15.95.112-26.12-.278-52.24-2.78-78.37-1.612-41.9 1.834-83.92 1.389-125.72 1.389-12.84 0-24.68.111-37.24 2.779-30.57 1.612-60.97-4.335-90.15 8.171-.06-.056-.11-.056-.22-.112-.84-.5 1.39.612-.89-.555-3.56-1.835-11.51-.167-15.01 3.779-.22.056-.67.111-1.5.278-4.11.723-13.84 2.446-18.73 3.224-3.33.5-4.67.444-6.61 3.001 0-.111 0-.055 0 0l-.06.056c0 .055-.06.222-.11.555-.28 1.446.44-3.056-.61 1.89-1.61 7.226-5 6.892 11.95 4.836 17.84-2.168 42.96-.501 62.97-.723 20.45-.222 42.24.222 62.86 0 .06.5.06.945.11 1.39-17.45.833-34.9 1.612-52.3 2.445 2.34.945 5.39 1.946 7.78 1.89 43.25-.334 86.15-.389 129.34-.611 63.36-.334 126.45-.223 190.141-.167 7.169 0 17.563-.167 25.066-1.39-51.247-.722-102.717.834-154.017-2.501-1.39-.111-3.22.278-4.61.556-10 1.779-18.9 2.279-28.68-.667-10.39 1.723-20.79 2.612-31.29 2.39-1.56-.056-3.84.056-5.11-.167-13.84-2.334-29.3-2.056-42.25-.611-5.28.556-17.39 1.278-17.28-4.058h-.11c.33 0 .83-.055 1.72-.055 5.23-.222 12.62 0 19.62 0 113.11-.056 226.71-.167 339.931-.278 3.558 0 7.282-.222 10.839-.222.055 0-.389.166-.167.166s.889-.166 1.278-.222c2.112-.167 4.558-.556 6.559-1.056.889-.222 2.056-.333 2.779-.389 2.279-.111 6.614-.056 8.17-.056 1.557-.055.667 0 .667 0 2.89.445 5.947 1.39 8.893 1.39 33.07.055 66.085-.056 99.156-.222 1.612 0 3.168-.334 4.724-.556 15.229.611 30.347 1.056 45.632 1.334 8.393.166 16.952.166 25.345.222-1.168.723-2.335 1.445-3.446 2.223-.334.223-.501.556-.779.834-19.342-.778-38.739-2.112-58.137-1.112-42.019 2.112-84.26 1.445-126.279 1.723-12.895.056-24.844.112-37.461 2.891-8.171.277-16.397-.278-24.511-.89-7.226 0-14.451-.278-21.732-.722 3.612 0 7.225 0 10.838-.056-18.953-1.167-37.573-.945-55.192 10.06-.055-.055-.111-.055-.278-.167-.944-.5 1.446.556-1.167-.722-2.612-1.278-12.062-.445-14.782 4.002-.17.055-.61.166-1.67.389-4 .889-13.89 2.556-18.84 3.279-3.34.445-4.73.5-6.67 3.001 0-.111 0-.055 0 0 0 0-.06 0-.06.056s-.05.222-.11.556c-.33 1.389.61-3.057-.78 1.723-2.27 8.059-4.33 6.836 12.29 4.891 17.51-2.001 43.239-.723 63.192-.945 20.51-.222 42.464.056 63.14-.167.111.5.056.945.111 1.39-17.508.889-35.071 1.723-52.524 2.612 2.335.945 5.447 1.945 7.837 1.89 43.409-.556 86.595-.5 129.892-.89 13.395-.111 26.735-.277 40.074-.333-.056.056-.111.278-.111.333 0 .056.055-.055 0 .056-.056.111.111-.111-.056.056-.111.166.278-.167-.167.278-.667.722-7.948 4.557-6.28 5.502-.445.278-.834.445-1.223.667 37.128.945 74.256 1.89 111.383 2.779-6.169.278-12.338.611-18.452.889 2.334 1.001 5.447 1.89 7.837 1.89 29.735-.278 59.193-.445 88.817-.5-.166 4.669 2.057 6.058 6.059 6.892-.445.055-.889.055-1.334.055-24.011 1.334-47.966 2.835-71.977 4.447-.612-.445-1.279-.667-2.001-.834.056.334.056.667.056 1.001-1.112 0-2.168.222-3.224.166-16.841-.278-33.404-.667-50.356-1-21.843-.389-43.964-.667-65.808-3.335-6.558.111-13.506.278-19.786 0-.501-.111-1.167-.222-2.279-.389-7.114-1.056-23.344-1.945-32.237-1.167-.5.055-.222-.056-.333-.056h-.056c-1.667.111-3.279.278-4.947.056-2.612-.389-5.669-2.335-7.836.055l-87.762 1.668c-5.558-1.612-9.282-2.112-13.673 2.279-.167 0-.333.055-.722.111-2.335.278-9.727-1.001-11.228 2.112-.167.333 7.393 2.279 8.615 1.89 58.304 2.779 116.386 1.222 174.579 3.334 4.558.167 9.115.223 13.561.445-.444.056-8.503.334-2.834.723 7.17.5 9.06.778 18.786 1.056 9.727.277 29.347.667 40.963.889 2.279.722 3.613 1.501 5.28 2.946-.5-1.334-1.389-2.057-2.445-2.891 13.283.278 26.567.612 39.851 1.168-1.723.111-3.446-.056-4.891 1.056a30.54 30.54 0 0 0 7.336-1.39c2.279.056 4.558.167 6.837.222.945 1.112.834 1.89.389 3.113 11.839-1.223 29.458-.611 39.907.389 10.449.945 13.561 2.112 22.621 3.168-21.787 0-43.13-.055-64.751 0 .778 1.056 2.056 1.89 1.334 3.279-4.725-.111-9.393 0-14.062 0-.501 0-.889-.444-1.334-.555 3.112-.556 7.281.555 9.282-2.613-13.451.111-26.846.723-40.241 1.946.834.111 1.612.222 2.446.333-2.946 0-5.78.167-8.726.167-22.455 0-44.52-.167-67.086-1.112-38.517-1.612-77.035-4.057-115.663-.945-5.058.334-13.228.167-17.508-.944-7.67-2.057-10.338-1.223-17.063 1.445 1.334 1.334 2.501 2.556 4.057 3.612-3.724-.166-7.448-.277-11.116-.444.722-.889 1.167-1.834 1.501-3.002-4.669-.667-9.282-1.389-13.951-2.056-1.445 1.112-3.391 2.279-2.612 4.446-12.617-.5-25.234-1-37.795-1.5-4.502-1.612-9.004-2.001-13.728-2.001.111.5.166 1 .222 1.5-4.617-.166-9.287-.333-13.897-.5.06-.833.11-1.612.17-2.445-6.62.611-13.17 1-19.79 1.223-1-.167-2.22-.667-3.22-.723-7.56-.445-33.68 4.891-29.46-8.726 10.89 2.445 19.51 2.612 30.9.556 3.95-.723 8.56 0 13.06-3.113-1.16.5-2.83 1.056.73-.5 11.78-5.113 33.512-7.67 45.74.278-10.449-7.17-20.343-8.115-33.68-8.226-1.67 0-10.28 7.003-13.56 6.003-.28.055-.23.166-.11.222-.12-.056-.39-.222-.84-.445-2-.945-5.83-2.112-7.45-5.725-3.72-8.392-13.72-7.225-21.06-5.335-.17 0-.45.055-.84.111-2.66.333-8.72.278-12 .222-.22 0 .17.167-.22-.055-.39-.167.66.333-.5-.223-.95-.444-3.67-.945-5.23-.055.56-.111.34.444-4.22 3.001-9.9 5.447-37.41 7.392-50.47.723-.5.222-.72.333-.78.389h-.11-.05c-.17 0-.62.055-1.89.166-4.23.389-18.62 1.835-24.4 4.558-9.01-.723-18.46-2.112-26.96-1.278-9.17.833-17.06 7.559-24.96 9.56-5.28 1.333-3.78-.223-8-1.723-1.83-10.505-20.23-6.781-25.79-6.559-7.34.278-15.67-.778-14.89 7.503.44-.055 3.33-.389-1.12.167-5.11.556 8.45-.889-5.05.612-18.9 2.112-61.53 4.724-85.49 3.612-5.44-.389-6.89-1.834-10.22-4.724 0-.056-.06-.111-.11-.222-.45-.667 1 1.111-.28-.612-3-4.057-15.01-2.445-20.12-1.111-.11 0-.39-.167-.5-.223-2.34-.722-4.67-1.445-6.95-2.223-4.45.445-8.84 1.667-13.17 2.668-.11 0-.28 0-.56.056-1.33.111-5.22.889-6.39 2.556-.56 0 1.89.111-.78 0s4.45.223-2.83-.111c-10.4-.556-35.8-2.557-49.3 1.278-8.95 2.557-17.84 2.557-26.68 2.724-7.01.167-13.12.222-19.79 2.723.11.111.28.167.56.389 2.05 1.39 9.45 2.224 11.67 2.057 4.95-.278 11.23-1.334 9.11 5.058 5.23 3.946 6.12 4.835 13.57 3.779 12.83-1.834 27.67-5.336 40.79.334.06.055.11 0 .11-.111.06.333.17.722.39 1.445 1.45 4.78 8.17 6.336-8.39 4.835-7.89-.722-23.07 1.834-31.85 4.224 22.68 3.057 45.63 2.112 68.59.889.11 0-.28-.111.11.056.33.167-.67-.278.33.167 1.61.722 10.4 2.89 9.23 6.503-6.39.333-13.34.667-19.68 1-20.28.945-40.29 1.668-60.52 2.279.89-.667 1.89-1.223 2.78-1.89-8.73-1.167-18.68-3.112-26.41 1.779-4.22 2.668 5.67 4.446 7.29 4.224.44-.056 2.61.222 3.33.111-10.62 4.002-21.4 1.279-32.46.723-7.67 6.892-22.73 1.389-31.51 1.612-21.46.444-41.8 3.334-62.86 6.058 14 1.834 27.95.611 42.01.834-1.94 3.501-4.61 4.779-8.11 6.002-6.17-.889-11.34-.778-16.12 3.835 11.45-.444 22.57.334 33.91 2.112-17.4 4.058-33.63 5.892-51.31 3.057-17.28 3.335-34.57 3.947-52.07 4.502-11.18 7.948-24.07 5.447-36.8 4.836-7.06 4.502-13.78 7.948-21.84 9.782 5.17.445 10.39.222 15.51 1.112-9.12 7.67-18.4 9.838-29.74 11.005 1.78-1.39 3.78-2.446 5.61-3.724-10.84 1.111-21.67 2.557-31.68 6.447-6.06-1.056-17.67.056 2.73 1.945 32.34 3.002 58.97 1.446 89.26 10.338-3.56-.111-6.5-.111-9.78-.222.27.111.55.222.77.334-2.66-.167-5.33-.278-8.06-.445-.16 0 .45-.056.39-.056-16.61-.611-33.18-1.056-49.8 1.001 1.45.167 3.01.389 4.45.444.28 0 .17-.389.44-.389 1.28.112 2.45.667 3.73.723 10.67.5 21.23-.222 31.57 3.168-5.56-.056-11.12-.167-16.68-.333 12.23.778 24.52 1.445 36.8 2a8.602 8.602 0 0 1-1.17-.222c3.95 0 7.78.056 11.78.056-.5.333 1.56.389-.83.667 19.29-.167 38.07-.111 56.58.222.28.056.56.167.89.222 10.34.223 15.45.223 16.9.111 77.09 1.779 150.01 6.726 233.99 9.227 43.41 1.278 98.21 2.39 150.13 3.835-55.75.222-111.56.389-167.3.611 61.25-.11 122.44-.166 183.64-.166 9.61.277 19.12.555 28.29.889-1.5.111-2.89.166-3.89.278-67.92 5.335-135.23 7.892-202.93 10.893.22-.11 0-.277-1.72.278-3.11 1 9.39 1.612 14.95 1.445-51.97 4.002-94.93 7.837-89.26 6.17 8.22-2.446-19.57 1.834-30.07.722.11-.055.22-.055.16-.055.12 0-.05 0 0 0-.11 0-.11 0-.33.056-.33.055-.72.055-1.28.11-4.67.445 8.45-.777-4.89.5-19.17 1.835-61.47 4.892-85.76 5.67-5.95.556-13.28 1.39-17.62 1.834-16.84 1.723-31.68 2.502-47.91 3.947-2.72 2.834-14.23 1.945-18.79 2.445-2.22.223-8.83 1.056-12.06 1.278-21.73 1.612-43.18 3.947-64.58 8.06-9.17.611-18.34 1.834-27.12 3.835.55-.111.66-.223-2.34.5-6.22 1.445-4.83 3.001 2.67 2.723 9.23 2.001 18.45 4.113 27.96 5.836 3 .556 6.39.612 9.61.723 9.17.333 18.57.333 27.85 1.111 1.72.167 3.39.334 5.11.445 1.72.111 3.56.223 5.34.334 1.78.055 3.67.166 5.44.166 7.4.167 14.79-.055 22.18-.611.06 0 .17.056.22.056 2.84.555 5.56 1.056 8.51 1.5 1.5.223 3.11.39 4.72.5 2.5.167 5.06.278 7.56.39l5.39.166c4.73.111 9.51.278 14.23.39 56.64 3.834 113.33 1.89 170.02 3.223 5.95.111 11.9.111 17.84.222 1.89.056 3.78.056 5.73.056 2.78.055 5.56.055 8.39.111l19.18.333c3.66.056 7.39.167 11.06.223 1.89.055 3.78.055 5.61.111 6.67.167 13.39.278 20.12.389 9.95.167 19.84.334 29.79.556 5.11.111 10.17.222 15.29.278 75.86.89 151.73 2.779 227.6 3.89 12 .167 24.12.445 36.13.612 3.83.055 7.72.055 11.56.11 1.89 0 3.78.056 5.61 0 2.72 0 5.45-.166 8.17-.277 9.84-.445 19.62-.111 29.458-.111-2.557.722-1.779 1.334.333 2 .167-.666.278-1.333.445-2 1.223-.056 2.501-.056 3.724-.167 2.223-.167 4.391-.445 6.558-.778 11.672 1.223 23.233 1.667 34.96 1.111 8.449-.389 16.675.612 25.123 1.057 18.175 1 36.405 1.39 54.636 1.556 1.778.333 4.057.444 5.724.5 1.168.056 2.335-.334 3.224-.334 4.558-.11 8.782.112 13.284.112-.111.945-.167 1.89.111 2.834.445-.055 3.113-.278-1.278.111-5.169.445 8.615-.722-5.28.445-18.175 1.556-61.417 4.28-84.817 3.502-5.558-.5-6.891-1.89-10.337-4.836v-.11.055h-.056.056c0-.111.055-.334.111-.834 0 0-16.508-4.335-20.565-1.112-.056.056-.334-.278-.5-.333-2.335-.667-4.614-1.5-6.948-2.223-4.502.333-8.893 1.278-13.117 2.668-.111 0-.278.055-.556.055-1.334.222-5.224.834-6.391 2.446-.556-.056 2 .11-.779 0-2.834-.167 4.614.333-3.279-.167-9.004-.556-36.184-2.557-48.744 1.223-9 2.723-17.9 2.445-26.73 2.667-7.01.167-13.07.112-19.74 2.613.12.111.28.167.56.389 2.06 1.39 9.45 2.223 11.67 2.112 4.95-.222 11.17-1.334 9.06 5.113 5.23 3.947 6.06 4.836 13.51 3.835 12.84-1.778 27.68-5.335 40.74.39.05.055.11 0 .11-.056.06.333.22.778.44 1.5 1.39 4.67 7.9 6.448-8.44 4.725-7.79-.778-23.01 1.834-31.8 4.113 22.68 3.168 45.58 2.223 68.535 1.112-.111-.056-.389-.334.167.11.556.445-.556-.5.778.556 2.112 1.668 6.225 6.059 7.892 8.838.501.11-3.613-.167 2.501.278 7.17.5 21.955-1.112 31.904-.556 7.448.445 19.286 7.392 25.567-.39 0-.277.556-.944 2.39-2.278 4.891-3.557 23.177-3.668 31.847-5.336.111 0 7.281-.166 7.893.111 10.616 5.003 15.729 1.445 25.845-1.556.055 0 .111 0 .222-.055 1.056-.223-1.778.5 1.112-.112 4.335-.889 19.953-4.502 24.233-.389 7.392 7.115 13.006 4.947 21.454 4.78 8.448-.166 18.453-.222 26.29-.556 12.394-.555-11.672-6.336 8.503-3.668 17.786 2.334 31.014 3.168 48.244.723-.278-.056-.555-.111-.444-.334 2.39 1.279 9.782 4.447 11.838 3.557 12.173-5.391 28.18-4.113 38.851-4.28 7.893-.11 9.894.445 13.951-4.446-.445-.111-.167-.111-.056-.167 7.837-4.446 15.341-4.168 24.122-4.557 2.668-.111 5.336-.111 8.449-1.167 15.673-5.336 6.28-7.504-2.779-8.949-6.781-1.056-31.959 4.613-30.014-8.004 1.334.056 2.779 0 4.169 0 8.448 1.668 16.452 1.78 24.955.334 5.948 0 11.895.167 17.842-.111 10.56-.445 21.12-.334 31.68-.056l5.837.167c3.946.056 7.948.167 11.838.056 16.007-.556 31.959-.167 47.966.278 34.238.889 68.42.166 102.658 1.111 2 .056 4.057.056 6.058.111 2.946.056 5.947.111 8.893.111 3.891.056 7.837-.055 11.672-.222 12.561-.389 25.011 0 37.572.334 3.057.11 6.17.11 9.227.166 16.118.167 32.236.334 48.355.612.945.333 1.834.667 2.723 1.111a46.195 46.195 0 0 1 3.724-1c30.458.5 60.861 1 91.319 1.278 14.229.167 28.457.39 42.741.5 6.448.056 12.895.223 19.287.445.834.945 1.556.834 2.835.89 1.278.055 3.223.11 4.557-.556 2.168.11 4.224.166 6.392.277-.778.445-1.945 1.168-1 2.113.055 0 .055.055.166.055.334.167 1.445 1.667 1.167 2.612-.111.39-.166.612-.333 1-.167.39-.445.223-.723.612-1.111 1.668-.722 2.668.278 3.168-28.401-.222-56.859-.556-85.316-.945-23.677-.333-47.354-2.112-71.032-1-2.056.111-4.057.39-6.114.39h.056c-7.448-2.169-14.118-1.89-21.899-1.89-7.892 0-15.84-.056-23.733-.167 1.779 1.39 3.335 3.112 4.502 5.335.612-.11.445-.055.5-.055h.112c.611.667.667 1.445.722 2.39 7.67 3.057 13.062 7.114 21.343 4.39l.056.056c7.058 3.002 12.95 2.168 20.064-.055h.167c4.391.722 9.56 3.501 13.061-.556.056 0-.222-.056.056 0 .333.055-.556-.056.389.055.889.111 4.224.39 5.558.223.111.055-.611-.278.5.166 1.723.667 5.114 2.28 7.226 2.057.333-.056.333-.222 0 .055-.056.056 0 0 0 .056-.056.056-.223.167-.445.39-1.056 1-5.613 5.168-.333 5.502-4.502.389-8.782.5-13.173.833 12.172.278 24.122.779 36.072 3.39-5.114-.444-9.838-1.389-14.729.612 5.225.445 10.394.667 15.507 1.834-8.726 0-17.341-1.167-26.067-1.111 3.112.055 5.169.667.945 3.835-4.28 0-11.339-.5-15.007-.667-5.78-.278-8.504-.556-11.005 4.669 1.612 1.389 3.057 2.167 5.058 2.89 1.778-.167 12.783-.223 6.169 3.112-4.891 2.446-13.061 1.167-18.063 4.558h.055c-.278-.056-.667-.111-1.278-.278-4.336-.834-14.951-2.223-19.676-.222-4.724 2.056-9.06 5.002-3.335 9.06 9.06 6.447 18.731 7.614 30.681 8.892 6.948.778 20.787 3.946 25.456-6.003 1.167-2.445 7.392-1.222 10.226-.778 17.008 2.613 29.18 3.947 45.632-4.835 12.006-6.392 25.79-7.114 40.185-7.893 11.339-.611 24.344-.166 36.517-.333 35.404-.445 69.975 2.112 105.213-8.004 3.724-1.056 10.617-1 15.897-.945 20.175.111 41.352-1.39 61.638 2.668 5.003 1 10.727-.166 15.396-.945 19.509-3.39 42.241-3.501 60.694-5.057 13.562-1.168 19.62 5.28 32.015 5.28 12.394 0 24.511-3.78 37.128-1.501 4.279.778 9.004 1.89 13.395 2.279 2.445 3.446 4.779 6.836 7.17 10.282 1.834-5.224-1.057-7.559-5.003-10.115 13.228.11 26.179-1.557 39.185-3.947 2.112-.389 4.001-.722 6.113-1.056a48.271 48.271 0 0 1 2.39 2.39c1.001-.834 1.723-1.834 2.446-3.001 9.282-1.556 20.509.222 29.18 1.667 26.456 4.502 50.078-1.945 76.534-1.556.501 0 3.835-1.834 4.558-2.612.222-.278.444-.778.444-1.167 10.45 1.945 21.899 7.948 32.015 8.614 6.78.445 5.502-.055 2.89-3.946 9.949-.278 18.453-2.946 28.68-.444 18.952 4.668 37.461 4.946 57.303 4.89 22.344-.055 45.298.056 68.086 1.057 15.396.667 31.348 0 46.521-3.835 39.074-12.728 79.091-13.006 119.61-13.673 13.617-.223 27.512-.39 40.963-3.613 4.502-.333 9.004-.556 13.506-.611-1.001.5-1.89.945-2.39 2a140.99 140.99 0 0 1 8.393-1.89c3.057.112 6.113.334 9.17.612 1.001.945 2.057 1.668 3.224 2.39.278-.667.5-1.278 1-1.89 6.226 1.056 14.118 2.39 19.843 4.391 4.78 1.668 12.339 3.502 15.173-.444 5.281-7.281 14.84-4.113 19.565-2.224 7.169 2.89 6.225 2.224 11.838.167 4.391-1.612 7.726-.278 12.117.167 8.67-1.445 17.397-.39 26.123-1.612 11.727.056 23.51.167 35.238.278.056 3.112.055 6.17.111 9.282a464.876 464.876 0 0 0-23.177 1.89c-1.001 3.39-1.39 4.724 2.001 6.225 6.836-3.502 13.728-5.558 21.231-6.614.112 6.114.279 12.283.39 18.397 3.557.333 6.948.778 10.282 2.334 5.67-1.445 11.95-3.668 15.952 2.057 7.503-2.001 15.059-3.891 22.399-6.614 1.89 1.445 1.89 2.556 1.67 4.89 7.33-.5 14.5-.277 21.79.779 3.55-1.668 6.94-3.502 10.5-5.17 2.28.445 8.95.779 4.33 3.614 19.46-2.335 38.47-7.615 57.92-10.06 6.5-9.838 17.06-5.336 26.46-3.169-1.28-1.611-4.45-3.112-1.84-4.89 9.34 1.333 18.4 1.333 27.74.444.33 3.001-1.89 4.446-3.73 6.336 5.89-.667 11.84-.722 17.73-1.723-3.67-.722-7.17-1.667-10.56-3.446 5.89-.667 11.79-1.5 17.73-1.779.5 1.223.95 2.446 1.45 3.669 23.34-3.113 46.85-4.336 70.09-8.504 4.78.222 9.05 1.834 13.61 3.224-1.22-1.668-2.78-2.668-4.5-3.558 2.72.223 32.35 4.391 24.12-.833 6.06.611 12.12 1.556 18.18 2.056-2.39.612-5.01 1.279-4.28 4.113.33-.278.94-.389.39.39 8 1.278 20.78 5.946 25.29-3.67-5.4.445-10.68-.277-16.07-.833 1.56-.11 3.12-.278 4.67-.556-3.83-.722-7.22-1.834-1.55-3.668-1.95 4.224 5.22 3.446 7.61 3.446 4.33-2.168 8.84-3.224 13.51-4.224-.12.723.11 1.112.66 1.445-3 1.056-5.78 2.39-8.5 4.224 12.73 1.223 25.29 1.39 38.07.778-6.56 2.335-13.28 2.39-20.17 2.946.89 2.946-2.06 3.835-4.01 5.058 4.17-.056 7.56-.278 11.12-2.78 3.84.557 7.73.445 10.67 3.391-3 .111-5.89-.055-8.61 1.5 8-.388 15.34-.11 22.9 3.002 19.23-1.89 38.57-2.445 57.8-3.279 4.72.222 8.28 0 12.95-1.39 7.73-2.223 15.12-3.557 23.57-3.779 5.67-.167 12.84.834 18.17-1.167 1-.39 2.61-.945 5.28-1.779 14.84-4.557 50.25-6.725 68.81-4.002.61-.166-.56-.222-.78-.277.22 0 1.34.055 4.89.11 11.45.223 33.63.445 49.3-1.222 7.51-.834 22.35-1.167 30.63 1.556-6.28.39-13.29.778-19.79 1.223-8.78.556-17.12.722-25.45 3.89h-.06c-6.78.112-13.78.056-20.4 1.001-.28-.056-.61-.111-1.17-.167-4.66-.667-13.61-.945-18.89 1.334-2.73-1-4.5-1.278-6.95.223-.06 0 .78-.111-.45.11-1.22.223-4.89.501-6.39.167-.22 0 1.95.39-1.39-.277-4.05-.834-14-2.724-18.45 1.667.17-.111-1.11-1.111.11.334 1.22 1.39-2.61-2.28 1.11 1.778 5.39 5.78 24.96 2.501 34.07-1.445 5.45-2.39 14.34-1.779 20.35-1.278.28 0-.61 0 .55.166 1.17.167 4.12-.5 6.17-.5 0 0-1.89.39.67-.111 2.5-.5 8.95 2.112 15.84-.667 11.17-.667 48.19-3.668 62.92-3.557 9.89 1.556 18.84 1.5 27.73 1 26.12-1.445 51.36-2.89 77.26-4.39 4.78 1.556 8.78 2.112 13.34-.556 4.56.5 9.22 2.779 12.56-.278.06-.445.83-1.445 3.45-3.557 7.55-6.059 36.18-4.67 46.57 3.279.5-.39.28-.334.39-.445.11-.111 0 0 .06 0 3.5-.167 6.94-.222 10.45-.389.61-4.168 2.66.056 4.16-2.279 1.45 1.445 3.01 0 4.06 2.001 4-.111 8.01-.333 12.06-.389 9.95-2.89 21.29-1.334 31.29-1.945 5.67-.334 10.12-2.057 15.29-2.057 37.4-.055 75.37.39 112.38.667 3.39 0 7.23.111 10.62.223 45.58-1 91.15-1.557 136.95-.668 41.8.779 84.2-4.113 126.06-6.169 38.4-1.834 76.53-6.17 114.94-7.17-.17-.11-.39-.667.28.39 1.16 1.667.5 5.002-.62 6.891-.5.167 2.45-.5-.72.223-3.17.722 5.23-1.056-3.61.833-8.84 1.89-33.13 3.557-48.25 5.17-20.62 2.222-47.52 8.336-69.47 7.67-1.28-.5-1.61-1.279-2.84-1.724-1.83-.722-5.28-2.556-7.56-2-.05-.056-.16-.056-.22-.056l.22.055h-.11c-2.66-.833-4.72-.444-7.22.39h-.28c-2.56-.278 4.11.333-3.39-.39-12.84-1.278-34.52-1.167-52.52 1.334-13.9 1.946-37.13-.166-52.69-.778-5.06-.222-9.23 2.001-14.34 2.39-9.23.723-18.57-5.724-26.46 2.057-.06.055-.17.111-.33.222-.84.5-4.06.222-5.23-.556-4.89-.889-9.22-2.223-13.5 1v.056c.05.278-.17-.444 0 .278.16.723.33 1.112 1.16 2.557 1.89 3.335 4.73 5.113 8.9 4.002v.055h.22c1.83 1.279 6.17.667 7.5.111 1.34-.555.61-.222.67-.222 47.3 1.834 94.65-1.89 141.9-3.835.05-.056-.17-.111.05.056.22.166-.39-.223.22.222 1.06.778 3.45-.89 4.95-.167.33.445.89 1.112 1.95 2.057 4.61 4.113 20.17.278 28.79-1.723 13.39-3.168 29.79-3.39 44.74-3.502 48.8-.278 100.54 17.063 145.68-10.727.38.056.83.111 1.44.167 5 .667-8.61-.945 4.78.722 21.23 2.613 65.09-2.89 90.32-9.56 19.73-.667 37.02-1.89 55.64-5.39-19.51-3.447-39.8-12.395-56.03 3.278h-.95c-3.66-.055 6.01 0-4.05-.055-14.4-.056-53.69 3.001-71.09 4.446-11.84 1-9.28 1.112-14.4-6.614.23-.055.45.223.12-.11-.34-.334.61.388-.28-.39-1.34-1.167-8.06-.89-8.62-3.502 17.07-1.723 34.02-1.111 50.64-6.336h.05c.22-.055-.16 0 .84-.055 13.89-3.669 48.46-5.447 57.97-6.114 1.72-.111 2.83-.223 3.55-.278.06 0 .23-.056.67-.056.45-.055.67-.055.95-.11h.11c12.61-2.502 27.34-9.505 41.57-13.007-7.06-.222-13.89.5-21.01 1.834-5-.055-9.95-.222-14.95-.611-19.34.333-38.63 1.334-57.91 2.723 5.66-.778 11.17-1.89 16.73-3.445a43.341 43.341 0 0 0 3.89-2.557c42.02-1.89 84.31-3.446 126.28-6.225 39.9-2.613 79.36-3.39 119.38-4.502 21.51-.612 44.08-1.39 65.75.222 6.45-.445 13.18-1.056 19.35-.945.44.056 1.05.111 2 .222 7.83.89 23.12.834 32.4-.444.39-.056.17.055.28 0h.05c1.67-.167 3.12-.445 4.84-.278 2.5.278 5.67 2.056 7.61-.445 28.29-1.945 56.53-3.946 84.82-5.891 5.17 1.278 9.28 2.668 12.23-2.946.16-.056.33-.111.66-.222 1.62-.5 9.45.722 9.95-2.502.06-.333-7.89-1.5-9.28-1.5-57.69.222-114.33 4.446-172.02 5.169-72.7.89-146.12 1.167-218.99 4.39-36.01 1.612-72.42-.777-108.16 5.503-.83-.111-1.5-.222-2.22-.278-25.85-1.89-49.25-2.39-75.42 1.89-17.01 2.723-37.97 2.112-55.2 2.334-5.05.056-2.94-.222-3.55-3.557 10.95-.222 21.45.723 32.35-.444 38.29-4.113 76.42-7.226 114.94-10.45 47.68-4.001 96.37-5.057 144.28-7.003 23.24-.945 47.25-.11 69.87-2.556 2-.223 5.83-.667 5.95-.667h.16-.05c7.56 1.667 14.5 1.167 22.17.778 9.23-.445 18.46-.834 27.68-1.223-4.11-.778-7.95-2.279-11.28-4.836-.5.056-.33.056-.39.056h-.11c-.89-.556-1.33-1.334-1.83-2.334-8.23-2.946-14.57-8.337-22.96-3.335 0 0-.06-.056-.11-.056-7.06-2.223-12.78-1.778-19.62 1.056h-.06c-.16-.111-.44-.278-1-.555-.72-.39-2-.89-3.44-1.223.72-2.112 2.44-2.668 4.61-3.28 13.9 2.057 30.63.834 43.8-.722 13.17-1.556 20.28-2.112 31.73 3.835 4.12-1.279 5.95-4.058 9.23-6.892 27.01-1.89 53.86-3.835 80.98-2.78 16.18-3.223 32.46-5.78 48.69-8.503-1.83 2.39-4.72 2.724-7.06 4.335 22.29-2.5 44.3-3.946 66.7-2.556 3.17-5.114 8.61-6.615 13.17-9.894-16.45.556-32.18.111-48.24-3.89 8.11-.223 16.17.667 24.29-.612-27.02-1-53.47 2.668-80.26 6.059-.28-1.612.22-2.668 1.16-3.891-11.89.333-23.28 2.112-34.84 4.947-31.35-.334-62.81 1.89-93.94 4.835-21.95 2.112-43.35 3.335-65.3 3.78 1.55-1.223 1.72-2.39.94-4.225-2-1.222-3.94-2-6.22-2.612-1.39.278-12.62 1.056-7.51-2.779 3.78-2.834 11.79-1.39 15.57-5.447.27.056.66.056 1.22.167 4.67.556 14.51 1.779 19.62-.834 3.17-1.612 3.83-2.834 3.22-6.169 6.78-1.946 13.62-4.058 20.46-5.892 8.11.167 15.28 1.779 22.45-2.779.11-.111.45-.333 1.06-.722 2.11-1.279 9.56-2.224 12.5-.111 8.23-1.668 16.57-2.446 24.68-3.335 1.17-.111 2.17-.778 2.72-.945 1.34-.389 2.78-.056 3.28-1.279 2.89 0 5.62.779 8.56.445.78-.111 2.06-.5 2.84-.389 4.94.723 8.56-.111 13.17-2.001.17.056-.28-.278.05.111.34.389-.83-.556.28.5 1.11 1.057 5.39.612 5.67 4.336.22 2.557 10.45 2.779 12.56 1.667-2.11-2.279-5-3.835-5.11-7.503.17 0-2.17.389 1.5-.278 3.67-.611 14.34-2.223 19.34-.5 2.06-1.557 1.11-2.223.28-4.113.06.055-.33.278.17-.223.5-.5 2.61-.778 3.33.056 2.56-.778 5-1.334 7.62-1.612.5.278 1.39.556 1.77.778.39.278.62.834.78 1.056.17.223-.11.056-.16.111-1.12 1.612.94 2.224 1.94.945h.06s.05 0 .28-.055c.72-.056 2.16-.556 3.44-.445 2.39.223 5.56.611 8.12.667-.06-.389-.23-.723-.34-1.056 1.89 0 4 .111 5.89.167 11.06.222 21.9-.556 32.52-2.89.28-.056.67-.056 1.28-.167 4.67-.556 14.28-1.668 19.95-2.501 3.5 1.611 7.06.166 8.62 4.502 4.44-5.058 10.83-.667 15.67 1.5 2.78 1.279 5.11 1.445 7.89 2.168-7.11-.111-14-.5-21.01-1.723-1.39 1.112-2.5 2.168-4.06 3.224-2.94-.945-12-2.557-13.89-.5-10.23 10.949-20.45 7.614-33.74 8.059-16.95.555-35.35 2.501-52.3 6.503 1.28.278 2.72 1 4.11 1.111 12.79 1.112 26.29.111 38.91-.5 32.13-1.556 63.53-6.447 95.43-8.448 2.5-.167 5 .278 7.06.5 1.34.111 2.06 1.167 1.45 1.834-1.45 1.612-3.78 1.779-5.34 3.001-.94.723-1.06 1.668-.39 2.446.67.778 1.17.945 1.95 1.278 2.78 1.334 5.72 2.224 8.72 3.057 5.06 1.501 10.06 3.113 14.9 5.28.22.112.33.112.5.223.61.444 1.22.667 1.94 1.111.73.445 1.45 1.112 2.12 1.724.94 1 1.83 2.056 2.5 3.334-.06.056-.17.222-.5.556-3.62 4.28-.06 12.672 6.11 6.614l-.05-.055c3.66-1.057 7.39-2.057 11.06-3.113-.23-.834-.84-1.334-.89-2.223 0 .056 0-.056 0 0 0-.056-.06-.056.05-.111.06-.056-1.5.778.84-.445 3.66-1.89 10.5-5.28 14.67-7.837 0 0-.34-.055.44-.055s3.84 0 4.95-.278c2.06-.556 2.89-1.89 4.39-3.224 5-4.947 10.62-5.614 17.18-6.058 7.5 1.334 15.11 1.556 22.51 3.446 11.17 2.834 24.28 8.56 32.57-2.39.11-.223.38-.667 1.05-1.334 2.17-2.057 11.23.889 14.29 2.223 12.17 5.502 21.34 6.058 32.68-1.389 11.23-4.058 21.51-8.004 30.29-16.841-.28-.167-.5-.389-.83-.556-5.95.333-13.23 1.222-18.9 1.445-3.84.111-5.23-1.945-8.56-1.945 0 0-.06 1.111 0-.667.05-2.335 5.17-4.447 6.95-6.337 1.11-1.222-.95-3.835-2.84-3.612-13.12 1.612-22.79-3.224-36.79-2.279-22.35 1.556-48.36 4.28-71.15 6.725-12.78 1.334-24.9 2.612-36.57 7.17-14.17 5.558-25.73 5.113-40.4 2.668-5.06-.834-11.12-1.668-16.46-1.723-2.89-6.058-11.45-.278-14.39-6.503 12.56-.167 25.01.056 37.46-1.779-19.79 10.116-3.84 8.004 5 9.505 3.5-4.836-7-4.836 7.06-5.781 2.45-.166 2.78-1.389.39-2.556-3.5-1.668-7.34-3.28-10.84-4.947-14.06 2.89-25.73 3.39-39.74-1.167-6-1.946-13.73-1.612-20.12-2.057-.56-.055-1.39-.167-.94-1 1.22-2.057 4.77-1.89 7.05-2.001.62-.056 1.73-.334 2.62-.334 9.78.223 19.73.779 29.51-.111.06.056.06.056.17.111.55.501-.95-.722.55.501 2.23 1.834 7.67 2.501 11.29 2.39 27.56-.779 55.19-.112 82.64-3.446 1.73.111 3.45-.167 5.17.055 5.39.667 10.51.723 15.84-.167 7.06 1.612 13.84.167 20.96-.055h.39c.94 0 3.05 0 4.66-.056 8.51 0 17.51-.055 26.07-.055.06 0 .06 0 .17.055.56.167-.89-.222.72.223 1.56.444 7.34 1.111 9.56-.334h.11-.11c.06 0 .06-.055.11-.055.06 0 .06.055 0 .055.17 0 .45 0 .95-.055 2-.112 6.67-.056 9.72-.056 3.06.055 6.9 0 10.34 0 8.51 0 17.4-.056 25.96-.056 1.94.89 3.44.834 5.33 0h.11-.05c.06 0 .11 0 .22-.055 1.5-.223 3.28.166 5-.111 1.67-.278 3.67-1.223 5.4-1.39 1.72-.167 3.27-.055 5.05-.167 6.06 1.946 14.23.778 19.85.111.44-.055.77-.111 1.05-.166h.95c7.56-.056 17 1.056 24.95-.111 18.23-.334 36.46-.945 54.58-.334 4.89.167 9.01-.167 13.62-1.556 0-.222-.5-.723-.61-.723-2.56-.055.67-.166 2.94-.166 2.95-.056 9.06-.056 12.68-.056-3.28.111-6.67.389-10.01 1 5.73 1.446 10.95 1.557 16.84 1.501 21.4-.278 43.91-.722 65.2 0 30.01 1.056 59.08-.889 88.98.889 3.06.167 6.78-.166 9.95-.555 9.45-1.056 18.79-1.056 28.29-1.223.39 0 .84-.223 1-.834.17-.611-.89-1.223-1.44-1.334-12.17-1.501-24.29-1.834-36.52-2.001-2.56.334-5 1.001-7.39 1.834 2.17-1.445 4.56-1.5 6.89-2.612 3.28-.5 14.4.389 14.23-4.669-.06-1.723-4.78-1.723-5.95-1.889 24.79-.167 49.86-.223 74.76-.39 8.39-.277 21.29 1.39 22.01-10.171.16-2.334-.95-3.112-1.61-5.113-.34-1.001-2.56-1.056-3.39-1.223 2.11-5.502-9.73-3.502-13.79-3.557-2.55 0-8.78-.222-11.95-.222 9.45-.112 19.07-.445 28.57-1.334 5.95-1.501-.83-2.835-4.78-3.669zm-545.58-141.285c.06 0 .17.055.17.055-.11 0-.17 0-.17-.055-.05.055 0 .055 0 0zm238.22-42.075c6.73-.111 13.45-.056 20.18.056-9.67 0-19.35 0-29.02.055 2.95 0 5.89-.055 8.84-.111zm-164.91 29.958c0 .055-.05-.111-.11-.167-.39-.444.33-.222.11.167zm-2 .333c.67 0 .95-.055 1.61-.111-1.55.223-1.72.223-3.61.278-3.78.111-8.61-.111-12.67-.222 4.83 0 9.84.055 14.67.055zm344.77-260.006c.05 0 .22.056.11.056s-.56-.111-.61-.111c0 0 .44.055.5.055zm-45.74-5.836c0 .056 0 .278-.06.223-.06 0-.06-.167-.06-.223 0-.055.06-.055.12 0zm-86.27 126.446c-4.22.334-8.39.667-12.67.556 4.23.167 8.45-.167 12.67-.556zm-87.54 32.57c-.05 0-.05.001-.11-.055-.27-.111-.05 0 .11.055zm-20.23 4.725c1.34.389 2.67.945 4.06 1.111 3.67.501 7.56.945 11.23 1.001 2.17.055 3.72-.445 5.78-1.112 2.22 7.448-5 6.726-10.95 6.948-5.45.222-13.73-.778-18.68 3.668 2.39-4.835 7.9-5.558 8.56-11.616zm-48.13-4.28c-.78.612.22 1.056-1.06 1.779-.22.111-4.66.5-5.39-.111-.72-.612-1.16-.612-1.78-1.168 2.78-.222 5.45-.389 8.23-.5zm-30.79 5.447c-1.11.278-2.22.556-3.34.778 1.06-.611 2.17-.722 3.34-.778zm-79.98 18.953c8.56.056 17.06.278 25.62.723 19.23-3.224 38.57-4.947 57.75-8.449-7.67 0-15.29.667-22.95 1.056 15.67-1.5 31.23-3.668 46.85-5.613 1.5-.501 2.94-1.112 4.33-1.946 10.51.945 19.46.556 27.29 9.227l.12.111c-6.17-.111-12.34 0-18.51.778-14.73 1.779-29.96 3.113-44.58 2.057-11.06-.779-20.29.055-30.85 2.834-17.61 1.89-33.46 2.279-46.29 16.952-.28-.222-.5 0-.78-.333-.28-.334-.61-1.056-.78-1.445.06-.111.11-.167.22-.334.67-1.278-.61 1.834 1-1.556 1.78-3.724-4.11-11.116-10.39-8.837 3.83-2.946 7.56-4.002 11.95-5.225zm-12.67 16.507s.11 0 .11.056c-.06 0-.11 0-.11-.056zm-4225.57-195.365c-.12.445.05-.278 0-.166.05.055.05.055 0 .166zm-139.51 55.359c-1.84-.445-3.45-1.056-5.39-1.334-5.28-.723-10.73-1.334-16.07-1.612-3.16-.167-5.89.278-9.17.778 1.17-8.726 12.18-6.281 20.23-6.225 7.4.056 21.07 1.167 29.24-2.612-5.89 4.502-14.23 4.279-18.84 11.005zm180.3-7.782c-33.57-1.111-67.08 1.223-100.6 2.668-2.5.445-4.89.945-7.34 1.668-12.22-1.112-26.17.444-34.73-10.505-.06-.056-.11-.056-.11-.111 9 .444 18.23.611 27.17.222 21.51-1 43.97-1.556 65.09.334 15.89 1.389 29.4.833 44.85-1.223 24.958-1.112 48.413-1.668 71.034-14.396.278.223.667-.055.834.334.167.389.111 1.167.334 1.501l-.389.389c-1.446 1.389 2-2.112-1.835 1.723-4.446 4.391-1.611 10.893 8.727 8.948-24.289 6.503-48.467 5.336-73.035 8.448zm79.927-19.564l-.112-.056h.223l-.111.056zm35.127-17.23c6.336-.111 12.616-.333 19.008-.556-1.723.223-2.779.5-4.613.778-4.669.723-9.616.834-14.395-.222zm16.563 4.113l-.334-.167c-.389-.167-1.056-.389-1.89-.556h4.891c-.945.167-1.834.445-2.667.723zm18.341-9.115h19.62c-5.058.833-9.949.889-15.118.5-1.389-.167-3.057-.334-4.502-.5zm141.008 5.224l-.667.223a952.025 952.025 0 0 1-47.132-2.335c-1.39-.111-3.224.334-4.613.612-10.116 2.167-18.953 2.779-28.847-.723-10.505 2.112-20.843 3.113-31.514 2.89-1.556-.055-3.668.056-5.058-.222-4.613-.889-8.782-1.667-13.284-2.168 5.392-.166 11.728-.222 16.897-.222 9.004 0 16.563-.167 24.9-3.335 14.284 0 28.624-.055 42.964-.055 9.782 3.39 20.731 3.501 30.625 3.39 5.058-.056 6.669-.723 10.504-3.446h11.561c-1.556 3.057-3.279 4.335-6.336 5.391zm-56.359 11.895c.556-.112.056-.056 0 0zm377.671-12.673c.111-.055.166-.055.277-.111-.111.056-.222.056-.277.111zm0-.055c.111-.056.166-.056.277-.112-.111.112-.222.112-.277.112zm2.723-.945c-.778.278-1.278.444-1.667.611-.167.056-.223.056-.334.111.111-.055.222-.055.334-.111-.223.111-.445.167-.556.222.055 0 .055 0 .055-.055-.055 0-.055 0-.111.055.056 0 .056 0 .111-.055-.055 0-.055 0-.111.055.056 0 .111-.055.111-.055.389-.167 1.056-.389 2.168-.778-.945.333-1.612.555-2.279.778h-.055c-.056 0-.056 0-.056.055-.056-.055-.111-.111-.278-.166-1.278-.667-3.279 0-4.891.111-4.724.444-10.449.389-14.562.055-1.445-.222-3.502-.611-6.559-1.056-20.064-3.112-56.97-1.556-83.537-1.889-21.121-.223-51.134-1.779-73.367-1.557 15.118-.166 31.07-.055 46.41-.166 6.781-.056 13.173-.778 19.731-1.89h-.055.667c1.445 0 7.614-.056 9.059-.056h.723c2.89.501 5.947 1.668 8.893 1.668 33.181.111 66.252.111 99.378-.111 2.89 0 6.114-1.168 8.782-1.557-.556-.111-1.334-.5 2.056.278 1.612.389 4.002 1.223 6.725 2.112-7.392 1.056-13.561 2.279-16.785 3.391zm39.962-6.003c.223.611-.833.889-.444.056 0-.056.055-.056.055-.112 0 .056 0 .056-.055.112.111-.056.278-.056.444-.056a1.168 1.168 0 0 0-.222-.334v0c.334-.444.889-1.056 2.001-1.945 4.724-3.891 27.902-3.835 33.404 3.001-7.503-1.889-21.288-1.778-35.183-.722zm-422.134 65.919c1.056-.501 2.112-.779 3.223-1.001-1.111.167-2.167.5-3.223 1.001zm-402.739 53.024s.84-.056.89-.056h.17c-.34 0-.72 0-1.06.056zm.61 20.62h-.22l.11-.056c0 .056.11.056.11.056zm13.51 6.114c.89 0 1.72-.056 2.61-.056.11.056.17.056.28.111-.95 0-1.83 0-2.89-.055zm7.95 8.948c.11-.055.16-.055.22-.055-.06.055-.11.055-.22.055zm13 33.238h.84c.05 0 .05 0 .05.055-.33 0-.5 0-.89-.055zm30.57-18.731c-.05 0-.05 0 0 0zm13.56-49.522l.06.055c0-.055-.06-.055-.06-.055h-.22.22zm.39 81.092h-.39.56-.17zm15.45-95.377h-.5.95-.45zm-324.42 195.644c-.05.389 0-.111 0-.167h.06c-.06.056-.06.056-.06.167zm368.72 29.958c-.11.389 0-.111 0-.111h.06l-.06.111zm27.07-6.614c-.17-.056 0-.167.17-.167-.06.056-.17.111-.17.167zm261.396 11.283c-4.224.778-13.729 2.445-19.064 3.279-1.89.278-3.391.445-5.058 1.278-4.613-.222-8.893-.945-13.284-2.556-10.449 1.778-20.898 2.667-31.459 2.445-1.556 0-3.835.056-5.113-.167-13.951-2.334-29.402-2-42.464-.5-5.28.612-17.396 1.556-17.341-4.002-.222 0-1.723.056 1.612-.111 5.058-.222 12.95-.111 19.898-.111 37.684-.055 76.423-.167 114.385-.222-.167.166-.667.389-.778.444-.223.056 2.001-.389-1.334.223zm-18.398 36.461c-.055 0-.333-.056-.166-.112.167-.055.667-.111.722-.055 0 .055-.5.167-.556.167zm-599.328 26.345c-1.89-.445-3.5-1.056-5.44-1.278-5.28-.667-10.84-1.279-16.12-1.501-3.23-.167-5.89.333-9.23.834 1.17-8.727 12.23-6.392 20.34-6.392 7.4 0 21.24 1 29.41-2.779-5.95 4.502-14.34 4.335-18.96 11.116zm261.84-29.18s-.05.056-.11.056l-.11-.056h.22zm-13.45.222c-.05.056-.11.111-.33.223-.72.5.17-.111.33-.223zm-179.69 35.238c1.22-.5.45-1.111 2.39-1.723.33-.111 6.78-.333 7.78.334s1.28.667 2.06 1.223c-4.17.111-8.12.166-12.23.166zm47.3-4.057c1.72-.222 3.5-.445 5.22-.667-1.72.5-3.44.667-5.22.667zm42.07 106.493s-1.66-.278 1.39-.112h.34c.72 0 1.72.056 3.22.112.45 0 .95.055 1.39.055-2.11 0-4.17-.055-6.34-.055zm44.58-123.778c-28.51 2.612-57.08 3.223-85.59 5.947 11.06.333 22.06 0 33.12-.111-23.34.889-46.69 2.389-69.97 3.557-2.51.444-4.95 1-7.34 1.723-12.28-1.001-26.29.667-35.02-10.283-.05-.055-.11-.055-.11-.111 9.06.334 18.34.5 27.35 0 21.67-1.167 44.24-1.778 65.47-.111 16.01 1.278 29.57.667 45.13-1.556 25.13-1.279 48.69-2.001 71.42-14.84.28.222.67-.056.89.333.23.389.11 1.056.39 1.445-.05 0-.33.223-1.33.945-10.73 7.503-1.5 9.782 7.72 10.338-6.11 2.279-12.06 3.502-18.34 4.391-11.34-.278-22.56-.889-33.79-1.667zm76.7 126.779c-11.06-.111-21.4-.334-31.35-.612 15.84.223 31.68.5 47.64.779l-16.29-.167zm96.656-11.45h-.056.111-.055zm86.15-111.55c.277 0 .5-.167.778-.167.945 0 1.834.167 2.723.334-1.111-.056-2.334-.112-3.501-.167zm12.283.445a6.671 6.671 0 0 0 1.278-.612h-.055.278 18.953c.5.389.333.834.555 1.334-7.003-.167-14.006-.445-21.009-.722zM-979.569-9.478c.334-.055.056 0 0 0zm30.57 28.346c-1.89-.444-3.502-1.056-5.392-1.278-5.28-.667-10.782-1.278-16.063-1.556-3.223-.167-5.891.278-9.17.778 1.167-8.726 12.227-6.336 20.287-6.336 7.392.055 21.176 1.111 29.346-2.724-6.058 4.614-14.395 4.391-19.008 11.116zm163.462-223.878c-.056 0-.167 0 .334.055.833.111 3.723.389 4.891.5-2.001.056-4.002.112-6.003.112.222-.223.5-.389.722-.667.056-.056-.222-.056.056 0zm2.168 197.589c-1.279.722-4.224 1.445-5.336 1.612-3.502.555-4.724.778-7.059-1.78 4.169.168 8.337.223 12.395.168zm15.229 17.896c-33.682-1-67.253 1.446-100.935 3.058-2.501.444-4.946 1-7.336 1.723-12.228-1.056-26.234.555-34.849-10.394-.056-.056-.111-.056-.111-.111 9.004.389 18.286.556 27.29.111 21.565-1.056 44.131-1.723 65.307.056 15.952 1.333 29.458.722 45.02-1.39 21.565-1.167 42.464-2.612 63.251-9.449 1.723.056 3.446.056 5.169.111-5.391 7.337 5.336 7.282 10.115 8.004-24.066 6.003-48.521 5.28-72.921 8.281zm491.054 40.63c7.337 3.28 14.451 2.89 22.233 2.334-7.893.89-15.007 1.723-22.233-2.334zm48.633-15.285c-.389-.055-.444-.667-.722-.889 1.223.222 2.39.5 3.501.89-.889-.056-1.834.166-2.779 0zm1829.383 3.168c-.06 0-.17 0-1.28.056 3.33-.167 2.44-.111 1.28-.056zm692.37-9.338c.05 0 .11 0 .16.056.95.222 2.45.667 3.95 1.056-1.28-.278-2.61-.5-4.11-1.112zm765.62-71.476c-.45.166.05.055 0 0zM2512.23-11.09c.89-.056 1.66-.111 2.55-.167 9.67-.89 19.4-1.39 29.13-1.89-10.56.778-21.12 1.501-31.68 2.057zm517.23-78.036c-1.56.223-3 .668-4.39 1.668 1.39-1.056 2.83-1.445 4.39-1.668zm-375.22 3.78c-4.95.612-9.9.945-14.84 1.167l14.84-1.167zM1382.66 25.26c.72.333 1.39.611 2.11.833-.72.39-1.44.834-2.16 1.279-2.28-.167-4.62-.334-6.9-.5 2.28-.5 4.62-1.112 6.95-1.612zm-305.64 4.835c.23-1.056 2.45-2.723 3.34-3.668-.28 2.168-1.39 3.39-3.39 4.113.11.111-.17.611.05-.445zM-103.841 9.975c.334 0 1.501.056 2.001.056h-2.39c.056 0 .167-.056.222-.056h.167zm-94.32-300.191c-.334.056-.556.112-.945.112-14.562.611-29.18.945-43.742 2.056-2.501-.722-5.002-1.445-7.503-2.112h9.226c14.34 0 28.624 0 42.964-.056zm-745.28-90.929s-.056 0-.112.055c-.222 0-.5-.055-.722-.055h.834zm-12.006-1.501h-.278.278zm-2.723-1h-.167.167zm-16.563-3.224h.278-.39.112zm310.473-120.11c-.778.056-1.667.111-2.668.111.334-.055.445-.166.556-.278.778 0 1.5.056 2.112.167zm-1.167-5.058c.166-.055.833-.111 1.556-.166 0 .055-.278.111-.445.166h-1.111zm2.556 5.67c.056 0 .056 0 0 0zm-157.07 122.221h-.612c.111 0 .278-.055.389-.055.056.055.167.055.223.055zM-985.238-404.6h-.556c.056 0 .167 0 .222-.056.056.056.223.056.334.056zm10.838-87.206h.111-.111zm13.284 27.846h.222-.222zm16.007-.278h.556-.278c-.111.055-.222 0-.278 0zm5.058 4.168c.333 0 .5.056.945.056-.278 0-.612.055-.89.055-.111-.055-.111-.111-.055-.111zm5.947-10.782c0-.056 0-.056 0 0h.389-.389zm2.779 25.845h.278c-.056 0-.167 0-.222.055 0-.055-.056-.055-.056-.055zm59.805-18.731h0zm37.906-21.176h.167-.167zm13.006-5.67h.722-.722zm19.564 5.169h.111-.111zm51.579-6.391h-.278.278zm-40.63-2.724c-.055 0-.111.056-.166.056-.111 0-.167-.056-.278-.056h.444zm-70.254 30.792h-.333.333zm49.967 13.562h1.334c-.277.055-.611.055-.889.055-.167 0-.278-.055-.445-.055zm-86.872 7.281c-.222 0-.389 0-.611.055h-.112c.223-.055.445-.055.723-.055zm-6.836-19.676h-.501.501zm-23.066 23.622c.611.055 1.167.055 1.5.111h-.889c-.222-.056-.389-.111-.611-.111zm60.416 33.682h-.5.5zm-39.907 5.836h-.334.334zm-40.63 0h-.444.444zm-8.17 2.001h-.167.167zm-8.115-6.67h-.722c-.111-.056-.223-.056-.334-.111.334.055.723.055 1.056.111zm257.061-86.761c.111 0 .333 0 .389.055h-.334c0-.055-.055-.055-.055-.055zm1.389-5.058c.056 0 .167-.056.222-.056h1.557c-.667 0-1.223 0-1.779.056zm1.779 4.113h-.223.223zm-.111 4.946h-.279c.112-.055.223-.055.279 0 0-.055.055-.055 0 0zm-308.916 24.122h-.45.45zm-24.01 13.284h-.39v-.055c.11.055.28.055.39.055zm2.39-38.628h-.5c-1.11-.111.78-.111.5 0zm400.178-8.671h.945c-.222 0-.5.056-.778.056-.056 0-.111-.056-.167-.056zm30.236 1h.5c-.111 0-.111.056-.167.056-.111-.056-.222-.056-.333-.056zm5.947-18.008h0zm2.668 7.17h-.167-.056.223zm21.176 2.668c.167 0 .333 0 .5.056h-.333c-.056-.056-.111-.056-.167-.056zm27.29-.222h.334-.278-.056zm26.679-9.838c.222 0 .5-.056.722-.056.056 0 0 0 .056.056h-.778zm3.224-7.67h0zm667.3-1.223h-.278.278zm-160.183 6.169h.5c-.111 0-.222 0-.333.056-.056-.056-.056-.056-.167-.056zm-216.264-3.223c19.508.055 39.907-1.278 59.638 2.223-25.345-.056-50.634.111-75.979 0-1.445-.056-2.946 0-4.391-.056 1.668-.444 3.224-.778 4.891-1.222 3.78-1.056 10.505-1.001 15.841-.945zm-72.477-.056c-3.78.89-7.559.834-11.506.556-2.501-.167-5.28-.445-7.892-.389-5.28.056-10.56-.167-15.785-1.056-1.445-.222-2.834-.445-4.28-.611 1.056-.167 2.113-.278 3.169-.389 14.784-.056 29.457-.223 44.353-.056-2.612.667-5.28 1.334-8.059 1.945zm-47.466-1.111c-.889.278-1.501.389-2.446.778-.667.278-1.222.5-1.834.778-1 0-2.056.056-3.057.056-2.557.055-5.502.222-5.169.5.334.333 3.446.278 6.059.278-.945.389-1.946.667-2.946.889-3.113 0-6.225.056-9.338.056-2.834-.445-5.669-1.223-8.226-2.113a186.72 186.72 0 0 1 11.172 1.668c.445-1.723 1.223-2.724 2.223-3.335 3.946-.056 7.837-.056 11.728-.111.611.222 1.223.389 1.834.556zm-55.525-3.835c-19.398.111-38.74 1.111-58.082 1.889h-.834c23.233-2.556 46.521-3.668 69.865-4.446-3.612 1.167-7.225 1.945-10.949 2.557zm-123.945 239.997c14.173-4.169 26.957-4.058 41.352-.612 3.39.834 7.003 1.668 10.505 2.057-18.898.055-37.851.055-56.748.111 1.667-.334 3.168-1.056 4.891-1.556zm3177.262-47.189c-.05.056-.05.056-.11.111-.28 0-.55 0-.78-.055.39 0 .56 0 .89-.056zm-3.16 3.78c-.17 0-.23 0-.39.055-.06 0-.06 0-.06-.055h.45zm-8.29.5h-.22-.11.33zm-5.67 13.562c-.05 0-.05 0 0 0zm-16.28-13.84h-1.17H2618.72zm-18.01 2.279c-.33 0-.67 0-1-.056h.95c0 .056.05.056.05.056zm-46.85 17.952h-.23.23zm-34.74-7.67c-.06 0-.17.056-.22.056-.17 0-.39 0-.5-.056h.72zm-12.73 1.001c-.11 0-.22.055-.39.055-.39 0-.78-.055-1.17-.055h1.56zm-92.65 3.001c-.17 0-.22.056-.34.056-.22 0-.5-.056-.72-.056.34-.056.72-.056 1.06 0zm-2.45-3.001c-.16.055-.28.111-.55.111-.45-.056-.78-.111-.78-.111h1.33zm-10.72 1.945c-1.28-.056-2.56-.167-3.84-.222 2 0 3.84.055 3.84.222zm-20.18-1.667h-.28.28zm-32.46 9.559H2347.71h.22zm-32.74-18.23h-.11.11zm-65.14 3.224h-1.39c-.05 0-.11 0-.16-.056.55 0 .94.056 1.55.056zm183.09-9.838c-.06 0-.06.056-.12.056-.5 0-.94-.056-1.33-.056h1.45zm-98.55 19.564v.167h-.5c.17-.111.33-.111.5-.167zm39.02 5.336h-.45c-.39 0-.77 0-1.11-.056.5.056 1 .056 1.56.056zm101.27-4.558h-1.39c.44-.055.78-.055 1.16-.055.06 0 .12 0 .23.055zm362.83-70.309c.05 0 .16-.056.22-.056h.33c-.05 0-.33.056-.55.056zm74.31-10.949c-5.17-.112-12.73-.834-14.73-.278-2.28.611 7 .833 13.28 1l-6.5.167c-3.72.055-7.95-.167-11.67-.111-.67 0-1.28.166-1.84.222-.27 0-.61-.056-.89-.056.78-.222 1.23-.667 2.28-.889 2.17-.5 8.79-.056 12.01-1.834 1.83.111 4.39.167 6.5.222 14.12.334 28.35.556 42.35.89-10.28.389-20.56.833-30.9 1.111-2.61-.278-6.33-.333-9.89-.444zm48.08-3.169c-1.34.389-3.9.167-6.23 0-1.83-.111-5.17-.166-5.45.056-.22.167 2.56.389 4 .556l-3 .5c-11.61-.445-24.23-.445-36.46-.667-2.61-.056-5.61-.111-7.95 0 .34-.389.5-.834.62-1.334 1.16 0 2.44-.055 3.89-.111 9.67-.334 17.45-.222 26.29-.056 5.72.445 13.28.056 19.39.334 2.78.222 6.12.389 4.9.722zm-572.98 283.239c.11 0 .72.111.77.111.06 0 .11 0 0 0-.05 0-.66-.111-.77-.111-.12-.055-.12-.055 0 0zm290.51 38.629c19.12-1.056 38.13-3.002 57.25-4.78-22.17 3.78-44.41 5.947-66.75 7.781 3.11-1.334 6.28-2.223 9.5-3.001zm434.7-236.329h-2c0-.056.06-.056.06-.056.05-.333 0-.611-.12-.833 1.34 0 2.62-.056 3.89-.056-.66.222-1.27.556-1.83.945zm16.95 6.781c1.95-.5-3.05-.612-6.72-.778 0-.223.05-.501.05-.667h.39c5.62.222 9.28.166 12.01 0-1.84.889-3.73 1.278-5.73 1.445zm-13.95-8.449c-1.72.056-3.44.056-5.28.112l-.05-.056 5.83-.278c-.16 0-.33.111-.5.222zm-3.5-1.556h-.22.39-.17zm42.02 5.503c1.33-.278 4.67-.445 6.67-.556.83-.056 1.5-.111 2.17-.167 5.44 0 10.89.056 16.34.222-8.4.278-16.79.39-25.18.501zm6.95-4.058c1.94.056 4.94.112 3.83.389-.33.112-.61.167-.78.223-5.17.111-10.33.556-15.28 1.556-5.39-.111-10.84-.167-16.29-.222a86.182 86.182 0 0 0 7.29-1.668c-1.89-.222-3.84-.222-5.73-.444 8.73.389 17.67.444 26.96.166zm-16.23-5.669c-.5 0-.95-.055-1.34-.055.5 0 .95.055 1.34.055zm-29.52-17.23c-.61-.111-1.16-.167-1.77-.278.83 0 1.72 0 2.61-.055.61.222 1.33.333 1.94.444-.83-.055-1.72-.111-2.78-.111zm-51.8-44.353h-.11c-.05 0-.11-.056-.11-.056.06 0 .11.056.22.056zm70.7-7.726c-5.39-.167-10.73-.333-16.06-.5-1.06-.167-2.17-.278-3.22-.389 4-.334 10.67-.278 13.61-.723.84.056 1.72.056 2.56.111.94.667 2 1.168 3.11 1.501zm-40.02-226.658l-.16.056s-.11-.111-.06-.111c0 0 .22 0 .22.055zm-86.76 200.313c-.22.056-.39.222-.61.222-.72 0-1.44-.111-2.17-.222h2.78zm-10.89 0c-.34.167-.67.389-.95.667h-.11c-.28-.056-1.33.111-1.67.055-.33-.055-.16-.5-.33-.666 1 0 2.06 0 3.06-.056zm-47.75-224.768c1.89.389 3.67.889 5.62 1.056 5.11.445 10.56.834 15.67.834 3 0 5.17-.5 8.17-1.167 2.56 8.281-8.72 6.892-15.84 7.114-6.5.222-19.28-.667-26.12 3.946 3.5-4.891 11.28-5.058 12.5-11.783zm24.68 238.774c7.39-.333 19.62 1.668 21.57-8.17 1.11-.167 2.78-.445 3.89-.611 4.67-.556 12.06-.667 15.95.222 6.95 1.556 8.84 1.389 14.4-2.112-1.78-1.279-3.4-2.39-5.29-3.391h10.01c-.28 1.056-.11 1.946.11 3.002 4.39.5 8.84 1 13.23 1.445.94-1.612 1.5-2.89.22-4.502 10.84 0 21.73.055 32.57.111 4.06 1.334 8.01 1.612 12.17 1.501-.27-.501-.55-.945-.77-1.446h11.78c.33.779.61 1.612.89 2.446 5.33-.834 10.56-1.556 15.95-1.834.94-.056 1.89.556 3 .556 8.95.222 25.51-5.225 27.79 7.614-8.89-2.001-16.45-2.112-25.4.445-3 .889-6.34.889-8.73 2.946 0 .166-.72.833-3.5 2.501-5.33 3.223-21.34 5.891-31.34 2.39 8.28 3.779 16.61 4.668 26.67 4.724 1.5 0 6.45-6.336 8.84-6.614.39-.111-1.05-.556.84.111 2.44.889 6.22 2.279 8.5 5.391.94 1.334 2 2.335 3.06 3.224-1.45-.055-2.89-.111-4.28-.222-15.01-.723-30.46-1.334-45.69-2.001-4.45-.334-9.34-.611-14.4-.889.95-.334 1.62-.945 1.67-1.946 0-.333-6.61-1.612-7.95-1.612-16.84-.166-33.62.167-50.41.667a4416.84 4416.84 0 0 0-89.65-3.779l54.3-.167zm-96.6-230.048a40.47 40.47 0 0 0 6.06-2.001c13.4.723 26.07-.222 37.24 8.782.06.056.11.056.17.111-4.34-.167-8.62.111-12.95.111-33.52 0-67.03-.166-100.55-.166 23.35-1.779 46.69-4.447 70.03-6.837zm-599.21-10.06c-7.78-2.501-15.17-2.112-23.18-1.223 8.12-1.334 15.34-1.945 23.18 1.223zm-661.24 21.177c.05 0 .39.111.44.111.06 0 .06 0 0 0h-.05c-.12 0-.84.055-.89 0-.06 0 .44-.111.5-.111zm-43.41-2.168c.05 0 .28.111.33.111h-.5l.17-.111zm.28 3.446c.05-.056.22 0 0 0 .11-.056.05 0 0 0-.12.055-.39.333-.56.333-.22 0-.56-.278-.72-.333.28-.056 1.05 0 1.28 0zm-615.615-6.336c1.723.111 3.391.222 5.114.278a80.616 80.616 0 0 0-5.281 1c.223-.444.278-.778.167-1.278zm-94.598 15.062c-.111.056-.334.389-.556.389-.222 0-.556-.333-.723-.389h1.279zm-58.638 15.007h-1.222 1.222zm-132.115-33.793c.89 0 3.224 0 3.78.056h.166-.055c-.056 0-.111.055-.223.055-.611.222-3.001.889-4.001 1.056a5.32 5.32 0 0 1 .333-1.167zm-716.49 26.012h.223c0 .055-.111.111-.111.111-.056 0-.111-.111-.111-.111-.056 0-.056 0 0 0zm-72.754 70.143c-3.835 0-7.67.055-11.506.111 0 0-.111-.056-.055-.056 3.835-.055 7.67-.111 11.561-.055zm-175.024 4.502c-7.17.055-14.228.166-21.231.333 7.058-.333 14.117-.5 21.231-.333zm-28.624-13.951l11.895-.167a1369.866 1369.866 0 0 1-16.119 3.279c1.39-1.111 2.779-2.112 4.224-3.112zm-81.703-1.39c11.783.501 23.288-1.945 35.127-1.111 2.501.166 5.224.945 7.837 1.111-15.618.445-29.847.945-45.799 1.445-20.787.612-43.019.612-64.14.334-.278-.167-.5-.389-.722-.611l67.697-1.168zm-263.508 17.397c32.07 2.001 64.363 1.223 96.377-.111 22.566-.945 44.631-1.167 67.141-.556-.111.056-.166.111-.222.167l-24.178.333c-46.521.612-92.486 1.557-138.395 2.502-4.447.055-9.115-.001-13.34.111-3.057.055-6.113.166-9.115.278a225.48 225.48 0 0 0 21.732-2.724zm-110.494 11.894c-.167 0-.333 0-.445.056h-.333c.278-.056.556-.056.778-.056zm-9.393-.944h1.278a8.041 8.041 0 0 1-1.334.111c-.055-.056 0-.056.056-.111zm-82.148-11.117c-.111-.222-.389-.055-.445-.166-.056-.112.222.055.222 0 0 0 .056-.167.056-.111 2.612 2.223-.556 3.39-2.501 4.279 1.167 1.834 1.501 3.279 1.389 4.502-1.556.056-3.112.111-4.613.167-2.056.056-4.113.167-6.114.222 3.391-2.056 6.67-4.168 10.172-5.836 1.723-.778 2.612-1.167 1.834-3.057zm-122.055 8.893c1.278-5.169 5.724-.111 9.226-.778 5.28-.111 9.894-.278 14.618-3.168-.556 2.724-2.112 2.446-4.947 3.168-3.835.945-9.615 2.223-14.006 3.113-1.612.333-3.502.722-5.113 1.167.389-1.056-.001-2.612.222-3.502zm-79.371 45.576c-.11 0-.22-.055-.33-.055.16 0 .39.055.5.055h-.17zm1.28 4.669l.11.056c-.39 0-.78-.056-1.17-.056h1.06zm4.28-6.169h.11-.17.06zm-4-23.233h-1.89c.72.056 1.22 0 1.89 0zm7.56 94.265c-.28 0-.56-.056-.78-.056h.89c-.06 0-.11.056-.11.056zm9.33 6.336c-.05 0-.11 0-.16-.056.33 0 .61.056.94.056h-.78zm3.34-12.784c.05 0 .05 0 0 0h0zm11.06 6.614h-.33.33zm37.461 16.786h.389-.389zm48.856 68.475c-.39.222-.334.5-.834.667-.5.167-1.223 0-1.723.056 2.056-.945 4.113-1.946 6.058-3.113.334.111.723.222 1.056.389-1.501.5-3.057 1.223-4.557 2.001zm376.336 79.981c.945-.112 2.056-.39 2.946-.501 9.226-1.278 18.23-1.222 27.456-.555-10.115.277-20.231.667-30.402 1.056zm87.984-10.95c-.056 0 .055 0 0 0h-1.279c-10.282.167-20.62.334-30.902.445-.445 0-.834-.445-1.334-.445-1.112.056-2.112.5-3.224.5-13.395.278-26.734.389-40.129.612a156.275 156.275 0 0 0-28.846-.334c-8.337-1-16.675-1.556-25.067-1.834.278-.722.444-1 1-1.334.111 0-2.501.111 1.39-.055 5.28-.167 12.894-.112 19.898-.112 56.525-.055 113.773-.222 170.521-.277-20.621 2.112-41.352 2.278-62.028 2.834zm126.279 113.996c-3.39.167-6.781.278-10.171.445-.056-.056 32.57-1.779 10.171-.445zm171.577-153.736h-8.615a62.492 62.492 0 0 1 10.561-1.723c-.556.722-1.223 1.223-1.946 1.723zm-16.229 0c-68.976.056-137.896 0-206.871.111 11.783-5.725 22.01-4.113 34.904-3.946 16.341.222 34.016-.667 50.579-2.723h10.282 16.23c3.112 0 6.947.055 10.338.055 6.781 0 13.95-.056 20.787-.056a10.688 10.688 0 0 0-1.501 2.557c10.672-.722 20.398-.778 30.569 3.224 18.398-1.279 36.628-3.78 55.136-3.446-7.003.778-13.728 1.778-20.453 4.224zm26.623-5.836c-2.057-.222-4.057-.445-6.114-.667h6.392c-.111.167-.167.389-.278.667zm3.779 5.836h-1.334c.223-.056.945-.111 1.112-.111.167 0 .445.111.222.111zm-61.639 304.026c22.455-.39 44.965-.723 67.42-1.112 11.894.778 23.066-2.167 35.127-.945 10.282 1.056 21.176 2.557 31.681 2.501-.167.39-.389.667-.556 1-22.177 2.169-44.131 3.28-66.475 3.558-11.005.111-22.288.056-33.348.167-11.783-.445-23.01.556-33.849-5.17zm271.011 10.95c-33.626.388-66.752-.279-99.655 7.892-3.891.611-7.504.833-11.45.5-2.557-.222-5.28-.445-7.837-.445-5.28 0-10.505-.222-15.73-1.056-2.612-.444-5.279-.834-7.836-.834-2.557.056-4.502.5-6.892 1.335-3.891 1.333-6.559 3.168-10.95 3-10.282-.5-17.619-5.946-28.679-6.947-16.952-1.5-36.405-.222-53.913.278 16.507-3.168 31.959-4.835 49.022-5.336 20.398-.61 41.907-1.278 62.417-3.612 1.778.389 3.557.277 5.224.889 1.89.667 3.446 1.5 5.503 1.167 5.169 1.223 10.227 2.001 15.618 2.335.945.055 2.168-.167 3.224.11 1 .223 1.945 1.057 2.89 1.446 1.278-.5 2.612-1 3.946-1.445 12.728.055 25.345.277 38.073.333 12.728.056 25.456-.556 38.184-1.167 6.836.445 13.617.667 20.453.556.778.222 2.001.611 3.446 1.056-1.667-.111-3.39-.111-5.058-.056zm35.35-.39c-6.17 0-12.45.111-18.731.167.222-.39.445-.723.445-1.278 0 0 11.783.389 12.728-.39 3.168.667 5.335.945 8.17 1.223-.89 0-1.834.278-2.612.278zm418.41 0c3.224-2.445 6.948-3.78 10.394-5.725 8.949 3.89 16.23 2.946 25.345-.055 3.89 4.446 9.949 3.835 14.785 6.558-16.897.667-33.683-1-50.524-.778zm571.372 6.17c.11-.223 1.16-.334 1.5-.112-.45 0-1.11-.055-1.5.167-.17.111-.11.167 0-.056zm45.63-23.845c3.56.5 6.95.834 10.34.779-3.39.055-6.78-.223-10.34-.779zm10.28-4.446c-.39.611-2.83.945-3.72.445 1.28-.223 2.5-.612 3.83-.667-.11-.056.34-.39-.11.222zm244.89 30.791c1.72.278 3.33.667 4.95 1.279-1.62-.612-3.28-.945-4.95-1.279zm6.61-13.172c-7.06-.39-14.11-.556-21.17-.278 8.06-1.112 15.78-1.5 23.84-.445-.89.278-1.78.5-2.67.723zm4.84 6.17c5.61-.556 11.12-1.279 16.73-1.835 1.55-.166 3.39-.167 5-.445-7.28 1.557-14.34 2.557-21.73 2.28zm32.01-14.73c.28-1.556.45-2.945.06-4.557.44 1.612.22 3.001-.06 4.557zm1.45-4.446c.22 0 .55.056 1.11.056 2.89.166 11.06.444 14.78 2-5.16.278-12.78 4.28-15.89-2.056zm135.73 12.005c.61-.5 1.22-.778 1.94-1.056.11.5.22.89.5 1.334-.83-.11-1.61-.222-2.44-.278zm439.36-59.804c-.05 0-.11-.112-.17-.112 6.17-.889 12.29-1.222 18.51-1.278-6.11.445-12.23.89-18.34 1.39zm418.52-20.232c3.78-.166 7.56-.444 11.4-.667.05 0 .05.056.11.056-3.89.278-7.67.5-11.51.611zm102.72-13.84c-20.07.89-41.58 3.224-61.98.39-5-.723-10.28.611-14.78 1.723-18.79 4.557-40.02 5.391-58.14 8.003-13.28 1.89-21.79-4.28-34.07-3.724-12.28.612-23.62 4.725-35.96 3.28-18.23-2.112-35.68-.334-53.3 4.002-5.34 1.333-8.95 2.112-14.12 3-5.28-.221-10.84.223-16.12.446-3.05.11-7.17-1.223-9.84-1.501-25.56-2.446-48.68 4.613-74.14 5.669-.5 0-2.89 2.001-3.28 2.835 0 .055-.05.222-.17.222-1.83.167-3.55.333-5.44.445-9.73-2.335-20.57-6.559-30.18-6.448-7.51.111-4.39 1.334-.78 4.058-9.84.722-17.79 3.668-28.07 1.834-16.67-3.002-34.29-3.446-51.41-2.223 5.78-.779 11.5-1.334 17.34-1.279 11.56.111 23.01-.833 34.46-2.556 2.28.222 4.56.389 6.89.5 1.22.055 2.5 0 3.78 0 .45.667.89 1.334 1.39 1.945 2.5-1 1.39-1.556-.61-2l4.67-.167c1.5-.056 3-.112 4.5-.279 1.67-.11 3.89-.222 5.45-.333.33 0 .44 0 .5-.056-.23 0-.39 0 .78-.055 3.05-.167 9.56-.39 13.72-.278 2.34.056 5.67 0 8.23-.056 1.78-.055 3.78-.166 5.61-.278 3.78-.222 7.67-.389 11.51-.61 11.84-.668 23.9-1.502 35.68-2.224 74.81-4.724 149.51-9.95 224.32-14.562 5.06-.334 10.07-.612 15.12-1 9.78-.723 19.57-1.335 29.29-2.002 6.62-.444 13.12-.889 19.73-1.334 1.84-.11 3.67-.278 5.51-.389 3.61-.222 7.22-.5 10.84-.778 6.28-.444 12.56-.834 18.78-1.278 2.73-.167 5.5-.334 8.23-.556 1.89-.111 3.72-.222 5.61-.333 5.89-.39 11.62-.667 17.56-1.112 13.4-.945 26.79-1.834 40.24-2.557-15 1.779-27.28 4.113-42.24 9.838-3.39 1.445-9.83 1.556-15.11 1.779zm102.6 13.673c-3.89.223-7.73.5-11.62.723 4.73-1.39 9.51-2.723 14.29-4.002-.89 1.167-1.78 2.223-2.67 3.28zm-46.97-12.227c5.5-1.223 10.4-3.113 15.84-4.78 3.5-1.112 7.17-1.167 11.06-1.112 2.45.056 5.34.167 7.95.056 5.28-.278 10.73-.278 16.06.278 1.45.166 3.01.333 4.51.389-18.4 4.335-36.63 5.058-55.42 5.169zm72.65-4.891c-2.78.333-6.56-.334-9.45-1.056.78-.334 1.16-.445 2-.945 3.33-1.89 5.17-3.39 9.45-3.558 4.28-.166 9.95.723 14.39 1.946-3.83-.223-7.83-.612-11.73-1.112.67 3.724-1.27 4.336-4.66 4.725zm55.19 14.617c-.23 0-.39 0 0 0h-1.28c-6.78.056-23.35 3.002-32.74 2.78-2-.056-6-.723-8.17-.779 15.06-1.167 28.79-2.39 44.24-3.613 20.18-1.611 42.08-2.667 62.64-3.39.39.167.67.334 1 .556-21.84 1.5-43.91 3.001-65.69 4.446zm88.65-5.28c-.61.556-1.11 1.223-1.34 2.223-.27-.11.06-.055-.22-.055h-.33c-1.22-.056-4.17-.167-5.67 0 0 0 .61.166-.61-.111-1.22-.334-6.67-1.501-7.78-1.612-.23 0-.28-.056-.39-.056h-.06c-.11 0-.16 0 0 0h.06c-.06-.055.11-.167.05-.222 5.51-.111 10.9-.167 16.29-.167zm-8.67-33.904c1 0 2.11-.39 3.11-.278 3.11.222 5.84 1.056 8.67 2.446-3.89-1.501-7.67-2.001-11.78-2.168zm102.54-21.065c-.05-.056-.22-.222-.16-.222.05-.056.39.111.33.222 0 .111-.11.055-.17 0zm76.37-12.228c-.05 0-.72.167-.72.111 0 0 .72-.166.83-.166.11-.056-.05-.001-.11.055zm284.13 19.286c3.39-1.167 8.45-2.723 12.28-3.779 1.45-.389 3.06-.889 4.45-1.445.06 1.112 1.17 2.501 1.39 3.446 1.22 5.225-5.89.5-8.62 1.223-4.72.278-9.06.333-12.78 3.89-.67-2.445.78-2.501 3.28-3.335zm-81.43-2.389c-6 3.112-9.83 8.67-15.39 12.616-1.28.89-1.61 2.001-.17 3.057.17.112.39.112.5.167.11.056-.28-.055-.28 0v.167c-2.78-1.556-1.77-2.835.39-4.391-11.56-10.171 8.06-10.449 14.95-11.616zm-30.9 24.344c-.05.055-.05.055-.11.111-.33.334.17-.278.06-.222.05.055.05.055.05.11zm-20.23-51.857c-.06 0-.33 0-.44-.055.11-.056.33-.056.44-.056.11 0 .11.111 0 .111zm31.07-28.513l-.11-.111s.28 0 .28.056c.05.055-.17.055-.17.055zm172.74 26.346c2.45-.056 4.9-.167 7.34-.223-2.44.389-4.84.334-7.34.223zm177.58-1.946c-4.16.167-9.56-.055-13.95-.167 5.28 0 10.79-.055 16.07 0 .72 0 1-.055 1.72-.111-1.67.223-1.78.223-3.84.278zm4.28-.5c0 .056-.05-.111-.11-.167-.44-.5.39-.278.11.167zm165.86-30.18c3.11-.056 6.22-.112 9.39-.112 7.11-.111 14.23-.055 21.34 0-10.28 0-20.51.056-30.73.112z"/><path d="M1268.61 42.268c9.45 1.056 20.51 2.446 27.51-4.057-4.22 3.39-18.01 4.502-27.51 4.057zM1296.29 38.155c.28-.223.44-.39.67-.611-.28.277-.56.444-.84.722.06-.056.11-.111.17-.111zM1296.96 37.544c.44-.445.78-.778 1-1h-.06c-.28.333-.61.667-.94 1zM1297.62 36.59c-.05-.164-.05-.33-.11-.44-.22.166-.27.386.11.44zM1268.61 42.267c-2.11-.222-4.17-.444-6.11-.556 1.61.278 3.72.445 6.11.556zM1486.82 36.873c-.22.11-.5.11-.72.166-3.23 1.279 1.05.334.72-.166z"/></g></svg>