<svg width="156" height="14" viewBox="0 0 156 14" fill="none" xmlns="http://www.w3.org/2000/svg" stroke-width="3">
  <path
    d="M2 3C23.2892 3 44.5405 2 65.8333 2C90.5725 2 115.295 2.96535 140.028 3.44444C143.393 3.50964 146.76 3.44791 150.125 3.51389C151.322 3.53735 152.713 3.49426 153.889 3.80556C156.029 4.37208 149.464 3.99231 147.25 4C137.584 4.03356 128.048 4.57584 118.417 5.25C105.622 6.14564 92.7665 6.53268 79.9444 6.75C61.6083 7.06078 43.0909 7.94435 24.9444 10.7361C23.7181 10.9248 22.4986 11.1562 21.3056 11.5C20.4882 11.7355 20.6995 11.75 21.5 11.75C28.9429 11.75 36.3709 10.8672 43.7917 10.375C56.3623 9.54124 68.9242 8.61159 81.5278 8.51389C90.0427 8.44788 98.554 8.75 107.069 8.75C107.279 8.75 108.547 8.75803 108.931 8.73611C109.488 8.70425 109.077 8.55745 108.833 8.5C106.181 7.87367 103.169 8.0117 100.472 8.04167C91.6948 8.13919 82.6626 9.36398 74 10.75"
    stroke="currentColor" stroke-width="inherit" stroke-linecap="round" />
</svg>