<?xml version="1.0" encoding="UTF-8"?>
<svg id="Layer_1" data-name="Layer 1" xmlns="http://www.w3.org/2000/svg" viewBox="0 0 468.51 200">
  <path d="M144.2,91.8c-2.86-1.92-10.36-2.74-15.82-1.27-.29-5.43-3.1-10.01-8.22-14.01l-1.9-1.27-1.26,1.91c-2.49,3.77-3.53,8.8-3.16,13.37.29,2.82,1.27,5.98,3.16,8.28-7.1,4.12-13.65,3.18-42.64,3.18H29.6c-.13,6.55.92,19.14,8.93,29.39.89,1.13,1.85,2.23,2.91,3.28,6.51,6.52,16.35,11.3,31.05,11.31,22.44.02,41.66-12.11,53.36-41.44,3.85.06,14.01.69,18.98-8.92.12-.16,1.26-2.55,1.26-2.55l-1.9-1.27h0ZM58.81,85.82h-12.59v12.59h12.59v-12.59ZM75.07,85.82h-12.59v12.59h12.59v-12.59ZM91.33,85.82h-12.59v12.59h12.59v-12.59ZM107.59,85.82h-12.59v12.59h12.59v-12.59ZM42.55,85.82h-12.59v12.59h12.59s0-12.59,0-12.59ZM58.81,69.92h-12.59v12.59h12.59v-12.59ZM75.07,69.92h-12.59v12.59h12.59v-12.59ZM91.33,69.92h-12.59v12.59h12.59v-12.59ZM91.33,54.02h-12.59v12.59h12.59v-12.59Z" style="fill: #fff; stroke-width: 0px;"/>
  <g>
    <path d="M433.14,126.66c0,3.28-2.58,5.86-5.93,5.86s-5.96-2.58-5.96-5.86,2.65-5.79,5.96-5.79,5.93,2.58,5.93,5.79ZM422.74,126.66c0,2.58,1.91,4.62,4.52,4.62s4.41-2.05,4.41-4.59-1.87-4.66-4.44-4.66-4.48,2.08-4.48,4.62h0ZM426.3,129.7h-1.34v-5.79c.53-.11,1.27-.18,2.22-.18,1.09,0,1.59.18,2.01.42.32.25.56.71.56,1.27,0,.64-.49,1.13-1.2,1.34v.07c.56.21.88.63,1.06,1.41.17.88.28,1.24.42,1.45h-1.45c-.18-.21-.28-.74-.46-1.41-.11-.63-.46-.92-1.2-.92h-.63v2.33h0ZM426.34,126.42h.63c.74,0,1.34-.25,1.34-.85,0-.53-.39-.89-1.24-.89-.35,0-.6.04-.74.07v1.66Z" style="fill: #fff; stroke-width: 0px;"/>
    <path d="M205.81,68.1c-.83-.81-1.83-1.22-3.02-1.22s-2.22.41-3.02,1.22c-.8.81-1.19,1.85-1.19,3.09v20.68c-4.11-3.39-8.84-5.11-14.23-5.11-6.26,0-11.62,2.26-16.06,6.8-4.44,4.53-6.64,10-6.64,16.42s2.22,11.88,6.64,16.42c4.44,4.53,9.78,6.8,16.06,6.8s11.56-2.26,16.06-6.8c4.44-4.48,6.64-9.95,6.64-16.42v-38.8c0-1.24-.41-2.28-1.24-3.09h0ZM197.46,115.59v.03c-.74,1.76-1.75,3.3-3.03,4.62-1.28,1.33-2.79,2.37-4.51,3.15-1.74.78-3.58,1.16-5.55,1.16s-3.86-.38-5.6-1.16-3.23-1.82-4.5-3.13c-1.27-1.31-2.28-2.86-3.02-4.62-.74-1.77-1.12-3.65-1.12-5.64s.38-3.87,1.12-5.64c.74-1.77,1.75-3.3,3.02-4.62,1.27-1.31,2.78-2.35,4.5-3.13,1.74-.78,3.59-1.16,5.6-1.16s3.82.38,5.55,1.16,3.23,1.82,4.51,3.15c1.28,1.33,2.29,2.87,3.03,4.62.74,1.76,1.12,3.62,1.12,5.61s-.38,3.87-1.12,5.61Z" style="fill: #fff; stroke-width: 0px;"/>
    <path d="M393.36,101.08c-1.1-2.75-2.78-5.24-4.98-7.48l-.03-.02c-4.48-4.53-9.84-6.8-16.06-6.8s-11.62,2.26-16.06,6.8c-4.44,4.53-6.64,10-6.64,16.42s2.22,11.88,6.64,16.42c4.44,4.53,9.78,6.8,16.06,6.8,5.7,0,10.64-1.88,14.84-5.64.81-.86,1.22-1.9,1.22-3.1s-.39-2.28-1.19-3.09c-.8-.81-1.81-1.22-3.02-1.22-1.06.03-1.99.38-2.79,1.09-1.27,1.1-2.64,1.94-4.14,2.49-1.5.55-3.13.83-4.9.83-1.57,0-3.08-.24-4.51-.75-1.44-.5-2.78-1.19-3.97-2.09-1.21-.9-2.25-1.97-3.14-3.24-.89-1.25-1.57-2.65-2.02-4.17h32.1c1.19,0,2.19-.41,3.02-1.22.83-.81,1.24-1.85,1.24-3.09,0-3.21-.56-6.19-1.66-8.93h0ZM358.63,105.7c.44-1.51,1.1-2.91,1.99-4.17.89-1.25,1.95-2.34,3.15-3.24,1.22-.9,2.55-1.59,4.01-2.09,1.46-.5,2.96-.75,4.5-.75s3.03.24,4.48.75c1.45.5,2.78,1.19,3.97,2.09,1.21.9,2.26,1.97,3.15,3.24.9,1.25,1.59,2.65,2.05,4.17h-27.32,0Z" style="fill: #fff; stroke-width: 0px;"/>
    <path d="M432.81,89.69c-.76-.75-1.71-1.33-2.85-1.76-1.15-.43-2.4-.72-3.77-.89-1.36-.17-2.64-.24-3.83-.24-2.7,0-5.24.44-7.62,1.33-2.39.89-4.59,2.16-6.61,3.81v-.82c0-1.19-.41-2.2-1.24-3.04-.83-.84-1.81-1.27-2.97-1.27s-2.19.43-3.02,1.27c-.83.84-1.24,1.87-1.24,3.04v37.81c0,1.19.41,2.2,1.24,3.04.83.84,1.82,1.27,3.02,1.27s2.16-.43,2.97-1.27c.83-.84,1.24-1.87,1.24-3.04v-18.91c0-2.02.38-3.91,1.12-5.69.74-1.77,1.75-3.3,3.03-4.62,1.29-1.31,2.79-2.35,4.51-3.1,1.74-.76,3.58-1.15,5.56-1.15s3.85.35,5.55,1.04c.68.31,1.27.46,1.78.46.59,0,1.15-.11,1.66-.34s.97-.54,1.34-.93c.38-.4.68-.86.9-1.39.23-.52.35-1.09.35-1.7,0-1.19-.38-2.16-1.13-2.91h.01,0Z" style="fill: #fff; stroke-width: 0px;"/>
    <path d="M255.58,101.1c-1.1-2.74-2.75-5.24-4.97-7.51-4.48-4.53-9.84-6.8-16.06-6.8s-11.62,2.26-16.06,6.8c-4.44,4.53-6.64,10-6.64,16.42s2.22,11.88,6.64,16.42c4.44,4.53,9.78,6.8,16.06,6.8s11.56-2.26,16.06-6.8c4.44-4.48,6.64-9.95,6.64-16.42-.03-3.21-.59-6.18-1.68-8.91h0ZM247.67,115.59v.03c-.74,1.76-1.75,3.3-3.03,4.62-1.28,1.33-2.79,2.37-4.51,3.15s-3.58,1.16-5.55,1.16-3.86-.38-5.6-1.16c-1.74-.78-3.23-1.82-4.5-3.13-1.27-1.31-2.28-2.86-3.02-4.62-.74-1.77-1.12-3.65-1.12-5.64s.38-3.87,1.12-5.64c.74-1.77,1.75-3.3,3.02-4.62,1.27-1.31,2.78-2.35,4.5-3.13,1.74-.78,3.59-1.16,5.6-1.16s3.82.38,5.55,1.16,3.23,1.82,4.51,3.15,2.29,2.87,3.03,4.62c.74,1.76,1.12,3.62,1.12,5.61s-.38,3.87-1.12,5.61Z" style="fill: #fff; stroke-width: 0px;"/>
    <path d="M346.38,91.1c0-.58-.12-1.13-.35-1.65-.23-.52-.53-.99-.91-1.39-.38-.4-.83-.72-1.34-.93-.51-.21-1.07-.34-1.66-.34-.85,0-1.6.21-2.26.66l-24.24,16.13v-32.35c0-1.22-.41-2.25-1.24-3.09-.83-.84-1.81-1.27-2.97-1.27s-2.19.43-3.02,1.27c-.83.84-1.24,1.87-1.24,3.09v57.64c0,1.19.41,2.22,1.24,3.07s1.83,1.28,3.02,1.28,2.16-.43,2.97-1.28c.83-.86,1.24-1.88,1.24-3.07v-14.97l4.95-3.32,18.73,21.51c.76.75,1.71,1.12,2.84,1.12.59,0,1.15-.11,1.66-.34.51-.21.97-.54,1.34-.93.38-.4.68-.86.91-1.39.23-.52.35-1.09.35-1.65,0-1.13-.39-2.14-1.18-3.03l-17.43-20.07,16.98-11.28c1.09-.75,1.61-1.9,1.61-3.44v.03h0Z" style="fill: #fff; stroke-width: 0px;"/>
    <path d="M274.62,99.71c1.3-1.31,2.81-2.35,4.54-3.1,1.74-.76,3.58-1.15,5.55-1.15,1.78,0,3.43.31,4.95.92,1.51.61,2.96,1.51,4.33,2.69.81.66,1.74.99,2.76.99,1.22,0,2.22-.41,3.02-1.24.8-.83,1.19-1.87,1.19-3.1s-.48-2.39-1.46-3.27c-4.17-3.76-9.1-5.64-14.79-5.64-6.26,0-11.62,2.26-16.06,6.8-4.44,4.53-6.64,10-6.64,16.42s2.22,11.88,6.64,16.42c4.44,4.53,9.78,6.8,16.06,6.8,5.68,0,10.61-1.88,14.79-5.64.89-.92,1.34-1.97,1.34-3.19s-.39-2.28-1.19-3.09c-.8-.81-1.81-1.22-3.02-1.22-1.03.03-1.92.34-2.67.92-1.36,1.19-2.78,2.08-4.3,2.67-1.51.6-3.15.89-4.95.89-1.98,0-3.82-.38-5.55-1.15s-3.24-1.8-4.54-3.1c-1.3-1.3-2.32-2.86-3.06-4.62-.74-1.77-1.12-3.67-1.12-5.69s.38-3.91,1.12-5.69c.74-1.77,1.77-3.3,3.06-4.62v-.02h0Z" style="fill: #fff; stroke-width: 0px;"/>
  </g>
</svg>