<?xml version="1.0" encoding="UTF-8"?>
<svg id="Layer_1" data-name="Layer 1" xmlns="http://www.w3.org/2000/svg" viewBox="0 0 520.05 200">
  <path d="M133.74,88.54c-.15-1.85-.46-4-1.06-6.3-.61-2.31-1.52-4.92-2.73-7.53-1.37-2.61-3.04-5.38-5.16-8-.91-1.08-1.82-2-2.73-3.08,1.52-6.15-1.82-11.38-1.82-11.38-5.77-.31-9.41,1.85-10.78,2.77-.15-.15-.46-.15-.76-.31-.91-.46-1.97-.77-3.04-1.08-1.06-.31-2.13-.62-3.19-.92-1.06-.31-2.13-.46-3.34-.62-.15,0-.46,0-.61-.15-2.58-8.15-9.71-11.53-9.71-11.53-8.04,5.23-9.56,12.45-9.56,12.45,0,0,0,.15-.15.46-.46.15-.91.31-1.37.46-.61.15-1.21.46-1.82.61-.61.31-1.21.46-1.82.77-1.21.46-2.43,1.08-3.64,1.85-1.21.62-2.28,1.38-3.34,2.15-.15,0-.3-.15-.3-.15-11.23-4.31-21.1.92-21.1.92-.91,11.99,4.4,19.68,5.46,21.07-.3.77-.46,1.54-.76,2.31-.76,2.77-1.52,5.54-1.82,8.46,0,.46-.15.77-.15,1.23-10.32,5.23-13.36,15.68-13.36,15.68,8.65,9.99,18.67,10.61,18.67,10.61,1.21,2.31,2.73,4.46,4.4,6.61.76.92,1.37,1.69,2.13,2.46-3.19,9.07.46,16.61.46,16.61,9.56.31,15.94-4.31,17.15-5.38.91.31,1.97.61,2.88.92,2.88.77,5.92,1.23,8.96,1.38h3.79c4.55,6.46,12.45,7.38,12.45,7.38,5.62-6,5.92-11.99,5.92-13.38v-.62c1.21-.77,2.28-1.69,3.34-2.77,2.28-2.15,4.25-4.46,5.92-6.92.15-.31.3-.46.46-.77,6.38.31,10.93-4,10.93-4-1.06-6.77-4.86-9.99-5.62-10.61h-.15s-.15,0-.15-.15c0-.46,0-.77.15-1.23v-6.3l-.15-.61c-.15-.77-.3-1.54-.46-2.15-.61-2.92-1.82-5.69-3.34-8.15-1.52-2.46-3.34-4.61-5.46-6.61-2.13-1.85-4.4-3.38-6.83-4.46-2.43-1.08-5.01-1.85-7.59-2.15-1.06.31-2.43.15-3.64.15h-1.82c-.61,0-1.21.15-1.97.31-2.58.46-4.86,1.38-6.98,2.61s-3.95,2.92-5.46,4.61c-1.52,1.85-2.58,3.84-3.49,5.84-.76,2-1.21,4.15-1.37,6.3v3.08c.15,1.08.3,2,.61,3.08.61,2,1.52,3.69,2.58,5.23s2.43,2.77,3.79,3.69c1.37.92,2.88,1.69,4.4,2.15,1.52.46,2.88.61,4.4.61h2.13c.15,0,.3,0,.46-.15.15,0,.3,0,.46-.15.3,0,.61-.15.91-.31.61-.15,1.21-.46,1.67-.77.46-.31,1.06-.61,1.52-.92.15-.15.3-.15.3-.31.46-.46.61-1.08.15-1.54-.3-.46-.91-.46-1.37-.31-.15,0-.3.15-.3.15-.46.15-.76.31-1.21.46-.46.15-.91.31-1.37.31-.3,0-.46,0-.76.15h-1.37s-.15,0,0,0h-.76c-1.06-.15-2.13-.46-3.19-.92-1.06-.46-2.13-1.23-3.04-2-.91-.77-1.67-1.85-2.28-2.92s-1.06-2.46-1.21-3.69c-.15-.61-.15-1.38-.15-2v-1.08c0-.31.15-.77.15-1.08.46-2.92,1.97-5.69,4.1-7.84.61-.46,1.21-1.08,1.82-1.54.61-.46,1.37-.77,1.97-1.23.76-.31,1.37-.62,2.13-.77.76-.15,1.52-.31,2.28-.46h1.97c.15,0,0,0,0,0h.46c.91,0,1.67.15,2.58.31,1.67.31,3.34.92,4.86,1.85,3.04,1.69,5.62,4.31,7.13,7.53.76,1.54,1.37,3.23,1.67,5.07,0,.46.15.92.15,1.38v2.61c0,.46-.15.92-.15,1.54,0,.46-.15.92-.15,1.38-.15.46-.15.92-.3,1.38-.3.92-.61,1.85-.91,2.77-.76,1.85-1.67,3.54-2.73,5.07-2.28,3.23-5.46,5.69-8.96,7.38-1.82.77-3.64,1.38-5.62,1.69-.91.15-1.97.31-2.88.31h-1.37c.15,0,0,0,0,0h-.15c-.46,0-1.06,0-1.52-.15-2.13-.15-4.1-.46-6.07-1.08-1.97-.61-3.95-1.38-5.77-2.31-3.64-2-6.98-4.61-9.41-8-1.21-1.69-2.43-3.38-3.34-5.23-.91-1.85-1.67-3.84-2.13-5.69-.61-2-.91-4-1.06-6v-3.23c0-1.08.15-2,.3-3.08.15-1.08.3-2,.46-3.08s.46-2,.76-3.08c.61-2,1.21-4,2.13-5.84,1.67-3.69,3.95-6.92,6.53-9.53.61-.62,1.37-1.23,2.13-1.85.76-.61,1.52-1.08,2.28-1.69.76-.46,1.52-.92,2.28-1.38.46-.15.76-.46,1.21-.61.15-.15.46-.15.61-.31.15-.15.46-.15.61-.31.91-.31,1.67-.61,2.58-.92.15,0,.46-.15.61-.15s.46-.15.61-.15c.46-.15.91-.31,1.37-.31.15,0,.46-.15.61-.15s.46-.15.61-.15.46-.15.61-.15h.61c.15,0,.46,0,.61-.15.3,0,.46,0,.76-.15.15,0,.61,0,.76-.15h2.28s.15,0,0,0h3.49c1.67,0,3.34.31,5.01.62,3.34.62,6.38,1.69,9.11,3.08s5.31,3.08,7.44,4.92c.15.15.3.31.46.31.15.15.3.31.46.31.3.31.46.46.76.77.3.31.46.46.76.77s.46.46.76.77c.91.92,1.82,2,2.58,3.08,1.52,2,2.73,4,3.79,6,0,.15.15.31.15.31,0,.15.15.31.15.31.15.31.3.46.3.77.15.31.15.46.3.62s.15.46.3.62c.3.92.76,1.69.91,2.61.46,1.23.76,2.46,1.06,3.54.15.46.46.61.91.61s.76-.46.76-.77c-.15-.46-.3-1.69-.3-3.23Z" style="fill: white; stroke-width: 0px;"/>
  <path d="M214.46,99.32c-.75,19.09-15.28,33.87-33.4,33.87-19.17,0-33.4-16.01-33.4-35.1s15.43-35.41,34.15-35.41c8.54,0,16.78,3.7,23.82,10.47l-5.54,6.93c-5.39-4.77-11.83-8.01-18.27-8.01-13.78,0-25.01,11.7-25.01,26.02s10.63,25.71,24.26,25.71c12.28,0,21.87-9.24,23.67-20.94h-27.71v-8.31h37.45v4.77h0Z" style="fill: #fff; stroke-width: 0px;"/>
  <path d="M247.79,93.91h-5.14c-5.75,0-10.29,3.71-10.29,9.74v28.3h-9.23v-47.01h7.57v4.02c2.42-2.48,6.51-4.02,10.9-4.02h9.99l-3.78,8.97Z" style="fill: #fff; stroke-width: 0px;"/>
  <path d="M289.36,109.14c0-7.97-6.61-14.7-14.75-14.7s-14.75,6.58-14.75,14.7,6.61,14.7,14.75,14.7,14.75-6.59,14.75-14.7ZM298.58,132.58h-7.99v-5.97c-4.15,3.98-9.83,6.58-16.13,6.58-13.37,0-24.12-10.87-24.12-24.2s10.76-24.05,24.12-24.05c6.3,0,11.83,2.45,15.98,6.58v-5.82h7.99v46.87h.15Z" style="fill: #fff; stroke-width: 0px;"/>
  <path d="M316.26,83.75v2.61h14.59v8.29h-14.59v38.54h-9.02v-49.14c0-10.29,7.22-16.43,16.24-16.43h10.98l-3.61,8.75h-7.37c-3.91,0-7.22,3.38-7.22,7.37Z" style="fill: #fff; stroke-width: 0px;"/>
  <path d="M371.01,109.14c0-7.97-6.61-14.7-14.75-14.7s-14.75,6.58-14.75,14.7,6.61,14.7,14.75,14.7,14.75-6.59,14.75-14.7ZM380.23,132.58h-7.99v-5.97c-4.15,3.98-9.83,6.58-16.13,6.58-13.37,0-24.12-10.87-24.12-24.2s10.76-24.05,24.12-24.05c6.3,0,11.83,2.45,15.98,6.58v-5.82h7.99v46.87h.15Z" style="fill: #fff; stroke-width: 0px;"/>
  <path d="M429.72,104.57v27.38h-9.32v-27.38c0-5.78-4.74-10.35-10.39-10.35s-10.55,4.56-10.55,10.35v27.38h-9.32v-46.25h7.8v3.96c3.36-2.89,7.79-4.72,12.53-4.72,10.7,0,19.26,8.82,19.26,19.63Z" style="fill: #fff; stroke-width: 0px;"/>
  <path d="M475.08,109.14c0-7.97-6.61-14.7-14.75-14.7s-14.75,6.58-14.75,14.7,6.61,14.7,14.75,14.7,14.75-6.59,14.75-14.7ZM484.15,132.58h-7.99v-5.97c-4.15,3.98-9.83,6.58-16.13,6.58-13.37,0-24.12-10.87-24.12-24.2s10.76-24.05,24.12-24.05c6.3,0,11.83,2.45,15.98,6.58v-5.82h7.99v46.87h.15Z" style="fill: #fff; stroke-width: 0px;"/>
</svg>