<?xml version="1.0" encoding="UTF-8"?>
<svg id="Layer_1" data-name="Layer 1" xmlns="http://www.w3.org/2000/svg" viewBox="0 0 206.55 200">
  <path d="M66.45,57.75l-.44-.42c-.05-.05-.1-.1-.15-.14-4.13-3.97-7.33-8.56-9.26-13.98-.52-1.45-.91-2.94-.88-4.5v-.2c.01-.16.01-.31.02-.47.15-2.11,1.56-3.18,3.62-2.68.65.17,1.28.41,1.88.72,2.18,1.09,3.97,2.69,5.62,4.45l.17.18c3,3.2,5.41,6.9,7.11,10.94.04.1.08.19.13.28,0,.01.02.03.03.04l.12.1s.02.02.03.03c8.05-4.83,17.15-7.62,26.52-8.14l-.02-.12h0l-.06-.32c-.01-.07-.03-.13-.04-.19l-.02-.09c-.96-3.96-1.25-8.05-.87-12.1.17-2.43.66-4.82,1.46-7.12.39-1.21.99-2.34,1.79-3.33.3-.35.65-.66,1.04-.92.79-.56,1.84-.56,2.63-.02.82.55,1.48,1.31,1.91,2.2.81,1.51,1.39,3.13,1.72,4.8.76,3.55,1,7.19.69,10.8-.15,2.21-.53,4.39-1.14,6.52.39.07.78.14,1.16.21l1.74.3c1.35.23,2.69.48,4.02.79,2.27.53,4.5,1.18,6.69,1.97,2.21.81,4.37,1.75,6.47,2.81,1.21.6,2.39,1.28,3.57,1.97l1.02.59c.51.3,1.02.6,1.54.89l.04-.09h0l.1-.19c.03-.07.06-.14.09-.21,2.16-5.97,5.88-11.26,10.77-15.31,1.14-.98,2.45-1.74,3.87-2.25.39-.14.79-.23,1.2-.28,2.05-.23,2.91,1.06,3.06,2.6.11,1.14.03,2.28-.25,3.39-.72,2.76-1.85,5.39-3.35,7.81l-.17.27c-2.17,3.5-4.73,6.67-7.96,9.24l-.25.2s-.04.04-.07.05l-.1.1h0l-.13.12s-.03.03-.05.05c3.28,3.03,6.2,6.42,8.71,10.11-.18.05-.37.08-.55.1-3.47,0-6.94,0-10.41.02-.41,0-.8-.22-1.04-.55-7.57-8.27-17.77-13.65-28.87-15.24-3.14-.46-6.33-.59-9.5-.41l-.41.03c-9.76.6-19.11,4.17-26.78,10.22l-.24.19c-1.99,1.57-3.85,3.31-5.56,5.19-.31.38-.78.59-1.26.58-1.99-.01-3.98-.02-5.96-.01h-4.68c.02-.06.04-.13.08-.21l.05-.11s.04-.08.06-.12l.07-.12h0l.08-.13h0l.08-.14h0l.09-.15h0l.1-.16h0l.17-.25h0l.18-.27h0l.13-.19h0l.21-.29s.05-.07.07-.1l.23-.31h0l.16-.21h0l.16-.21h0l.26-.33h0l.27-.34h0l.18-.23h0l.19-.23h0l.19-.23h0l.2-.23h0l.2-.23h0l.3-.35h0l.21-.23h0l.21-.23h0l.21-.23h0l.21-.23h0c1.03-1.12,2.1-2.2,3.19-3.29l1.1-1.1c.37-.37.74-.74,1.11-1.12ZM150.92,131.99c-2.3,3.23-4.93,6.21-7.85,8.89l.61.51h0c5.06,4.14,8.87,9.59,11.03,15.76.57,1.5.82,3.11.72,4.72-.03.36-.09.72-.2,1.06l-.05.15c-.34,1.15-1.49,1.85-2.67,1.64-.77-.1-1.52-.32-2.21-.66-1.07-.53-2.07-1.16-3.01-1.9-4.83-3.97-8.52-9.15-10.68-15.02l-.14-.39h0l-.19-.5h0c-2.61,1.73-5.35,3.26-8.19,4.59-2.82,1.29-5.75,2.35-8.74,3.18-3.04.82-6.14,1.41-9.27,1.76l.04.22h0l.04.2c.01.06.03.13.04.19l.02.09c.99,3.89,1.32,7.93.97,11.93-.13,2.51-.62,4.99-1.45,7.36-.39.98-.85,1.94-1.36,2.86-.21.36-.47.69-.77.97-1.3,1.35-2.86,1.36-4.13-.02-.5-.56-.93-1.17-1.28-1.84-1.01-1.89-1.53-3.95-1.9-6.04-.48-2.86-.63-5.77-.44-8.66.09-2,.38-3.98.85-5.92l.09-.36c.05-.17.09-.35.12-.53,0-.02,0-.04,0-.07l-.04-.13s0-.03-.01-.04c-9.37-.53-18.47-3.34-26.51-8.18l-.3.67s-.04.08-.06.13c-2.21,5.16-5.6,9.74-9.89,13.37l-.23.19c-1.16.99-2.5,1.77-3.94,2.28-.68.27-1.41.35-2.13.23-.78-.14-1.43-.66-1.74-1.39l-.03-.08c-.43-1.03-.39-2.1-.26-3.17l.04-.28h0c.26-1.61.73-3.18,1.41-4.67,2.01-4.68,4.96-8.89,8.68-12.36l.3-.28c.05-.05.1-.09.15-.14.05-.07.09-.14.12-.21-3.5-3.04-6.63-6.48-9.32-10.25h.1s.35-.04.35-.04c.11,0,.2-.02.3-.02,2.75,0,5.51,0,8.26,0h2.07c.46-.02.91.17,1.21.52,3.66,3.76,7.9,6.9,12.57,9.29l.33.17c5.08,2.61,10.59,4.25,16.27,4.84,15.43,1.5,28.7-3.18,39.81-14.03.5-.54,1.22-.84,1.96-.8,1.6.02,3.21.02,4.81.02h3.21c.53,0,1.07,0,1.6,0h.83l.06.19Z" style="fill: #fff; stroke-width: 0px;"/>
  <path d="M136.58,82.84c.2,0,.4,0,.6,0h.59c.39.02.78.02,1.17,0l.29-.02c.98-.09,1.68.26,2.4.92,3.44,3.17,6.91,6.31,10.38,9.45l2.16,1.96h0l.24.22h0l.37.32h0l.43-.37c.09-.08.18-.16.27-.24,4.29-3.9,8.57-7.81,12.85-11.72.34-.35.8-.54,1.29-.54h.09c.66.03,1.32.03,1.99.02h.82c.14,0,.28,0,.41,0v34.5s-.03,0-.05.01h-.08s-.1.02-.1.02h-.12s-.14.02-.14.02h-.24s-.49.03-.49.03h0l-.58.02h-.65s-.99.03-.99.03h-.89s-.9,0-.9,0h-.59s-.71,0-.71,0h-.53s-.37-.02-.37-.02h-.35s-.41-.02-.41-.02h-.27s-.23-.03-.23-.03h-.13s-.11-.02-.11-.02c-.02,0-.03,0-.05,0h-.08v-17.48l-.18-.08-8.92,8.13h0l-8.99-8.1h0l-.17.06v1.46h0v2.92h0v2.17h0v10.97s-8.98,0-8.98,0c0-.03-.02-.14-.02-.32v-.25h0v-.31h0v-.59h-.01v-.72h-.01l-.02-1.14h0l-.02-1.69h0l-.03-3.2h0l-.02-3.18h0v-3.89h-.01v-4.49h0v-2.93h0v-3.66h0v-2.08h0v-2.2h.01v-1.53h.01v-.99h.01v-.6h.01v-.32h0v-.26h0v-.19s.01-.05.01-.07ZM53.72,82.88h8.93s.01.1.02.22v.22h0v.29h0v.35h0v.65h.01l.02,1.36h0v1.32h.01l.02,1.89h0l.02,3.48h0v2.38h0v4.5h0v3.04h0v3.45h0v2.34h0v2.58h-.01v1.91h-.01l-.02,1.93h0v.8h-.01v.46h0v.4h0v.34h0v.27h0v.2c-.02.08-.02.14-.03.16h-8.93c-.03-1.25-.03-2.51-.03-3.76v-1.87c0-.31,0-.62,0-.94v-.93h0v-1.86h0v-3.77h0-11.06v13.01s-.04,0-.06.01h-.09s-.11.03-.11.03h0l-.21.02h-.16s-.38.03-.38.03h-.33s-.49.03-.49.03h-.4s-.57.02-.57.02h-.9s-.93.02-.93.02h-.78s-.75,0-.75,0h-.84s-.51-.02-.51-.02h-.46s-.3-.03-.3-.03h-.18s-.16-.02-.16-.02h0l-.2-.02s-.04,0-.06,0h-.09s-.05-.02-.07-.03v-34.46h9.02v12.17s.03,0,.05.01h.07s.1.02.1.02h0l.18.02h.23s.36.03.36.03h.31s.35.02.35.02h0l.77.02h0l1.01.02h.62s.96.01.96.01h.97s1.28,0,1.28,0h.76s.71-.01.71-.01h.65s.57-.03.57-.03h0l.48-.02h.24s.19-.03.19-.03h.1s.03-.01.04-.02h.07s0-2.23,0-2.23c0-.25,0-.5,0-.75v-1.55h0v-7.7h0ZM73.34,117.41v-34.43s.05-.01.1-.02h.12s.05-.01.08-.01h.29s.37-.03.37-.03h.45s.71-.03.71-.03h.83s.93-.03.93-.03h0l2.38-.03h1.16s2.72-.02,2.72-.02h2.15s2.39,0,2.39,0h1.94s1.49.02,1.49.02h1.08s.91.03.91.03h.31s.4.02.4.02h.32s.16.02.16.02h.12s.03.01.04.02v7.34c-.29.02-.58.06-.88.06h-5.24s-6.21,0-6.21,0v5.71h10.92v7.59h-10.82c-.02.06-.03.14-.04.24l-.02.14h0v.16h-.01l-.02.27h0v.2h-.01l-.02.33h0v.36h-.01l-.02.52h0v.41h0v.42h0v.56h0v.69h0v.4h0v.25h0v.24h0v.34h.01v.31h.01v.19h.01v.17h.01v.15s.02.05.02.07c.28.02.57.06.87.06h5.24s6.21,0,6.21,0v7.31h-21.43ZM105,117.42s-.01-.13-.02-.26v-.24h0v-.31h0v-.37h0v-.67h-.01v-.8h0l-.02-1.94h0v-1.91h-.01v-3.04h-.01v-4.33h0v-5.55h0v-4.41h.01l.02-3.58h0l.02-2.35h0l.02-1.68h0v-1.12h.01v-.48h0v-.6h.01v-.32h0v-.26h0v-.19c.01-.08.02-.12.02-.14h8.89v25.46l.27.02h0l.25.02h.23c.08.02.15.02.23.02h5.28s6.23,0,6.23,0h0v9.03h-21.42Z" style="fill: #fff; stroke-width: 0px;"/>
</svg>