<?xml version="1.0" encoding="UTF-8"?>
<svg id="Layer_1" data-name="Layer 1" xmlns="http://www.w3.org/2000/svg" viewBox="0 0 584.69 200">
  <g>
    <path d="M85.45,110.84l-.03.03c-.18-.02-.37-.02-.55,0l-16.26,2.77c2.43,6.73,7.01,12.47,13.03,16.34l6.31-15.2v-.06c.14-.33.22-.69.22-1.05.02-1.53-1.2-2.8-2.73-2.82Z" style="fill: #fff; stroke-width: 0px;"/>
    <path d="M174.71,115.86l-12.99-56.49c-.69-2.97-2.69-5.46-5.44-6.78l-52.63-25.07c-1.52-.75-3.2-1.1-4.89-1.03-1.35.08-2.68.43-3.89,1.03l-52.67,25.14c-2.75,1.31-4.76,3.81-5.44,6.78l-12.9,56.43c-.61,2.64-.12,5.43,1.37,7.69.18.28.37.54.57.8l36.44,45.28c1.92,2.36,4.81,3.73,7.85,3.72h58.42c3.06,0,5.95-1.37,7.87-3.75l36.41-45.3c1.91-2.37,2.63-5.48,1.94-8.45ZM154.56,115.43c-.55,1.66-2.33,2.56-3.99,2.01h-.06c-.27-.07-.6-.11-.83-.18-.96-.31-1.91-.68-2.83-1.09-1.77-.71-3.61-1.25-5.49-1.61-.65-.02-1.29.21-1.77.65l-1.34-.24c-3.04,9.56-9.48,17.67-18.09,22.8.15.43.32.86.53,1.27-.36.56-.47,1.24-.32,1.89.76,1.75,1.7,3.43,2.79,5,.61.8,1.18,1.64,1.69,2.51l.41.85c.6,1.03.57,2.31-.08,3.32-.37.57-.91,1.01-1.55,1.24-1.64.61-3.46-.23-4.06-1.86l-.39-.81c-.36-.95-.67-1.91-.92-2.89-.55-1.83-1.27-3.61-2.16-5.3-.39-.52-.97-.87-1.61-.97l-.62-1.21c-9.37,3.55-19.72,3.52-29.07-.07l-.72,1.29c-.51.08-.98.31-1.35.66-1.15,1.37-1.61,3.59-2.44,5.66-.25.98-.55,1.95-.91,2.89l-.39.81c-.42,1.12-1.43,1.91-2.61,2.04-.68.07-1.36-.07-1.94-.41-1.51-.88-2.01-2.82-1.13-4.32l.41-.85c.52-.87,1.08-1.71,1.69-2.52,1.11-1.63,2.07-3.36,2.85-5.16.08-.61-.01-1.22-.28-1.78l.58-1.21c-8.63-5.1-15.09-13.18-18.17-22.72l-1.37.24c-.53-.38-1.16-.6-1.81-.64-1.88.36-3.72.9-5.49,1.61-.92.4-1.87.74-2.83,1.03l-.86.1h-.06c-1.14.37-2.39.07-3.24-.78-.48-.49-.79-1.12-.88-1.8-.23-1.73.99-3.32,2.72-3.55h.1l.83-.21c1-.14,2.01-.22,3.03-.24,1.91-.13,3.8-.44,5.65-.93.55-.35,1.01-.81,1.35-1.36l1.32-.38c-1.43-9.94.85-20.06,6.42-28.42l-1.03-.9c-.04-.65-.25-1.28-.63-1.82-1.46-1.24-3.04-2.33-4.72-3.26-.9-.46-1.77-.97-2.61-1.53l-.65-.52c-1.5-1.07-1.84-3.15-.77-4.65.61-.75,1.54-1.16,2.51-1.12.8.03,1.57.32,2.19.83l.7.56c.73.69,1.42,1.43,2.07,2.2,1.29,1.41,2.71,2.7,4.24,3.83.57.3,1.25.37,1.87.19l1.14.81c5.54-5.88,12.71-9.98,20.59-11.75,1.87-.43,3.78-.72,5.69-.88l.07-1.34c.49-.43.85-1,1.03-1.63.08-1.91-.02-3.83-.31-5.72-.2-.99-.35-1.99-.43-3v-.89c-.09-1.82,1.28-3.37,3.1-3.5l.05.03c1.81.13,3.19,1.68,3.1,3.5v.9c-.09,1.01-.23,2.01-.43,3-.31,1.89-.43,3.8-.36,5.71.13.64.5,1.2,1.03,1.57.01.23.07.99.07,1.4,9.97.9,19.27,5.39,26.18,12.63l1.2-.86c.64.11,1.31.04,1.91-.21,1.5-1.16,2.88-2.47,4.13-3.89.65-.77,1.34-1.51,2.07-2.2l.7-.56c.86-.87,2.14-1.16,3.29-.76.68.24,1.26.7,1.65,1.32.93,1.49.47,3.44-1.02,4.37l-.69.56c-.84.56-1.71,1.07-2.61,1.53-1.67.94-3.24,2.05-4.69,3.29-.42.5-.63,1.14-.59,1.79l-1.12,1.03c5.59,8.33,7.92,18.42,6.56,28.35l1.27.37c.32.57.79,1.04,1.36,1.36,1.85.49,3.74.8,5.65.93,1.01.02,2.02.1,3.03.24l.93.21c1.19.15,2.19.97,2.58,2.11.22.65.23,1.36.01,2.01Z" style="fill: #fff; stroke-width: 0px;"/>
    <path d="M82.74,101.31c.53-.14,1-.44,1.36-.85,1.01-1.16.89-2.91-.26-3.92v-.07l-12.39-11.05h0c-3.77,6.13-5.4,13.36-4.61,20.52l15.91-4.58v-.05Z" style="fill: #fff; stroke-width: 0px;"/>
    <polygon points="94.66 106.18 99.22 108.37 103.77 106.18 104.9 101.26 101.81 97.34 96.75 97.34 93.59 101.25 94.66 106.18" style="fill: #fff; stroke-width: 0px;"/>
    <path d="M104.77,88.34c.96,1.2,2.71,1.39,3.91.43l13.43-9.54c-5.12-5.02-11.75-8.22-18.87-9.1l.93,16.51c0,.62.22,1.21.61,1.69Z" style="fill: #fff; stroke-width: 0px;"/>
    <path d="M91.44,89.32c1.53.07,2.83-1.12,2.89-2.66h.07l.93-16.52c-1.12.12-2.23.3-3.34.54-5.9,1.33-11.31,4.27-15.63,8.51l13.55,9.61c.44.32.97.51,1.52.53Z" style="fill: #fff; stroke-width: 0px;"/>
    <path d="M127.05,85.45l-12.29,11.01c-.41.36-.71.83-.85,1.36-.41,1.48.47,3.01,1.95,3.41v.06l15.93,4.59c.69-7.16-.98-14.34-4.74-20.47v.04Z" style="fill: #fff; stroke-width: 0px;"/>
    <path d="M112.99,110.77l-.02.05c-.32.02-.63.09-.93.22-1.42.6-2.08,2.24-1.48,3.66l6.34,15.37c6.09-3.89,10.71-9.71,13.13-16.52l-16.4-2.77c-.21-.02-.43-.02-.64,0Z" style="fill: #fff; stroke-width: 0px;"/>
    <path d="M101.72,118.97c-.51-.93-1.49-1.49-2.54-1.46v.04c-.98.02-1.88.55-2.37,1.39l-7.99,14.46c5.72,1.95,11.88,2.27,17.77.92,1.08-.25,2.15-.55,3.2-.9l-8.01-14.46h-.06Z" style="fill: #fff; stroke-width: 0px;"/>
  </g>
  <path d="M207.98,102.86l3.05-3.33c1.05-1.16,2.06-2.3,3.05-3.43l2.79-3.22c.87-1.02,1.61-1.91,2.24-2.66h11.86c-2.37,2.72-4.68,5.31-6.92,7.78-2.25,2.46-4.72,5.01-7.39,7.64,1.47,1.35,2.85,2.8,4.13,4.33,1.43,1.67,2.8,3.39,4.13,5.16,1.33,1.77,2.55,3.56,3.68,5.37,1.12,1.79,2.05,3.42,2.81,4.9h-11.46c-.69-1.17-1.5-2.46-2.44-3.86-.94-1.41-1.9-2.8-2.89-4.15-1.03-1.38-2.11-2.73-3.24-4.06-1.03-1.19-2.16-2.29-3.38-3.28v15.43h-9.98v-50.37l9.98-1.61v29.38h0ZM266.13,124.21c-2.16.59-4.35,1.05-6.56,1.37-2.79.43-5.61.65-8.43.64-2.54.08-5.08-.33-7.47-1.21-1.84-.7-3.47-1.86-4.72-3.38-1.2-1.52-2.04-3.28-2.48-5.16-.51-2.17-.76-4.4-.73-6.63v-19.62h9.98v18.38c0,3.22.42,5.54,1.27,6.96.85,1.43,2.43,2.14,4.75,2.14.69,0,1.45-.03,2.27-.1s1.54-.15,2.14-.24v-27.16h9.98v34.01ZM308.24,107.81c.04,2.6-.38,5.18-1.24,7.63-.76,2.18-1.99,4.16-3.58,5.83-1.62,1.65-3.59,2.92-5.75,3.72-2.49.91-5.12,1.35-7.77,1.3-1.2,0-2.46-.06-3.78-.17-1.31-.11-2.6-.25-3.88-.43-1.27-.18-2.49-.39-3.65-.64-1.16-.25-2.19-.51-3.1-.77v-49.19l9.98-1.61v17.56c1.12-.49,2.29-.87,3.48-1.14,1.28-.28,2.58-.41,3.88-.4,2.28-.05,4.54.4,6.63,1.3,1.88.84,3.53,2.11,4.82,3.72,1.35,1.72,2.35,3.69,2.94,5.79.7,2.44,1.04,4.97,1.01,7.51ZM298.07,107.54c0-6.42-2.37-9.64-7.1-9.64-1.03,0-2.05.14-3.05.4-.86.22-1.69.56-2.45,1.03v18.11c.48.09,1.1.17,1.86.24.76.07,1.58.1,2.48.1,2.41.17,4.74-.89,6.2-2.81,1.47-2.19,2.18-4.8,2.04-7.44h.01ZM314.26,108.08c-.06-2.8.43-5.59,1.44-8.2.86-2.19,2.14-4.18,3.78-5.86,1.54-1.53,3.37-2.72,5.39-3.5,1.99-.8,4.11-1.21,6.26-1.21,5,0,8.95,1.53,11.85,4.59,2.89,3.06,4.34,7.55,4.34,13.49,0,.58-.02,1.22-.06,1.91-.04.69-.09,1.3-.13,1.84h-22.62c.18,1.98,1.24,3.77,2.88,4.89,2.03,1.3,4.42,1.93,6.83,1.81,1.81,0,3.61-.17,5.39-.51,1.48-.25,2.93-.67,4.32-1.24l1.34,8.1c-.69.33-1.4.6-2.14.81-.98.29-1.97.52-2.97.7-1.1.21-2.27.38-3.51.52-1.25.13-2.5.2-3.75.2-2.82.06-5.62-.42-8.26-1.4-2.2-.84-4.19-2.16-5.83-3.85-1.55-1.65-2.72-3.63-3.41-5.79-.77-2.34-1.15-4.8-1.14-7.26h.01ZM337.68,104.26c-.04-.84-.19-1.67-.43-2.48-.23-.78-.62-1.51-1.14-2.14-.53-.64-1.2-1.16-1.94-1.54-.91-.43-1.91-.63-2.91-.6-.99-.03-1.97.17-2.88.57-.77.35-1.45.87-2,1.51-.55.64-.97,1.38-1.24,2.18-.29.82-.5,1.66-.64,2.51h13.19ZM376.22,99.04c-.9-.22-1.93-.45-3.1-.7-1.28-.25-2.58-.38-3.88-.37-.75,0-1.5.06-2.24.17-.67.07-1.33.2-1.97.37v26.85h-9.98v-33.29c2.06-.7,4.16-1.28,6.28-1.76,2.67-.58,5.4-.86,8.13-.84.54,0,1.18.03,1.94.1s1.51.16,2.27.27,1.51.25,2.27.41c.66.13,1.31.32,1.94.57l-1.66,8.21ZM383.25,91.42c2.16-.59,4.35-1.05,6.56-1.37,2.79-.43,5.61-.65,8.44-.64,2.55-.08,5.09.32,7.49,1.18,1.84.68,3.46,1.82,4.72,3.32,1.19,1.49,2.04,3.23,2.48,5.08.51,2.15.76,4.35.73,6.56v19.89h-9.99v-18.69c0-3.22-.42-5.49-1.27-6.82-.85-1.34-2.43-2-4.75-2-.69,0-1.45.03-2.27.1-.83.07-1.54.15-2.14.24v27.16h-9.98v-34h-.02ZM421,108.08c-.06-2.8.43-5.59,1.44-8.2.86-2.19,2.14-4.18,3.78-5.86,1.52-1.52,3.35-2.71,5.35-3.5,1.99-.8,4.11-1.21,6.26-1.21,5,0,8.95,1.53,11.85,4.59,2.89,3.06,4.34,7.55,4.34,13.49,0,.58-.02,1.22-.07,1.91-.05.69-.09,1.3-.13,1.84h-22.62c.18,1.98,1.24,3.77,2.88,4.89,2.03,1.3,4.42,1.93,6.83,1.81,1.81,0,3.61-.17,5.39-.51,1.48-.25,2.93-.67,4.32-1.24l1.34,8.1c-.69.33-1.4.6-2.14.81-.98.29-1.97.52-2.97.7-1.1.21-2.27.38-3.51.52-1.25.13-2.5.2-3.75.2-2.82.06-5.62-.42-8.26-1.4-2.2-.84-4.19-2.16-5.83-3.85-1.55-1.67-2.71-3.66-3.39-5.83-.75-2.34-1.13-4.78-1.11-7.23h.01ZM444.42,104.26c-.04-.84-.19-1.67-.43-2.48-.23-.78-.62-1.51-1.14-2.14-.53-.64-1.2-1.16-1.94-1.54-.91-.43-1.91-.63-2.91-.6-.99-.03-1.97.17-2.88.57-.77.35-1.45.87-2,1.51-.55.64-.97,1.38-1.24,2.18-.29.82-.5,1.66-.64,2.51h13.19ZM461.41,81.43l9.98-1.61v10.33h11.98v8.26h-11.98v12.39c-.08,1.74.3,3.47,1.11,5.02.74,1.24,2.22,1.86,4.44,1.86,1.11,0,2.22-.1,3.32-.3,1.06-.18,2.09-.46,3.1-.84l1.4,7.77c-1.31.52-2.65.95-4.02,1.27-1.78.39-3.6.57-5.42.54-2.3.07-4.6-.3-6.75-1.11-1.67-.65-3.14-1.72-4.29-3.1-1.11-1.4-1.88-3.04-2.24-4.78-.44-2.04-.66-4.11-.64-6.2v-29.51h.02ZM488.68,108.08c-.06-2.8.43-5.59,1.44-8.2.86-2.19,2.14-4.18,3.78-5.86,1.54-1.53,3.37-2.72,5.39-3.5,1.99-.8,4.11-1.21,6.26-1.21,5,0,8.95,1.53,11.85,4.59,2.89,3.06,4.34,7.54,4.34,13.46,0,.58-.02,1.22-.07,1.91-.05.69-.09,1.3-.13,1.84h-22.62c.18,1.98,1.24,3.77,2.89,4.89,2.03,1.3,4.42,1.93,6.83,1.81,1.81,0,3.61-.17,5.39-.51,1.48-.25,2.93-.67,4.32-1.24l1.34,8.1c-.69.33-1.4.6-2.14.81-.98.29-1.97.52-2.97.7-1.1.21-2.27.38-3.51.52-1.25.13-2.5.2-3.75.2-2.82.06-5.62-.42-8.26-1.4-2.2-.84-4.19-2.16-5.83-3.85-1.57-1.65-2.75-3.63-3.45-5.79-.75-2.34-1.12-4.78-1.09-7.23h.01ZM512.12,104.26c-.04-.84-.19-1.67-.43-2.48-.23-.78-.62-1.51-1.14-2.14-.53-.64-1.2-1.16-1.94-1.54-.91-.43-1.91-.63-2.91-.6-.99-.03-1.97.17-2.88.57-.78.35-1.49.86-2.06,1.5-.55.64-.97,1.38-1.24,2.18-.29.82-.5,1.66-.64,2.51h13.24ZM539.52,118.25c1.32.08,2.64-.1,3.88-.54.77-.38,1.23-1.21,1.14-2.07-.09-.9-.65-1.69-1.48-2.07-1.43-.82-2.93-1.51-4.48-2.07-1.45-.53-2.87-1.13-4.26-1.81-1.19-.57-2.29-1.33-3.24-2.24-.9-.88-1.6-1.93-2.07-3.1-.52-1.39-.77-2.87-.73-4.35-.12-3.05,1.25-5.97,3.68-7.83,2.45-1.93,5.82-2.89,10.1-2.89,2.08,0,4.15.18,6.2.57,1.6.28,3.16.69,4.69,1.24l-1.74,7.77c-1.24-.41-2.5-.76-3.78-1.03-1.51-.33-3.04-.48-4.59-.46-3.13,0-4.69.87-4.69,2.61,0,.35.06.7.2,1.03.18.37.46.68.81.9.52.36,1.07.67,1.64.94.69.34,1.57.72,2.64,1.12,1.86.67,3.68,1.47,5.42,2.4,1.26.66,2.4,1.52,3.38,2.55.8.87,1.39,1.91,1.74,3.04.36,1.26.53,2.56.51,3.87.17,3.13-1.32,6.12-3.91,7.88-2.62,1.78-6.31,2.67-11.07,2.69-2.62.05-5.24-.22-7.8-.81-1.47-.34-2.91-.79-4.32-1.34l1.67-8.1c1.69.67,3.44,1.19,5.22,1.57,1.73.36,3.48.53,5.25.53Z" style="fill: #fff; stroke-width: 0px;"/>
</svg>