<?xml version="1.0" encoding="UTF-8"?>
<svg id="Layer_1" data-name="Layer 1" xmlns="http://www.w3.org/2000/svg" viewBox="0 0 394.7 200">
  <g id="minio">
    <path d="M87.46,37.51l18.15,29.69c.08.12.08.28,0,.4-.13.13-.34.13-.47,0l-23.43-24.51,5.75-5.57Z" style="fill: #fff; stroke-width: 0px;"/>
    <path d="M47.38,117.35c3.98-8.44,9.39-16.13,15.99-22.72,2.48-2.51,5.13-4.85,7.92-7.02v17.34l-23.91,12.4ZM33.53,133.34l37.81-19.26v44.04l8.52,11.19v-59.59l5.28-2.64c7.25-3.65,12.34-10.52,13.7-18.52s-1.09-16.18-6.69-22.06l-19.53-20.35c-1.6-1.71-1.5-4.44.21-6.07,1.75-1.62,4.48-1.52,6.12.21l2.64,2.85,5.83-5.6c-6.89-8.95-15.33-7.92-20.24-3.35-4.98,4.69-5.22,12.56-.53,17.52l19.63,20.45c3.63,3.87,5.32,9.19,4.58,14.45-.74,5.26-3.82,9.91-8.38,12.63l-2.64,1.37v-27.81c-23.75,12.21-40.76,34.44-46.34,60.56" style="fill: #fff; stroke-width: 0px;"/>
    <path d="M113.72,72.21h13.24l14.43,23.26,14.43-23.26h13.13v55.13h-12.03v-35.96l-15.5,23.69h-.21l-15.5-23.47v35.75h-11.84l-.13-55.13ZM183.27,72.21h12.06v55.13h-12.03l-.03-55.13ZM209.14,72.21h11.2l25.84,34.02v-34.02h12.16v55.13h-10.34l-26.7-35.1v35.1h-12.06l-.11-55.13ZM272.01,72.21h12.28v55.13h-12.06l-.22-55.13ZM325.12,128.41c-4.05.06-8.07-.67-11.84-2.15-3.43-1.42-6.57-3.46-9.26-6.03-2.63-2.55-4.69-5.63-6.03-9.05-1.43-3.48-2.19-7.21-2.15-10.98-.04-3.77.7-7.51,2.15-10.98,2.93-6.95,8.51-12.45,15.5-15.29,7.53-3.02,15.94-3.02,23.47,0,3.43,1.42,6.57,3.46,9.26,6.03,2.63,2.55,4.69,5.63,6.03,9.05,1.43,3.48,2.19,7.21,2.15,10.98.04,3.77-.7,7.51-2.15,10.98-2.93,6.95-8.51,12.45-15.5,15.29-3.7,1.46-7.65,2.19-11.63,2.15h0ZM325.33,117.22c2.29,0,4.56-.43,6.68-1.29,1.93-.89,3.71-2.13,5.14-3.66,3.06-3.27,4.75-7.58,4.74-12.06.04-2.45-.48-4.88-1.51-7.11-1.55-4.17-4.74-7.51-8.83-9.26-4.28-1.72-9.07-1.72-13.35,0-1.93.89-3.71,2.13-5.14,3.66-3.06,3.27-4.75,7.58-4.74,12.06,0,2.29.43,4.56,1.29,6.68,1.55,4.17,4.74,7.51,8.83,9.26,2.12,1.12,4.49,1.71,6.89,1.72h0Z" style="fill: #fff; stroke-width: 0px;"/>
  </g>
</svg>