<?xml version="1.0" encoding="UTF-8"?>
<svg id="Layer_1" data-name="Layer 1" xmlns="http://www.w3.org/2000/svg" viewBox="0 0 643.32 200">
  <g id="prometheus">
    <path d="M99.67,33.86c-36.67.04-66.37,29.8-66.33,66.47s29.8,66.37,66.47,66.33c36.67-.04,66.37-29.8,66.33-66.47-.04-36.67-29.8-66.37-66.47-66.33ZM99.8,158.14c-10.43.01-18.9-6.95-18.91-15.55l37.79-.04c0,8.59-8.45,15.58-18.88,15.59ZM130.98,137.39l-62.42.07v-11.32s62.37-.07,62.37-.07v11.32s.05,0,.05,0ZM130.74,120.24l-62.01.07-.62-.71c-6.4-7.75-7.91-11.8-9.37-15.92-.02-.14,7.75,1.58,13.26,2.81,2.32.52,4.65.98,6.98,1.4-3.99-4.66-6.36-10.59-6.36-16.65-.01-13.31,10.18-24.95,6.49-34.35,3.58.29,7.43,7.56,7.7,18.93,3.81-5.27,5.39-14.89,5.38-20.79s4.01-13.2,8.03-13.45c-3.58,5.92.94,10.98,4.97,23.55,1.51,4.73,1.32,12.67,2.49,17.71.37-10.47,2.16-25.75,8.8-31.02-2.92,6.64.45,14.95,2.75,18.94,3.72,6.44,5.97,11.32,5.98,20.56,0,6.2-2.27,12.03-6.12,16.59,4.39-.83,7.41-1.57,7.41-1.57l14.24-2.8s-2.06,8.5-10,16.71h0Z" style="fill: #fff; stroke-width: 0px;"/>
    <path d="M201.31,70.59c3.44-.58,7.94-1.07,13.67-1.08,7.04,0,12.2,1.62,15.48,4.57,2.95,2.62,4.84,6.63,4.84,11.54s-1.46,8.93-4.24,11.79c-3.84,4.02-9.9,6.07-16.86,6.07-2.13,0-4.09-.08-5.73-.44l.02,22.1h-7.07s-.1-54.57-.1-54.57ZM208.41,97.2c1.56.41,3.52.57,5.9.57,8.6,0,13.83-4.27,13.82-11.73s-5.25-10.88-13.03-10.87c-3.11,0-5.48.25-6.72.58l.03,21.45ZM243.31,97.82l-.34-12.36h6.3s.34,7.85.34,7.85h.25c1.8-5.32,6.22-8.69,11.04-8.69.74,0,1.31.09,1.97.16v6.79c-.73-.16-1.47-.16-2.45-.16-5.07,0-8.67,3.78-9.65,9.18-.17,1.11-.25,2.24-.24,3.36l.02,21.13h-7.21s-.03-27.26-.03-27.26h0ZM305.18,104.82c.02,14.66-10.21,21.05-19.71,21.06-10.65.01-19-7.84-19.02-20.37-.01-13.18,8.74-20.97,19.63-20.98,11.38-.01,19.09,8.25,19.1,20.29h0ZM273.82,105.27c0,8.68,4.88,15.22,11.97,15.22,6.88,0,12.03-6.48,12.02-15.41,0-6.72-3.38-15.15-11.89-15.14-8.43,0-12.1,7.87-12.1,15.33h0ZM314.26,96.05l-.34-10.72h6.3s.33,6.46.33,6.46h.25c2.21-3.77,5.89-7.3,12.52-7.31,5.32,0,9.42,3.26,11.15,7.93h.16c1.1-2.03,2.64-3.8,4.5-5.16,2.37-1.8,4.86-2.79,8.67-2.79,5.32,0,13.11,3.43,13.12,17.23l.02,23.25h-7.04s-.02-22.34-.02-22.34c0-7.69-2.89-12.2-8.61-12.19-4.18,0-7.29,3.04-8.59,6.48-.37,1.17-.56,2.38-.57,3.6l.03,24.48h-7.05s-.03-23.73-.03-23.73c0-6.3-2.8-10.81-8.28-10.8-4.42,0-7.78,3.61-8.92,7.22-.41.98-.57,2.3-.57,3.52l.03,23.87h-7.04s-.03-28.9-.03-28.9v-.08ZM386.58,106.38c.17,9.74,6.32,13.75,13.61,13.74,5.16,0,8.4-.91,10.97-2.06l1.31,5.16c-2.54,1.15-6.96,2.54-13.26,2.55-12.2.01-19.5-8.09-19.51-20.04s7.02-21.3,18.57-21.31c13.02-.01,16.39,11.28,16.4,18.57.02,1.13-.06,2.25-.24,3.36l-27.85.03ZM407.71,101.2c.08-4.51-1.9-11.62-10-11.62-7.37,0-10.47,6.64-11.04,11.64l21.04-.02ZM432.24,75.71v9.5s10.33-.01,10.33-.01v5.48s-10.31.01-10.31.01l.02,21.37c0,4.86,1.4,7.69,5.41,7.69,1.97,0,3.11-.17,4.18-.45l.33,5.48c-1.39.44-3.6.99-6.39.99-3.36,0-6.06-1.14-7.78-3.02-1.97-2.21-2.79-5.73-2.8-10.4l-.02-21.66h-6.13s0-5.48,0-5.48h6.19s0-7.33,0-7.33l6.98-2.19ZM450.66,66.64h7.21s.03,24.81.03,24.81h.16c1.21-2.16,3-3.95,5.15-5.16,2.24-1.29,4.78-1.97,7.37-1.98,5.32,0,13.84,3.26,13.85,16.85l.03,23.58h-7.21s-.02-22.72-.02-22.72c0-6.39-2.39-11.71-9.19-11.71-4.67,0-8.26,3.28-9.66,7.08-.41,1.06-.44,2.13-.44,3.44l.03,23.87h-7.21s-.06-58.03-.06-58.03l-.04-.04ZM500.17,106.22c.17,9.74,6.32,13.75,13.61,13.74,5.16,0,8.4-.91,10.97-2.06l1.31,5.16c-2.54,1.15-6.96,2.54-13.26,2.55-12.2.01-19.46-8.09-19.47-20.04-.01-11.95,7.02-21.3,18.57-21.31,13.02-.01,16.39,11.28,16.4,18.57.03,1.13-.05,2.25-.24,3.36l-27.88.03ZM521.29,101.04c.08-4.51-1.9-11.62-10-11.62-7.37,0-10.47,6.64-11.04,11.64l21.04-.02ZM570.35,113.85l.34,10.89h-6.39s-.42-6.46-.42-6.46h-.21c-1.8,3.19-6.05,7.38-13.1,7.38-6.22,0-13.68-3.51-13.69-17.35l-.02-23.17h7.21s.02,21.85.02,21.85c0,7.53,2.39,12.68,8.85,12.68,4.83,0,8.18-3.37,9.5-6.64.45-1.18.67-2.43.65-3.69l-.03-24.24h7.21s.08,28.74.08,28.74ZM581.33,117.43c2.21,1.31,5.98,2.78,9.58,2.77,5.16,0,7.61-2.55,7.61-5.91s-2.05-5.24-7.3-7.2c-7.21-2.61-10.62-6.46-10.62-11.21,0-6.39,5.23-11.63,13.66-11.64,4.01,0,7.53,1.05,9.67,2.45l-1.76,5.24c-1.56-.98-4.42-2.37-8.11-2.37-4.26,0-6.55,2.46-6.55,5.41,0,3.27,2.29,4.75,7.46,6.79,6.8,2.53,10.4,5.97,10.41,11.86,0,7.04-5.47,11.96-14.73,11.97-4.34,0-8.4-1.14-11.14-2.77l1.83-5.4Z" style="fill: #fff; stroke-width: 0px;"/>
  </g>
</svg>