<?xml version="1.0" encoding="UTF-8"?>
<svg id="Layer_1" data-name="Layer 1" xmlns="http://www.w3.org/2000/svg" viewBox="0 0 314.07 200">
  <path d="M237.08,76.9c2.35-4.16,6.19-8.64,7.57-10.03,6.4,2.67,12.37,8.11,11.52,9.49-2.45,4.05-6.19,8.64-7.57,10.03-6.4-2.67-12.37-8-11.52-9.49ZM282.2,95.24c-.75,3.63-5.23,7.68-7.15,8.32-1.6-3.41-3.41-5.44-5.12-5.44-2.13,0-2.24,1.49-2.24,3.41,0,3.41,2.45,10.88,2.45,18.67,0,8.53-5.97,14.83-15.15,14.83-8.4,0-13.04-5.51-15.11-14.3-5.49,9.83-13.51,14.3-19.66,14.3-9.61,0-11.88-7.11-11.65-14.31-3.86,6.83-11.3,14.31-18.43,14.31s-9.85-6.34-9.26-13.72c-4.36,8.12-12.25,13.72-19.86,13.72-8.25,0-12.34-6.56-11.02-14.68-5.55,6.82-15.89,14.68-26.63,14.68-12.25,0-17.59-6.61-18.22-14.89-5.91,9.48-13.88,15.21-23.38,15.21-13.71,0-18.61-12.19-19.32-22.16-5.08,6.8-10.79,13.86-17.8,21.73-.75.75-1.39,1.17-2.13,1.17-2.45,0-7.47-10.88-7.79-14.93,2.85-4.41,26.08-29.49,35.77-40.29-6.54,1.97-13.29,5.91-21.8,12.03-1.49,1.07-5.65-8.64-5.55-16.11,9.81-7.25,24.75-11.84,36.8-11.84,16.85,0,26.56,9.39,26.56,22.4,0,10.88-9.07,22.83-22.29,23.25-6.88.18-11.28-3.68-13.54-8.45.27,7.37,4.1,16.45,14.39,16.45,11.95,0,17.28-7.68,26.24-18.88,6.83-8.43,14.72-15.89,26.24-15.89,7.04,0,11.84,4.37,11.84,10.99,0,8-9.39,19.09-22.51,19.09-2.24,0-4.28-.3-6.01-.88-.04.34-.07.67-.07.99,0,3.73,1.39,5.97,7.47,5.97,8.96,0,17.39-5.33,27.62-17.81,10.03-12.27,17.6-17.6,25.6-17.6,5.4,0,9.5,2.93,11.3,7.86,10.72-15.48,19.82-26.46,27.52-33.77,7.57,3.2,13.01,9.49,11.52,10.77-5.65,5.12-24.53,25.71-32,37.97-1.92,3.2-3.73,6.72-3.73,8.43,0,1.6.96,2.13,2.03,2.13,7.04,0,23.79-22.83,33.28-32.85,5.97,2.45,12.05,7.68,10.56,9.49-7.89,9.39-13.87,17.07-13.87,21.44,0,1.17.43,1.92,2.03,1.92,2.99,0,5.76-2.67,10.35-8.32.96-1.17,2.13-1.17,2.88.64,2.03,4.91,5.01,7.57,7.36,7.57,2.77,0,4.16-2.45,4.16-6.19,0-4.48-.96-10.24-.96-12.8,0-8.64,6.4-13.65,14.4-13.65,5.97,0,11.31,2.88,13.87,10.03ZM85.03,79.69c-3.59,5.61-6.94,10.86-10.31,15.97,1.84,1.03,4.16,1.82,7.18,1.82,5.65,0,11.84-3.09,11.84-9.39,0-3.82-2.37-7.34-8.7-8.41ZM122.52,108.33c1.12.43,2.44.67,3.85.67,7.57,0,12.69-5.76,12.69-9.6,0-1.71-1.07-2.88-2.77-2.88-4.28,0-10.73,6.01-13.77,11.8ZM185.99,100.36c0-2.13-1.17-3.41-3.09-3.41-6.29,0-15.79,11.95-15.79,17.92,0,1.92,1.07,3.2,3.31,3.2,6.93,0,15.57-12.59,15.57-17.71Z" style="fill: #fff; stroke-width: 0px;"/>
</svg>