<?xml version="1.0" encoding="UTF-8"?>
<svg id="Layer_1" data-name="Layer 1" xmlns="http://www.w3.org/2000/svg" viewBox="0 0 500 350">
  <defs>
    <style>
      .cls-1 {
        fill: #00bc8e;
      }

      .cls-1,
      .cls-2,
      .cls-3 {
        stroke-width: 0px;
      }

      .cls-2 {
        fill: #326ce5;
      }

      .cls-4 {
        fill: none;
        stroke: #00c389;
        stroke-miterlimit: 10;
        stroke-width: 6px;
      }

      .cls-3,
      .cls-5 {
        fill: #fff;
      }

      .cls-5 {
        font-family: CascadiaMonoPL-Regular, 'Cascadia Mono PL';
        font-size: 19px;
      }
    </style>
  </defs>
  <line class="cls-4" x1="91.07" y1="105.12" x2="241.82" y2="63.62" />
  <line class="cls-4" x1="241.82" y1="63.62" x2="390.24" y2="105.12" />
  <polyline class="cls-4"
    points="241.82 63.62 241.79 258.58 92.92 110.15 92.92 257.83 241.79 258.58 398.5 110.15 398.5 258.11 241.79 258.58" />
  <g>
    <path class="cls-2"
      d="M314.49,268.55l-12.53-54.41c-.68-2.85-2.61-5.24-5.24-6.52l-47.94-22.89c-4.41-2.11-9.54-2.11-13.95,0l-47.93,22.9c-2.64,1.28-4.56,3.67-5.25,6.52l-12.51,54.41c-.31,1.38-.31,2.8,0,4.18.09.42.21.83.35,1.24.24.69.57,1.35.97,1.96.17.26.35.52.55.76l35.09,43.63c.15.19.32.36.49.54.55.59,1.17,1.1,1.85,1.53.86.54,1.79.95,2.77,1.21.8.22,1.63.33,2.47.34h56.28c.34-.01.68-.03,1.01-.07.48-.05.96-.15,1.43-.27.34-.09.67-.19.99-.32.25-.1.51-.19.75-.31.37-.18.72-.37,1.06-.59.88-.56,1.67-1.25,2.33-2.06l1.07-1.33,34.01-42.31c.65-.82,1.16-1.74,1.52-2.72.15-.4.27-.82.36-1.24.31-1.38.31-2.8,0-4.18h0Z" />
    <path class="cls-3"
      d="M321.11,269.94l-13.67-59.37c-.74-3.11-2.84-5.72-5.72-7.12l-52.55-25.09c-4.66-2.22-10.07-2.22-14.72,0l-52.55,25.1c-2.88,1.39-4.98,4.01-5.72,7.11l-13.64,59.37c-.62,2.76-.1,5.66,1.43,8.04.19.29.39.57.6.84l38.29,47.6c2.03,2.48,5.06,3.93,8.27,3.95h61.4c3.21-.03,6.24-1.48,8.27-3.95l38.27-47.61c1.98-2.5,2.74-5.76,2.04-8.88h0ZM314.49,272.72c-.09.42-.21.83-.36,1.24-.35.98-.86,1.9-1.52,2.72l-34.01,42.31-1.07,1.33c-.66.81-1.45,1.51-2.33,2.06-.34.22-.7.42-1.06.59-.25.11-.5.22-.75.31-.33.12-.66.23-.99.32-.47.13-.95.22-1.43.27-.34.04-.67.06-1.01.06h-55.73s-.55.01-.55.01c-.83,0-1.66-.12-2.47-.34-.98-.26-1.91-.67-2.77-1.21-.68-.43-1.3-.95-1.85-1.53-.17-.18-.34-.35-.49-.54l-35.09-43.63c-.2-.25-.38-.5-.55-.77-.4-.61-.72-1.27-.97-1.96-.15-.4-.26-.82-.35-1.24-.31-1.38-.31-2.8,0-4.18l12.51-54.41c.68-2.85,2.61-5.24,5.25-6.52l47.93-22.9c4.41-2.11,9.54-2.11,13.95,0l47.94,22.89c2.64,1.28,4.56,3.67,5.24,6.52l12.53,54.41c.31,1.37.31,2.8,0,4.18h0Z" />
  </g>
  <g>
    <path class="cls-3"
      d="M241.82,116.58c-2.18,0-4.33-.57-6.23-1.66l-34.98-20.39c-3.67-2.14-5.96-6.11-5.97-10.36v-41.14c.01-4.21,2.27-8.14,5.89-10.26l34.95-20.41c1.94-1.12,4.12-1.71,6.33-1.71s4.4.59,6.31,1.7l34.96,20.41c3.64,2.12,5.9,6.06,5.9,10.27v41.12c-.01,4.27-2.3,8.23-5.97,10.37l-34.94,20.37c-1.93,1.11-4.08,1.68-6.26,1.68Z" />
    <path class="cls-1"
      d="M279.85,38.31l-34.94-20.4c-1.91-1.11-4.27-1.11-6.18,0l-34.94,20.4c-1.68.98-2.71,2.78-2.71,4.72v41.12c0,1.99,1.06,3.82,2.78,4.82l34.94,20.37c1.88,1.08,4.18,1.08,6.06,0l34.94-20.37c1.72-1,2.77-2.83,2.78-4.82v-41.12c0-1.95-1.03-3.74-2.71-4.72ZM272.09,78.76c0,.38-.2.74-.53.93l-29.2,17.01c-.16.09-.34.14-.53.14-.19,0-.38-.05-.55-.14l-29.25-16.98c-.34-.2-.55-.56-.55-.95v-30.33c.03-.36.24-.67.55-.85l10.6-6.2c.34-.19.75-.19,1.09,0,.33.2.53.55.53.93v28.34l9.53-5.57v-29.65c0-.38.2-.74.53-.93l6.92-4.05c.34-.19.75-.19,1.09,0l6.91,4.05c.33.19.53.55.53.93v29.65l9.53,5.54v-28.4c0-.39.21-.75.55-.95.33-.2.75-.2,1.08,0l10.6,6.22c.33.19.53.55.53.93l.05,30.33Z" />
  </g>
  <g>
    <path class="cls-3"
      d="M92.92,284.48c-1.1,0-2.18-.29-3.13-.83l-17.59-10.25c-1.85-1.08-3-3.07-3-5.21v-20.69c0-2.12,1.14-4.09,2.96-5.16l17.58-10.26c.97-.56,2.07-.86,3.19-.86s2.21.29,3.17.85l17.58,10.27c1.83,1.07,2.97,3.05,2.97,5.17v20.68c0,2.15-1.16,4.14-3,5.22l-17.57,10.24c-.97.56-2.05.84-3.15.84Z" />
    <path class="cls-1"
      d="M111.1,245.75l-16.69-9.75c-.91-.53-2.04-.53-2.96,0l-16.69,9.75c-.8.47-1.29,1.33-1.3,2.26v19.65c0,.95.51,1.83,1.33,2.3l16.69,9.73c.9.51,2,.51,2.89,0l16.69-9.73c.82-.48,1.33-1.35,1.33-2.3v-19.65c0-.93-.49-1.79-1.3-2.26ZM107.39,265.08c0,.18-.1.35-.25.45l-13.95,8.13c-.08.04-.16.07-.25.07-.09,0-.18-.02-.26-.07l-13.98-8.11c-.16-.09-.26-.27-.26-.45v-14.49c.02-.17.11-.32.26-.41l5.07-2.96c.16-.09.36-.09.52,0,.16.09.25.26.25.45v13.54l4.55-2.66v-14.17c0-.18.1-.35.25-.45l3.31-1.93c.16-.09.36-.09.52,0l3.3,1.93c.16.09.25.26.25.45v14.17l4.55,2.65v-13.57c0-.19.1-.36.26-.45.16-.1.36-.1.51,0l5.07,2.97c.16.09.26.26.25.45l.02,14.49Z" />
  </g>
  <g>
    <path class="cls-3"
      d="M398.5,284.84c-1.1,0-2.18-.29-3.13-.83l-17.59-10.25c-1.85-1.08-3-3.07-3-5.21v-20.69c0-2.12,1.14-4.09,2.96-5.16l17.58-10.26c.97-.56,2.07-.86,3.19-.86s2.21.29,3.17.85l17.58,10.27c1.83,1.07,2.97,3.05,2.97,5.17v20.68c0,2.15-1.16,4.14-3,5.22l-17.57,10.24c-.97.56-2.05.84-3.15.84Z" />
    <path class="cls-1"
      d="M416.67,246.11l-16.69-9.75c-.91-.53-2.04-.53-2.96,0l-16.69,9.75c-.8.47-1.29,1.33-1.3,2.26v19.65c0,.95.51,1.83,1.33,2.3l16.69,9.73c.9.51,2,.51,2.89,0l16.69-9.73c.82-.48,1.33-1.35,1.33-2.3v-19.65c0-.93-.49-1.79-1.3-2.26ZM412.96,265.44c0,.18-.1.35-.25.45l-13.95,8.13c-.08.04-.16.07-.25.07-.09,0-.18-.02-.26-.07l-13.98-8.11c-.16-.09-.26-.27-.26-.45v-14.49c.02-.17.11-.32.26-.41l5.07-2.96c.16-.09.36-.09.52,0,.16.09.25.26.25.45v13.54l4.55-2.66v-14.17c0-.18.1-.35.25-.45l3.31-1.93c.16-.09.36-.09.52,0l3.3,1.93c.16.09.25.26.25.45v14.17l4.55,2.65v-13.57c0-.19.1-.36.26-.45.16-.1.36-.1.51,0l5.07,2.97c.16.09.26.26.25.45l.02,14.49Z" />
  </g>
  <g>
    <path class="cls-3"
      d="M241.82,284.62c-1.71,0-3.4-.45-4.88-1.3l-27.41-15.98c-2.88-1.68-4.67-4.78-4.68-8.12v-32.24c0-3.3,1.78-6.38,4.61-8.04l27.39-15.99c1.52-.88,3.23-1.34,4.96-1.34s3.45.46,4.95,1.33l27.4,16c2.85,1.66,4.63,4.75,4.62,8.05v32.23c0,3.34-1.8,6.45-4.68,8.13l-27.38,15.96c-1.51.87-3.2,1.32-4.91,1.32Z" />
    <path class="cls-1"
      d="M271.62,223.28l-27.38-15.99c-1.5-.87-3.35-.87-4.85,0l-27.38,15.99c-1.31.77-2.12,2.18-2.13,3.7v32.23c0,1.56.83,2.99,2.18,3.78l27.38,15.96c1.47.84,3.28.84,4.75,0l27.38-15.96c1.35-.78,2.17-2.22,2.18-3.78v-32.23c0-1.52-.81-2.93-2.13-3.7ZM265.54,254.98c0,.3-.16.58-.42.73l-22.89,13.33c-.13.07-.27.11-.42.11-.15,0-.3-.04-.43-.11l-22.93-13.31c-.27-.15-.43-.44-.43-.74v-23.77c.02-.28.18-.53.43-.67l8.31-4.86c.27-.15.59-.15.86,0,.26.15.41.43.42.73v22.21l7.47-4.37v-23.24c0-.3.16-.58.42-.73l5.43-3.17c.27-.15.59-.15.86,0l5.41,3.17c.26.15.42.43.42.73v23.24l7.47,4.34v-22.26c0-.31.16-.59.43-.74.26-.16.58-.16.84,0l8.31,4.87c.26.15.42.43.42.73l.04,23.77Z" />
  </g>
  <text class="cls-5" transform="translate(207.42 303.85)">
    <tspan x="0" y="0">onprem</tspan>
  </text>
  <g>
    <path class="cls-2"
      d="M165.6,119.65l-12.53-54.41c-.68-2.85-2.61-5.24-5.24-6.52l-47.94-22.89c-4.41-2.11-9.54-2.11-13.95,0l-47.93,22.9c-2.64,1.28-4.56,3.67-5.25,6.52l-12.51,54.41c-.31,1.38-.31,2.8,0,4.18.09.42.21.83.35,1.24.24.69.57,1.35.97,1.96.17.26.35.52.55.76l35.09,43.63c.15.19.32.36.49.54.55.59,1.17,1.1,1.85,1.53.86.54,1.79.95,2.77,1.21.8.22,1.63.33,2.47.34h56.28c.34-.01.68-.03,1.01-.07.48-.05.96-.15,1.43-.27.34-.09.67-.19.99-.32.25-.1.51-.19.75-.31.37-.18.72-.37,1.06-.59.88-.56,1.67-1.25,2.33-2.06l1.07-1.33,34.01-42.31c.65-.82,1.16-1.74,1.52-2.72.15-.4.27-.82.36-1.24.31-1.38.31-2.8,0-4.18h0Z" />
    <path class="cls-3"
      d="M172.21,121.05l-13.67-59.37c-.74-3.11-2.84-5.72-5.72-7.12l-52.55-25.09c-4.66-2.22-10.07-2.22-14.72,0l-52.55,25.1c-2.88,1.39-4.98,4.01-5.72,7.11l-13.64,59.37c-.62,2.76-.1,5.66,1.43,8.04.19.29.39.57.6.84l38.29,47.6c2.03,2.48,5.06,3.93,8.27,3.95h61.4c3.21-.03,6.24-1.48,8.27-3.95l38.27-47.61c1.98-2.5,2.74-5.76,2.04-8.88h0ZM165.6,123.83c-.09.42-.21.83-.36,1.24-.35.98-.86,1.9-1.52,2.72l-34.01,42.31-1.07,1.33c-.66.81-1.45,1.51-2.33,2.06-.34.22-.7.42-1.06.59-.25.11-.5.22-.75.31-.33.12-.66.23-.99.32-.47.13-.95.22-1.43.27-.34.04-.67.06-1.01.06h-55.73s-.55.01-.55.01c-.83,0-1.66-.12-2.47-.34-.98-.26-1.91-.67-2.77-1.21-.68-.43-1.3-.95-1.85-1.53-.17-.18-.34-.35-.49-.54l-35.09-43.63c-.2-.25-.38-.5-.55-.77-.4-.61-.72-1.27-.97-1.96-.15-.4-.26-.82-.35-1.24-.31-1.38-.31-2.8,0-4.18l12.51-54.41c.68-2.85,2.61-5.24,5.25-6.52l47.93-22.9c4.41-2.11,9.54-2.11,13.95,0l47.94,22.89c2.64,1.28,4.56,3.67,5.24,6.52l12.53,54.41c.31,1.37.31,2.8,0,4.18h0Z" />
  </g>
  <g>
    <path class="cls-3"
      d="M92.92,135.73c-1.71,0-3.4-.45-4.88-1.3l-27.41-15.98c-2.88-1.68-4.67-4.78-4.68-8.12v-32.24c0-3.3,1.78-6.38,4.61-8.04l27.39-15.99c1.52-.88,3.23-1.34,4.96-1.34s3.45.46,4.95,1.33l27.4,16c2.85,1.66,4.63,4.75,4.62,8.05v32.23c0,3.34-1.8,6.45-4.68,8.13l-27.38,15.96c-1.51.87-3.2,1.32-4.91,1.32Z" />
    <path class="cls-1"
      d="M122.73,74.39l-27.38-15.99c-1.5-.87-3.35-.87-4.85,0l-27.38,15.99c-1.31.77-2.12,2.18-2.13,3.7v32.23c0,1.56.83,2.99,2.18,3.78l27.38,15.96c1.47.84,3.28.84,4.75,0l27.38-15.96c1.35-.78,2.17-2.22,2.18-3.78v-32.23c0-1.52-.81-2.93-2.13-3.7ZM116.65,106.09c0,.3-.16.58-.42.73l-22.89,13.33c-.13.07-.27.11-.42.11-.15,0-.3-.04-.43-.11l-22.93-13.31c-.27-.15-.43-.44-.43-.74v-23.77c.02-.28.18-.53.43-.67l8.31-4.86c.27-.15.59-.15.86,0,.26.15.41.43.42.73v22.21l7.47-4.37v-23.24c0-.3.16-.58.42-.73l5.43-3.17c.27-.15.59-.15.86,0l5.41,3.17c.26.15.42.43.42.73v23.24l7.47,4.34v-22.26c0-.31.16-.59.43-.74.26-.16.58-.16.84,0l8.31,4.87c.26.15.42.43.42.73l.04,23.77Z" />
  </g>
  <text class="cls-5" transform="translate(58.53 154.96)">
    <tspan x="0" y="0">useast</tspan>
  </text>
  <g>
    <path class="cls-2"
      d="M471.17,119.65l-12.53-54.41c-.68-2.85-2.61-5.24-5.24-6.52l-47.94-22.89c-4.41-2.11-9.54-2.11-13.95,0l-47.93,22.9c-2.64,1.28-4.56,3.67-5.25,6.52l-12.51,54.41c-.31,1.38-.31,2.8,0,4.18.09.42.21.83.35,1.24.24.69.57,1.35.97,1.96.17.26.35.52.55.76l35.09,43.63c.15.19.32.36.49.54.55.59,1.17,1.1,1.85,1.53.86.54,1.79.95,2.77,1.21.8.22,1.63.33,2.47.34h56.28c.34-.01.68-.03,1.01-.07.48-.05.96-.15,1.43-.27.34-.09.67-.19.99-.32.25-.1.51-.19.75-.31.37-.18.72-.37,1.06-.59.88-.56,1.67-1.25,2.33-2.06l1.07-1.33,34.01-42.31c.65-.82,1.16-1.74,1.52-2.72.15-.4.27-.82.36-1.24.31-1.38.31-2.8,0-4.18h0Z" />
    <path class="cls-3"
      d="M477.78,121.05l-13.67-59.37c-.74-3.11-2.84-5.72-5.72-7.12l-52.55-25.09c-4.66-2.22-10.07-2.22-14.72,0l-52.55,25.1c-2.88,1.39-4.98,4.01-5.72,7.11l-13.64,59.37c-.62,2.76-.1,5.66,1.43,8.04.19.29.39.57.6.84l38.29,47.6c2.03,2.48,5.06,3.93,8.27,3.95h61.4c3.21-.03,6.24-1.48,8.27-3.95l38.27-47.61c1.98-2.5,2.74-5.76,2.04-8.88h0ZM471.17,123.83c-.09.42-.21.83-.36,1.24-.35.98-.86,1.9-1.52,2.72l-34.01,42.31-1.07,1.33c-.66.81-1.45,1.51-2.33,2.06-.34.22-.7.42-1.06.59-.25.11-.5.22-.75.31-.33.12-.66.23-.99.32-.47.13-.95.22-1.43.27-.34.04-.67.06-1.01.06h-55.73s-.55.01-.55.01c-.83,0-1.66-.12-2.47-.34-.98-.26-1.91-.67-2.77-1.21-.68-.43-1.3-.95-1.85-1.53-.17-.18-.34-.35-.49-.54l-35.09-43.63c-.2-.25-.38-.5-.55-.77-.4-.61-.72-1.27-.97-1.96-.15-.4-.26-.82-.35-1.24-.31-1.38-.31-2.8,0-4.18l12.51-54.41c.68-2.85,2.61-5.24,5.25-6.52l47.93-22.9c4.41-2.11,9.54-2.11,13.95,0l47.94,22.89c2.64,1.28,4.56,3.67,5.24,6.52l12.53,54.41c.31,1.37.31,2.8,0,4.18h0Z" />
  </g>
  <g>
    <path class="cls-3"
      d="M398.5,135.73c-1.71,0-3.4-.45-4.88-1.3l-27.41-15.98c-2.88-1.68-4.67-4.78-4.68-8.12v-32.24c0-3.3,1.78-6.38,4.61-8.04l27.39-15.99c1.52-.88,3.23-1.34,4.96-1.34s3.45.46,4.95,1.33l27.4,16c2.85,1.66,4.63,4.75,4.62,8.05v32.23c0,3.34-1.8,6.45-4.68,8.13l-27.38,15.96c-1.51.87-3.2,1.32-4.91,1.32Z" />
    <path class="cls-1"
      d="M428.3,74.39l-27.38-15.99c-1.5-.87-3.35-.87-4.85,0l-27.38,15.99c-1.31.77-2.12,2.18-2.13,3.7v32.23c0,1.56.83,2.99,2.18,3.78l27.38,15.96c1.47.84,3.28.84,4.75,0l27.38-15.96c1.35-.78,2.17-2.22,2.18-3.78v-32.23c0-1.52-.81-2.93-2.13-3.7ZM422.22,106.09c0,.3-.16.58-.42.73l-22.89,13.33c-.13.07-.27.11-.42.11-.15,0-.3-.04-.43-.11l-22.93-13.31c-.27-.15-.43-.44-.43-.74v-23.77c.02-.28.18-.53.43-.67l8.31-4.86c.27-.15.59-.15.86,0,.26.15.41.43.42.73v22.21l7.47-4.37v-23.24c0-.3.16-.58.42-.73l5.43-3.17c.27-.15.59-.15.86,0l5.41,3.17c.26.15.42.43.42.73v23.24l7.47,4.34v-22.26c0-.31.16-.59.43-.74.26-.16.58-.16.84,0l8.31,4.87c.26.15.42.43.42.73l.04,23.77Z" />
  </g>
  <text class="cls-5" transform="translate(364.1 154.96)">
    <tspan x="0" y="0">uswest</tspan>
  </text>
</svg>