<svg width="68" height="19" viewBox="0 0 68 19" fill="none" xmlns="http://www.w3.org/2000/svg">
<path d="M1.69895 4.59687C0.887379 4.76313 0.364255 5.55582 0.530521 6.3674C0.696787 7.17897 1.48948 7.70209 2.30105 7.53582L1.69895 4.59687ZM35.8435 2.3012L35.9663 0.806239L35.9663 0.806239L35.8435 2.3012ZM53.8697 6.8842L53.2774 8.26234L53.2774 8.26234L53.8697 6.8842ZM63.3384 13.6381L62.2435 14.6634L62.2435 14.6634L63.3384 13.6381ZM65.8197 17.0437L65.1885 18.4044C65.7218 18.6518 66.3504 18.5649 66.7966 18.182C67.2427 17.7991 67.424 17.1909 67.2604 16.6262L65.8197 17.0437ZM66.7166 5.35821C66.8637 4.54294 66.322 3.76283 65.5067 3.61579C64.6914 3.46876 63.9113 4.01047 63.7643 4.82575L66.7166 5.35821ZM64.6731 10.6533L63.1732 10.6356L63.1732 10.6356L64.6731 10.6533ZM54.0425 13.7332C53.2141 13.7302 52.5401 14.3993 52.537 15.2277C52.534 16.0561 53.2031 16.7302 54.0316 16.7332L54.0425 13.7332ZM2.30105 7.53582C13.7828 5.18358 24.2046 2.8502 35.7207 3.79617L35.9663 0.806239C23.9395 -0.181682 13.0701 2.26727 1.69895 4.59687L2.30105 7.53582ZM35.7207 3.79617C41.3424 4.25796 48.0773 6.02767 53.2774 8.26234L54.4619 5.50606C48.9915 3.15528 41.9406 1.297 35.9663 0.806239L35.7207 3.79617ZM53.2774 8.26234C56.809 9.77995 59.6341 11.8769 62.2435 14.6634L64.4333 12.6128C61.5769 9.56253 58.419 7.20655 54.4619 5.50606L53.2774 8.26234ZM62.2435 14.6634C62.5638 15.0054 63.0623 15.5831 63.5184 16.1816C64.008 16.824 64.3247 17.3315 64.4169 17.5749L67.2225 16.5125C66.9588 15.8161 66.3893 14.9993 65.9044 14.3631C65.3861 13.683 64.8219 13.0278 64.4333 12.6128L62.2435 14.6634ZM63.7643 4.82575C63.2331 7.77118 63.2008 8.301 63.1732 10.6356L66.173 10.671C66.1985 8.5145 66.2129 8.15115 66.7166 5.35821L63.7643 4.82575ZM63.1732 10.6356C63.1465 12.9016 63.7115 15.1581 64.3789 17.4612L67.2604 16.6262C66.5974 14.3383 66.152 12.455 66.173 10.671L63.1732 10.6356ZM66.4509 15.683C61.7999 13.5255 56.6928 13.7429 54.0425 13.7332L54.0316 16.7332C56.8823 16.7436 61.2544 16.5795 65.1885 18.4044L66.4509 15.683Z" fill="#00BC8E"/>
</svg>
