<svg width="69" height="89" viewBox="0 0 69 89" fill="none" xmlns="http://www.w3.org/2000/svg">
<path d="M47.9557 75.6638C52.6118 74.6268 57.525 75.2526 62.1362 74.1549C62.8749 73.979 66.5896 73.1947 66.9817 72.5778C68.0151 70.9523 62.7744 65.2804 61.9898 63.8563C58.2024 56.9819 54.9427 49.7305 51.7727 42.8165C50.0777 39.1196 50.3163 37.3111 49.4947 43.1371C48.8331 47.8287 48.4694 52.6251 47.9834 57.3446C47.7211 59.8921 45.5735 75.367 46.9029 75.3381" stroke="#00BC8E" stroke-width="3" stroke-linecap="round"/>
<path d="M17.6468 46.7216C17.2603 45.9889 16.353 45.7082 15.6203 46.0947C14.8875 46.4812 14.6068 47.3886 14.9933 48.1213L17.6468 46.7216ZM41.0332 45.8385L39.8907 44.8665L41.0332 45.8385ZM43.9029 37.7593L45.1235 36.8875C44.8486 36.5026 44.4083 36.27 43.9354 36.2597L43.9029 37.7593ZM15.9352 44.2202C15.1292 44.4119 14.6313 45.2206 14.8229 46.0265C15.0146 46.8325 15.8233 47.3305 16.6292 47.1388L15.9352 44.2202ZM14.9933 48.1213C16.58 51.1293 17.4821 53.3478 19.6549 58.0555L22.3788 56.7984C20.2605 52.2087 19.2826 49.8228 17.6468 46.7216L14.9933 48.1213ZM19.6549 58.0555C20.6999 60.3197 21.6381 62.4888 22.5738 64.1331C23.4725 65.7124 24.6139 67.2797 26.2951 67.7998L27.1817 64.9338C26.7169 64.79 26.0703 64.2118 25.1812 62.6493C24.329 61.1518 23.4794 59.183 22.3788 56.7984L19.6549 58.0555ZM26.2951 67.7998C27.0114 68.0214 27.6306 67.7489 27.9376 67.5793C28.2877 67.3859 28.6105 67.1157 28.8909 66.8475C29.4607 66.3026 30.0944 65.5322 30.7475 64.6584C32.0652 62.8955 33.6264 60.4873 35.1616 58.0271C36.6985 55.5641 38.243 52.9939 39.5098 50.9234C40.821 48.7805 41.7649 47.2933 42.1757 46.8104L39.8907 44.8665C39.2872 45.5759 38.1918 47.3295 36.9508 49.3577C35.6655 51.4583 34.145 53.9893 32.6164 56.439C31.086 58.8916 29.5812 61.2079 28.3445 62.8624C27.7205 63.6973 27.205 64.3088 26.8175 64.6794C26.6194 64.8689 26.5116 64.9397 26.487 64.9533C26.4194 64.9907 26.7199 64.791 27.1817 64.9338L26.2951 67.7998ZM42.1757 46.8104C42.8968 45.9627 44.1713 44.4469 45.0204 42.7769C45.8268 41.191 46.5415 38.8728 45.1235 36.8875L42.6823 38.6312C43.0521 39.149 43.0585 40.0164 42.3462 41.4173C41.6767 42.7341 40.6224 44.0063 39.8907 44.8665L42.1757 46.8104ZM43.9354 36.2597C42.2781 36.2237 39.5958 36.7059 36.7291 37.4236C33.8119 38.1538 30.538 39.1709 27.6288 40.2934L28.7087 43.0923C31.4944 42.0175 34.6502 41.0365 37.4576 40.3338C40.3154 39.6184 42.6527 39.2325 43.8703 39.259L43.9354 36.2597ZM27.6288 40.2934C21.9158 42.4978 20.5542 43.1218 15.9352 44.2202L16.6292 47.1388C21.4795 45.9854 23.0318 45.2828 28.7087 43.0923L27.6288 40.2934Z" fill="#00BC8E"/>
<path d="M30.3237 2.15323C26.96 3.92751 23.4445 9.24494 21.5155 13.8471C19.5865 18.4493 16.2639 20.4071 16.6995 21.2328C17.1107 22.0124 19.5865 22.0252 21.0169 22.3828C22.4472 22.7404 23.8591 23.242 25.8351 23.7064C27.8111 24.1708 29.828 24.5926 32.4598 25.6012C35.0917 26.6097 39.2525 27.775 41.5443 29.2709C44.7194 31.3435 43.9028 26.3164 38.5699 19.8278C33.2369 13.3392 32.6026 8.14379 29.998 3.20598" stroke="#00BC8E" stroke-width="3" stroke-linecap="round"/>
</svg>
