<svg width="58" height="84" viewBox="0 0 58 84" fill="none" xmlns="http://www.w3.org/2000/svg">
<path d="M29.3233 48.6357C29.1221 47.8321 28.3075 47.3437 27.5039 47.5449C26.7003 47.7461 26.2119 48.5607 26.4131 49.3643L29.3233 48.6357ZM22.7459 64.4769L21.7548 63.351L22.7459 64.4769ZM18.9999 65.7531L18.8081 64.2654C18.0485 64.3633 17.4847 65.0177 17.5002 65.7834C17.5157 66.5491 18.1055 67.1802 18.8684 67.2473L18.9999 65.7531ZM28.3002 80.7307L26.8167 80.9524L26.8482 81.1629L26.937 81.3564L28.3002 80.7307ZM33.126 65.1169L32.1406 63.9861L33.126 65.1169ZM29.9237 49C29.9237 48.1716 29.2521 47.5 28.4237 47.5C27.5952 47.5 26.9237 48.1716 26.9237 49H29.9237ZM26.4131 49.3643C27.7212 54.5888 25.7875 59.8012 21.7548 63.351L23.737 65.6029C28.5068 61.4042 30.9365 55.0789 29.3233 48.6357L26.4131 49.3643ZM21.7548 63.351C21.526 63.5523 20.9171 63.8056 20.1102 64.0091C19.7528 64.0992 19.421 64.1643 19.1781 64.2069C19.0574 64.228 18.9606 64.2432 18.8959 64.2529C18.8636 64.2577 18.8394 64.2611 18.8244 64.2632C18.8169 64.2642 18.8117 64.2649 18.8089 64.2653C18.8076 64.2655 18.8068 64.2656 18.8066 64.2656C18.8066 64.2656 18.8067 64.2656 18.8069 64.2656C18.807 64.2656 18.8072 64.2655 18.8074 64.2655C18.8075 64.2655 18.8077 64.2655 18.8077 64.2655C18.8079 64.2654 18.8081 64.2654 18.9999 65.7531C19.1917 67.2408 19.1919 67.2408 19.1922 67.2407C19.1922 67.2407 19.1925 67.2407 19.1927 67.2407C19.193 67.2406 19.1934 67.2406 19.1939 67.2405C19.1948 67.2404 19.1958 67.2402 19.1971 67.2401C19.1995 67.2398 19.2026 67.2394 19.2064 67.2389C19.2138 67.2379 19.2239 67.2365 19.2363 67.2348C19.2613 67.2313 19.2959 67.2264 19.3392 67.2199C19.4257 67.207 19.5474 67.1878 19.6954 67.1619C19.9898 67.1104 20.3966 67.0307 20.8437 66.918C21.6458 66.7157 22.9099 66.3309 23.737 65.6029L21.7548 63.351ZM18.9999 65.7531C18.8684 67.2473 18.868 67.2473 18.8677 67.2473C18.8676 67.2473 18.8673 67.2472 18.8671 67.2472C18.8668 67.2472 18.8665 67.2472 18.8662 67.2471C18.8657 67.2471 18.8655 67.2471 18.8654 67.2471C18.8652 67.247 18.8659 67.2471 18.8674 67.2472C18.8705 67.2475 18.8768 67.2482 18.8862 67.2491C18.905 67.2511 18.9363 67.2545 18.9788 67.2596C19.0638 67.2699 19.193 67.2871 19.3564 67.3135C19.6847 67.3664 20.1426 67.4552 20.6532 67.5964C21.7161 67.8905 22.8241 68.363 23.5412 69.0573L25.6281 66.9021C24.3741 65.6879 22.6898 65.0471 21.4531 64.705C20.8139 64.5282 20.2451 64.4181 19.8343 64.3518C19.6281 64.3185 19.4595 64.2959 19.3393 64.2814C19.2791 64.2741 19.2308 64.2688 19.1957 64.2651C19.1782 64.2633 19.164 64.2619 19.1532 64.2609C19.1478 64.2604 19.1433 64.26 19.1397 64.2596C19.1379 64.2595 19.1363 64.2593 19.1349 64.2592C19.1342 64.2591 19.1336 64.2591 19.133 64.259C19.1327 64.259 19.1323 64.259 19.1322 64.2589C19.1318 64.2589 19.1314 64.2589 18.9999 65.7531ZM23.5412 69.0573C24.5719 70.0553 25.0634 70.5458 25.3923 71.0957C25.6866 71.5876 25.8982 72.2198 26.051 73.5574L29.0316 73.217C28.8574 71.6919 28.5763 70.5745 27.9668 69.5556C27.3919 68.5945 26.5685 67.8126 25.6281 66.9021L23.5412 69.0573ZM26.051 73.5574C26.3553 76.2227 26.3867 78.0758 26.8167 80.9524L29.7837 80.5089C29.3497 77.6052 29.3811 76.2774 29.0316 73.217L26.051 73.5574ZM26.937 81.3564C26.8629 81.1951 26.8506 81.0771 26.8605 81.1342C26.8632 81.15 26.8688 81.1893 26.8755 81.2566C26.8888 81.389 26.8991 81.5548 26.907 81.7117C26.912 81.8112 26.9215 82.0401 26.9228 82.064C26.9233 82.0725 26.9246 82.096 26.9269 82.1231C26.9276 82.1315 26.9309 82.1711 26.9382 82.2203C26.9406 82.236 26.9513 82.3095 26.9765 82.4005C26.9861 82.4351 27.0205 82.5587 27.097 82.7029C27.1418 82.7816 27.2776 82.9697 27.3742 83.0732C27.5473 83.2185 28.0464 83.4522 28.3704 83.4991C28.7108 83.472 29.2551 83.2475 29.4507 83.0918C29.5592 82.9784 29.7092 82.7704 29.7576 82.6831C29.8381 82.5258 29.8709 82.3906 29.8794 82.3556C29.9029 82.2597 29.9112 82.1823 29.913 82.1668C29.9187 82.1162 29.9205 82.0755 29.9209 82.067C29.9223 82.0392 29.9227 82.0149 29.9229 82.0054C29.9236 81.9628 29.9237 81.8921 29.9237 81.8063H26.9237C26.9237 81.8516 26.9236 81.8865 26.9235 81.9128C26.9235 81.9259 26.9234 81.936 26.9234 81.9437C26.9234 81.9475 26.9233 81.9504 26.9233 81.9524C26.9233 81.9546 26.9233 81.9554 26.9233 81.9551C26.9233 81.9551 26.9233 81.9527 26.9234 81.9487C26.9235 81.9455 26.9238 81.9361 26.9244 81.9234C26.9246 81.9181 26.9263 81.8799 26.9319 81.8308C26.9335 81.8161 26.9418 81.7393 26.9651 81.6438C26.9736 81.609 27.0064 81.474 27.0868 81.3168C27.1352 81.2295 27.2852 81.0216 27.3936 80.9082C27.5892 80.7525 28.1334 80.528 28.4739 80.5009C28.7978 80.5478 29.2969 80.7815 29.47 80.9267C29.5665 81.0303 29.7023 81.2183 29.7471 81.2969C29.8236 81.441 29.8579 81.5645 29.8674 81.5989C29.8926 81.6895 29.9031 81.7624 29.9054 81.7774C29.9125 81.825 29.9155 81.8622 29.916 81.8676C29.9171 81.8802 29.9177 81.8895 29.9179 81.8928C29.9182 81.8969 29.9183 81.8995 29.9183 81.8998C29.9183 81.9003 29.9182 81.898 29.9179 81.8915C29.9176 81.8854 29.9173 81.8776 29.9169 81.8675C29.916 81.8462 29.915 81.8226 29.9136 81.7906C29.9111 81.7292 29.9077 81.65 29.9032 81.5617C29.8946 81.3897 29.8814 81.1652 29.8606 80.9581C29.8504 80.8557 29.8365 80.7381 29.8167 80.6236C29.8041 80.5504 29.7663 80.3289 29.6635 80.1049L26.937 81.3564ZM29.9237 81.8063C29.9237 81.8042 29.9237 81.8021 29.9237 81.8C29.9237 81.7979 29.9237 81.7958 29.9237 81.7937C29.9237 81.7916 29.9237 81.7895 29.9237 81.7874C29.9237 81.7853 29.9237 81.7832 29.9237 81.7811C29.9237 81.779 29.9237 81.7769 29.9237 81.7748C29.9237 81.7727 29.9237 81.7706 29.9237 81.7685C29.9237 81.7664 29.9237 81.7643 29.9237 81.7622C29.9237 81.7601 29.9237 81.758 29.9237 81.7559C29.9237 81.7538 29.9237 81.7517 29.9237 81.7496C29.9237 81.7475 29.9237 81.7454 29.9237 81.7434C29.9237 81.7413 29.9237 81.7392 29.9237 81.7371C29.9237 81.735 29.9237 81.7329 29.9237 81.7308C29.9237 81.7287 29.9237 81.7266 29.9237 81.7245C29.9237 81.7224 29.9237 81.7203 29.9237 81.7182C29.9237 81.7161 29.9237 81.714 29.9237 81.7119C29.9237 81.7099 29.9237 81.7078 29.9237 81.7057C29.9237 81.7036 29.9237 81.7015 29.9237 81.6994C29.9237 81.6973 29.9237 81.6952 29.9237 81.6931C29.9237 81.691 29.9237 81.6889 29.9237 81.6869C29.9237 81.6848 29.9237 81.6827 29.9237 81.6806C29.9237 81.6785 29.9237 81.6764 29.9237 81.6743C29.9237 81.6722 29.9237 81.6702 29.9237 81.6681C29.9237 81.666 29.9237 81.6639 29.9237 81.6618C29.9237 81.6597 29.9237 81.6576 29.9237 81.6555C29.9237 81.6535 29.9237 81.6514 29.9237 81.6493C29.9237 81.6472 29.9237 81.6451 29.9237 81.643C29.9237 81.6409 29.9237 81.6389 29.9237 81.6368C29.9237 81.6347 29.9237 81.6326 29.9237 81.6305C29.9237 81.6284 29.9237 81.6263 29.9237 81.6243C29.9237 81.6222 29.9237 81.6201 29.9237 81.618C29.9237 81.6159 29.9237 81.6138 29.9237 81.6118C29.9237 81.6097 29.9237 81.6076 29.9237 81.6055C29.9237 81.6034 29.9237 81.6013 29.9237 81.5993C29.9237 81.5972 29.9237 81.5951 29.9237 81.593C29.9237 81.5909 29.9237 81.5889 29.9237 81.5868C29.9237 81.5847 29.9237 81.5826 29.9237 81.5805C29.9237 81.5785 29.9237 81.5764 29.9237 81.5743C29.9237 81.5722 29.9237 81.5701 29.9237 81.5681C29.9237 81.566 29.9237 81.5639 29.9237 81.5618C29.9237 81.5597 29.9237 81.5577 29.9237 81.5556C29.9237 81.5535 29.9237 81.5514 29.9237 81.5494C29.9237 81.5473 29.9237 81.5452 29.9237 81.5431C29.9237 81.541 29.9237 81.539 29.9237 81.5369C29.9237 81.5348 29.9237 81.5327 29.9237 81.5307C29.9237 81.5286 29.9237 81.5265 29.9237 81.5244C29.9237 81.5224 29.9237 81.5203 29.9237 81.5182C29.9237 81.5161 29.9237 81.5141 29.9237 81.512C29.9237 81.5099 29.9237 81.5078 29.9237 81.5058C29.9237 81.5037 29.9237 81.5016 29.9237 81.4995C29.9237 81.4975 29.9237 81.4954 29.9237 81.4933C29.9237 81.4913 29.9237 81.4892 29.9237 81.4871C29.9237 81.485 29.9237 81.483 29.9237 81.4809C29.9237 81.4788 29.9237 81.4768 29.9237 81.4747C29.9237 81.4726 29.9237 81.4705 29.9237 81.4685C29.9237 81.4664 29.9237 81.4643 29.9237 81.4623C29.9237 81.4602 29.9237 81.4581 29.9237 81.4561C29.9237 81.454 29.9237 81.4519 29.9237 81.4498C29.9237 81.4478 29.9237 81.4457 29.9237 81.4436C29.9237 81.4416 29.9237 81.4395 29.9237 81.4374C29.9237 81.4354 29.9237 81.4333 29.9237 81.4312C29.9237 81.4292 29.9237 81.4271 29.9237 81.425C29.9237 81.423 29.9237 81.4209 29.9237 81.4188C29.9237 81.4168 29.9237 81.4147 29.9237 81.4126C29.9237 81.4106 29.9237 81.4085 29.9237 81.4064C29.9237 81.4044 29.9237 81.4023 29.9237 81.4002C29.9237 81.3982 29.9237 81.3961 29.9237 81.394C29.9237 81.392 29.9237 81.3899 29.9237 81.3878C29.9237 81.3858 29.9237 81.3837 29.9237 81.3817C29.9237 81.3796 29.9237 81.3775 29.9237 81.3755C29.9237 81.3734 29.9237 81.3713 29.9237 81.3693C29.9237 81.3672 29.9237 81.3652 29.9237 81.3631C29.9237 81.361 29.9237 81.359 29.9237 81.3569C29.9237 81.3548 29.9237 81.3528 29.9237 81.3507C29.9237 81.3487 29.9237 81.3466 29.9237 81.3445C29.9237 81.3425 29.9237 81.3404 29.9237 81.3384C29.9237 81.3363 29.9237 81.3342 29.9237 81.3322C29.9237 81.3301 29.9237 81.3281 29.9237 81.326C29.9237 81.3239 29.9237 81.3219 29.9237 81.3198C29.9237 81.3178 29.9237 81.3157 29.9237 81.3136C29.9237 81.3116 29.9237 81.3095 29.9237 81.3075C29.9237 81.3054 29.9237 81.3034 29.9237 81.3013C29.9237 81.2992 29.9237 81.2972 29.9237 81.2951C29.9237 81.2931 29.9237 81.291 29.9237 81.289C29.9237 81.2869 29.9237 81.2848 29.9237 81.2828C29.9237 81.2807 29.9237 81.2787 29.9237 81.2766C29.9237 81.2746 29.9237 81.2725 29.9237 81.2705C29.9237 81.2684 29.9237 81.2663 29.9237 81.2643C29.9237 81.2622 29.9237 81.2602 29.9237 81.2581C29.9237 81.2561 29.9237 81.254 29.9237 81.252C29.9237 81.2499 29.9237 81.2479 29.9237 81.2458C29.9237 81.2437 29.9237 81.2417 29.9237 81.2396C29.9237 81.2376 29.9237 81.2355 29.9237 81.2335C29.9237 81.2314 29.9237 81.2294 29.9237 81.2273C29.9237 81.2253 29.9237 81.2232 29.9237 81.2212C29.9237 81.2191 29.9237 81.2171 29.9237 81.215C29.9237 81.213 29.9237 81.2109 29.9237 81.2089C29.9237 81.2068 29.9237 81.2048 29.9237 81.2027C29.9237 81.2007 29.9237 81.1986 29.9237 81.1966C29.9237 81.1945 29.9237 81.1925 29.9237 81.1904C29.9237 81.1884 29.9237 81.1863 29.9237 81.1843C29.9237 81.1822 29.9237 81.1802 29.9237 81.1781C29.9237 81.1761 29.9237 81.174 29.9237 81.172C29.9237 81.1699 29.9237 81.1679 29.9237 81.1658C29.9237 81.1638 29.9237 81.1617 29.9237 81.1597C29.9237 81.1576 29.9237 81.1556 29.9237 81.1535C29.9237 81.1515 29.9237 81.1495 29.9237 81.1474C29.9237 81.1454 29.9237 81.1433 29.9237 81.1413C29.9237 81.1392 29.9237 81.1372 29.9237 81.1351C29.9237 81.1331 29.9237 81.131 29.9237 81.129C29.9237 81.127 29.9237 81.1249 29.9237 81.1229C29.9237 81.1208 29.9237 81.1188 29.9237 81.1167C29.9237 81.1147 29.9237 81.1126 29.9237 81.1106C29.9237 81.1086 29.9237 81.1065 29.9237 81.1045C29.9237 81.1024 29.9237 81.1004 29.9237 81.0983C29.9237 81.0963 29.9237 81.0943 29.9237 81.0922C29.9237 81.0902 29.9237 81.0881 29.9237 81.0861C29.9237 81.084 29.9237 81.082 29.9237 81.08C29.9237 81.0779 29.9237 81.0759 29.9237 81.0738C29.9237 81.0718 29.9237 81.0697 29.9237 81.0677C29.9237 81.0657 29.9237 81.0636 29.9237 81.0616C29.9237 81.0595 29.9237 81.0575 29.9237 81.0555C29.9237 81.0534 29.9237 81.0514 29.9237 81.0493C29.9237 81.0473 29.9237 81.0453 29.9237 81.0432C29.9237 81.0412 29.9237 81.0391 29.9237 81.0371C29.9237 81.0351 29.9237 81.033 29.9237 81.031C29.9237 81.0289 29.9237 81.0269 29.9237 81.0249C29.9237 81.0228 29.9237 81.0208 29.9237 81.0188C29.9237 81.0167 29.9237 81.0147 29.9237 81.0126C29.9237 81.0106 29.9237 81.0086 29.9237 81.0065C29.9237 81.0045 29.9237 81.0025 29.9237 81.0004C29.9237 80.9984 29.9237 80.9963 29.9237 80.9943C29.9237 80.9923 29.9237 80.9902 29.9237 80.9882C29.9237 80.9862 29.9237 80.9841 29.9237 80.9821C29.9237 80.9801 29.9237 80.978 29.9237 80.976C29.9237 80.974 29.9237 80.9719 29.9237 80.9699C29.9237 80.9678 29.9237 80.9658 29.9237 80.9638C29.9237 80.9617 29.9237 80.9597 29.9237 80.9577C29.9237 80.9556 29.9237 80.9536 29.9237 80.9516C29.9237 80.9495 29.9237 80.9475 29.9237 80.9455C29.9237 80.9434 29.9237 80.9414 29.9237 80.9394C29.9237 80.9373 29.9237 80.9353 29.9237 80.9333C29.9237 80.9312 29.9237 80.9292 29.9237 80.9272C29.9237 80.9251 29.9237 80.9231 29.9237 80.9211C29.9237 80.919 29.9237 80.917 29.9237 80.915C29.9237 80.913 29.9237 80.9109 29.9237 80.9089C29.9237 80.9069 29.9237 80.9048 29.9237 80.9028C29.9237 80.9008 29.9237 80.8987 29.9237 80.8967C29.9237 80.8947 29.9237 80.8926 29.9237 80.8906C29.9237 80.8886 29.9237 80.8865 29.9237 80.8845C29.9237 80.8825 29.9237 80.8805 29.9237 80.8784C29.9237 80.8764 29.9237 80.8744 29.9237 80.8723C29.9237 80.8703 29.9237 80.8683 29.9237 80.8663C29.9237 80.8642 29.9237 80.8622 29.9237 80.8602C29.9237 80.8581 29.9237 80.8561 29.9237 80.8541C29.9237 80.8521 29.9237 80.85 29.9237 80.848C29.9237 80.846 29.9237 80.8439 29.9237 80.8419C29.9237 80.8399 29.9237 80.8379 29.9237 80.8358C29.9237 80.8338 29.9237 80.8318 29.9237 80.8298C29.9237 80.8277 29.9237 80.8257 29.9237 80.8237C29.9237 80.8216 29.9237 80.8196 29.9237 80.8176C29.9237 80.8156 29.9237 80.8135 29.9237 80.8115C29.9237 80.8095 29.9237 80.8075 29.9237 80.8054C29.9237 80.8034 29.9237 80.8014 29.9237 80.7994C29.9237 80.7973 29.9237 80.7953 29.9237 80.7933C29.9237 80.7913 29.9237 80.7892 29.9237 80.7872C29.9237 80.7852 29.9237 80.7832 29.9237 80.7811C29.9237 80.7791 29.9237 80.7771 29.9237 80.7751C29.9237 80.773 29.9237 80.771 29.9237 80.769C29.9237 80.767 29.9237 80.7649 29.9237 80.7629C29.9237 80.7609 29.9237 80.7589 29.9237 80.7568C29.9237 80.7548 29.9237 80.7528 29.9237 80.7508C29.9237 80.7488 29.9237 80.7467 29.9237 80.7447C29.9237 80.7427 29.9237 80.7407 29.9237 80.7386C29.9237 80.7366 29.9237 80.7346 29.9237 80.7326C29.9237 80.7306 29.9237 80.7285 29.9237 80.7265C29.9237 80.7245 29.9237 80.7225 29.9237 80.7204C29.9237 80.7184 29.9237 80.7164 29.9237 80.7144C29.9237 80.7124 29.9237 80.7103 29.9237 80.7083C29.9237 80.7063 29.9237 80.7043 29.9237 80.7023C29.9237 80.7002 29.9237 80.6982 29.9237 80.6962C29.9237 80.6942 29.9237 80.6922 29.9237 80.6901C29.9237 80.6881 29.9237 80.6861 29.9237 80.6841C29.9237 80.6821 29.9237 80.68 29.9237 80.678C29.9237 80.676 29.9237 80.674 29.9237 80.672C29.9237 80.6699 29.9237 80.6679 29.9237 80.6659C29.9237 80.6639 29.9237 80.6619 29.9237 80.6598C29.9237 80.6578 29.9237 80.6558 29.9237 80.6538C29.9237 80.6518 29.9237 80.6498 29.9237 80.6477C29.9237 80.6457 29.9237 80.6437 29.9237 80.6417C29.9237 80.6397 29.9237 80.6376 29.9237 80.6356C29.9237 80.6336 29.9237 80.6316 29.9237 80.6296C29.9237 80.6276 29.9237 80.6255 29.9237 80.6235C29.9237 80.6215 29.9237 80.6195 29.9237 80.6175C29.9237 80.6155 29.9237 80.6134 29.9237 80.6114C29.9237 80.6094 29.9237 80.6074 29.9237 80.6054C29.9237 80.6034 29.9237 80.6013 29.9237 80.5993C29.9237 80.5973 29.9237 80.5953 29.9237 80.5933C29.9237 80.5913 29.9237 80.5893 29.9237 80.5872C29.9237 80.5852 29.9237 80.5832 29.9237 80.5812C29.9237 80.5792 29.9237 80.5772 29.9237 80.5751C29.9237 80.5731 29.9237 80.5711 29.9237 80.5691C29.9237 80.5671 29.9237 80.5651 29.9237 80.5631C29.9237 80.561 29.9237 80.559 29.9237 80.557C29.9237 80.555 29.9237 80.553 29.9237 80.551C29.9237 80.549 29.9237 80.5469 29.9237 80.5449C29.9237 80.5429 29.9237 80.5409 29.9237 80.5389C29.9237 80.5369 29.9237 80.5349 29.9237 80.5329C29.9237 80.5308 29.9237 80.5288 29.9237 80.5268C29.9237 80.5248 29.9237 80.5228 29.9237 80.5208C29.9237 80.5188 29.9237 80.5168 29.9237 80.5147C29.9237 80.5127 29.9237 80.5107 29.9237 80.5087C29.9237 80.5067 29.9237 80.5047 29.9237 80.5027C29.9237 80.5007 29.9237 80.4986 29.9237 80.4966C29.9237 80.4946 29.9237 80.4926 29.9237 80.4906C29.9237 80.4886 29.9237 80.4866 29.9237 80.4846C29.9237 80.4825 29.9237 80.4805 29.9237 80.4785C29.9237 80.4765 29.9237 80.4745 29.9237 80.4725C29.9237 80.4705 29.9237 80.4685 29.9237 80.4665C29.9237 80.4645 29.9237 80.4624 29.9237 80.4604C29.9237 80.4584 29.9237 80.4564 29.9237 80.4544C29.9237 80.4524 29.9237 80.4504 29.9237 80.4484C29.9237 80.4464 29.9237 80.4443 29.9237 80.4423C29.9237 80.4403 29.9237 80.4383 29.9237 80.4363C29.9237 80.4343 29.9237 80.4323 29.9237 80.4303C29.9237 80.4283 29.9237 80.4263 29.9237 80.4243C29.9237 80.4222 29.9237 80.4202 29.9237 80.4182C29.9237 80.4162 29.9237 80.4142 29.9237 80.4122C29.9237 80.4102 29.9237 80.4082 29.9237 80.4062C29.9237 80.4042 29.9237 80.4022 29.9237 80.4002C29.9237 80.3981 29.9237 80.3961 29.9237 80.3941C29.9237 80.3921 29.9237 80.3901 29.9237 80.3881C29.9237 80.3861 29.9237 80.3841 29.9237 80.3821C29.9237 80.3801 29.9237 80.3781 29.9237 80.3761C29.9237 80.374 29.9237 80.372 29.9237 80.37C29.9237 80.368 29.9237 80.366 29.9237 80.364C29.9237 80.362 29.9237 80.36 29.9237 80.358C29.9237 80.356 29.9237 80.354 29.9237 80.352C29.9237 80.35 29.9237 80.348 29.9237 80.3459C29.9237 80.3439 29.9237 80.3419 29.9237 80.3399C29.9237 80.3379 29.9237 80.3359 29.9237 80.3339C29.9237 80.3319 29.9237 80.3299 29.9237 80.3279C29.9237 80.3259 29.9237 80.3239 29.9237 80.3219C29.9237 80.3199 29.9237 80.3179 29.9237 80.3159C29.9237 80.3139 29.9237 80.3118 29.9237 80.3098C29.9237 80.3078 29.9237 80.3058 29.9237 80.3038C29.9237 80.3018 29.9237 80.2998 29.9237 80.2978C29.9237 80.2958 29.9237 80.2938 29.9237 80.2918C29.9237 80.2898 29.9237 80.2878 29.9237 80.2858C29.9237 80.2838 29.9237 80.2818 29.9237 80.2798C29.9237 80.2778 29.9237 80.2758 29.9237 80.2738C29.9237 80.2717 29.9237 80.2697 29.9237 80.2677C29.9237 80.2657 29.9237 80.2637 29.9237 80.2617C29.9237 80.2597 29.9237 80.2577 29.9237 80.2557C29.9237 80.2537 29.9237 80.2517 29.9237 80.2497C29.9237 80.2477 29.9237 80.2457 29.9237 80.2437C29.9237 80.2417 29.9237 80.2397 29.9237 80.2377C29.9237 80.2357 29.9237 80.2337 29.9237 80.2317C29.9237 80.2297 29.9237 80.2277 29.9237 80.2257C29.9237 80.2237 29.9237 80.2217 29.9237 80.2196C29.9237 80.2176 29.9237 80.2156 29.9237 80.2136C29.9237 80.2116 29.9237 80.2096 29.9237 80.2076C29.9237 80.2056 29.9237 80.2036 29.9237 80.2016C29.9237 80.1996 29.9237 80.1976 29.9237 80.1956C29.9237 80.1936 29.9237 80.1916 29.9237 80.1896C29.9237 80.1876 29.9237 80.1856 29.9237 80.1836C29.9237 80.1816 29.9237 80.1796 29.9237 80.1776C29.9237 80.1756 29.9237 80.1736 29.9237 80.1716C29.9237 80.1696 29.9237 80.1676 29.9237 80.1656C29.9237 80.1636 29.9237 80.1616 29.9237 80.1596C29.9237 80.1576 29.9237 80.1556 29.9237 80.1536C29.9237 80.1516 29.9237 80.1496 29.9237 80.1476C29.9237 80.1456 29.9237 80.1436 29.9237 80.1416C29.9237 80.1396 29.9237 80.1376 29.9237 80.1356C29.9237 80.1336 29.9237 80.1316 29.9237 80.1296C29.9237 80.1276 29.9237 80.1256 29.9237 80.1236C29.9237 80.1216 29.9237 80.1196 29.9237 80.1175C29.9237 80.1155 29.9237 80.1135 29.9237 80.1115C29.9237 80.1095 29.9237 80.1075 29.9237 80.1055C29.9237 80.1035 29.9237 80.1015 29.9237 80.0995C29.9237 80.0975 29.9237 80.0955 29.9237 80.0935C29.9237 80.0915 29.9237 80.0895 29.9237 80.0875C29.9237 80.0855 29.9237 80.0835 29.9237 80.0815C29.9237 80.0795 29.9237 80.0775 29.9237 80.0755C29.9237 80.0735 29.9237 80.0715 29.9237 80.0695C29.9237 80.0675 29.9237 80.0655 29.9237 80.0635C29.9237 80.0615 29.9237 80.0595 29.9237 80.0575C29.9237 80.0555 29.9237 80.0535 29.9237 80.0515C29.9237 80.0495 29.9237 80.0475 29.9237 80.0455C29.9237 80.0435 29.9237 80.0415 29.9237 80.0395C29.9237 80.0375 29.9237 80.0355 29.9237 80.0335C29.9237 80.0315 29.9237 80.0295 29.9237 80.0275C29.9237 80.0255 29.9237 80.0235 29.9237 80.0215C29.9237 80.0195 29.9237 80.0175 29.9237 80.0156C29.9237 80.0136 29.9237 80.0116 29.9237 80.0096C29.9237 80.0076 29.9237 80.0056 29.9237 80.0036C29.9237 80.0016 29.9237 79.9996 29.9237 79.9976C29.9237 79.9956 29.9237 79.9936 29.9237 79.9916C29.9237 79.9896 29.9237 79.9876 29.9237 79.9856C29.9237 79.9836 29.9237 79.9816 29.9237 79.9796C29.9237 79.9776 29.9237 79.9756 29.9237 79.9736C29.9237 79.9716 29.9237 79.9696 29.9237 79.9676C29.9237 79.9656 29.9237 79.9636 29.9237 79.9616C29.9237 79.9596 29.9237 79.9576 29.9237 79.9556C29.9237 79.9536 29.9237 79.9516 29.9237 79.9496C29.9237 79.9476 29.9237 79.9456 29.9237 79.9436C29.9237 79.9416 29.9237 79.9396 29.9237 79.9376C29.9237 79.9356 29.9237 79.9336 29.9237 79.9316C29.9237 79.9296 29.9237 79.9276 29.9237 79.9256C29.9237 79.9236 29.9237 79.9216 29.9237 79.9196C29.9237 79.9176 29.9237 79.9156 29.9237 79.9136C29.9237 79.9116 29.9237 79.9096 29.9237 79.9076C29.9237 79.9056 29.9237 79.9036 29.9237 79.9016C29.9237 79.8996 29.9237 79.8976 29.9237 79.8956C29.9237 79.8936 29.9237 79.8917 29.9237 79.8897C29.9237 79.8877 29.9237 79.8857 29.9237 79.8837C29.9237 79.8817 29.9237 79.8797 29.9237 79.8777C29.9237 79.8757 29.9237 79.8737 29.9237 79.8717C29.9237 79.8697 29.9237 79.8677 29.9237 79.8657C29.9237 79.8637 29.9237 79.8617 29.9237 79.8597C29.9237 79.8577 29.9237 79.8557 29.9237 79.8537C29.9237 79.8517 29.9237 79.8497 29.9237 79.8477C29.9237 79.8457 29.9237 79.8437 29.9237 79.8417C29.9237 79.8397 29.9237 79.8377 29.9237 79.8357C29.9237 79.8337 29.9237 79.8317 29.9237 79.8297C29.9237 79.8277 29.9237 79.8257 29.9237 79.8237C29.9237 79.8217 29.9237 79.8197 29.9237 79.8177C29.9237 79.8157 29.9237 79.8137 29.9237 79.8118C29.9237 79.8098 29.9237 79.8078 29.9237 79.8058C29.9237 79.8038 29.9237 79.8018 29.9237 79.7998C29.9237 79.7978 29.9237 79.7958 29.9237 79.7938C29.9237 79.7918 29.9237 79.7898 29.9237 79.7878C29.9237 79.7858 29.9237 79.7838 29.9237 79.7818C29.9237 79.7798 29.9237 79.7778 29.9237 79.7758C29.9237 79.7738 29.9237 79.7718 29.9237 79.7698C29.9237 79.7678 29.9237 79.7658 29.9237 79.7638C29.9237 79.7618 29.9237 79.7598 29.9237 79.7578C29.9237 79.7558 29.9237 79.7538 29.9237 79.7518C29.9237 79.7498 29.9237 79.7478 29.9237 79.7458C29.9237 79.7438 29.9237 79.7419 29.9237 79.7399C29.9237 79.7379 29.9237 79.7359 29.9237 79.7339C29.9237 79.7319 29.9237 79.7299 29.9237 79.7279C29.9237 79.7259 29.9237 79.7239 29.9237 79.7219C29.9237 79.7199 29.9237 79.7179 29.9237 79.7159C29.9237 79.7139 29.9237 79.7119 29.9237 79.7099C29.9237 79.7079 29.9237 79.7059 29.9237 79.7039C29.9237 79.7019 29.9237 79.6999 29.9237 79.6979C29.9237 79.6959 29.9237 79.6939 29.9237 79.6919C29.9237 79.6899 29.9237 79.6879 29.9237 79.6859C29.9237 79.6839 29.9237 79.6819 29.9237 79.6799C29.9237 79.6779 29.9237 79.6759 29.9237 79.674C29.9237 79.672 29.9237 79.67 29.9237 79.668C29.9237 79.666 29.9237 79.664 29.9237 79.662C29.9237 79.66 29.9237 79.658 29.9237 79.656C29.9237 79.654 29.9237 79.652 29.9237 79.65C29.9237 79.648 29.9237 79.646 29.9237 79.644C29.9237 79.642 29.9237 79.64 29.9237 79.638C29.9237 79.636 29.9237 79.634 29.9237 79.632C29.9237 79.63 29.9237 79.628 29.9237 79.626C29.9237 79.624 29.9237 79.622 29.9237 79.62C29.9237 79.618 29.9237 79.616 29.9237 79.614C29.9237 79.612 29.9237 79.61 29.9237 79.608C29.9237 79.606 29.9237 79.604 29.9237 79.602C29.9237 79.6001 29.9237 79.5981 29.9237 79.5961C29.9237 79.5941 29.9237 79.5921 29.9237 79.5901C29.9237 79.5881 29.9237 79.5861 29.9237 79.5841C29.9237 79.5821 29.9237 79.5801 29.9237 79.5781C29.9237 79.5761 29.9237 79.5741 29.9237 79.5721C29.9237 79.5701 29.9237 79.5681 29.9237 79.5661C29.9237 79.5641 29.9237 79.5621 29.9237 79.5601C29.9237 79.5581 29.9237 79.5561 29.9237 79.5541C29.9237 79.5521 29.9237 79.5501 29.9237 79.5481C29.9237 79.5461 29.9237 79.5441 29.9237 79.5421C29.9237 79.5401 29.9237 79.5381 29.9237 79.5361C29.9237 79.5341 29.9237 79.5321 29.9237 79.5301C29.9237 79.5281 29.9237 79.5261 29.9237 79.5241C29.9237 79.5221 29.9237 79.5201 29.9237 79.5181C29.9237 79.5161 29.9237 79.5141 29.9237 79.5121C29.9237 79.5102 29.9237 79.5082 29.9237 79.5062C29.9237 79.5042 29.9237 79.5022 29.9237 79.5002C29.9237 79.4982 29.9237 79.4962 29.9237 79.4942C29.9237 79.4922 29.9237 79.4902 29.9237 79.4882C29.9237 79.4862 29.9237 79.4842 29.9237 79.4822C29.9237 79.4802 29.9237 79.4782 29.9237 79.4762C29.9237 79.4742 29.9237 79.4722 29.9237 79.4702C29.9237 79.4682 29.9237 79.4662 29.9237 79.4642C29.9237 79.4622 29.9237 79.4602 29.9237 79.4582C29.9237 79.4562 29.9237 79.4542 29.9237 79.4522C29.9237 79.4502 29.9237 79.4482 29.9237 79.4462C29.9237 79.4442 29.9237 79.4422 29.9237 79.4402C29.9237 79.4382 29.9237 79.4362 29.9237 79.4342C29.9237 79.4322 29.9237 79.4302 29.9237 79.4282C29.9237 79.4262 29.9237 79.4242 29.9237 79.4222C29.9237 79.4202 29.9237 79.4182 29.9237 79.4162C29.9237 79.4142 29.9237 79.4122 29.9237 79.4102C29.9237 79.4082 29.9237 79.4062 29.9237 79.4042C29.9237 79.4022 29.9237 79.4002 29.9237 79.3982C29.9237 79.3962 29.9237 79.3942 29.9237 79.3922C29.9237 79.3902 29.9237 79.3882 29.9237 79.3862C29.9237 79.3842 29.9237 79.3822 29.9237 79.3802C29.9237 79.3782 29.9237 79.3762 29.9237 79.3742C29.9237 79.3722 29.9237 79.3702 29.9237 79.3682C29.9237 79.3662 29.9237 79.3642 29.9237 79.3622C29.9237 79.3602 29.9237 79.3582 29.9237 79.3562C29.9237 79.3542 29.9237 79.3522 29.9237 79.3502C29.9237 79.3482 29.9237 79.3462 29.9237 79.3442C29.9237 79.3422 29.9237 79.3402 29.9237 79.3382C29.9237 79.3362 29.9237 79.3342 29.9237 79.3322C29.9237 79.3302 29.9237 79.3282 29.9237 79.3262C29.9237 79.3242 29.9237 79.3222 29.9237 79.3202C29.9237 79.3182 29.9237 79.3162 29.9237 79.3142C29.9237 79.3122 29.9237 79.3102 29.9237 79.3082C29.9237 79.3062 29.9237 79.3042 29.9237 79.3022C29.9237 79.3002 29.9237 79.2982 29.9237 79.2962C29.9237 79.2942 29.9237 79.2922 29.9237 79.2902C29.9237 79.2882 29.9237 79.2862 29.9237 79.2842C29.9237 79.2822 29.9237 79.2802 29.9237 79.2782C29.9237 79.2762 29.9237 79.2742 29.9237 79.2722C29.9237 79.2702 29.9237 79.2682 29.9237 79.2661C29.9237 79.2641 29.9237 79.2621 29.9237 79.2601C29.9237 79.2581 29.9237 79.2561 29.9237 79.2541C29.9237 79.2521 29.9237 79.2501 29.9237 79.2481C29.9237 79.2461 29.9237 79.2441 29.9237 79.2421C29.9237 79.2401 29.9237 79.2381 29.9237 79.2361C29.9237 79.2341 29.9237 79.2321 29.9237 79.2301C29.9237 79.2281 29.9237 79.2261 29.9237 79.2241C29.9237 79.2221 29.9237 79.2201 29.9237 79.2181C29.9237 79.2161 29.9237 79.2141 29.9237 79.2121C29.9237 79.2101 29.9237 79.2081 29.9237 79.2061C29.9237 79.2041 29.9237 79.202 29.9237 79.2C29.9237 79.198 29.9237 79.196 29.9237 79.194C29.9237 79.192 29.9237 79.19 29.9237 79.188C29.9237 79.186 29.9237 79.184 29.9237 79.182C29.9237 79.18 29.9237 79.178 29.9237 79.176C29.9237 79.174 29.9237 79.172 29.9237 79.17C29.9237 79.168 29.9237 79.166 29.9237 79.164C29.9237 79.162 29.9237 79.16 29.9237 79.158C29.9237 79.1559 29.9237 79.1539 29.9237 79.1519C29.9237 79.1499 29.9237 79.1479 29.9237 79.1459C29.9237 79.1439 29.9237 79.1419 29.9237 79.1399C29.9237 79.1379 29.9237 79.1359 29.9237 79.1339C29.9237 79.1319 29.9237 79.1299 29.9237 79.1279C29.9237 79.1259 29.9237 79.1239 29.9237 79.1219C29.9237 79.1198 29.9237 79.1178 29.9237 79.1158C29.9237 79.1138 29.9237 79.1118 29.9237 79.1098C29.9237 79.1078 29.9237 79.1058 29.9237 79.1038C29.9237 79.1018 29.9237 79.0998 29.9237 79.0978C29.9237 79.0958 29.9237 79.0938 29.9237 79.0918C29.9237 79.0897 29.9237 79.0877 29.9237 79.0857C29.9237 79.0837 29.9237 79.0817 29.9237 79.0797C29.9237 79.0777 29.9237 79.0757 29.9237 79.0737C29.9237 79.0717 29.9237 79.0697 29.9237 79.0677C29.9237 79.0657 29.9237 79.0637 29.9237 79.0616C29.9237 79.0596 29.9237 79.0576 29.9237 79.0556C29.9237 79.0536 29.9237 79.0516 29.9237 79.0496C29.9237 79.0476 29.9237 79.0456 29.9237 79.0436C29.9237 79.0416 29.9237 79.0395 29.9237 79.0375C29.9237 79.0355 29.9237 79.0335 29.9237 79.0315C29.9237 79.0295 29.9237 79.0275 29.9237 79.0255C29.9237 79.0235 29.9237 79.0215 29.9237 79.0195C29.9237 79.0175 29.9237 79.0154 29.9237 79.0134C29.9237 79.0114 29.9237 79.0094 29.9237 79.0074C29.9237 79.0054 29.9237 79.0034 29.9237 79.0014C29.9237 78.9994 29.9237 78.9974 29.9237 78.9953C29.9237 78.9933 29.9237 78.9913 29.9237 78.9893C29.9237 78.9873 29.9237 78.9853 29.9237 78.9833C29.9237 78.9813 29.9237 78.9793 29.9237 78.9772C29.9237 78.9752 29.9237 78.9732 29.9237 78.9712C29.9237 78.9692 29.9237 78.9672 29.9237 78.9652C29.9237 78.9632 29.9237 78.9612 29.9237 78.9591C29.9237 78.9571 29.9237 78.9551 29.9237 78.9531C29.9237 78.9511 29.9237 78.9491 29.9237 78.9471C29.9237 78.9451 29.9237 78.9431 29.9237 78.941C29.9237 78.939 29.9237 78.937 29.9237 78.935C29.9237 78.933 29.9237 78.931 29.9237 78.929C29.9237 78.927 29.9237 78.9249 29.9237 78.9229C29.9237 78.9209 29.9237 78.9189 29.9237 78.9169C29.9237 78.9149 29.9237 78.9129 29.9237 78.9108C29.9237 78.9088 29.9237 78.9068 29.9237 78.9048C29.9237 78.9028 29.9237 78.9008 29.9237 78.8988C29.9237 78.8967 29.9237 78.8947 29.9237 78.8927C29.9237 78.8907 29.9237 78.8887 29.9237 78.8867C29.9237 78.8847 29.9237 78.8826 29.9237 78.8806C29.9237 78.8786 29.9237 78.8766 29.9237 78.8746C29.9237 78.8726 29.9237 78.8706 29.9237 78.8685C29.9237 78.8665 29.9237 78.8645 29.9237 78.8625C29.9237 78.8605 29.9237 78.8585 29.9237 78.8565C29.9237 78.8544 29.9237 78.8524 29.9237 78.8504C29.9237 78.8484 29.9237 78.8464 29.9237 78.8444C29.9237 78.8423 29.9237 78.8403 29.9237 78.8383C29.9237 78.8363 29.9237 78.8343 29.9237 78.8323C29.9237 78.8302 29.9237 78.8282 29.9237 78.8262C29.9237 78.8242 29.9237 78.8222 29.9237 78.8202C29.9237 78.8181 29.9237 78.8161 29.9237 78.8141C29.9237 78.8121 29.9237 78.8101 29.9237 78.8081C29.9237 78.806 29.9237 78.804 29.9237 78.802C29.9237 78.8 29.9237 78.798 29.9237 78.7959C29.9237 78.7939 29.9237 78.7919 29.9237 78.7899C29.9237 78.7879 29.9237 78.7858 29.9237 78.7838C29.9237 78.7818 29.9237 78.7798 29.9237 78.7778C29.9237 78.7758 29.9237 78.7737 29.9237 78.7717C29.9237 78.7697 29.9237 78.7677 29.9237 78.7657C29.9237 78.7636 29.9237 78.7616 29.9237 78.7596C29.9237 78.7576 29.9237 78.7556 29.9237 78.7535C29.9237 78.7515 29.9237 78.7495 29.9237 78.7475C29.9237 78.7455 29.9237 78.7434 29.9237 78.7414C29.9237 78.7394 29.9237 78.7374 29.9237 78.7353C29.9237 78.7333 29.9237 78.7313 29.9237 78.7293C29.9237 78.7273 29.9237 78.7252 29.9237 78.7232C29.9237 78.7212 29.9237 78.7192 29.9237 78.7172C29.9237 78.7151 29.9237 78.7131 29.9237 78.7111C29.9237 78.7091 29.9237 78.707 29.9237 78.705C29.9237 78.703 29.9237 78.701 29.9237 78.6989H26.9237C26.9237 78.701 26.9237 78.703 26.9237 78.705C26.9237 78.707 26.9237 78.7091 26.9237 78.7111C26.9237 78.7131 26.9237 78.7151 26.9237 78.7172C26.9237 78.7192 26.9237 78.7212 26.9237 78.7232C26.9237 78.7252 26.9237 78.7273 26.9237 78.7293C26.9237 78.7313 26.9237 78.7333 26.9237 78.7353C26.9237 78.7374 26.9237 78.7394 26.9237 78.7414C26.9237 78.7434 26.9237 78.7455 26.9237 78.7475C26.9237 78.7495 26.9237 78.7515 26.9237 78.7535C26.9237 78.7556 26.9237 78.7576 26.9237 78.7596C26.9237 78.7616 26.9237 78.7636 26.9237 78.7657C26.9237 78.7677 26.9237 78.7697 26.9237 78.7717C26.9237 78.7737 26.9237 78.7758 26.9237 78.7778C26.9237 78.7798 26.9237 78.7818 26.9237 78.7838C26.9237 78.7858 26.9237 78.7879 26.9237 78.7899C26.9237 78.7919 26.9237 78.7939 26.9237 78.7959C26.9237 78.798 26.9237 78.8 26.9237 78.802C26.9237 78.804 26.9237 78.806 26.9237 78.8081C26.9237 78.8101 26.9237 78.8121 26.9237 78.8141C26.9237 78.8161 26.9237 78.8181 26.9237 78.8202C26.9237 78.8222 26.9237 78.8242 26.9237 78.8262C26.9237 78.8282 26.9237 78.8302 26.9237 78.8323C26.9237 78.8343 26.9237 78.8363 26.9237 78.8383C26.9237 78.8403 26.9237 78.8423 26.9237 78.8444C26.9237 78.8464 26.9237 78.8484 26.9237 78.8504C26.9237 78.8524 26.9237 78.8544 26.9237 78.8565C26.9237 78.8585 26.9237 78.8605 26.9237 78.8625C26.9237 78.8645 26.9237 78.8665 26.9237 78.8685C26.9237 78.8706 26.9237 78.8726 26.9237 78.8746C26.9237 78.8766 26.9237 78.8786 26.9237 78.8806C26.9237 78.8826 26.9237 78.8847 26.9237 78.8867C26.9237 78.8887 26.9237 78.8907 26.9237 78.8927C26.9237 78.8947 26.9237 78.8967 26.9237 78.8988C26.9237 78.9008 26.9237 78.9028 26.9237 78.9048C26.9237 78.9068 26.9237 78.9088 26.9237 78.9108C26.9237 78.9129 26.9237 78.9149 26.9237 78.9169C26.9237 78.9189 26.9237 78.9209 26.9237 78.9229C26.9237 78.9249 26.9237 78.927 26.9237 78.929C26.9237 78.931 26.9237 78.933 26.9237 78.935C26.9237 78.937 26.9237 78.939 26.9237 78.941C26.9237 78.9431 26.9237 78.9451 26.9237 78.9471C26.9237 78.9491 26.9237 78.9511 26.9237 78.9531C26.9237 78.9551 26.9237 78.9571 26.9237 78.9591C26.9237 78.9612 26.9237 78.9632 26.9237 78.9652C26.9237 78.9672 26.9237 78.9692 26.9237 78.9712C26.9237 78.9732 26.9237 78.9752 26.9237 78.9772C26.9237 78.9793 26.9237 78.9813 26.9237 78.9833C26.9237 78.9853 26.9237 78.9873 26.9237 78.9893C26.9237 78.9913 26.9237 78.9933 26.9237 78.9953C26.9237 78.9974 26.9237 78.9994 26.9237 79.0014C26.9237 79.0034 26.9237 79.0054 26.9237 79.0074C26.9237 79.0094 26.9237 79.0114 26.9237 79.0134C26.9237 79.0154 26.9237 79.0175 26.9237 79.0195C26.9237 79.0215 26.9237 79.0235 26.9237 79.0255C26.9237 79.0275 26.9237 79.0295 26.9237 79.0315C26.9237 79.0335 26.9237 79.0355 26.9237 79.0375C26.9237 79.0395 26.9237 79.0416 26.9237 79.0436C26.9237 79.0456 26.9237 79.0476 26.9237 79.0496C26.9237 79.0516 26.9237 79.0536 26.9237 79.0556C26.9237 79.0576 26.9237 79.0596 26.9237 79.0616C26.9237 79.0637 26.9237 79.0657 26.9237 79.0677C26.9237 79.0697 26.9237 79.0717 26.9237 79.0737C26.9237 79.0757 26.9237 79.0777 26.9237 79.0797C26.9237 79.0817 26.9237 79.0837 26.9237 79.0857C26.9237 79.0877 26.9237 79.0897 26.9237 79.0918C26.9237 79.0938 26.9237 79.0958 26.9237 79.0978C26.9237 79.0998 26.9237 79.1018 26.9237 79.1038C26.9237 79.1058 26.9237 79.1078 26.9237 79.1098C26.9237 79.1118 26.9237 79.1138 26.9237 79.1158C26.9237 79.1178 26.9237 79.1198 26.9237 79.1219C26.9237 79.1239 26.9237 79.1259 26.9237 79.1279C26.9237 79.1299 26.9237 79.1319 26.9237 79.1339C26.9237 79.1359 26.9237 79.1379 26.9237 79.1399C26.9237 79.1419 26.9237 79.1439 26.9237 79.1459C26.9237 79.1479 26.9237 79.1499 26.9237 79.1519C26.9237 79.1539 26.9237 79.1559 26.9237 79.158C26.9237 79.16 26.9237 79.162 26.9237 79.164C26.9237 79.166 26.9237 79.168 26.9237 79.17C26.9237 79.172 26.9237 79.174 26.9237 79.176C26.9237 79.178 26.9237 79.18 26.9237 79.182C26.9237 79.184 26.9237 79.186 26.9237 79.188C26.9237 79.19 26.9237 79.192 26.9237 79.194C26.9237 79.196 26.9237 79.198 26.9237 79.2C26.9237 79.202 26.9237 79.2041 26.9237 79.2061C26.9237 79.2081 26.9237 79.2101 26.9237 79.2121C26.9237 79.2141 26.9237 79.2161 26.9237 79.2181C26.9237 79.2201 26.9237 79.2221 26.9237 79.2241C26.9237 79.2261 26.9237 79.2281 26.9237 79.2301C26.9237 79.2321 26.9237 79.2341 26.9237 79.2361C26.9237 79.2381 26.9237 79.2401 26.9237 79.2421C26.9237 79.2441 26.9237 79.2461 26.9237 79.2481C26.9237 79.2501 26.9237 79.2521 26.9237 79.2541C26.9237 79.2561 26.9237 79.2581 26.9237 79.2601C26.9237 79.2621 26.9237 79.2641 26.9237 79.2661C26.9237 79.2682 26.9237 79.2702 26.9237 79.2722C26.9237 79.2742 26.9237 79.2762 26.9237 79.2782C26.9237 79.2802 26.9237 79.2822 26.9237 79.2842C26.9237 79.2862 26.9237 79.2882 26.9237 79.2902C26.9237 79.2922 26.9237 79.2942 26.9237 79.2962C26.9237 79.2982 26.9237 79.3002 26.9237 79.3022C26.9237 79.3042 26.9237 79.3062 26.9237 79.3082C26.9237 79.3102 26.9237 79.3122 26.9237 79.3142C26.9237 79.3162 26.9237 79.3182 26.9237 79.3202C26.9237 79.3222 26.9237 79.3242 26.9237 79.3262C26.9237 79.3282 26.9237 79.3302 26.9237 79.3322C26.9237 79.3342 26.9237 79.3362 26.9237 79.3382C26.9237 79.3402 26.9237 79.3422 26.9237 79.3442C26.9237 79.3462 26.9237 79.3482 26.9237 79.3502C26.9237 79.3522 26.9237 79.3542 26.9237 79.3562C26.9237 79.3582 26.9237 79.3602 26.9237 79.3622C26.9237 79.3642 26.9237 79.3662 26.9237 79.3682C26.9237 79.3702 26.9237 79.3722 26.9237 79.3742C26.9237 79.3762 26.9237 79.3782 26.9237 79.3802C26.9237 79.3822 26.9237 79.3842 26.9237 79.3862C26.9237 79.3882 26.9237 79.3902 26.9237 79.3922C26.9237 79.3942 26.9237 79.3962 26.9237 79.3982C26.9237 79.4002 26.9237 79.4022 26.9237 79.4042C26.9237 79.4062 26.9237 79.4082 26.9237 79.4102C26.9237 79.4122 26.9237 79.4142 26.9237 79.4162C26.9237 79.4182 26.9237 79.4202 26.9237 79.4222C26.9237 79.4242 26.9237 79.4262 26.9237 79.4282C26.9237 79.4302 26.9237 79.4322 26.9237 79.4342C26.9237 79.4362 26.9237 79.4382 26.9237 79.4402C26.9237 79.4422 26.9237 79.4442 26.9237 79.4462C26.9237 79.4482 26.9237 79.4502 26.9237 79.4522C26.9237 79.4542 26.9237 79.4562 26.9237 79.4582C26.9237 79.4602 26.9237 79.4622 26.9237 79.4642C26.9237 79.4662 26.9237 79.4682 26.9237 79.4702C26.9237 79.4722 26.9237 79.4742 26.9237 79.4762C26.9237 79.4782 26.9237 79.4802 26.9237 79.4822C26.9237 79.4842 26.9237 79.4862 26.9237 79.4882C26.9237 79.4902 26.9237 79.4922 26.9237 79.4942C26.9237 79.4962 26.9237 79.4982 26.9237 79.5002C26.9237 79.5022 26.9237 79.5042 26.9237 79.5062C26.9237 79.5082 26.9237 79.5102 26.9237 79.5121C26.9237 79.5141 26.9237 79.5161 26.9237 79.5181C26.9237 79.5201 26.9237 79.5221 26.9237 79.5241C26.9237 79.5261 26.9237 79.5281 26.9237 79.5301C26.9237 79.5321 26.9237 79.5341 26.9237 79.5361C26.9237 79.5381 26.9237 79.5401 26.9237 79.5421C26.9237 79.5441 26.9237 79.5461 26.9237 79.5481C26.9237 79.5501 26.9237 79.5521 26.9237 79.5541C26.9237 79.5561 26.9237 79.5581 26.9237 79.5601C26.9237 79.5621 26.9237 79.5641 26.9237 79.5661C26.9237 79.5681 26.9237 79.5701 26.9237 79.5721C26.9237 79.5741 26.9237 79.5761 26.9237 79.5781C26.9237 79.5801 26.9237 79.5821 26.9237 79.5841C26.9237 79.5861 26.9237 79.5881 26.9237 79.5901C26.9237 79.5921 26.9237 79.5941 26.9237 79.5961C26.9237 79.5981 26.9237 79.6001 26.9237 79.602C26.9237 79.604 26.9237 79.606 26.9237 79.608C26.9237 79.61 26.9237 79.612 26.9237 79.614C26.9237 79.616 26.9237 79.618 26.9237 79.62C26.9237 79.622 26.9237 79.624 26.9237 79.626C26.9237 79.628 26.9237 79.63 26.9237 79.632C26.9237 79.634 26.9237 79.636 26.9237 79.638C26.9237 79.64 26.9237 79.642 26.9237 79.644C26.9237 79.646 26.9237 79.648 26.9237 79.65C26.9237 79.652 26.9237 79.654 26.9237 79.656C26.9237 79.658 26.9237 79.66 26.9237 79.662C26.9237 79.664 26.9237 79.666 26.9237 79.668C26.9237 79.67 26.9237 79.672 26.9237 79.674C26.9237 79.6759 26.9237 79.6779 26.9237 79.6799C26.9237 79.6819 26.9237 79.6839 26.9237 79.6859C26.9237 79.6879 26.9237 79.6899 26.9237 79.6919C26.9237 79.6939 26.9237 79.6959 26.9237 79.6979C26.9237 79.6999 26.9237 79.7019 26.9237 79.7039C26.9237 79.7059 26.9237 79.7079 26.9237 79.7099C26.9237 79.7119 26.9237 79.7139 26.9237 79.7159C26.9237 79.7179 26.9237 79.7199 26.9237 79.7219C26.9237 79.7239 26.9237 79.7259 26.9237 79.7279C26.9237 79.7299 26.9237 79.7319 26.9237 79.7339C26.9237 79.7359 26.9237 79.7379 26.9237 79.7399C26.9237 79.7419 26.9237 79.7438 26.9237 79.7458C26.9237 79.7478 26.9237 79.7498 26.9237 79.7518C26.9237 79.7538 26.9237 79.7558 26.9237 79.7578C26.9237 79.7598 26.9237 79.7618 26.9237 79.7638C26.9237 79.7658 26.9237 79.7678 26.9237 79.7698C26.9237 79.7718 26.9237 79.7738 26.9237 79.7758C26.9237 79.7778 26.9237 79.7798 26.9237 79.7818C26.9237 79.7838 26.9237 79.7858 26.9237 79.7878C26.9237 79.7898 26.9237 79.7918 26.9237 79.7938C26.9237 79.7958 26.9237 79.7978 26.9237 79.7998C26.9237 79.8018 26.9237 79.8038 26.9237 79.8058C26.9237 79.8078 26.9237 79.8098 26.9237 79.8118C26.9237 79.8137 26.9237 79.8157 26.9237 79.8177C26.9237 79.8197 26.9237 79.8217 26.9237 79.8237C26.9237 79.8257 26.9237 79.8277 26.9237 79.8297C26.9237 79.8317 26.9237 79.8337 26.9237 79.8357C26.9237 79.8377 26.9237 79.8397 26.9237 79.8417C26.9237 79.8437 26.9237 79.8457 26.9237 79.8477C26.9237 79.8497 26.9237 79.8517 26.9237 79.8537C26.9237 79.8557 26.9237 79.8577 26.9237 79.8597C26.9237 79.8617 26.9237 79.8637 26.9237 79.8657C26.9237 79.8677 26.9237 79.8697 26.9237 79.8717C26.9237 79.8737 26.9237 79.8757 26.9237 79.8777C26.9237 79.8797 26.9237 79.8817 26.9237 79.8837C26.9237 79.8857 26.9237 79.8877 26.9237 79.8897C26.9237 79.8917 26.9237 79.8936 26.9237 79.8956C26.9237 79.8976 26.9237 79.8996 26.9237 79.9016C26.9237 79.9036 26.9237 79.9056 26.9237 79.9076C26.9237 79.9096 26.9237 79.9116 26.9237 79.9136C26.9237 79.9156 26.9237 79.9176 26.9237 79.9196C26.9237 79.9216 26.9237 79.9236 26.9237 79.9256C26.9237 79.9276 26.9237 79.9296 26.9237 79.9316C26.9237 79.9336 26.9237 79.9356 26.9237 79.9376C26.9237 79.9396 26.9237 79.9416 26.9237 79.9436C26.9237 79.9456 26.9237 79.9476 26.9237 79.9496C26.9237 79.9516 26.9237 79.9536 26.9237 79.9556C26.9237 79.9576 26.9237 79.9596 26.9237 79.9616C26.9237 79.9636 26.9237 79.9656 26.9237 79.9676C26.9237 79.9696 26.9237 79.9716 26.9237 79.9736C26.9237 79.9756 26.9237 79.9776 26.9237 79.9796C26.9237 79.9816 26.9237 79.9836 26.9237 79.9856C26.9237 79.9876 26.9237 79.9896 26.9237 79.9916C26.9237 79.9936 26.9237 79.9956 26.9237 79.9976C26.9237 79.9996 26.9237 80.0016 26.9237 80.0036C26.9237 80.0056 26.9237 80.0076 26.9237 80.0096C26.9237 80.0116 26.9237 80.0136 26.9237 80.0156C26.9237 80.0175 26.9237 80.0195 26.9237 80.0215C26.9237 80.0235 26.9237 80.0255 26.9237 80.0275C26.9237 80.0295 26.9237 80.0315 26.9237 80.0335C26.9237 80.0355 26.9237 80.0375 26.9237 80.0395C26.9237 80.0415 26.9237 80.0435 26.9237 80.0455C26.9237 80.0475 26.9237 80.0495 26.9237 80.0515C26.9237 80.0535 26.9237 80.0555 26.9237 80.0575C26.9237 80.0595 26.9237 80.0615 26.9237 80.0635C26.9237 80.0655 26.9237 80.0675 26.9237 80.0695C26.9237 80.0715 26.9237 80.0735 26.9237 80.0755C26.9237 80.0775 26.9237 80.0795 26.9237 80.0815C26.9237 80.0835 26.9237 80.0855 26.9237 80.0875C26.9237 80.0895 26.9237 80.0915 26.9237 80.0935C26.9237 80.0955 26.9237 80.0975 26.9237 80.0995C26.9237 80.1015 26.9237 80.1035 26.9237 80.1055C26.9237 80.1075 26.9237 80.1095 26.9237 80.1115C26.9237 80.1135 26.9237 80.1155 26.9237 80.1175C26.9237 80.1196 26.9237 80.1216 26.9237 80.1236C26.9237 80.1256 26.9237 80.1276 26.9237 80.1296C26.9237 80.1316 26.9237 80.1336 26.9237 80.1356C26.9237 80.1376 26.9237 80.1396 26.9237 80.1416C26.9237 80.1436 26.9237 80.1456 26.9237 80.1476C26.9237 80.1496 26.9237 80.1516 26.9237 80.1536C26.9237 80.1556 26.9237 80.1576 26.9237 80.1596C26.9237 80.1616 26.9237 80.1636 26.9237 80.1656C26.9237 80.1676 26.9237 80.1696 26.9237 80.1716C26.9237 80.1736 26.9237 80.1756 26.9237 80.1776C26.9237 80.1796 26.9237 80.1816 26.9237 80.1836C26.9237 80.1856 26.9237 80.1876 26.9237 80.1896C26.9237 80.1916 26.9237 80.1936 26.9237 80.1956C26.9237 80.1976 26.9237 80.1996 26.9237 80.2016C26.9237 80.2036 26.9237 80.2056 26.9237 80.2076C26.9237 80.2096 26.9237 80.2116 26.9237 80.2136C26.9237 80.2156 26.9237 80.2176 26.9237 80.2196C26.9237 80.2217 26.9237 80.2237 26.9237 80.2257C26.9237 80.2277 26.9237 80.2297 26.9237 80.2317C26.9237 80.2337 26.9237 80.2357 26.9237 80.2377C26.9237 80.2397 26.9237 80.2417 26.9237 80.2437C26.9237 80.2457 26.9237 80.2477 26.9237 80.2497C26.9237 80.2517 26.9237 80.2537 26.9237 80.2557C26.9237 80.2577 26.9237 80.2597 26.9237 80.2617C26.9237 80.2637 26.9237 80.2657 26.9237 80.2677C26.9237 80.2697 26.9237 80.2717 26.9237 80.2738C26.9237 80.2758 26.9237 80.2778 26.9237 80.2798C26.9237 80.2818 26.9237 80.2838 26.9237 80.2858C26.9237 80.2878 26.9237 80.2898 26.9237 80.2918C26.9237 80.2938 26.9237 80.2958 26.9237 80.2978C26.9237 80.2998 26.9237 80.3018 26.9237 80.3038C26.9237 80.3058 26.9237 80.3078 26.9237 80.3098C26.9237 80.3118 26.9237 80.3139 26.9237 80.3159C26.9237 80.3179 26.9237 80.3199 26.9237 80.3219C26.9237 80.3239 26.9237 80.3259 26.9237 80.3279C26.9237 80.3299 26.9237 80.3319 26.9237 80.3339C26.9237 80.3359 26.9237 80.3379 26.9237 80.3399C26.9237 80.3419 26.9237 80.3439 26.9237 80.3459C26.9237 80.348 26.9237 80.35 26.9237 80.352C26.9237 80.354 26.9237 80.356 26.9237 80.358C26.9237 80.36 26.9237 80.362 26.9237 80.364C26.9237 80.366 26.9237 80.368 26.9237 80.37C26.9237 80.372 26.9237 80.374 26.9237 80.3761C26.9237 80.3781 26.9237 80.3801 26.9237 80.3821C26.9237 80.3841 26.9237 80.3861 26.9237 80.3881C26.9237 80.3901 26.9237 80.3921 26.9237 80.3941C26.9237 80.3961 26.9237 80.3981 26.9237 80.4002C26.9237 80.4022 26.9237 80.4042 26.9237 80.4062C26.9237 80.4082 26.9237 80.4102 26.9237 80.4122C26.9237 80.4142 26.9237 80.4162 26.9237 80.4182C26.9237 80.4202 26.9237 80.4222 26.9237 80.4243C26.9237 80.4263 26.9237 80.4283 26.9237 80.4303C26.9237 80.4323 26.9237 80.4343 26.9237 80.4363C26.9237 80.4383 26.9237 80.4403 26.9237 80.4423C26.9237 80.4443 26.9237 80.4464 26.9237 80.4484C26.9237 80.4504 26.9237 80.4524 26.9237 80.4544C26.9237 80.4564 26.9237 80.4584 26.9237 80.4604C26.9237 80.4624 26.9237 80.4645 26.9237 80.4665C26.9237 80.4685 26.9237 80.4705 26.9237 80.4725C26.9237 80.4745 26.9237 80.4765 26.9237 80.4785C26.9237 80.4805 26.9237 80.4825 26.9237 80.4846C26.9237 80.4866 26.9237 80.4886 26.9237 80.4906C26.9237 80.4926 26.9237 80.4946 26.9237 80.4966C26.9237 80.4986 26.9237 80.5007 26.9237 80.5027C26.9237 80.5047 26.9237 80.5067 26.9237 80.5087C26.9237 80.5107 26.9237 80.5127 26.9237 80.5147C26.9237 80.5168 26.9237 80.5188 26.9237 80.5208C26.9237 80.5228 26.9237 80.5248 26.9237 80.5268C26.9237 80.5288 26.9237 80.5308 26.9237 80.5329C26.9237 80.5349 26.9237 80.5369 26.9237 80.5389C26.9237 80.5409 26.9237 80.5429 26.9237 80.5449C26.9237 80.5469 26.9237 80.549 26.9237 80.551C26.9237 80.553 26.9237 80.555 26.9237 80.557C26.9237 80.559 26.9237 80.561 26.9237 80.5631C26.9237 80.5651 26.9237 80.5671 26.9237 80.5691C26.9237 80.5711 26.9237 80.5731 26.9237 80.5751C26.9237 80.5772 26.9237 80.5792 26.9237 80.5812C26.9237 80.5832 26.9237 80.5852 26.9237 80.5872C26.9237 80.5893 26.9237 80.5913 26.9237 80.5933C26.9237 80.5953 26.9237 80.5973 26.9237 80.5993C26.9237 80.6013 26.9237 80.6034 26.9237 80.6054C26.9237 80.6074 26.9237 80.6094 26.9237 80.6114C26.9237 80.6134 26.9237 80.6155 26.9237 80.6175C26.9237 80.6195 26.9237 80.6215 26.9237 80.6235C26.9237 80.6255 26.9237 80.6276 26.9237 80.6296C26.9237 80.6316 26.9237 80.6336 26.9237 80.6356C26.9237 80.6376 26.9237 80.6397 26.9237 80.6417C26.9237 80.6437 26.9237 80.6457 26.9237 80.6477C26.9237 80.6498 26.9237 80.6518 26.9237 80.6538C26.9237 80.6558 26.9237 80.6578 26.9237 80.6598C26.9237 80.6619 26.9237 80.6639 26.9237 80.6659C26.9237 80.6679 26.9237 80.6699 26.9237 80.672C26.9237 80.674 26.9237 80.676 26.9237 80.678C26.9237 80.68 26.9237 80.6821 26.9237 80.6841C26.9237 80.6861 26.9237 80.6881 26.9237 80.6901C26.9237 80.6922 26.9237 80.6942 26.9237 80.6962C26.9237 80.6982 26.9237 80.7002 26.9237 80.7023C26.9237 80.7043 26.9237 80.7063 26.9237 80.7083C26.9237 80.7103 26.9237 80.7124 26.9237 80.7144C26.9237 80.7164 26.9237 80.7184 26.9237 80.7204C26.9237 80.7225 26.9237 80.7245 26.9237 80.7265C26.9237 80.7285 26.9237 80.7306 26.9237 80.7326C26.9237 80.7346 26.9237 80.7366 26.9237 80.7386C26.9237 80.7407 26.9237 80.7427 26.9237 80.7447C26.9237 80.7467 26.9237 80.7488 26.9237 80.7508C26.9237 80.7528 26.9237 80.7548 26.9237 80.7568C26.9237 80.7589 26.9237 80.7609 26.9237 80.7629C26.9237 80.7649 26.9237 80.767 26.9237 80.769C26.9237 80.771 26.9237 80.773 26.9237 80.7751C26.9237 80.7771 26.9237 80.7791 26.9237 80.7811C26.9237 80.7832 26.9237 80.7852 26.9237 80.7872C26.9237 80.7892 26.9237 80.7913 26.9237 80.7933C26.9237 80.7953 26.9237 80.7973 26.9237 80.7994C26.9237 80.8014 26.9237 80.8034 26.9237 80.8054C26.9237 80.8075 26.9237 80.8095 26.9237 80.8115C26.9237 80.8135 26.9237 80.8156 26.9237 80.8176C26.9237 80.8196 26.9237 80.8216 26.9237 80.8237C26.9237 80.8257 26.9237 80.8277 26.9237 80.8298C26.9237 80.8318 26.9237 80.8338 26.9237 80.8358C26.9237 80.8379 26.9237 80.8399 26.9237 80.8419C26.9237 80.8439 26.9237 80.846 26.9237 80.848C26.9237 80.85 26.9237 80.8521 26.9237 80.8541C26.9237 80.8561 26.9237 80.8581 26.9237 80.8602C26.9237 80.8622 26.9237 80.8642 26.9237 80.8663C26.9237 80.8683 26.9237 80.8703 26.9237 80.8723C26.9237 80.8744 26.9237 80.8764 26.9237 80.8784C26.9237 80.8805 26.9237 80.8825 26.9237 80.8845C26.9237 80.8865 26.9237 80.8886 26.9237 80.8906C26.9237 80.8926 26.9237 80.8947 26.9237 80.8967C26.9237 80.8987 26.9237 80.9008 26.9237 80.9028C26.9237 80.9048 26.9237 80.9069 26.9237 80.9089C26.9237 80.9109 26.9237 80.913 26.9237 80.915C26.9237 80.917 26.9237 80.919 26.9237 80.9211C26.9237 80.9231 26.9237 80.9251 26.9237 80.9272C26.9237 80.9292 26.9237 80.9312 26.9237 80.9333C26.9237 80.9353 26.9237 80.9373 26.9237 80.9394C26.9237 80.9414 26.9237 80.9434 26.9237 80.9455C26.9237 80.9475 26.9237 80.9495 26.9237 80.9516C26.9237 80.9536 26.9237 80.9556 26.9237 80.9577C26.9237 80.9597 26.9237 80.9617 26.9237 80.9638C26.9237 80.9658 26.9237 80.9678 26.9237 80.9699C26.9237 80.9719 26.9237 80.974 26.9237 80.976C26.9237 80.978 26.9237 80.9801 26.9237 80.9821C26.9237 80.9841 26.9237 80.9862 26.9237 80.9882C26.9237 80.9902 26.9237 80.9923 26.9237 80.9943C26.9237 80.9963 26.9237 80.9984 26.9237 81.0004C26.9237 81.0025 26.9237 81.0045 26.9237 81.0065C26.9237 81.0086 26.9237 81.0106 26.9237 81.0126C26.9237 81.0147 26.9237 81.0167 26.9237 81.0188C26.9237 81.0208 26.9237 81.0228 26.9237 81.0249C26.9237 81.0269 26.9237 81.0289 26.9237 81.031C26.9237 81.033 26.9237 81.0351 26.9237 81.0371C26.9237 81.0391 26.9237 81.0412 26.9237 81.0432C26.9237 81.0453 26.9237 81.0473 26.9237 81.0493C26.9237 81.0514 26.9237 81.0534 26.9237 81.0555C26.9237 81.0575 26.9237 81.0595 26.9237 81.0616C26.9237 81.0636 26.9237 81.0657 26.9237 81.0677C26.9237 81.0697 26.9237 81.0718 26.9237 81.0738C26.9237 81.0759 26.9237 81.0779 26.9237 81.08C26.9237 81.082 26.9237 81.084 26.9237 81.0861C26.9237 81.0881 26.9237 81.0902 26.9237 81.0922C26.9237 81.0943 26.9237 81.0963 26.9237 81.0983C26.9237 81.1004 26.9237 81.1024 26.9237 81.1045C26.9237 81.1065 26.9237 81.1086 26.9237 81.1106C26.9237 81.1126 26.9237 81.1147 26.9237 81.1167C26.9237 81.1188 26.9237 81.1208 26.9237 81.1229C26.9237 81.1249 26.9237 81.127 26.9237 81.129C26.9237 81.131 26.9237 81.1331 26.9237 81.1351C26.9237 81.1372 26.9237 81.1392 26.9237 81.1413C26.9237 81.1433 26.9237 81.1454 26.9237 81.1474C26.9237 81.1495 26.9237 81.1515 26.9237 81.1535C26.9237 81.1556 26.9237 81.1576 26.9237 81.1597C26.9237 81.1617 26.9237 81.1638 26.9237 81.1658C26.9237 81.1679 26.9237 81.1699 26.9237 81.172C26.9237 81.174 26.9237 81.1761 26.9237 81.1781C26.9237 81.1802 26.9237 81.1822 26.9237 81.1843C26.9237 81.1863 26.9237 81.1884 26.9237 81.1904C26.9237 81.1925 26.9237 81.1945 26.9237 81.1966C26.9237 81.1986 26.9237 81.2007 26.9237 81.2027C26.9237 81.2048 26.9237 81.2068 26.9237 81.2089C26.9237 81.2109 26.9237 81.213 26.9237 81.215C26.9237 81.2171 26.9237 81.2191 26.9237 81.2212C26.9237 81.2232 26.9237 81.2253 26.9237 81.2273C26.9237 81.2294 26.9237 81.2314 26.9237 81.2335C26.9237 81.2355 26.9237 81.2376 26.9237 81.2396C26.9237 81.2417 26.9237 81.2437 26.9237 81.2458C26.9237 81.2479 26.9237 81.2499 26.9237 81.252C26.9237 81.254 26.9237 81.2561 26.9237 81.2581C26.9237 81.2602 26.9237 81.2622 26.9237 81.2643C26.9237 81.2663 26.9237 81.2684 26.9237 81.2705C26.9237 81.2725 26.9237 81.2746 26.9237 81.2766C26.9237 81.2787 26.9237 81.2807 26.9237 81.2828C26.9237 81.2848 26.9237 81.2869 26.9237 81.289C26.9237 81.291 26.9237 81.2931 26.9237 81.2951C26.9237 81.2972 26.9237 81.2992 26.9237 81.3013C26.9237 81.3034 26.9237 81.3054 26.9237 81.3075C26.9237 81.3095 26.9237 81.3116 26.9237 81.3136C26.9237 81.3157 26.9237 81.3178 26.9237 81.3198C26.9237 81.3219 26.9237 81.3239 26.9237 81.326C26.9237 81.3281 26.9237 81.3301 26.9237 81.3322C26.9237 81.3342 26.9237 81.3363 26.9237 81.3384C26.9237 81.3404 26.9237 81.3425 26.9237 81.3445C26.9237 81.3466 26.9237 81.3487 26.9237 81.3507C26.9237 81.3528 26.9237 81.3548 26.9237 81.3569C26.9237 81.359 26.9237 81.361 26.9237 81.3631C26.9237 81.3652 26.9237 81.3672 26.9237 81.3693C26.9237 81.3713 26.9237 81.3734 26.9237 81.3755C26.9237 81.3775 26.9237 81.3796 26.9237 81.3817C26.9237 81.3837 26.9237 81.3858 26.9237 81.3878C26.9237 81.3899 26.9237 81.392 26.9237 81.394C26.9237 81.3961 26.9237 81.3982 26.9237 81.4002C26.9237 81.4023 26.9237 81.4044 26.9237 81.4064C26.9237 81.4085 26.9237 81.4106 26.9237 81.4126C26.9237 81.4147 26.9237 81.4168 26.9237 81.4188C26.9237 81.4209 26.9237 81.423 26.9237 81.425C26.9237 81.4271 26.9237 81.4292 26.9237 81.4312C26.9237 81.4333 26.9237 81.4354 26.9237 81.4374C26.9237 81.4395 26.9237 81.4416 26.9237 81.4436C26.9237 81.4457 26.9237 81.4478 26.9237 81.4498C26.9237 81.4519 26.9237 81.454 26.9237 81.4561C26.9237 81.4581 26.9237 81.4602 26.9237 81.4623C26.9237 81.4643 26.9237 81.4664 26.9237 81.4685C26.9237 81.4705 26.9237 81.4726 26.9237 81.4747C26.9237 81.4768 26.9237 81.4788 26.9237 81.4809C26.9237 81.483 26.9237 81.485 26.9237 81.4871C26.9237 81.4892 26.9237 81.4913 26.9237 81.4933C26.9237 81.4954 26.9237 81.4975 26.9237 81.4995C26.9237 81.5016 26.9237 81.5037 26.9237 81.5058C26.9237 81.5078 26.9237 81.5099 26.9237 81.512C26.9237 81.5141 26.9237 81.5161 26.9237 81.5182C26.9237 81.5203 26.9237 81.5224 26.9237 81.5244C26.9237 81.5265 26.9237 81.5286 26.9237 81.5307C26.9237 81.5327 26.9237 81.5348 26.9237 81.5369C26.9237 81.539 26.9237 81.541 26.9237 81.5431C26.9237 81.5452 26.9237 81.5473 26.9237 81.5494C26.9237 81.5514 26.9237 81.5535 26.9237 81.5556C26.9237 81.5577 26.9237 81.5597 26.9237 81.5618C26.9237 81.5639 26.9237 81.566 26.9237 81.5681C26.9237 81.5701 26.9237 81.5722 26.9237 81.5743C26.9237 81.5764 26.9237 81.5785 26.9237 81.5805C26.9237 81.5826 26.9237 81.5847 26.9237 81.5868C26.9237 81.5889 26.9237 81.5909 26.9237 81.593C26.9237 81.5951 26.9237 81.5972 26.9237 81.5993C26.9237 81.6013 26.9237 81.6034 26.9237 81.6055C26.9237 81.6076 26.9237 81.6097 26.9237 81.6118C26.9237 81.6138 26.9237 81.6159 26.9237 81.618C26.9237 81.6201 26.9237 81.6222 26.9237 81.6243C26.9237 81.6263 26.9237 81.6284 26.9237 81.6305C26.9237 81.6326 26.9237 81.6347 26.9237 81.6368C26.9237 81.6389 26.9237 81.6409 26.9237 81.643C26.9237 81.6451 26.9237 81.6472 26.9237 81.6493C26.9237 81.6514 26.9237 81.6535 26.9237 81.6555C26.9237 81.6576 26.9237 81.6597 26.9237 81.6618C26.9237 81.6639 26.9237 81.666 26.9237 81.6681C26.9237 81.6702 26.9237 81.6722 26.9237 81.6743C26.9237 81.6764 26.9237 81.6785 26.9237 81.6806C26.9237 81.6827 26.9237 81.6848 26.9237 81.6869C26.9237 81.6889 26.9237 81.691 26.9237 81.6931C26.9237 81.6952 26.9237 81.6973 26.9237 81.6994C26.9237 81.7015 26.9237 81.7036 26.9237 81.7057C26.9237 81.7078 26.9237 81.7099 26.9237 81.7119C26.9237 81.714 26.9237 81.7161 26.9237 81.7182C26.9237 81.7203 26.9237 81.7224 26.9237 81.7245C26.9237 81.7266 26.9237 81.7287 26.9237 81.7308C26.9237 81.7329 26.9237 81.735 26.9237 81.7371C26.9237 81.7392 26.9237 81.7413 26.9237 81.7434C26.9237 81.7454 26.9237 81.7475 26.9237 81.7496C26.9237 81.7517 26.9237 81.7538 26.9237 81.7559C26.9237 81.758 26.9237 81.7601 26.9237 81.7622C26.9237 81.7643 26.9237 81.7664 26.9237 81.7685C26.9237 81.7706 26.9237 81.7727 26.9237 81.7748C26.9237 81.7769 26.9237 81.779 26.9237 81.7811C26.9237 81.7832 26.9237 81.7853 26.9237 81.7874C26.9237 81.7895 26.9237 81.7916 26.9237 81.7937C26.9237 81.7958 26.9237 81.7979 26.9237 81.8C26.9237 81.8021 26.9237 81.8042 26.9237 81.8063H29.9237ZM29.9237 78.6989C29.9237 75.2098 30.5412 72.071 32.1016 69.0493L29.436 67.6728C27.6143 71.2007 26.9237 74.8307 26.9237 78.6989H29.9237ZM32.1016 69.0493C32.7729 67.7494 33.2056 67.0372 34.1115 66.2478L32.1406 63.9861C30.7995 65.1547 30.1573 66.276 29.436 67.6728L32.1016 69.0493ZM34.1115 66.2478C34.0296 66.3192 34.0012 66.3143 34.1213 66.264C34.22 66.2228 34.3606 66.1748 34.5424 66.1229C34.9088 66.0183 35.3223 65.9309 35.6953 65.8515C35.8652 65.8154 36.0535 65.7753 36.1994 65.7378C36.2649 65.721 36.379 65.6906 36.4949 65.6458C36.544 65.6267 36.6718 65.576 36.8124 65.4835C36.8822 65.4375 37.0148 65.343 37.145 65.1881C37.2738 65.0349 37.4813 64.7237 37.4988 64.2742C37.5376 63.2754 36.697 62.8802 36.6488 62.8565C36.4636 62.7657 36.2987 62.7321 36.2444 62.7213C36.1062 62.6937 35.9704 62.6837 35.8849 62.6785C35.6914 62.6667 35.4259 62.6627 35.0971 62.6627V65.6627C35.4206 65.6627 35.6073 65.6671 35.7024 65.6729C35.7613 65.6765 35.7289 65.6776 35.658 65.6634C35.6373 65.6593 35.4969 65.633 35.3278 65.55C35.2956 65.5342 34.4626 65.1475 34.501 64.1577C34.5183 63.7128 34.7237 63.4063 34.8484 63.2579C34.9745 63.1078 35.1012 63.0183 35.1632 62.9775C35.2882 62.8952 35.393 62.8553 35.4124 62.8478C35.4689 62.826 35.4965 62.821 35.4531 62.8322C35.3812 62.8506 35.2618 62.8766 35.0711 62.9172C34.7229 62.9913 34.2031 63.0999 33.719 63.2381C33.4755 63.3076 33.2115 63.3927 32.963 63.4967C32.7359 63.5917 32.4179 63.7444 32.1406 63.9861L34.1115 66.2478ZM35.0971 62.6627C34.0464 62.6627 33.2524 62.2384 32.5798 61.4552C31.8668 60.625 31.3023 59.3933 30.8835 57.8844C30.0471 54.8702 29.9237 51.2527 29.9237 49H26.9237C26.9237 51.2916 27.0406 55.2554 27.9928 58.6865C28.4683 60.4002 29.1851 62.1071 30.3039 63.4098C31.4632 64.7596 33.0515 65.6627 35.0971 65.6627V62.6627Z" fill="#00BC8E"/>
<path d="M46.5919 25.0219C46.5919 32.3806 44.6978 38.4078 43.2692 40.9078C41.7337 43.5949 32.0998 44.4078 37.7692 44.4078C41.9431 44.4078 45.9794 48.8207 46.5449 52.4965C46.8981 54.7921 46.7692 57.0858 46.7692 59.4078C46.7692 60.8531 46.5919 64.2028 46.5919 60.9503C46.5919 52.799 47.4114 47.5524 55.4213 45.2639C57.0695 44.793 53.1338 44.9185 50.7692 43.4078C48.4047 41.8971 48.7692 41.4078 48.2692 39.9078C47.7692 38.4078 46.7692 24.3717 46.5919 25.0219Z" stroke="#00BC8E" stroke-width="3" stroke-linecap="round" stroke-linejoin="round"/>
<path d="M10.0965 2C10.0965 2 10.0965 10.8173 10.0965 12.1399C10.0965 15.64 8.8238 19.4835 3.77107 20.935C3.30629 21.0685 1.99994 21.6255 1.99994 21.6255C1.99994 21.6255 5.29494 20.935 6.72872 20.935C10.6196 20.935 10.6196 25.9891 11.2182 29.4714C11.8168 32.9537 11.5865 35 11.5865 35C11.5865 35 11.6146 33.716 11.6146 33.0738C11.6146 31.8662 11.3153 30.2452 11.6146 27.5368C11.9139 24.8283 12.0483 22.6566 14.5105 20.1853C16.9726 17.7139 18.9999 17.8637 18.9999 17.8637C18.9999 17.8637 15.7754 18.2507 13.3133 14.7684C10.8512 11.2861 10.0965 2 10.0965 2Z" stroke="#00BC8E" stroke-width="3" stroke-linecap="round" stroke-linejoin="round"/>
</svg>
