<svg width="414" height="16" viewBox="0 0 414 16" fill="none" xmlns="http://www.w3.org/2000/svg">
<path d="M2 4.39942C6.3329 5.00278 10.4147 5.19766 15.0719 5.35919C44.3735 6.37549 74.3953 5.80954 103.671 5.46583C188.188 4.47356 272.61 2 357.187 2C374.326 2 425.681 2.7342 408.55 2.95977C387.067 3.24266 365.795 3.86919 344.445 4.93263C311.286 6.58428 278.207 8.31972 244.953 9.65149C230.597 10.2264 216.221 10.7536 201.908 11.4911C196.54 11.7676 189.369 11.9119 184.149 12.7707C182.963 12.9658 186.247 13.4476 187.516 13.5172C195.461 13.9536 203.622 13.9325 211.613 13.9705C241.163 14.1108 270.734 13.7161 300.278 13.5172" stroke="#00BC8E" stroke-width="3" stroke-linecap="round" stroke-linejoin="round"/>
</svg>
