<svg width="89" height="83" viewBox="0 0 89 83" fill="none" xmlns="http://www.w3.org/2000/svg">
<path d="M47.7768 18.0334C48.2087 9.9292 56.2923 6.34487 61.6255 6.66871C66.9588 6.99255 72.6014 8.87702 74.3323 13.6291C76.0633 18.3813 75.0826 23.2438 72.5234 26.7007C68.2062 32.5321 63.6687 31.5746 58.942 36.7619C56.7934 39.1199 56.9908 43.4301 58.0379 46.2038" stroke="#00BC8E" stroke-width="3" stroke-linecap="round"/>
<path d="M58.9664 59.9503C58.1865 60.4749 55.6405 63.2695 57.6975 65.1439C59.1361 66.4547 60.5854 65.7769 61.9169 64.9478C63.2484 64.1188 63.8742 62.6577 63.5572 61.2472C63.1491 59.4316 59.5972 60.5251 59.0924 62.6628" stroke="#00BC8E" stroke-width="3" stroke-linecap="round"/>
<path d="M11.8264 53.588C8.98066 44.0137 18.3636 39.84 23.8142 41.7829C27.8528 43.2224 29.1713 48.4967 28.3902 51.8022C26.5897 59.4217 21.7412 63.4048 26.1615 68.3885" stroke="#00BC8E" stroke-width="3" stroke-linecap="round"/>
<path d="M29.6663 74.5308C28.2927 74.3465 27.5175 75.5364 27.594 76.3687C27.9611 80.3656 32.6988 77.6604 31.1818 74.0469" stroke="#00BC8E" stroke-width="3" stroke-linecap="round"/>
</svg>
