<?xml version="1.0" encoding="UTF-8"?>
<svg id="Layer_1" data-name="Layer 1" xmlns="http://www.w3.org/2000/svg" viewBox="0 0 500 350">
  <defs>
    <style>
      .cls-1 {
        fill: #00c389;
      }

      .cls-1, .cls-2, .cls-3, .cls-4, .cls-5 {
        stroke-width: 0px;
      }

      .cls-6 {
        fill: none;
        stroke: #644eee;
        stroke-miterlimit: 10;
        stroke-width: 7.33px;
      }

      .cls-2 {
        fill: #644eee;
      }

      .cls-3, .cls-7 {
        fill: #002e5d;
      }

      .cls-8 {
        fill: #768692;
      }

      .cls-8, .cls-7 {
        stroke: #002e5d;
        stroke-linecap: round;
        stroke-linejoin: round;
        stroke-width: 1.18px;
      }

      .cls-4 {
        fill: #fefefe;
      }

      .cls-5 {
        fill: #654fef;
      }
    </style>
  </defs>
  <path class="cls-6" d="M397.46,277.8l-292.15,42.62c-6.91,1.01-12.57-3.82-12.57-10.73V73.99c0-6.91,5.66-13.39,12.57-14.4L397.46,16.97c6.91-1.01,12.57,3.82,12.57,10.73v235.7c0,6.91-5.66,13.39-12.57,14.4Z"/>
  <g>
    <g>
      <polygon class="cls-8" points="235.87 285.75 399.23 262.07 399.23 226.13 235.87 249.81 235.87 285.75"/>
      <polygon class="cls-8" points="399.23 226.13 235.87 249.81 213.31 230.76 376.68 207.07 399.23 226.13"/>
      <polygon class="cls-7" points="213.31 230.76 213.31 266.69 235.87 285.75 235.87 249.81 213.31 230.76"/>
      <g>
        <g>
          <path class="cls-7" d="M229.13,223.9c-3.46.5-5.54,1.67-5.55,2.9v6.74c0,.4.22.81.68,1.2,1.43,1.21,4.77,1.94,8.3,1.94v-13.03c-1.15,0-2.31.08-3.44.24Z"/>
          <path class="cls-8" d="M241.55,226.81c0-.4-.22-.81-.68-1.2-1.43-1.21-4.78-1.94-8.3-1.94v13.03c1.15,0,2.31-.08,3.44-.24,3.46-.5,5.54-1.67,5.55-2.9v-6.74Z"/>
        </g>
        <path class="cls-8" d="M240.87,225.6c1.9,1.6-.28,3.44-4.86,4.11s-9.84-.1-11.74-1.7c-1.9-1.6.28-3.44,4.86-4.11,4.58-.66,9.84.1,11.74,1.7Z"/>
      </g>
      <g>
        <g>
          <path class="cls-7" d="M240.41,233.43c-3.46.5-5.54,1.67-5.55,2.9v6.74c0,.4.22.81.68,1.2,1.43,1.21,4.77,1.94,8.3,1.94v-13.03c-1.15,0-2.31.08-3.44.24Z"/>
          <path class="cls-8" d="M252.83,236.34c0-.4-.22-.81-.68-1.2-1.43-1.21-4.78-1.94-8.3-1.94v13.03c1.15,0,2.31-.08,3.44-.24,3.46-.5,5.54-1.67,5.55-2.9v-6.74Z"/>
        </g>
        <path class="cls-8" d="M252.14,235.13c1.9,1.6-.28,3.44-4.86,4.11-4.58.66-9.84-.1-11.74-1.7s.28-3.44,4.86-4.11,9.84.1,11.74,1.7Z"/>
      </g>
    </g>
    <g>
      <g>
        <g>
          <path class="cls-7" d="M365.27,204.17c-3.46.5-5.54,1.67-5.55,2.9v6.74c0,.4.22.81.68,1.2,1.43,1.21,4.77,1.94,8.3,1.94v-13.03c-1.15,0-2.31.08-3.44.24Z"/>
          <path class="cls-8" d="M377.69,207.07c0-.4-.22-.81-.68-1.2-1.43-1.21-4.78-1.94-8.3-1.94v13.03c1.15,0,2.31-.08,3.44-.24,3.46-.5,5.54-1.67,5.55-2.9v-6.74Z"/>
        </g>
        <path class="cls-8" d="M377,205.87c1.9,1.6-.28,3.44-4.86,4.11-4.58.66-9.84-.1-11.74-1.7-1.9-1.6.28-3.44,4.86-4.11,4.58-.66,9.84.1,11.74,1.7Z"/>
      </g>
      <g>
        <g>
          <path class="cls-7" d="M376.54,213.7c-3.46.5-5.54,1.67-5.55,2.9v6.74c0,.4.22.81.68,1.2,1.43,1.21,4.77,1.94,8.3,1.94v-13.03c-1.15,0-2.31.08-3.44.24Z"/>
          <path class="cls-8" d="M388.96,216.6c0-.4-.22-.81-.68-1.2-1.43-1.21-4.78-1.94-8.3-1.94v13.03c1.15,0,2.31-.08,3.44-.24,3.46-.5,5.54-1.67,5.55-2.9v-6.74Z"/>
        </g>
        <path class="cls-8" d="M388.28,215.4c1.9,1.6-.28,3.44-4.86,4.11-4.58.66-9.84-.1-11.74-1.7-1.9-1.6.28-3.44,4.86-4.11s9.84.1,11.74,1.7Z"/>
      </g>
    </g>
    <g>
      <g>
        <g>
          <path class="cls-7" d="M338.04,208.11c-3.46.5-5.54,1.67-5.55,2.9v6.74c0,.4.22.81.68,1.2,1.43,1.21,4.77,1.94,8.3,1.94v-13.03c-1.15,0-2.31.08-3.44.24Z"/>
          <path class="cls-8" d="M350.46,211.02c0-.4-.22-.81-.68-1.2-1.43-1.21-4.78-1.94-8.3-1.94v13.03c1.15,0,2.31-.08,3.44-.24,3.46-.5,5.54-1.67,5.55-2.9v-6.74Z"/>
        </g>
        <path class="cls-8" d="M349.77,209.82c1.9,1.6-.28,3.44-4.86,4.11-4.58.66-9.84-.1-11.74-1.7-1.9-1.6.28-3.44,4.86-4.11,4.58-.66,9.84.1,11.74,1.7Z"/>
      </g>
      <g>
        <g>
          <path class="cls-7" d="M349.32,217.64c-3.46.5-5.54,1.67-5.55,2.9v6.74c0,.4.22.81.68,1.2,1.43,1.21,4.77,1.94,8.3,1.94v-13.03c-1.15,0-2.31.08-3.44.24Z"/>
          <path class="cls-8" d="M361.74,220.55c0-.4-.22-.81-.68-1.2-1.43-1.21-4.78-1.94-8.3-1.94v13.03c1.15,0,2.31-.08,3.44-.24,3.46-.5,5.54-1.67,5.55-2.9v-6.74Z"/>
        </g>
        <path class="cls-8" d="M361.05,219.35c1.9,1.6-.28,3.44-4.86,4.11-4.58.66-9.84-.1-11.74-1.7s.28-3.44,4.86-4.11,9.84.1,11.74,1.7Z"/>
      </g>
    </g>
    <g>
      <g>
        <g>
          <path class="cls-7" d="M310.81,212.06c-3.46.5-5.54,1.67-5.55,2.9v6.74c0,.4.22.81.68,1.2,1.43,1.21,4.77,1.94,8.3,1.94v-13.03c-1.15,0-2.31.08-3.44.24Z"/>
          <path class="cls-8" d="M323.23,214.97c0-.4-.22-.81-.68-1.2-1.43-1.21-4.78-1.94-8.3-1.94v13.03c1.15,0,2.31-.08,3.44-.24,3.46-.5,5.54-1.67,5.55-2.9v-6.74Z"/>
        </g>
        <path class="cls-8" d="M322.55,213.76c1.9,1.6-.28,3.44-4.86,4.11-4.58.66-9.84-.1-11.74-1.7-1.9-1.6.28-3.44,4.86-4.11,4.58-.66,9.84.1,11.74,1.7Z"/>
      </g>
      <g>
        <g>
          <path class="cls-7" d="M322.09,221.59c-3.46.5-5.54,1.67-5.55,2.9v6.74c0,.4.22.81.68,1.2,1.43,1.21,4.77,1.94,8.3,1.94v-13.03c-1.15,0-2.31.08-3.44.24Z"/>
          <path class="cls-8" d="M334.51,224.5c0-.4-.22-.81-.68-1.2-1.43-1.21-4.78-1.94-8.3-1.94v13.03c1.15,0,2.31-.08,3.44-.24,3.46-.5,5.54-1.67,5.55-2.9v-6.74Z"/>
        </g>
        <path class="cls-8" d="M333.82,223.29c1.9,1.6-.28,3.44-4.86,4.11-4.58.66-9.84-.1-11.74-1.7s.28-3.44,4.86-4.11c4.58-.66,9.84.1,11.74,1.7Z"/>
      </g>
    </g>
    <g>
      <g>
        <g>
          <path class="cls-7" d="M283.58,216.01c-3.46.5-5.54,1.67-5.55,2.9v6.74c0,.4.22.81.68,1.2,1.43,1.21,4.77,1.94,8.3,1.94v-13.03c-1.15,0-2.31.08-3.44.24Z"/>
          <path class="cls-8" d="M296,218.91c0-.4-.22-.81-.68-1.2-1.43-1.21-4.78-1.94-8.3-1.94v13.03c1.15,0,2.31-.08,3.44-.24,3.46-.5,5.54-1.67,5.55-2.9v-6.74Z"/>
        </g>
        <path class="cls-8" d="M295.32,217.71c1.9,1.6-.28,3.44-4.86,4.11s-9.84-.1-11.74-1.7c-1.9-1.6.28-3.44,4.86-4.11,4.58-.66,9.84.1,11.74,1.7Z"/>
      </g>
      <g>
        <g>
          <path class="cls-7" d="M294.86,225.54c-3.46.5-5.54,1.67-5.55,2.9v6.74c0,.4.22.81.68,1.2,1.43,1.21,4.77,1.94,8.3,1.94v-13.03c-1.15,0-2.31.08-3.44.24Z"/>
          <path class="cls-8" d="M307.28,228.44c0-.4-.22-.81-.68-1.2-1.43-1.21-4.78-1.94-8.3-1.94v13.03c1.15,0,2.31-.08,3.44-.24,3.46-.5,5.54-1.67,5.55-2.9v-6.74Z"/>
        </g>
        <path class="cls-8" d="M306.6,227.24c1.9,1.6-.28,3.44-4.86,4.11-4.58.66-9.84-.1-11.74-1.7s.28-3.44,4.86-4.11c4.58-.66,9.84.1,11.74,1.7Z"/>
      </g>
    </g>
    <g>
      <g>
        <g>
          <path class="cls-7" d="M256.36,219.96c-3.46.5-5.54,1.67-5.55,2.9v6.74c0,.4.22.81.68,1.2,1.43,1.21,4.77,1.94,8.3,1.94v-13.03c-1.15,0-2.31.08-3.44.24Z"/>
          <path class="cls-8" d="M268.78,222.86c0-.4-.22-.81-.68-1.2-1.43-1.21-4.78-1.94-8.3-1.94v13.03c1.15,0,2.31-.08,3.44-.24,3.46-.5,5.54-1.67,5.55-2.9v-6.74Z"/>
        </g>
        <path class="cls-8" d="M268.09,221.66c1.9,1.6-.28,3.44-4.86,4.11-4.58.66-9.84-.1-11.74-1.7s.28-3.44,4.86-4.11c4.58-.66,9.84.1,11.74,1.7Z"/>
      </g>
      <g>
        <g>
          <path class="cls-7" d="M267.63,229.49c-3.46.5-5.54,1.67-5.55,2.9v6.74c0,.4.22.81.68,1.2,1.43,1.21,4.77,1.94,8.3,1.94v-13.03c-1.15,0-2.31.08-3.44.24Z"/>
          <path class="cls-8" d="M280.06,232.39c0-.4-.22-.81-.68-1.2-1.43-1.21-4.78-1.94-8.3-1.94v13.03c1.15,0,2.31-.08,3.44-.24,3.46-.5,5.54-1.67,5.55-2.9v-6.74Z"/>
        </g>
        <path class="cls-8" d="M279.37,231.19c1.9,1.6-.28,3.44-4.86,4.11-4.58.66-9.84-.1-11.74-1.7s.28-3.44,4.86-4.11,9.84.1,11.74,1.7Z"/>
      </g>
    </g>
  </g>
  <g>
    <polygon class="cls-8" points="213.31 252.91 186.09 256.86 158.86 260.8 181.42 279.86 208.64 275.92 235.87 271.97 213.31 252.91"/>
    <polygon class="cls-8" points="208.64 275.92 181.42 279.86 181.42 315.8 208.64 311.85 235.87 307.91 235.87 271.97 208.64 275.92"/>
    <polygon class="cls-7" points="158.86 260.8 158.86 296.74 181.42 315.8 181.42 279.86 158.86 260.8"/>
    <g>
      <g>
        <path class="cls-7" d="M174.68,253.95c-3.46.5-5.54,1.67-5.55,2.9v6.74c0,.4.22.81.68,1.2,1.43,1.21,4.77,1.94,8.3,1.94v-13.03c-1.15,0-2.31.08-3.44.24Z"/>
        <path class="cls-8" d="M187.1,256.86c0-.4-.22-.81-.68-1.2-1.43-1.21-4.78-1.94-8.3-1.94v13.03c1.15,0,2.31-.08,3.44-.24,3.46-.5,5.54-1.67,5.55-2.9v-6.74Z"/>
      </g>
      <path class="cls-8" d="M186.41,255.65c1.9,1.6-.28,3.44-4.86,4.11s-9.84-.1-11.74-1.7.28-3.44,4.86-4.11c4.58-.66,9.84.1,11.74,1.7Z"/>
    </g>
    <g>
      <g>
        <path class="cls-7" d="M185.95,263.48c-3.46.5-5.54,1.67-5.55,2.9v6.74c0,.4.22.81.68,1.2,1.43,1.21,4.77,1.94,8.3,1.94v-13.03c-1.15,0-2.31.08-3.44.24Z"/>
        <path class="cls-8" d="M198.37,266.39c0-.4-.22-.81-.68-1.2-1.43-1.21-4.78-1.94-8.3-1.94v13.03c1.15,0,2.31-.08,3.44-.24,3.46-.5,5.54-1.67,5.55-2.9v-6.74Z"/>
      </g>
      <path class="cls-8" d="M197.69,265.18c1.9,1.6-.28,3.44-4.86,4.11-4.58.66-9.84-.1-11.74-1.7s.28-3.44,4.86-4.11,9.84.1,11.74,1.7Z"/>
    </g>
    <g>
      <g>
        <path class="cls-7" d="M201.9,250c-3.46.5-5.54,1.67-5.55,2.9v6.74c0,.4.22.81.68,1.2,1.43,1.21,4.77,1.94,8.3,1.94v-13.03c-1.15,0-2.31.08-3.44.24Z"/>
        <path class="cls-8" d="M214.32,252.91c0-.4-.22-.81-.68-1.2-1.43-1.21-4.78-1.94-8.3-1.94v13.03c1.15,0,2.31-.08,3.44-.24,3.46-.5,5.54-1.67,5.55-2.9v-6.74Z"/>
      </g>
      <path class="cls-8" d="M213.64,251.71c1.9,1.6-.28,3.44-4.86,4.11s-9.84-.1-11.74-1.7.28-3.44,4.86-4.11,9.84.1,11.74,1.7Z"/>
    </g>
    <g>
      <g>
        <path class="cls-7" d="M213.18,259.53c-3.46.5-5.54,1.67-5.55,2.9v6.74c0,.4.22.81.68,1.2,1.43,1.21,4.77,1.94,8.3,1.94v-13.03c-1.15,0-2.31.08-3.44.24Z"/>
        <path class="cls-8" d="M225.6,262.44c0-.4-.22-.81-.68-1.2-1.43-1.21-4.78-1.94-8.3-1.94v13.03c1.15,0,2.31-.08,3.44-.24,3.46-.5,5.54-1.67,5.55-2.9v-6.74Z"/>
      </g>
      <path class="cls-8" d="M224.92,261.24c1.9,1.6-.28,3.44-4.86,4.11s-9.84-.1-11.74-1.7.28-3.44,4.86-4.11,9.84.1,11.74,1.7Z"/>
    </g>
  </g>
  <g>
    <polygon class="cls-8" points="158.86 236.87 131.63 240.81 104.41 244.76 126.96 263.82 154.19 259.87 181.42 255.92 158.86 236.87"/>
    <polygon class="cls-8" points="154.19 259.87 126.96 263.82 126.96 299.76 154.19 295.81 181.42 291.86 181.42 255.92 154.19 259.87"/>
    <polygon class="cls-7" points="104.41 244.76 104.41 280.7 126.96 299.76 126.96 263.82 104.41 244.76"/>
    <g>
      <g>
        <path class="cls-7" d="M120.22,237.91c-3.46.5-5.54,1.67-5.55,2.9v6.74c0,.4.22.81.68,1.2,1.43,1.21,4.77,1.94,8.3,1.94v-13.03c-1.15,0-2.31.08-3.44.24Z"/>
        <path class="cls-8" d="M132.64,240.81c0-.4-.22-.81-.68-1.2-1.43-1.21-4.78-1.94-8.3-1.94v13.03c1.15,0,2.31-.08,3.44-.24,3.46-.5,5.54-1.67,5.55-2.9v-6.74Z"/>
      </g>
      <path class="cls-8" d="M131.96,239.61c1.9,1.6-.28,3.44-4.86,4.11-4.58.66-9.84-.1-11.74-1.7s.28-3.44,4.86-4.11c4.58-.66,9.84.1,11.74,1.7Z"/>
    </g>
    <g>
      <g>
        <path class="cls-7" d="M131.5,247.44c-3.46.5-5.54,1.67-5.55,2.9v6.74c0,.4.22.81.68,1.2,1.43,1.21,4.77,1.94,8.3,1.94v-13.03c-1.15,0-2.31.08-3.44.24Z"/>
        <path class="cls-8" d="M143.92,250.34c0-.4-.22-.81-.68-1.2-1.43-1.21-4.78-1.94-8.3-1.94v13.03c1.15,0,2.31-.08,3.44-.24,3.46-.5,5.54-1.67,5.55-2.9v-6.74Z"/>
      </g>
      <path class="cls-8" d="M143.24,249.14c1.9,1.6-.28,3.44-4.86,4.11-4.58.66-9.84-.1-11.74-1.7s.28-3.44,4.86-4.11c4.58-.66,9.84.1,11.74,1.7Z"/>
    </g>
    <g>
      <g>
        <path class="cls-7" d="M147.45,233.96c-3.46.5-5.54,1.67-5.55,2.9v6.74c0,.4.22.81.68,1.2,1.43,1.21,4.77,1.94,8.3,1.94v-13.03c-1.15,0-2.31.08-3.44.24Z"/>
        <path class="cls-8" d="M159.87,236.87c0-.4-.22-.81-.68-1.2-1.43-1.21-4.78-1.94-8.3-1.94v13.03c1.15,0,2.31-.08,3.44-.24,3.46-.5,5.54-1.67,5.55-2.9v-6.74Z"/>
      </g>
      <path class="cls-8" d="M159.18,235.66c1.9,1.6-.28,3.44-4.86,4.11-4.58.66-9.84-.1-11.74-1.7s.28-3.44,4.86-4.11,9.84.1,11.74,1.7Z"/>
    </g>
    <g>
      <g>
        <path class="cls-7" d="M158.73,243.49c-3.46.5-5.54,1.67-5.55,2.9v6.74c0,.4.22.81.68,1.2,1.43,1.21,4.77,1.94,8.3,1.94v-13.03c-1.15,0-2.31.08-3.44.24Z"/>
        <path class="cls-8" d="M171.15,246.4c0-.4-.22-.81-.68-1.2-1.43-1.21-4.78-1.94-8.3-1.94v13.03c1.15,0,2.31-.08,3.44-.24,3.46-.5,5.54-1.67,5.55-2.9v-6.74Z"/>
      </g>
      <path class="cls-8" d="M170.46,245.19c1.9,1.6-.28,3.44-4.86,4.11s-9.84-.1-11.74-1.7.28-3.44,4.86-4.11,9.84.1,11.74,1.7Z"/>
    </g>
  </g>
  <g>
    <polygon class="cls-8" points="349.45 154.44 322.22 158.39 295 162.34 317.55 181.4 344.78 177.45 372.01 173.5 349.45 154.44"/>
    <polygon class="cls-8" points="344.78 177.45 317.55 181.4 317.55 217.34 344.78 213.39 372.01 209.44 372.01 173.5 344.78 177.45"/>
    <polygon class="cls-7" points="295 162.34 295 198.28 317.55 217.34 317.55 181.4 295 162.34"/>
    <g>
      <g>
        <path class="cls-7" d="M310.81,155.49c-3.46.5-5.54,1.67-5.55,2.9v6.74c0,.4.22.81.68,1.2,1.43,1.21,4.77,1.94,8.3,1.94v-13.03c-1.15,0-2.31.08-3.44.24Z"/>
        <path class="cls-8" d="M323.23,158.39c0-.4-.22-.81-.68-1.2-1.43-1.21-4.78-1.94-8.3-1.94v13.03c1.15,0,2.31-.08,3.44-.24,3.46-.5,5.54-1.67,5.55-2.9v-6.74Z"/>
      </g>
      <path class="cls-8" d="M322.55,157.19c1.9,1.6-.28,3.44-4.86,4.11s-9.84-.1-11.74-1.7.28-3.44,4.86-4.11,9.84.1,11.74,1.7Z"/>
    </g>
    <g>
      <g>
        <path class="cls-7" d="M322.09,165.02c-3.46.5-5.54,1.67-5.55,2.9v6.74c0,.4.22.81.68,1.2,1.43,1.21,4.77,1.94,8.3,1.94v-13.03c-1.15,0-2.31.08-3.44.24Z"/>
        <path class="cls-8" d="M334.51,167.92c0-.4-.22-.81-.68-1.2-1.43-1.21-4.78-1.94-8.3-1.94v13.03c1.15,0,2.31-.08,3.44-.24,3.46-.5,5.54-1.67,5.55-2.9v-6.74Z"/>
      </g>
      <path class="cls-8" d="M333.82,166.72c1.9,1.6-.28,3.44-4.86,4.11s-9.84-.1-11.74-1.7c-1.9-1.6.28-3.44,4.86-4.11s9.84.1,11.74,1.7Z"/>
    </g>
    <g>
      <g>
        <path class="cls-7" d="M338.04,151.54c-3.46.5-5.54,1.67-5.55,2.9v6.74c0,.4.22.81.68,1.2,1.43,1.21,4.77,1.94,8.3,1.94v-13.03c-1.15,0-2.31.08-3.44.24Z"/>
        <path class="cls-8" d="M350.46,154.44c0-.4-.22-.81-.68-1.2-1.43-1.21-4.78-1.94-8.3-1.94v13.03c1.15,0,2.31-.08,3.44-.24,3.46-.5,5.54-1.67,5.55-2.9v-6.74Z"/>
      </g>
      <path class="cls-8" d="M349.77,153.24c1.9,1.6-.28,3.44-4.86,4.11-4.58.66-9.84-.1-11.74-1.7s.28-3.44,4.86-4.11c4.58-.66,9.84.1,11.74,1.7Z"/>
    </g>
    <g>
      <g>
        <path class="cls-7" d="M349.32,161.07c-3.46.5-5.54,1.67-5.55,2.9v6.74c0,.4.22.81.68,1.2,1.43,1.21,4.77,1.94,8.3,1.94v-13.03c-1.15,0-2.31.08-3.44.24Z"/>
        <path class="cls-8" d="M361.74,163.97c0-.4-.22-.81-.68-1.2-1.43-1.21-4.78-1.94-8.3-1.94v13.03c1.15,0,2.31-.08,3.44-.24,3.46-.5,5.54-1.67,5.55-2.9v-6.74Z"/>
      </g>
      <path class="cls-8" d="M361.05,162.77c1.9,1.6-.28,3.44-4.86,4.11-4.58.66-9.84-.1-11.74-1.7s.28-3.44,4.86-4.11c4.58-.66,9.84.1,11.74,1.7Z"/>
    </g>
  </g>
  <g>
    <polygon class="cls-8" points="372.01 124.27 344.78 128.22 322.22 109.16 349.45 105.21 372.01 124.27"/>
    <polygon class="cls-8" points="344.78 164.15 372.01 160.21 372.01 124.27 344.78 128.22 344.78 164.15"/>
    <polygon class="cls-7" points="322.22 109.16 322.22 145.1 344.78 164.15 344.78 128.22 322.22 109.16"/>
    <g>
      <g>
        <path class="cls-7" d="M338.04,102.31c-3.46.5-5.54,1.67-5.55,2.9v6.74c0,.4.22.81.68,1.2,1.43,1.21,4.77,1.94,8.3,1.94v-13.03c-1.15,0-2.31.08-3.44.24Z"/>
        <path class="cls-8" d="M350.46,105.21c0-.4-.22-.81-.68-1.2-1.43-1.21-4.78-1.94-8.3-1.94v13.03c1.15,0,2.31-.08,3.44-.24,3.46-.5,5.54-1.67,5.55-2.9v-6.74Z"/>
      </g>
      <path class="cls-8" d="M349.77,104.01c1.9,1.6-.28,3.44-4.86,4.11-4.58.66-9.84-.1-11.74-1.7s.28-3.44,4.86-4.11c4.58-.66,9.84.1,11.74,1.7Z"/>
    </g>
    <g>
      <g>
        <path class="cls-7" d="M349.32,111.84c-3.46.5-5.54,1.67-5.55,2.9v6.74c0,.4.22.81.68,1.2,1.43,1.21,4.77,1.94,8.3,1.94v-13.03c-1.15,0-2.31.08-3.44.24Z"/>
        <path class="cls-8" d="M361.74,114.74c0-.4-.22-.81-.68-1.2-1.43-1.21-4.78-1.94-8.3-1.94v13.03c1.15,0,2.31-.08,3.44-.24,3.46-.5,5.54-1.67,5.55-2.9v-6.74Z"/>
      </g>
      <path class="cls-8" d="M361.05,113.54c1.9,1.6-.28,3.44-4.86,4.11-4.58.66-9.84-.1-11.74-1.7s.28-3.44,4.86-4.11c4.58-.66,9.84.1,11.74,1.7Z"/>
    </g>
  </g>
  <g>
    <polygon class="cls-8" points="213.31 193.19 186.09 197.14 158.86 201.09 131.63 205.03 104.41 208.98 126.96 228.04 154.19 224.09 181.42 220.15 208.64 216.2 235.87 212.25 213.31 193.19"/>
    <polygon class="cls-8" points="126.96 228.04 126.96 263.98 235.87 248.19 235.87 212.25 126.96 228.04"/>
    <polygon class="cls-7" points="104.41 208.98 104.41 244.92 126.96 263.98 126.96 228.04 104.41 208.98"/>
    <g>
      <g>
        <path class="cls-7" d="M120.22,202.13c-3.46.5-5.54,1.67-5.55,2.9v6.74c0,.4.22.81.68,1.2,1.43,1.21,4.77,1.94,8.3,1.94v-13.03c-1.15,0-2.31.08-3.44.24Z"/>
        <path class="cls-8" d="M132.64,205.03c0-.4-.22-.81-.68-1.2-1.43-1.21-4.78-1.94-8.3-1.94v13.03c1.15,0,2.31-.08,3.44-.24,3.46-.5,5.54-1.67,5.55-2.9v-6.74Z"/>
      </g>
      <path class="cls-8" d="M131.96,203.83c1.9,1.6-.28,3.44-4.86,4.11s-9.84-.1-11.74-1.7.28-3.44,4.86-4.11,9.84.1,11.74,1.7Z"/>
    </g>
    <g>
      <g>
        <path class="cls-7" d="M131.5,211.66c-3.46.5-5.54,1.67-5.55,2.9v6.74c0,.4.22.81.68,1.2,1.43,1.21,4.77,1.94,8.3,1.94v-13.03c-1.15,0-2.31.08-3.44.24Z"/>
        <path class="cls-8" d="M143.92,214.56c0-.4-.22-.81-.68-1.2-1.43-1.21-4.78-1.94-8.3-1.94v13.03c1.15,0,2.31-.08,3.44-.24,3.46-.5,5.54-1.67,5.55-2.9v-6.74Z"/>
      </g>
      <path class="cls-8" d="M143.24,213.36c1.9,1.6-.28,3.44-4.86,4.11-4.58.66-9.84-.1-11.74-1.7s.28-3.44,4.86-4.11c4.58-.66,9.84.1,11.74,1.7Z"/>
    </g>
    <g>
      <g>
        <path class="cls-7" d="M201.9,190.29c-3.46.5-5.54,1.67-5.55,2.9v6.74c0,.4.22.81.68,1.2,1.43,1.21,4.77,1.94,8.3,1.94v-13.03c-1.15,0-2.31.08-3.44.24Z"/>
        <path class="cls-8" d="M214.32,193.19c0-.4-.22-.81-.68-1.2-1.43-1.21-4.78-1.94-8.3-1.94v13.03c1.15,0,2.31-.08,3.44-.24,3.46-.5,5.54-1.67,5.55-2.9v-6.74Z"/>
      </g>
      <path class="cls-8" d="M213.64,191.99c1.9,1.6-.28,3.44-4.86,4.11-4.58.66-9.84-.1-11.74-1.7s.28-3.44,4.86-4.11c4.58-.66,9.84.1,11.74,1.7Z"/>
    </g>
    <g>
      <g>
        <path class="cls-7" d="M213.18,199.82c-3.46.5-5.54,1.67-5.55,2.9v6.74c0,.4.22.81.68,1.2,1.43,1.21,4.77,1.94,8.3,1.94v-13.03c-1.15,0-2.31.08-3.44.24Z"/>
        <path class="cls-8" d="M225.6,202.72c0-.4-.22-.81-.68-1.2-1.43-1.21-4.78-1.94-8.3-1.94v13.03c1.15,0,2.31-.08,3.44-.24,3.46-.5,5.54-1.67,5.55-2.9v-6.74Z"/>
      </g>
      <path class="cls-8" d="M224.92,201.52c1.9,1.6-.28,3.44-4.86,4.11-4.58.66-9.84-.1-11.74-1.7-1.9-1.6.28-3.44,4.86-4.11s9.84.1,11.74,1.7Z"/>
    </g>
    <g>
      <g>
        <path class="cls-7" d="M174.68,194.23c-3.46.5-5.54,1.67-5.55,2.9v6.74c0,.4.22.81.68,1.2,1.43,1.21,4.77,1.94,8.3,1.94v-13.03c-1.15,0-2.31.08-3.44.24Z"/>
        <path class="cls-8" d="M187.1,197.14c0-.4-.22-.81-.68-1.2-1.43-1.21-4.78-1.94-8.3-1.94v13.03c1.15,0,2.31-.08,3.44-.24,3.46-.5,5.54-1.67,5.55-2.9v-6.74Z"/>
      </g>
      <path class="cls-8" d="M186.41,195.94c1.9,1.6-.28,3.44-4.86,4.11-4.58.66-9.84-.1-11.74-1.7-1.9-1.6.28-3.44,4.86-4.11s9.84.1,11.74,1.7Z"/>
    </g>
    <g>
      <g>
        <path class="cls-7" d="M185.95,203.76c-3.46.5-5.54,1.67-5.55,2.9v6.74c0,.4.22.81.68,1.2,1.43,1.21,4.77,1.94,8.3,1.94v-13.03c-1.15,0-2.31.08-3.44.24Z"/>
        <path class="cls-8" d="M198.37,206.67c0-.4-.22-.81-.68-1.2-1.43-1.21-4.78-1.94-8.3-1.94v13.03c1.15,0,2.31-.08,3.44-.24,3.46-.5,5.54-1.67,5.55-2.9v-6.74Z"/>
      </g>
      <path class="cls-8" d="M197.69,205.47c1.9,1.6-.28,3.44-4.86,4.11s-9.84-.1-11.74-1.7.28-3.44,4.86-4.11c4.58-.66,9.84.1,11.74,1.7Z"/>
    </g>
    <g>
      <g>
        <path class="cls-7" d="M147.45,198.18c-3.46.5-5.54,1.67-5.55,2.9v6.74c0,.4.22.81.68,1.2,1.43,1.21,4.77,1.94,8.3,1.94v-13.03c-1.15,0-2.31.08-3.44.24Z"/>
        <path class="cls-8" d="M159.87,201.09c0-.4-.22-.81-.68-1.2-1.43-1.21-4.78-1.94-8.3-1.94v13.03c1.15,0,2.31-.08,3.44-.24,3.46-.5,5.54-1.67,5.55-2.9v-6.74Z"/>
      </g>
      <path class="cls-8" d="M159.18,199.88c1.9,1.6-.28,3.44-4.86,4.11s-9.84-.1-11.74-1.7.28-3.44,4.86-4.11,9.84.1,11.74,1.7Z"/>
    </g>
    <g>
      <g>
        <path class="cls-7" d="M158.73,207.71c-3.46.5-5.54,1.67-5.55,2.9v6.74c0,.4.22.81.68,1.2,1.43,1.21,4.77,1.94,8.3,1.94v-13.03c-1.15,0-2.31.08-3.44.24Z"/>
        <path class="cls-8" d="M171.15,210.62c0-.4-.22-.81-.68-1.2-1.43-1.21-4.78-1.94-8.3-1.94v13.03c1.15,0,2.31-.08,3.44-.24,3.46-.5,5.54-1.67,5.55-2.9v-6.74Z"/>
      </g>
      <path class="cls-8" d="M170.46,209.41c1.9,1.6-.28,3.44-4.86,4.11s-9.84-.1-11.74-1.7c-1.9-1.6.28-3.44,4.86-4.11,4.58-.66,9.84.1,11.74,1.7Z"/>
    </g>
  </g>
  <g>
    <polygon class="cls-8" points="295 133.14 267.77 137.09 240.54 141.03 263.1 160.09 290.32 156.15 317.55 152.2 295 133.14"/>
    <polygon class="cls-8" points="290.32 156.15 263.1 160.09 263.1 196.03 290.32 192.08 317.55 188.14 317.55 152.2 290.32 156.15"/>
    <polygon class="cls-7" points="240.54 141.03 240.54 176.97 263.1 196.03 263.1 160.09 240.54 141.03"/>
    <g>
      <g>
        <path class="cls-7" d="M256.36,134.18c-3.46.5-5.54,1.67-5.55,2.9v6.74c0,.4.22.81.68,1.2,1.43,1.21,4.77,1.94,8.3,1.94v-13.03c-1.15,0-2.31.08-3.44.24Z"/>
        <path class="cls-8" d="M268.78,137.09c0-.4-.22-.81-.68-1.2-1.43-1.21-4.78-1.94-8.3-1.94v13.03c1.15,0,2.31-.08,3.44-.24,3.46-.5,5.54-1.67,5.55-2.9v-6.74Z"/>
      </g>
      <path class="cls-8" d="M268.09,135.88c1.9,1.6-.28,3.44-4.86,4.11s-9.84-.1-11.74-1.7c-1.9-1.6.28-3.44,4.86-4.11s9.84.1,11.74,1.7Z"/>
    </g>
    <g>
      <g>
        <path class="cls-7" d="M267.63,143.71c-3.46.5-5.54,1.67-5.55,2.9v6.74c0,.4.22.81.68,1.2,1.43,1.21,4.77,1.94,8.3,1.94v-13.03c-1.15,0-2.31.08-3.44.24Z"/>
        <path class="cls-8" d="M280.06,146.62c0-.4-.22-.81-.68-1.2-1.43-1.21-4.78-1.94-8.3-1.94v13.03c1.15,0,2.31-.08,3.44-.24,3.46-.5,5.54-1.67,5.55-2.9v-6.74Z"/>
      </g>
      <path class="cls-8" d="M279.37,145.41c1.9,1.6-.28,3.44-4.86,4.11s-9.84-.1-11.74-1.7c-1.9-1.6.28-3.44,4.86-4.11s9.84.1,11.74,1.7Z"/>
    </g>
    <g>
      <g>
        <path class="cls-7" d="M283.58,130.24c-3.46.5-5.54,1.67-5.55,2.9v6.74c0,.4.22.81.68,1.2,1.43,1.21,4.77,1.94,8.3,1.94v-13.03c-1.15,0-2.31.08-3.44.24Z"/>
        <path class="cls-8" d="M296,133.14c0-.4-.22-.81-.68-1.2-1.43-1.21-4.78-1.94-8.3-1.94v13.03c1.15,0,2.31-.08,3.44-.24,3.46-.5,5.54-1.67,5.55-2.9v-6.74Z"/>
      </g>
      <path class="cls-8" d="M295.32,131.94c1.9,1.6-.28,3.44-4.86,4.11s-9.84-.1-11.74-1.7c-1.9-1.6.28-3.44,4.86-4.11,4.58-.66,9.84.1,11.74,1.7Z"/>
    </g>
    <g>
      <g>
        <path class="cls-7" d="M294.86,139.76c-3.46.5-5.54,1.67-5.55,2.9v6.74c0,.4.22.81.68,1.2,1.43,1.21,4.77,1.94,8.3,1.94v-13.03c-1.15,0-2.31.08-3.44.24Z"/>
        <path class="cls-8" d="M307.28,142.67c0-.4-.22-.81-.68-1.2-1.43-1.21-4.78-1.94-8.3-1.94v13.03c1.15,0,2.31-.08,3.44-.24,3.46-.5,5.54-1.67,5.55-2.9v-6.74Z"/>
      </g>
      <path class="cls-8" d="M306.6,141.47c1.9,1.6-.28,3.44-4.86,4.11-4.58.66-9.84-.1-11.74-1.7s.28-3.44,4.86-4.11c4.58-.66,9.84.1,11.74,1.7Z"/>
    </g>
  </g>
  <g>
    <polygon class="cls-8" points="240.54 125.22 213.31 129.16 186.09 133.11 158.86 137.06 131.63 141 154.19 160.06 181.42 156.12 208.64 152.17 235.87 148.22 263.1 144.27 240.54 125.22"/>
    <polygon class="cls-8" points="154.19 160.06 154.19 196 263.1 180.21 263.1 144.27 154.19 160.06"/>
    <polygon class="cls-7" points="131.63 141 131.63 176.94 154.19 196 154.19 160.06 131.63 141"/>
    <g>
      <g>
        <path class="cls-7" d="M147.45,134.15c-3.46.5-5.54,1.67-5.55,2.9v6.74c0,.4.22.81.68,1.2,1.43,1.21,4.77,1.94,8.3,1.94v-13.03c-1.15,0-2.31.08-3.44.24Z"/>
        <path class="cls-8" d="M159.87,137.06c0-.4-.22-.81-.68-1.2-1.43-1.21-4.78-1.94-8.3-1.94v13.03c1.15,0,2.31-.08,3.44-.24,3.46-.5,5.54-1.67,5.55-2.9v-6.74Z"/>
      </g>
      <path class="cls-8" d="M159.18,135.85c1.9,1.6-.28,3.44-4.86,4.11-4.58.66-9.84-.1-11.74-1.7s.28-3.44,4.86-4.11c4.58-.66,9.84.1,11.74,1.7Z"/>
    </g>
    <g>
      <g>
        <path class="cls-7" d="M158.73,143.68c-3.46.5-5.54,1.67-5.55,2.9v6.74c0,.4.22.81.68,1.2,1.43,1.21,4.77,1.94,8.3,1.94v-13.03c-1.15,0-2.31.08-3.44.24Z"/>
        <path class="cls-8" d="M171.15,146.59c0-.4-.22-.81-.68-1.2-1.43-1.21-4.78-1.94-8.3-1.94v13.03c1.15,0,2.31-.08,3.44-.24,3.46-.5,5.54-1.67,5.55-2.9v-6.74Z"/>
      </g>
      <path class="cls-8" d="M170.46,145.38c1.9,1.6-.28,3.44-4.86,4.11s-9.84-.1-11.74-1.7c-1.9-1.6.28-3.44,4.86-4.11,4.58-.66,9.84.1,11.74,1.7Z"/>
    </g>
    <g>
      <g>
        <path class="cls-7" d="M229.13,122.31c-3.46.5-5.54,1.67-5.55,2.9v6.74c0,.4.22.81.68,1.2,1.43,1.21,4.77,1.94,8.3,1.94v-13.03c-1.15,0-2.31.08-3.44.24Z"/>
        <path class="cls-8" d="M241.55,125.22c0-.4-.22-.81-.68-1.2-1.43-1.21-4.78-1.94-8.3-1.94v13.03c1.15,0,2.31-.08,3.44-.24,3.46-.5,5.54-1.67,5.55-2.9v-6.74Z"/>
      </g>
      <path class="cls-8" d="M240.87,124.01c1.9,1.6-.28,3.44-4.86,4.11-4.58.66-9.84-.1-11.74-1.7s.28-3.44,4.86-4.11,9.84.1,11.74,1.7Z"/>
    </g>
    <g>
      <g>
        <path class="cls-7" d="M240.41,131.84c-3.46.5-5.54,1.67-5.55,2.9v6.74c0,.4.22.81.68,1.2,1.43,1.21,4.77,1.94,8.3,1.94v-13.03c-1.15,0-2.31.08-3.44.24Z"/>
        <path class="cls-8" d="M252.83,134.74c0-.4-.22-.81-.68-1.2-1.43-1.21-4.78-1.94-8.3-1.94v13.03c1.15,0,2.31-.08,3.44-.24,3.46-.5,5.54-1.67,5.55-2.9v-6.74Z"/>
      </g>
      <path class="cls-8" d="M252.14,133.54c1.9,1.6-.28,3.44-4.86,4.11-4.58.66-9.84-.1-11.74-1.7s.28-3.44,4.86-4.11,9.84.1,11.74,1.7Z"/>
    </g>
    <g>
      <g>
        <path class="cls-7" d="M201.9,126.26c-3.46.5-5.54,1.67-5.55,2.9v6.74c0,.4.22.81.68,1.2,1.43,1.21,4.77,1.94,8.3,1.94v-13.03c-1.15,0-2.31.08-3.44.24Z"/>
        <path class="cls-8" d="M214.32,129.16c0-.4-.22-.81-.68-1.2-1.43-1.21-4.78-1.94-8.3-1.94v13.03c1.15,0,2.31-.08,3.44-.24,3.46-.5,5.54-1.67,5.55-2.9v-6.74Z"/>
      </g>
      <path class="cls-8" d="M213.64,127.96c1.9,1.6-.28,3.44-4.86,4.11-4.58.66-9.84-.1-11.74-1.7-1.9-1.6.28-3.44,4.86-4.11,4.58-.66,9.84.1,11.74,1.7Z"/>
    </g>
    <g>
      <g>
        <path class="cls-7" d="M213.18,135.79c-3.46.5-5.54,1.67-5.55,2.9v6.74c0,.4.22.81.68,1.2,1.43,1.21,4.77,1.94,8.3,1.94v-13.03c-1.15,0-2.31.08-3.44.24Z"/>
        <path class="cls-8" d="M225.6,138.69c0-.4-.22-.81-.68-1.2-1.43-1.21-4.78-1.94-8.3-1.94v13.03c1.15,0,2.31-.08,3.44-.24,3.46-.5,5.54-1.67,5.55-2.9v-6.74Z"/>
      </g>
      <path class="cls-8" d="M224.92,137.49c1.9,1.6-.28,3.44-4.86,4.11-4.58.66-9.84-.1-11.74-1.7s.28-3.44,4.86-4.11c4.58-.66,9.84.1,11.74,1.7Z"/>
    </g>
    <g>
      <g>
        <path class="cls-7" d="M174.68,130.21c-3.46.5-5.54,1.67-5.55,2.9v6.74c0,.4.22.81.68,1.2,1.43,1.21,4.77,1.94,8.3,1.94v-13.03c-1.15,0-2.31.08-3.44.24Z"/>
        <path class="cls-8" d="M187.1,133.11c0-.4-.22-.81-.68-1.2-1.43-1.21-4.78-1.94-8.3-1.94v13.03c1.15,0,2.31-.08,3.44-.24,3.46-.5,5.54-1.67,5.55-2.9v-6.74Z"/>
      </g>
      <path class="cls-8" d="M186.41,131.91c1.9,1.6-.28,3.44-4.86,4.11s-9.84-.1-11.74-1.7.28-3.44,4.86-4.11,9.84.1,11.74,1.7Z"/>
    </g>
    <g>
      <g>
        <path class="cls-7" d="M185.95,139.73c-3.46.5-5.54,1.67-5.55,2.9v6.74c0,.4.22.81.68,1.2,1.43,1.21,4.77,1.94,8.3,1.94v-13.03c-1.15,0-2.31.08-3.44.24Z"/>
        <path class="cls-8" d="M198.37,142.64c0-.4-.22-.81-.68-1.2-1.43-1.21-4.78-1.94-8.3-1.94v13.03c1.15,0,2.31-.08,3.44-.24,3.46-.5,5.54-1.67,5.55-2.9v-6.74Z"/>
      </g>
      <path class="cls-8" d="M197.69,141.44c1.9,1.6-.28,3.44-4.86,4.11s-9.84-.1-11.74-1.7c-1.9-1.6.28-3.44,4.86-4.11s9.84.1,11.74,1.7Z"/>
    </g>
  </g>
  <g>
    <g>
      <polygon class="cls-8" points="317.55 79.65 154.19 103.33 131.63 84.27 295 60.59 317.55 79.65"/>
      <polygon class="cls-8" points="154.19 139.27 317.55 115.59 317.55 79.65 154.19 103.33 154.19 139.27"/>
      <polygon class="cls-7" points="131.63 84.27 131.63 120.21 154.19 139.27 154.19 103.33 131.63 84.27"/>
      <g>
        <g>
          <path class="cls-7" d="M147.45,77.42c-3.46.5-5.54,1.67-5.55,2.9v6.74c0,.4.22.81.68,1.2,1.43,1.21,4.77,1.94,8.3,1.94v-13.03c-1.15,0-2.31.08-3.44.24Z"/>
          <path class="cls-8" d="M159.87,80.33c0-.4-.22-.81-.68-1.2-1.43-1.21-4.78-1.94-8.3-1.94v13.03c1.15,0,2.31-.08,3.44-.24,3.46-.5,5.54-1.67,5.55-2.9v-6.74Z"/>
        </g>
        <path class="cls-8" d="M159.18,79.12c1.9,1.6-.28,3.44-4.86,4.11-4.58.66-9.84-.1-11.74-1.7s.28-3.44,4.86-4.11,9.84.1,11.74,1.7Z"/>
      </g>
      <g>
        <g>
          <path class="cls-7" d="M158.73,86.95c-3.46.5-5.54,1.67-5.55,2.9v6.74c0,.4.22.81.68,1.2,1.43,1.21,4.77,1.94,8.3,1.94v-13.03c-1.15,0-2.31.08-3.44.24Z"/>
          <path class="cls-8" d="M171.15,89.86c0-.4-.22-.81-.68-1.2-1.43-1.21-4.78-1.94-8.3-1.94v13.03c1.15,0,2.31-.08,3.44-.24,3.46-.5,5.54-1.67,5.55-2.9v-6.74Z"/>
        </g>
        <path class="cls-8" d="M170.46,88.65c1.9,1.6-.28,3.44-4.86,4.11s-9.84-.1-11.74-1.7.28-3.44,4.86-4.11,9.84.1,11.74,1.7Z"/>
      </g>
    </g>
    <g>
      <g>
        <g>
          <path class="cls-7" d="M283.58,57.69c-3.46.5-5.54,1.67-5.55,2.9v6.74c0,.4.22.81.68,1.2,1.43,1.21,4.77,1.94,8.3,1.94v-13.03c-1.15,0-2.31.08-3.44.24Z"/>
          <path class="cls-8" d="M296,60.59c0-.4-.22-.81-.68-1.2-1.43-1.21-4.78-1.94-8.3-1.94v13.03c1.15,0,2.31-.08,3.44-.24,3.46-.5,5.54-1.67,5.55-2.9v-6.74Z"/>
        </g>
        <path class="cls-8" d="M295.32,59.39c1.9,1.6-.28,3.44-4.86,4.11-4.58.66-9.84-.1-11.74-1.7-1.9-1.6.28-3.44,4.86-4.11,4.58-.66,9.84.1,11.74,1.7Z"/>
      </g>
      <g>
        <g>
          <path class="cls-7" d="M294.86,67.21c-3.46.5-5.54,1.67-5.55,2.9v6.74c0,.4.22.81.68,1.2,1.43,1.21,4.77,1.94,8.3,1.94v-13.03c-1.15,0-2.31.08-3.44.24Z"/>
          <path class="cls-8" d="M307.28,70.12c0-.4-.22-.81-.68-1.2-1.43-1.21-4.78-1.94-8.3-1.94v13.03c1.15,0,2.31-.08,3.44-.24,3.46-.5,5.54-1.67,5.55-2.9v-6.74Z"/>
        </g>
        <path class="cls-8" d="M306.6,68.92c1.9,1.6-.28,3.44-4.86,4.11s-9.84-.1-11.74-1.7c-1.9-1.6.28-3.44,4.86-4.11,4.58-.66,9.84.1,11.74,1.7Z"/>
      </g>
    </g>
    <g>
      <g>
        <g>
          <path class="cls-7" d="M256.36,61.63c-3.46.5-5.54,1.67-5.55,2.9v6.74c0,.4.22.81.68,1.2,1.43,1.21,4.77,1.94,8.3,1.94v-13.03c-1.15,0-2.31.08-3.44.24Z"/>
          <path class="cls-8" d="M268.78,64.54c0-.4-.22-.81-.68-1.2-1.43-1.21-4.78-1.94-8.3-1.94v13.03c1.15,0,2.31-.08,3.44-.24,3.46-.5,5.54-1.67,5.55-2.9v-6.74Z"/>
        </g>
        <path class="cls-8" d="M268.09,63.33c1.9,1.6-.28,3.44-4.86,4.11s-9.84-.1-11.74-1.7.28-3.44,4.86-4.11c4.58-.66,9.84.1,11.74,1.7Z"/>
      </g>
      <g>
        <g>
          <path class="cls-7" d="M267.63,71.16c-3.46.5-5.54,1.67-5.55,2.9v6.74c0,.4.22.81.68,1.2,1.43,1.21,4.77,1.94,8.3,1.94v-13.03c-1.15,0-2.31.08-3.44.24Z"/>
          <path class="cls-8" d="M280.06,74.07c0-.4-.22-.81-.68-1.2-1.43-1.21-4.78-1.94-8.3-1.94v13.03c1.15,0,2.31-.08,3.44-.24,3.46-.5,5.54-1.67,5.55-2.9v-6.74Z"/>
        </g>
        <path class="cls-8" d="M279.37,72.86c1.9,1.6-.28,3.44-4.86,4.11s-9.84-.1-11.74-1.7.28-3.44,4.86-4.11,9.84.1,11.74,1.7Z"/>
      </g>
    </g>
    <g>
      <g>
        <g>
          <path class="cls-7" d="M229.13,65.58c-3.46.5-5.54,1.67-5.55,2.9v6.74c0,.4.22.81.68,1.2,1.43,1.21,4.77,1.94,8.3,1.94v-13.03c-1.15,0-2.31.08-3.44.24Z"/>
          <path class="cls-8" d="M241.55,68.48c0-.4-.22-.81-.68-1.2-1.43-1.21-4.78-1.94-8.3-1.94v13.03c1.15,0,2.31-.08,3.44-.24,3.46-.5,5.54-1.67,5.55-2.9v-6.74Z"/>
        </g>
        <path class="cls-8" d="M240.87,67.28c1.9,1.6-.28,3.44-4.86,4.11-4.58.66-9.84-.1-11.74-1.7s.28-3.44,4.86-4.11c4.58-.66,9.84.1,11.74,1.7Z"/>
      </g>
      <g>
        <g>
          <path class="cls-7" d="M240.41,75.11c-3.46.5-5.54,1.67-5.55,2.9v6.74c0,.4.22.81.68,1.2,1.43,1.21,4.77,1.94,8.3,1.94v-13.03c-1.15,0-2.31.08-3.44.24Z"/>
          <path class="cls-8" d="M252.83,78.01c0-.4-.22-.81-.68-1.2-1.43-1.21-4.78-1.94-8.3-1.94v13.03c1.15,0,2.31-.08,3.44-.24,3.46-.5,5.54-1.67,5.55-2.9v-6.74Z"/>
        </g>
        <path class="cls-8" d="M252.14,76.81c1.9,1.6-.28,3.44-4.86,4.11-4.58.66-9.84-.1-11.74-1.7s.28-3.44,4.86-4.11c4.58-.66,9.84.1,11.74,1.7Z"/>
      </g>
    </g>
    <g>
      <g>
        <g>
          <path class="cls-7" d="M201.9,69.53c-3.46.5-5.54,1.67-5.55,2.9v6.74c0,.4.22.81.68,1.2,1.43,1.21,4.77,1.94,8.3,1.94v-13.03c-1.15,0-2.31.08-3.44.24Z"/>
          <path class="cls-8" d="M214.32,72.43c0-.4-.22-.81-.68-1.2-1.43-1.21-4.78-1.94-8.3-1.94v13.03c1.15,0,2.31-.08,3.44-.24,3.46-.5,5.54-1.67,5.55-2.9v-6.74Z"/>
        </g>
        <path class="cls-8" d="M213.64,71.23c1.9,1.6-.28,3.44-4.86,4.11s-9.84-.1-11.74-1.7.28-3.44,4.86-4.11c4.58-.66,9.84.1,11.74,1.7Z"/>
      </g>
      <g>
        <g>
          <path class="cls-7" d="M213.18,79.06c-3.46.5-5.54,1.67-5.55,2.9v6.74c0,.4.22.81.68,1.2,1.43,1.21,4.77,1.94,8.3,1.94v-13.03c-1.15,0-2.31.08-3.44.24Z"/>
          <path class="cls-8" d="M225.6,81.96c0-.4-.22-.81-.68-1.2-1.43-1.21-4.78-1.94-8.3-1.94v13.03c1.15,0,2.31-.08,3.44-.24,3.46-.5,5.54-1.67,5.55-2.9v-6.74Z"/>
        </g>
        <path class="cls-8" d="M224.92,80.76c1.9,1.6-.28,3.44-4.86,4.11-4.58.66-9.84-.1-11.74-1.7s.28-3.44,4.86-4.11c4.58-.66,9.84.1,11.74,1.7Z"/>
      </g>
    </g>
    <g>
      <g>
        <g>
          <path class="cls-7" d="M174.68,73.47c-3.46.5-5.54,1.67-5.55,2.9v6.74c0,.4.22.81.68,1.2,1.43,1.21,4.77,1.94,8.3,1.94v-13.03c-1.15,0-2.31.08-3.44.24Z"/>
          <path class="cls-8" d="M187.1,76.38c0-.4-.22-.81-.68-1.2-1.43-1.21-4.78-1.94-8.3-1.94v13.03c1.15,0,2.31-.08,3.44-.24,3.46-.5,5.54-1.67,5.55-2.9v-6.74Z"/>
        </g>
        <path class="cls-8" d="M186.41,75.18c1.9,1.6-.28,3.44-4.86,4.11-4.58.66-9.84-.1-11.74-1.7s.28-3.44,4.86-4.11c4.58-.66,9.84.1,11.74,1.7Z"/>
      </g>
      <g>
        <g>
          <path class="cls-7" d="M185.95,83c-3.46.5-5.54,1.67-5.55,2.9v6.74c0,.4.22.81.68,1.2,1.43,1.21,4.77,1.94,8.3,1.94v-13.03c-1.15,0-2.31.08-3.44.24Z"/>
          <path class="cls-8" d="M198.37,85.91c0-.4-.22-.81-.68-1.2-1.43-1.21-4.78-1.94-8.3-1.94v13.03c1.15,0,2.31-.08,3.44-.24,3.46-.5,5.54-1.67,5.55-2.9v-6.74Z"/>
        </g>
        <path class="cls-8" d="M197.69,84.71c1.9,1.6-.28,3.44-4.86,4.11s-9.84-.1-11.74-1.7.28-3.44,4.86-4.11c4.58-.66,9.84.1,11.74,1.7Z"/>
      </g>
    </g>
  </g>
  <g>
    <path class="cls-3" d="M467.01,300.59s0,0,0,0c-.09-.05-.18-.09-.26-.14.09.04.17.09.26.14Z"/>
    <path class="cls-3" d="M482.94,300.57s0,0,0,0c.1-.05.19-.1.29-.15-.1.05-.19.1-.29.15Z"/>
    <g>
      <path class="cls-3" d="M500,270.94c0-.48-.12-.95-.36-1.37h0v-.02c-.26-.42-.61-.77-1.03-1.02l-22.26-12.85c-.86-.5-1.92-.5-2.78,0l-22.26,12.85c-.86.5-1.39,1.42-1.39,2.41v25.71c0,.48.13.96.37,1.38h0s0,0,0,0c0,0,0,0,0,0h0s0,.01,0,.01c.24.41.59.76,1.01,1l21.15,12.21,1.11.64c.43.25.91.37,1.39.37s.96-.12,1.39-.37l22.26-12.86c.42-.24.76-.59,1.01-1h0s0-.01,0-.01c0,0,0,0,0,0h0s0,0,0,0c.24-.42.37-.89.37-1.38v-25.71ZM482.94,300.57c-.26.14-.52.27-.8.39.27-.12.53-.25.8-.39-2.46,1.18-5.18,1.83-7.98,1.83s-5.5-.65-7.95-1.82c.25.13.5.26.77.38-.26-.11-.52-.24-.77-.38-3.34-1.6-6.2-4.18-8.1-7.49h0s0-.01,0-.01c-1.61-2.81-2.47-5.99-2.47-9.21,0-10.22,8.31-18.53,18.53-18.53,3.3,0,6.54.88,9.37,2.55,2.74,1.61,5.03,3.92,6.64,6.68l-8.03,4.66c-1.02-1.74-2.57-3.08-4.38-3.85,0,0,0,0,0,0-1.12-.48-2.34-.74-3.6-.74-5.1,0-9.24,4.14-9.24,9.24,0,1.6.43,3.19,1.23,4.6h0s0,.01,0,.01c1.65,2.86,4.71,4.63,8,4.63s6.35-1.78,8-4.63l8.05,4.62c-1.9,3.3-4.75,5.87-8.07,7.47ZM495.82,282.45h-2.61v2.64h2.61v1.28h-2.61v2.61h-1.28v-2.61h-2.64v2.61h-1.28v-2.61h-2.61v-1.28h2.61v-2.64h-2.61v-1.28h2.61v-2.61h1.28v2.61h2.64v-2.61h1.28v2.61h2.61v1.28Z"/>
      <polygon class="cls-3" points="489.3 282.44 489.3 285.07 489.3 285.08 491.92 285.08 491.93 285.08 491.94 282.46 491.93 282.44 489.3 282.44"/>
    </g>
  </g>
  <g>
    <path class="cls-3" d="M470.51,139.58c-2.27.01-4.43.2-6.34.54-5.62.99-6.64,3.07-6.64,6.9v5.06h13.27v1.68h-18.25c-3.86,0-7.23,2.32-8.29,6.73-1.22,5.06-1.27,8.21,0,13.49.94,3.93,3.2,6.73,7.05,6.73h4.56v-6.06c0-4.38,3.79-8.24,8.29-8.24h13.26c3.69,0,6.64-3.04,6.64-6.75v-12.64c0-3.6-3.03-6.3-6.64-6.9-2.28-.38-4.65-.55-6.91-.54M463.33,143.65c1.37,0,2.49,1.14,2.49,2.54s-1.12,2.52-2.49,2.52-2.49-1.13-2.49-2.52,1.11-2.54,2.49-2.54"/>
    <path class="cls-3" d="M485.71,153.77v5.89c0,4.57-3.87,8.41-8.29,8.41h-13.26c-3.63,0-6.64,3.11-6.64,6.75v12.64c0,3.6,3.13,5.71,6.64,6.75,4.2,1.23,8.23,1.46,13.26,0,3.34-.97,6.64-2.91,6.64-6.75v-5.06h-13.26v-1.68h19.89c3.86,0,5.29-2.69,6.64-6.73,1.38-4.16,1.33-8.16,0-13.49-.96-3.84-2.77-6.73-6.64-6.73h-4.98ZM478.26,185.77c1.38,0,2.49,1.13,2.49,2.52s-1.11,2.53-2.49,2.53-2.49-1.13-2.49-2.53,1.12-2.52,2.49-2.52"/>
  </g>
  <path class="cls-3" d="M46.96,257.9H4.14c-2.87,0-5.2,2.33-5.2,5.2v42.82c0,2.87,2.33,5.19,5.2,5.19h42.82c2.87,0,5.2-2.32,5.2-5.19v-42.82c0-2.87-2.33-5.2-5.2-5.2M29.81,287.43h-6.67v19.01h-5.29v-19.01h-6.64v-4.27h18.6v4.27ZM47.05,303.07c-.49.88-1.16,1.6-2.01,2.15-.85.55-1.83.94-2.95,1.18-1.12.24-2.31.36-3.55.36s-2.5-.11-3.65-.33c-1.16-.22-2.15-.54-3-.98v-5.2c.94.79,1.97,1.38,3.07,1.78s2.22.59,3.35.59c.66,0,1.24-.06,1.73-.18.49-.12.91-.28,1.24-.49.33-.21.58-.46.74-.75.16-.29.24-.6.24-.94,0-.45-.13-.86-.39-1.22-.26-.36-.61-.69-1.06-.99-.45-.3-.98-.6-1.6-.88-.62-.28-1.29-.57-2-.86-1.82-.76-3.18-1.69-4.07-2.78-.9-1.1-1.34-2.42-1.34-3.97,0-1.21.24-2.26.73-3.13.49-.87,1.15-1.59,1.99-2.15s1.81-.98,2.92-1.24c1.11-.27,2.28-.4,3.51-.4s2.29.07,3.23.22c.94.15,1.8.37,2.59.67v4.86c-.39-.27-.82-.51-1.28-.72-.46-.21-.93-.37-1.42-.51s-.97-.24-1.45-.3c-.48-.07-.94-.1-1.37-.1-.6,0-1.14.05-1.63.17-.49.11-.9.27-1.24.48-.34.21-.6.45-.78.74-.18.29-.28.61-.28.97,0,.39.1.74.31,1.05.21.31.5.6.88.88.38.28.84.55,1.38.81.54.27,1.15.54,1.84.82.93.39,1.77.8,2.51,1.24.74.44,1.38.93,1.91,1.49.53.55.94,1.18,1.22,1.89.28.71.42,1.54.42,2.48,0,1.3-.24,2.39-.74,3.28"/>
  <g>
    <path class="cls-3" d="M427.71,35.44c-.16,0-.35.08-.43.2l-.81,1.04c-.08.11-.04.19.12.19l14,.04c.12,0,.31-.12.39-.23l.66-1.01c.08-.11.04-.23-.11-.23h-13.8Z"/>
    <path class="cls-3" d="M439.5,39h-17.63c-.16,0-.35.08-.43.2l-.81,1.04c-.08.11-.04.19.12.19l18.29-.04c.15,0,.31-.08.35-.23l.31-.93c.04-.11-.04-.23-.2-.23Z"/>
    <path class="cls-3" d="M438.65,42.56h-7.73c-.16,0-.31.12-.39.23l-.54.97c-.08.11-.04.23.12.23l8.43.04c.11,0,.27-.12.27-.27l.08-.93c0-.15-.08-.27-.23-.27Z"/>
    <path class="cls-3" d="M499.85,39.16c-.5-3.71-2.4-6.53-5.45-8.62-3.36-2.28-7.08-2.67-11.02-1.97-4.6.81-8,2.74-10.83,6.45-1.21,1.58-2.1,3.26-2.66,5.03h-12.46c-.58,0-.85.39-.97.62-.54,1.01-1.47,3.02-1.97,4.22-.27.66-.08,1.16.74,1.16h7.46c-.39.54-.69,1.01-1.04,1.43-1.74,1.97-3.95,2.9-6.57,2.55-3.06-.43-5.18-2.98-5.22-6.07-.04-3.13,1.32-5.64,3.95-7.34,2.2-1.43,4.56-1.78,7-.58.81.39,1.24.81,1.82,1.47.5.58.54.54,1.12.39,2.4-.62,4.06-1.08,6.5-1.7.46-.12.62-.31.39-.66-.97-2.24-2.44-4.1-4.49-5.45-3.13-2.13-6.61-2.55-10.25-1.9-4.44.81-8.08,3.09-10.83,6.69-2.55,3.32-3.79,7.11-3.28,11.33.42,3.56,2.05,6.42,4.91,8.58,3.09,2.32,6.61,3.06,10.4,2.55,4.6-.62,8.23-2.9,11.02-6.57.65-.86,1.18-1.78,1.64-2.73.64,2.39,1.92,4.47,3.85,6.13,2.71,2.32,5.92,3.33,9.43,3.4,1.01-.11,2.05-.15,3.09-.35,3.59-.73,6.73-2.36,9.28-4.95,3.6-3.64,5.1-7.89,4.45-13.11ZM487.32,49.33c-2.05,1.04-4.17,1.16-6.3.23-2.78-1.24-4.25-4.29-3.56-7.31.85-3.63,3.17-5.92,6.76-6.73,3.67-.85,7.19,1.31,7.89,5.14.08.39.08.77.12,1.28-.19,3.33-1.86,5.8-4.91,7.39Z"/>
  </g>
  <path class="cls-3" d="M56.87,54.23c.25-.15.4-.41.4-.7s-.15-.55-.4-.7l-2.44-1.46c-.02-.25-.04-.5-.07-.75l2.1-1.9c.21-.2.31-.48.25-.77-.05-.28-.26-.51-.52-.61l-2.68-.96c-.07-.24-.13-.49-.21-.73l1.69-2.27c.17-.23.21-.53.1-.8-.11-.27-.35-.45-.63-.49l-2.82-.42c-.11-.22-.22-.45-.35-.67l1.21-2.57c.12-.26.1-.56-.06-.8-.16-.24-.4-.36-.72-.36l-2.85.14c-.15-.19-.31-.39-.47-.57l.69-2.77c.07-.28-.01-.57-.22-.78s-.5-.29-.78-.22l-2.76.69c-.19-.16-.38-.31-.57-.47l.14-2.85c.01-.29-.12-.56-.36-.72-.24-.16-.54-.18-.8-.06l-2.57,1.21c-.22-.12-.44-.23-.66-.34l-.42-2.82c-.04-.29-.23-.53-.5-.63-.26-.11-.57-.07-.8.1l-2.27,1.69c-.24-.08-.49-.14-.73-.21l-.96-2.68c-.1-.27-.33-.47-.61-.53-.28-.05-.57.04-.77.25l-1.9,2.1c-.25-.03-.5-.04-.75-.07l-1.46-2.44c-.3-.49-1.11-.49-1.41,0l-1.46,2.44c-.25.02-.5.04-.75.07l-1.9-2.1c-.2-.21-.48-.31-.77-.25-.28.06-.51.26-.61.53l-.96,2.68c-.24.07-.49.13-.73.21l-2.28-1.69c-.23-.17-.53-.21-.8-.1s-.45.35-.49.63l-.42,2.82c-.22.11-.45.22-.66.34l-2.57-1.21c-.26-.12-.56-.1-.8.06-.24.16-.37.43-.36.72l.14,2.85c-.19.15-.39.3-.57.47l-2.76-.69c-.28-.07-.58.01-.78.22-.2.2-.29.5-.22.78l.69,2.77c-.16.19-.31.38-.47.57l-2.85-.14c-.3,0-.56.12-.72.36-.16.24-.18.54-.06.8l1.21,2.57c-.12.22-.23.44-.34.67l-2.82.42c-.29.04-.53.23-.64.49-.11.27-.07.57.1.8l1.69,2.28c-.08.24-.14.48-.21.73l-2.68.96c-.27.1-.47.33-.52.61-.06.28.04.57.25.77l2.1,1.9c-.03.25-.05.5-.07.75l-2.44,1.46c-.25.15-.4.42-.4.7s.15.55.4.7l2.44,1.47c.02.25.04.5.07.75l-2.1,1.9c-.21.2-.31.49-.25.77.05.28.26.52.52.61l2.68.96c.07.24.13.49.21.73l-1.69,2.27c-.17.23-.21.53-.1.8.11.27.35.46.64.5l2.82.42c.11.22.22.45.34.67l-1.21,2.57c-.12.26-.1.56.06.8.15.23.41.36.68.36.01,0,.03,0,.04,0l2.85-.14c.15.19.31.39.47.57l-.69,2.76c-.07.28.01.58.22.78.16.16.36.24.58.24.07,0,.13,0,.2-.02l2.76-.69c.19.16.38.31.57.47l-.14,2.85c-.01.29.12.56.36.72.14.09.29.14.46.14.12,0,.24-.03.35-.08l2.57-1.21c.22.12.44.23.66.35l.42,2.82c.04.28.23.53.49.63.1.04.21.06.31.06.17,0,.34-.05.48-.16l2.28-1.68c.24.08.48.14.73.21l.96,2.68c.1.27.33.47.61.53.05.01.11.02.16.02.23,0,.45-.1.61-.27l1.9-2.1c.25.03.5.04.75.07l1.46,2.44c.15.25.41.4.7.4s.55-.15.7-.4l1.46-2.44c.25-.02.5-.04.75-.07l1.9,2.1c.16.17.38.27.61.27.05,0,.11,0,.16-.02.28-.05.51-.26.61-.53l.96-2.68c.24-.07.49-.13.73-.21l2.27,1.68c.14.11.31.16.49.16.11,0,.21-.02.31-.06.27-.11.46-.35.5-.63l.42-2.82c.22-.11.45-.22.66-.35l2.57,1.21c.11.05.23.08.35.08.16,0,.32-.05.46-.14.24-.16.37-.43.36-.72l-.14-2.85c.19-.15.38-.31.57-.47l2.76.69c.07.02.13.02.2.02.21,0,.42-.08.58-.24.2-.2.29-.5.22-.78l-.69-2.76c.16-.19.31-.38.47-.57l2.85.14s.03,0,.04,0c.27,0,.53-.14.68-.36.16-.24.18-.54.06-.8l-1.21-2.57c.12-.22.23-.44.35-.67l2.82-.42c.28-.04.53-.23.63-.5.11-.27.07-.57-.1-.8l-1.69-2.27c.08-.24.14-.49.21-.73l2.68-.96c.27-.1.47-.33.52-.61.06-.28-.04-.57-.25-.77l-2.1-1.9c.03-.25.05-.5.07-.75l2.44-1.46ZM28.63,74.53c-3.23,0-6.27-.75-9.01-2.06l-.59-3.75c-.07-.43-.3-.81-.65-1.07-.35-.26-.79-.36-1.22-.29l-3.75.59c-.56-.59-1.09-1.22-1.57-1.88h17.07c.15,0,.27-.12.27-.27v-6c0-.15-.12-.27-.27-.27h-4.64v-3.82h5.18c2.93,0,3.47,2.6,4.04,5.35.51,2.46,1.04,5.01,3.59,5.01h8.35c-.49.66-1.01,1.28-1.57,1.88l-3.75-.59c-.43-.07-.87.04-1.22.29-.35.26-.59.64-.65,1.07l-.59,3.75c-2.74,1.31-5.79,2.06-9.01,2.06M24.78,32.9l2.7,2.7c.31.31.72.48,1.16.48s.85-.17,1.16-.48l2.7-2.7c6.29,1.17,11.6,5.14,14.58,10.58l-1.74,3.41c-.2.39-.23.84-.1,1.25.13.41.43.76.81.95l3.39,1.73c.11.89.2,1.79.2,2.71,0,.55-.04,1.09-.08,1.63h-2.1c-.15,0-.27.12-.27.27v1.09c0,1.7-.8,2.79-2.15,2.93-1.13.1-2.51-.58-2.77-1.89-.43-2.19-1.95-4.19-2.94-4.88,3.14-1.85,4.51-4.57,3.77-7.52-.83-3.32-4.11-5.82-7.64-5.82H13.19c3.01-3.28,7.04-5.6,11.59-6.45M34.09,47.81c0,.48-.25.94-.71,1.28-.55.41-1.34.63-2.29.63h-6.82v-3.82h6.82c2.06,0,3,.99,3,1.91M11.22,49.09c.81-.41,1.13-1.39.72-2.2l-.51-.99h3.57v13.63h-6.48c-.57-1.9-.88-3.91-.88-6,0-.92.08-1.82.2-2.71l3.39-1.73Z"/>
  <path class="cls-3" d="M50.49,153.54c-.01-.05-.04-.1-.06-.15-.02-.03-.03-.06-.04-.09-.01-.03-.02-.06-.04-.1-.04-.11-.08-.22-.13-.32h0s0-.01,0-.01c-.24-.42-.6-.77-1.02-1.02l-22.26-12.85c-.42-.24-.9-.37-1.39-.37s-.97.13-1.39.37l-22.26,12.85c-.86.5-1.39,1.42-1.39,2.41v25.71c0,.24.03.49.1.72,0,.01,0,.02.01.03,0,0,0,.02.01.02.07.24.15.44.25.61.24.42.59.77,1.02,1.02l21.15,12.21,1.11.65c.42.24.9.37,1.39.37s.97-.13,1.39-.37l22.26-12.86c.42-.24.77-.59,1.02-1.02.24-.42.37-.9.37-1.39v-25.71c0-.24-.03-.49-.1-.72ZM50,153.01h0s0,0,0,0ZM41.45,176.68h0c-.06.09-.11.17-.17.27-.28.46-.57.91-.89,1.33-.05.06-.09.12-.14.18-.03.04-.07.08-.1.12-.03.03-.06.07-.09.11-.07.08-.13.16-.19.24-.02.03-.04.05-.07.08h0s-.07.07-.07.07c-.08.09-.15.18-.23.27-.22.26-.44.53-.68.78-.06.06-.11.12-.17.17-.02.02-.04.03-.05.05-.02.02-.04.03-.05.05-.04.04-.08.08-.13.12-.03.03-.07.06-.11.09h0s-.03.03-.04.04c-.46.44-.95.83-1.46,1.22-.27.21-.53.42-.81.62-.64.44-1.3.83-1.98,1.18-.33.17-.66.31-1,.46-.47.21-.95.4-1.43.57-.34.12-.68.24-1.02.34-.76.22-1.53.39-2.32.51-.07.01-.15.03-.22.04-.16.02-.34.03-.5.04-.11,0-.22.01-.34.02l-.28.03c-.44.04-.89.08-1.34.08-.42,0-.83-.04-1.24-.08-.11-.01-.22-.02-.33-.03-.12-.01-.24-.02-.36-.02-.17,0-.35-.02-.52-.04-.08-.01-.15-.03-.23-.04-.72-.11-1.43-.28-2.13-.47-.39-.11-.78-.23-1.17-.37-.44-.15-.87-.33-1.3-.52-.38-.16-.76-.32-1.13-.51-.7-.36-1.37-.75-2.02-1.2-.31-.21-.6-.46-.89-.69-.46-.36-.93-.72-1.36-1.13-.02-.02-.04-.03-.06-.05h0s-.02-.02-.03-.03c-.05-.04-.09-.09-.14-.13-.03-.02-.05-.05-.08-.07-.03-.03-.07-.06-.1-.09l-.17-.17c-.22-.23-.42-.47-.62-.71-.08-.09-.16-.19-.24-.28l-.1-.12h0c-.06-.07-.12-.14-.18-.21-.04-.06-.09-.11-.14-.16-.05-.06-.11-.12-.16-.19-.03-.03-.05-.07-.08-.1-.35-.47-.67-.98-.96-1.45h-.01c-.05-.07-.1-.14-.15-.22-.05-.08-.1-.17-.15-.25-.04-.07-.08-.15-.12-.22-.03-.06-.06-.13-.09-.19h0c-.05-.09-.09-.18-.14-.27-.22-.42-.44-.84-.63-1.28-.03-.07-.06-.14-.09-.21-.01-.03-.02-.06-.03-.09,0-.03-.02-.05-.03-.08-.04-.09-.07-.19-.11-.28-.03-.08-.05-.16-.08-.25h0s-.05-.14-.05-.14c-.15-.41-.31-.84-.44-1.27-.02-.06-.03-.12-.05-.18-.01-.04-.02-.08-.03-.12,0-.04-.01-.07-.02-.11-.03-.12-.05-.22-.08-.34-.03-.11-.04-.23-.07-.34h0c-.02-.12-.05-.24-.08-.35-.06-.29-.13-.59-.18-.88-.01-.07-.02-.14-.03-.21-.03-.24-.04-.49-.05-.73,0-.13-.01-.27-.02-.4,0-.13-.02-.26-.03-.39-.03-.29-.05-.59-.05-.89,0-1.06.1-2.09.27-3.1,0-.03,0-.06.01-.09h.01c.67-3.85,2.52-7.34,5.34-10.09,2.83-2.75,6.38-4.49,10.26-5.05h0s.08-.02.12-.03c.82-.11,1.66-.18,2.51-.18.59,0,1.19.06,1.76.12h.04c.09.01.19.02.28.02.12,0,.24.01.36.03.07,0,.14.02.21.03.77.11,1.53.29,2.28.5.37.1.72.23,1.08.36.45.16.89.33,1.32.52.37.16.73.32,1.09.5.59.31,1.16.65,1.72,1.01.36.24.71.5,1.05.76.48.37.96.74,1.4,1.16.02.02.04.04.06.05h0s.04.02.05.04c.04.04.09.08.13.12.03.03.06.06.09.08.04.03.08.06.11.1.04.04.09.09.13.13.3.31.57.64.84.96l.11.13h0s0,0,0,0c.07.09.15.18.22.26.04.05.09.1.13.15.05.06.11.12.16.18.04.06.09.12.13.17.22.29.42.61.62.92.08.13.17.26.25.39h0c.06.08.12.16.18.26.05.09.11.17.16.26l-8.03,4.66c-1.66-2.83-4.71-4.59-7.97-4.59-5.1,0-9.24,4.14-9.24,9.24,0,1.61.43,3.2,1.23,4.6h0s0,.01,0,.01c1.65,2.86,4.71,4.63,8,4.63s6.35-1.77,8-4.63l7.65,4.39.4.23c-.03.06-.07.12-.1.18-.01.02-.03.05-.05.07ZM14.91,182.35s0,0,0,0c0,0,0,0,0,0ZM35.88,182.55s.02-.02.04-.02c-.01,0-.02.02-.04.02ZM22.92,148.86h0ZM7.3,164s0,0,0,0c0,0,0,0,0,0h0ZM36.13,152.01s0,0,0,0c0,0,0,0,0,0ZM30.95,184.93s-.02,0-.03,0c0,0,.02,0,.03,0ZM36.26,182.3s-.02.01-.03.02c0,0,.02-.01.03-.02Z"/>
  <path class="cls-1" d="M351.71,189.05l-4.61,3.27c-.77.54-1.55,1.07-2.3,1.63s-1.2,1.4-.85,2.36c.29.78,1.03,1.41,1.61,1.99s1.17,1.09,1.79,1.6c1.32,1.07,2.73,2.03,4.23,2.84,1.34.73,2.54-1.32,1.19-2.04-2.39-1.3-4.51-2.95-6.37-4.93-.02-.02-.18-.23-.21-.23-.04,0-.09.35-.06.36.08.04.84-.59.94-.67l1.88-1.34c1.32-.93,2.63-1.87,3.95-2.8.52-.37.77-1.03.42-1.62-.3-.51-1.1-.8-1.62-.42h0Z"/>
  <g>
    <path class="cls-2" d="M392.55,36.56c0,12.85,0,25.69,0,38.54,0,.13-.03.16-.16.18-12.85,1.87-25.7,3.75-38.55,5.62-.03-.05-.02-.11-.02-.17,0-12.78,0-25.56,0-38.34,0-.22-.03-.19.2-.23,4.85-.71,9.7-1.41,14.54-2.12.23-.03.25-.02.25.21.03,1.13.41,2.07,1.18,2.78.71.66,1.59.98,2.63.96,1.25-.03,2.37-.52,3.34-1.46.87-.85,1.37-1.85,1.53-2.99.03-.2.03-.4.04-.6,0-.18.03-.21.21-.23,4.89-.71,9.77-1.43,14.66-2.14.05,0,.1-.03.14,0Z"/>
    <path class="cls-4" d="M370.4,65.02c-.08.36-.15.71-.22,1.06-.58,2.79-1.17,5.57-1.75,8.36-.03.15-.08.21-.24.23-.75.1-1.5.21-2.26.33-.1.02-.15,0-.17-.11-.96-4.33-1.92-8.66-2.88-12.99-.03-.14,0-.16.13-.18.75-.1,1.49-.21,2.24-.33.11-.02.17,0,.19.12.56,2.94,1.13,5.88,1.7,8.82,0,.02.01.05.02.1.06-.08.06-.15.07-.21.68-3.09,1.35-6.17,2.02-9.26.03-.12.07-.16.19-.18.7-.1,1.4-.2,2.1-.31.11-.02.16,0,.18.12.61,2.96,1.22,5.91,1.84,8.87,0,.04.02.09.04.13.06-.03.05-.08.06-.12.64-3.14,1.29-6.28,1.93-9.42.03-.13.06-.19.2-.2.73-.1,1.45-.2,2.18-.32.16-.03.17.02.13.16-.61,2.62-1.21,5.25-1.82,7.87-.46,1.98-.92,3.96-1.37,5.95-.03.13-.07.18-.21.2-.74.1-1.48.21-2.22.32-.12.02-.16-.02-.19-.13-.61-2.93-1.22-5.86-1.83-8.79,0-.03,0-.08-.07-.1Z"/>
    <path class="cls-4" d="M383.06,58.8c.61-.09,1.23-.17,1.84-.27.14-.02.19.01.23.14,1.13,3.69,2.25,7.37,3.38,11.06.18.58.35,1.17.53,1.74.04.12,0,.16-.12.17-.77.11-1.55.22-2.32.34-.13.02-.18-.01-.21-.13-.26-.88-.52-1.75-.78-2.63-.03-.11-.07-.15-.2-.13-1.43.21-2.86.42-4.29.63-.13.02-.17.06-.2.19-.2.94-.4,1.88-.6,2.82-.03.13-.07.17-.2.19-.75.1-1.49.21-2.24.33-.14.02-.17,0-.14-.15.6-2.54,1.19-5.09,1.79-7.63.48-2.05.96-4.1,1.43-6.16.04-.18.1-.25.28-.27.6-.07,1.2-.17,1.81-.26Z"/>
    <path class="cls-5" d="M383.18,67.18c-.52.08-1.04.15-1.56.23-.12.02-.17.02-.13-.13.36-1.63.71-3.25,1.05-4.88.03-.13.08-.16.19-.18.26-.03.52-.07.77-.11.11-.02.16.01.18.12.37,1.42.75,2.83,1.12,4.25.03.11.06.22.09.33.03.1,0,.14-.11.15-.54.07-1.07.15-1.61.23Z"/>
  </g>
  <path class="cls-1" d="M450.95,63.74c-3,5.8-6.56,11.32-10.31,16.67-4.51,6.43-9.23,12.46-14.34,18.44s-10.81,12.11-16.69,17.7c-2.79,2.66-5.66,5.23-8.62,7.7-2.78,2.31-5.36,4.3-8.38,6.37s-6.2,3.9-9.42,5.64c-4.09,2.21-8.32,4.19-12.87,5.21-1.1.25-2.21.44-3.33.55l1.11,2.68c4.21-4.83,9.04-9.1,14.31-12.74l-1.59-2.72c-5.33,3.7-10.67,7.39-16,11.11-1.15.8-2.42,1.76-2.84,3.17-.46,1.55.45,3.02,1.85,3.68s2.89.91,4.34,1.26,2.95.68,4.44.98c3.52.7,7.07,1.23,10.64,1.61.85.09,1.57-.79,1.57-1.57,0-.92-.72-1.48-1.57-1.57-5.51-.59-10.97-1.59-16.33-2.99-.53-.14-1.11-.25-1.61-.47-.03-.01-.32-.18-.32-.18l-.06-.06s.05.05.05.09c.04-.02-.01.23-.01.24-.07-.19.41-.63.68-.87.48-.43,1.05-.78,1.58-1.15,2.36-1.64,4.72-3.27,7.08-4.91,2.7-1.87,5.4-3.75,8.1-5.62.7-.48,1.02-1.38.56-2.15-.4-.69-1.45-1.05-2.15-.56-5.49,3.79-10.56,8.19-14.95,13.23-.42.48-.59,1.11-.33,1.72.23.52.82,1.03,1.44.97,4.96-.51,9.63-2.14,14.1-4.3,3.69-1.78,7.33-3.79,10.78-6,6.23-3.98,11.98-8.72,17.42-13.72,6.04-5.54,11.72-11.47,17.12-17.64s10.39-12.42,15.13-18.98c4.02-5.56,7.83-11.3,11.12-17.33.34-.62.67-1.25.99-1.87.39-.75.2-1.71-.56-2.15-.71-.41-1.76-.19-2.15.56h0Z"/>
  <path class="cls-1" d="M438.08,174.2c-10.87,6.33-22.55,11.15-34.7,14.38-11.91,3.17-24.16,4.82-36.46,5.28-7.13.27-14.26.14-21.38-.29-.85-.05-1.57.76-1.57,1.57,0,.89.72,1.52,1.57,1.57,12.67.76,25.42.55,38.02-1.08s24.75-4.59,36.47-9.21c6.78-2.67,13.35-5.84,19.65-9.51,1.75-1.02.17-3.74-1.59-2.72h0Z"/>
  <path class="cls-1" d="M64.49,51.07c4.51-2.18,9.66-3.77,14.75-4.99,5.94-1.43,11.98-2.39,18.06-3.02,12.48-1.3,25.25-1.41,37.7.26,5,.67,10.28,1.72,15.16,3.41,6.79,2.36,13.42,5.25,19.62,8.89,9.59,5.62,17.96,13.14,23.73,22.52,1.26,2.05,2.4,4.17,3.43,6.34s1.77,3.97,2.61,6.29c1.59,4.41,2.8,8.96,3.78,13.54.24,1.11.46,2.23.68,3.35l2.31-1.78c-3.37-2.01-6.22-4.77-8.37-8.05l-2.47,1.91c3.36,3.11,6.26,6.63,8.67,10.51.61.98,2.13,1.06,2.72,0,2.27-4.1,4.55-8.19,6.82-12.29l.99-1.77c.98-1.77-1.73-3.36-2.72-1.59-2.27,4.1-4.55,8.19-6.82,12.29l-.99,1.77h2.72c-2.54-4.1-5.62-7.87-9.16-11.15-1.26-1.16-3.49.35-2.47,1.91,2.44,3.73,5.66,6.89,9.49,9.18,1.25.75,2.56-.48,2.31-1.78-1.82-9.48-4.49-18.86-9.13-27.37-5.35-9.79-13.2-17.85-22.46-24-5.9-3.92-12.29-7.05-18.86-9.67-5.55-2.21-11.14-3.91-17.03-4.92-12.49-2.15-25.35-2.33-37.96-1.33-6.42.51-12.83,1.34-19.14,2.63-5.47,1.12-10.91,2.56-16.09,4.68-1.17.48-2.32.98-3.45,1.53-.76.37-.97,1.46-.56,2.15.46.78,1.38.93,2.15.56h0Z"/>
  <path class="cls-1" d="M54.39,319.39c4.6,4,9.81,7.29,15.3,9.91,6.94,3.32,14.34,5.65,21.93,6.92,9.09,1.53,18.36,1.63,27.5.41,11.32-1.51,22.27-4.95,32.63-9.71,13.01-5.97,24.99-14,36.05-23.06,1.58-1.3,3.15-2.62,4.7-3.96.88-.76.42-2.38-.69-2.63-1.96-.43-3.99-.59-5.98-.69s-3.88-.14-5.8.09c-.84.1-1.57.65-1.57,1.57s.72,1.52,1.57,1.57c3.77.25,7.7.28,11.44-.29l-1.93-1.93c-.83,3.52-1.83,7-2.66,10.52-.47,1.97,2.57,2.81,3.03.84.83-3.52,1.83-7,2.66-10.52.3-1.26-.76-2.11-1.93-1.93-.09.01-.18.03-.27.04.18-.02.17-.03-.02,0-.21.02-.42.05-.63.06-.41.04-.82.07-1.23.09-1.01.06-2.02.09-3.03.1-1.81.02-3.62,0-5.42-.11v3.14c1.85-.22,3.74-.18,5.6-.1s3.59.21,5.35.59l-.69-2.63c-11,9.54-22.98,18.05-36.02,24.58-10.08,5.04-20.83,8.83-31.98,10.75-4.56.78-9.29,1.25-14.14,1.33-4.39.08-8.78-.17-13.14-.74.38.05-.07-.01-.13-.02-.14-.02-.27-.04-.41-.06-.22-.03-.45-.07-.67-.1-.53-.08-1.07-.17-1.6-.26-1-.17-2-.36-3-.57-1.93-.4-3.84-.87-5.73-1.41-1.79-.51-3.55-1.08-5.3-1.71-.83-.3-1.66-.61-2.48-.94-.39-.16-.79-.32-1.18-.48-.07-.03-.43-.18-.05-.02-.11-.04-.21-.09-.32-.13-.21-.09-.42-.18-.63-.27-3-1.32-5.92-2.83-8.73-4.53-1.27-.77-2.51-1.58-3.73-2.44-.57-.4-1.14-.82-1.7-1.24-.12-.09-.24-.18-.36-.27-.08-.06-.34-.27.04.03-.07-.05-.14-.11-.21-.16-.26-.21-.52-.41-.78-.62-.49-.4-.97-.8-1.44-1.21-.64-.56-1.59-.63-2.22,0-.57.57-.64,1.66,0,2.22h0Z"/>
  <path class="cls-1" d="M444.78,289.11c-1.92,1.19-3.89,2.29-5.92,3.29-1.04.51-2.1,1-3.16,1.47-.62.27-.65.28-1.28.54-.56.23-1.12.45-1.68.67-4.42,1.7-8.99,3.01-13.62,4-4.93,1.05-9.32,1.66-14.3,2.03s-10,.42-14.99.17c-2.51-.13-5.01-.33-7.5-.61-.6-.07-1.19-.14-1.78-.21-.72-.09-.93-.12-1.68-.23-1.23-.18-2.47-.38-3.69-.59-4.9-.86-9.74-2.03-14.49-3.53-2.29-.72-4.55-1.53-6.79-2.41-1.22-.48-1.86-.75-3.04-1.27-1.07-.47-2.13-.97-3.17-1.48-4.06-1.99-7.97-4.3-11.62-6.98-.98-.72-1.42-1.06-2.39-1.85-.84-.68-1.65-1.39-2.45-2.12-1.57-1.43-3.06-2.94-4.45-4.54-.33-.38-.65-.76-.97-1.15-.17-.21-.34-.42-.51-.63-.08-.11-.17-.21-.25-.32-.21-.26.14.18-.09-.11-.62-.83-1.23-1.67-1.8-2.53-1.14-1.71-2.17-3.5-3.06-5.36-.21-.44-.42-.89-.62-1.34-.05-.12-.11-.25-.16-.37-.18-.41.12.3-.05-.12-.1-.25-.2-.5-.3-.75-.23-.59-.64-1.05-1.31-1.13-.6-.07-1.27.19-1.57.75-1.53,2.94-2.37,5.89-3.87,8.76l2.87,1.21c.98-3.45,2.06-6.87,3.03-10.32l-2.31.94c3.21,2.17,7.08,3.2,10.28,5.37.7.48,1.74.14,2.15-.56.45-.77.14-1.67-.56-2.15-3.21-2.17-7.08-3.2-10.28-5.37-.86-.58-2.05.02-2.31.94-.98,3.45-2.06,6.87-3.03,10.32-.48,1.68,2.04,2.82,2.87,1.21,1.53-2.94,2.37-5.89,3.87-8.76l-2.87-.38c3.23,8.17,8.76,15.17,15.53,20.72,7.35,6.02,15.89,10.42,24.81,13.6,9.53,3.4,19.56,5.4,29.64,6.23s20.44.42,30.48-1.36c9.43-1.67,18.72-4.63,27.11-9.29.97-.54,1.93-1.1,2.87-1.69,1.71-1.07.14-3.79-1.59-2.72h0Z"/>
  <g>
    <path class="cls-1" d="M158.86,176.74c2.35.26,4.7.41,6.98.84.22.04.44.09.65.14.13.03.25.07.37.1.26.06.04.08.05-.02,0-.16-.04.23-.04.29,0,.09,0,.18,0,.26,0,.23,0,.45,0,.68,0,1.18,0,2.37.02,3.55s.03,2.41,0,3.62c-.04,1.52,2.32,1.52,2.37,0,.07-2.43-.03-4.86-.02-7.28,0-.62.08-1.28-.1-1.88-.27-.92-1.09-1.37-1.96-1.58-1.29-.32-2.64-.46-3.96-.62-1.45-.17-2.9-.3-4.34-.46-.64-.07-1.18.59-1.18,1.18,0,.7.55,1.11,1.18,1.18h0Z"/>
    <path class="cls-1" d="M60.18,175.47c5.45,4.13,11.72,7.11,18.16,9.33,7.15,2.46,14.6,3.96,22.1,4.85s15.57,1.12,23.35.69c7.6-.42,15.19-1.43,22.59-3.17,6.65-1.56,13.21-3.73,19.32-6.81.67-.34,1.34-.69,2-1.06,1.77-.98.19-3.69-1.59-2.72-1.34.74-2.7,1.43-4.09,2.06-.35.16-.69.32-1.04.47-.18.08-.35.15-.53.23-.09.04-.18.08-.27.11-.44.19.28-.12-.16.07-.73.3-1.45.59-2.19.87-3.2,1.22-6.48,2.25-9.79,3.11-3.5.91-7.04,1.64-10.61,2.22-1.96.32-3.48.53-5.38.75s-3.77.4-5.66.54c-7.66.57-15.37.51-23.02-.21-.95-.09-1.9-.19-2.84-.3-.46-.05-.91-.11-1.37-.17-.11-.01-.23-.03-.34-.04-.28-.04.19.03-.09-.01-.26-.03-.51-.07-.77-.11-1.86-.27-3.71-.57-5.55-.93-3.61-.7-7.19-1.57-10.7-2.66-1.68-.52-3.35-1.09-4.99-1.72s-2.86-1.13-4.5-1.9c-2.96-1.38-5.84-2.98-8.53-4.83-.65-.45-1.29-.91-1.91-1.38-.68-.51-1.76-.11-2.15.56-.47.81-.11,1.64.56,2.15h0Z"/>
  </g>
</svg>