<?xml version="1.0" encoding="UTF-8"?>
<svg id="Layer_1" data-name="Layer 1" xmlns="http://www.w3.org/2000/svg" viewBox="0 0 500 350">
  <defs>
    <style>
      .cls-1 {
        fill: none;
        stroke: #644eee;
        stroke-miterlimit: 10;
        stroke-width: 6.99px;
      }

      .cls-2 {
        fill: #00c389;
      }

      .cls-2, .cls-3, .cls-4, .cls-5, .cls-6 {
        stroke-width: 0px;
      }

      .cls-3 {
        fill: #644eee;
      }

      .cls-4, .cls-7 {
        fill: #002e5d;
      }

      .cls-7, .cls-8 {
        stroke: #002e5d;
        stroke-linecap: round;
        stroke-linejoin: round;
        stroke-width: 1.13px;
      }

      .cls-8 {
        fill: #768692;
      }

      .cls-5 {
        fill: #fefefe;
      }

      .cls-6 {
        fill: #654fef;
      }
    </style>
  </defs>
  <g>
    <g>
      <polygon class="cls-8" points="237.54 262.57 393.4 239.98 393.4 205.69 237.54 228.29 237.54 262.57"/>
      <polygon class="cls-8" points="393.4 205.69 237.54 228.29 216.02 210.1 371.88 187.51 393.4 205.69"/>
      <polygon class="cls-7" points="216.02 210.1 216.02 244.39 237.54 262.57 237.54 228.29 216.02 210.1"/>
      <g>
        <g>
          <path class="cls-7" d="M231.11,203.56c-3.3.48-5.29,1.59-5.29,2.77v6.43c0,.38.21.77.65,1.15,1.37,1.15,4.56,1.85,7.92,1.85v-12.43c-1.09,0-2.21.07-3.28.23Z"/>
          <path class="cls-8" d="M242.96,206.34c0-.38-.21-.77-.65-1.15-1.37-1.15-4.56-1.85-7.92-1.85v12.43c1.09,0,2.21-.07,3.28-.23,3.3-.48,5.29-1.59,5.29-2.77v-6.43Z"/>
        </g>
        <path class="cls-8" d="M242.3,205.19c1.81,1.53-.27,3.28-4.64,3.92s-9.39-.09-11.2-1.62c-1.81-1.53.27-3.28,4.64-3.92,4.37-.63,9.39.09,11.2,1.62Z"/>
      </g>
      <g>
        <g>
          <path class="cls-7" d="M241.87,212.66c-3.3.48-5.29,1.59-5.29,2.77v6.43c0,.38.21.77.65,1.15,1.37,1.15,4.56,1.85,7.92,1.85v-12.43c-1.09,0-2.21.07-3.28.23Z"/>
          <path class="cls-8" d="M253.72,215.43c0-.38-.21-.77-.65-1.15-1.37-1.15-4.56-1.85-7.92-1.85v12.43c1.09,0,2.21-.07,3.28-.23,3.3-.48,5.29-1.59,5.29-2.77v-6.43Z"/>
        </g>
        <path class="cls-8" d="M253.06,214.28c1.81,1.53-.27,3.28-4.64,3.92-4.37.63-9.39-.09-11.2-1.62s.27-3.28,4.64-3.92,9.39.09,11.2,1.62Z"/>
      </g>
    </g>
    <g>
      <g>
        <g>
          <path class="cls-7" d="M360.99,184.73c-3.3.48-5.29,1.59-5.29,2.77v6.43c0,.38.21.77.65,1.15,1.37,1.15,4.56,1.85,7.92,1.85v-12.43c-1.09,0-2.21.07-3.28.23Z"/>
          <path class="cls-8" d="M372.84,187.51c0-.38-.21-.77-.65-1.15-1.37-1.15-4.56-1.85-7.92-1.85v12.43c1.09,0,2.21-.07,3.28-.23,3.3-.48,5.29-1.59,5.29-2.77v-6.43Z"/>
        </g>
        <path class="cls-8" d="M372.19,186.36c1.81,1.53-.27,3.28-4.64,3.92-4.37.63-9.39-.09-11.2-1.62-1.81-1.53.27-3.28,4.64-3.92,4.37-.63,9.39.09,11.2,1.62Z"/>
      </g>
      <g>
        <g>
          <path class="cls-7" d="M371.75,193.83c-3.3.48-5.29,1.59-5.29,2.77v6.43c0,.38.21.77.65,1.15,1.37,1.15,4.56,1.85,7.92,1.85v-12.43c-1.09,0-2.21.07-3.28.23Z"/>
          <path class="cls-8" d="M383.6,196.6c0-.38-.21-.77-.65-1.15-1.37-1.15-4.56-1.85-7.92-1.85v12.43c1.09,0,2.21-.07,3.28-.23,3.3-.48,5.29-1.59,5.29-2.77v-6.43Z"/>
        </g>
        <path class="cls-8" d="M382.95,195.45c1.81,1.53-.27,3.28-4.64,3.92-4.37.63-9.39-.09-11.2-1.62s.27-3.28,4.64-3.92c4.37-.63,9.39.09,11.2,1.62Z"/>
      </g>
    </g>
    <g>
      <g>
        <g>
          <path class="cls-7" d="M335.01,188.5c-3.3.48-5.29,1.59-5.29,2.77v6.43c0,.38.21.77.65,1.15,1.37,1.15,4.56,1.85,7.92,1.85v-12.43c-1.09,0-2.21.07-3.28.23Z"/>
          <path class="cls-8" d="M346.86,191.27c0-.38-.21-.77-.65-1.15-1.37-1.15-4.56-1.85-7.92-1.85v12.43c1.09,0,2.21-.07,3.28-.23,3.3-.48,5.29-1.59,5.29-2.77v-6.43Z"/>
        </g>
        <path class="cls-8" d="M346.21,190.12c1.81,1.53-.27,3.28-4.64,3.92-4.37.63-9.39-.09-11.2-1.62-1.81-1.53.27-3.28,4.64-3.92,4.37-.63,9.39.09,11.2,1.62Z"/>
      </g>
      <g>
        <g>
          <path class="cls-7" d="M345.77,197.59c-3.3.48-5.29,1.59-5.29,2.77v6.43c0,.38.21.77.65,1.15,1.37,1.15,4.56,1.85,7.92,1.85v-12.43c-1.09,0-2.21.07-3.28.23Z"/>
          <path class="cls-8" d="M357.62,200.36c0-.38-.21-.77-.65-1.15-1.37-1.15-4.56-1.85-7.92-1.85v12.43c1.09,0,2.21-.07,3.28-.23,3.3-.48,5.29-1.59,5.29-2.77v-6.43Z"/>
        </g>
        <path class="cls-8" d="M356.97,199.22c1.81,1.53-.27,3.28-4.64,3.92-4.37.63-9.39-.09-11.2-1.62s.27-3.28,4.64-3.92,9.39.09,11.2,1.62Z"/>
      </g>
    </g>
    <g>
      <g>
        <g>
          <path class="cls-7" d="M309.04,192.27c-3.3.48-5.29,1.59-5.29,2.77v6.43c0,.38.21.77.65,1.15,1.37,1.15,4.56,1.85,7.92,1.85v-12.43c-1.09,0-2.21.07-3.28.23Z"/>
          <path class="cls-8" d="M320.89,195.04c0-.38-.21-.77-.65-1.15-1.37-1.15-4.56-1.85-7.92-1.85v12.43c1.09,0,2.21-.07,3.28-.23,3.3-.48,5.29-1.59,5.29-2.77v-6.43Z"/>
        </g>
        <path class="cls-8" d="M320.23,193.89c1.81,1.53-.27,3.28-4.64,3.92-4.37.63-9.39-.09-11.2-1.62-1.81-1.53.27-3.28,4.64-3.92,4.37-.63,9.39.09,11.2,1.62Z"/>
      </g>
      <g>
        <g>
          <path class="cls-7" d="M319.8,201.36c-3.3.48-5.29,1.59-5.29,2.77v6.43c0,.38.21.77.65,1.15,1.37,1.15,4.56,1.85,7.92,1.85v-12.43c-1.09,0-2.21.07-3.28.23Z"/>
          <path class="cls-8" d="M331.65,204.13c0-.38-.21-.77-.65-1.15-1.37-1.15-4.56-1.85-7.92-1.85v12.43c1.09,0,2.21-.07,3.28-.23,3.3-.48,5.29-1.59,5.29-2.77v-6.43Z"/>
        </g>
        <path class="cls-8" d="M330.99,202.98c1.81,1.53-.27,3.28-4.64,3.92-4.37.63-9.39-.09-11.2-1.62s.27-3.28,4.64-3.92,9.39.09,11.2,1.62Z"/>
      </g>
    </g>
    <g>
      <g>
        <g>
          <path class="cls-7" d="M283.06,196.03c-3.3.48-5.29,1.59-5.29,2.77v6.43c0,.38.21.77.65,1.15,1.37,1.15,4.56,1.85,7.92,1.85v-12.43c-1.09,0-2.21.07-3.28.23Z"/>
          <path class="cls-8" d="M294.91,198.8c0-.38-.21-.77-.65-1.15-1.37-1.15-4.56-1.85-7.92-1.85v12.43c1.09,0,2.21-.07,3.28-.23,3.3-.48,5.29-1.59,5.29-2.77v-6.43Z"/>
        </g>
        <path class="cls-8" d="M294.26,197.66c1.81,1.53-.27,3.28-4.64,3.92s-9.39-.09-11.2-1.62c-1.81-1.53.27-3.28,4.64-3.92,4.37-.63,9.39.09,11.2,1.62Z"/>
      </g>
      <g>
        <g>
          <path class="cls-7" d="M293.82,205.12c-3.3.48-5.29,1.59-5.29,2.77v6.43c0,.38.21.77.65,1.15,1.37,1.15,4.56,1.85,7.92,1.85v-12.43c-1.09,0-2.21.07-3.28.23Z"/>
          <path class="cls-8" d="M305.67,207.9c0-.38-.21-.77-.65-1.15-1.37-1.15-4.56-1.85-7.92-1.85v12.43c1.09,0,2.21-.07,3.28-.23,3.3-.48,5.29-1.59,5.29-2.77v-6.43Z"/>
        </g>
        <path class="cls-8" d="M305.02,206.75c1.81,1.53-.27,3.28-4.64,3.92-4.37.63-9.39-.09-11.2-1.62s.27-3.28,4.64-3.92c4.37-.63,9.39.09,11.2,1.62Z"/>
      </g>
    </g>
    <g>
      <g>
        <g>
          <path class="cls-7" d="M257.08,199.8c-3.3.48-5.29,1.59-5.29,2.77v6.43c0,.38.21.77.65,1.15,1.37,1.15,4.56,1.85,7.92,1.85v-12.43c-1.09,0-2.21.07-3.28.23Z"/>
          <path class="cls-8" d="M268.93,202.57c0-.38-.21-.77-.65-1.15-1.37-1.15-4.56-1.85-7.92-1.85v12.43c1.09,0,2.21-.07,3.28-.23,3.3-.48,5.29-1.59,5.29-2.77v-6.43Z"/>
        </g>
        <path class="cls-8" d="M268.28,201.42c1.81,1.53-.27,3.28-4.64,3.92-4.37.63-9.39-.09-11.2-1.62s.27-3.28,4.64-3.92c4.37-.63,9.39.09,11.2,1.62Z"/>
      </g>
      <g>
        <g>
          <path class="cls-7" d="M267.84,208.89c-3.3.48-5.29,1.59-5.29,2.77v6.43c0,.38.21.77.65,1.15,1.37,1.15,4.56,1.85,7.92,1.85v-12.43c-1.09,0-2.21.07-3.28.23Z"/>
          <path class="cls-8" d="M279.69,211.66c0-.38-.21-.77-.65-1.15-1.37-1.15-4.56-1.85-7.92-1.85v12.43c1.09,0,2.21-.07,3.28-.23,3.3-.48,5.29-1.59,5.29-2.77v-6.43Z"/>
        </g>
        <path class="cls-8" d="M279.04,210.51c1.81,1.53-.27,3.28-4.64,3.92-4.37.63-9.39-.09-11.2-1.62s.27-3.28,4.64-3.92,9.39.09,11.2,1.62Z"/>
      </g>
    </g>
  </g>
  <g>
    <polygon class="cls-8" points="216.02 231.24 190.04 235 164.06 238.77 185.58 256.95 211.56 253.19 237.54 249.42 216.02 231.24"/>
    <polygon class="cls-8" points="211.56 253.19 185.58 256.95 185.58 291.24 211.56 287.47 237.54 283.71 237.54 249.42 211.56 253.19"/>
    <polygon class="cls-7" points="164.06 238.77 164.06 273.06 185.58 291.24 185.58 256.95 164.06 238.77"/>
    <g>
      <g>
        <path class="cls-7" d="M179.15,232.23c-3.3.48-5.29,1.59-5.29,2.77v6.43c0,.38.21.77.65,1.15,1.37,1.15,4.56,1.85,7.92,1.85v-12.43c-1.09,0-2.21.07-3.28.23Z"/>
        <path class="cls-8" d="M191,235c0-.38-.21-.77-.65-1.15-1.37-1.15-4.56-1.85-7.92-1.85v12.43c1.09,0,2.21-.07,3.28-.23,3.3-.48,5.29-1.59,5.29-2.77v-6.43Z"/>
      </g>
      <path class="cls-8" d="M190.35,233.86c1.81,1.53-.27,3.28-4.64,3.92-4.37.63-9.39-.09-11.2-1.62s.27-3.28,4.64-3.92c4.37-.63,9.39.09,11.2,1.62Z"/>
    </g>
    <g>
      <g>
        <path class="cls-7" d="M189.91,241.32c-3.3.48-5.29,1.59-5.29,2.77v6.43c0,.38.21.77.65,1.15,1.37,1.15,4.56,1.85,7.92,1.85v-12.43c-1.09,0-2.21.07-3.28.23Z"/>
        <path class="cls-8" d="M201.76,244.1c0-.38-.21-.77-.65-1.15-1.37-1.15-4.56-1.85-7.92-1.85v12.43c1.09,0,2.21-.07,3.28-.23,3.3-.48,5.29-1.59,5.29-2.77v-6.43Z"/>
      </g>
      <path class="cls-8" d="M201.11,242.95c1.81,1.53-.27,3.28-4.64,3.92-4.37.63-9.39-.09-11.2-1.62s.27-3.28,4.64-3.92,9.39.09,11.2,1.62Z"/>
    </g>
    <g>
      <g>
        <path class="cls-7" d="M205.13,228.47c-3.3.48-5.29,1.59-5.29,2.77v6.43c0,.38.21.77.65,1.15,1.37,1.15,4.56,1.85,7.92,1.85v-12.43c-1.09,0-2.21.07-3.28.23Z"/>
        <path class="cls-8" d="M216.98,231.24c0-.38-.21-.77-.65-1.15-1.37-1.15-4.56-1.85-7.92-1.85v12.43c1.09,0,2.21-.07,3.28-.23,3.3-.48,5.29-1.59,5.29-2.77v-6.43Z"/>
      </g>
      <path class="cls-8" d="M216.33,230.09c1.81,1.53-.27,3.28-4.64,3.92s-9.39-.09-11.2-1.62.27-3.28,4.64-3.92,9.39.09,11.2,1.62Z"/>
    </g>
    <g>
      <g>
        <path class="cls-7" d="M215.89,237.56c-3.3.48-5.29,1.59-5.29,2.77v6.43c0,.38.21.77.65,1.15,1.37,1.15,4.56,1.85,7.92,1.85v-12.43c-1.09,0-2.21.07-3.28.23Z"/>
        <path class="cls-8" d="M227.74,240.33c0-.38-.21-.77-.65-1.15-1.37-1.15-4.56-1.85-7.92-1.85v12.43c1.09,0,2.21-.07,3.28-.23,3.3-.48,5.29-1.59,5.29-2.77v-6.43Z"/>
      </g>
      <path class="cls-8" d="M227.09,239.18c1.81,1.53-.27,3.28-4.64,3.92s-9.39-.09-11.2-1.62.27-3.28,4.64-3.92,9.39.09,11.2,1.62Z"/>
    </g>
  </g>
  <g>
    <polygon class="cls-8" points="164.06 215.93 138.09 219.7 112.11 223.46 133.63 241.65 159.61 237.88 185.58 234.11 164.06 215.93"/>
    <polygon class="cls-8" points="159.61 237.88 133.63 241.65 133.63 275.93 159.61 272.17 185.58 268.4 185.58 234.11 159.61 237.88"/>
    <polygon class="cls-7" points="112.11 223.46 112.11 257.75 133.63 275.93 133.63 241.65 112.11 223.46"/>
    <g>
      <g>
        <path class="cls-7" d="M127.2,216.93c-3.3.48-5.29,1.59-5.29,2.77v6.43c0,.38.21.77.65,1.15,1.37,1.15,4.56,1.85,7.92,1.85v-12.43c-1.09,0-2.21.07-3.28.23Z"/>
        <path class="cls-8" d="M139.05,219.7c0-.38-.21-.77-.65-1.15-1.37-1.15-4.56-1.85-7.92-1.85v12.43c1.09,0,2.21-.07,3.28-.23,3.3-.48,5.29-1.59,5.29-2.77v-6.43Z"/>
      </g>
      <path class="cls-8" d="M138.4,218.55c1.81,1.53-.27,3.28-4.64,3.92-4.37.63-9.39-.09-11.2-1.62s.27-3.28,4.64-3.92c4.37-.63,9.39.09,11.2,1.62Z"/>
    </g>
    <g>
      <g>
        <path class="cls-7" d="M137.96,226.02c-3.3.48-5.29,1.59-5.29,2.77v6.43c0,.38.21.77.65,1.15,1.37,1.15,4.56,1.85,7.92,1.85v-12.43c-1.09,0-2.21.07-3.28.23Z"/>
        <path class="cls-8" d="M149.81,228.79c0-.38-.21-.77-.65-1.15-1.37-1.15-4.56-1.85-7.92-1.85v12.43c1.09,0,2.21-.07,3.28-.23,3.3-.48,5.29-1.59,5.29-2.77v-6.43Z"/>
      </g>
      <path class="cls-8" d="M149.16,227.64c1.81,1.53-.27,3.28-4.64,3.92-4.37.63-9.39-.09-11.2-1.62s.27-3.28,4.64-3.92c4.37-.63,9.39.09,11.2,1.62Z"/>
    </g>
    <g>
      <g>
        <path class="cls-7" d="M153.18,213.16c-3.3.48-5.29,1.59-5.29,2.77v6.43c0,.38.21.77.65,1.15,1.37,1.15,4.56,1.85,7.92,1.85v-12.43c-1.09,0-2.21.07-3.28.23Z"/>
        <path class="cls-8" d="M165.03,215.93c0-.38-.21-.77-.65-1.15-1.37-1.15-4.56-1.85-7.92-1.85v12.43c1.09,0,2.21-.07,3.28-.23,3.3-.48,5.29-1.59,5.29-2.77v-6.43Z"/>
      </g>
      <path class="cls-8" d="M164.37,214.78c1.81,1.53-.27,3.28-4.64,3.92-4.37.63-9.39-.09-11.2-1.62s.27-3.28,4.64-3.92,9.39.09,11.2,1.62Z"/>
    </g>
    <g>
      <g>
        <path class="cls-7" d="M163.94,222.25c-3.3.48-5.29,1.59-5.29,2.77v6.43c0,.38.21.77.65,1.15,1.37,1.15,4.56,1.85,7.92,1.85v-12.43c-1.09,0-2.21.07-3.28.23Z"/>
        <path class="cls-8" d="M175.79,225.02c0-.38-.21-.77-.65-1.15-1.37-1.15-4.56-1.85-7.92-1.85v12.43c1.09,0,2.21-.07,3.28-.23,3.3-.48,5.29-1.59,5.29-2.77v-6.43Z"/>
      </g>
      <path class="cls-8" d="M175.13,223.88c1.81,1.53-.27,3.28-4.64,3.92s-9.39-.09-11.2-1.62.27-3.28,4.64-3.92,9.39.09,11.2,1.62Z"/>
    </g>
  </g>
  <g>
    <polygon class="cls-8" points="345.9 137.3 319.92 141.06 293.95 144.83 315.47 163.01 341.44 159.25 367.42 155.48 345.9 137.3"/>
    <polygon class="cls-8" points="341.44 159.25 315.47 163.01 315.47 197.3 341.44 193.53 367.42 189.77 367.42 155.48 341.44 159.25"/>
    <polygon class="cls-7" points="293.95 144.83 293.95 179.12 315.47 197.3 315.47 163.01 293.95 144.83"/>
    <g>
      <g>
        <path class="cls-7" d="M309.04,138.29c-3.3.48-5.29,1.59-5.29,2.77v6.43c0,.38.21.77.65,1.15,1.37,1.15,4.56,1.85,7.92,1.85v-12.43c-1.09,0-2.21.07-3.28.23Z"/>
        <path class="cls-8" d="M320.89,141.06c0-.38-.21-.77-.65-1.15-1.37-1.15-4.56-1.85-7.92-1.85v12.43c1.09,0,2.21-.07,3.28-.23,3.3-.48,5.29-1.59,5.29-2.77v-6.43Z"/>
      </g>
      <path class="cls-8" d="M320.23,139.91c1.81,1.53-.27,3.28-4.64,3.92s-9.39-.09-11.2-1.62c-1.81-1.53.27-3.28,4.64-3.92s9.39.09,11.2,1.62Z"/>
    </g>
    <g>
      <g>
        <path class="cls-7" d="M319.8,147.38c-3.3.48-5.29,1.59-5.29,2.77v6.43c0,.38.21.77.65,1.15,1.37,1.15,4.56,1.85,7.92,1.85v-12.43c-1.09,0-2.21.07-3.28.23Z"/>
        <path class="cls-8" d="M331.65,150.15c0-.38-.21-.77-.65-1.15-1.37-1.15-4.56-1.85-7.92-1.85v12.43c1.09,0,2.21-.07,3.28-.23,3.3-.48,5.29-1.59,5.29-2.77v-6.43Z"/>
      </g>
      <path class="cls-8" d="M330.99,149.01c1.81,1.53-.27,3.28-4.64,3.92s-9.39-.09-11.2-1.62c-1.81-1.53.27-3.28,4.64-3.92s9.39.09,11.2,1.62Z"/>
    </g>
    <g>
      <g>
        <path class="cls-7" d="M335.01,134.53c-3.3.48-5.29,1.59-5.29,2.77v6.43c0,.38.21.77.65,1.15,1.37,1.15,4.56,1.85,7.92,1.85v-12.43c-1.09,0-2.21.07-3.28.23Z"/>
        <path class="cls-8" d="M346.86,137.3c0-.38-.21-.77-.65-1.15-1.37-1.15-4.56-1.85-7.92-1.85v12.43c1.09,0,2.21-.07,3.28-.23,3.3-.48,5.29-1.59,5.29-2.77v-6.43Z"/>
      </g>
      <path class="cls-8" d="M346.21,136.15c1.81,1.53-.27,3.28-4.64,3.92-4.37.63-9.39-.09-11.2-1.62s.27-3.28,4.64-3.92c4.37-.63,9.39.09,11.2,1.62Z"/>
    </g>
    <g>
      <g>
        <path class="cls-7" d="M345.77,143.62c-3.3.48-5.29,1.59-5.29,2.77v6.43c0,.38.21.77.65,1.15,1.37,1.15,4.56,1.85,7.92,1.85v-12.43c-1.09,0-2.21.07-3.28.23Z"/>
        <path class="cls-8" d="M357.62,146.39c0-.38-.21-.77-.65-1.15-1.37-1.15-4.56-1.85-7.92-1.85v12.43c1.09,0,2.21-.07,3.28-.23,3.3-.48,5.29-1.59,5.29-2.77v-6.43Z"/>
      </g>
      <path class="cls-8" d="M356.97,145.24c1.81,1.53-.27,3.28-4.64,3.92s-9.39-.09-11.2-1.62.27-3.28,4.64-3.92c4.37-.63,9.39.09,11.2,1.62Z"/>
    </g>
  </g>
  <g>
    <polygon class="cls-8" points="367.42 108.51 341.44 112.27 319.92 94.09 345.9 90.32 367.42 108.51"/>
    <polygon class="cls-8" points="341.44 146.56 367.42 142.79 367.42 108.51 341.44 112.27 341.44 146.56"/>
    <polygon class="cls-7" points="319.92 94.09 319.92 128.38 341.44 146.56 341.44 112.27 319.92 94.09"/>
    <g>
      <g>
        <path class="cls-7" d="M335.01,87.55c-3.3.48-5.29,1.59-5.29,2.77v6.43c0,.38.21.77.65,1.15,1.37,1.15,4.56,1.85,7.92,1.85v-12.43c-1.09,0-2.21.07-3.28.23Z"/>
        <path class="cls-8" d="M346.86,90.32c0-.38-.21-.77-.65-1.15-1.37-1.15-4.56-1.85-7.92-1.85v12.43c1.09,0,2.21-.07,3.28-.23,3.3-.48,5.29-1.59,5.29-2.77v-6.43Z"/>
      </g>
      <path class="cls-8" d="M346.21,89.18c1.81,1.53-.27,3.28-4.64,3.92-4.37.63-9.39-.09-11.2-1.62-1.81-1.53.27-3.28,4.64-3.92,4.37-.63,9.39.09,11.2,1.62Z"/>
    </g>
    <g>
      <g>
        <path class="cls-7" d="M345.77,96.64c-3.3.48-5.29,1.59-5.29,2.77v6.43c0,.38.21.77.65,1.15,1.37,1.15,4.56,1.85,7.92,1.85v-12.43c-1.09,0-2.21.07-3.28.23Z"/>
        <path class="cls-8" d="M357.62,99.41c0-.38-.21-.77-.65-1.15-1.37-1.15-4.56-1.85-7.92-1.85v12.43c1.09,0,2.21-.07,3.28-.23,3.3-.48,5.29-1.59,5.29-2.77v-6.43Z"/>
      </g>
      <path class="cls-8" d="M356.97,98.27c1.81,1.53-.27,3.28-4.64,3.92-4.37.63-9.39-.09-11.2-1.62s.27-3.28,4.64-3.92c4.37-.63,9.39.09,11.2,1.62Z"/>
    </g>
  </g>
  <g>
    <polygon class="cls-8" points="216.02 174.26 190.04 178.03 164.06 181.8 138.09 185.56 112.11 189.33 133.63 207.51 159.61 203.74 185.58 199.98 211.56 196.21 237.54 192.45 216.02 174.26"/>
    <polygon class="cls-8" points="133.63 207.51 133.63 241.8 237.54 226.73 237.54 192.45 133.63 207.51"/>
    <polygon class="cls-7" points="112.11 189.33 112.11 223.61 133.63 241.8 133.63 207.51 112.11 189.33"/>
    <g>
      <g>
        <path class="cls-7" d="M127.2,182.79c-3.3.48-5.29,1.59-5.29,2.77v6.43c0,.38.21.77.65,1.15,1.37,1.15,4.56,1.85,7.92,1.85v-12.43c-1.09,0-2.21.07-3.28.23Z"/>
        <path class="cls-8" d="M139.05,185.56c0-.38-.21-.77-.65-1.15-1.37-1.15-4.56-1.85-7.92-1.85v12.43c1.09,0,2.21-.07,3.28-.23,3.3-.48,5.29-1.59,5.29-2.77v-6.43Z"/>
      </g>
      <path class="cls-8" d="M138.4,184.41c1.81,1.53-.27,3.28-4.64,3.92s-9.39-.09-11.2-1.62.27-3.28,4.64-3.92,9.39.09,11.2,1.62Z"/>
    </g>
    <g>
      <g>
        <path class="cls-7" d="M137.96,191.88c-3.3.48-5.29,1.59-5.29,2.77v6.43c0,.38.21.77.65,1.15,1.37,1.15,4.56,1.85,7.92,1.85v-12.43c-1.09,0-2.21.07-3.28.23Z"/>
        <path class="cls-8" d="M149.81,194.65c0-.38-.21-.77-.65-1.15-1.37-1.15-4.56-1.85-7.92-1.85v12.43c1.09,0,2.21-.07,3.28-.23,3.3-.48,5.29-1.59,5.29-2.77v-6.43Z"/>
      </g>
      <path class="cls-8" d="M149.16,193.51c1.81,1.53-.27,3.28-4.64,3.92s-9.39-.09-11.2-1.62.27-3.28,4.64-3.92c4.37-.63,9.39.09,11.2,1.62Z"/>
    </g>
    <g>
      <g>
        <path class="cls-7" d="M205.13,171.49c-3.3.48-5.29,1.59-5.29,2.77v6.43c0,.38.21.77.65,1.15,1.37,1.15,4.56,1.85,7.92,1.85v-12.43c-1.09,0-2.21.07-3.28.23Z"/>
        <path class="cls-8" d="M216.98,174.26c0-.38-.21-.77-.65-1.15-1.37-1.15-4.56-1.85-7.92-1.85v12.43c1.09,0,2.21-.07,3.28-.23,3.3-.48,5.29-1.59,5.29-2.77v-6.43Z"/>
      </g>
      <path class="cls-8" d="M216.33,173.12c1.81,1.53-.27,3.28-4.64,3.92-4.37.63-9.39-.09-11.2-1.62s.27-3.28,4.64-3.92c4.37-.63,9.39.09,11.2,1.62Z"/>
    </g>
    <g>
      <g>
        <path class="cls-7" d="M215.89,180.58c-3.3.48-5.29,1.59-5.29,2.77v6.43c0,.38.21.77.65,1.15,1.37,1.15,4.56,1.85,7.92,1.85v-12.43c-1.09,0-2.21.07-3.28.23Z"/>
        <path class="cls-8" d="M227.74,183.36c0-.38-.21-.77-.65-1.15-1.37-1.15-4.56-1.85-7.92-1.85v12.43c1.09,0,2.21-.07,3.28-.23,3.3-.48,5.29-1.59,5.29-2.77v-6.43Z"/>
      </g>
      <path class="cls-8" d="M227.09,182.21c1.81,1.53-.27,3.28-4.64,3.92s-9.39-.09-11.2-1.62c-1.81-1.53.27-3.28,4.64-3.92s9.39.09,11.2,1.62Z"/>
    </g>
    <g>
      <g>
        <path class="cls-7" d="M179.15,175.26c-3.3.48-5.29,1.59-5.29,2.77v6.43c0,.38.21.77.65,1.15,1.37,1.15,4.56,1.85,7.92,1.85v-12.43c-1.09,0-2.21.07-3.28.23Z"/>
        <path class="cls-8" d="M191,178.03c0-.38-.21-.77-.65-1.15-1.37-1.15-4.56-1.85-7.92-1.85v12.43c1.09,0,2.21-.07,3.28-.23,3.3-.48,5.29-1.59,5.29-2.77v-6.43Z"/>
      </g>
      <path class="cls-8" d="M190.35,176.88c1.81,1.53-.27,3.28-4.64,3.92-4.37.63-9.39-.09-11.2-1.62-1.81-1.53.27-3.28,4.64-3.92s9.39.09,11.2,1.62Z"/>
    </g>
    <g>
      <g>
        <path class="cls-7" d="M189.91,184.35c-3.3.48-5.29,1.59-5.29,2.77v6.43c0,.38.21.77.65,1.15,1.37,1.15,4.56,1.85,7.92,1.85v-12.43c-1.09,0-2.21.07-3.28.23Z"/>
        <path class="cls-8" d="M201.76,187.12c0-.38-.21-.77-.65-1.15-1.37-1.15-4.56-1.85-7.92-1.85v12.43c1.09,0,2.21-.07,3.28-.23,3.3-.48,5.29-1.59,5.29-2.77v-6.43Z"/>
      </g>
      <path class="cls-8" d="M201.11,185.97c1.81,1.53-.27,3.28-4.64,3.92s-9.39-.09-11.2-1.62.27-3.28,4.64-3.92c4.37-.63,9.39.09,11.2,1.62Z"/>
    </g>
    <g>
      <g>
        <path class="cls-7" d="M153.18,179.02c-3.3.48-5.29,1.59-5.29,2.77v6.43c0,.38.21.77.65,1.15,1.37,1.15,4.56,1.85,7.92,1.85v-12.43c-1.09,0-2.21.07-3.28.23Z"/>
        <path class="cls-8" d="M165.03,181.8c0-.38-.21-.77-.65-1.15-1.37-1.15-4.56-1.85-7.92-1.85v12.43c1.09,0,2.21-.07,3.28-.23,3.3-.48,5.29-1.59,5.29-2.77v-6.43Z"/>
      </g>
      <path class="cls-8" d="M164.37,180.65c1.81,1.53-.27,3.28-4.64,3.92s-9.39-.09-11.2-1.62.27-3.28,4.64-3.92,9.39.09,11.2,1.62Z"/>
    </g>
    <g>
      <g>
        <path class="cls-7" d="M163.94,188.12c-3.3.48-5.29,1.59-5.29,2.77v6.43c0,.38.21.77.65,1.15,1.37,1.15,4.56,1.85,7.92,1.85v-12.43c-1.09,0-2.21.07-3.28.23Z"/>
        <path class="cls-8" d="M175.79,190.89c0-.38-.21-.77-.65-1.15-1.37-1.15-4.56-1.85-7.92-1.85v12.43c1.09,0,2.21-.07,3.28-.23,3.3-.48,5.29-1.59,5.29-2.77v-6.43Z"/>
      </g>
      <path class="cls-8" d="M175.13,189.74c1.81,1.53-.27,3.28-4.64,3.92s-9.39-.09-11.2-1.62c-1.81-1.53.27-3.28,4.64-3.92,4.37-.63,9.39.09,11.2,1.62Z"/>
    </g>
  </g>
  <g>
    <polygon class="cls-8" points="293.95 116.97 267.97 120.74 241.99 124.5 263.51 142.69 289.49 138.92 315.47 135.15 293.95 116.97"/>
    <polygon class="cls-8" points="289.49 138.92 263.51 142.69 263.51 176.97 289.49 173.21 315.47 169.44 315.47 135.15 289.49 138.92"/>
    <polygon class="cls-7" points="241.99 124.5 241.99 158.79 263.51 176.97 263.51 142.69 241.99 124.5"/>
    <g>
      <g>
        <path class="cls-7" d="M257.08,117.96c-3.3.48-5.29,1.59-5.29,2.77v6.43c0,.38.21.77.65,1.15,1.37,1.15,4.56,1.85,7.92,1.85v-12.43c-1.09,0-2.21.07-3.28.23Z"/>
        <path class="cls-8" d="M268.93,120.74c0-.38-.21-.77-.65-1.15-1.37-1.15-4.56-1.85-7.92-1.85v12.43c1.09,0,2.21-.07,3.28-.23,3.3-.48,5.29-1.59,5.29-2.77v-6.43Z"/>
      </g>
      <path class="cls-8" d="M268.28,119.59c1.81,1.53-.27,3.28-4.64,3.92s-9.39-.09-11.2-1.62.27-3.28,4.64-3.92,9.39.09,11.2,1.62Z"/>
    </g>
    <g>
      <g>
        <path class="cls-7" d="M267.84,127.06c-3.3.48-5.29,1.59-5.29,2.77v6.43c0,.38.21.77.65,1.15,1.37,1.15,4.56,1.85,7.92,1.85v-12.43c-1.09,0-2.21.07-3.28.23Z"/>
        <path class="cls-8" d="M279.69,129.83c0-.38-.21-.77-.65-1.15-1.37-1.15-4.56-1.85-7.92-1.85v12.43c1.09,0,2.21-.07,3.28-.23,3.3-.48,5.29-1.59,5.29-2.77v-6.43Z"/>
      </g>
      <path class="cls-8" d="M279.04,128.68c1.81,1.53-.27,3.28-4.64,3.92s-9.39-.09-11.2-1.62c-1.81-1.53.27-3.28,4.64-3.92s9.39.09,11.2,1.62Z"/>
    </g>
    <g>
      <g>
        <path class="cls-7" d="M283.06,114.2c-3.3.48-5.29,1.59-5.29,2.77v6.43c0,.38.21.77.65,1.15,1.37,1.15,4.56,1.85,7.92,1.85v-12.43c-1.09,0-2.21.07-3.28.23Z"/>
        <path class="cls-8" d="M294.91,116.97c0-.38-.21-.77-.65-1.15-1.37-1.15-4.56-1.85-7.92-1.85v12.43c1.09,0,2.21-.07,3.28-.23,3.3-.48,5.29-1.59,5.29-2.77v-6.43Z"/>
      </g>
      <path class="cls-8" d="M294.26,115.82c1.81,1.53-.27,3.28-4.64,3.92s-9.39-.09-11.2-1.62c-1.81-1.53.27-3.28,4.64-3.92,4.37-.63,9.39.09,11.2,1.62Z"/>
    </g>
    <g>
      <g>
        <path class="cls-7" d="M293.82,123.29c-3.3.48-5.29,1.59-5.29,2.77v6.43c0,.38.21.77.65,1.15,1.37,1.15,4.56,1.85,7.92,1.85v-12.43c-1.09,0-2.21.07-3.28.23Z"/>
        <path class="cls-8" d="M305.67,126.06c0-.38-.21-.77-.65-1.15-1.37-1.15-4.56-1.85-7.92-1.85v12.43c1.09,0,2.21-.07,3.28-.23,3.3-.48,5.29-1.59,5.29-2.77v-6.43Z"/>
      </g>
      <path class="cls-8" d="M305.02,124.91c1.81,1.53-.27,3.28-4.64,3.92s-9.39-.09-11.2-1.62.27-3.28,4.64-3.92c4.37-.63,9.39.09,11.2,1.62Z"/>
    </g>
  </g>
  <g>
    <polygon class="cls-8" points="241.99 109.41 216.02 113.18 190.04 116.94 164.06 120.71 138.09 124.47 159.61 142.66 185.58 138.89 211.56 135.12 237.54 131.36 263.51 127.59 241.99 109.41"/>
    <polygon class="cls-8" points="159.61 142.66 159.61 176.94 263.51 161.88 263.51 127.59 159.61 142.66"/>
    <polygon class="cls-7" points="138.09 124.47 138.09 158.76 159.61 176.94 159.61 142.66 138.09 124.47"/>
    <g>
      <g>
        <path class="cls-7" d="M153.18,117.94c-3.3.48-5.29,1.59-5.29,2.77v6.43c0,.38.21.77.65,1.15,1.37,1.15,4.56,1.85,7.92,1.85v-12.43c-1.09,0-2.21.07-3.28.23Z"/>
        <path class="cls-8" d="M165.03,120.71c0-.38-.21-.77-.65-1.15-1.37-1.15-4.56-1.85-7.92-1.85v12.43c1.09,0,2.21-.07,3.28-.23,3.3-.48,5.29-1.59,5.29-2.77v-6.43Z"/>
      </g>
      <path class="cls-8" d="M164.37,119.56c1.81,1.53-.27,3.28-4.64,3.92-4.37.63-9.39-.09-11.2-1.62s.27-3.28,4.64-3.92c4.37-.63,9.39.09,11.2,1.62Z"/>
    </g>
    <g>
      <g>
        <path class="cls-7" d="M163.94,127.03c-3.3.48-5.29,1.59-5.29,2.77v6.43c0,.38.21.77.65,1.15,1.37,1.15,4.56,1.85,7.92,1.85v-12.43c-1.09,0-2.21.07-3.28.23Z"/>
        <path class="cls-8" d="M175.79,129.8c0-.38-.21-.77-.65-1.15-1.37-1.15-4.56-1.85-7.92-1.85v12.43c1.09,0,2.21-.07,3.28-.23,3.3-.48,5.29-1.59,5.29-2.77v-6.43Z"/>
      </g>
      <path class="cls-8" d="M175.13,128.65c1.81,1.53-.27,3.28-4.64,3.92s-9.39-.09-11.2-1.62.27-3.28,4.64-3.92c4.37-.63,9.39.09,11.2,1.62Z"/>
    </g>
    <g>
      <g>
        <path class="cls-7" d="M231.11,106.64c-3.3.48-5.29,1.59-5.29,2.77v6.43c0,.38.21.77.65,1.15,1.37,1.15,4.56,1.85,7.92,1.85v-12.43c-1.09,0-2.21.07-3.28.23Z"/>
        <path class="cls-8" d="M242.96,109.41c0-.38-.21-.77-.65-1.15-1.37-1.15-4.56-1.85-7.92-1.85v12.43c1.09,0,2.21-.07,3.28-.23,3.3-.48,5.29-1.59,5.29-2.77v-6.43Z"/>
      </g>
      <path class="cls-8" d="M242.3,108.26c1.81,1.53-.27,3.28-4.64,3.92-4.37.63-9.39-.09-11.2-1.62s.27-3.28,4.64-3.92,9.39.09,11.2,1.62Z"/>
    </g>
    <g>
      <g>
        <path class="cls-7" d="M241.87,115.73c-3.3.48-5.29,1.59-5.29,2.77v6.43c0,.38.21.77.65,1.15,1.37,1.15,4.56,1.85,7.92,1.85v-12.43c-1.09,0-2.21.07-3.28.23Z"/>
        <path class="cls-8" d="M253.72,118.5c0-.38-.21-.77-.65-1.15-1.37-1.15-4.56-1.85-7.92-1.85v12.43c1.09,0,2.21-.07,3.28-.23,3.3-.48,5.29-1.59,5.29-2.77v-6.43Z"/>
      </g>
      <path class="cls-8" d="M253.06,117.35c1.81,1.53-.27,3.28-4.64,3.92-4.37.63-9.39-.09-11.2-1.62-1.81-1.53.27-3.28,4.64-3.92s9.39.09,11.2,1.62Z"/>
    </g>
    <g>
      <g>
        <path class="cls-7" d="M205.13,110.4c-3.3.48-5.29,1.59-5.29,2.77v6.43c0,.38.21.77.65,1.15,1.37,1.15,4.56,1.85,7.92,1.85v-12.43c-1.09,0-2.21.07-3.28.23Z"/>
        <path class="cls-8" d="M216.98,113.18c0-.38-.21-.77-.65-1.15-1.37-1.15-4.56-1.85-7.92-1.85v12.43c1.09,0,2.21-.07,3.28-.23,3.3-.48,5.29-1.59,5.29-2.77v-6.43Z"/>
      </g>
      <path class="cls-8" d="M216.33,112.03c1.81,1.53-.27,3.28-4.64,3.92s-9.39-.09-11.2-1.62.27-3.28,4.64-3.92c4.37-.63,9.39.09,11.2,1.62Z"/>
    </g>
    <g>
      <g>
        <path class="cls-7" d="M215.89,119.5c-3.3.48-5.29,1.59-5.29,2.77v6.43c0,.38.21.77.65,1.15,1.37,1.15,4.56,1.85,7.92,1.85v-12.43c-1.09,0-2.21.07-3.28.23Z"/>
        <path class="cls-8" d="M227.74,122.27c0-.38-.21-.77-.65-1.15-1.37-1.15-4.56-1.85-7.92-1.85v12.43c1.09,0,2.21-.07,3.28-.23,3.3-.48,5.29-1.59,5.29-2.77v-6.43Z"/>
      </g>
      <path class="cls-8" d="M227.09,121.12c1.81,1.53-.27,3.28-4.64,3.92-4.37.63-9.39-.09-11.2-1.62s.27-3.28,4.64-3.92c4.37-.63,9.39.09,11.2,1.62Z"/>
    </g>
    <g>
      <g>
        <path class="cls-7" d="M179.15,114.17c-3.3.48-5.29,1.59-5.29,2.77v6.43c0,.38.21.77.65,1.15,1.37,1.15,4.56,1.85,7.92,1.85v-12.43c-1.09,0-2.21.07-3.28.23Z"/>
        <path class="cls-8" d="M191,116.94c0-.38-.21-.77-.65-1.15-1.37-1.15-4.56-1.85-7.92-1.85v12.43c1.09,0,2.21-.07,3.28-.23,3.3-.48,5.29-1.59,5.29-2.77v-6.43Z"/>
      </g>
      <path class="cls-8" d="M190.35,115.79c1.81,1.53-.27,3.28-4.64,3.92s-9.39-.09-11.2-1.62.27-3.28,4.64-3.92,9.39.09,11.2,1.62Z"/>
    </g>
    <g>
      <g>
        <path class="cls-7" d="M189.91,123.26c-3.3.48-5.29,1.59-5.29,2.77v6.43c0,.38.21.77.65,1.15,1.37,1.15,4.56,1.85,7.92,1.85v-12.43c-1.09,0-2.21.07-3.28.23Z"/>
        <path class="cls-8" d="M201.76,126.03c0-.38-.21-.77-.65-1.15-1.37-1.15-4.56-1.85-7.92-1.85v12.43c1.09,0,2.21-.07,3.28-.23,3.3-.48,5.29-1.59,5.29-2.77v-6.43Z"/>
      </g>
      <path class="cls-8" d="M201.11,124.89c1.81,1.53-.27,3.28-4.64,3.92s-9.39-.09-11.2-1.62.27-3.28,4.64-3.92,9.39.09,11.2,1.62Z"/>
    </g>
  </g>
  <g>
    <g>
      <polygon class="cls-8" points="315.47 65.94 159.61 88.53 138.09 70.35 293.95 47.75 315.47 65.94"/>
      <polygon class="cls-8" points="159.61 122.82 315.47 100.22 315.47 65.94 159.61 88.53 159.61 122.82"/>
      <polygon class="cls-7" points="138.09 70.35 138.09 104.64 159.61 122.82 159.61 88.53 138.09 70.35"/>
      <g>
        <g>
          <path class="cls-7" d="M153.18,63.81c-3.3.48-5.29,1.59-5.29,2.77v6.43c0,.38.21.77.65,1.15,1.37,1.15,4.56,1.85,7.92,1.85v-12.43c-1.09,0-2.21.07-3.28.23Z"/>
          <path class="cls-8" d="M165.03,66.58c0-.38-.21-.77-.65-1.15-1.37-1.15-4.56-1.85-7.92-1.85v12.43c1.09,0,2.21-.07,3.28-.23,3.3-.48,5.29-1.59,5.29-2.77v-6.43Z"/>
        </g>
        <path class="cls-8" d="M164.37,65.43c1.81,1.53-.27,3.28-4.64,3.92-4.37.63-9.39-.09-11.2-1.62s.27-3.28,4.64-3.92,9.39.09,11.2,1.62Z"/>
      </g>
      <g>
        <g>
          <path class="cls-7" d="M163.94,72.9c-3.3.48-5.29,1.59-5.29,2.77v6.43c0,.38.21.77.65,1.15,1.37,1.15,4.56,1.85,7.92,1.85v-12.43c-1.09,0-2.21.07-3.28.23Z"/>
          <path class="cls-8" d="M175.79,75.67c0-.38-.21-.77-.65-1.15-1.37-1.15-4.56-1.85-7.92-1.85v12.43c1.09,0,2.21-.07,3.28-.23,3.3-.48,5.29-1.59,5.29-2.77v-6.43Z"/>
        </g>
        <path class="cls-8" d="M175.13,74.53c1.81,1.53-.27,3.28-4.64,3.92s-9.39-.09-11.2-1.62.27-3.28,4.64-3.92,9.39.09,11.2,1.62Z"/>
      </g>
    </g>
    <g>
      <g>
        <g>
          <path class="cls-7" d="M283.06,44.98c-3.3.48-5.29,1.59-5.29,2.77v6.43c0,.38.21.77.65,1.15,1.37,1.15,4.56,1.85,7.92,1.85v-12.43c-1.09,0-2.21.07-3.28.23Z"/>
          <path class="cls-8" d="M294.91,47.75c0-.38-.21-.77-.65-1.15-1.37-1.15-4.56-1.85-7.92-1.85v12.43c1.09,0,2.21-.07,3.28-.23,3.3-.48,5.29-1.59,5.29-2.77v-6.43Z"/>
        </g>
        <path class="cls-8" d="M294.26,46.6c1.81,1.53-.27,3.28-4.64,3.92-4.37.63-9.39-.09-11.2-1.62-1.81-1.53.27-3.28,4.64-3.92,4.37-.63,9.39.09,11.2,1.62Z"/>
      </g>
      <g>
        <g>
          <path class="cls-7" d="M293.82,54.07c-3.3.48-5.29,1.59-5.29,2.77v6.43c0,.38.21.77.65,1.15,1.37,1.15,4.56,1.85,7.92,1.85v-12.43c-1.09,0-2.21.07-3.28.23Z"/>
          <path class="cls-8" d="M305.67,56.84c0-.38-.21-.77-.65-1.15-1.37-1.15-4.56-1.85-7.92-1.85v12.43c1.09,0,2.21-.07,3.28-.23,3.3-.48,5.29-1.59,5.29-2.77v-6.43Z"/>
        </g>
        <path class="cls-8" d="M305.02,55.7c1.81,1.53-.27,3.28-4.64,3.92s-9.39-.09-11.2-1.62c-1.81-1.53.27-3.28,4.64-3.92,4.37-.63,9.39.09,11.2,1.62Z"/>
      </g>
    </g>
    <g>
      <g>
        <g>
          <path class="cls-7" d="M257.08,48.75c-3.3.48-5.29,1.59-5.29,2.77v6.43c0,.38.21.77.65,1.15,1.37,1.15,4.56,1.85,7.92,1.85v-12.43c-1.09,0-2.21.07-3.28.23Z"/>
          <path class="cls-8" d="M268.93,51.52c0-.38-.21-.77-.65-1.15-1.37-1.15-4.56-1.85-7.92-1.85v12.43c1.09,0,2.21-.07,3.28-.23,3.3-.48,5.29-1.59,5.29-2.77v-6.43Z"/>
        </g>
        <path class="cls-8" d="M268.28,50.37c1.81,1.53-.27,3.28-4.64,3.92s-9.39-.09-11.2-1.62.27-3.28,4.64-3.92c4.37-.63,9.39.09,11.2,1.62Z"/>
      </g>
      <g>
        <g>
          <path class="cls-7" d="M267.84,57.84c-3.3.48-5.29,1.59-5.29,2.77v6.43c0,.38.21.77.65,1.15,1.37,1.15,4.56,1.85,7.92,1.85v-12.43c-1.09,0-2.21.07-3.28.23Z"/>
          <path class="cls-8" d="M279.69,60.61c0-.38-.21-.77-.65-1.15-1.37-1.15-4.56-1.85-7.92-1.85v12.43c1.09,0,2.21-.07,3.28-.23,3.3-.48,5.29-1.59,5.29-2.77v-6.43Z"/>
        </g>
        <path class="cls-8" d="M279.04,59.46c1.81,1.53-.27,3.28-4.64,3.92s-9.39-.09-11.2-1.62.27-3.28,4.64-3.92,9.39.09,11.2,1.62Z"/>
      </g>
    </g>
    <g>
      <g>
        <g>
          <path class="cls-7" d="M231.11,52.51c-3.3.48-5.29,1.59-5.29,2.77v6.43c0,.38.21.77.65,1.15,1.37,1.15,4.56,1.85,7.92,1.85v-12.43c-1.09,0-2.21.07-3.28.23Z"/>
          <path class="cls-8" d="M242.96,55.28c0-.38-.21-.77-.65-1.15-1.37-1.15-4.56-1.85-7.92-1.85v12.43c1.09,0,2.21-.07,3.28-.23,3.3-.48,5.29-1.59,5.29-2.77v-6.43Z"/>
        </g>
        <path class="cls-8" d="M242.3,54.14c1.81,1.53-.27,3.28-4.64,3.92-4.37.63-9.39-.09-11.2-1.62s.27-3.28,4.64-3.92c4.37-.63,9.39.09,11.2,1.62Z"/>
      </g>
      <g>
        <g>
          <path class="cls-7" d="M241.87,61.6c-3.3.48-5.29,1.59-5.29,2.77v6.43c0,.38.21.77.65,1.15,1.37,1.15,4.56,1.85,7.92,1.85v-12.43c-1.09,0-2.21.07-3.28.23Z"/>
          <path class="cls-8" d="M253.72,64.38c0-.38-.21-.77-.65-1.15-1.37-1.15-4.56-1.85-7.92-1.85v12.43c1.09,0,2.21-.07,3.28-.23,3.3-.48,5.29-1.59,5.29-2.77v-6.43Z"/>
        </g>
        <path class="cls-8" d="M253.06,63.23c1.81,1.53-.27,3.28-4.64,3.92-4.37.63-9.39-.09-11.2-1.62s.27-3.28,4.64-3.92c4.37-.63,9.39.09,11.2,1.62Z"/>
      </g>
    </g>
    <g>
      <g>
        <g>
          <path class="cls-7" d="M205.13,56.28c-3.3.48-5.29,1.59-5.29,2.77v6.43c0,.38.21.77.65,1.15,1.37,1.15,4.56,1.85,7.92,1.85v-12.43c-1.09,0-2.21.07-3.28.23Z"/>
          <path class="cls-8" d="M216.98,59.05c0-.38-.21-.77-.65-1.15-1.37-1.15-4.56-1.85-7.92-1.85v12.43c1.09,0,2.21-.07,3.28-.23,3.3-.48,5.29-1.59,5.29-2.77v-6.43Z"/>
        </g>
        <path class="cls-8" d="M216.33,57.9c1.81,1.53-.27,3.28-4.64,3.92s-9.39-.09-11.2-1.62c-1.81-1.53.27-3.28,4.64-3.92,4.37-.63,9.39.09,11.2,1.62Z"/>
      </g>
      <g>
        <g>
          <path class="cls-7" d="M215.89,65.37c-3.3.48-5.29,1.59-5.29,2.77v6.43c0,.38.21.77.65,1.15,1.37,1.15,4.56,1.85,7.92,1.85v-12.43c-1.09,0-2.21.07-3.28.23Z"/>
          <path class="cls-8" d="M227.74,68.14c0-.38-.21-.77-.65-1.15-1.37-1.15-4.56-1.85-7.92-1.85v12.43c1.09,0,2.21-.07,3.28-.23,3.3-.48,5.29-1.59,5.29-2.77v-6.43Z"/>
        </g>
        <path class="cls-8" d="M227.09,66.99c1.81,1.53-.27,3.28-4.64,3.92s-9.39-.09-11.2-1.62.27-3.28,4.64-3.92c4.37-.63,9.39.09,11.2,1.62Z"/>
      </g>
    </g>
    <g>
      <g>
        <g>
          <path class="cls-7" d="M179.15,60.04c-3.3.48-5.29,1.59-5.29,2.77v6.43c0,.38.21.77.65,1.15,1.37,1.15,4.56,1.85,7.92,1.85v-12.43c-1.09,0-2.21.07-3.28.23Z"/>
          <path class="cls-8" d="M191,62.82c0-.38-.21-.77-.65-1.15-1.37-1.15-4.56-1.85-7.92-1.85v12.43c1.09,0,2.21-.07,3.28-.23,3.3-.48,5.29-1.59,5.29-2.77v-6.43Z"/>
        </g>
        <path class="cls-8" d="M190.35,61.67c1.81,1.53-.27,3.28-4.64,3.92-4.37.63-9.39-.09-11.2-1.62s.27-3.28,4.64-3.92c4.37-.63,9.39.09,11.2,1.62Z"/>
      </g>
      <g>
        <g>
          <path class="cls-7" d="M189.91,69.14c-3.3.48-5.29,1.59-5.29,2.77v6.43c0,.38.21.77.65,1.15,1.37,1.15,4.56,1.85,7.92,1.85v-12.43c-1.09,0-2.21.07-3.28.23Z"/>
          <path class="cls-8" d="M201.76,71.91c0-.38-.21-.77-.65-1.15-1.37-1.15-4.56-1.85-7.92-1.85v12.43c1.09,0,2.21-.07,3.28-.23,3.3-.48,5.29-1.59,5.29-2.77v-6.43Z"/>
        </g>
        <path class="cls-8" d="M201.11,70.76c1.81,1.53-.27,3.28-4.64,3.92s-9.39-.09-11.2-1.62.27-3.28,4.64-3.92c4.37-.63,9.39.09,11.2,1.62Z"/>
      </g>
    </g>
  </g>
  <g>
    <path class="cls-4" d="M485.6,269.28c0-.46-.12-.91-.34-1.3h0v-.02c-.24-.4-.58-.74-.98-.97l-21.24-12.26c-.82-.47-1.83-.47-2.65,0l-21.24,12.26c-.82.47-1.32,1.35-1.32,2.29v24.53c0,.46.12.91.35,1.31h0s0,0,0,0c0,0,0,0,0,0h0s0,0,0,0c.23.39.56.73.96.96l20.18,11.65,1.06.61c.41.24.87.35,1.32.35s.92-.12,1.33-.35l21.24-12.26c.4-.23.73-.56.96-.96h0s0,0,0,0c0,0,0,0,0,0h0s0,0,0,0c.23-.4.35-.85.35-1.31v-24.53ZM461.71,299.3c-6.3,0-12.17-3.4-15.32-8.88h0s0-.01,0-.01c-1.54-2.68-2.35-5.72-2.35-8.79,0-9.75,7.93-17.68,17.68-17.68,3.15,0,6.24.84,8.94,2.43,2.61,1.54,4.8,3.74,6.33,6.37l-7.66,4.45c-.97-1.66-2.45-2.94-4.17-3.67,0,0,0,0,0,0-1.07-.46-2.24-.71-3.43-.71-4.86,0-8.82,3.95-8.82,8.81,0,1.53.41,3.05,1.18,4.39h0s0,0,0,0c1.57,2.73,4.5,4.42,7.63,4.42s6.06-1.69,7.63-4.42l7.68,4.41c-3.16,5.47-9.02,8.87-15.31,8.87ZM472.98,295.2c-.15.13-.29.27-.44.39.15-.12.29-.26.44-.39ZM471.45,296.33c-.28.18-.54.39-.83.56.29-.17.55-.37.83-.56ZM469.6,297.41c-.35.17-.68.36-1.04.51.36-.15.69-.34,1.04-.51ZM467.18,298.41c-.26.09-.51.19-.78.27.26-.07.52-.18.78-.27ZM457.01,298.67c-.25-.07-.49-.17-.73-.25.25.08.48.18.73.25ZM454.85,297.92c-.34-.14-.66-.32-.98-.49.33.16.65.35.98.49ZM452.79,296.89c-.27-.16-.52-.35-.78-.52.26.17.51.36.78.52ZM450.87,295.59c-.14-.11-.26-.23-.39-.34.13.11.26.24.39.34ZM469.29,277.22h0ZM477.9,279.04v-2.49h1.22v2.49h2.49v1.22h-2.49v2.51h2.49v1.22h-2.49v2.49h-1.22v-2.49h-2.52v2.49h-1.22v-2.49h-2.49v-1.22h2.49v-2.51h-2.49v-1.22h2.49v-2.49h1.22v2.49h2.52Z"/>
    <polygon class="cls-4" points="475.39 282.76 475.39 282.77 477.89 282.77 477.9 282.77 477.9 280.27 477.9 280.25 475.39 280.25 475.39 282.76"/>
  </g>
  <g>
    <path class="cls-4" d="M461.4,143.93c-2.16,0-4.23.19-6.05.52-5.36.95-6.33,2.93-6.33,6.58v4.83h12.66v1.61h-17.41c-3.68,0-6.9,2.21-7.91,6.42-1.16,4.82-1.21,7.83,0,12.87.9,3.75,3.05,6.42,6.73,6.42h4.35v-5.78c0-4.18,3.61-7.87,7.91-7.87h12.65c3.52,0,6.33-2.9,6.33-6.44v-12.06c0-3.43-2.89-6.01-6.33-6.58-2.17-.36-4.43-.53-6.6-.52M454.55,147.81c1.31,0,2.38,1.08,2.38,2.42s-1.07,2.4-2.38,2.4-2.38-1.08-2.38-2.4,1.06-2.42,2.38-2.42"/>
    <path class="cls-4" d="M475.9,157.46v5.62c0,4.36-3.7,8.03-7.91,8.03h-12.65c-3.46,0-6.33,2.97-6.33,6.44v12.06c0,3.43,2.98,5.45,6.33,6.44,4.01,1.18,7.85,1.39,12.65,0,3.19-.92,6.33-2.78,6.33-6.44v-4.83h-12.65v-1.61h18.98c3.68,0,5.05-2.57,6.33-6.42,1.32-3.97,1.27-7.78,0-12.87-.91-3.66-2.65-6.42-6.33-6.42h-4.75ZM468.79,187.99c1.31,0,2.38,1.08,2.38,2.41s-1.06,2.42-2.38,2.42-2.38-1.08-2.38-2.42,1.07-2.41,2.38-2.41"/>
  </g>
  <path class="cls-4" d="M62.11,258.1H21.26c-2.74,0-4.96,2.22-4.96,4.96v40.85c0,2.74,2.22,4.96,4.96,4.96h40.85c2.74,0,4.96-2.22,4.96-4.96v-40.85c0-2.74-2.22-4.96-4.96-4.96M45.75,286.27h-6.37v18.14h-5.05v-18.14h-6.34v-4.07h17.75v4.07ZM62.2,301.19c-.47.84-1.11,1.52-1.92,2.05-.81.52-1.75.9-2.82,1.12-1.07.23-2.2.34-3.39.34s-2.38-.1-3.48-.31c-1.1-.21-2.06-.52-2.86-.93v-4.96c.9.75,1.88,1.32,2.93,1.7s2.12.57,3.2.57c.63,0,1.18-.06,1.65-.17.47-.11.86-.27,1.18-.47.32-.2.55-.44.71-.71.16-.28.23-.57.23-.89,0-.43-.12-.82-.37-1.16-.25-.34-.59-.66-1.02-.95-.43-.29-.94-.57-1.53-.84-.59-.27-1.23-.54-1.91-.82-1.74-.72-3.03-1.61-3.89-2.65-.85-1.05-1.28-2.31-1.28-3.79,0-1.16.23-2.15.7-2.98.47-.83,1.1-1.52,1.9-2.06s1.73-.93,2.79-1.19c1.06-.25,2.17-.38,3.35-.38s2.18.07,3.08.21c.89.14,1.72.36,2.48.64v4.64c-.37-.26-.78-.49-1.22-.69-.44-.2-.89-.36-1.36-.49s-.93-.23-1.39-.29c-.46-.06-.9-.09-1.31-.09-.57,0-1.09.05-1.55.16-.47.11-.86.26-1.18.46-.32.2-.57.43-.75.71-.17.27-.26.58-.26.92,0,.37.1.71.3,1,.2.29.47.57.84.84.36.26.8.52,1.32.77.52.26,1.1.52,1.75.78.89.37,1.69.77,2.4,1.19.71.42,1.32.89,1.82,1.42.51.53.89,1.13,1.16,1.81.27.68.4,1.47.4,2.37,0,1.24-.23,2.28-.71,3.13"/>
  <g>
    <path class="cls-4" d="M420.56,44.57c-.15,0-.33.07-.41.19l-.77,1c-.07.11-.03.18.11.18l13.35.04c.11,0,.3-.11.37-.22l.63-.96c.07-.11.04-.22-.11-.22h-13.17Z"/>
    <path class="cls-4" d="M431.81,47.96h-16.82c-.15,0-.33.07-.41.19l-.77,1c-.07.11-.03.18.11.18l17.45-.04c.15,0,.3-.07.33-.22l.3-.89c.04-.11-.04-.22-.19-.22Z"/>
    <path class="cls-4" d="M431,51.36h-7.38c-.15,0-.3.11-.37.22l-.52.92c-.07.11-.03.22.11.22l8.04.04c.11,0,.26-.11.26-.26l.07-.89c0-.15-.07-.26-.22-.26Z"/>
    <path class="cls-4" d="M489.39,48.11c-.48-3.54-2.29-6.23-5.2-8.23-3.21-2.17-6.75-2.54-10.51-1.88-4.39.77-7.64,2.62-10.33,6.16-1.15,1.51-2,3.11-2.53,4.8h-11.89c-.55,0-.81.37-.92.59-.52.96-1.4,2.88-1.88,4.02-.26.63-.07,1.1.7,1.1h7.12c-.37.52-.66.96-1,1.37-1.66,1.88-3.76,2.77-6.27,2.44-2.91-.41-4.94-2.84-4.98-5.79-.03-2.99,1.26-5.39,3.76-7.01,2.1-1.37,4.35-1.7,6.68-.55.77.37,1.18.77,1.73,1.4.48.55.52.52,1.07.37,2.29-.59,3.87-1.03,6.2-1.62.44-.11.59-.3.37-.63-.92-2.14-2.32-3.91-4.28-5.2-2.99-2.03-6.31-2.44-9.77-1.81-4.24.78-7.71,2.95-10.33,6.38-2.43,3.17-3.61,6.79-3.13,10.81.4,3.39,1.95,6.12,4.68,8.19,2.95,2.21,6.31,2.91,9.92,2.44,4.39-.59,7.86-2.77,10.51-6.27.62-.82,1.13-1.7,1.57-2.6.61,2.28,1.83,4.26,3.67,5.85,2.58,2.21,5.64,3.17,9,3.25.96-.11,1.96-.15,2.95-.33,3.43-.7,6.42-2.25,8.85-4.72,3.43-3.47,4.87-7.53,4.24-12.51ZM477.44,57.81c-1.95,1-3.98,1.1-6.01.22-2.66-1.18-4.06-4.09-3.39-6.97.81-3.47,3.02-5.64,6.45-6.42,3.51-.81,6.86,1.25,7.53,4.91.07.37.07.74.11,1.22-.18,3.17-1.77,5.53-4.69,7.05Z"/>
  </g>
  <path class="cls-4" d="M66.76,62.5c.24-.14.38-.39.38-.67s-.14-.53-.38-.67l-2.33-1.4c-.02-.24-.04-.48-.06-.72l2-1.81c.2-.19.3-.46.24-.73-.05-.27-.24-.49-.5-.58l-2.56-.92c-.07-.23-.12-.47-.2-.7l1.61-2.17c.16-.22.2-.51.09-.76-.1-.25-.34-.43-.61-.47l-2.69-.4c-.11-.21-.21-.43-.33-.64l1.16-2.45c.12-.25.1-.54-.06-.77-.15-.23-.38-.34-.69-.35l-2.72.13c-.15-.18-.29-.37-.44-.55l.66-2.64c.07-.27-.01-.55-.21-.74s-.47-.27-.74-.21l-2.64.66c-.18-.15-.36-.3-.55-.44l.13-2.72c.01-.27-.12-.54-.35-.69-.23-.15-.52-.17-.77-.05l-2.45,1.15c-.21-.11-.42-.22-.63-.33l-.4-2.69c-.04-.27-.22-.5-.47-.61-.25-.1-.54-.07-.76.09l-2.17,1.61c-.23-.07-.46-.13-.7-.2l-.92-2.56c-.09-.26-.31-.45-.58-.5-.27-.05-.55.04-.73.24l-1.81,2c-.24-.03-.48-.04-.72-.06l-1.4-2.33c-.28-.47-1.06-.47-1.34,0l-1.4,2.33c-.24.02-.48.03-.72.06l-1.81-2c-.19-.2-.46-.29-.73-.24-.27.05-.49.24-.58.5l-.92,2.56c-.23.07-.46.12-.69.2l-2.17-1.61c-.22-.16-.51-.2-.76-.09s-.43.33-.47.61l-.4,2.69c-.21.11-.42.21-.63.33l-2.45-1.15c-.25-.12-.54-.1-.77.05-.23.15-.36.41-.35.69l.13,2.72c-.18.15-.37.29-.55.44l-2.64-.66c-.27-.07-.55.01-.74.21-.19.19-.27.47-.21.74l.66,2.64c-.15.18-.3.36-.44.55l-2.72-.13c-.29,0-.54.12-.69.35-.15.23-.17.52-.06.77l1.15,2.45c-.11.21-.22.42-.33.64l-2.69.4c-.27.04-.5.22-.61.47-.1.25-.07.54.09.76l1.61,2.17c-.07.23-.13.46-.2.69l-2.56.92c-.26.09-.45.31-.5.58-.05.27.04.55.24.73l2,1.81c-.03.24-.04.48-.06.72l-2.33,1.4c-.24.14-.38.4-.38.67s.14.53.38.67l2.33,1.4c.02.24.04.48.06.72l-2,1.82c-.2.19-.29.46-.24.73.05.27.24.49.5.58l2.56.92c.07.23.12.46.2.69l-1.61,2.17c-.16.22-.2.51-.09.76.11.25.34.43.61.47l2.69.4c.11.21.21.43.33.64l-1.15,2.45c-.12.25-.1.54.06.77.14.22.39.35.65.35.01,0,.02,0,.04,0l2.72-.13c.15.18.29.37.44.55l-.66,2.64c-.07.27.01.55.21.74.15.15.35.23.55.23.06,0,.13,0,.19-.02l2.64-.66c.18.15.36.3.55.44l-.13,2.72c-.01.27.12.53.35.69.13.09.28.13.43.13.11,0,.23-.02.33-.08l2.45-1.16c.21.12.42.22.63.33l.4,2.69c.04.27.22.5.47.61.1.04.2.06.3.06.16,0,.33-.05.46-.15l2.17-1.61c.23.07.46.13.69.2l.92,2.55c.09.26.31.45.58.5.05,0,.1.01.15.01.22,0,.43-.09.58-.26l1.81-2c.24.02.48.04.72.06l1.4,2.33c.14.24.39.38.67.38s.53-.14.67-.38l1.4-2.33c.24-.02.48-.04.72-.06l1.81,2c.15.16.36.26.58.26.05,0,.1,0,.15-.01.27-.05.49-.24.58-.5l.91-2.55c.23-.07.47-.13.7-.2l2.17,1.61c.14.1.3.15.46.15.1,0,.2-.02.3-.06.26-.1.43-.34.47-.61l.4-2.69c.21-.11.42-.21.63-.33l2.45,1.16c.11.05.22.08.33.08.15,0,.3-.04.43-.13.23-.15.36-.41.35-.69l-.13-2.72c.18-.15.36-.29.55-.44l2.64.66c.06.01.13.02.19.02.2,0,.4-.08.55-.23.19-.19.27-.47.21-.74l-.66-2.64c.15-.18.3-.36.44-.55l2.72.13s.03,0,.04,0c.26,0,.5-.13.65-.35.15-.23.17-.52.06-.77l-1.16-2.45c.12-.21.22-.42.33-.64l2.69-.4c.27-.04.5-.22.61-.47.11-.25.07-.54-.09-.76l-1.61-2.17c.07-.23.13-.46.2-.7l2.56-.92c.26-.09.45-.31.5-.58.05-.27-.04-.55-.24-.73l-2-1.82c.03-.24.04-.48.06-.72l2.33-1.4ZM39.82,81.86c-3.08,0-5.99-.72-8.6-1.97l-.57-3.58c-.06-.41-.29-.77-.62-1.02-.34-.24-.75-.35-1.16-.28l-3.58.57c-.54-.57-1.04-1.16-1.5-1.79h16.29c.14,0,.26-.12.26-.26v-5.72c0-.14-.12-.26-.26-.26h-4.42v-3.64h4.94c2.8,0,3.31,2.48,3.86,5.11.49,2.35.99,4.78,3.43,4.78h7.96c-.47.63-.97,1.22-1.5,1.79l-3.58-.57c-.41-.07-.83.03-1.16.28-.34.25-.56.61-.62,1.02l-.57,3.58c-2.61,1.25-5.52,1.97-8.6,1.97M36.14,42.15l2.57,2.57c.29.29.69.46,1.1.46s.81-.16,1.1-.45l2.57-2.57c6,1.12,11.07,4.91,13.91,10.1l-1.66,3.25c-.19.37-.22.8-.09,1.19.13.39.41.72.78.91l3.24,1.65c.11.85.19,1.71.19,2.59,0,.53-.04,1.04-.08,1.56h-2c-.15,0-.26.12-.26.26v1.04c0,1.62-.77,2.66-2.05,2.79-1.08.09-2.39-.55-2.64-1.8-.41-2.09-1.86-3.99-2.81-4.65,3-1.77,4.31-4.36,3.6-7.18-.79-3.16-3.93-5.55-7.29-5.55h-21.24c2.88-3.13,6.72-5.34,11.06-6.15M45.02,56.36c0,.46-.24.9-.68,1.22-.52.39-1.28.6-2.18.6h-6.5v-3.64h6.5c1.97,0,2.86.94,2.86,1.82M23.21,57.59c.77-.39,1.08-1.33.68-2.1l-.48-.95h3.4v13.01h-6.18c-.54-1.81-.84-3.73-.84-5.72,0-.88.08-1.74.19-2.59l3.24-1.65Z"/>
  <path class="cls-4" d="M65.48,154.16s-.04-.1-.06-.14c-.01-.03-.03-.06-.04-.09-.01-.03-.02-.06-.03-.09-.04-.1-.07-.21-.13-.3h0s0,0,0,0c-.23-.4-.57-.74-.97-.97l-21.24-12.26c-.4-.23-.86-.36-1.32-.36s-.92.12-1.33.36l-21.24,12.26c-.82.47-1.32,1.35-1.32,2.3v24.53c0,.23.03.46.09.69,0,.01,0,.02.01.03,0,0,0,.01,0,.02.07.23.14.42.24.58.23.4.56.73.97.97l20.18,11.65,1.06.62c.4.23.86.35,1.33.35s.92-.12,1.33-.35l21.24-12.26c.4-.23.74-.57.97-.97.23-.4.35-.86.35-1.33v-24.53c0-.23-.03-.46-.09-.69ZM65.02,153.65h0s0,0,0,0ZM56.86,176.23h0c-.06.09-.11.17-.16.25-.27.43-.55.87-.85,1.27-.04.06-.09.11-.13.17-.03.04-.06.08-.1.11-.03.03-.06.07-.09.1-.06.08-.12.15-.18.23-.02.02-.04.05-.06.07h0s-.06.07-.06.07c-.07.09-.15.17-.22.26-.21.25-.42.5-.65.74-.05.06-.11.11-.16.17-.02.02-.03.03-.05.04-.02.02-.04.03-.05.05-.04.04-.08.08-.12.12-.03.03-.07.05-.1.08h0s-.03.02-.04.04c-.44.42-.91.8-1.39,1.16-.26.2-.51.4-.77.59-.61.42-1.24.79-1.89,1.13-.31.16-.63.29-.95.44-.45.2-.9.38-1.37.54-.32.11-.65.23-.98.32-.73.21-1.46.38-2.22.49-.07.01-.14.02-.21.03-.16.02-.32.03-.48.04-.11,0-.21,0-.32.02l-.27.02c-.42.04-.85.08-1.28.08-.4,0-.8-.04-1.18-.07-.11,0-.21-.02-.32-.03-.12,0-.23-.02-.35-.02-.16,0-.33-.02-.49-.04-.07,0-.14-.02-.21-.04-.69-.1-1.37-.26-2.04-.45-.38-.1-.75-.22-1.11-.35-.42-.15-.83-.31-1.24-.49-.36-.16-.73-.3-1.08-.49-.66-.34-1.31-.72-1.93-1.14-.3-.2-.57-.44-.85-.66-.44-.35-.89-.69-1.3-1.08-.02-.02-.04-.03-.05-.05h0s-.02-.01-.03-.02c-.04-.04-.09-.08-.13-.13-.02-.02-.05-.04-.07-.07-.03-.03-.06-.05-.09-.08l-.16-.17c-.21-.21-.4-.45-.59-.67-.08-.09-.15-.18-.23-.27l-.09-.11h0c-.06-.06-.12-.13-.17-.2-.04-.05-.09-.1-.13-.15-.05-.06-.11-.12-.15-.18-.03-.03-.05-.07-.08-.1-.34-.45-.64-.93-.92-1.39h0c-.05-.07-.1-.14-.14-.21-.05-.08-.1-.16-.15-.24-.04-.07-.08-.14-.12-.21-.03-.06-.06-.12-.09-.18h0c-.04-.09-.09-.17-.14-.26-.21-.4-.42-.8-.6-1.22-.03-.07-.06-.13-.09-.2-.01-.03-.02-.06-.03-.08,0-.03-.02-.05-.03-.08-.04-.09-.07-.18-.1-.27-.03-.08-.05-.16-.08-.23h0s-.05-.13-.05-.13c-.15-.39-.3-.8-.42-1.21-.02-.06-.03-.11-.05-.17,0-.04-.02-.08-.02-.12,0-.04-.01-.07-.02-.11-.03-.11-.05-.21-.08-.32-.03-.11-.04-.22-.07-.33h0c-.02-.11-.05-.23-.07-.34-.06-.28-.12-.56-.17-.84,0-.07-.02-.13-.03-.2-.03-.23-.04-.47-.05-.7,0-.13-.01-.25-.02-.38,0-.12-.02-.25-.03-.37-.03-.28-.05-.57-.05-.85,0-1.01.09-1.99.26-2.96,0-.03,0-.06.01-.09h.01c.64-3.68,2.41-7,5.1-9.62,2.7-2.62,6.08-4.29,9.79-4.82h0s.07-.02.11-.03c.79-.11,1.58-.17,2.4-.17.57,0,1.13.06,1.68.11h.03c.09.01.18.02.27.02.11,0,.23,0,.34.02.07,0,.14.02.21.03.74.11,1.46.27,2.17.47.35.1.69.22,1.03.34.43.15.85.32,1.26.5.35.15.7.3,1.04.48.56.29,1.11.62,1.64.97.35.23.67.48,1,.73.46.35.91.71,1.34,1.1.02.02.04.03.05.05h0s.03.02.05.04c.04.04.08.08.12.12.03.03.06.05.09.08.04.03.07.06.11.09.04.04.08.08.12.13.28.29.55.61.8.91l.11.13h0s0,0,0,0c.07.09.14.17.21.25.04.05.08.1.13.15.05.05.1.11.15.17.04.06.08.11.13.17.21.28.4.59.6.88.08.12.16.25.24.37h0c.05.08.12.16.17.24.05.08.1.16.15.25l-7.66,4.45c-1.58-2.7-4.49-4.38-7.61-4.38-4.86,0-8.82,3.95-8.82,8.81,0,1.53.41,3.05,1.18,4.39h0s0,0,0,0c1.57,2.72,4.5,4.42,7.63,4.42s6.06-1.69,7.63-4.42l7.3,4.19.39.22c-.03.06-.07.11-.1.17-.01.02-.03.04-.04.07ZM31.53,181.64s0,0,0,0c0,0,0,0,0,0ZM51.54,181.84s.02-.02.03-.02c-.01,0-.02.02-.03.02ZM39.18,149.69h0ZM24.28,164.14s0,0,0,0c0,0,0,0,0,0h0ZM51.78,152.7s0,0,0,0c0,0,0,0,0,0ZM46.84,184.1s-.02,0-.02,0c0,0,.02,0,.02,0ZM51.91,181.6s-.02.01-.03.02c0,0,.02-.01.03-.02Z"/>
  <path class="cls-2" d="M348.06,170.31l-4.4,3.12c-.73.52-1.47,1.02-2.19,1.56s-1.15,1.33-.81,2.25c.27.75.98,1.35,1.54,1.9s1.11,1.04,1.71,1.53c1.26,1.03,2.6,1.94,4.03,2.71,1.28.69,2.42-1.26,1.14-1.95-2.28-1.24-4.31-2.81-6.08-4.71-.02-.02-.17-.22-.2-.22-.03,0-.09.33-.05.34.08.04.8-.57.9-.64l1.79-1.27,3.77-2.68c.5-.35.73-.99.41-1.54-.29-.49-1.05-.76-1.54-.41h0Z"/>
  <path class="cls-2" d="M150.6,218.69c.92.31,1.83.65,2.73,1.03.45.19.9.4,1.35.61.1.05,1.21.66,1.24.64-.04.03-.12-.15-.12-.15,0,0-.12.51-.14.58-.12.49-.25.99-.37,1.48-.26,1.04-.52,2.08-.78,3.13-.35,1.41,1.82,2.01,2.18.6.29-1.18.59-2.36.88-3.54s.89-2.59-.02-3.63c-.35-.39-.82-.62-1.28-.84-.52-.25-1.04-.49-1.57-.72-1.15-.5-2.31-.95-3.49-1.36-.58-.2-1.23.23-1.39.79-.17.62.21,1.19.79,1.39h0Z"/>
  <path class="cls-2" d="M148.98,157.19c2.31,1.74,4.9,3.06,7.64,3.98l-.5-1.89c-2.13,2.52-4.26,5.04-6.39,7.56-.39.47-.46,1.14,0,1.6.4.4,1.2.47,1.6,0,2.13-2.52,4.26-5.04,6.39-7.56.56-.66.35-1.61-.5-1.89-2.56-.85-4.94-2.13-7.1-3.75-.49-.37-1.26-.08-1.54.41-.34.58-.08,1.18.41,1.54h0Z"/>
  <g>
    <path class="cls-3" d="M285.3,265.95c0,12.26,0,24.51,0,36.77,0,.12-.02.15-.15.17-12.26,1.78-24.52,3.57-36.78,5.36-.03-.05-.01-.11-.01-.16,0-12.19,0-24.38,0-36.58,0-.21-.03-.19.19-.22,4.63-.68,9.25-1.35,13.88-2.02.22-.03.23-.02.24.2.03,1.07.39,1.97,1.13,2.66.68.63,1.52.94,2.51.91,1.19-.03,2.26-.5,3.18-1.39.83-.81,1.3-1.77,1.46-2.86.03-.19.03-.38.03-.57,0-.17.03-.2.2-.22,4.66-.68,9.32-1.36,13.98-2.04.05,0,.09-.03.14,0Z"/>
    <path class="cls-5" d="M264.17,293.1c-.07.35-.14.68-.21,1.01-.56,2.66-1.12,5.32-1.67,7.98-.03.14-.08.2-.23.22-.72.1-1.44.2-2.15.31-.1.02-.14,0-.16-.11-.91-4.13-1.83-8.26-2.75-12.39-.03-.13,0-.15.13-.17.71-.1,1.43-.2,2.14-.31.11-.02.16,0,.18.12.54,2.81,1.08,5.61,1.62,8.41,0,.02.01.05.02.09.06-.07.06-.14.07-.2.64-2.95,1.29-5.89,1.93-8.84.03-.12.07-.16.18-.17.67-.09,1.33-.19,2-.29.11-.02.15,0,.17.11.58,2.82,1.17,5.64,1.75,8.46,0,.04.02.08.04.13.06-.03.05-.08.05-.12.61-3,1.23-5.99,1.84-8.99.02-.12.06-.18.19-.19.69-.09,1.38-.19,2.08-.3.15-.02.16.02.13.15-.58,2.5-1.16,5.01-1.74,7.51-.44,1.89-.87,3.78-1.31,5.67-.03.12-.07.18-.2.19-.71.1-1.42.2-2.12.31-.12.02-.15-.02-.18-.12-.58-2.8-1.16-5.59-1.75-8.39,0-.03,0-.07-.07-.1Z"/>
    <path class="cls-5" d="M276.25,287.16c.58-.09,1.17-.17,1.75-.26.13-.02.18.01.22.13,1.07,3.52,2.15,7.04,3.23,10.55.17.55.34,1.11.51,1.66.04.12,0,.15-.11.16-.74.1-1.48.21-2.22.32-.12.02-.17-.01-.2-.12-.24-.84-.5-1.67-.74-2.51-.03-.11-.07-.14-.19-.12-1.36.2-2.73.4-4.09.6-.12.02-.16.06-.19.18-.19.9-.38,1.8-.57,2.69-.03.12-.07.17-.19.18-.71.1-1.43.2-2.14.31-.13.02-.17,0-.13-.14.57-2.43,1.14-4.85,1.71-7.28.46-1.96.92-3.92,1.37-5.87.04-.17.1-.23.27-.26.57-.07,1.15-.16,1.72-.25Z"/>
    <path class="cls-6" d="M276.37,295.16c-.5.07-.99.14-1.49.22-.11.02-.16.02-.13-.13.34-1.55.67-3.1,1-4.66.03-.12.07-.16.18-.17.25-.03.49-.06.74-.11.11-.02.15,0,.18.11.35,1.35.71,2.7,1.07,4.05.03.1.05.21.09.31.03.1,0,.13-.11.14-.51.07-1.02.15-1.54.22Z"/>
  </g>
  <path class="cls-1" d="M391.71,300.95l-278.73,40.66c-6.6.96-11.99-3.65-11.99-10.24V60.54c0-6.6,5.4-12.78,11.99-13.74L391.71,6.14c6.6-.96,11.99,3.65,11.99,10.24v270.83c0,6.6-5.4,12.78-11.99,13.74Z"/>
  <path class="cls-2" d="M437.69,71.49c-5.37,10.35-13.83,18.71-23.04,25.73-9.98,7.61-20.89,13.9-31.79,20.07-6.32,3.57-12.85,7.41-20.22,8.16l1.06,2.56c4.02-4.61,8.62-8.68,13.66-12.15l-1.51-2.59c-5.05,3.51-10.1,7.01-15.15,10.52-1.12.78-2.38,1.68-2.8,3.05-.45,1.46.35,2.86,1.67,3.52,1.2.6,2.61.85,3.9,1.16,1.48.36,2.98.69,4.48.99,3.38.67,6.8,1.18,10.23,1.55.81.09,1.5-.75,1.5-1.5,0-.88-.69-1.41-1.5-1.5-5.32-.57-10.6-1.54-15.78-2.91-.41-.11-1.01-.25-1.32-.39-.09-.04-.42-.2-.39-.24,0,0,.07.07.06.1v.08c-.01.11-.01.11.02,0,.04-.01.47-.58.65-.74.46-.41,1-.74,1.51-1.09,2.24-1.55,4.47-3.11,6.71-4.66,2.58-1.79,5.15-3.58,7.73-5.37.66-.46.97-1.31.54-2.05-.39-.66-1.38-1-2.05-.54-5.24,3.62-10.07,7.82-14.26,12.62-.4.46-.56,1.06-.31,1.64.22.5.78.98,1.37.92,7.01-.72,13.3-3.83,19.36-7.23,5.61-3.14,11.2-6.33,16.69-9.66,10.65-6.47,21.15-13.59,29.85-22.58,4.6-4.76,8.68-10.08,11.73-15.96.37-.72.19-1.63-.54-2.05-.67-.39-1.68-.18-2.05.54h0Z"/>
  <path class="cls-2" d="M428.44,172.77c-11.33,1.03-22.67,1.91-34.03,2.41s-21.71.58-32.56.31c-6.57-.16-13.13-.46-19.69-.86-.81-.05-1.5.72-1.5,1.5,0,.85.69,1.45,1.5,1.5,11.37.69,22.77,1.07,34.16,1s21.7-.53,32.52-1.27c6.54-.45,13.07-.99,19.59-1.59.81-.07,1.5-.64,1.5-1.5,0-.75-.69-1.57-1.5-1.5h0Z"/>
  <path class="cls-2" d="M50.46,96.81c2.76,7.18,6.5,13.94,11,20.18,4.82,6.67,10.43,12.74,16.59,18.18,6.62,5.84,13.85,10.98,21.48,15.42,7.81,4.54,16.13,8.29,24.83,10.74s18.45,3.69,27.72,2.52c1.2-.15,2.39-.33,3.57-.55.8-.15,1.25-1.11,1.05-1.85-.23-.84-1.05-1.2-1.85-1.05-8.86,1.63-18.01.93-26.72-1.19s-16.8-5.49-24.52-9.76-14.66-8.98-21.22-14.5c-6.11-5.14-11.8-10.9-16.66-17.22-4.58-5.96-8.5-12.46-11.44-19.38-.27-.64-.64-1.57-.94-2.33s-1.01-1.28-1.85-1.05c-.72.2-1.34,1.08-1.05,1.85h0Z"/>
  <path class="cls-2" d="M71.43,44.01c2.21-1.07,4.04-1.82,6.35-2.68,2.48-.92,4.99-1.75,7.53-2.5,5.74-1.71,11.58-3.08,17.47-4.18,11.93-2.23,24.19-3.51,36.33-2.92,5.1.25,9.91.79,14.85,2.23,3.15.92,6.23,2.15,9.25,3.43,3.18,1.35,6.29,2.84,9.31,4.51,5.19,2.86,10.09,6.24,14.44,10.28,3.76,3.49,6.94,7.26,9.66,11.52,2.54,3.99,4.55,8.17,6.11,12.43s2.78,8.78,3.75,13.28c.23,1.08.45,2.16.66,3.25l2.2-1.69c-3.21-1.92-5.93-4.55-7.98-7.68l-2.36,1.82c3.2,2.96,5.97,6.32,8.27,10.03.58.93,2.03,1.01,2.59,0,2.18-3.92,4.35-7.84,6.53-11.75l.92-1.66c.94-1.69-1.65-3.2-2.59-1.51-2.18,3.92-4.35,7.84-6.53,11.75l-.92,1.66h2.59c-2.43-3.91-5.36-7.51-8.74-10.64-1.2-1.11-3.33.33-2.36,1.82,2.33,3.56,5.4,6.57,9.06,8.76,1.2.71,2.44-.46,2.2-1.69-1.79-9.28-4.42-18.46-9.06-26.74-5.41-9.64-13.4-17.47-22.73-23.33-6.03-3.79-12.55-6.79-19.22-9.26-2.52-.93-5.04-1.75-7.67-2.31s-5.24-.92-7.88-1.17c-12.22-1.18-24.69-.06-36.77,1.89-11.44,1.85-22.95,4.54-33.65,9.07-1.05.45-2.09.91-3.12,1.41-.73.35-.92,1.39-.54,2.05.44.75,1.32.89,2.05.54h0Z"/>
  <path class="cls-2" d="M79.19,299.28c8.27,2.84,16.9,4.61,25.61,5.35s17.6.42,26.3-.87c8.21-1.22,16.28-3.35,24.04-6.3s14.74-6.44,21.57-10.67c6.86-4.26,13.32-9.16,19.29-14.6.72-.66,1.44-1.33,2.15-2,.89-.85.26-2.68-1.06-2.56-3.02.27-5.89,1.03-8.65,2.28-.67.3-.89,1.25-.61,1.87.3.69,1.03,1.05,1.77.87,2.67-.66,5.24-1.62,7.7-2.84l-2.26-1.3c.17,2.3.34,4.6.52,6.9.06.81.65,1.5,1.5,1.5.76,0,1.56-.69,1.5-1.5-.17-2.3-.34-4.6-.52-6.9-.09-1.17-1.2-1.82-2.26-1.3-2.23,1.11-4.57,1.94-6.99,2.54l1.16,2.74c2.24-1.01,4.68-1.65,7.13-1.87l-1.06-2.56c-5.66,5.4-11.8,10.28-18.35,14.56s-13.47,7.96-20.69,10.91-15.38,5.38-23.39,6.8-16.96,2-25.47,1.53-16.94-1.96-25.08-4.48c-1.02-.32-2.03-.65-3.04-1-.77-.26-1.64.3-1.85,1.05-.23.82.28,1.58,1.05,1.85h0Z"/>
  <path class="cls-2" d="M431.61,285.76c-9.34,1.8-18.77,3.21-28.28,3.63s-18.66-.15-27.76-2.21-16.95-5.17-24.59-9.66c-3.89-2.29-7.61-4.85-11.23-7.54-3.37-2.5-6.7-5.07-9.85-7.86-5.6-4.95-11.3-11-12.75-18.55-.16-.86-.24-1.59-.28-2.51-.06-1.41-2.07-2.14-2.8-.76-.87,1.66-1.75,3.31-2.62,4.97l2.74,1.16c.61-2.15,1.22-4.3,1.82-6.45l-2.2.9,5.88,4.03c.67.46,1.66.13,2.05-.54.43-.74.13-1.59-.54-2.05-1.96-1.34-3.92-2.69-5.88-4.03-.81-.56-1.96.02-2.2.9-.61,2.15-1.22,4.3-1.82,6.45-.45,1.61,1.94,2.68,2.74,1.16.87-1.66,1.75-3.31,2.62-4.97l-2.8-.76c.34,8.19,5.47,15.08,11.13,20.6,3.11,3.03,6.49,5.76,9.93,8.4,3.65,2.8,7.35,5.52,11.22,8,7.72,4.95,16.12,8.71,24.98,11.1,9.27,2.5,18.88,3.49,28.47,3.34,9.83-.16,19.62-1.44,29.28-3.19,1.18-.21,2.36-.43,3.54-.66.8-.15,1.25-1.11,1.05-1.85-.23-.83-1.05-1.2-1.85-1.05h0Z"/>
  <path class="cls-2" d="M61.22,193.79c.25,3.55,2.69,6.17,5.16,8.49s5.28,4.58,8.12,6.61c5.69,4.07,11.84,7.58,18.2,10.5s13.04,5.26,19.94,6.62,14.05,1.86,21.11,1.42c7.89-.49,15.7-2.09,23.13-4.8.76-.28,1.27-1.02,1.05-1.85-.2-.73-1.08-1.33-1.85-1.05-12.64,4.62-26.45,6.01-39.75,3.9-13.41-2.14-26.07-7.86-37.35-15.3-3.08-2.03-6.04-4.23-8.82-6.67-1.35-1.19-2.71-2.41-3.89-3.77-1.01-1.15-1.94-2.55-2.05-4.11-.06-.81-.65-1.5-1.5-1.5-.77,0-1.56.69-1.5,1.5h0Z"/>
</svg>