<svg version="1.1" xmlns="http://www.w3.org/2000/svg" viewBox="0 0 310.1974764286556 301.13650601756945" width="620.3949528573112" height="602.2730120351389">
  <!-- svg-source:excalidraw -->
  
  <defs>
    <style class="style-fonts">
      @font-face {
        font-family: "Virgil";
        src: url("https://excalidraw.com/Virgil.woff2");
      }
      @font-face {
        font-family: "Cascadia";
        src: url("https://excalidraw.com/Cascadia.woff2");
      }
      @font-face {
        font-family: "Assistant";
        src: url("https://app.excalidraw.com//dist/excalidraw-assets/Assistant-Regular.woff2");
      }
    </style>
    
  </defs>
  <g stroke-linecap="round"><g transform="translate(186.38220588364925 197.25378434666072) rotate(0 31.958360447008204 -58.40665874798049)"><path d="M0 0 C20.87 -11.38, 37.86 -23.51, 63.67 -38.69 M63.67 -38.69 C64.27 -57.61, 63.73 -78.52, 63.92 -116.81" stroke="#000000" stroke-width="2.5" fill="none" stroke-dasharray="8 10"></path></g></g><mask></mask><g stroke-linecap="round"><g transform="translate(123.34279210831642 196.1108776895112) rotate(0 -31.958360447008204 -58.40665874798049)"><path d="M0 0 C-25.37 -14.5, -50.79 -30.62, -63.67 -38.69 M-63.67 -38.69 C-64.2 -59.05, -64.66 -77.91, -63.92 -116.81" stroke="#000000" stroke-width="2.5" fill="none" stroke-dasharray="8 10"></path></g></g><mask></mask><g stroke-linecap="round"><g transform="translate(255.9601473149296 65.77579291816119) rotate(0 -15.539036560348563 -20.11066622024225)" fill-rule="evenodd"><path d="M0.76 -0.37 L-29.69 -15.62 L-35.49 -23 L-36.1 -26.32 L-35.31 -30.62 L-34.18 -34.09 L-30.24 -35.38 L-27.8 -32.91 L-29.22 -37.18 L-27.08 -40.41 L-23.61 -39.47 L-21.36 -38.75 L-19.46 -34.84 L-17.74 -37.6 L-12.45 -36.18 L-7.19 -33.17 L-4.05 -30.18 L-3.51 -24.62 L-3.53 -19.26 L-0.09 -17.08 L3.2 -13.64 L4.46 -9.98 L4.45 -3.45 L3.41 -0.23 L-0.65 -0.98" stroke="none" stroke-width="0" fill="#ffffff" fill-rule="evenodd"></path><path d="M0 0 C-10.33 -5.65, -20.16 -10.43, -29.08 -15.53 M0 0 C-10.35 -5.06, -20.22 -10.48, -29.08 -15.53 M-29.08 -15.53 C-30.91 -17.48, -32.33 -19.72, -35.11 -22.16 M-29.08 -15.53 C-30.93 -17.79, -33.1 -20.08, -35.11 -22.16 M-35.11 -22.16 C-35.29 -23.14, -35.68 -24.33, -36.45 -26.69 M-35.11 -22.16 C-35.54 -23.52, -35.87 -24.77, -36.45 -26.69 M-36.45 -26.69 C-36.31 -28.51, -36.02 -30.24, -36.14 -31.43 M-36.45 -26.69 C-36.29 -27.84, -36.23 -28.99, -36.14 -31.43 M-36.14 -31.43 C-35.52 -32.21, -34.82 -33.27, -33.81 -34.67 M-36.14 -31.43 C-35.39 -32.67, -34.43 -33.72, -33.81 -34.67 M-33.81 -34.67 C-32.73 -34.96, -31.66 -35.31, -30.82 -35.54 M-33.81 -34.67 C-32.9 -34.88, -32.02 -35.28, -30.82 -35.54 M-30.82 -35.54 C-29.87 -35.21, -29.13 -34.54, -27.59 -33.79 M-30.82 -35.54 C-29.56 -34.8, -28.39 -34.24, -27.59 -33.79 M-27.59 -33.79 C-27.88 -34.98, -28.29 -36.16, -28.8 -37.71 M-27.59 -33.79 C-28.14 -35.2, -28.44 -36.83, -28.8 -37.71 M-28.8 -37.71 C-28.22 -38.36, -27.72 -38.88, -26.53 -40.22 M-28.8 -37.71 C-28.42 -38.17, -27.86 -38.69, -26.53 -40.22 M-26.53 -40.22 C-25.52 -40.09, -24.33 -39.66, -23.65 -39.44 M-26.53 -40.22 C-25.58 -39.97, -24.61 -39.67, -23.65 -39.44 M-23.65 -39.44 C-23.03 -39.19, -22.71 -38.83, -21.53 -37.95 M-23.65 -39.44 C-23.1 -39.03, -22.45 -38.66, -21.53 -37.95 M-21.53 -37.95 C-20.97 -36.97, -20.65 -35.95, -20.17 -35.11 M-21.53 -37.95 C-21.17 -37.22, -20.79 -36.51, -20.17 -35.11 M-20.17 -35.11 C-19.42 -35.47, -18.58 -35.97, -17.35 -36.65 M-20.17 -35.11 C-19.05 -35.63, -18.14 -36.24, -17.35 -36.65 M-17.35 -36.65 C-16.06 -36.29, -14.33 -36.17, -12.29 -36.14 M-17.35 -36.65 C-16.19 -36.59, -14.8 -36.29, -12.29 -36.14 M-12.29 -36.14 C-10.35 -35.12, -8.69 -34.14, -7.58 -33.81 M-12.29 -36.14 C-11.21 -35.6, -9.82 -34.91, -7.58 -33.81 M-7.58 -33.81 C-6.61 -32.65, -5.43 -31.15, -4.25 -29.49 M-7.58 -33.81 C-6.63 -32.56, -5.51 -31.38, -4.25 -29.49 M-4.25 -29.49 C-3.66 -27.52, -2.76 -25.31, -2.67 -24.09 M-4.25 -29.49 C-3.88 -28.06, -3.22 -26.49, -2.67 -24.09 M-2.67 -24.09 C-2.9 -22.66, -3.45 -20.96, -3.61 -18.55 M-2.67 -24.09 C-2.94 -22.26, -3.36 -20.59, -3.61 -18.55 M-3.61 -18.55 C-2.53 -18.38, -1.1 -17.87, 0.31 -17.35 M-3.61 -18.55 C-2.27 -18.1, -0.79 -17.74, 0.31 -17.35 M0.31 -17.35 C0.95 -16.65, 1.57 -15.71, 2.94 -14.28 M0.31 -17.35 C1.16 -16.18, 2.25 -15.24, 2.94 -14.28 M2.94 -14.28 C3.45 -13.29, 4.08 -12.1, 5.08 -9.99 M2.94 -14.28 C3.64 -12.55, 4.57 -11.15, 5.08 -9.99 M5.08 -9.99 C4.98 -8.52, 5.47 -7.13, 5.37 -4.27 M5.08 -9.99 C5.31 -8, 5.37 -5.91, 5.37 -4.27 M5.37 -4.27 C4.96 -3.27, 4.48 -2.4, 4.21 -1.13 M5.37 -4.27 C4.91 -3.13, 4.46 -1.97, 4.21 -1.13 M4.21 -1.13 C2.54 -0.9, 1.24 -0.27, 0 0 M4.21 -1.13 C3.36 -0.82, 2.54 -0.71, 0 0 M0 0 C0 0, 0 0, 0 0 M0 0 C0 0, 0 0, 0 0" stroke="#000000" stroke-width="2" fill="none"></path></g></g><mask></mask><g stroke-linecap="round"><g transform="translate(243.78865318689964 24.782865857019942) rotate(0 22.010043778076238 20.40035499096041)"><path d="M0 0 C-0.52 -4.48, 0.8 -9.58, 0 -14.78 M0 0 C0.21 -3.87, 0.04 -9.61, 0 -14.78 M0 -14.78 C14.57 -8.17, 27.27 -0.97, 44.02 10.91 M0 -14.78 C17.89 -4.83, 34.28 6.44, 44.02 10.91 M44.02 10.91 C44.31 26.25, 43.47 43.49, 42.9 55.58 M44.02 10.91 C43.93 25.67, 43.96 38.09, 42.9 55.58 M42.9 55.58 C39.44 52.5, 31.78 49.3, 21.29 42.57 M42.9 55.58 C37.94 52.94, 31.75 48.64, 21.29 42.57" stroke="#000000" stroke-width="2" fill="none"></path></g></g><mask></mask><g stroke-linecap="round"><g transform="translate(277.06160087389435 37.52897972708979) rotate(0 0 8.869718972847295)"><path d="M0 0 C0.41 4.46, -0.03 8.92, 0 17.74 M0 0 C0.01 6.21, 0.02 13.24, 0 17.74" stroke="#000000" stroke-width="2" fill="none"></path></g></g><mask></mask><g stroke-linecap="round"><g transform="translate(268.3196229956252 32.16772616713615) rotate(0 0 8.869718972847295)"><path d="M0 0 C0.05 5.19, 0.71 11.24, 0 17.74 M0 0 C0 6.62, 0.02 13.67, 0 17.74" stroke="#000000" stroke-width="2" fill="none"></path></g></g><mask></mask><g stroke-linecap="round"><g transform="translate(252.42790838474275 169.42038394039105) rotate(0 22.948844650582828 10.851063065219591)" fill-rule="evenodd"><path d="M-0.08 1.41 L-2.24 2.67 L1.05 45.71 L2.54 47.56 L45.35 22.73 L46.87 18.83 L46.96 -25.32 L47.76 -27.51 L44.97 -25.94 L1.52 0.63" stroke="none" stroke-width="0" fill="#ffffff" fill-rule="evenodd"></path><path d="M0 0 C-0.25 0.68, -0.69 1.24, -1.61 2.22 M0 0 C-0.32 0.54, -0.72 0.94, -1.61 2.22 M-1.61 2.22 C-1.27 12.38, -1.33 19.94, -0.67 46.28 M-1.61 2.22 C-0.81 19.31, -1.19 35.98, -0.67 46.28 M-0.67 46.28 C-0.13 46.87, 0.66 47.46, 1.34 48.07 M-0.67 46.28 C-0.23 46.81, 0.28 47.06, 1.34 48.07 M1.34 48.07 C15.08 41.19, 28.91 31.98, 46.31 21.7 M1.34 48.07 C13.35 41.41, 24.12 35.28, 46.31 21.7 M46.31 21.7 C46.58 21.18, 47.23 20.49, 47.43 20.02 M46.31 21.7 C46.62 21.32, 46.89 20.77, 47.43 20.02 M47.43 20.02 C48.8 5.33, 45.49 -8, 47.5 -24.28 M47.43 20.02 C46.77 7.57, 47.93 -4.21, 47.5 -24.28 M47.5 -24.28 C47.42 -24.66, 47.05 -25.19, 46.83 -25.62 M47.5 -24.28 C47.33 -24.6, 47.15 -24.87, 46.83 -25.62 M46.83 -25.62 C46.47 -25.67, 45.54 -26.1, 44.45 -26.36 M46.83 -25.62 C46.09 -25.95, 45.46 -26.2, 44.45 -26.36 M44.45 -26.36 C27.85 -16.26, 10.17 -4.43, 0 0 M44.45 -26.36 C31.06 -18.34, 19.38 -11.28, 0 0 M0 0 C0 0, 0 0, 0 0 M0 0 C0 0, 0 0, 0 0" stroke="#000000" stroke-width="2" fill="none"></path></g></g><mask></mask><g stroke-linecap="round"><g transform="translate(251.10024978635056 185.62426610929538) rotate(0 24.195351524919488 -13.777319600939222)"><path d="M0 0 C13.33 -7.28, 24.22 -14.46, 48.39 -27.55 M0 0 C13.49 -7.8, 27.13 -15.37, 48.39 -27.55" stroke="#000000" stroke-width="2" fill="none"></path></g></g><mask></mask><g stroke-linecap="round"><g transform="translate(251.44042802279682 200.73679133225892) rotate(0 24.195351524919488 -13.777319600939222)"><path d="M0 0 C14.41 -8.82, 30.78 -17.62, 48.39 -27.55 M0 0 C17.49 -9.77, 36.1 -20.47, 48.39 -27.55" stroke="#000000" stroke-width="2" fill="none"></path></g></g><mask></mask><g stroke-linecap="round"><g transform="translate(284.46506654703717 156.55655106600898) rotate(0 -1.4459599725171302 2.4502317632483255)" fill-rule="evenodd"><path d="M-0.25 -0.12 L-2.88 2.08 L-3.38 4.91 L0.2 3.81 L0.24 -0.09" stroke="none" stroke-width="0" fill="#ffffff" fill-rule="evenodd"></path><path d="M0 0 C-0.85 0.51, -1.59 0.95, -2.79 1.69 M0 0 C-0.91 0.58, -1.89 1.15, -2.79 1.69 M-2.79 1.69 C-2.74 2.42, -2.81 3.06, -2.89 4.9 M-2.79 1.69 C-2.84 2.65, -2.84 3.66, -2.89 4.9 M-2.89 4.9 C-1.83 4.3, -0.69 3.74, -0.07 3.34 M-2.89 4.9 C-2.15 4.53, -1.45 4.16, -0.07 3.34 M-0.07 3.34 C-0.07 2.48, -0.03 1.46, 0 0 M-0.07 3.34 C-0.09 2.11, 0 0.97, 0 0 M0 0 C0 0, 0 0, 0 0 M0 0 C0 0, 0 0, 0 0" stroke="#000000" stroke-width="2" fill="none"></path></g></g><mask></mask><g stroke-linecap="round"><g transform="translate(291.52056076406143 152.47369085253763) rotate(0 -1.4459599725171302 2.4502317632483255)" fill-rule="evenodd"><path d="M-0.09 0.39 L-3.28 1.7 L-2.62 5.36 L0.17 3.26 L0.48 0.63" stroke="none" stroke-width="0" fill="#ffffff" fill-rule="evenodd"></path><path d="M0 0 C-0.77 0.45, -1.64 0.93, -2.79 1.69 M0 0 C-1.09 0.65, -2.25 1.38, -2.79 1.69 M-2.79 1.69 C-2.8 2.81, -2.86 4.04, -2.89 4.9 M-2.79 1.69 C-2.81 2.74, -2.82 3.65, -2.89 4.9 M-2.89 4.9 C-2.15 4.54, -1.63 4.17, -0.07 3.34 M-2.89 4.9 C-2.16 4.54, -1.49 4.09, -0.07 3.34 M-0.07 3.34 C-0.05 2.09, 0.05 0.92, 0 0 M-0.07 3.34 C-0.01 2.28, 0 1.18, 0 0 M0 0 C0 0, 0 0, 0 0 M0 0 C0 0, 0 0, 0 0" stroke="#000000" stroke-width="2" fill="none"></path></g></g><mask></mask><g stroke-linecap="round"><g transform="translate(284.8288650389959 172.85376960979215) rotate(0 -1.4459599725171302 2.4502317632483255)" fill-rule="evenodd"><path d="M-0.49 0.01 L-2.52 2.16 L-2.65 4.81 L0.4 3.97 L0.3 0.01" stroke="none" stroke-width="0" fill="#ffffff" fill-rule="evenodd"></path><path d="M0 0 C-0.8 0.42, -1.59 1.11, -2.79 1.69 M0 0 C-0.84 0.53, -1.55 1, -2.79 1.69 M-2.79 1.69 C-2.82 2.67, -2.84 3.67, -2.89 4.9 M-2.79 1.69 C-2.78 2.61, -2.88 3.61, -2.89 4.9 M-2.89 4.9 C-2.16 4.45, -1.36 4.1, -0.07 3.34 M-2.89 4.9 C-1.99 4.37, -1.03 3.87, -0.07 3.34 M-0.07 3.34 C0.02 2.19, 0.01 0.77, 0 0 M-0.07 3.34 C-0.04 2.58, -0.03 1.86, 0 0 M0 0 C0 0, 0 0, 0 0 M0 0 C0 0, 0 0, 0 0" stroke="#000000" stroke-width="2" fill="none"></path></g></g><mask></mask><g stroke-linecap="round"><g transform="translate(291.88435925601925 168.7709093963208) rotate(0 -1.4459599725171302 2.4502317632483255)" fill-rule="evenodd"><path d="M0.27 0.46 L-2.55 1.6 L-2.42 5.53 L0.22 3.35 L-0.03 -0.38" stroke="none" stroke-width="0" fill="#ffffff" fill-rule="evenodd"></path><path d="M0 0 C-0.58 0.49, -1.38 0.85, -2.79 1.69 M0 0 C-0.73 0.5, -1.52 0.94, -2.79 1.69 M-2.79 1.69 C-2.8 2.43, -2.84 3.27, -2.89 4.9 M-2.79 1.69 C-2.86 2.93, -2.87 4.22, -2.89 4.9 M-2.89 4.9 C-2.1 4.51, -1.17 4.03, -0.07 3.34 M-2.89 4.9 C-1.84 4.33, -0.83 3.79, -0.07 3.34 M-0.07 3.34 C-0.03 2.26, -0.12 1.39, 0 0 M-0.07 3.34 C-0.03 2.26, -0.02 1.19, 0 0 M0 0 C0 0, 0 0, 0 0 M0 0 C0 0, 0 0, 0 0" stroke="#000000" stroke-width="2" fill="none"></path></g></g><mask></mask><g stroke-linecap="round"><g transform="translate(284.73061928169545 188.08186049218511) rotate(0 -1.4459599725171302 2.4502317632483255)" fill-rule="evenodd"><path d="M0.24 -0.09 L-2.32 2.32 L-2.6 4.91 L-0.1 2.96 L0.03 0.2" stroke="none" stroke-width="0" fill="#ffffff" fill-rule="evenodd"></path><path d="M0 0 C-0.62 0.41, -1.24 0.66, -2.79 1.69 M0 0 C-1.06 0.67, -2.17 1.3, -2.79 1.69 M-2.79 1.69 C-2.82 2.61, -2.75 3.53, -2.89 4.9 M-2.79 1.69 C-2.83 2.5, -2.85 3.2, -2.89 4.9 M-2.89 4.9 C-2.04 4.5, -1.18 3.96, -0.07 3.34 M-2.89 4.9 C-2.14 4.5, -1.46 4.14, -0.07 3.34 M-0.07 3.34 C-0.13 2.12, 0.01 0.81, 0 0 M-0.07 3.34 C-0.05 2.46, -0.06 1.49, 0 0 M0 0 C0 0, 0 0, 0 0 M0 0 C0 0, 0 0, 0 0" stroke="#000000" stroke-width="2" fill="none"></path></g></g><mask></mask><g stroke-linecap="round"><g transform="translate(291.78611349871926 183.99900027871377) rotate(0 -1.4459599725171302 2.4502317632483255)" fill-rule="evenodd"><path d="M0.48 0.63 L-2.5 1.7 L-2.92 4.52 L-0.04 3.54 L-0.12 0.01" stroke="none" stroke-width="0" fill="#ffffff" fill-rule="evenodd"></path><path d="M0 0 C-1.08 0.56, -2.02 1.35, -2.79 1.69 M0 0 C-1.04 0.61, -2.03 1.23, -2.79 1.69 M-2.79 1.69 C-2.73 2.66, -2.91 3.39, -2.89 4.9 M-2.79 1.69 C-2.83 2.65, -2.86 3.63, -2.89 4.9 M-2.89 4.9 C-1.79 4.3, -0.85 3.82, -0.07 3.34 M-2.89 4.9 C-2.12 4.5, -1.29 4.05, -0.07 3.34 M-0.07 3.34 C-0.01 2.59, -0.06 1.8, 0 0 M-0.07 3.34 C-0.07 2.2, -0.02 1.1, 0 0 M0 0 C0 0, 0 0, 0 0 M0 0 C0 0, 0 0, 0 0" stroke="#000000" stroke-width="2" fill="none"></path></g></g><mask></mask><g stroke-linecap="round"><g transform="translate(23.32456878124958 158.32157678888893) rotate(0 14.539165187460867 28.242133016029584)" fill-rule="evenodd"><path d="M0.82 0.43 L28.98 15.49 L31.37 20.77 L33.51 26.74 L35.35 52.81 L32.68 55.8 L28.5 56.35 L0.01 37.83 L-2.41 34.41 L-5.3 30.37 L-6.41 3.67 L-3.28 -0.23 L-1.05 -2.11" stroke="none" stroke-width="0" fill="#ffffff" fill-rule="evenodd"></path><path d="M0 0 C11.17 7.26, 20.29 11.75, 29.19 17.21 M0 0 C9.01 5.64, 18.41 11.04, 29.19 17.21 M29.19 17.21 C30.03 18.02, 31.46 19.38, 32.48 20.61 M29.19 17.21 C30.42 18.4, 31.85 19.87, 32.48 20.61 M32.48 20.61 C32.93 22.54, 33.66 24.08, 34.26 24.98 M32.48 20.61 C33.21 21.94, 33.38 23.01, 34.26 24.98 M34.26 24.98 C33.89 35.75, 35.2 45.16, 34.26 52.87 M34.26 24.98 C34.24 36.69, 34.09 47.39, 34.26 52.87 M34.26 52.87 C33.85 53.61, 33.79 54.19, 32.96 56.05 M34.26 52.87 C33.94 53.82, 33.61 54.96, 32.96 56.05 M32.96 56.05 C31.4 56.33, 30.4 56.5, 29.08 56.81 M32.96 56.05 C31.69 56.17, 30.43 56.72, 29.08 56.81 M29.08 56.81 C18.21 51.62, 6.6 44.43, -1.46 39.81 M29.08 56.81 C23 52.05, 14.16 49.49, -1.46 39.81 M-1.46 39.81 C-2.45 38.87, -3.39 36.52, -4.37 35.17 M-1.46 39.81 C-2.52 38.35, -3.51 36.47, -4.37 35.17 M-4.37 35.17 C-4.37 33.14, -4.62 31.2, -5.13 30.59 M-4.37 35.17 C-4.51 34.26, -4.75 33.08, -5.13 30.59 M-5.13 30.59 C-5.57 18.58, -4.05 7.92, -5.18 1.94 M-5.13 30.59 C-4.59 22.76, -4.81 17.04, -5.18 1.94 M-5.18 1.94 C-3.96 1.23, -3.28 0.68, -2.43 0 M-5.18 1.94 C-4.46 1.53, -3.6 1.03, -2.43 0 M-2.43 0 C-2.11 0.04, -1.95 -0.01, -1.03 -0.32 M-2.43 0 C-2.01 -0.11, -1.62 -0.24, -1.03 -0.32 M-1.03 -0.32 C-0.66 -0.23, -0.31 -0.07, 0 0 M-1.03 -0.32 C-0.67 -0.23, -0.42 -0.14, 0 0" stroke="#000000" stroke-width="2" fill="none"></path></g></g><mask></mask><g stroke-linecap="round"><g transform="translate(37.89071061036702 166.3059811167359) rotate(0 0 -4.855380609705776)"><path d="M0 0 C0.17 -2.13, 0.04 -4.55, 0 -9.71 M0 0 C-0.03 -2.92, 0.07 -5.69, 0 -9.71" stroke="#000000" stroke-width="2" fill="none"></path></g></g><mask></mask><g stroke-linecap="round"><g transform="translate(57.31222712221211 189.34206829816026) rotate(0 3.9097778999670254 10.445724255278833)"><path d="M0 0 C2.62 1.07, 5.06 2.51, 6.81 3.53 M0 0 C2.18 1.27, 4.37 2.08, 6.81 3.53 M6.81 3.53 C7.14 4.02, 7.22 4.49, 7.82 5.6 M6.81 3.53 C7.1 4.09, 7.31 4.55, 7.82 5.6 M7.82 5.6 C7.74 10.95, 8.14 16.88, 7.72 19.76 M7.82 5.6 C7.95 10.26, 7.84 14.63, 7.72 19.76 M7.72 19.76 C7.31 20.11, 6.74 20.53, 6.25 20.89 M7.72 19.76 C7.12 20.18, 6.54 20.65, 6.25 20.89 M6.25 20.89 C4.73 20.12, 3.42 19.23, 0.97 17.84 M6.25 20.89 C4.79 20.04, 3.2 19.08, 0.97 17.84" stroke="#000000" stroke-width="2" fill="none"></path></g></g><mask></mask><g stroke-linecap="round"><g transform="translate(10.177649135011961 162.7802152175493) rotate(180 3.9097778999670254 10.445724255278833)"><path d="M0 0 C2.14 1.03, 4.31 2.14, 6.81 3.53 M0 0 C2.18 0.91, 3.94 2.09, 6.81 3.53 M6.81 3.53 C7.04 4.1, 7.33 4.77, 7.82 5.6 M6.81 3.53 C7.13 4.17, 7.51 4.85, 7.82 5.6 M7.82 5.6 C8.19 11.5, 7.9 15.74, 7.72 19.76 M7.82 5.6 C7.97 8.71, 7.95 12.13, 7.72 19.76 M7.72 19.76 C7.28 20.11, 6.91 20.45, 6.25 20.89 M7.72 19.76 C7.13 20.19, 6.57 20.66, 6.25 20.89 M6.25 20.89 C5.17 20.27, 3.57 19.62, 0.43 17.54 M6.25 20.89 C3.95 19.47, 1.67 18.3, 0.43 17.54" stroke="#000000" stroke-width="2" fill="none"></path></g></g><mask></mask><g stroke-linecap="round"><g transform="translate(44.60802918188983 197.78927698659777) rotate(0 2.8357606034786613 3.272766798755356)" fill-rule="evenodd"><path d="M-0.18 0.54 L5.23 2.86 L5.05 7.15 L0.51 3.05 L-0.23 0.08" stroke="none" stroke-width="0" fill="#ffffff" fill-rule="evenodd"></path><path d="M0 0 C1.36 0.75, 2.66 1.68, 5.57 3.34 M0 0 C2.09 1.31, 4.3 2.68, 5.57 3.34 M5.57 3.34 C5.55 4.37, 5.65 5.32, 5.67 6.55 M5.57 3.34 C5.65 4.47, 5.68 5.63, 5.67 6.55 M5.67 6.55 C4.02 5.46, 2.12 4.75, 0.07 3.34 M5.67 6.55 C3.86 5.53, 1.98 4.52, 0.07 3.34 M0.07 3.34 C0.16 2.44, 0.13 1.5, 0 0 M0.07 3.34 C0.05 2.63, 0 1.86, 0 0 M0 0 C0 0, 0 0, 0 0 M0 0 C0 0, 0 0, 0 0" stroke="#000000" stroke-width="2" fill="none"></path></g></g><mask></mask><g stroke-linecap="round"><g transform="translate(34.80428563009059 192.30268754834856) rotate(0 2.8357606034786613 3.272766798755356)" fill-rule="evenodd"><path d="M-0.34 -0.47 L4.95 3.94 L6.11 6.26 L-0.16 3.42 L0.38 -0.06" stroke="none" stroke-width="0" fill="#ffffff" fill-rule="evenodd"></path><path d="M0 0 C1.52 1, 3.24 1.99, 5.57 3.34 M0 0 C1.3 0.88, 2.66 1.54, 5.57 3.34 M5.57 3.34 C5.62 4.34, 5.69 5.19, 5.67 6.55 M5.57 3.34 C5.65 4.15, 5.63 5.01, 5.67 6.55 M5.67 6.55 C3.35 5.43, 1.42 4.14, 0.07 3.34 M5.67 6.55 C4.12 5.76, 2.52 4.78, 0.07 3.34 M0.07 3.34 C0.14 2.25, -0.07 1.24, 0 0 M0.07 3.34 C0.01 2.4, 0.06 1.5, 0 0 M0 0 C0 0, 0 0, 0 0 M0 0 C0 0, 0 0, 0 0" stroke="#000000" stroke-width="2" fill="none"></path></g></g><mask></mask><g stroke-linecap="round"><g transform="translate(25.586229441711566 186.57330643649493) rotate(0 2.8357606034786613 3.272766798755356)" fill-rule="evenodd"><path d="M-0.62 0.6 L6.01 3.05 L5.44 6.63 L0.45 3.28 L0.06 -0.49" stroke="none" stroke-width="0" fill="#ffffff" fill-rule="evenodd"></path><path d="M0 0 C1.72 1.07, 2.94 1.69, 5.57 3.34 M0 0 C1.7 0.95, 3.4 1.97, 5.57 3.34 M5.57 3.34 C5.67 4.51, 5.6 5.8, 5.67 6.55 M5.57 3.34 C5.61 4.25, 5.68 5.12, 5.67 6.55 M5.67 6.55 C4.42 5.88, 2.98 5.12, 0.07 3.34 M5.67 6.55 C3.72 5.47, 1.84 4.47, 0.07 3.34 M0.07 3.34 C-0.05 2.32, 0 1.37, 0 0 M0.07 3.34 C0.08 2.18, 0.05 0.94, 0 0 M0 0 C0 0, 0 0, 0 0 M0 0 C0 0, 0 0, 0 0" stroke="#000000" stroke-width="2" fill="none"></path></g></g><mask></mask><g stroke-linecap="round"><g transform="translate(47.11338432632965 183.12398014928954) rotate(0 -1.4278713612675347 3.3195873091329986)" fill-rule="evenodd"><path d="M0.09 0.51 L2.53 2.81 L2.37 5.76 L2.07 7.97 L-0.11 7.84 L-2.52 7.15 L-5.17 5.01 L-4.95 3.25 L-5.29 -0.04 L-4.79 -1.41 L-2.27 -0.9" stroke="none" stroke-width="0" fill="#ffffff" fill-rule="evenodd"></path><path d="M0 0 C0.62 0.78, 1.37 1.69, 2.01 2.55 M0 0 C0.76 0.95, 1.57 1.96, 2.01 2.55 M2.01 2.55 C2.11 3.62, 2.25 4.62, 2.37 5.34 M2.01 2.55 C2.16 3.39, 2.2 4.17, 2.37 5.34 M2.37 5.34 C2.12 6.28, 1.93 7.15, 1.7 7.85 M2.37 5.34 C2.11 6.35, 1.85 7.32, 1.7 7.85 M1.7 7.85 C1.09 7.91, 0.55 7.93, -0.73 8.13 M1.7 7.85 C0.99 7.94, 0.27 8.06, -0.73 8.13 M-0.73 8.13 C-1.49 7.86, -2.14 7.57, -2.81 7.33 M-0.73 8.13 C-1.38 7.87, -2.02 7.69, -2.81 7.33 M-2.81 7.33 C-3.42 6.65, -4.07 5.88, -4.53 5.34 M-2.81 7.33 C-3.16 6.85, -3.63 6.46, -4.53 5.34 M-4.53 5.34 C-4.76 4.73, -4.98 3.92, -5.23 3.1 M-4.53 5.34 C-4.78 4.56, -5.03 3.71, -5.23 3.1 M-5.23 3.1 C-5.17 2.07, -5.16 1.05, -5.22 0.54 M-5.23 3.1 C-5.22 2.53, -5.23 1.91, -5.22 0.54 M-5.22 0.54 C-4.93 -0.27, -4.57 -1.03, -4.42 -1.47 M-5.22 0.54 C-5.01 0.02, -4.83 -0.42, -4.42 -1.47 M-4.42 -1.47 C-3.47 -1.47, -2.65 -1.44, -2.02 -1.49 M-4.42 -1.47 C-3.8 -1.45, -3.13 -1.45, -2.02 -1.49 M-2.02 -1.49 C-1.58 -1.11, -1.23 -0.78, 0 0 M-2.02 -1.49 C-1.4 -1.03, -0.79 -0.58, 0 0" stroke="#000000" stroke-width="2" fill="none"></path></g></g><mask></mask><g stroke-linecap="round"><g transform="translate(31.997769311068623 174.6030993235288) rotate(0 -1.4278713612675347 3.3195873091329986)" fill-rule="evenodd"><path d="M0.51 0.26 L2.01 2.97 L2.74 5.46 L2.33 7.56 L-0.44 7.94 L-3.45 7 L-4.26 5.49 L-5.3 2.53 L-5.59 0.59 L-4.67 -0.88 L-1.66 -1.51" stroke="none" stroke-width="0" fill="#ffffff" fill-rule="evenodd"></path><path d="M0 0 C0.76 0.94, 1.59 1.92, 2.01 2.55 M0 0 C0.54 0.65, 1.04 1.31, 2.01 2.55 M2.01 2.55 C2.09 3.41, 2.21 4.13, 2.37 5.34 M2.01 2.55 C2.12 3.51, 2.31 4.56, 2.37 5.34 M2.37 5.34 C2.18 6.19, 1.99 7, 1.7 7.85 M2.37 5.34 C2.16 6.15, 1.94 6.85, 1.7 7.85 M1.7 7.85 C1.11 7.86, 0.43 8.03, -0.73 8.13 M1.7 7.85 C0.83 7.99, -0.08 8.06, -0.73 8.13 M-0.73 8.13 C-1.32 7.88, -1.96 7.64, -2.81 7.33 M-0.73 8.13 C-1.56 7.85, -2.29 7.5, -2.81 7.33 M-2.81 7.33 C-3.27 6.82, -3.78 6.36, -4.53 5.34 M-2.81 7.33 C-3.21 6.94, -3.53 6.53, -4.53 5.34 M-4.53 5.34 C-4.8 4.45, -4.99 3.7, -5.23 3.1 M-4.53 5.34 C-4.74 4.63, -4.95 3.93, -5.23 3.1 M-5.23 3.1 C-5.17 2.4, -5.29 1.79, -5.22 0.54 M-5.23 3.1 C-5.24 2.42, -5.19 1.7, -5.22 0.54 M-5.22 0.54 C-4.89 -0.2, -4.69 -0.92, -4.42 -1.47 M-5.22 0.54 C-5.02 0.05, -4.8 -0.44, -4.42 -1.47 M-4.42 -1.47 C-3.76 -1.43, -3.04 -1.46, -2.02 -1.49 M-4.42 -1.47 C-3.49 -1.45, -2.67 -1.48, -2.02 -1.49 M-2.02 -1.49 C-1.49 -0.98, -0.82 -0.55, 0 0 M-2.02 -1.49 C-1.55 -1.14, -1 -0.71, 0 0" stroke="#000000" stroke-width="2" fill="none"></path></g></g><mask></mask><g stroke-linecap="round"><g transform="translate(30.865513231122577 69.37915554452229) rotate(0 18.871362999482017 -24.005649515600794)"><path d="M0 0 C0.74 -6.14, -0.62 -12.36, -0.23 -26.24 M0 0 C0.14 -6.32, -0.3 -13.44, -0.23 -26.24 M-0.23 -26.24 C14.15 -34.56, 29.16 -41.93, 37.97 -48.01 M-0.23 -26.24 C12.42 -32.95, 24.6 -40.21, 37.97 -48.01 M37.97 -48.01 C38.2 -45.97, 37.88 -43.7, 37.79 -41.67 M37.97 -48.01 C37.81 -45.63, 37.76 -43.03, 37.79 -41.67" stroke="#000000" stroke-width="2" fill="none"></path></g></g><mask></mask><g stroke-linecap="round"><g transform="translate(80.4956222063172 27.704397397972798) rotate(0 -9.445314992130761 22.022247164321243)" fill-rule="evenodd"><path d="M0.58 -0.39 L0.94 1.84 L0.66 32.75 L0.67 34.84 L-18.45 44.31 L-18.85 42.71 L-18.81 11.87 L-17.92 11.62 L-0.08 -0.25" stroke="none" stroke-width="0" fill="#ffffff" fill-rule="evenodd"></path><path d="M0 0 C0.16 0.31, 0.35 0.67, 0.67 1.12 M0 0 C0.22 0.34, 0.46 0.71, 0.67 1.12 M0.67 1.12 C1.23 13.54, 0.86 23.64, 0.64 32.09 M0.67 1.12 C0.94 7.98, 0.94 15.28, 0.64 32.09 M0.64 32.09 C0.39 32.71, 0.21 33.31, -0.24 34.1 M0.64 32.09 C0.27 32.85, -0.05 33.68, -0.24 34.1 M-0.24 34.1 C-3.47 36.76, -8.23 39.36, -17.57 44.04 M-0.24 34.1 C-7.06 37.73, -13.85 42.08, -17.57 44.04 M-17.57 44.04 C-17.84 43.59, -18.33 43.14, -18.8 42.6 M-17.57 44.04 C-18.07 43.48, -18.51 42.91, -18.8 42.6 M-18.8 42.6 C-19.84 34.36, -19.8 23.19, -19.56 12.66 M-18.8 42.6 C-18.75 31.59, -18.97 20.61, -19.56 12.66 M-19.56 12.66 C-19.4 12.42, -19.21 12.21, -18.82 11.51 M-19.56 12.66 C-19.36 12.32, -19.12 11.96, -18.82 11.51 M-18.82 11.51 C-15.39 9.23, -10.7 6.64, -0.88 0.25 M-18.82 11.51 C-12.79 7.78, -7.54 4.53, -0.88 0.25 M-0.88 0.25 C-0.67 0.2, -0.45 0.13, 0 0 M-0.88 0.25 C-0.6 0.18, -0.32 0.08, 0 0" stroke="#000000" stroke-width="2" fill="none"></path></g></g><mask></mask><g stroke-linecap="round"><g transform="translate(54.372458645030065 59.0255631305447) rotate(0 -14.517895407674132 10.704182752929)" fill-rule="evenodd"><path d="M0.95 -0.91 L-28.67 16.42 L-30.64 22.06 L0.63 5.47 L1.32 -0.16" stroke="none" stroke-width="0" fill="#ffffff" fill-rule="evenodd"></path><path d="M0 0 C-9.43 5.81, -17.61 10.8, -29.66 17.06 M0 0 C-10.25 5.92, -20.89 12.13, -29.66 17.06 M-29.66 17.06 C-29.61 18.24, -29.83 19.82, -29.7 21.41 M-29.66 17.06 C-29.63 18.54, -29.67 20.02, -29.7 21.41 M-29.7 21.41 C-20.67 16.89, -12.64 12, 0.63 4.79 M-29.7 21.41 C-23.01 18.05, -16.59 14.08, 0.63 4.79 M0.63 4.79 C0.59 3.33, 0.86 1.64, 0.66 0 M0.63 4.79 C0.64 3.38, 0.63 1.91, 0.66 0 M0.66 0 C0.46 -0.03, 0.33 0.02, 0 0 M0.66 0 C0.5 0, 0.32 -0.01, 0 0" stroke="#000000" stroke-width="2" fill="none"></path></g></g><mask></mask><g stroke-linecap="round"><g transform="translate(150.69555491615847 118.525012709576) rotate(0 3.553665735283289 72.62946241116515)" fill-rule="evenodd"><path d="M0.15 -1.41 L-7.03 3.91 L-53.41 32.85 L-60.7 35.19 L-62.55 39.97 L-62.28 101.45 L-61.99 104.01 L-59.89 108.15 L-56.98 111.34 L-30.07 125 L-4.36 144.67 L1.35 146.2 L5.31 147.12 L13.07 140.85 L59.75 115.78 L67.52 110.32 L67.57 106.62 L68.2 37.36 L64.43 35.08 L59.61 30.25 L17.18 4.31 L9.04 -1.95 L3.94 -2.49 L1.38 0.08" stroke="none" stroke-width="0" fill="#00bc8e" fill-rule="evenodd"></path><path d="M0 0 C-1.67 1.44, -3.24 1.89, -6.23 3.38 M0 0 C-1.3 0.84, -3.14 1.91, -6.23 3.38 M-6.23 3.38 C-26.05 15.12, -42.34 25.54, -53.93 31.56 M-6.23 3.38 C-19.29 12.27, -32.95 19.3, -53.93 31.56 M-53.93 31.56 C-55.02 32.32, -57.82 33.53, -59.46 35.17 M-53.93 31.56 C-55.73 32.61, -56.92 33.85, -59.46 35.17 M-59.46 35.17 C-59.56 36.39, -60.29 37.29, -60.69 38.33 M-59.46 35.17 C-59.79 35.94, -60.11 36.84, -60.69 38.33 M-60.69 38.33 C-59.32 54.89, -62 68.11, -60.69 99.65 M-60.69 38.33 C-60.26 56.72, -59.39 75.69, -60.69 99.65 M-60.69 99.65 C-60.32 102.17, -60.3 105.11, -60.69 105.97 M-60.69 99.65 C-60.95 101.65, -60.65 103.31, -60.69 105.97 M-60.69 105.97 C-60.24 107.3, -59.64 107.81, -59.46 109.4 M-60.69 105.97 C-60.43 107.12, -59.97 108.45, -59.46 109.4 M-59.46 109.4 C-58.26 110.91, -57.45 111.85, -55.86 113 M-59.46 109.4 C-58.56 110.22, -57.57 111.23, -55.86 113 M-55.86 113 C-47.22 119.24, -38.66 122.38, -31.79 126.79 M-55.86 113 C-46.7 117.65, -38.43 123.67, -31.79 126.79 M-31.79 126.79 C-22.05 129.62, -14.83 136.11, -4.76 142.79 M-31.79 126.79 C-22.35 132.1, -14.04 136.48, -4.76 142.79 M-4.76 142.79 C-3.56 143.89, -1.04 145.27, 1.01 146.21 M-4.76 142.79 C-2.63 143.97, -0.54 144.93, 1.01 146.21 M1.01 146.21 C2.26 146.25, 4.04 145.84, 5.28 145.68 M1.01 146.21 C1.84 146.29, 2.96 145.98, 5.28 145.68 M5.28 145.68 C7.07 145.34, 8.44 144.61, 12.12 142.47 M5.28 145.68 C6.84 145.17, 8.71 143.96, 12.12 142.47 M12.12 142.47 C24.88 136.12, 39.47 125.26, 60.21 114.47 M12.12 142.47 C22.91 135.1, 34.68 129.99, 60.21 114.47 M60.21 114.47 C62.49 112.43, 63.99 111.5, 66.41 110.2 M60.21 114.47 C61.34 113.57, 63.1 112.64, 66.41 110.2 M66.41 110.2 C66.89 109.43, 67.09 108.35, 67.8 107.42 M66.41 110.2 C66.84 109.34, 67.45 108.52, 67.8 107.42 M67.8 107.42 C69.31 82.17, 66.54 52.8, 67.8 38.92 M67.8 107.42 C68.3 89.12, 69.11 70.29, 67.8 38.92 M67.8 38.92 C67.83 38.18, 66.64 36.73, 65.88 34.75 M67.8 38.92 C67.38 37.99, 66.94 36.78, 65.88 34.75 M65.88 34.75 C64.3 34.21, 63.17 32.97, 61.18 31.22 M65.88 34.75 C64.38 33.31, 62.64 32.68, 61.18 31.22 M61.18 31.22 C42.39 19.25, 24.08 11.33, 16.4 4.93 M61.18 31.22 C50.83 26.02, 42.47 19.11, 16.4 4.93 M16.4 4.93 C15.51 4.91, 12.69 2.73, 8.17 0.01 M16.4 4.93 C14.56 4.04, 12.71 2.44, 8.17 0.01 M8.17 0.01 C6.39 -0.7, 5.27 -0.27, 3.56 -0.96 M8.17 0.01 C6.87 -0.44, 5.83 -0.41, 3.56 -0.96 M3.56 -0.96 C2.42 -0.39, 0.9 -0.31, 0 0 M3.56 -0.96 C2.08 -0.6, 0.8 -0.2, 0 0 M0 0 C0 0, 0 0, 0 0 M0 0 C0 0, 0 0, 0 0" stroke="#000000" stroke-width="2" fill="none"></path></g></g><mask></mask><g stroke-linecap="round" transform="translate(106.03795258886566 188.09105949471927) rotate(0 47.806002784174325 27.673920567970185)"><path d="M46.13 1.81 L96.93 27.13 L47.3 55.59 L1.14 27.81" stroke="none" stroke-width="0" fill="#e5f2ff" fill-rule="evenodd"></path><path d="M48 0 C66.87 9.74, 82.45 22.01, 95.61 28 M48 0 C61.38 8.33, 75.37 15.71, 95.61 28 M95.61 28 C84.71 35.5, 72.38 42.01, 48 55.35 M95.61 28 C78.97 37.85, 63.05 48.12, 48 55.35 M48 55.35 C32.16 46.35, 19.32 38.85, 0 28 M48 55.35 C31.4 46.25, 14.16 35.62, 0 28 M0 28 C17.59 17.31, 34.25 7.08, 48 0 M0 28 C15.6 19.58, 31.18 8.82, 48 0" stroke="transparent" stroke-width="2" fill="none"></path></g><g stroke-linecap="round"><g transform="translate(106.52662564128582 167.39572740911967) rotate(0 23.9480455279853 9.485527122821509)" fill-rule="evenodd"><path d="M0.27 1.52 L1.54 48.99 L47.55 22.87 L48.99 -28.9 L37.18 -22.6 L36.33 23.92 L18.42 32.4 L20.91 -10.4 L18.34 -13.8 L0.13 -1.88" stroke="none" stroke-width="0" fill="#b8c2cc" fill-rule="evenodd"></path><path d="M0 0 C-0.61 18.77, -0.19 35.94, 0 48.22 M0 0 C0.86 14.5, -0.62 27.82, 0 48.22 M0 48.22 C16.55 39.25, 34.92 29.09, 47.56 21.61 M0 48.22 C18.53 38.86, 36.73 28.53, 47.56 21.61 M47.56 21.61 C47.67 8.78, 49.29 -5, 47.9 -29.25 M47.56 21.61 C47.82 6.15, 48.27 -8.1, 47.9 -29.25 M47.9 -29.25 C42.72 -26.59, 39.66 -24.33, 35.31 -21.73 M47.9 -29.25 C43.7 -27.4, 39.6 -23.94, 35.31 -21.73 M35.31 -21.73 C35.4 -3.67, 35.02 12.27, 35.45 24.47 M35.31 -21.73 C36.77 -11.92, 34.87 -0.18, 35.45 24.47 M35.45 24.47 C30.7 28.61, 25.96 28.24, 20.35 33.39 M35.45 24.47 C29.93 28.49, 24.66 31.16, 20.35 33.39 M20.35 33.39 C21.33 15.23, 21.36 -2.54, 20.09 -10.84 M20.35 33.39 C20.65 23.75, 20.32 12.93, 20.09 -10.84 M20.09 -10.84 C19.45 -11.4, 19.01 -11.85, 18.55 -12.08 M20.09 -10.84 C19.77 -11.24, 19.38 -11.42, 18.55 -12.08 M18.55 -12.08 C13.2 -8.24, 4.58 -3.39, 1.23 -2.04 M18.55 -12.08 C14.07 -8.67, 10.44 -5.97, 1.23 -2.04 M1.23 -2.04 C1 -1.43, 0.53 -0.96, 0 0 M1.23 -2.04 C0.84 -1.44, 0.38 -0.85, 0 0" stroke="transparent" stroke-width="2" fill="none"></path></g></g><mask></mask><g stroke-linecap="round"><g transform="translate(201.95314391878856 167.51242787698493) rotate(0 -24.05683252222059 9.786916258760016)" fill-rule="evenodd"><path d="M1.54 0.77 L-0.01 50.08 L-47.02 21.35 L-46.03 -30.12 L-34.44 -22.28 L-37.38 23.49 L-19.53 33.83 L-20.3 -12.55 L-19.65 -11.93 L-1.98 -0.28" stroke="none" stroke-width="0" fill="#f4f7fa" fill-rule="evenodd"></path><path d="M0 0 C-0.69 15.25, -0.29 27.59, 0 48.82 M0 0 C-0.21 16.69, 1.01 35.18, 0 48.82 M0 48.82 C-15.28 39.79, -30.62 29.6, -48.11 21 M0 48.82 C-14.83 41.64, -30.01 31.46, -48.11 21 M-48.11 21 C-46.8 6.35, -47.88 -4.57, -47.9 -29.25 M-48.11 21 C-47.5 3.37, -47.69 -16.14, -47.9 -29.25 M-47.9 -29.25 C-43.78 -27.29, -40.46 -25.2, -35.31 -21.73 M-47.9 -29.25 C-43.81 -25.62, -37.84 -23.73, -35.31 -21.73 M-35.31 -21.73 C-35.49 -9.31, -36.81 4.66, -35.45 24.47 M-35.31 -21.73 C-35.83 -11.42, -34.91 -1.74, -35.45 24.47 M-35.45 24.47 C-30.43 25.93, -23.28 30.84, -20.35 33.39 M-35.45 24.47 C-30.33 27.36, -24.97 30.8, -20.35 33.39 M-20.35 33.39 C-19.04 20.85, -21.87 10.25, -20.09 -10.84 M-20.35 33.39 C-20.58 21.66, -19.33 9.2, -20.09 -10.84 M-20.09 -10.84 C-19.43 -11.33, -19.1 -11.78, -18.55 -12.08 M-20.09 -10.84 C-19.69 -11.11, -19.26 -11.41, -18.55 -12.08 M-18.55 -12.08 C-14.38 -7.99, -9.1 -5.66, -1.23 -2.04 M-18.55 -12.08 C-11.2 -7.72, -6.54 -4.45, -1.23 -2.04 M-1.23 -2.04 C-1.05 -1.23, -0.48 -0.65, 0 0 M-1.23 -2.04 C-1.03 -1.59, -0.6 -0.92, 0 0" stroke="transparent" stroke-width="2" fill="none"></path></g></g><mask></mask><g stroke-linecap="round"><g transform="translate(107.83540205186023 165.03113438148785) rotate(0 46.13585506876075 25.68954541439905)"><path d="M0 0 C-0.36 0.53, -0.61 1.19, -0.93 1.38 M0 0 C-0.26 0.46, -0.58 0.86, -0.93 1.38 M-0.93 1.38 C0.81 17.03, -0.98 34.16, -1.49 49.67 M-0.93 1.38 C-1.72 19.66, -1.79 39.32, -1.49 49.67 M-1.49 49.67 C-1.32 50.37, -1.02 50.96, -0.96 51.78 M-1.49 49.67 C-1.28 50.27, -1.18 50.81, -0.96 51.78 M-0.96 51.78 C13.14 59.39, 28.73 66.98, 44.99 78.3 M-0.96 51.78 C9.97 56.99, 19.47 63.62, 44.99 78.3 M44.99 78.3 C45.76 78.45, 46.7 78.35, 47.74 78 M44.99 78.3 C45.64 78.3, 46.38 78.12, 47.74 78 M47.74 78 C66 68.43, 82.01 58.51, 92.43 51.64 M47.74 78 C65.58 68.66, 81.22 58.5, 92.43 51.64 M92.43 51.64 C92.59 51.03, 93 50.8, 93.76 49.9 M92.43 51.64 C93.02 50.96, 93.49 50.32, 93.76 49.9 M93.76 49.9 C92.25 37.15, 92.34 26.43, 93.5 1.55 M93.76 49.9 C94.34 40.26, 93.47 30.56, 93.5 1.55 M93.5 1.55 C93.07 0.86, 93.04 0.02, 92.4 -0.99 M93.5 1.55 C92.95 0.67, 92.67 -0.28, 92.4 -0.99 M92.4 -0.99 C87.23 -2.48, 80.82 -7.09, 77.97 -8.83 M92.4 -0.99 C88.61 -2.6, 85.17 -5.07, 77.97 -8.83 M77.97 -8.83 C77.27 -8.88, 76.35 -9.33, 75.48 -9.88 M77.97 -8.83 C77.36 -9.1, 76.61 -9.53, 75.48 -9.88 M75.48 -9.88 C75.4 -9.3, 74.92 -8.99, 74.34 -7.99 M75.48 -9.88 C75.23 -9.45, 74.93 -8.84, 74.34 -7.99 M74.34 -7.99 C75.87 3.72, 73.74 17.11, 73.8 35.11 M74.34 -7.99 C74.84 0.26, 73.48 9.44, 73.8 35.11 M73.8 35.11 C67.72 33.89, 65.3 30.95, 59.44 26.88 M73.8 35.11 C67.99 31.42, 63.41 28.65, 59.44 26.88 M59.44 26.88 C59.8 10.76, 59.97 -4.1, 58.08 -18.24 M59.44 26.88 C59.49 13.83, 58.3 1.96, 58.08 -18.24 M58.08 -18.24 C55.04 -19.2, 52.41 -21.72, 46.4 -26.92 M58.08 -18.24 C54.54 -21.52, 49.42 -24.43, 46.4 -26.92 M46.4 -26.92 C44.6 -24.19, 42.02 -24.82, 33.82 -19.4 M46.4 -26.92 C43.6 -25.52, 39.7 -23.36, 33.82 -19.4 M33.82 -19.4 C35.51 0.44, 34.87 15.96, 33.96 26.8 M33.82 -19.4 C34.93 -4.85, 34.5 10.39, 33.96 26.8 M33.96 26.8 C28.02 28.27, 26.82 33.96, 18.99 36.3 M33.96 26.8 C29.64 28.44, 27.06 30.63, 18.99 36.3 M18.99 36.3 C20.2 20.43, 17.18 2.29, 18.6 -8.51 M18.99 36.3 C19.74 24.4, 18.42 12.49, 18.6 -8.51 M18.6 -8.51 C18.32 -8.79, 17.8 -8.99, 17.05 -9.76 M18.6 -8.51 C18.04 -8.89, 17.72 -9.33, 17.05 -9.76 M17.05 -9.76 C11.32 -6.79, 9.61 -3.52, 0 0 M17.05 -9.76 C11.1 -5.79, 3.83 -1.36, 0 0" stroke="#000000" stroke-width="2" fill="none"></path></g></g><mask></mask><g stroke-linecap="round"><g transform="translate(101.34016085618691 254.87710379636815) rotate(0 -31.08657844388108 -4.172895964833401)"><path d="M0 0 C-22.01 14.76, -45.87 24.83, -61.93 34.89 M-61.93 34.89 C-61.71 16.85, -61.74 0.57, -62.17 -43.23" stroke="#000000" stroke-width="2.5" fill="none" stroke-dasharray="8 10"></path></g></g><mask></mask><g stroke-linecap="round"><g transform="translate(211.60490879541499 256.24918216358174) rotate(0 31.086578443880967 -4.172895964833401)"><path d="M0 0 C19.35 8.76, 36.13 21.74, 61.93 34.89 M61.93 34.89 C62.48 9.97, 61.95 -14.94, 62.17 -43.23" stroke="#000000" stroke-width="2.5" fill="none" stroke-dasharray="8 10"></path></g></g><mask></mask></svg>