<svg version="1.1" xmlns="http://www.w3.org/2000/svg" viewBox="0 0 306.5754768479921 303.0794064637678" width="613.1509536959842" height="606.1588129275356">
  <!-- svg-source:excalidraw -->
  
  <defs>
    <style class="style-fonts">
      @font-face {
        font-family: "Virgil";
        src: url("https://excalidraw.com/Virgil.woff2");
      }
      @font-face {
        font-family: "Cascadia";
        src: url("https://excalidraw.com/Cascadia.woff2");
      }
      @font-face {
        font-family: "Assistant";
        src: url("https://app.excalidraw.com//dist/excalidraw-assets/Assistant-Regular.woff2");
      }
    </style>
    
  </defs>
  <g stroke-linecap="round"><g transform="translate(75.41851829941362 189.9116891689996) rotate(0 64.55889093931444 -30.604708399835772)" fill-rule="evenodd"><path d="M0 0 L0 -64.08 L65.99 -97.55 L128.16 -64.08 L129.12 -0.96 L63.12 36.35 L0 0" stroke="none" stroke-width="0" fill="#ffffff" fill-rule="evenodd"></path><path d="M0 0 C0 -15.49, 0 -30.99, 0 -64.08 M0 0 C0 -15.71, 0 -31.42, 0 -64.08 M0 -64.08 C19.64 -74.04, 39.27 -84, 65.99 -97.55 M0 -64.08 C16 -72.19, 32 -80.31, 65.99 -97.55 M65.99 -97.55 C81.68 -89.11, 97.37 -80.66, 128.16 -64.08 M65.99 -97.55 C90.22 -84.51, 114.44 -71.47, 128.16 -64.08 M128.16 -64.08 C128.38 -49.85, 128.59 -35.62, 129.12 -0.96 M128.16 -64.08 C128.49 -42.62, 128.81 -21.16, 129.12 -0.96 M129.12 -0.96 C104.59 12.91, 80.06 26.77, 63.12 36.35 M129.12 -0.96 C111.81 8.83, 94.5 18.61, 63.12 36.35 M63.12 36.35 C40.79 23.48, 18.45 10.62, 0 0 M63.12 36.35 C49.28 28.38, 35.44 20.41, 0 0 M0 0 C0 0, 0 0, 0 0 M0 0 C0 0, 0 0, 0 0" stroke="transparent" stroke-width="1" fill="none"></path></g></g><mask></mask><g stroke-linecap="round" transform="translate(37.89643725637649 138.16391439516474) rotate(0 100.29076368011624 58.881298501720494)"><path d="M126.25 14.75 C144.18 28.41, 161.76 35.76, 175.33 44.25 C197.24 60.93, 197.65 60.15, 175.33 73.75 C156.5 86.7, 138.4 92.31, 126.25 103.01 C104.46 120.5, 99.5 114.81, 75.75 103.01 C53.94 92.48, 38.24 78.1, 25.25 73.75 C-2.57 59.58, 0.84 61.15, 25.25 44.25 C44.31 33.95, 58.1 29.24, 75.75 14.75 C104.4 -2.29, 99.18 0.66, 126.25 14.75" stroke="none" stroke-width="0" fill="#f8f0fc"></path><path d="M126.25 14.75 C143.33 26.17, 165.9 37.86, 175.33 44.25 M126.25 14.75 C138.37 22.25, 152.08 30.31, 175.33 44.25 M175.33 44.25 C201.11 59.2, 198.67 58.96, 175.33 73.75 M175.33 44.25 C198.29 57.32, 200.51 60.1, 175.33 73.75 M175.33 73.75 C157.08 84.53, 142.41 91.94, 126.25 103.01 M175.33 73.75 C158.29 84.68, 139.94 94.9, 126.25 103.01 M126.25 103.01 C102.34 118.98, 101.91 119.37, 75.75 103.01 M126.25 103.01 C101.64 118.94, 102.9 116.46, 75.75 103.01 M75.75 103.01 C61.22 95.48, 44.15 85.8, 25.25 73.75 M75.75 103.01 C55.84 91.96, 36.74 81.77, 25.25 73.75 M25.25 73.75 C-1.87 58.06, 1.22 60.99, 25.25 44.25 M25.25 73.75 C-1.04 58.09, -0.82 57.9, 25.25 44.25 M25.25 44.25 C39.38 37.33, 50.69 29.23, 75.75 14.75 M25.25 44.25 C39.1 36.47, 55.16 26.67, 75.75 14.75 M75.75 14.75 C99.03 1.09, 100.08 0.91, 126.25 14.75 M75.75 14.75 C102.64 -0.57, 102.34 -1.47, 126.25 14.75" stroke="transparent" stroke-width="4" fill="none"></path></g><g stroke-linecap="round"><g stroke-opacity="0.5" fill-opacity="0.5" transform="translate(138.42867156219938 92.42206081096015) rotate(0 5.174393570466918 30.631341801639905)" fill-rule="evenodd"><path d="M0.23 -1.02 L-7.52 1.13 L-59.42 30.71 L-58.01 32.08 L-57.38 33.27 L-4.63 60.18 L6.15 61.46 L9.41 61.97 L17.54 54.16 L66.99 35.32 L65.96 31.48 L60.19 28.09 L17.23 3.15 L8.69 1.44 L2.1 -1.32 L1.55 -0.54" stroke="none" stroke-width="0" fill="#d0bfff" fill-rule="evenodd"></path><path d="M0 0 C-2.19 0.7, -4.2 1.57, -6.33 3.11 M0 0 C-1.54 0.85, -3.62 1.62, -6.33 3.11 M-6.33 3.11 C-16.05 9.75, -28.35 13.88, -58.59 31.67 M-6.33 3.11 C-20.03 11.03, -31.36 17.86, -58.59 31.67 M-58.59 31.67 C-58.36 32.17, -58.04 32.54, -57.91 32.85 M-58.59 31.67 C-58.28 32.08, -58.06 32.6, -57.91 32.85 M-57.91 32.85 C-57.8 32.86, -57.68 32.88, -57.62 32.85 M-57.91 32.85 C-57.83 32.86, -57.74 32.85, -57.62 32.85 M-57.62 32.85 C-38.29 42.95, -18.63 53.54, -2.67 62.14 M-57.62 32.85 C-46.16 37.98, -34.91 44.73, -2.67 62.14 M-2.67 62.14 C-0.38 62.53, 0.31 61.04, 4.38 61.17 M-2.67 62.14 C0.09 61.68, 2.55 61.19, 4.38 61.17 M4.38 61.17 C6.04 61.34, 7.66 60.69, 9.05 60.87 M4.38 61.17 C5.42 61.25, 6.27 61.03, 9.05 60.87 M9.05 60.87 C10.9 60.53, 14.43 57.53, 18.35 54.87 M9.05 60.87 C10.99 59.19, 13.17 58.47, 18.35 54.87 M18.35 54.87 C30.9 51.47, 42.86 47.3, 68.94 35.77 M18.35 54.87 C29.47 51.81, 41.37 46.05, 68.94 35.77 M68.94 35.77 C68.16 34.78, 67.95 33.46, 66.99 31.94 M68.94 35.77 C68.21 34.54, 67.93 33.57, 66.99 31.94 M66.99 31.94 C64.56 31.86, 64.39 30.61, 59.89 29.12 M66.99 31.94 C64.27 31.08, 61.62 29.99, 59.89 29.12 M59.89 29.12 C49.58 21.37, 39.28 17.02, 16.67 4.53 M59.89 29.12 C51.01 25.3, 41.24 19.09, 16.67 4.53 M16.67 4.53 C14.67 2.27, 10.97 1.72, 8.3 0.01 M16.67 4.53 C13.93 3.46, 11.32 1.93, 8.3 0.01 M8.3 0.01 C7.16 -0.57, 5.51 -0.65, 3.62 -0.88 M8.3 0.01 C6.84 -0.48, 5.69 -0.29, 3.62 -0.88 M3.62 -0.88 C3.05 -0.85, 2.21 -0.16, 0 0 M3.62 -0.88 C2.87 -0.69, 2.12 -0.28, 0 0 M0 0 C0 0, 0 0, 0 0 M0 0 C0 0, 0 0, 0 0" stroke="transparent" stroke-width="4" fill="none"></path></g></g><mask></mask><g stroke-linecap="round"><g stroke-opacity="0.6" fill-opacity="0.6" transform="translate(145.56812773162704 152.94999910520414) rotate(0 30.131836813381682 8.094168801642809)" fill-rule="evenodd"><path d="M0.32 0.46 L-0.78 6.77 L54.88 41.8 L61.37 38.7 L61.37 38.87 L64.12 -26.33 L60.39 -26.85 L3.78 -3.61" stroke="none" stroke-width="0" fill="#da77f2" fill-rule="evenodd"></path><path d="M0 0 C-1 1.66, -1.52 4.29, -1.97 6.3 M0 0 C-0.9 1.91, -1.51 3.6, -1.97 6.3 M-1.97 6.3 C13.75 16.42, 29.98 28.88, 53.35 43.41 M-1.97 6.3 C18.27 19.84, 38.21 33.17, 53.35 43.41 M53.35 43.41 C55.44 42.68, 57.23 41.54, 59.63 39.53 M53.35 43.41 C55.57 42.29, 57.92 40.99, 59.63 39.53 M59.63 39.53 C60.36 38.85, 60.71 37.48, 61.03 37.01 M59.63 39.53 C59.91 38.74, 60.54 38.24, 61.03 37.01 M61.03 37.01 C60.63 20.51, 60.04 4.01, 62.23 -25.06 M61.03 37.01 C61.39 16.83, 60.98 -2.66, 62.23 -25.06 M62.23 -25.06 C61.93 -25.75, 61.98 -26.1, 61.4 -27.22 M62.23 -25.06 C62 -25.88, 61.75 -26.53, 61.4 -27.22 M61.4 -27.22 C43.17 -20.71, 26 -11.35, 3.63 -2.27 M61.4 -27.22 C48.68 -21.76, 35.71 -15.2, 3.63 -2.27 M3.63 -2.27 C3.18 -1.94, 1.74 -0.91, 0 0 M3.63 -2.27 C2.33 -1.35, 0.81 -0.77, 0 0" stroke="transparent" stroke-width="1" fill="none"></path></g></g><mask></mask><g stroke-linecap="round"><g stroke-opacity="0.5" fill-opacity="0.5" transform="translate(135.64631852725222 152.09500684480236) rotate(181.460877668467 -26.85779938142906 22.654320930839617)" fill-rule="evenodd"><path d="M0.74 -1.54 L4.25 3.5 L4.54 9.11 L5.05 18.64 L7.32 48.55 L5.47 61.35 L5.21 66.38 L4.18 69.16 L2.69 70.65 L-48.48 46.45 L-60.17 41.21 L-56.87 42 L-59.76 -24.52 L-59.04 -26.82 L-1.96 -0.45" stroke="none" stroke-width="0" fill="#7950f2" fill-rule="evenodd"></path><path d="M0 0 C0.81 1.39, 2.12 2.29, 3.99 4.01 M0 0 C0.92 1.04, 2.43 2.62, 3.99 4.01 M3.99 4.01 C4.12 5.94, 5.16 6.96, 5.24 8.99 M3.99 4.01 C4.56 5.85, 4.81 7.57, 5.24 8.99 M5.24 8.99 C5.95 12.58, 5.6 16.43, 5.02 18.1 M5.24 8.99 C5.44 11.53, 5.45 13.46, 5.02 18.1 M5.02 18.1 C5.87 27.75, 5.41 38.53, 5.69 50.33 M5.02 18.1 C5.57 30.84, 4.75 41.19, 5.69 50.33 M5.69 50.33 C4.39 52.67, 5.67 57.02, 5.24 62.37 M5.69 50.33 C5.21 53.23, 5.02 56.14, 5.24 62.37 M5.24 62.37 C5.99 64.36, 6.37 67.34, 6.4 68.36 M5.24 62.37 C5.86 64.08, 5.88 65.57, 6.4 68.36 M6.4 68.36 C5.68 69.11, 5.2 69.7, 5 70.13 M6.4 68.36 C5.86 69.06, 5.34 69.53, 5 70.13 M5 70.13 C3.92 70.85, 3.44 71.13, 2.79 71.42 M5 70.13 C4.38 70.36, 3.94 70.8, 2.79 71.42 M2.79 71.42 C-17.4 64.43, -35.15 53.89, -48.71 46.04 M2.79 71.42 C-18.18 61.31, -37.82 50.49, -48.71 46.04 M-48.71 46.04 C-51.49 44.68, -53.71 43.5, -58.21 43.17 M-48.71 46.04 C-51.47 45.81, -53.35 44.12, -58.21 43.17 M-58.21 43.17 C-58.29 42.67, -58.4 42.03, -58.64 41.72 M-58.21 43.17 C-58.37 42.65, -58.42 42.25, -58.64 41.72 M-58.64 41.72 C-61.14 26.8, -58.35 13.84, -60.12 -25.62 M-58.64 41.72 C-58.64 14.97, -59.13 -11.43, -60.12 -25.62 M-60.12 -25.62 C-59.72 -25.6, -59.21 -25.87, -58.24 -26.11 M-60.12 -25.62 C-59.44 -25.72, -58.81 -25.91, -58.24 -26.11 M-58.24 -26.11 C-44.72 -18.04, -31.62 -14.86, 0 0 M-58.24 -26.11 C-46.76 -20.45, -34.96 -15.02, 0 0 M0 0 C0 0, 0 0, 0 0 M0 0 C0 0, 0 0, 0 0" stroke="transparent" stroke-width="2" fill="none"></path></g></g><mask></mask><g stroke-linecap="round"><g transform="translate(137.89945648192162 93.94611699964571) rotate(0 3.6003704449292684 65.18691852244524)"><path d="M0 0 C-1.58 0.99, -3.14 0.9, -6.31 3.03 M0 0 C-1.92 1.03, -3.63 1.61, -6.31 3.03 M-6.31 3.03 C-18.12 8.04, -31.15 17.81, -54.64 28.33 M-6.31 3.03 C-23 11.74, -38.35 20.94, -54.64 28.33 M-54.64 28.33 C-56.22 30, -58.85 30.66, -60.25 31.56 M-54.64 28.33 C-56.4 29.55, -58.48 30.92, -60.25 31.56 M-60.25 31.56 C-60.77 32.4, -61.01 33.46, -61.49 34.4 M-60.25 31.56 C-60.61 32.23, -60.91 32.94, -61.49 34.4 M-61.49 34.4 C-61.54 49.55, -63.62 63.86, -61.49 89.44 M-61.49 34.4 C-62.67 51.07, -61.07 65.49, -61.49 89.44 M-61.49 89.44 C-61.2 90.99, -61.6 92.06, -61.49 95.11 M-61.49 89.44 C-61.47 90.69, -61.27 91.91, -61.49 95.11 M-61.49 95.11 C-61.48 95.97, -60.76 96.57, -60.25 98.19 M-61.49 95.11 C-61.31 95.89, -60.66 96.93, -60.25 98.19 M-60.25 98.19 C-58.99 98.96, -58.65 99.94, -56.6 101.42 M-60.25 98.19 C-58.95 99.4, -57.57 100.53, -56.6 101.42 M-56.6 101.42 C-48.33 106.21, -36.46 112.43, -32.21 113.8 M-56.6 101.42 C-50.81 103.64, -45.22 107.2, -32.21 113.8 M-32.21 113.8 C-25.54 115.29, -21.86 121.14, -4.83 128.16 M-32.21 113.8 C-22.95 117.27, -13.6 123.9, -4.83 128.16 M-4.83 128.16 C-2.52 128.75, -1.25 129.48, 1.02 131.23 M-4.83 128.16 C-2.84 129.19, -1.63 130.2, 1.02 131.23 M1.02 131.23 C2.57 131.06, 4.02 130.54, 5.35 130.75 M1.02 131.23 C2.25 131.19, 3.25 130.77, 5.35 130.75 M5.35 130.75 C7.93 129.22, 9.69 127.92, 12.28 126.23 M5.35 130.75 C7.52 129.5, 9.63 127.86, 12.28 126.23 M12.28 126.23 C24.74 117.49, 37.68 111.75, 60.71 101.22 M12.28 126.23 C30.54 116.88, 49.9 107.2, 60.71 101.22 M60.71 101.22 C63.37 100.59, 65.72 100.04, 67.28 98.91 M60.71 101.22 C63.62 100.47, 66.07 99.1, 67.28 98.91 M67.28 98.91 C67.75 98.13, 68.25 97.58, 68.69 96.41 M67.28 98.91 C67.49 98.24, 67.82 97.79, 68.69 96.41 M68.69 96.41 C69.34 76.3, 66.97 61.88, 68.69 34.93 M68.69 96.41 C68.18 76.74, 67.6 57.56, 68.69 34.93 M68.69 34.93 C68 34.12, 67.44 33.15, 66.74 31.19 M68.69 34.93 C68.16 33.48, 67.3 32.24, 66.74 31.19 M66.74 31.19 C65.16 29.93, 64.54 29.21, 61.98 28.02 M66.74 31.19 C65.5 29.97, 64.05 29.28, 61.98 28.02 M61.98 28.02 C44.76 19.17, 30.81 10.6, 16.61 4.42 M61.98 28.02 C50.45 21.72, 36.53 15.33, 16.61 4.42 M16.61 4.42 C13.68 3.08, 9.75 0.45, 8.27 0.01 M16.61 4.42 C13.48 3.21, 11.55 1.18, 8.27 0.01 M8.27 0.01 C7.02 -0.6, 5.37 -1.05, 3.61 -0.86 M8.27 0.01 C6.4 -0.32, 4.47 -0.58, 3.61 -0.86 M3.61 -0.86 C2.8 -0.55, 1.79 -0.63, 0 0 M3.61 -0.86 C2.44 -0.49, 1.22 -0.27, 0 0" stroke="#000000" stroke-width="2" fill="none"></path></g></g><mask></mask><g stroke-linecap="round"><g transform="translate(86.70282657839306 88.42899253574183) rotate(0 28.577290226810305 -11.891406493278964)"><path d="M0 0 C3.56 1.85, 7.11 3.69, 10.03 5.21 M0 0 C2.28 1.18, 4.56 2.37, 10.03 5.21 M10.03 5.21 C12.91 3.67, 15.79 2.13, 18.52 0.67 M10.03 5.21 C12.79 3.73, 15.56 2.25, 18.52 0.67 M18.52 0.67 C18.66 -1.91, 18.79 -4.48, 18.93 -7.19 M18.52 0.67 C18.67 -2.26, 18.83 -5.19, 18.93 -7.19 M18.93 -7.19 C19.01 -8.25, 19.08 -9.31, 19.26 -11.78 M18.93 -7.19 C19.06 -9.03, 19.2 -10.86, 19.26 -11.78 M19.26 -11.78 C19.4 -12.63, 19.54 -13.48, 19.86 -15.46 M19.26 -11.78 C19.47 -13.05, 19.68 -14.32, 19.86 -15.46 M19.86 -15.46 C20.08 -15.99, 20.3 -16.51, 20.72 -17.51 M19.86 -15.46 C20.13 -16.12, 20.41 -16.77, 20.72 -17.51 M20.72 -17.51 C20.95 -17.37, 21.19 -17.22, 21.38 -17.1 M20.72 -17.51 C20.97 -17.36, 21.23 -17.2, 21.38 -17.1 M21.38 -17.1 C23.05 -16.44, 24.72 -15.78, 25.71 -15.39 M21.38 -17.1 C22.37 -16.71, 23.36 -16.32, 25.71 -15.39 M25.71 -15.39 C26.98 -14.44, 28.25 -13.49, 28.99 -12.93 M25.71 -15.39 C26.75 -14.61, 27.8 -13.83, 28.99 -12.93 M28.99 -12.93 C29.58 -12.2, 30.17 -11.47, 31.29 -10.06 M28.99 -12.93 C29.9 -11.8, 30.8 -10.67, 31.29 -10.06 M31.29 -10.06 C32.33 -9.04, 33.36 -8.01, 34.48 -6.91 M31.29 -10.06 C32.02 -9.34, 32.75 -8.62, 34.48 -6.91 M34.48 -6.91 C34.93 -5.96, 35.37 -5.01, 36.3 -3.05 M34.48 -6.91 C35.04 -5.73, 35.6 -4.54, 36.3 -3.05 M36.3 -3.05 C37.01 -1.25, 37.72 0.55, 38.27 1.94 M36.3 -3.05 C37.06 -1.13, 37.82 0.79, 38.27 1.94 M38.27 1.94 C38.42 4.03, 38.56 6.12, 38.65 7.34 M38.27 1.94 C38.41 3.99, 38.56 6.03, 38.65 7.34 M38.65 7.34 C38.64 8.69, 38.63 10.03, 38.63 10.79 M38.65 7.34 C38.64 8.46, 38.63 9.57, 38.63 10.79 M38.63 10.79 C43.66 9.09, 48.69 7.38, 57.63 4.36 M38.63 10.79 C43.36 9.19, 48.09 7.59, 57.63 4.36 M57.63 4.36 C56.82 0.65, 56.01 -3.05, 55.03 -7.53 M57.63 4.36 C56.71 0.14, 55.78 -4.09, 55.03 -7.53 M55.03 -7.53 C53.51 -10.21, 51.98 -12.88, 50.2 -16.02 M55.03 -7.53 C53.69 -9.89, 52.34 -12.25, 50.2 -16.02 M50.2 -16.02 C48.63 -18.12, 47.06 -20.22, 45.35 -22.51 M50.2 -16.02 C48.91 -17.74, 47.62 -19.47, 45.35 -22.51 M45.35 -22.51 C43.98 -23.89, 42.6 -25.26, 41.12 -26.75 M45.35 -22.51 C44.29 -23.57, 43.24 -24.63, 41.12 -26.75 M41.12 -26.75 C40.28 -27.39, 39.44 -28.03, 37.41 -29.58 M41.12 -26.75 C40.33 -27.36, 39.53 -27.96, 37.41 -29.58 M37.41 -29.58 C35.78 -30.25, 34.15 -30.91, 32.52 -31.58 M37.41 -29.58 C36.08 -30.12, 34.75 -30.67, 32.52 -31.58 M32.52 -31.58 C30.94 -32.19, 29.35 -32.81, 27.62 -33.48 M32.52 -31.58 C31.38 -32.02, 30.25 -32.46, 27.62 -33.48 M27.62 -33.48 C26.33 -33.84, 25.05 -34.2, 23.72 -34.57 M27.62 -33.48 C26.55 -33.78, 25.48 -34.08, 23.72 -34.57 M23.72 -34.57 C21.95 -34.51, 20.17 -34.45, 18.11 -34.38 M23.72 -34.57 C21.91 -34.51, 20.09 -34.45, 18.11 -34.38 M18.11 -34.38 C16.25 -33.79, 14.4 -33.21, 12.91 -32.74 M18.11 -34.38 C16.48 -33.87, 14.85 -33.35, 12.91 -32.74 M12.91 -32.74 C11.6 -32, 10.3 -31.27, 6.76 -29.27 M12.91 -32.74 C10.65 -31.46, 8.38 -30.19, 6.76 -29.27 M6.76 -29.27 C5.9 -28.72, 5.04 -28.16, 2.66 -26.61 M6.76 -29.27 C5.67 -28.56, 4.57 -27.85, 2.66 -26.61 M2.66 -26.61 C2.13 -25.26, 1.6 -23.91, 0.24 -20.42 M2.66 -26.61 C2.13 -25.26, 1.6 -23.91, 0.24 -20.42 M0.24 -20.42 C0.03 -18.85, -0.17 -17.28, -0.38 -15.68 M0.24 -20.42 C0.03 -18.83, -0.17 -17.25, -0.38 -15.68 M-0.38 -15.68 C-0.4 -12.06, -0.42 -8.45, -0.47 -0.68 M-0.38 -15.68 C-0.42 -9.69, -0.45 -3.71, -0.47 -0.68" stroke="#000" stroke-width="2" fill="none"></path></g></g><mask></mask><g stroke-linecap="round"><g transform="translate(109.81541465199638 66.32025481400524) rotate(0 7.375504662872743 17.602623383002083)" fill-rule="evenodd"><path d="M0 0 L-16.94 -2.77 L-19.17 -3.52 L-15.79 -6.07 L-7.89 -10.25 L-2.49 -11.23 L2.92 -10.85 L9.86 -8.36 L14.88 -5.23 L20.88 -0.04 L25.13 5.36 L28.6 11.15 L31.3 17.5 L32.93 22.94 L33.66 26.37 L33.92 42.71 L27.14 46.44 L23.46 25.81 L22.17 22.13 L18.82 17.32 L15.35 11.15 L12.69 7.29 L9.18 4.37 L5.87 1.11 L4.12 -0.26 L0.9 -0.04" stroke="none" stroke-width="0" fill="#9775fa" fill-rule="evenodd"></path><path d="M0 0 C-5.53 -0.9, -11.05 -1.81, -16.94 -2.77 M0 0 C-5.89 -0.96, -11.78 -1.92, -16.94 -2.77 M-16.94 -2.77 C-17.39 -2.92, -17.84 -3.07, -19.17 -3.52 M-16.94 -2.77 C-17.61 -2.99, -18.28 -3.22, -19.17 -3.52 M-19.17 -3.52 C-17.87 -4.49, -16.58 -5.47, -15.79 -6.07 M-19.17 -3.52 C-18.12 -4.31, -17.07 -5.1, -15.79 -6.07 M-15.79 -6.07 C-14.06 -6.98, -12.33 -7.9, -7.89 -10.25 M-15.79 -6.07 C-13.73 -7.16, -11.68 -8.24, -7.89 -10.25 M-7.89 -10.25 C-6.12 -10.57, -4.35 -10.89, -2.49 -11.23 M-7.89 -10.25 C-5.78 -10.63, -3.68 -11.02, -2.49 -11.23 M-2.49 -11.23 C-0.48 -11.09, 1.52 -10.95, 2.92 -10.85 M-2.49 -11.23 C-1.04 -11.13, 0.41 -11.03, 2.92 -10.85 M2.92 -10.85 C5.22 -10.02, 7.53 -9.2, 9.86 -8.36 M2.92 -10.85 C4.75 -10.19, 6.59 -9.53, 9.86 -8.36 M9.86 -8.36 C11.33 -7.44, 12.81 -6.53, 14.88 -5.23 M9.86 -8.36 C11.48 -7.35, 13.11 -6.34, 14.88 -5.23 M14.88 -5.23 C16.78 -3.59, 18.68 -1.94, 20.88 -0.04 M14.88 -5.23 C16.28 -4.02, 17.68 -2.81, 20.88 -0.04 M20.88 -0.04 C21.82 1.15, 22.75 2.34, 25.13 5.36 M20.88 -0.04 C21.73 1.04, 22.58 2.12, 25.13 5.36 M25.13 5.36 C26.02 6.84, 26.9 8.32, 28.6 11.15 M25.13 5.36 C26.24 7.21, 27.34 9.05, 28.6 11.15 M28.6 11.15 C29.38 12.98, 30.16 14.81, 31.3 17.5 M28.6 11.15 C29.54 13.34, 30.47 15.54, 31.3 17.5 M31.3 17.5 C31.75 18.98, 32.19 20.47, 32.93 22.94 M31.3 17.5 C31.9 19.5, 32.51 21.51, 32.93 22.94 M32.93 22.94 C33.1 23.75, 33.28 24.56, 33.66 26.37 M32.93 22.94 C33.21 24.25, 33.49 25.56, 33.66 26.37 M33.66 26.37 C33.75 32.02, 33.84 37.68, 33.92 42.71 M33.66 26.37 C33.75 32.14, 33.84 37.9, 33.92 42.71 M33.92 42.71 C31.88 43.83, 29.83 44.96, 27.14 46.44 M33.92 42.71 C32.56 43.46, 31.19 44.21, 27.14 46.44 M27.14 46.44 C26.4 42.28, 25.65 38.11, 23.46 25.81 M27.14 46.44 C26.17 40.99, 25.19 35.53, 23.46 25.81 M23.46 25.81 C23.03 24.6, 22.61 23.4, 22.17 22.13 M23.46 25.81 C23.1 24.81, 22.75 23.8, 22.17 22.13 M22.17 22.13 C21.43 21.07, 20.69 20.01, 18.82 17.32 M22.17 22.13 C21.43 21.07, 20.69 20.01, 18.82 17.32 M18.82 17.32 C17.93 15.73, 17.04 14.15, 15.35 11.15 M18.82 17.32 C17.65 15.24, 16.48 13.15, 15.35 11.15 M15.35 11.15 C14.47 9.86, 13.58 8.58, 12.69 7.29 M15.35 11.15 C14.39 9.75, 13.43 8.36, 12.69 7.29 M12.69 7.29 C11.87 6.61, 11.05 5.92, 9.18 4.37 M12.69 7.29 C11.6 6.39, 10.51 5.48, 9.18 4.37 M9.18 4.37 C8.12 3.33, 7.05 2.28, 5.87 1.11 M9.18 4.37 C8.02 3.23, 6.85 2.08, 5.87 1.11 M5.87 1.11 C5.34 0.7, 4.8 0.28, 4.12 -0.26 M5.87 1.11 C5.21 0.6, 4.54 0.08, 4.12 -0.26 M4.12 -0.26 C3.09 -0.19, 2.05 -0.12, 0.9 -0.04 M4.12 -0.26 C3.22 -0.2, 2.33 -0.14, 0.9 -0.04 M0.9 -0.04 C0.62 -0.03, 0.33 -0.02, 0 0 M0.9 -0.04 C0.63 -0.03, 0.35 -0.02, 0 0" stroke="transparent" stroke-width="4" fill="none"></path></g></g><mask></mask><g stroke-linecap="round"><g transform="translate(104.0032851623443 89.1349174222189) rotate(0 -3.6752477033028015 -7.7496386014812515)" fill-rule="evenodd"><path d="M0 0 L-7.75 4.09 L-9.94 -12.64 L-9.76 -19.2 L2.59 -19.59 L1.08 -15.73 L0.31 -11.7 L0.31 -5.86 L-0.07 -0.08" stroke="none" stroke-width="0" fill="#9775fa" fill-rule="evenodd"></path><path d="M0 0 C-1.58 0.83, -3.17 1.67, -7.75 4.09 M0 0 C-1.98 1.04, -3.96 2.09, -7.75 4.09 M-7.75 4.09 C-8.52 -1.81, -9.29 -7.7, -9.94 -12.64 M-7.75 4.09 C-8.54 -1.95, -9.33 -7.99, -9.94 -12.64 M-9.94 -12.64 C-9.88 -14.69, -9.83 -16.75, -9.76 -19.2 M-9.94 -12.64 C-9.87 -15.1, -9.81 -17.57, -9.76 -19.2 M-9.76 -19.2 C-7.22 -19.28, -4.67 -19.36, 2.59 -19.59 M-9.76 -19.2 C-6.65 -19.3, -3.53 -19.39, 2.59 -19.59 M2.59 -19.59 C2.11 -18.37, 1.64 -17.16, 1.08 -15.73 M2.59 -19.59 C2.2 -18.6, 1.82 -17.62, 1.08 -15.73 M1.08 -15.73 C0.81 -14.28, 0.53 -12.84, 0.31 -11.7 M1.08 -15.73 C0.91 -14.8, 0.73 -13.88, 0.31 -11.7 M0.31 -11.7 C0.31 -10.05, 0.31 -8.41, 0.31 -5.86 M0.31 -11.7 C0.31 -9.5, 0.31 -7.31, 0.31 -5.86 M0.31 -5.86 C0.19 -4, 0.06 -2.13, -0.07 -0.08 M0.31 -5.86 C0.19 -3.99, 0.06 -2.12, -0.07 -0.08 M-0.07 -0.08 C-0.04 -0.05, -0.02 -0.02, 0 0 M-0.07 -0.08 C-0.05 -0.05, -0.03 -0.03, 0 0" stroke="transparent" stroke-width="4" fill="none"></path></g></g><mask></mask><g stroke-linecap="round"><g transform="translate(97.1924432939698 93.17365727882839) rotate(0 14.64114060705242 -7.064631647638748)" fill-rule="evenodd"><path d="M0 0 L-10.18 -5.16 L-9.94 -12.64 L-9.76 -19.2 L-8.74 -24.6 L-6.68 -30.01 L-2.05 -33.26 L3.36 -34.25 L8.76 -33.87 L15.71 -31.38 L20.72 -28.25 L26.73 -23.06 L30.97 -17.66 L34.45 -11.87 L37.15 -5.52 L38.73 0.31 L39.46 3.74 L39.29 20.12 L29.04 14.59 L29.26 3.18 L28.87 -0.89 L28.1 -5.09 L25.78 -10.54 L22.14 -15.34 L18.67 -19.03 L13.82 -21.69 L9.92 -22.89 L6.7 -22.67 L2.59 -19.59 L1.08 -15.73 L0.31 -11.7 L0.31 -5.86 L-0.07 -0.08" stroke="none" stroke-width="0" fill="#d0bfff" fill-rule="evenodd"></path><path d="M0 0 C-2.04 -1.03, -4.08 -2.07, -10.18 -5.16 M0 0 C-2.5 -1.27, -5 -2.53, -10.18 -5.16 M-10.18 -5.16 C-10.1 -7.7, -10.01 -10.23, -9.94 -12.64 M-10.18 -5.16 C-10.09 -8.01, -9.99 -10.85, -9.94 -12.64 M-9.94 -12.64 C-9.88 -14.96, -9.81 -17.28, -9.76 -19.2 M-9.94 -12.64 C-9.88 -14.73, -9.83 -16.83, -9.76 -19.2 M-9.76 -19.2 C-9.39 -21.15, -9.02 -23.1, -8.74 -24.6 M-9.76 -19.2 C-9.55 -20.32, -9.34 -21.44, -8.74 -24.6 M-8.74 -24.6 C-8.25 -25.87, -7.77 -27.13, -6.68 -30.01 M-8.74 -24.6 C-8.01 -26.52, -7.28 -28.44, -6.68 -30.01 M-6.68 -30.01 C-4.89 -31.27, -3.09 -32.53, -2.05 -33.26 M-6.68 -30.01 C-5.72 -30.68, -4.76 -31.36, -2.05 -33.26 M-2.05 -33.26 C-0.71 -33.51, 0.62 -33.75, 3.36 -34.25 M-2.05 -33.26 C-0.87 -33.48, 0.31 -33.69, 3.36 -34.25 M3.36 -34.25 C4.63 -34.16, 5.91 -34.07, 8.76 -33.87 M3.36 -34.25 C4.55 -34.17, 5.73 -34.08, 8.76 -33.87 M8.76 -33.87 C10.49 -33.24, 12.23 -32.62, 15.71 -31.38 M8.76 -33.87 C10.83 -33.13, 12.89 -32.39, 15.71 -31.38 M15.71 -31.38 C16.86 -30.66, 18.02 -29.94, 20.72 -28.25 M15.71 -31.38 C17.51 -30.26, 19.3 -29.13, 20.72 -28.25 M20.72 -28.25 C22.23 -26.94, 23.74 -25.64, 26.73 -23.06 M20.72 -28.25 C21.96 -27.18, 23.19 -26.11, 26.73 -23.06 M26.73 -23.06 C27.96 -21.49, 29.2 -19.91, 30.97 -17.66 M26.73 -23.06 C28.04 -21.39, 29.35 -19.72, 30.97 -17.66 M30.97 -17.66 C32.06 -15.84, 33.15 -14.03, 34.45 -11.87 M30.97 -17.66 C31.94 -16.04, 32.91 -14.43, 34.45 -11.87 M34.45 -11.87 C35.1 -10.32, 35.76 -8.78, 37.15 -5.52 M34.45 -11.87 C35.07 -10.39, 35.7 -8.91, 37.15 -5.52 M37.15 -5.52 C37.54 -4.08, 37.93 -2.64, 38.73 0.31 M37.15 -5.52 C37.58 -3.92, 38.02 -2.32, 38.73 0.31 M38.73 0.31 C38.96 1.38, 39.19 2.45, 39.46 3.74 M38.73 0.31 C38.92 1.21, 39.12 2.11, 39.46 3.74 M39.46 3.74 C39.41 8.95, 39.35 14.15, 39.29 20.12 M39.46 3.74 C39.42 8.28, 39.37 12.82, 39.29 20.12 M39.29 20.12 C37 18.88, 34.7 17.65, 29.04 14.59 M39.29 20.12 C37.21 19, 35.13 17.88, 29.04 14.59 M29.04 14.59 C29.12 10.71, 29.19 6.83, 29.26 3.18 M29.04 14.59 C29.13 10.12, 29.21 5.66, 29.26 3.18 M29.26 3.18 C29.14 1.93, 29.02 0.67, 28.87 -0.89 M29.26 3.18 C29.17 2.22, 29.07 1.25, 28.87 -0.89 M28.87 -0.89 C28.58 -2.49, 28.28 -4.09, 28.1 -5.09 M28.87 -0.89 C28.68 -1.93, 28.49 -2.97, 28.1 -5.09 M28.1 -5.09 C27.18 -7.25, 26.27 -9.41, 25.78 -10.54 M28.1 -5.09 C27.6 -6.28, 27.09 -7.46, 25.78 -10.54 M25.78 -10.54 C24.84 -11.78, 23.9 -13.03, 22.14 -15.34 M25.78 -10.54 C24.7 -11.97, 23.61 -13.4, 22.14 -15.34 M22.14 -15.34 C21.03 -16.51, 19.93 -17.69, 18.67 -19.03 M22.14 -15.34 C20.85 -16.71, 19.56 -18.08, 18.67 -19.03 M18.67 -19.03 C17.48 -19.68, 16.3 -20.33, 13.82 -21.69 M18.67 -19.03 C17.12 -19.88, 15.57 -20.73, 13.82 -21.69 M13.82 -21.69 C13.01 -21.94, 12.19 -22.19, 9.92 -22.89 M13.82 -21.69 C12.26 -22.17, 10.7 -22.65, 9.92 -22.89 M9.92 -22.89 C8.76 -22.81, 7.61 -22.73, 6.7 -22.67 M9.92 -22.89 C8.91 -22.82, 7.91 -22.75, 6.7 -22.67 M6.7 -22.67 C5.87 -22.05, 5.04 -21.43, 2.59 -19.59 M6.7 -22.67 C5.15 -21.51, 3.61 -20.35, 2.59 -19.59 M2.59 -19.59 C2.17 -18.52, 1.76 -17.45, 1.08 -15.73 M2.59 -19.59 C1.99 -18.05, 1.39 -16.51, 1.08 -15.73 M1.08 -15.73 C0.83 -14.38, 0.57 -13.03, 0.31 -11.7 M1.08 -15.73 C0.89 -14.73, 0.7 -13.73, 0.31 -11.7 M0.31 -11.7 C0.31 -10.41, 0.31 -9.12, 0.31 -5.86 M0.31 -11.7 C0.31 -9.8, 0.31 -7.91, 0.31 -5.86 M0.31 -5.86 C0.22 -4.44, 0.12 -3.02, -0.07 -0.08 M0.31 -5.86 C0.18 -3.92, 0.05 -1.98, -0.07 -0.08 M-0.07 -0.08 C-0.05 -0.05, -0.03 -0.03, 0 0 M-0.07 -0.08 C-0.05 -0.05, -0.02 -0.02, 0 0" stroke="transparent" stroke-width="4" fill="none"></path></g></g><mask></mask><g stroke-linecap="round"><g stroke-opacity="0.7" fill-opacity="0.7" transform="translate(165.39850741290564 125.93242856395841) rotate(0 9.568995668446235 0.5109437749113113)" fill-rule="evenodd"><path d="M-0.1 -0.32 L11.23 4.93 L18.61 0.69 L8.48 -5.43 L0.45 -0.04" stroke="none" stroke-width="0" fill="#7950f2" fill-rule="evenodd"></path><path d="M0 0 C2.9 1.45, 6 3.56, 10.63 5.64 M0 0 C3.99 2.13, 7.81 4.14, 10.63 5.64 M10.63 5.64 C13.15 4.77, 15.46 3.63, 19.14 1.62 M10.63 5.64 C13.63 4.38, 16.72 3.01, 19.14 1.62 M19.14 1.62 C15.5 -0.09, 11.02 -3.38, 7.94 -4.61 M19.14 1.62 C15.68 -0.27, 12.99 -1.57, 7.94 -4.61 M7.94 -4.61 C5.73 -3.72, 3.54 -2.82, 0.13 -0.46 M7.94 -4.61 C5.45 -3.33, 2.75 -1.86, 0.13 -0.46 M0.13 -0.46 C0.1 -0.38, 0.09 -0.27, 0 0 M0.13 -0.46 C0.1 -0.31, 0.05 -0.14, 0 0" stroke="transparent" stroke-width="2" fill="none"></path></g></g><mask></mask><g stroke-linecap="round"><g stroke-opacity="0.7" fill-opacity="0.7" transform="translate(173.0877555822575 122.43524485768603) rotate(0 -2.7777906767170464 3.2857313768721497)" fill-rule="evenodd"><path d="M0.52 -0.3 L-0.21 6.94 L-6.31 3.76 L0.47 -0.17" stroke="none" stroke-width="0" fill="#d0bfff" fill-rule="evenodd"></path><path d="M0 0 C0.02 2.37, 0.44 4.35, 0.44 6.57 M0 0 C0.21 2.38, 0.29 4.71, 0.44 6.57 M0.44 6.57 C-1.74 5.51, -4.17 4.49, -6 3.46 M0.44 6.57 C-1.06 5.91, -2.61 5.08, -6 3.46 M-6 3.46 C-3.91 2.1, -1.94 0.89, 0 0 M-6 3.46 C-3.73 2.32, -1.67 0.9, 0 0 M0 0 C0 0, 0 0, 0 0 M0 0 C0 0, 0 0, 0 0" stroke="transparent" stroke-width="4" fill="none"></path></g></g><mask></mask><g stroke-linecap="round"><g stroke-opacity="0.7" fill-opacity="0.7" transform="translate(104.7455543766036 177.08631006901305) rotate(0 1.7989000466122036 -5.882641818665775)" fill-rule="evenodd"><path d="M0 0 L-2.32 -2.41 L-3.48 -4.95 L-3.77 -8.11 L-3.27 -10.3 L-1.55 -11.77 L0.96 -11.51 L2.95 -10.54 L4.65 -8.82 L6.4 -6.9 L7.34 -4.09 L7.37 -4.06 L0 0" stroke="none" stroke-width="0" fill="#7950f2" fill-rule="evenodd"></path><path d="M0 0 C-0.62 -0.64, -1.24 -1.29, -2.32 -2.41 M0 0 C-0.79 -0.82, -1.58 -1.64, -2.32 -2.41 M-2.32 -2.41 C-2.72 -3.29, -3.13 -4.17, -3.48 -4.95 M-2.32 -2.41 C-2.74 -3.32, -3.15 -4.22, -3.48 -4.95 M-3.48 -4.95 C-3.59 -6.18, -3.71 -7.4, -3.77 -8.11 M-3.48 -4.95 C-3.56 -5.75, -3.63 -6.55, -3.77 -8.11 M-3.77 -8.11 C-3.64 -8.69, -3.51 -9.27, -3.27 -10.3 M-3.77 -8.11 C-3.63 -8.74, -3.48 -9.37, -3.27 -10.3 M-3.27 -10.3 C-2.92 -10.6, -2.58 -10.89, -1.55 -11.77 M-3.27 -10.3 C-2.86 -10.65, -2.46 -10.99, -1.55 -11.77 M-1.55 -11.77 C-0.93 -11.7, -0.31 -11.64, 0.96 -11.51 M-1.55 -11.77 C-0.85 -11.7, -0.16 -11.63, 0.96 -11.51 M0.96 -11.51 C1.48 -11.26, 1.99 -11.01, 2.95 -10.54 M0.96 -11.51 C1.66 -11.17, 2.35 -10.83, 2.95 -10.54 M2.95 -10.54 C3.59 -9.89, 4.23 -9.24, 4.65 -8.82 M2.95 -10.54 C3.35 -10.13, 3.75 -9.73, 4.65 -8.82 M4.65 -8.82 C5.01 -8.42, 5.37 -8.03, 6.4 -6.9 M4.65 -8.82 C5.22 -8.19, 5.8 -7.56, 6.4 -6.9 M6.4 -6.9 C6.67 -6.08, 6.95 -5.26, 7.34 -4.09 M6.4 -6.9 C6.68 -6.06, 6.96 -5.21, 7.34 -4.09 M7.34 -4.09 C7.35 -4.08, 7.36 -4.07, 7.37 -4.06 M7.34 -4.09 C7.35 -4.08, 7.36 -4.07, 7.37 -4.06 M7.37 -4.06 C5.3 -2.92, 3.23 -1.78, 0 0 M7.37 -4.06 C4.95 -2.73, 2.54 -1.4, 0 0 M0 0 C0 0, 0 0, 0 0 M0 0 C0 0, 0 0, 0 0" stroke="transparent" stroke-width="4" fill="none"></path></g></g><mask></mask><g stroke-linecap="round"><g stroke-opacity="0.6" fill-opacity="0.6" transform="translate(108.30660066108675 180.54506257113917) rotate(0 -0.0911780905211117 1.7303138738444659)" fill-rule="evenodd"><path d="M0 0 L0.22 9.35 L-0.39 10.61 L-2.47 10.15 L-3.35 8.97 L-4.06 7.54 L-3.75 -3.42 L3.41 -7.15 L3.88 -4.72 L3.24 -1.26 L2.37 -0.48 L0 0" stroke="none" stroke-width="0" fill="#9775fa" fill-rule="evenodd"></path><path d="M0 0 C0.07 3.17, 0.15 6.35, 0.22 9.35 M0 0 C0.07 3.04, 0.14 6.09, 0.22 9.35 M0.22 9.35 C0.02 9.76, -0.18 10.17, -0.39 10.61 M0.22 9.35 C-0.01 9.82, -0.24 10.29, -0.39 10.61 M-0.39 10.61 C-0.87 10.5, -1.35 10.4, -2.47 10.15 M-0.39 10.61 C-1.22 10.43, -2.05 10.25, -2.47 10.15 M-2.47 10.15 C-2.67 9.88, -2.87 9.61, -3.35 8.97 M-2.47 10.15 C-2.77 9.75, -3.07 9.34, -3.35 8.97 M-3.35 8.97 C-3.53 8.61, -3.71 8.25, -4.06 7.54 M-3.35 8.97 C-3.58 8.52, -3.8 8.06, -4.06 7.54 M-4.06 7.54 C-3.95 3.67, -3.84 -0.2, -3.75 -3.42 M-4.06 7.54 C-3.94 3.3, -3.82 -0.94, -3.75 -3.42 M-3.75 -3.42 C-0.99 -4.85, 1.77 -6.29, 3.41 -7.15 M-3.75 -3.42 C-2.12 -4.27, -0.48 -5.12, 3.41 -7.15 M3.41 -7.15 C3.59 -6.21, 3.77 -5.27, 3.88 -4.72 M3.41 -7.15 C3.56 -6.38, 3.71 -5.6, 3.88 -4.72 M3.88 -4.72 C3.72 -3.84, 3.56 -2.95, 3.24 -1.26 M3.88 -4.72 C3.63 -3.36, 3.38 -2, 3.24 -1.26 M3.24 -1.26 C2.96 -1.01, 2.68 -0.75, 2.37 -0.48 M3.24 -1.26 C3.04 -1.08, 2.84 -0.9, 2.37 -0.48 M2.37 -0.48 C1.79 -0.36, 1.21 -0.24, 0 0 M2.37 -0.48 C1.65 -0.33, 0.92 -0.19, 0 0 M0 0 C0 0, 0 0, 0 0 M0 0 C0 0, 0 0, 0 0" stroke="transparent" stroke-width="4" fill="none"></path></g></g><mask></mask><g stroke-linecap="round"><g transform="translate(107.33045898890344 178.85559831438263) rotate(0 2.1247010388397882 -1.2638892052166284)" fill-rule="evenodd"><path d="M0 0 L3.92 -2.71 L4.25 -1.71 L2.95 0.07 L1.49 0.18" stroke="none" stroke-width="0" fill="#e5f2ff" fill-rule="evenodd"></path><path d="M0 0 C0.79 -0.55, 1.59 -1.09, 3.92 -2.71 M0 0 C1.17 -0.81, 2.35 -1.62, 3.92 -2.71 M3.92 -2.71 C4.05 -2.32, 4.17 -1.94, 4.25 -1.71 M3.92 -2.71 C4.02 -2.4, 4.12 -2.09, 4.25 -1.71 M4.25 -1.71 C3.97 -1.32, 3.68 -0.93, 2.95 0.07 M4.25 -1.71 C3.91 -1.25, 3.57 -0.78, 2.95 0.07 M2.95 0.07 C2.47 0.1, 1.99 0.14, 1.49 0.18 M2.95 0.07 C2.38 0.11, 1.81 0.15, 1.49 0.18 M1.49 0.18 C0.94 0.11, 0.38 0.05, 0 0 M1.49 0.18 C1.09 0.13, 0.69 0.08, 0 0" stroke="transparent" stroke-width="1" fill="none"></path></g></g><mask></mask><g stroke-linecap="round"><g stroke-opacity="0.8" fill-opacity="0.8" transform="translate(139.03903625089941 159.44429835845858) rotate(0 32.62812091528892 27.631322985318775)" fill-rule="evenodd"><path d="M1.64 -1.77 L0.6 -7.57 L2.7 -9.32 L3.3 -4.14 L0.11 -1.45 L0.45 7.7 L-2.18 37.21 L2.42 58.07 L0.51 63.54 L1.51 61.9 L55.83 33.8 L63.04 29.92 L65.78 26.83 L4.87 -4.21" stroke="none" stroke-width="0" fill="#eebefa" fill-rule="evenodd"></path><path d="M0 0 C0.27 -2.56, 0.23 -4.18, 0.37 -6.56 M0 0 C0.2 -2.2, 0.51 -4.92, 0.37 -6.56 M0.37 -6.56 C1.73 -6.58, 2.61 -6.92, 3.9 -7.34 M0.37 -6.56 C1.57 -6.89, 2.87 -7.04, 3.9 -7.34 M3.9 -7.34 C4.34 -6.67, 3.8 -5.77, 4.12 -3.17 M3.9 -7.34 C3.79 -6.24, 4.05 -5.41, 4.12 -3.17 M4.12 -3.17 C3.09 -2.79, 2.08 -1.27, 0.21 -0.68 M4.12 -3.17 C2.99 -2.41, 2.27 -1.94, 0.21 -0.68 M0.21 -0.68 C0.32 2.09, -0.09 5.51, 0.22 7.29 M0.21 -0.68 C0.38 0.82, 0.3 3.14, 0.22 7.29 M0.22 7.29 C1.76 14.49, -0.81 27.18, -0.22 39.17 M0.22 7.29 C0.78 19.97, -0.31 30.71, -0.22 39.17 M-0.22 39.17 C-1.17 45.48, 0.87 52.3, 0.66 57.78 M-0.22 39.17 C1.02 44.81, 0.65 52.08, 0.66 57.78 M0.66 57.78 C0.52 59.66, -0.08 61.41, 0.15 62.44 M0.66 57.78 C0.36 59.29, 0.13 60.44, 0.15 62.44 M0.15 62.44 C1.14 62.6, 1.51 62.73, 2.31 62.61 M0.15 62.44 C1.02 62.59, 1.8 62.58, 2.31 62.61 M2.31 62.61 C13.67 57.84, 28.23 47.93, 57.79 34.25 M2.31 62.61 C21 53.91, 40.65 44.46, 57.79 34.25 M57.79 34.25 C59.1 33.5, 60.65 31.97, 64.07 30.38 M57.79 34.25 C59.36 33.71, 60.37 32.8, 64.07 30.38 M64.07 30.38 C64.68 29.63, 65.02 28.84, 65.47 27.86 M64.07 30.38 C64.66 29.47, 64.91 28.59, 65.47 27.86 M65.47 27.86 C48.46 16.68, 30.2 8.32, 4.31 -2.83 M65.47 27.86 C42.19 15.6, 17.82 3.34, 4.31 -2.83 M4.31 -2.83 C2.76 -1.31, 1.21 -0.43, 0 0 M4.31 -2.83 C3.27 -2.19, 2.4 -1.51, 0 0" stroke="transparent" stroke-width="2" fill="none"></path></g></g><mask></mask><g stroke-linecap="round"><g transform="translate(108.53049424997727 179.37069802423025) rotate(0 -1.9101210648417748 -2.107905494304532)"><path d="M0 0 C0.08 3.48, 0.45 6.55, 0.22 9.35 M0 0 C0.29 3.42, 0.21 7.24, 0.22 9.35 M0.22 9.35 C0.01 9.83, -0.16 10.3, -0.39 10.61 M0.22 9.35 C-0.01 9.77, -0.21 10.14, -0.39 10.61 M-0.39 10.61 C-1.19 10.4, -1.94 10.24, -2.47 10.15 M-0.39 10.61 C-0.81 10.47, -1.24 10.42, -2.47 10.15 M-2.47 10.15 C-2.61 9.93, -2.92 9.52, -3.35 8.97 M-2.47 10.15 C-2.75 9.73, -3.07 9.29, -3.35 8.97 M-3.35 8.97 C-3.65 8.47, -3.96 7.82, -4.06 7.54 M-3.35 8.97 C-3.49 8.69, -3.66 8.37, -4.06 7.54 M-4.06 7.54 C-4.25 5.6, -3.68 2.5, -3.96 -2.25 M-4.06 7.54 C-4.1 5.27, -4 3.39, -3.96 -2.25 M-3.96 -2.25 C-4.44 -2.89, -4.99 -3.62, -6.25 -5.47 M-3.96 -2.25 C-4.46 -2.87, -4.89 -3.73, -6.25 -5.47 M-6.25 -5.47 C-6.64 -6.12, -6.84 -6.87, -7.41 -8.01 M-6.25 -5.47 C-6.65 -6.26, -6.89 -6.96, -7.41 -8.01 M-7.41 -8.01 C-7.65 -8.63, -7.42 -9.48, -7.7 -11.17 M-7.41 -8.01 C-7.56 -9.13, -7.68 -10.27, -7.7 -11.17 M-7.7 -11.17 C-7.55 -11.83, -7.39 -12.28, -7.2 -13.36 M-7.7 -11.17 C-7.6 -11.57, -7.55 -12.08, -7.2 -13.36 M-7.2 -13.36 C-6.65 -13.9, -6.3 -14.24, -5.48 -14.82 M-7.2 -13.36 C-6.69 -13.79, -6.16 -14.26, -5.48 -14.82 M-5.48 -14.82 C-4.6 -14.82, -3.87 -14.69, -2.97 -14.57 M-5.48 -14.82 C-4.82 -14.81, -4.08 -14.62, -2.97 -14.57 M-2.97 -14.57 C-2.39 -14.37, -1.9 -14, -0.98 -13.6 M-2.97 -14.57 C-2.48 -14.35, -1.99 -14.07, -0.98 -13.6 M-0.98 -13.6 C-0.5 -13.14, -0.23 -12.74, 0.71 -11.88 M-0.98 -13.6 C-0.52 -13.11, 0 -12.71, 0.71 -11.88 M0.71 -11.88 C1.13 -11.33, 1.74 -10.69, 2.47 -9.96 M0.71 -11.88 C1.11 -11.44, 1.69 -10.87, 2.47 -9.96 M2.47 -9.96 C2.72 -9.21, 3.04 -8.25, 3.41 -7.15 M2.47 -9.96 C2.75 -9.23, 3 -8.35, 3.41 -7.15 M3.41 -7.15 C3.48 -6.59, 3.67 -6.12, 3.88 -4.72 M3.41 -7.15 C3.46 -6.63, 3.56 -6.16, 3.88 -4.72 M3.88 -4.72 C3.52 -3.4, 3.47 -2.29, 3.24 -1.26 M3.88 -4.72 C3.6 -3.36, 3.33 -2.04, 3.24 -1.26 M3.24 -1.26 C2.99 -1.06, 2.73 -0.74, 2.37 -0.48 M3.24 -1.26 C3.04 -1.11, 2.81 -0.88, 2.37 -0.48 M2.37 -0.48 C1.54 -0.2, 0.49 -0.05, 0 0 M2.37 -0.48 C1.74 -0.3, 1.14 -0.18, 0 0" stroke="transparent" stroke-width="2" fill="none"></path></g></g><mask></mask><g stroke-linecap="round"><g stroke-opacity="0.9" fill-opacity="0.9" transform="translate(83.80963359681635 126.85768189375767) rotate(0 56.75563102594455 14.296808522480887)"><path d="M0 0 C15.82 8.02, 30.81 15.15, 55.78 28.59 M0 0 C19.96 10.92, 39.95 21.12, 55.78 28.59 M55.78 28.59 C78.5 20.65, 98.6 8.08, 113.51 2.91 M55.78 28.59 C71.47 20.45, 89.43 14.62, 113.51 2.91" stroke="#ffffff" stroke-width="2" fill="none"></path></g></g><mask></mask><g stroke-linecap="round"><g stroke-opacity="0.9" fill-opacity="0.9" transform="translate(140.56525276846475 156.9619037354978) rotate(0 0.21580745913743726 32.26223419806115)"><path d="M0 0 C2.16 24.24, 1.73 49.02, 0.43 64.52 M0 0 C0.73 16.42, 0.97 31.49, 0.43 64.52" stroke="#ffffff" stroke-width="2" fill="none"></path></g></g><mask></mask><g stroke-linecap="round"><g transform="translate(199.9629380626435 193.36019098814495) rotate(0 -1.2904938218239579 32.568293204052)" fill-rule="evenodd"><path d="M-1.03 -0.46 L-6.03 2.07 L-58.04 30.29 L-57.53 34.28 L-59.14 32.41 L-4.99 65.47 L0.76 65.94 L4.29 62.8 L14.94 57.35 L52.43 38.2 L54.73 33.13 L17.47 3.85 L9.94 -1.58 L5.31 -0.55 L0.88 1.83" stroke="none" stroke-width="0" fill="#d0bfff" fill-rule="evenodd"></path><path d="M0 0 C-1.8 1.67, -4.75 2.26, -6.33 3.11 M0 0 C-2 1.19, -4.34 2.53, -6.33 3.11 M-6.33 3.11 C-26.83 12.18, -45.46 22.99, -58.59 31.67 M-6.33 3.11 C-19.84 10.46, -32.98 17.61, -58.59 31.67 M-58.59 31.67 C-58.39 32.03, -58.35 32.32, -57.91 32.85 M-58.59 31.67 C-58.46 32.07, -58.16 32.31, -57.91 32.85 M-57.91 32.85 C-57.84 32.87, -57.8 32.87, -57.62 32.85 M-57.91 32.85 C-57.84 32.85, -57.76 32.84, -57.62 32.85 M-57.62 32.85 C-46.94 41.41, -31.84 48.6, -6.54 66.01 M-57.62 32.85 C-44.57 41.22, -28.6 51.5, -6.54 66.01 M-6.54 66.01 C-4.22 65.66, -3.28 65.62, 0.51 65.05 M-6.54 66.01 C-4.01 65.81, -1.39 65.47, 0.51 65.05 M0.51 65.05 C2.08 64.97, 4.46 65.22, 5.18 64.74 M0.51 65.05 C1.63 64.81, 2.7 64.89, 5.18 64.74 M5.18 64.74 C7.66 62.66, 8.49 63.02, 14.47 58.75 M5.18 64.74 C8.47 62.13, 11.72 61.22, 14.47 58.75 M14.47 58.75 C27.66 51.56, 37.86 44.85, 54.02 37.5 M14.47 58.75 C27.22 52.82, 37.44 46.7, 54.02 37.5 M54.02 37.5 C54.95 36.12, 55.73 34.35, 56.01 33 M54.02 37.5 C54.59 36.34, 54.9 34.74, 56.01 33 M56.01 33 C46.47 24.7, 34.95 16.62, 16.67 4.53 M56.01 33 C42.85 24.7, 29.59 14.98, 16.67 4.53 M16.67 4.53 C13.76 2.72, 11.1 2.06, 8.3 0.01 M16.67 4.53 C13.03 3.22, 9.96 1.5, 8.3 0.01 M8.3 0.01 C6.58 -0.07, 4.66 -0.18, 3.62 -0.88 M8.3 0.01 C6.65 -0.2, 4.68 -0.87, 3.62 -0.88 M3.62 -0.88 C2.51 -0.61, 1.45 -0.04, 0 0 M3.62 -0.88 C2.75 -0.9, 2.02 -0.62, 0 0 M0 0 C0 0, 0 0, 0 0 M0 0 C0 0, 0 0, 0 0" stroke="#ffffff" stroke-width="4" fill="none"></path></g></g><mask></mask><g stroke-linecap="round"><g transform="translate(141.2921222616306 225.69512308120375) rotate(0 57.87751214728843 12.142610178283348)"><path d="M0 0 C11.48 8.55, 26.22 17.97, 38.09 26.26 M0 0 C14.78 10.5, 29.41 19.71, 38.09 26.26 M38.09 26.26 C42.47 26.73, 43.95 31.19, 52.48 34.48 M38.09 26.26 C43.5 29.21, 49.26 32.12, 52.48 34.48 M52.48 34.48 C53.71 34.57, 56.16 33.92, 60.7 34.48 M52.48 34.48 C55.63 34.22, 57.73 34.63, 60.7 34.48 M60.7 34.48 C62.77 33.83, 64.71 32.94, 69.95 29.8 M60.7 34.48 C63.97 32.65, 66.34 31.04, 69.95 29.8 M69.95 29.8 C85.36 21.51, 98.41 13.02, 110.62 7.76 M69.95 29.8 C86.84 22.18, 101.2 12.07, 110.62 7.76 M110.62 7.76 C112.09 5.39, 114.95 2.12, 115.76 1.13 M110.62 7.76 C112.03 6.33, 113.28 4.38, 115.76 1.13 M115.76 1.13 C110.42 -1.34, 100.07 -8.62, 97.08 -10.2 M115.76 1.13 C109.7 -2.63, 102.92 -6.23, 97.08 -10.2" stroke="#000000" stroke-width="2" fill="none"></path></g></g><mask></mask><g stroke-linecap="round"><g transform="translate(191.9787673384199 149.846568504963) rotate(359.40836861563287 2.2780214056120087 46.55797207036244)" fill-rule="evenodd"><path d="M0.33 -0.6 L-3.61 0.34 L-33.38 21.6 L-38.55 23.55 L-38.54 23.99 L-38.55 64.12 L-40.72 69.48 L-39.8 69 L-34.85 70.68 L-22.34 80.61 L-3.98 91.97 L-0.19 95.29 L4.3 94.9 L6.13 92.27 L37.51 72.76 L41.88 68.98 L42.99 67.23 L42.21 23.03 L43.49 21.56 L39.64 21.98 L11.13 4.58 L6.37 -0.74 L0.45 -0.1 L0.7 0.69" stroke="none" stroke-width="0" fill="#00bc8e" fill-rule="evenodd"></path><path d="M0 0 C-1.28 1.08, -2.74 1.97, -3.99 2.17 M0 0 C-1.03 0.74, -2.62 1.34, -3.99 2.17 M-3.99 2.17 C-11.5 7.05, -15.25 8.87, -34.57 20.23 M-3.99 2.17 C-12.36 5.8, -20.66 11.66, -34.57 20.23 M-34.57 20.23 C-35.81 20.72, -36.73 21.41, -38.12 22.54 M-34.57 20.23 C-36.14 21.23, -37.42 22.12, -38.12 22.54 M-38.12 22.54 C-38.56 23.49, -38.67 24.03, -38.91 24.57 M-38.12 22.54 C-38.38 22.98, -38.47 23.54, -38.91 24.57 M-38.91 24.57 C-39.21 36.55, -37 48.88, -38.91 63.88 M-38.91 24.57 C-38.95 34.15, -37.67 46.06, -38.91 63.88 M-38.91 63.88 C-38.73 64.81, -39.22 66.32, -38.91 67.93 M-38.91 63.88 C-38.73 65.03, -38.71 66.41, -38.91 67.93 M-38.91 67.93 C-38.79 68.5, -38.34 69.33, -38.12 70.13 M-38.91 67.93 C-38.83 68.44, -38.59 69.02, -38.12 70.13 M-38.12 70.13 C-37.53 70.39, -36.81 71.25, -35.81 72.44 M-38.12 70.13 C-37.65 70.66, -37.14 71.18, -35.81 72.44 M-35.81 72.44 C-31.83 73.94, -29.16 78.39, -20.38 81.28 M-35.81 72.44 C-31 74.35, -26.54 78.54, -20.38 81.28 M-20.38 81.28 C-15.65 84.23, -10.18 87.39, -3.05 91.54 M-20.38 81.28 C-14.68 85.07, -7.9 89.29, -3.05 91.54 M-3.05 91.54 C-1.91 92.2, -0.66 92.64, 0.65 93.73 M-3.05 91.54 C-1.74 92.29, -0.15 93.01, 0.65 93.73 M0.65 93.73 C1.55 93.49, 2.16 93.34, 3.39 93.39 M0.65 93.73 C1.81 93.48, 2.86 93.46, 3.39 93.39 M3.39 93.39 C5.37 92.38, 6.53 92.32, 7.77 91.33 M3.39 93.39 C4.96 92.63, 6.39 91.98, 7.77 91.33 M7.77 91.33 C15.24 85.9, 25.29 79.06, 38.6 73.38 M7.77 91.33 C14 87.48, 20.36 84.46, 38.6 73.38 M38.6 73.38 C39.5 72.88, 40.5 72.05, 42.57 70.64 M38.6 73.38 C39.55 72.61, 40.76 71.82, 42.57 70.64 M42.57 70.64 C43.02 69.9, 43.13 69.63, 43.46 68.86 M42.57 70.64 C42.77 70.05, 43.08 69.6, 43.46 68.86 M43.46 68.86 C43.44 59.98, 42.63 51.13, 43.46 24.95 M43.46 68.86 C43.53 60.09, 43.34 48.79, 43.46 24.95 M43.46 24.95 C43.06 24.28, 42.68 23.82, 42.23 22.27 M43.46 24.95 C43.15 23.96, 42.54 23.16, 42.23 22.27 M42.23 22.27 C41.34 21.8, 39.92 20.44, 39.22 20.01 M42.23 22.27 C41.23 21.34, 40.09 20.78, 39.22 20.01 M39.22 20.01 C34.19 17.71, 25.05 11.5, 10.51 3.16 M39.22 20.01 C30.01 14.09, 21.74 10.04, 10.51 3.16 M10.51 3.16 C9.1 1.86, 6.69 1.4, 5.24 0.01 M10.51 3.16 C8.48 2.05, 6.87 1.04, 5.24 0.01 M5.24 0.01 C4.58 -0.11, 3.37 -0.58, 2.28 -0.61 M5.24 0.01 C4.04 -0.1, 3.03 -0.4, 2.28 -0.61 M2.28 -0.61 C1.47 -0.55, 0.87 -0.13, 0 0 M2.28 -0.61 C1.62 -0.42, 1.08 -0.35, 0 0 M0 0 C0 0, 0 0, 0 0 M0 0 C0 0, 0 0, 0 0" stroke="#000000" stroke-width="2" fill="none"></path></g></g><mask></mask><g stroke-linecap="round" transform="translate(163.51463324128395 194.4433148908879) rotate(359.40836861563287 30.6452845516188 17.739930575101084)"><path d="M30.64 -0.47 L60.23 19.74 L29.22 34.77 L1.92 19.52" stroke="none" stroke-width="0" fill="#e5f2ff" fill-rule="evenodd"></path><path d="M31 0 C42.04 6.83, 50.27 11.96, 61.29 18 M31 0 C41.85 6.55, 53.1 14.11, 61.29 18 M61.29 18 C56.95 20.89, 47.91 24.68, 31 35.48 M61.29 18 C52.89 22.36, 46.22 25.73, 31 35.48 M31 35.48 C22.18 28.16, 13.37 25.86, 0 18 M31 35.48 C22.82 31.65, 16.1 26.5, 0 18 M0 18 C11.61 11.07, 21.7 6.03, 31 0 M0 18 C7.73 13.35, 14.61 10.47, 31 0" stroke="transparent" stroke-width="2" fill="none"></path></g><g stroke-linecap="round"><g transform="translate(163.5713155989476 181.33382024983712) rotate(359.40836861563287 15.351517109127116 6.080547648237825)" fill-rule="evenodd"><path d="M0.13 0.85 L-0.24 31.6 L29.87 14.15 L30.51 -18.96 L23.5 -14.53 L22.08 14.76 L13.04 22.32 L12.31 -6.16 L11.07 -6.93 L0.38 -0.39" stroke="none" stroke-width="0" fill="#b8c2cc" fill-rule="evenodd"></path><path d="M0 0 C0.21 11.37, 0.87 22.76, 0 30.91 M0 0 C-0.51 10.18, -0.57 19.49, 0 30.91 M0 30.91 C10.52 24.47, 21.44 18.32, 30.49 13.85 M0 30.91 C6.51 26.93, 12.76 23.74, 30.49 13.85 M30.49 13.85 C31.37 7, 30.06 -2.4, 30.7 -18.75 M30.49 13.85 C30.99 2.16, 31.01 -9.59, 30.7 -18.75 M30.7 -18.75 C27.44 -16.61, 24.13 -15.27, 22.63 -13.93 M30.7 -18.75 C29.12 -17.68, 27.33 -16.84, 22.63 -13.93 M22.63 -13.93 C22.43 -5.66, 23.57 0.27, 22.73 15.69 M22.63 -13.93 C22.75 -7.75, 22.91 -0.77, 22.73 15.69 M22.73 15.69 C20.55 17.38, 18.26 18.83, 13.05 21.41 M22.73 15.69 C20.67 17.19, 18.76 18, 13.05 21.41 M13.05 21.41 C12.31 14.24, 12.9 6.33, 12.88 -6.95 M13.05 21.41 C12.66 12.73, 13.33 4.68, 12.88 -6.95 M12.88 -6.95 C12.58 -7.08, 12.48 -7.32, 11.89 -7.75 M12.88 -6.95 C12.51 -7.22, 12.15 -7.52, 11.89 -7.75 M11.89 -7.75 C9.2 -6.7, 6.59 -4.49, 0.79 -1.31 M11.89 -7.75 C9.55 -6.07, 6.98 -5.12, 0.79 -1.31 M0.79 -1.31 C0.6 -1, 0.26 -0.56, 0 0 M0.79 -1.31 C0.54 -0.88, 0.29 -0.48, 0 0" stroke="transparent" stroke-width="2" fill="none"></path></g></g><mask></mask><g stroke-linecap="round"><g transform="translate(224.74412531878426 181.09424830164608) rotate(359.40836861563287 -15.421253297047002 6.27374840324137)" fill-rule="evenodd"><path d="M-0.47 1.38 L-1.24 31.89 L-31.22 13.03 L-28.97 -19.95 L-23.93 -15.79 L-22.74 17.51 L-14.19 22.98 L-14.53 -5.32 L-12.71 -5.92 L0.91 -2.65" stroke="none" stroke-width="0" fill="#f4f7fa" fill-rule="evenodd"></path><path d="M0 0 C1.54 13.25, 0.41 21.64, 0 31.29 M0 0 C-1.19 8.43, 0.35 18.79, 0 31.29 M0 31.29 C-8.74 25.94, -17.5 20.71, -30.84 13.46 M0 31.29 C-9.88 25.15, -20.64 19.96, -30.84 13.46 M-30.84 13.46 C-32.01 4.46, -29.98 -1.54, -30.7 -18.75 M-30.84 13.46 C-30.44 1.69, -30.11 -8.61, -30.7 -18.75 M-30.7 -18.75 C-29.05 -17.9, -26.92 -15.5, -22.63 -13.93 M-30.7 -18.75 C-29.01 -17.84, -27.41 -16.27, -22.63 -13.93 M-22.63 -13.93 C-21.24 -8.51, -24.42 0.28, -22.73 15.69 M-22.63 -13.93 C-22.46 -2.5, -23.36 7.23, -22.73 15.69 M-22.73 15.69 C-19.39 18.3, -17.49 20.23, -13.05 21.41 M-22.73 15.69 C-19.68 16.72, -18 18.66, -13.05 21.41 M-13.05 21.41 C-12.88 10.8, -12.81 3.06, -12.88 -6.95 M-13.05 21.41 C-12.12 11.74, -13.4 2.44, -12.88 -6.95 M-12.88 -6.95 C-12.42 -7.23, -12.13 -7.46, -11.89 -7.75 M-12.88 -6.95 C-12.54 -7.26, -12.14 -7.62, -11.89 -7.75 M-11.89 -7.75 C-7.12 -5.27, -4.78 -3.52, -0.79 -1.31 M-11.89 -7.75 C-8.54 -5.65, -3.95 -3.17, -0.79 -1.31 M-0.79 -1.31 C-0.68 -0.93, -0.29 -0.42, 0 0 M-0.79 -1.31 C-0.52 -0.8, -0.19 -0.26, 0 0" stroke="transparent" stroke-width="2" fill="none"></path></g></g><mask></mask><g stroke-linecap="round"><g transform="translate(164.5012511148962 179.6648749391893) rotate(359.40836861563287 29.57466268404383 16.467878161246517)"><path d="M0 0 C-0.18 0.23, -0.42 0.52, -0.6 0.89 M0 0 C-0.19 0.37, -0.47 0.62, -0.6 0.89 M-0.6 0.89 C-2.69 7.68, -0.47 17.79, -0.96 31.84 M-0.6 0.89 C-1.29 8.11, -1.53 15.34, -0.96 31.84 M-0.96 31.84 C-0.76 32.29, -0.64 32.96, -0.62 33.19 M-0.96 31.84 C-0.79 32.23, -0.77 32.56, -0.62 33.19 M-0.62 33.19 C8.01 40.54, 18.84 46.22, 28.84 50.19 M-0.62 33.19 C8.91 39.95, 18.64 44.55, 28.84 50.19 M28.84 50.19 C29.39 50.27, 30.35 50.03, 30.6 50 M28.84 50.19 C29.21 50.07, 29.72 50.11, 30.6 50 M30.6 50 C39.26 45.45, 50.34 37.96, 59.25 33.11 M30.6 50 C41.18 43.73, 53.02 36.25, 59.25 33.11 M59.25 33.11 C59.49 32.73, 59.82 32.35, 60.11 31.98 M59.25 33.11 C59.41 32.89, 59.7 32.47, 60.11 31.98 M60.11 31.98 C60.93 21.01, 61.47 8.15, 59.94 1 M60.11 31.98 C59.78 21.32, 60.96 12.26, 59.94 1 M59.94 1 C59.62 0.56, 59.75 0.31, 59.23 -0.63 M59.94 1 C59.67 0.35, 59.39 -0.26, 59.23 -0.63 M59.23 -0.63 C57.52 -1.02, 56.39 -2.95, 49.98 -5.66 M59.23 -0.63 C56.04 -1.94, 52.57 -3.81, 49.98 -5.66 M49.98 -5.66 C49.56 -5.68, 49.12 -6.1, 48.38 -6.34 M49.98 -5.66 C49.6 -5.72, 49.25 -5.86, 48.38 -6.34 M48.38 -6.34 C48.11 -5.89, 48.04 -5.64, 47.65 -5.12 M48.38 -6.34 C48.15 -5.96, 48.03 -5.59, 47.65 -5.12 M47.65 -5.12 C46.82 3.49, 47.33 13.54, 47.31 22.51 M47.65 -5.12 C47.88 3.41, 47.06 11.97, 47.31 22.51 M47.31 22.51 C44.54 21.26, 42.78 18.73, 38.1 17.23 M47.31 22.51 C45.5 21.75, 43.33 20.2, 38.1 17.23 M38.1 17.23 C37.53 11.68, 36.78 6.1, 37.23 -11.69 M38.1 17.23 C37.08 10.34, 38.42 3.62, 37.23 -11.69 M37.23 -11.69 C33.96 -13.24, 31.87 -15.95, 29.75 -17.25 M37.23 -11.69 C34.95 -13.71, 32.63 -15.78, 29.75 -17.25 M29.75 -17.25 C27.51 -15.13, 22.89 -13.92, 21.68 -12.44 M29.75 -17.25 C27.23 -16.01, 25.09 -14.09, 21.68 -12.44 M21.68 -12.44 C20.57 -6.94, 21.98 2.14, 21.77 17.18 M21.68 -12.44 C22.28 -7.1, 20.69 0.56, 21.77 17.18 M21.77 17.18 C17.43 19.97, 15.29 21.2, 12.17 23.27 M21.77 17.18 C18.51 19.49, 14.11 22.09, 12.17 23.27 M12.17 23.27 C10.34 16.77, 12.63 9.78, 11.92 -5.45 M12.17 23.27 C11.86 13.5, 12.66 5.61, 11.92 -5.45 M11.92 -5.45 C11.56 -5.71, 11.24 -6.04, 10.93 -6.25 M11.92 -5.45 C11.72 -5.63, 11.46 -5.73, 10.93 -6.25 M10.93 -6.25 C9.12 -4.53, 5.8 -2.9, 0 0 M10.93 -6.25 C8.12 -4.74, 6.29 -3.63, 0 0" stroke="#000000" stroke-width="2" fill="none"></path></g></g><mask></mask><g stroke-linecap="round" transform="translate(10 10) rotate(0 143.28773842399605 141.5397032318839)"><path d="M0 0 C63.23 0, 126.45 0, 286.58 0 M0 0 C77.54 0, 155.07 0, 286.58 0 M286.58 0 C286.58 111.24, 286.58 222.49, 286.58 283.08 M286.58 0 C286.58 113.17, 286.58 226.33, 286.58 283.08 M286.58 283.08 C189.78 283.08, 92.99 283.08, 0 283.08 M286.58 283.08 C202.08 283.08, 117.59 283.08, 0 283.08 M0 283.08 C0 182.84, 0 82.6, 0 0 M0 283.08 C0 177.13, 0 71.18, 0 0" stroke="transparent" stroke-width="1" fill="none"></path></g></svg>