<svg width="37" height="36" viewBox="0 0 37 36" fill="none" xmlns="http://www.w3.org/2000/svg">
<path d="M33.1603 17.0264C31.406 16.7747 21.8324 15.7046 20.9095 17.5098C20.4878 18.3347 21.4877 27.0221 21.3844 31.2694C21.3486 32.7426 34.3633 30.9767 34.5506 30.3671C34.7379 29.7574 34.9207 23.7724 34.373 20.5831" stroke="#00BC8E" stroke-width="3" stroke-linecap="round"/>
<path d="M26.571 12.1073C26.133 9.67848 26.6179 7.41365 26.7813 5.23831C26.8468 4.36635 14.4855 5.17115 12.5089 5.00205C11.4706 4.91323 11.4418 20.8944 11.9503 20.9892C13.7952 21.3331 15.0795 21.2204 16.9014 20.9263" stroke="#00BC8E" stroke-width="3" stroke-linecap="round"/>
<path d="M7.64468 13.469C6.32046 13.279 3.974 13.5126 2.67903 14.0877C1.45103 14.633 2.33459 28.1155 2.84348 28.5414C3.17415 28.8181 6.36702 28.4323 10.1306 28.5414C13.8941 28.6504 15.8786 28.8515 16.6978 28.966" stroke="#00BC8E" stroke-width="3" stroke-linecap="round"/>
</svg>
