<svg width="36" height="36" viewBox="0 0 36 36" fill="none" xmlns="http://www.w3.org/2000/svg" color="#002E5D">
  <path
    d="M18.0011 0.00112506C8.05663 0.00112506 0 8.0645 0 18.0023C0 25.9599 5.15732 32.7047 12.3049 35.0842C13.2083 35.2541 13.5346 34.6972 13.5346 34.2156C13.5346 33.7881 13.5245 32.6574 13.5177 31.1566C8.50778 32.2411 7.45247 28.7365 7.45247 28.7365C6.63229 26.6619 5.44872 26.105 5.44872 26.105C3.81961 24.9923 5.5781 25.0159 5.5781 25.0159C7.38271 25.1386 8.33227 26.8667 8.33227 26.8667C9.93775 29.6209 12.5445 28.8243 13.5762 28.3608C13.7337 27.2008 14.2029 26.4032 14.7137 25.9587C10.7174 25.5076 6.51528 23.9606 6.51528 17.0628C6.51528 15.0928 7.21283 13.4885 8.36602 12.2284C8.16689 11.7772 7.5571 9.94337 8.52466 7.46372C8.52466 7.46372 10.0311 6.98331 13.475 9.30996C14.9162 8.91056 16.4463 8.71142 17.9752 8.70129C19.5053 8.71142 21.0343 8.91168 22.4755 9.30996C25.8991 6.98331 27.4045 7.46372 27.4045 7.46372C28.3709 9.94337 27.7611 11.7761 27.5856 12.2284C28.7275 13.4885 29.4251 15.0939 29.4251 17.0628C29.4251 23.9764 25.2173 25.5008 21.2166 25.9407C21.8421 26.4797 22.4283 27.5878 22.4283 29.2698C22.4283 31.6775 22.4058 33.6171 22.4058 34.2033C22.4058 34.6713 22.7208 35.2338 23.6479 35.0527C30.8483 32.6979 36 25.9475 36 18.0011C36 8.06338 27.9434 0 17.9989 0L18.0011 0.00112506Z"
    fill="currentColor" />
</svg>