<svg width="60" height="26" viewBox="0 0 60 26" fill="none" xmlns="http://www.w3.org/2000/svg">
  <svg y="5">
    <path
      d="M11.4613 11.7679L10.7861 11.737H4.71657L12.8068 3.41272L12.7743 2.71796C12.7616 2.17951 12.548 1.66674 12.1779 1.28589C11.8078 0.905039 11.3094 0.68532 10.7861 0.672261L10.1109 0.63881H0L0.0350117 1.33357C0.12004 2.46063 0.917806 3.31494 2.02067 3.37927L2.6959 3.41272H8.76792L0.672724 11.737L0.707736 12.4292C0.745248 13.5434 1.61304 14.4363 2.6959 14.4775L3.37112 14.5109H13.4845L13.4495 13.8162C13.3595 12.6762 12.5742 11.84 11.4613 11.7679ZM19.5565 0.63881H19.5465C17.7593 0.639834 16.0457 1.37118 14.7826 2.672C13.5194 3.97283 12.81 5.73663 12.8105 7.57551C12.811 9.4144 13.5213 11.1778 14.7852 12.4779C16.0491 13.778 17.7631 14.5084 19.5503 14.5084C21.3374 14.5084 23.0514 13.778 24.3153 12.4779C25.5792 11.1778 26.2895 9.4144 26.29 7.57551C26.2905 5.73663 25.5812 3.97283 24.318 2.672C23.0548 1.37118 21.3437 0.639834 19.5565 0.63881ZM22.41 10.5173C22.0379 10.9197 21.5914 11.2414 21.0966 11.4636C20.6019 11.6857 20.069 11.8037 19.5292 11.8107C18.9895 11.8177 18.4538 11.7135 17.9538 11.5042C17.4538 11.2949 16.9996 10.9849 16.6178 10.5922C16.236 10.1996 15.9345 9.7323 15.7309 9.21792C15.5273 8.70354 15.4258 8.15244 15.4323 7.59708C15.4389 7.04172 15.5534 6.49332 15.769 5.98417C15.9847 5.47502 16.2972 5.01542 16.6881 4.63242C17.4527 3.88324 18.4717 3.47126 19.5275 3.48444C20.5832 3.49761 21.5922 3.93489 22.339 4.70293C23.0857 5.47097 23.5112 6.50893 23.5244 7.59526C23.5377 8.68159 23.1377 9.73022 22.41 10.5173ZM54.6007 0.641382C53.8368 0.641973 53.0817 0.809507 52.3854 1.13289C51.6892 1.45628 51.0676 1.92814 50.5619 2.51725C50.0563 1.92558 49.4338 1.45174 48.736 1.12736C48.0382 0.802987 47.2812 0.63555 46.5155 0.636236C45.4385 0.634658 44.3859 0.966385 43.4945 1.58832C42.9693 0.988764 41.7939 0.636236 41.1237 0.636236V14.5109L41.7989 14.4775C42.9243 14.4003 43.7421 13.5794 43.7871 12.4292L43.8196 11.7344V6.87882L43.8546 6.18406C43.8796 5.66427 43.9547 5.20109 44.1847 4.79453C44.3621 4.47925 44.598 4.203 44.8791 3.98155C45.1602 3.76011 45.481 3.59779 45.823 3.50389C46.1651 3.40998 46.5218 3.38632 46.8727 3.43426C47.2237 3.48219 47.562 3.60079 47.8685 3.78326C48.2751 4.02581 48.6131 4.37354 48.8488 4.79195C49.0814 5.20367 49.1489 5.66427 49.1789 6.18148L49.2139 6.87882V11.7344L49.2464 12.4266C49.3139 13.5588 50.1217 14.4029 51.2346 14.4749L51.9098 14.5084V6.87882L51.9398 6.18406C51.9648 5.66942 52.0398 5.19595 52.2749 4.78681C53.0227 3.46418 54.6732 3.0113 55.9586 3.78326C56.3656 4.02652 56.7036 4.37517 56.939 4.79453C57.1691 5.20624 57.2391 5.67714 57.2666 6.18406L57.3016 6.87882V11.7344L57.3341 12.4266C57.4041 13.5666 58.2094 14.408 59.3248 14.4749L60 14.5084V6.18406C59.9993 5.45495 59.8591 4.73312 59.5872 4.05981C59.3154 3.3865 58.9173 2.77489 58.4156 2.25993C57.914 1.74497 57.3187 1.33676 56.6637 1.0586C56.0086 0.780441 55.3068 0.637796 54.5982 0.63881L54.6007 0.641382ZM28.9421 2.66906C28.2898 3.30667 27.7681 4.07217 27.4077 4.92048C27.0474 5.76877 26.8557 6.68271 26.8439 7.60842C26.8322 8.53413 27.0007 9.4529 27.3394 10.3106C27.6781 11.1683 28.1803 11.9475 28.8163 12.6024C29.4522 13.2573 30.2092 13.7746 31.0425 14.1238C31.8757 14.473 32.7685 14.6471 33.6682 14.6357C34.5679 14.6244 35.4563 14.4278 36.281 14.0577C37.1058 13.6876 37.8501 13.1514 38.4703 12.4807C39.6825 11.1697 40.3489 9.42326 40.3274 7.61388C40.3058 5.8045 39.598 4.07539 38.355 2.79537C37.1119 1.51534 35.432 0.785719 33.6735 0.762124C31.9151 0.738528 30.2172 1.42283 28.9421 2.66906ZM36.5672 10.5173C36.1933 10.9123 35.7469 11.2269 35.2539 11.4429C34.7609 11.6589 34.2311 11.772 33.6952 11.7756C33.1594 11.7792 32.6282 11.6733 32.1325 11.464C31.6367 11.2547 31.1863 10.9461 30.8074 10.5563C30.4285 10.1664 30.1287 9.70298 29.9252 9.1929C29.7218 8.68283 29.6189 8.13626 29.6224 7.58491C29.6259 7.03357 29.7358 6.48844 29.9457 5.98116C30.1557 5.47388 30.4614 5.01455 30.8453 4.62984C31.6074 3.86599 32.6313 3.44173 33.6952 3.44892C34.7592 3.45611 35.7775 3.89418 36.5298 4.66827C37.2822 5.44237 37.7079 6.4902 37.7149 7.58491C37.7219 8.67963 37.3096 9.73313 36.5672 10.5173Z"
      fill="#002E5D" />
  </svg>
</svg>