<svg xmlns="http://www.w3.org/2000/svg" viewBox="0 0 821 500">
  <path fill="#253746" d="M0 0h821v500H0z" />
  <rect width="384" height="384" x="218.5" y="74.5" fill="none" stroke="#326de6" stroke-width="3" rx="13.5" ry="13.5" />
  <path fill="none" stroke="#326de6" stroke-width="3"
    d="m238.8 156.4 71.7-41.6 71.7 41.6v83.3l-71.7 41.6-71.7-41.6v-83.3ZM338.8 320.4l71.7-41.6 71.7 41.6v83.3l-71.7 41.6-71.7-41.6v-83.3ZM437.8 156.4l71.7-41.6 71.7 41.6v83.3l-71.7 41.6-71.7-41.6v-83.3Z" />
  <g class="st3">
    <g fill="#fff" class="st3">
      <path
        d="M294.1 110.5V96.7h1.9v2.2l-.3-.2c0-.4.3-.7.6-1.1.3-.3.8-.6 1.3-.8.5-.2 1-.3 1.5-.3.9 0 1.7.2 2.3.6.7.4 1.2 1 1.6 1.8s.6 1.6.6 2.6-.2 1.8-.6 2.6-.9 1.4-1.6 1.8-1.4.7-2.3.7-1.1 0-1.7-.3c-.5-.2-1-.5-1.4-.9s-.6-.7-.7-1.1l.5-.3v6.5h-1.9.2Zm4.9-5.7c.6 0 1.1 0 1.5-.4s.8-.7 1.1-1.2.4-1.1.4-1.7 0-1.2-.4-1.7-.6-.9-1-1.2c-.4-.3-1-.4-1.5-.4s-1.1 0-1.5.4-.8.7-1.1 1.2c-.3.5-.4 1.1-.4 1.7s0 1.2.4 1.7.6.9 1.1 1.2c.4.3 1 .4 1.5.4ZM310.2 106.6c-1 0-1.8-.2-2.6-.7-.7-.4-1.3-1-1.8-1.8-.4-.8-.6-1.6-.6-2.6s.2-1.8.6-2.6c.4-.8 1-1.4 1.8-1.8.7-.4 1.6-.7 2.6-.7s1.8.2 2.5.7c.7.4 1.3 1 1.8 1.8.4.8.6 1.6.6 2.6s-.2 1.8-.6 2.6c-.4.8-1 1.4-1.8 1.8-.7.4-1.6.7-2.5.7Zm0-1.8c.6 0 1.1 0 1.6-.4s.8-.7 1.1-1.2.4-1.1.4-1.7-.1-1.2-.4-1.7-.6-.9-1.1-1.2c-.5-.3-1-.4-1.6-.4s-1.1 0-1.6.4-.8.7-1.1 1.2-.4 1.1-.4 1.7.1 1.2.4 1.7.6.9 1.1 1.2c.5.3 1 .4 1.6.4ZM321.3 106.6c-.9 0-1.7-.2-2.4-.7-.7-.4-1.3-1-1.7-1.8s-.6-1.6-.6-2.6.2-1.8.6-2.6c.4-.8.9-1.4 1.6-1.8.7-.4 1.5-.7 2.4-.7s.9 0 1.4.2.9.4 1.2.6c.4.3.6.6.8.9s.3.6.3 1h-.6v-6.5h1.9v13.7h-1.9V104h.4c0 .3 0 .6-.3.9-.2.3-.5.6-.8.8-.3.2-.7.4-1.1.6s-.9.2-1.3.2h.1Zm.3-1.7c.6 0 1.1 0 1.5-.4s.8-.7 1-1.2c.3-.5.4-1.1.4-1.8s-.1-1.2-.4-1.8c-.3-.5-.6-.9-1-1.2s-1-.4-1.5-.4-1.1 0-1.5.4-.8.7-1 1.2c-.3.5-.4 1.1-.4 1.8s.1 1.2.4 1.8c.3.5.6.9 1 1.2s1 .4 1.5.4Z" />
    </g>
  </g>
  <g class="st3">
    <g fill="#fff" class="st3">
      <path
        d="M230.8 443.4v-13h2v13h-2Zm1.7-4v-2.2l6.7-6.8h2.6l-9.3 9.1Zm6.9 4-5-6.6 1.5-1.3 6 7.9h-2.5ZM247.1 443.6c-.7 0-1.3-.2-1.8-.5s-.9-.8-1.2-1.4-.4-1.3-.4-2.1v-6h1.9v5.5c0 .6 0 1.1.3 1.5.2.4.4.7.8 1s.8.3 1.2.3.7 0 1-.2c.3-.1.6-.3.8-.5.2-.2.4-.5.5-.8s.2-.6.2-1v-5.9h1.9v9.7h-1.9v-2l.3-.2c0 .5-.4.9-.8 1.2s-.8.7-1.3.9c-.5.2-1 .3-1.6.3v.2ZM260 443.6c-.4 0-.8 0-1.3-.2-.4-.1-.8-.3-1.1-.5-.3-.2-.6-.5-.9-.8s-.4-.6-.5-.8l.5-.3v2.4h-1.9v-13.7h1.9v6.2l-.3-.2c0-.3.2-.6.4-.8.2-.3.5-.5.8-.7s.7-.4 1.1-.5.8-.2 1.2-.2c.9 0 1.7.2 2.3.6.7.4 1.2 1 1.6 1.8s.6 1.6.6 2.6-.2 1.8-.6 2.6-.9 1.4-1.6 1.8-1.4.7-2.3.7h.1Zm-.3-1.8c.6 0 1.1-.1 1.5-.4s.8-.7 1.1-1.2.4-1.1.4-1.7 0-1.2-.4-1.7-.6-.9-1-1.2c-.4-.3-1-.4-1.5-.4s-1.1.1-1.5.4-.8.7-1.1 1.2-.4 1.1-.4 1.7 0 1.2.4 1.7.6.9 1.1 1.2c.4.3 1 .4 1.5.4ZM271.2 443.6c-1 0-1.9-.2-2.7-.6s-1.4-1-1.8-1.8-.7-1.6-.7-2.6 0-1.5.4-2.1.6-1.2 1-1.6 1-.8 1.6-1.1c.6-.3 1.3-.4 2-.4s1.2.1 1.8.4c.5.2 1 .6 1.4 1s.7.9.9 1.5c.2.6.3 1.2.3 1.9v.8h-8l-.4-1.5h6.7l-.3.3v-.4c0-.4-.2-.8-.4-1.1-.2-.3-.5-.6-.9-.8-.4-.2-.7-.3-1.2-.3s-1.2.1-1.7.4-.8.6-1 1.1-.4 1.1-.4 1.8 0 1.3.4 1.8.7.9 1.2 1.2 1.1.4 1.8.4.9 0 1.3-.2.9-.5 1.3-.9l1 1.4c-.3.3-.7.6-1.1.8s-.9.4-1.4.5-.9.2-1.4.2h.3ZM277.5 443.4v-9.7h1.9v3.1l-.2-.7c0-.5.4-.9.7-1.3.3-.4.7-.7 1.1-.9.4-.2.9-.3 1.3-.3h.6c.2 0 .3 0 .5.1l-.5 2.1s-.3-.1-.5-.2h-.5c-.3 0-.7 0-1 .2s-.6.3-.8.5c-.2.2-.4.5-.5.8s-.2.6-.2 1v5.4h-1.9ZM285 443.4v-9.7h1.9v2l-.3.2c0-.4.4-.8.7-1.2.4-.4.8-.7 1.3-.9.5-.2 1-.3 1.5-.3s1.4.1 1.9.4.9.7 1.1 1.3c.2.6.4 1.3.4 2.2v5.9h-1.9v-5.8c0-.6 0-1-.2-1.4 0-.4-.4-.6-.7-.8-.3-.2-.7-.2-1.2-.2s-.7 0-1 .2c-.3.1-.6.3-.8.5-.2.2-.4.5-.5.7s-.2.6-.2.9v5.9h-2ZM300.6 443.6c-1 0-1.9-.2-2.7-.6s-1.4-1-1.8-1.8-.7-1.6-.7-2.6 0-1.5.4-2.1.6-1.2 1-1.6 1-.8 1.6-1.1c.6-.3 1.3-.4 2-.4s1.2.1 1.8.4c.5.2 1 .6 1.4 1s.7.9.9 1.5c.2.6.3 1.2.3 1.9v.8h-8l-.4-1.5h6.7l-.3.3v-.4c0-.4-.2-.8-.4-1.1-.2-.3-.5-.6-.9-.8-.4-.2-.7-.3-1.2-.3s-1.2.1-1.7.4-.8.6-1 1.1-.4 1.1-.4 1.8 0 1.3.4 1.8.7.9 1.2 1.2 1.1.4 1.8.4.9 0 1.3-.2.9-.5 1.3-.9l1 1.4c-.3.3-.7.6-1.1.8s-.9.4-1.4.5-.9.2-1.4.2h.3ZM306.1 435.5v-1.9h6.2v1.9h-6.2Zm2 7.9v-12.2h1.9v12.2h-1.9ZM318.5 443.6c-1 0-1.9-.2-2.7-.6s-1.4-1-1.8-1.8-.7-1.6-.7-2.6.1-1.5.4-2.1.6-1.2 1-1.6 1-.8 1.6-1.1c.6-.3 1.3-.4 2-.4s1.2.1 1.8.4c.5.2 1 .6 1.4 1s.7.9.9 1.5.3 1.2.3 1.9v.8h-8l-.4-1.5h6.7l-.3.3v-.4c0-.4-.2-.8-.4-1.1-.2-.3-.5-.6-.9-.8-.4-.2-.7-.3-1.2-.3s-1.2.1-1.7.4-.8.6-1 1.1-.4 1.1-.4 1.8.1 1.3.4 1.8.7.9 1.2 1.2 1.1.4 1.8.4.9 0 1.3-.2.9-.5 1.3-.9l1 1.4c-.3.3-.7.6-1.1.8s-.9.4-1.4.5-.9.2-1.4.2h.3ZM328 443.6c-.8 0-1.6-.1-2.2-.4s-1.2-.7-1.6-1.3l1.3-1.1c.4.4.8.7 1.2.9.4.2.9.3 1.5.3h.6c.2 0 .4-.1.5-.2s.3-.2.3-.4.1-.3.1-.5c0-.3-.1-.6-.4-.8-.1 0-.3-.2-.6-.3-.3-.1-.6-.2-1-.3-.7-.2-1.3-.4-1.8-.6s-.8-.5-1.1-.8c-.2-.2-.3-.5-.4-.8s-.1-.6-.1-.9 0-.8.3-1.1c.2-.3.4-.6.7-.9s.7-.4 1.1-.6c.4-.1.9-.2 1.4-.2s.9 0 1.4.2c.5.1.9.3 1.3.5s.7.5 1 .8l-1.1 1.2c-.2-.2-.5-.4-.8-.6s-.6-.3-.8-.4c-.3 0-.5-.1-.8-.1h-.7c-.2 0-.4.1-.5.2-.1 0-.3.2-.3.4s-.1.3-.1.5 0 .3.1.5c0 .1.2.3.3.4.1 0 .3.2.6.3s.6.2 1 .3c.6.2 1.1.3 1.5.5s.7.4 1 .7c.2.2.4.5.5.8 0 .3.1.7.1 1 0 .6-.2 1.1-.5 1.5s-.7.8-1.3 1c-.5.2-1.1.4-1.8.4h.1Z" />
    </g>
  </g>
  <g class="st3">
    <g fill="#fff" class="st3">
      <path
        d="M360.8 46.9 355 28.7h3l3.5 11.4c.1.3.2.6.3 1 0 .4.2.8.2 1.1s.1.7.2 1.1c0 .3.1.6.2.8h-.8c.3-.9.5-1.7.6-2.2s.3-.9.4-1.2c0-.3.2-.5.2-.7l3.3-8.2h2.5l3.2 8.2c.2.4.3.8.5 1.2s.2.8.4 1.2.2.8.3 1.3l-.7.2c0-.5.2-.8.2-1.1s0-.5.1-.7c0-.2 0-.3.1-.5 0-.2 0-.4.2-.6 0-.3.2-.6.3-1.1l3.5-11.3h3l-5.8 18.2h-2l-4.8-11.4h.2l-4.6 11.4h-1.9ZM382.1 46.9V33.2h2.7v4.3l-.3-1c.2-.7.5-1.3 1-1.8s1-1 1.6-1.3 1.2-.5 1.9-.5h.8c.3 0 .5 0 .6.2l-.7 2.9c-.2 0-.4-.2-.7-.2h-.7c-.5 0-.9 0-1.3.3-.4.2-.8.4-1.1.8s-.6.7-.8 1.1-.3.9-.3 1.4v7.5h-2.7ZM397.2 47.2c-1.1 0-2.2-.3-3.1-.9s-1.7-1.5-2.2-2.5c-.6-1.1-.8-2.3-.8-3.6s.3-2.6.8-3.7c.6-1.1 1.3-1.9 2.3-2.5s2-.9 3.2-.9 1.4 0 2 .3 1.1.5 1.5.9.8.8 1.1 1.3.5 1 .5 1.6l-.6-.2v-3.5h2.7v13.7h-2.7V44l.6-.2c-.1.5-.3.9-.6 1.4-.3.4-.7.8-1.2 1.2s-1 .6-1.6.8-1.2.3-1.9.3v-.3Zm.7-2.5c.8 0 1.5-.2 2.2-.6s1.1-.9 1.5-1.7c.4-.7.5-1.5.5-2.4s-.2-1.7-.5-2.4c-.4-.7-.8-1.2-1.5-1.6-.6-.4-1.3-.6-2.2-.6s-1.5.2-2.1.6c-.6.4-1.1.9-1.5 1.6-.4.7-.5 1.5-.5 2.4s.2 1.7.5 2.4c.4.7.8 1.3 1.5 1.7.6.4 1.3.6 2.1.6ZM408.4 52.7V33.3h2.7v3.1l-.4-.2c.1-.5.4-1 .9-1.5s1.1-.9 1.8-1.2 1.4-.5 2.2-.5c1.2 0 2.3.3 3.3.9s1.7 1.4 2.3 2.5.8 2.3.8 3.6-.3 2.6-.8 3.6-1.3 1.9-2.2 2.5c-1 .6-2 .9-3.2.9s-1.6-.2-2.3-.5-1.4-.7-1.9-1.2-.8-1-1-1.6l.7-.4v9.1h-2.7l-.2.3Zm6.8-8c.8 0 1.5-.2 2.1-.6s1.1-.9 1.5-1.6c.4-.7.5-1.5.5-2.4s-.2-1.7-.5-2.4c-.4-.7-.8-1.2-1.5-1.6-.6-.4-1.3-.6-2.2-.6s-1.5.2-2.2.6-1.1.9-1.5 1.6c-.4.7-.5 1.5-.5 2.4s.2 1.7.5 2.4c.4.7.9 1.2 1.5 1.6s1.3.6 2.2.6ZM424.9 52.7V33.3h2.7v3.1l-.4-.2c.1-.5.4-1 .9-1.5s1.1-.9 1.8-1.2 1.4-.5 2.2-.5c1.2 0 2.3.3 3.3.9 1 .6 1.7 1.4 2.3 2.5.6 1.1.8 2.3.8 3.6s-.3 2.6-.8 3.6-1.3 1.9-2.2 2.5c-1 .6-2 .9-3.2.9s-1.6-.2-2.3-.5-1.4-.7-1.9-1.2-.8-1-1-1.6l.7-.4v9.1h-2.7l-.2.3Zm6.7-8c.8 0 1.5-.2 2.1-.6s1.1-.9 1.5-1.6.5-1.5.5-2.4-.2-1.7-.5-2.4c-.4-.7-.8-1.2-1.5-1.6-.6-.4-1.3-.6-2.2-.6s-1.5.2-2.2.6-1.1.9-1.5 1.6-.5 1.5-.5 2.4.2 1.7.5 2.4.9 1.2 1.5 1.6 1.3.6 2.2.6ZM447.6 47.2c-1.4 0-2.6-.3-3.7-.9-1.1-.6-1.9-1.4-2.5-2.5s-.9-2.2-.9-3.6.2-2.1.5-2.9c.3-.9.8-1.7 1.4-2.3.6-.7 1.4-1.2 2.2-1.5.9-.4 1.8-.5 2.8-.5s1.7.2 2.5.5 1.4.8 2 1.4c.6.6 1 1.3 1.3 2.1s.4 1.7.4 2.6v1.1h-11.2l-.6-2.1h9.4l-.4.4v-.6c0-.6-.2-1.1-.6-1.5-.3-.5-.7-.8-1.2-1.1s-1-.4-1.6-.4c-.9 0-1.7.2-2.4.5-.6.4-1.1.9-1.5 1.6-.3.7-.5 1.5-.5 2.5s.2 1.8.6 2.5 1 1.2 1.7 1.6c.7.4 1.6.6 2.5.6s1.3 0 1.9-.3 1.2-.6 1.9-1.2l1.4 1.9c-.4.4-.9.8-1.5 1.1s-1.2.6-1.9.7c-.7.2-1.3.3-2 .3ZM462.2 47.2c-1.2 0-2.4-.3-3.3-.9s-1.8-1.5-2.3-2.5c-.6-1.1-.9-2.3-.9-3.7s.3-2.6.8-3.7c.6-1.1 1.3-1.9 2.3-2.5s2.1-.9 3.3-.9 1.3 0 2 .3c.6.2 1.2.5 1.7.9s.9.8 1.2 1.2c.3.4.4.9.4 1.3h-.8v-9.1h2.7v19.2h-2.7v-3.2h.5c0 .4-.1.8-.4 1.2s-.6.8-1.1 1.1-1 .6-1.6.8-1.2.3-1.8.3v.2Zm.4-2.3c.8 0 1.5-.2 2.2-.6s1.1-1 1.5-1.7.5-1.5.5-2.5-.2-1.7-.5-2.5c-.4-.7-.8-1.3-1.5-1.7s-1.3-.6-2.2-.6-1.5.2-2.2.6-1.1 1-1.5 1.7-.5 1.5-.5 2.5.2 1.7.5 2.5c.4.7.8 1.3 1.5 1.7s1.3.6 2.2.6Z" />
    </g>
  </g>
  <g class="st3">
    <g fill="#fff" class="st3">
      <path
        d="M493.1 110.5V96.7h1.9v2.2l-.3-.2c0-.4.3-.7.6-1.1.3-.3.8-.6 1.3-.8.5-.2 1-.3 1.5-.3.9 0 1.7.2 2.3.6.7.4 1.2 1 1.6 1.8s.6 1.6.6 2.6-.2 1.8-.6 2.6-.9 1.4-1.6 1.8-1.4.7-2.3.7-1.1 0-1.7-.3c-.5-.2-1-.5-1.4-.9s-.6-.7-.7-1.1l.5-.3v6.5h-1.9.2Zm4.9-5.7c.6 0 1.1 0 1.5-.4s.8-.7 1.1-1.2.4-1.1.4-1.7-.1-1.2-.4-1.7-.6-.9-1-1.2c-.4-.3-1-.4-1.5-.4s-1.1 0-1.5.4-.8.7-1.1 1.2c-.3.5-.4 1.1-.4 1.7s.1 1.2.4 1.7.6.9 1.1 1.2c.4.3 1 .4 1.5.4h-.1ZM509.2 106.6c-1 0-1.8-.2-2.6-.7-.7-.4-1.3-1-1.8-1.8-.4-.8-.6-1.6-.6-2.6s.2-1.8.6-2.6c.4-.8 1-1.4 1.8-1.8.7-.4 1.6-.7 2.6-.7s1.8.2 2.5.7c.7.4 1.3 1 1.8 1.8.4.8.6 1.6.6 2.6s-.2 1.8-.6 2.6c-.4.8-1 1.4-1.8 1.8-.7.4-1.6.7-2.5.7Zm0-1.8c.6 0 1.1 0 1.6-.4s.8-.7 1.1-1.2.4-1.1.4-1.7-.1-1.2-.4-1.7-.6-.9-1.1-1.2c-.5-.3-1-.4-1.6-.4s-1.1 0-1.6.4-.8.7-1.1 1.2-.4 1.1-.4 1.7.1 1.2.4 1.7.6.9 1.1 1.2c.5.3 1 .4 1.6.4ZM520.3 106.6c-.9 0-1.7-.2-2.4-.7-.7-.4-1.3-1-1.7-1.8s-.6-1.6-.6-2.6.2-1.8.6-2.6c.4-.8.9-1.4 1.6-1.8s1.5-.7 2.4-.7.9 0 1.4.2.9.4 1.2.6c.4.3.6.6.8.9s.3.6.3 1h-.6v-6.5h1.9v13.7h-1.9V104h.4c0 .3 0 .6-.3.9-.2.3-.5.6-.8.8-.3.2-.7.4-1.1.6s-.9.2-1.3.2h.1Zm.3-1.7c.6 0 1.1 0 1.5-.4s.8-.7 1-1.2c.3-.5.4-1.1.4-1.8s-.1-1.2-.4-1.8c-.3-.5-.6-.9-1-1.2s-1-.4-1.5-.4-1.1 0-1.5.4-.8.7-1 1.2c-.3.5-.4 1.1-.4 1.8s.1 1.2.4 1.8c.3.5.6.9 1 1.2s1 .4 1.5.4Z" />
    </g>
  </g>
  <g class="st3">
    <g fill="#fff" class="st3">
      <path
        d="M394.6 274.5v-13.8h1.9v2.2l-.3-.2c0-.4.3-.7.6-1.1.3-.3.8-.6 1.3-.8.5-.2 1-.3 1.5-.3.9 0 1.7.2 2.3.6.7.4 1.2 1 1.6 1.8.4.8.6 1.6.6 2.6s-.2 1.8-.6 2.6-.9 1.4-1.6 1.8c-.7.4-1.4.7-2.3.7s-1.1-.1-1.7-.3c-.5-.2-1-.5-1.4-.9s-.6-.7-.7-1.1l.5-.3v6.5h-1.9.2Zm4.9-5.7c.6 0 1.1-.1 1.5-.4s.8-.7 1.1-1.2.4-1.1.4-1.7-.1-1.2-.4-1.7c-.3-.5-.6-.9-1-1.2-.4-.3-1-.4-1.5-.4s-1.1.1-1.5.4-.8.7-1.1 1.2-.4 1.1-.4 1.7.1 1.2.4 1.7.6.9 1.1 1.2c.4.3 1 .4 1.5.4h-.1ZM410.7 270.6c-1 0-1.8-.2-2.6-.7-.7-.4-1.3-1-1.8-1.8-.4-.8-.6-1.6-.6-2.6s.2-1.8.6-2.6 1-1.4 1.8-1.8c.7-.4 1.6-.7 2.6-.7s1.8.2 2.5.7c.7.4 1.3 1 1.8 1.8.4.8.6 1.6.6 2.6s-.2 1.8-.6 2.6-1 1.4-1.8 1.8c-.7.4-1.6.7-2.5.7Zm0-1.8c.6 0 1.1-.1 1.6-.4s.8-.7 1.1-1.2.4-1.1.4-1.7-.1-1.2-.4-1.7-.6-.9-1.1-1.2c-.5-.3-1-.4-1.6-.4s-1.1.1-1.6.4-.8.7-1.1 1.2-.4 1.1-.4 1.7.1 1.2.4 1.7.6.9 1.1 1.2c.5.3 1 .4 1.6.4ZM421.8 270.6c-.9 0-1.7-.2-2.4-.7-.7-.4-1.3-1-1.7-1.8s-.6-1.6-.6-2.6.2-1.8.6-2.6.9-1.4 1.6-1.8c.7-.4 1.5-.7 2.4-.7s.9 0 1.4.2.9.4 1.2.6c.4.3.6.6.8.9s.3.6.3 1h-.6v-6.5h1.9v13.7h-1.9V268h.4c0 .3 0 .6-.3.9-.2.3-.5.6-.8.8-.3.2-.7.4-1.1.6s-.9.2-1.3.2h.1Zm.3-1.7c.6 0 1.1-.1 1.5-.4s.8-.7 1-1.2c.3-.5.4-1.1.4-1.8s-.1-1.2-.4-1.8c-.3-.5-.6-.9-1-1.2s-1-.4-1.5-.4-1.1.1-1.5.4-.8.7-1 1.2c-.3.5-.4 1.1-.4 1.8s.1 1.2.4 1.8c.3.5.6.9 1 1.2s1 .4 1.5.4Z" />
    </g>
  </g>
  <path fill="#326de6" fill-opacity=".5" d="m310 124 58 35-58 35-58-35 58-35Z" />
  <path fill="#326de6" d="m310 139 42 25-42 25-42-25 42-25Z" />
  <g class="st3">
    <g fill="#fff" class="st3">
      <path
        d="M263.5 156.2c.3-.2.6-.3.9-.3h.8c.2 0 .5.2.8.4l-.5.7c-.3-.2-.5-.4-.8-.4s-.6 0-.9.2-.5.4-.6.6c0 .2-.2.5-.2.8s0 .6.3 1c.2.3.4.6.7.8.3.2.5.3.8.3s.6 0 .9-.2c.2-.1.4-.3.5-.4 0-.2.2-.3.2-.5v-.6h.8v.8c0 .3-.2.6-.4.8-.2.2-.4.4-.7.6-.4.2-.8.4-1.2.4s-.8-.1-1.2-.3c-.4-.2-.7-.6-1-1.1s-.4-.9-.4-1.4 0-.8.3-1.2c.2-.4.5-.7.9-.9ZM268.4 153.4c.4-.2.8-.4 1.2-.4s.8.1 1.2.3c.4.2.7.6 1 1.1s.4.9.4 1.4 0 .8-.3 1.2c-.2.4-.5.7-.9.9s-.8.4-1.2.4-.8-.1-1.2-.3c-.4-.2-.7-.6-1-1.1s-.4-.9-.4-1.4 0-.8.3-1.2c.2-.4.5-.7.9-.9Zm.3.6c-.3.2-.5.4-.6.6 0 .3-.2.5-.2.8s0 .6.3 1c.2.3.4.6.7.8.3.2.5.3.8.3s.6 0 .9-.2.5-.4.6-.6c0-.3.2-.5.2-.8s0-.6-.3-1c-.2-.3-.4-.6-.7-.8-.3-.2-.5-.3-.8-.3s-.6 0-.9.2ZM274.3 155.9l-2.5-4.3.6-.4.6.9h-.2v-.8c0-.2.2-.4.4-.6s.4-.3.6-.5c.3-.2.6-.3 1-.3s.6 0 .9.2.5.4.8.8l1.6 2.8-.7.4-1.5-2.5c-.3-.5-.6-.8-.9-.8s-.6 0-.9.2c-.2.1-.4.3-.5.5-.2.2-.2.5-.2.8s0 .6.3 1l1.3 2.3-.7.4ZM279.7 147l.3.6-3.1 1.8-.3-.6 3.1-1.8Zm-2.3-.4 2.5 4.4c0 .2.3.3.5.4.2 0 .4 0 .6-.1.2 0 .3-.2.4-.3 0-.1.2-.3.2-.4l.6.4c0 .2-.2.4-.3.6s-.3.3-.6.5c-.2.1-.4.2-.7.2s-.5 0-.7-.1-.4-.3-.6-.6l-2.5-4.3.6-.6ZM284.2 146.4c-.2-.3-.4-.5-.7-.6-.3 0-.6 0-.9.2s-.5.4-.7.6c0 .2-.2.5 0 .9h-.8c0-.4 0-.8.2-1.2s.5-.7 1-1c.3-.2.6-.3.9-.3s.6 0 .9.1.5.4.7.7l1.2 2.1c0 .2.3.2.5.1 0 0 .2-.1.3-.2l.3.6c0 .1-.2.2-.4.3-.2 0-.3.2-.5.2s-.3 0-.5-.1c-.2 0-.3-.2-.4-.4l.2-.2v.8c0 .2-.2.5-.4.6-.2.2-.4.3-.6.5-.3.1-.5.2-.8.3h-.8c-.2-.1-.4-.3-.6-.5-.2-.3-.2-.7 0-1 0-.3.3-.7.7-1l1.5-1.3.3.6-1.2 1.1c-.2.2-.4.4-.5.6v.6c0 .2.3.3.5.3s.4 0 .7-.2c.2 0 .3-.2.4-.3s.2-.3.3-.4v-.5c0-.2 0-.4-.2-.5l-.7-1.2.2-.3ZM285.5 142.5c-.2 0-.3.1-.5 0 0 0-.3-.1-.4-.3v-.5c0-.2 0-.3.3-.4.2 0 .3-.1.5 0 .2 0 .3.1.4.3v.5c0 .2 0 .3-.3.4Zm.9.6 2.5 4.3-.7.4-2.5-4.3.7-.4ZM290.5 146.5l-2.5-4.3.6-.3.6.9h-.2v-.8c0-.2.2-.4.4-.6.2-.2.4-.3.6-.5.3-.2.6-.3 1-.3s.6 0 .9.2.5.4.8.8l1.6 2.8-.7.4-1.5-2.5c-.3-.5-.6-.8-.9-.8s-.6 0-.9.2c-.2.1-.4.3-.5.5-.2.2-.2.5-.2.8s0 .6.3 1l1.3 2.3-.7.4v-.2ZM297.7 142.5c-.4.2-.8.4-1.2.4s-.8-.1-1.2-.3c-.4-.2-.7-.6-1-1.1s-.4-.9-.4-1.4 0-.8.3-1.2c.2-.4.5-.7.9-.9s.8-.3 1.2-.3.7.1 1.1.3c.3.2.6.5.8.9v.5l-3.5 2-.4-.6 3.2-1.8-.3.3c-.2-.4-.5-.7-.9-.8s-.7 0-1.1.2c-.3.2-.5.4-.6.6 0 .2-.2.5-.2.8s0 .6.3 1c.2.3.4.6.7.8s.5.3.8.3.6 0 .9-.2.5-.4.7-.6c0-.2.2-.5.2-.8h.7v.8c0 .2-.2.5-.4.7-.2.2-.4.4-.7.6v-.2ZM300.8 140.6l-2.5-4.3.6-.3.5.7c0-.3 0-.6.2-.9.2-.3.4-.5.7-.7 0 0 .2 0 .3-.1h.3l.2.7h-.2s-.2 0-.3.2c-.2.1-.3.3-.5.5s-.2.5-.2.7c0 .3 0 .6.3.9l1.3 2.3-.7.4ZM306 137.7c-.4.2-.7.3-1.1.3s-.8-.1-1.2-.4c-.4-.2-.7-.6-1-1.1s-.4-.9-.4-1.4 0-.8.3-1.2c.2-.4.5-.6.9-.8s.7-.3 1.1-.3.7.2.9.4c0 .1-1.7-2.9-1.7-2.9l.7-.4 3.7 6.3-.6.4-.7-1c.1.2.1.4 0 .7s-.2.5-.3.7c-.2.2-.4.4-.6.5v.2Zm-.3-.6c.3-.2.5-.4.6-.6s.2-.5.1-.9c0-.3-.2-.7-.4-1s-.4-.6-.7-.8c-.2-.2-.5-.3-.8-.3s-.5 0-.8.2c-.4.3-.7.6-.8 1 0 .4 0 .9.3 1.4s.6.8 1 1 .8.1 1.3-.1h.2Z" />
    </g>
  </g>
  <g class="st3">
    <g fill="#fff" class="st3">
      <path
        d="M284 167.8c-.6 0-1.2-.1-1.6-.4-.5-.3-.8-.7-1-1.2s-.4-1.1-.4-1.8 0-1.3.4-1.8.6-.9 1.1-1.2 1-.4 1.6-.4.9 0 1.3.3.7.4.9.7c.2.3.4.7.4 1.1h-1c0-.3-.3-.6-.5-.8-.3-.2-.6-.4-1.1-.4s-.7.1-1 .3-.5.5-.7.9-.2.8-.2 1.3 0 1 .2 1.3c.2.4.4.7.7.9.3.2.7.3 1.1.3s.5 0 .7-.1c.2 0 .4-.2.6-.4s.3-.4.3-.6h1c0 .4-.2.7-.4 1.1-.2.3-.5.6-.9.7s-.8.3-1.3.3h-.2ZM290.8 167.8c-.6 0-1.1-.1-1.6-.4-.5-.3-.8-.7-1.1-1.2s-.4-1.1-.4-1.8 0-1.3.4-1.8.6-.9 1.1-1.2 1-.4 1.6-.4 1.1.1 1.6.4c.5.3.8.7 1.1 1.2.3.5.4 1.1.4 1.8s0 1.3-.4 1.8-.6.9-1.1 1.2-1 .4-1.6.4Zm0-.9c.5 0 .8-.1 1.1-.4s.5-.5.7-.9c0-.4.2-.8.2-1.2s0-.9-.2-1.2c0-.4-.4-.7-.7-.9s-.7-.4-1.1-.4-.8.1-1.1.4-.5.5-.7.9c0 .4-.2.8-.2 1.2s0 .9.2 1.2c0 .4.4.7.7.9s.7.4 1.1.4ZM296.4 163.7v4h-1V161h1v1c.2-.3.4-.6.7-.8.3-.2.7-.3 1.2-.3s.8 0 1.2.3c.3.2.6.5.8.8.2.4.3.8.3 1.4v4.2h-1v-4.2c0-.5 0-.9-.4-1.2s-.6-.4-1.1-.4-.6 0-.9.2c-.3.1-.5.3-.6.6s-.2.6-.2 1ZM305.5 161v.9H302v-.9h3.5Zm-2.5-1.6h1v7c0 .1.2.2.3.3h.9l.2.9h-.8c-.3 0-.6 0-.8-.2-.3-.1-.5-.3-.7-.6s-.3-.6-.3-1v-6.6.2ZM309 167.9c-.4 0-.8 0-1.2-.2-.3-.2-.6-.4-.8-.7s-.3-.7-.3-1.1 0-.7.2-.9l.6-.6c.3-.1.5-.2.8-.3.3 0 .6-.1.9-.2.4 0 .7 0 1-.1.3 0 .4 0 .6-.1s.2-.2.2-.3c0-.5-.1-.8-.3-1s-.6-.4-1.1-.4-.9.1-1.2.3-.5.4-.6.7l-1-.3c.2-.4.4-.7.7-.9s.6-.4 1-.5c.3 0 .7-.1 1-.1h.7c.3 0 .5.2.8.3.3.2.5.4.7.7s.3.7.3 1.3v4.4h-1v-.9c0 .1-.2.3-.3.5s-.4.3-.6.4c-.3.1-.6.2-1 .2v-.2Zm.1-1c.4 0 .7 0 1-.2s.5-.4.6-.6c.1-.3.2-.5.2-.8v-.9s-.1 0-.3.1c-.1 0-.3 0-.5.1h-1c-.3 0-.5 0-.7.2-.2 0-.4.2-.6.3-.1.2-.2.4-.2.6s.1.6.4.8c.3.2.6.3 1 .3h.1ZM314.4 159.9c-.2 0-.4 0-.5-.2-.1-.1-.2-.3-.2-.5s0-.4.2-.5c.1-.1.3-.2.5-.2s.4 0 .5.2c.1.1.2.3.2.5s0 .4-.2.5c-.1.1-.3.2-.5.2Zm-.5 7.8V161h1v6.7h-1ZM317.8 163.7v4h-1V161h1v1c.2-.3.4-.6.7-.8s.7-.3 1.2-.3.8 0 1.2.3c.3.2.6.5.8.8.2.4.3.8.3 1.4v4.2h-1v-4.2c0-.5-.1-.9-.4-1.2-.3-.3-.6-.4-1.1-.4s-.6 0-.9.2c-.3.1-.5.3-.6.6s-.2.6-.2 1ZM326.8 167.8c-.6 0-1.2-.1-1.7-.4s-.8-.7-1.1-1.2-.4-1.1-.4-1.8.1-1.3.4-1.8.6-.9 1.1-1.2 1-.4 1.6-.4.7 0 1 .2c.3.1.6.3.9.6s.5.6.7 1 .2.9.2 1.6v.4h-5.1v-.9h4.1c0-.4 0-.7-.2-1-.1-.3-.4-.5-.6-.7-.3-.2-.6-.3-1-.3s-.8.1-1.1.3-.5.5-.7.8-.2.7-.2 1v.6c0 .5 0 .9.3 1.3.2.3.4.6.7.8s.7.3 1.1.3.5 0 .7-.1c.2 0 .4-.2.6-.3.2-.2.3-.3.4-.6l1 .3c-.1.3-.3.6-.5.9-.2.3-.5.5-.9.6s-.8.2-1.2.2v-.2ZM331.1 167.7V161h1v1c.1-.3.3-.6.7-.8.3-.2.7-.3 1.1-.3h.6v1h-.6c-.3 0-.6 0-.9.2s-.5.3-.6.6c-.1.2-.2.5-.2.8v4.2h-1.1Z" />
    </g>
  </g>
  <path fill="#326de6" fill-opacity=".5" d="m410 288 58 35-58 35-58-35 58-35Z" />
  <path fill="#326de6" d="m410 303 42 25-42 25-42-25 42-25Z" />
  <g class="st3">
    <g fill="#fff" class="st3">
      <path
        d="M366.1 324.7c-.4.3-.9.4-1.3.3s-.9-.2-1.2-.4c-.4-.3-.7-.6-1-1.1s-.4-1-.5-1.4c0-.5 0-.9.2-1.3s.5-.7.9-1c.3-.2.7-.3 1-.3s.7 0 1 .1.6.3.8.6l-.7.4c-.2-.2-.4-.3-.7-.4-.3 0-.6 0-.9.2-.3.2-.5.4-.6.6-.1.3-.2.6-.1.9 0 .3.2.7.4 1 .2.4.5.6.7.9.3.2.6.3.9.3s.6 0 .9-.2c.2-.1.3-.2.5-.4.1-.2.2-.3.2-.5v-.6l.7-.4c.1.3.2.6.1.9 0 .3-.1.6-.3.9s-.5.5-.8.7l-.2.2ZM371 321.9c-.4.2-.9.4-1.3.3-.4 0-.9-.2-1.2-.4-.4-.3-.7-.6-1-1.1s-.4-1-.5-1.4c0-.5 0-.9.3-1.3s.5-.7.9-1 .9-.4 1.3-.3c.4 0 .9.2 1.2.4.4.3.7.6 1 1.1s.4 1 .5 1.4 0 .9-.3 1.3c-.2.4-.5.7-.9 1Zm-.4-.6c.3-.2.5-.4.7-.7s.1-.6 0-.9c0-.3-.2-.7-.4-1s-.4-.6-.7-.8c-.3-.2-.5-.3-.8-.4-.3 0-.6 0-.9.2-.3.2-.5.4-.7.7-.1.3-.1.6 0 .9 0 .3.2.7.4 1s.4.6.7.8c.3.2.5.3.8.4.3 0 .6 0 .9-.2ZM373.2 316.7l1.6 2.8-.7.4-2.7-4.7.7-.4.4.7c0-.3 0-.6.2-.9.1-.3.4-.5.7-.7s.6-.3 1-.3.6 0 .9.3c.3.2.5.5.8.9l1.7 3-.7.4-1.7-3c-.2-.4-.5-.6-.8-.7-.3 0-.6 0-1 .1-.2.1-.4.3-.5.5s-.2.4-.2.7 0 .5.2.8h.1ZM378.5 311.1l.4.6-2.4 1.4-.4-.6 2.4-1.4Zm-2.3-.1.7-.4 2.6 4.5c.1.2.2.3.4.4h.4c.1 0 .2 0 .3-.1 0 0 .1 0 .2-.1h.1l.5.6s0 .1-.2.2-.2.1-.3.2c-.2.1-.4.2-.7.2s-.5 0-.7-.1-.4-.3-.6-.6l-2.7-4.7ZM383.8 314.5c-.3.2-.6.3-.9.3s-.6 0-.9-.2c-.3-.1-.5-.4-.7-.7-.2-.3-.2-.5-.2-.8s0-.4.2-.6c.1-.2.3-.4.5-.6s.4-.3.6-.5c.3-.2.5-.4.7-.5s.3-.2.3-.3v-.3c-.2-.3-.4-.5-.7-.6s-.6 0-.9.2c-.3.2-.6.4-.7.7s-.2.5-.1.7l-.8.2c0-.4 0-.7.1-1s.3-.5.5-.7.4-.4.7-.5c.2 0 .3-.2.6-.2s.5-.1.7-.1.5 0 .8.2.5.4.7.8l1.8 3.1-.7.4-.4-.6v.5c0 .2-.1.4-.3.6s-.4.4-.6.5h-.3Zm-.3-.7c.3-.2.5-.4.6-.6s.2-.5.2-.7 0-.5-.2-.7l-.4-.7s0 .1-.1.2l-.3.3c-.1 0-.2.2-.4.3s-.2.2-.3.2c-.2.1-.3.3-.5.4-.1.1-.2.3-.3.5 0 .2 0 .3.1.5.1.3.3.4.6.4s.5 0 .8-.2h.2ZM384.4 306.7c-.1 0-.3.1-.4 0-.2 0-.3-.1-.4-.3v-.4c0-.2.1-.3.3-.4.1 0 .3-.1.4 0 .2 0 .3.1.4.3v.4c0 .2-.1.3-.3.4Zm2.8 5.7-2.7-4.7.7-.4 2.7 4.7-.7.4ZM388.4 308l1.6 2.8-.7.4-2.7-4.7.7-.4.4.7c0-.3 0-.6.2-.9.1-.3.4-.5.7-.7s.6-.3 1-.3.6 0 .9.3c.3.2.5.5.8.9l1.7 3-.7.4-1.7-3c-.2-.4-.5-.6-.8-.7-.3 0-.6 0-1 .1-.2.1-.4.3-.5.5s-.2.4-.2.7 0 .5.2.8h.1ZM396.4 307.2c-.5.3-.9.4-1.4.4s-.9-.1-1.2-.4c-.4-.3-.7-.6-1-1.1s-.4-1-.5-1.4c0-.5 0-.9.2-1.3s.5-.7.9-1c.2-.1.5-.2.8-.3h.9c.3 0 .6.2.9.5.3.2.6.6.8 1l.2.3-3.6 2.1-.4-.6 2.9-1.7c-.2-.3-.3-.5-.6-.6s-.5-.2-.7-.2c-.3 0-.5 0-.8.2s-.5.4-.6.6c-.1.3-.2.5-.2.8s.1.6.3.8l.2.4c.2.4.4.6.7.8s.5.3.8.3.6 0 .9-.3c.2-.1.3-.2.5-.4.1-.1.2-.3.3-.5v-.6l.8-.2v.8c0 .3-.2.5-.4.8-.2.2-.5.5-.8.6v.2ZM399.4 305.4l-2.7-4.7.7-.4.4.7c0-.3 0-.6.1-.9s.4-.5.6-.7c0 0 .1 0 .2-.1s.1 0 .2 0l.4.7h-.2q-.2 0-.3.1c-.2.1-.4.3-.5.5s-.2.4-.2.6 0 .4.2.7l1.7 3-.7.4h.1ZM404.5 302.6c-.4.2-.8.3-1.2.3s-.8-.2-1.2-.4-.7-.7-1-1.2-.5-1-.5-1.4 0-.9.2-1.3.5-.7.9-.9c.3-.2.6-.3.8-.3s.4 0 .6.1c.2 0 .3.1.4.2l-1.3-2.4.7-.4 3.6 6.3-.7.4-.4-.7v.5c0 .2 0 .4-.2.6-.1.2-.3.4-.6.6h-.1Zm-.3-.7c.3-.2.5-.4.6-.7.1-.3.1-.6 0-.9 0-.3-.2-.7-.4-1-.2-.4-.4-.6-.7-.8-.3-.2-.5-.3-.8-.4-.3 0-.6 0-.9.2-.3.2-.5.4-.6.7-.1.3-.1.6 0 .9 0 .3.2.7.4 1s.4.6.7.8c.3.2.5.3.8.4.3 0 .6 0 .9-.2Z" />
    </g>
  </g>
  <g class="st3">
    <g fill="#fff" class="st3">
      <path
        d="M384 331.8c-.6 0-1.2-.1-1.6-.4-.5-.3-.8-.7-1-1.2s-.4-1.1-.4-1.8.1-1.3.4-1.8.6-.9 1.1-1.2c.5-.3 1-.4 1.6-.4s.9 0 1.3.3.7.4.9.7c.2.3.4.7.4 1.1h-1c0-.3-.3-.6-.5-.8-.3-.2-.6-.4-1.1-.4s-.7.1-1 .3c-.3.2-.5.5-.7.9s-.2.8-.2 1.3 0 1 .2 1.3c.2.4.4.7.7.9.3.2.7.3 1.1.3s.5 0 .7-.1c.2 0 .4-.2.6-.4s.3-.4.3-.6h1c0 .4-.2.7-.4 1.1-.2.3-.5.6-.9.7s-.8.3-1.3.3h-.2ZM390.8 331.8c-.6 0-1.1-.1-1.6-.4s-.8-.7-1.1-1.2-.4-1.1-.4-1.8.1-1.3.4-1.8c.3-.5.6-.9 1.1-1.2.5-.3 1-.4 1.6-.4s1.1.1 1.6.4.8.7 1.1 1.2.4 1.1.4 1.8-.1 1.3-.4 1.8c-.3.5-.6.9-1.1 1.2-.5.3-1 .4-1.6.4Zm0-.9c.5 0 .8-.1 1.1-.4s.5-.5.7-.9c.1-.4.2-.8.2-1.2s0-.9-.2-1.2c-.1-.4-.4-.7-.7-.9s-.7-.4-1.1-.4-.8.1-1.1.4-.5.5-.7.9c-.1.4-.2.8-.2 1.2s0 .9.2 1.2c.1.4.4.7.7.9s.7.4 1.1.4ZM396.4 327.7v4h-1V325h1v1c.2-.3.4-.6.7-.8.3-.2.7-.3 1.2-.3s.8 0 1.2.3c.3.2.6.5.8.8.2.4.3.8.3 1.4v4.2h-1v-4.2c0-.5-.1-.9-.4-1.2-.3-.3-.6-.4-1.1-.4s-.6 0-.9.2c-.3.1-.5.3-.6.6-.1.3-.2.6-.2 1ZM405.5 325v.9H402v-.9h3.5Zm-2.5-1.6h1v6.4c0 .3 0 .5.1.6l.3.3h.9l.2.9h-.8c-.3 0-.6 0-.8-.2-.3-.1-.5-.3-.7-.6s-.3-.6-.3-1v-6.6.2ZM409 331.9c-.4 0-.8 0-1.2-.2-.3-.2-.6-.4-.8-.7-.2-.3-.3-.7-.3-1.1s0-.7.2-.9l.6-.6c.3-.1.5-.2.8-.3.3 0 .6-.1.9-.2.4 0 .7 0 1-.1.3 0 .4 0 .6-.1s.2-.2.2-.3c0-.5-.1-.8-.3-1s-.6-.4-1.1-.4-.9.1-1.2.3c-.3.2-.5.4-.6.7l-1-.3c.2-.4.4-.7.7-.9.3-.2.6-.4 1-.5.3 0 .7-.1 1-.1h.7c.3 0 .5.2.8.3.3.2.5.4.7.7.2.3.3.7.3 1.3v4.4h-1v-.9c0 .1-.2.3-.3.5s-.4.3-.6.4c-.3.1-.6.2-1 .2v-.2Zm.1-1c.4 0 .7 0 1-.2s.5-.4.6-.6c.1-.3.2-.5.2-.8v-.9s-.1 0-.3.1c-.1 0-.3 0-.5.1h-1c-.3 0-.5 0-.7.2-.2 0-.4.2-.6.3-.1.2-.2.4-.2.6s.1.6.4.8c.3.2.6.3 1 .3h.1ZM414.4 323.9c-.2 0-.4 0-.5-.2-.1-.1-.2-.3-.2-.5s0-.4.2-.5c.1-.1.3-.2.5-.2s.4 0 .5.2c.1.1.2.3.2.5s0 .4-.2.5c-.1.1-.3.2-.5.2Zm-.5 7.8V325h1v6.7h-1ZM417.8 327.7v4h-1V325h1v1c.2-.3.4-.6.7-.8.3-.2.7-.3 1.2-.3s.8 0 1.2.3c.3.2.6.5.8.8s.3.8.3 1.4v4.2h-1v-4.2c0-.5-.1-.9-.4-1.2-.3-.3-.6-.4-1.1-.4s-.6 0-.9.2-.5.3-.6.6c-.1.3-.2.6-.2 1ZM426.8 331.8c-.6 0-1.2-.1-1.7-.4s-.8-.7-1.1-1.2-.4-1.1-.4-1.8.1-1.3.4-1.8c.2-.5.6-.9 1.1-1.2.5-.3 1-.4 1.6-.4s.7 0 1 .2c.3.1.6.3.9.6.3.3.5.6.7 1s.2.9.2 1.6v.4h-5.1v-.9h4.1c0-.4 0-.7-.2-1-.1-.3-.4-.5-.6-.7s-.6-.3-1-.3-.8.1-1.1.3-.5.5-.7.8-.2.7-.2 1v.6c0 .5 0 .9.3 1.3.2.3.4.6.7.8.3.2.7.3 1.1.3s.5 0 .7-.1c.2 0 .4-.2.6-.3s.3-.3.4-.6l1 .3c-.1.3-.3.6-.5.9s-.5.5-.9.6-.8.2-1.2.2v-.2ZM431.1 331.7V325h1v1c.1-.3.3-.6.7-.8.3-.2.7-.3 1.1-.3h.6v1h-.6c-.3 0-.6 0-.9.2-.3.1-.5.3-.6.6-.1.2-.2.5-.2.8v4.2h-1.1Z" />
    </g>
  </g>
  <path fill="#326de6" fill-opacity=".5" d="m410 367 58 35-58 35-58-35 58-35Z" />
  <path fill="#326de6" d="m410 382 42 25-42 25-42-25 42-25Z" />
  <g class="st3">
    <g fill="#fff" class="st3">
      <path
        d="M366.1 403.7c-.4.3-.9.4-1.3.3s-.9-.2-1.2-.4c-.4-.3-.7-.6-1-1.1s-.4-1-.5-1.4c0-.5 0-.9.2-1.3s.5-.7.9-1c.3-.2.7-.3 1-.3s.7 0 1 .1.6.3.8.6l-.7.4c-.2-.2-.4-.3-.7-.4-.3 0-.6 0-.9.2-.3.2-.5.4-.6.6-.1.3-.2.6-.1.9 0 .3.2.7.4 1 .2.4.5.6.7.9.3.2.6.3.9.3s.6 0 .9-.2c.2-.1.3-.2.5-.4.1-.2.2-.3.2-.5v-.6l.7-.4c.1.3.2.6.1.9 0 .3-.1.6-.3.9s-.5.5-.8.7l-.2.2ZM371 400.9c-.4.2-.9.4-1.3.3-.4 0-.9-.2-1.2-.4-.4-.3-.7-.6-1-1.1s-.4-1-.5-1.4c0-.5 0-.9.3-1.3s.5-.7.9-1 .9-.4 1.3-.3c.4 0 .9.2 1.2.4.4.3.7.6 1 1.1s.4 1 .5 1.4 0 .9-.3 1.3c-.2.4-.5.7-.9 1Zm-.4-.6c.3-.2.5-.4.7-.7s.1-.6 0-.9c0-.3-.2-.7-.4-1s-.4-.6-.7-.8c-.3-.2-.5-.3-.8-.4-.3 0-.6 0-.9.2-.3.2-.5.4-.7.7-.1.3-.1.6 0 .9 0 .3.2.7.4 1s.4.6.7.8c.3.2.5.3.8.4.3 0 .6 0 .9-.2ZM373.2 395.7l1.6 2.8-.7.4-2.7-4.7.7-.4.4.7c0-.3 0-.6.2-.9.1-.3.4-.5.7-.7s.6-.3 1-.3.6 0 .9.3c.3.2.5.5.8.9l1.7 3-.7.4-1.7-3c-.2-.4-.5-.6-.8-.7-.3 0-.6 0-1 .1-.2.1-.4.3-.5.5s-.2.4-.2.7 0 .5.2.8h.1ZM378.5 390.1l.4.6-2.4 1.4-.4-.6 2.4-1.4Zm-2.3-.1.7-.4 2.6 4.5c.1.2.2.3.4.4h.4c.1 0 .2 0 .3-.1 0 0 .1 0 .2-.1h.1l.5.6s0 .1-.2.2-.2.1-.3.2c-.2.1-.4.2-.7.2s-.5 0-.7-.1-.4-.3-.6-.6l-2.7-4.7ZM383.8 393.5c-.3.2-.6.3-.9.3s-.6 0-.9-.2c-.3-.1-.5-.4-.7-.7-.2-.3-.2-.5-.2-.8s0-.4.2-.6c.1-.2.3-.4.5-.6s.4-.3.6-.5c.3-.2.5-.4.7-.5s.3-.2.3-.3v-.3c-.2-.3-.4-.5-.7-.6s-.6 0-.9.2c-.3.2-.6.4-.7.7s-.2.5-.1.7l-.8.2c0-.4 0-.7.1-1s.3-.5.5-.7.4-.4.7-.5c.2 0 .3-.2.6-.2s.5-.1.7-.1.5 0 .8.2.5.4.7.8l1.8 3.1-.7.4-.4-.6v.5c0 .2-.1.4-.3.6s-.4.4-.6.5h-.3Zm-.3-.7c.3-.2.5-.4.6-.6s.2-.5.2-.7 0-.5-.2-.7l-.4-.7s0 .1-.1.2l-.3.3c-.1 0-.2.2-.4.3s-.2.2-.3.2c-.2.1-.3.3-.5.4-.1.1-.2.3-.3.5 0 .2 0 .3.1.5.1.3.3.4.6.4s.5 0 .8-.2h.2ZM384.4 385.7c-.1 0-.3.1-.4 0-.2 0-.3-.1-.4-.3v-.4c0-.2.1-.3.3-.4.1 0 .3-.1.4 0 .2 0 .3.1.4.3v.4c0 .2-.1.3-.3.4Zm2.8 5.7-2.7-4.7.7-.4 2.7 4.7-.7.4ZM388.4 387l1.6 2.8-.7.4-2.7-4.7.7-.4.4.7c0-.3 0-.6.2-.9.1-.3.4-.5.7-.7s.6-.3 1-.3.6 0 .9.3c.3.2.5.5.8.9l1.7 3-.7.4-1.7-3c-.2-.4-.5-.6-.8-.7-.3 0-.6 0-1 .1-.2.1-.4.3-.5.5s-.2.4-.2.7 0 .5.2.8h.1ZM396.4 386.2c-.5.3-.9.4-1.4.4s-.9-.1-1.2-.4c-.4-.3-.7-.6-1-1.1s-.4-1-.5-1.4c0-.5 0-.9.2-1.3s.5-.7.9-1c.2-.1.5-.2.8-.3h.9c.3 0 .6.2.9.5.3.2.6.6.8 1l.2.3-3.6 2.1-.4-.6 2.9-1.7c-.2-.3-.3-.5-.6-.6s-.5-.2-.7-.2c-.3 0-.5 0-.8.2s-.5.4-.6.6c-.1.3-.2.5-.2.8s.1.6.3.8l.2.4c.2.4.4.6.7.8s.5.3.8.3.6 0 .9-.3c.2-.1.3-.2.5-.4.1-.1.2-.3.3-.5v-.6l.8-.2v.8c0 .3-.2.5-.4.8-.2.2-.5.5-.8.6v.2ZM399.4 384.4l-2.7-4.7.7-.4.4.7c0-.3 0-.6.1-.9s.4-.5.6-.7c0 0 .1 0 .2-.1s.1 0 .2 0l.4.7h-.2q-.2 0-.3.1c-.2.1-.4.3-.5.5s-.2.4-.2.6 0 .4.2.7l1.7 3-.7.4h.1ZM404.5 381.6c-.4.2-.8.3-1.2.3s-.8-.2-1.2-.4-.7-.7-1-1.2-.5-1-.5-1.4 0-.9.2-1.3.5-.7.9-.9c.3-.2.6-.3.8-.3s.4 0 .6.1c.2 0 .3.1.4.2l-1.3-2.4.7-.4 3.6 6.3-.7.4-.4-.7v.5c0 .2 0 .4-.2.6-.1.2-.3.4-.6.6h-.1Zm-.3-.7c.3-.2.5-.4.6-.7.1-.3.1-.6 0-.9 0-.3-.2-.7-.4-1-.2-.4-.4-.6-.7-.8-.3-.2-.5-.3-.8-.4-.3 0-.6 0-.9.2-.3.2-.5.4-.6.7-.1.3-.1.6 0 .9 0 .3.2.7.4 1s.4.6.7.8c.3.2.5.3.8.4.3 0 .6 0 .9-.2Z" />
    </g>
  </g>
  <g class="st3">
    <g fill="#fff" class="st3">
      <path
        d="M384 410.8c-.6 0-1.2-.1-1.6-.4-.5-.3-.8-.7-1-1.2s-.4-1.1-.4-1.8.1-1.3.4-1.8.6-.9 1.1-1.2c.5-.3 1-.4 1.6-.4s.9 0 1.3.3.7.4.9.7c.2.3.4.7.4 1.1h-1c0-.3-.3-.6-.5-.8-.3-.2-.6-.4-1.1-.4s-.7.1-1 .3c-.3.2-.5.5-.7.9s-.2.8-.2 1.3 0 1 .2 1.3c.2.4.4.7.7.9.3.2.7.3 1.1.3s.5 0 .7-.1c.2 0 .4-.2.6-.4s.3-.4.3-.6h1c0 .4-.2.7-.4 1.1-.2.3-.5.6-.9.7s-.8.3-1.3.3h-.2ZM390.8 410.8c-.6 0-1.1-.1-1.6-.4s-.8-.7-1.1-1.2-.4-1.1-.4-1.8.1-1.3.4-1.8c.3-.5.6-.9 1.1-1.2.5-.3 1-.4 1.6-.4s1.1.1 1.6.4.8.7 1.1 1.2.4 1.1.4 1.8-.1 1.3-.4 1.8c-.3.5-.6.9-1.1 1.2-.5.3-1 .4-1.6.4Zm0-.9c.5 0 .8-.1 1.1-.4s.5-.5.7-.9c.1-.4.2-.8.2-1.2s0-.9-.2-1.2c-.1-.4-.4-.7-.7-.9s-.7-.4-1.1-.4-.8.1-1.1.4-.5.5-.7.9c-.1.4-.2.8-.2 1.2s0 .9.2 1.2c.1.4.4.7.7.9s.7.4 1.1.4ZM396.4 406.7v4h-1V404h1v1c.2-.3.4-.6.7-.8.3-.2.7-.3 1.2-.3s.8 0 1.2.3c.3.2.6.5.8.8.2.4.3.8.3 1.4v4.2h-1v-4.2c0-.5-.1-.9-.4-1.2-.3-.3-.6-.4-1.1-.4s-.6 0-.9.2c-.3.1-.5.3-.6.6-.1.3-.2.6-.2 1ZM405.5 404v.9H402v-.9h3.5Zm-2.5-1.6h1v6.4c0 .3 0 .5.1.6l.3.3h.9l.2.9h-.8c-.3 0-.6 0-.8-.2-.3-.1-.5-.3-.7-.6s-.3-.6-.3-1v-6.6.2ZM409 410.9c-.4 0-.8 0-1.2-.2-.3-.2-.6-.4-.8-.7-.2-.3-.3-.7-.3-1.1s0-.7.2-.9l.6-.6c.3-.1.5-.2.8-.3.3 0 .6-.1.9-.2.4 0 .7 0 1-.1.3 0 .4 0 .6-.1s.2-.2.2-.3c0-.5-.1-.8-.3-1s-.6-.4-1.1-.4-.9.1-1.2.3c-.3.2-.5.4-.6.7l-1-.3c.2-.4.4-.7.7-.9.3-.2.6-.4 1-.5.3 0 .7-.1 1-.1h.7c.3 0 .5.2.8.3.3.2.5.4.7.7.2.3.3.7.3 1.3v4.4h-1v-.9c0 .1-.2.3-.3.5s-.4.3-.6.4c-.3.1-.6.2-1 .2v-.2Zm.1-1c.4 0 .7 0 1-.2s.5-.4.6-.6c.1-.3.2-.5.2-.8v-.9s-.1 0-.3.1c-.1 0-.3 0-.5.1h-1c-.3 0-.5 0-.7.2-.2 0-.4.2-.6.3-.1.2-.2.4-.2.6s.1.6.4.8c.3.2.6.3 1 .3h.1ZM414.4 402.9c-.2 0-.4 0-.5-.2-.1-.1-.2-.3-.2-.5s0-.4.2-.5c.1-.1.3-.2.5-.2s.4 0 .5.2c.1.1.2.3.2.5s0 .4-.2.5c-.1.1-.3.2-.5.2Zm-.5 7.8V404h1v6.7h-1ZM417.8 406.7v4h-1V404h1v1c.2-.3.4-.6.7-.8.3-.2.7-.3 1.2-.3s.8 0 1.2.3c.3.2.6.5.8.8s.3.8.3 1.4v4.2h-1v-4.2c0-.5-.1-.9-.4-1.2-.3-.3-.6-.4-1.1-.4s-.6 0-.9.2-.5.3-.6.6c-.1.3-.2.6-.2 1ZM426.8 410.8c-.6 0-1.2-.1-1.7-.4s-.8-.7-1.1-1.2-.4-1.1-.4-1.8.1-1.3.4-1.8c.2-.5.6-.9 1.1-1.2.5-.3 1-.4 1.6-.4s.7 0 1 .2c.3.1.6.3.9.6.3.3.5.6.7 1s.2.9.2 1.6v.4h-5.1v-.9h4.1c0-.4 0-.7-.2-1-.1-.3-.4-.5-.6-.7s-.6-.3-1-.3-.8.1-1.1.3-.5.5-.7.8-.2.7-.2 1v.6c0 .5 0 .9.3 1.3.2.3.4.6.7.8.3.2.7.3 1.1.3s.5 0 .7-.1c.2 0 .4-.2.6-.3s.3-.3.4-.6l1 .3c-.1.3-.3.6-.5.9s-.5.5-.9.6-.8.2-1.2.2v-.2ZM431.1 410.7V404h1v1c.1-.3.3-.6.7-.8.3-.2.7-.3 1.1-.3h.6v1h-.6c-.3 0-.6 0-.9.2-.3.1-.5.3-.6.6-.1.2-.2.5-.2.8v4.2h-1.1Z" />
    </g>
  </g>
  <path fill="#326de6" fill-opacity=".5" d="m310 202 58 35-58 35-58-35 58-35Z" />
  <path fill="#675cc7" d="m310 217 43 25-43 25-43-25 43-25Z" />
  <g class="st3">
    <g fill="#fff" class="st3">
      <path
        d="m294.9 245.7-2-6.7h1.1l1.4 5.1 1.4-5.1h1.1l1.4 5.1 1.4-5.1h1.1l-2 6.7h-1l-1.5-5.1-1.5 5.1h-1 .2ZM305.3 245.9c-.4 0-.8 0-1.2-.2-.3-.2-.6-.4-.8-.7-.2-.3-.3-.7-.3-1.1s0-.7.2-.9l.6-.6c.3-.1.5-.2.8-.3.3 0 .6-.1.9-.2.4 0 .7 0 1-.1.3 0 .4 0 .6-.1s.2-.2.2-.3c0-.5-.1-.8-.3-1s-.6-.4-1.1-.4-.9.1-1.2.3c-.3.2-.5.4-.6.7l-1-.3c.2-.4.4-.7.7-.9.3-.2.6-.4 1-.5.3 0 .7-.1 1-.1h.7c.3 0 .5.2.8.3.3.2.5.4.7.7s.3.7.3 1.3v4.4h-1v-.9c0 .1-.2.3-.3.5s-.4.3-.6.4c-.3.1-.6.2-1 .2v-.2Zm.1-1c.4 0 .7 0 1-.2s.5-.4.6-.6c.1-.3.2-.5.2-.8v-.9s-.1 0-.3.1c-.1 0-.3 0-.5.1h-1c-.3 0-.5 0-.7.2-.2 0-.4.2-.6.3 0 .2-.2.4-.2.6s0 .6.4.8.6.3 1 .3ZM314.9 240.5l-.9.3c0-.2-.1-.3-.3-.5s-.3-.3-.5-.4-.4-.1-.7-.1-.7 0-1 .3c-.3.2-.4.4-.4.7s0 .5.3.6c.2.1.5.3.9.4l1 .2c.6.1 1 .4 1.3.7s.4.7.4 1.1-.1.7-.3 1-.5.5-.9.7-.8.3-1.4.3-1.2-.1-1.7-.4c-.4-.3-.7-.7-.8-1.3l1-.2c0 .4.3.6.5.8.3.2.6.3 1 .3s.9-.1 1.1-.3.4-.5.4-.7 0-.4-.2-.6c-.2-.2-.4-.3-.7-.4l-1.1-.3c-.6-.1-1.1-.4-1.3-.7s-.4-.7-.4-1.1.1-.7.3-1 .5-.5.9-.7.8-.2 1.3-.2 1.2.1 1.6.4c.4.3.6.7.8 1.1h-.2ZM316.6 245.7V239h1v1c.1-.4.4-.6.7-.8s.7-.3 1.1-.3.8 0 1.1.3.5.5.7.8c.2-.3.4-.6.8-.8.3-.2.8-.3 1.2-.3s1.1.2 1.5.6.6 1 .6 1.7v4.5h-1v-4.5c0-.5-.1-.8-.4-1.1-.3-.2-.6-.3-1-.3s-.8.1-1.1.4c-.3.3-.4.6-.4 1.1v4.3h-1V241c0-.4-.1-.7-.4-.9s-.6-.3-1-.3-.5 0-.7.2c-.2.1-.4.3-.6.6-.1.3-.2.5-.2.9v4.2h-1Z" />
    </g>
  </g>
  <g class="st3">
    <g fill="#fff" class="st3">
      <path
        d="M266.1 238.9c-.4.3-.9.4-1.3.3-.4 0-.9-.2-1.2-.4-.4-.3-.7-.6-1-1.1s-.4-1-.5-1.4c0-.5 0-.9.2-1.3s.5-.7.9-1c.3-.2.7-.3 1-.3s.7 0 1 .1.6.3.8.6l-.7.4c-.2-.2-.4-.3-.7-.4-.3 0-.6 0-.9.2s-.5.4-.6.6c0 .3-.2.6 0 .9 0 .3.2.7.4 1 .2.4.5.7.7.9.3.2.6.3.9.3s.6 0 .9-.2c.2-.1.3-.2.5-.4 0-.2.2-.3.2-.5v-.6l.7-.4c0 .3.2.6 0 .9 0 .3 0 .6-.3.9-.2.3-.5.5-.8.7l-.2.2ZM271 236.1c-.4.2-.9.4-1.3.3-.4 0-.9-.2-1.2-.4-.4-.3-.7-.6-1-1.1s-.4-1-.5-1.4c0-.5 0-.9.3-1.3.2-.4.5-.7.9-1s.9-.4 1.3-.3c.4 0 .9.2 1.2.4s.7.6 1 1.1.4 1 .5 1.4c0 .5 0 .9-.3 1.3-.2.4-.5.7-.9 1Zm-.4-.7c.3-.2.5-.4.7-.7v-.9c0-.3-.2-.7-.4-1-.2-.3-.4-.6-.7-.8-.3-.2-.5-.3-.8-.4-.3 0-.6 0-.9.2s-.5.4-.7.7v.9c0 .3.2.7.4 1 .2.3.4.6.7.8.3.2.5.3.8.4.3 0 .6 0 .9-.2ZM273.2 230.8l1.6 2.8-.7.4-2.7-4.7.7-.4.4.7c0-.3 0-.6.2-.9 0-.3.4-.5.7-.7.3-.2.6-.3 1-.3s.6 0 .9.3c.3.2.5.5.8.9l1.7 3-.7.4-1.7-3c-.2-.4-.5-.6-.8-.7-.3 0-.6 0-1 .1-.2.1-.4.3-.5.5s-.2.4-.2.7 0 .5.2.8ZM278.5 225.3l.4.6-2.4 1.4-.4-.6 2.4-1.4Zm-2.3-.2.7-.4 2.6 4.5c0 .2.2.3.4.4s.2 0 .4 0 .2 0 .3-.1l.2-.1.5.6s0 .1-.2.2-.2.1-.3.2c-.2.1-.4.2-.7.2s-.5 0-.7-.1-.4-.3-.6-.6l-2.7-4.7ZM283.8 228.7c-.3.2-.6.3-.9.3s-.6 0-.9-.2c-.3-.1-.5-.4-.7-.7s-.2-.5-.2-.8 0-.4.2-.6c0-.2.3-.4.5-.6.2-.2.4-.3.6-.5.3-.2.5-.4.7-.5s.3-.2.3-.3v-.3c-.2-.3-.4-.5-.7-.6-.3 0-.6 0-.9.2s-.6.4-.7.7-.2.5 0 .7l-.8.2v-1c0-.3.3-.5.5-.7s.4-.4.7-.5c.2 0 .3-.2.6-.2s.5-.1.7-.1.5 0 .8.2.5.4.7.8l1.8 3.1-.7.4-.4-.6v.5c0 .2 0 .4-.3.6 0 .2-.4.4-.6.5h-.3Zm-.3-.8c.3-.2.5-.4.6-.6s.2-.5.2-.7 0-.5-.2-.7l-.4-.7v.2l-.3.3s-.2.2-.4.3-.2.2-.3.2c-.2.1-.3.3-.5.4 0 .1-.2.3-.3.5v.5c0 .3.3.4.6.4s.5 0 .8-.2h.2ZM284.4 220.8s-.3.1-.4 0c-.2 0-.3-.1-.4-.3v-.4c0-.2 0-.3.3-.4s.3-.1.4 0c.2 0 .3.1.4.3s0 .3 0 .4c0 .2 0 .3-.3.4Zm2.8 5.7-2.7-4.7.7-.4 2.7 4.7-.7.4ZM288.4 222.1l1.6 2.8-.7.4-2.7-4.7.7-.4.4.7c0-.3 0-.6.2-.9s.4-.5.7-.7c.3-.2.6-.3 1-.3s.6 0 .9.3c.3.2.5.5.8.9l1.7 3-.7.4-1.7-3c-.2-.4-.5-.6-.8-.7s-.6 0-1 .1c-.2.1-.4.3-.5.5s-.2.4-.2.7 0 .5.2.8ZM296.4 221.4c-.5.3-.9.4-1.4.4s-.9-.1-1.2-.4c-.4-.3-.7-.6-1-1.1s-.4-1-.5-1.4c0-.5 0-.9.2-1.3s.5-.7.9-1c.2-.1.5-.2.8-.3h.9c.3 0 .6.2.9.5.3.2.6.6.8 1l.2.3-3.6 2.1-.4-.6 2.9-1.7c-.2-.3-.3-.5-.6-.6-.2-.1-.5-.2-.7-.2-.3 0-.5 0-.8.2s-.5.4-.6.6c0 .3-.2.5-.2.8s0 .6.3.8l.2.4c.2.4.4.6.7.8.3.2.5.3.8.3s.6 0 .9-.3c.2-.1.3-.2.5-.4s.2-.3.3-.5 0-.4 0-.6l.8-.2v.8c0 .3-.2.5-.4.8-.2.2-.5.5-.8.6v.2ZM299.4 219.5l-2.7-4.7.7-.4.4.7v-.9c0-.3.4-.5.6-.7l.2-.1h.2l.4.7h-.2s-.2 0-.3.1c-.2.1-.4.3-.5.5s-.2.4-.2.6 0 .4.2.7l1.7 3-.7.4h.1ZM304.5 216.7c-.4.2-.8.3-1.2.3s-.8-.2-1.2-.4c-.4-.3-.7-.7-1-1.2s-.5-1-.5-1.4 0-.9.2-1.3.5-.7.9-.9c.3-.2.6-.3.8-.3s.4 0 .6.1c.2 0 .3.1.4.2l-1.3-2.4.7-.4 3.6 6.3-.7.4-.4-.7v.5c0 .2 0 .4-.2.6-.1.2-.3.4-.6.6h-.1Zm-.3-.7c.3-.2.5-.4.6-.7s0-.6 0-.9c0-.3-.2-.7-.4-1-.2-.4-.4-.6-.7-.8-.3-.2-.5-.3-.8-.4-.3 0-.6 0-.9.2s-.5.4-.6.7 0 .6 0 .9c0 .3.2.7.4 1 .2.3.4.6.7.8.3.2.5.3.8.4.3 0 .6 0 .9-.2ZM309 209.9l.4.7-2.8 1.6-.4-.7 2.8-1.6ZM313.2 206.6l-.5.6c-.1 0-.2-.2-.4-.2h-.5c-.2 0-.4 0-.6.2-.3.2-.5.4-.6.6-.1.2-.1.5 0 .7s.3.3.4.3h.8l.8-.2c.5-.1.9-.2 1.2 0 .3 0 .6.3.8.6s.2.6.2.9-.2.6-.4.9c-.2.3-.5.5-.9.7-.5.3-.9.4-1.4.4s-.8-.2-1.1-.6l.6-.6c.2.2.4.3.7.4.3 0 .5 0 .8-.2s.6-.4.7-.7c.1-.3.1-.5 0-.7 0-.2-.2-.3-.4-.3h-.7l-.9.3c-.5.1-.9.2-1.2 0-.3 0-.6-.3-.8-.6s-.2-.5-.2-.8.1-.6.3-.8.5-.5.8-.7c.5-.3.9-.4 1.3-.3.4 0 .7.2 1 .5l.2-.4ZM315.6 206.4l1.6 2.8-.7.4-3.6-6.3.7-.4 1.3 2.3c0-.3 0-.6.2-.9.1-.3.4-.5.8-.7.3-.2.6-.3 1-.3s.6 0 .9.3c.3.2.5.5.8.9l1.7 3-.7.4-1.7-3c-.2-.4-.5-.6-.8-.7-.3 0-.6 0-1 .2-.2.1-.4.3-.6.5-.1.2-.2.4-.2.7s0 .5.2.8h.1ZM318.8 201c-.1 0-.3.1-.4 0-.2 0-.3-.1-.4-.3v-.4c0-.2.1-.3.3-.4.1 0 .3-.1.4 0 .2 0 .3.1.4.3v.4c0 .2-.1.3-.3.4Zm2.8 5.7-2.7-4.7.7-.4 2.7 4.7-.7.4ZM323.7 205.5l-2.7-4.7.7-.4.4.7c0-.3 0-.6.1-.9.1-.3.4-.5.7-.7s.6-.3.9-.2c.3 0 .6.1.8.3 0-.3 0-.6.2-.9.2-.3.4-.5.7-.7.4-.2.8-.3 1.3-.2s.8.4 1.1 1l1.8 3.2-.7.4-1.8-3.2c-.2-.3-.4-.5-.7-.6-.3 0-.5 0-.8.2s-.5.4-.6.7c0 .3 0 .6.2.9l1.8 3.1-.7.4-1.9-3.2c-.2-.3-.4-.4-.6-.5-.3 0-.5 0-.8.1-.2.1-.3.3-.4.5-.1.2-.2.4-.2.6s0 .5.2.7l1.7 3-.7.4Z" />
    </g>
  </g>
  <path fill="#326de6" fill-opacity=".5" d="m509 202 58 35-58 35-58-35 58-35Z" />
  <path fill="#675cc7" d="m509 217 43 25-43 25-43-25 43-25Z" />
  <g class="st3">
    <g fill="#fff" class="st3">
      <path
        d="m493.9 245.7-2-6.7h1.1l1.4 5.1 1.4-5.1h1.1l1.4 5.1 1.4-5.1h1.1l-2 6.7h-1l-1.5-5.1h-.1l-1.5 5.1h-1 .2ZM504.3 245.9c-.4 0-.8 0-1.2-.2-.3-.2-.6-.4-.8-.7-.2-.3-.3-.7-.3-1.1s0-.7.2-.9l.6-.6c.3-.1.5-.2.8-.3.3 0 .6-.1.9-.2.4 0 .7 0 1-.1.3 0 .4 0 .6-.1s.2-.2.2-.3c0-.5-.1-.8-.3-1-.2-.2-.6-.4-1.1-.4s-.9.1-1.2.3c-.3.2-.5.4-.6.7l-1-.3c.2-.4.4-.7.7-.9.3-.2.6-.4 1-.5.3 0 .7-.1 1-.1h.7c.3 0 .5.2.8.3.3.2.5.4.7.7s.3.7.3 1.3v4.4h-1v-.9c0 .1-.2.3-.3.5s-.4.3-.6.4c-.3.1-.6.2-1 .2v-.2Zm.1-1c.4 0 .7 0 1-.2s.5-.4.6-.6c.1-.3.2-.5.2-.8v-.9s-.1 0-.3.1-.3 0-.5.1h-1c-.3 0-.5 0-.7.2-.2 0-.4.2-.6.3-.1.2-.2.4-.2.6s.1.6.4.8.6.3 1 .3h.1ZM513.9 240.5l-.9.3c0-.2-.1-.3-.3-.5-.1-.1-.3-.3-.5-.4-.2 0-.4-.1-.7-.1s-.7 0-1 .3-.4.4-.4.7 0 .5.3.6c.2.1.5.3.9.4l1 .2c.6.1 1 .4 1.3.7s.4.7.4 1.1-.1.7-.3 1c-.2.3-.5.5-.9.7s-.8.3-1.4.3-1.2-.1-1.7-.4c-.4-.3-.7-.7-.8-1.3l1-.2c0 .4.3.6.5.8.3.2.6.3 1 .3s.9-.1 1.1-.3.4-.5.4-.7 0-.4-.2-.6c-.2-.2-.4-.3-.7-.4l-1.1-.3c-.6-.1-1.1-.4-1.3-.7s-.4-.7-.4-1.1.1-.7.3-1c.2-.3.5-.5.9-.7s.8-.2 1.3-.2 1.2.1 1.6.4c.4.3.6.7.8 1.1h-.2ZM515.6 245.7V239h1v1c.1-.4.4-.6.7-.8s.7-.3 1.1-.3.8 0 1.1.3.5.5.7.8c.2-.3.4-.6.8-.8s.8-.3 1.2-.3 1.1.2 1.5.6c.4.4.6 1 .6 1.7v4.5h-1v-4.5c0-.5-.1-.8-.4-1.1-.3-.2-.6-.3-1-.3s-.8.1-1.1.4c-.3.3-.4.6-.4 1.1v4.3h-1V241c0-.4-.1-.7-.4-.9s-.6-.3-1-.3-.5 0-.7.2c-.2.1-.4.3-.6.6-.1.3-.2.5-.2.9v4.2h-1Z" />
    </g>
  </g>
  <g class="st3">
    <g fill="#fff" class="st3">
      <path
        d="M465.1 238.9c-.4.3-.9.4-1.3.3-.4 0-.9-.2-1.2-.4-.4-.3-.7-.6-1-1.1s-.4-1-.5-1.4c0-.5 0-.9.2-1.3s.5-.7.9-1c.3-.2.7-.3 1-.3s.7 0 1 .1.6.3.8.6l-.7.4c-.2-.2-.4-.3-.7-.4-.3 0-.6 0-.9.2s-.5.4-.6.6c-.1.3-.2.6-.1.9 0 .3.2.7.4 1 .2.4.5.7.7.9.3.2.6.3.9.3s.6 0 .9-.2c.2-.1.3-.2.5-.4.1-.2.2-.3.2-.5v-.6l.7-.4c.1.3.2.6.1.9 0 .3-.1.6-.3.9-.2.3-.5.5-.8.7l-.2.2ZM470 236.1c-.4.2-.9.4-1.3.3-.4 0-.9-.2-1.2-.4-.4-.3-.7-.6-1-1.1s-.4-1-.5-1.4c0-.5 0-.9.3-1.3.2-.4.5-.7.9-1s.9-.4 1.3-.3c.4 0 .9.2 1.2.4s.7.6 1 1.1.4 1 .5 1.4c0 .5 0 .9-.3 1.3-.2.4-.5.7-.9 1Zm-.4-.7c.3-.2.5-.4.7-.7.1-.3.1-.6 0-.9 0-.3-.2-.7-.4-1-.2-.3-.4-.6-.7-.8-.3-.2-.5-.3-.8-.4-.3 0-.6 0-.9.2s-.5.4-.7.7c-.1.3-.1.6 0 .9 0 .3.2.7.4 1 .2.3.4.6.7.8.3.2.5.3.8.4.3 0 .6 0 .9-.2ZM472.2 230.8l1.6 2.8-.7.4-2.7-4.7.7-.4.4.7c0-.3 0-.6.2-.9.1-.3.4-.5.7-.7.3-.2.6-.3 1-.3s.6 0 .9.3c.3.2.5.5.8.9l1.7 3-.7.4-1.7-3c-.2-.4-.5-.6-.8-.7-.3 0-.6 0-1 .1-.2.1-.4.3-.5.5s-.2.4-.2.7 0 .5.2.8h.1ZM477.5 225.3l.4.6-2.4 1.4-.4-.6 2.4-1.4Zm-2.3-.2.7-.4 2.6 4.5c.1.2.2.3.4.4s.2 0 .4 0 .2 0 .3-.1c0 0 .1 0 .2-.1h.1l.5.6s0 .1-.2.2-.2.1-.3.2c-.2.1-.4.2-.7.2s-.5 0-.7-.1-.4-.3-.6-.6l-2.7-4.7ZM482.8 228.7c-.3.2-.6.3-.9.3s-.6 0-.9-.2c-.3-.1-.5-.4-.7-.7s-.2-.5-.2-.8 0-.4.2-.6c.1-.2.3-.4.5-.6.2-.2.4-.3.6-.5.3-.2.5-.4.7-.5s.3-.2.3-.3v-.3c-.2-.3-.4-.5-.7-.6-.3 0-.6 0-.9.2s-.6.4-.7.7-.2.5-.1.7l-.8.2c0-.4 0-.7.1-1s.3-.5.5-.7.4-.4.7-.5c.2 0 .3-.2.6-.2s.5-.1.7-.1.5 0 .8.2.5.4.7.8l1.8 3.1-.7.4-.4-.6v.5c0 .2-.1.4-.3.6-.1.2-.4.4-.6.5h-.3Zm-.3-.8c.3-.2.5-.4.6-.6s.2-.5.2-.7 0-.5-.2-.7l-.4-.7s0 .1-.1.2l-.3.3c-.1 0-.2.2-.4.3s-.2.2-.3.2c-.2.1-.3.3-.5.4-.1.1-.2.3-.3.5 0 .2 0 .3.1.5.1.3.3.4.6.4s.5 0 .8-.2h.2ZM483.4 220.8c-.1 0-.3.1-.4 0-.2 0-.3-.1-.4-.3v-.4c0-.2.1-.3.3-.4s.3-.1.4 0c.2 0 .3.1.4.3s0 .3 0 .4c0 .2-.1.3-.3.4Zm2.8 5.7-2.7-4.7.7-.4 2.7 4.7-.7.4ZM487.4 222.1l1.6 2.8-.7.4-2.7-4.7.7-.4.4.7c0-.3 0-.6.2-.9s.4-.5.7-.7c.3-.2.6-.3 1-.3s.6 0 .9.3c.3.2.5.5.8.9l1.7 3-.7.4-1.7-3c-.2-.4-.5-.6-.8-.7s-.6 0-1 .1c-.2.1-.4.3-.5.5s-.2.4-.2.7 0 .5.2.8h.1ZM495.4 221.4c-.5.3-.9.4-1.4.4s-.9-.1-1.2-.4c-.4-.3-.7-.6-1-1.1s-.4-1-.5-1.4c0-.5 0-.9.2-1.3s.5-.7.9-1c.2-.1.5-.2.8-.3h.9c.3 0 .6.2.9.5.3.2.6.6.8 1l.2.3-3.6 2.1-.4-.6 2.9-1.7c-.2-.3-.3-.5-.6-.6-.2-.1-.5-.2-.7-.2-.3 0-.5 0-.8.2s-.5.4-.6.6c-.1.3-.2.5-.2.8s.1.6.3.8l.2.4c.2.4.4.6.7.8.3.2.5.3.8.3s.6 0 .9-.3c.2-.1.3-.2.5-.4s.2-.3.3-.5 0-.4 0-.6l.8-.2v.8c0 .3-.2.5-.4.8-.2.2-.5.5-.8.6v.2ZM498.4 219.5l-2.7-4.7.7-.4.4.7c0-.3 0-.6.1-.9.1-.3.4-.5.6-.7 0 0 .1 0 .2-.1h.2l.4.7h-.2s-.2 0-.3.1c-.2.1-.4.3-.5.5s-.2.4-.2.6 0 .4.2.7l1.7 3-.7.4ZM503.5 216.7c-.4.2-.8.3-1.2.3s-.8-.2-1.2-.4c-.4-.3-.7-.7-1-1.2s-.5-1-.5-1.4 0-.9.2-1.3.5-.7.9-.9c.3-.2.6-.3.8-.3s.4 0 .6.1c.2 0 .3.1.4.2l-1.3-2.4.7-.4 3.6 6.3-.7.4-.4-.7v.5c0 .2 0 .4-.2.6-.1.2-.3.4-.6.6Zm-.3-.7c.3-.2.5-.4.6-.7s.1-.6 0-.9c0-.3-.2-.7-.4-1-.2-.4-.4-.6-.7-.8-.3-.2-.5-.3-.8-.4-.3 0-.6 0-.9.2s-.5.4-.6.7-.1.6 0 .9c0 .3.2.7.4 1 .2.3.4.6.7.8.3.2.5.3.8.4.3 0 .6 0 .9-.2ZM508 209.9l.4.7-2.8 1.6-.4-.7 2.8-1.6ZM512.2 206.6l-.5.6c-.1 0-.2-.2-.4-.2h-.5c-.2 0-.4 0-.6.2-.3.2-.5.4-.6.6-.1.2-.1.5 0 .7s.3.3.4.3h.8l.8-.2c.5-.1.9-.2 1.2 0 .3 0 .6.3.8.6.2.3.2.6.2.9s-.2.6-.4.9c-.2.3-.5.5-.9.7-.5.3-.9.4-1.4.4s-.8-.2-1.1-.6l.6-.6c.2.2.4.3.7.4.3 0 .5 0 .8-.2s.6-.4.7-.7.1-.5 0-.7c0-.2-.2-.3-.4-.3h-.7l-.9.3c-.5.1-.9.2-1.2 0-.3 0-.6-.3-.8-.6-.2-.3-.2-.5-.2-.8s.1-.6.3-.8.5-.5.8-.7c.5-.3.9-.4 1.3-.3.4 0 .7.2 1 .5l.2-.4ZM514.6 206.4l1.6 2.8-.7.4-3.6-6.3.7-.4 1.3 2.3c0-.3 0-.6.2-.9.1-.3.4-.5.8-.7.3-.2.6-.3 1-.3s.6 0 .9.3c.3.2.5.5.8.9l1.7 3-.7.4-1.7-3c-.2-.4-.5-.6-.8-.7-.3 0-.6 0-1 .2s-.4.3-.6.5c-.1.2-.2.4-.2.7s0 .5.2.8h.1ZM517.8 201c-.1 0-.3.1-.4 0-.2 0-.3-.1-.4-.3v-.4c0-.2.1-.3.3-.4.1 0 .3-.1.4 0 .2 0 .3.1.4.3v.4c0 .2-.1.3-.3.4Zm2.8 5.7-2.7-4.7.7-.4 2.7 4.7-.7.4ZM522.7 205.5l-2.7-4.7.7-.4.4.7c0-.3 0-.6.1-.9.1-.3.4-.5.7-.7.3-.2.6-.3.9-.2.3 0 .6.1.8.3 0-.3 0-.6.2-.9.2-.3.4-.5.7-.7.4-.2.8-.3 1.3-.2s.8.4 1.1 1l1.8 3.2-.7.4-1.8-3.2c-.2-.3-.4-.5-.7-.6-.3 0-.5 0-.8.2s-.5.4-.6.7c0 .3 0 .6.2.9l1.8 3.1-.7.4-1.9-3.2c-.2-.3-.4-.4-.6-.5-.3 0-.5 0-.8.1-.2.1-.3.3-.4.5s-.2.4-.2.6 0 .5.2.7l1.7 3-.7.4Z" />
    </g>
  </g>
  <path fill="#326de6" fill-opacity=".5" d="m509 124 58 35-58 35-58-35 58-35Z" />
  <path fill="#675cc7" d="m509 139 43 25-43 25-43-25 43-25Z" />
  <g class="st3">
    <g fill="#fff" class="st3">
      <path
        d="m493.9 167.7-2-6.7h1.1l1.4 5.1 1.4-5.1h1.1l1.4 5.1 1.4-5.1h1.1l-2 6.7h-1l-1.5-5.1h-.1l-1.5 5.1h-1 .2ZM504.3 167.9c-.4 0-.8 0-1.2-.2-.3-.2-.6-.4-.8-.7-.2-.3-.3-.7-.3-1.1s0-.7.2-.9l.6-.6c.3-.1.5-.2.8-.3.3 0 .6-.1.9-.2.4 0 .7 0 1-.1.3 0 .4 0 .6-.1s.2-.2.2-.3c0-.5-.1-.8-.3-1-.2-.2-.6-.4-1.1-.4s-.9.1-1.2.3c-.3.2-.5.4-.6.7l-1-.3c.2-.4.4-.7.7-.9.3-.2.6-.4 1-.5.3 0 .7-.1 1-.1h.7c.3 0 .5.2.8.3.3.2.5.4.7.7s.3.7.3 1.3v4.4h-1v-.9c0 .1-.2.3-.3.5s-.4.3-.6.4c-.3.1-.6.2-1 .2v-.2Zm.1-1c.4 0 .7 0 1-.2s.5-.4.6-.6c.1-.3.2-.5.2-.8v-.9s-.1 0-.3.1-.3 0-.5.1h-1c-.3 0-.5 0-.7.2-.2 0-.4.2-.6.3-.1.2-.2.4-.2.6s.1.6.4.8.6.3 1 .3h.1ZM513.9 162.5l-.9.3c0-.2-.1-.3-.3-.5-.1-.1-.3-.3-.5-.4-.2 0-.4-.1-.7-.1s-.7 0-1 .3-.4.4-.4.7 0 .5.3.6c.2.1.5.3.9.4l1 .2c.6.1 1 .4 1.3.7s.4.7.4 1.1-.1.7-.3 1c-.2.3-.5.5-.9.7s-.8.3-1.4.3-1.2-.1-1.7-.4c-.4-.3-.7-.7-.8-1.3l1-.2c0 .4.3.6.5.8.3.2.6.3 1 .3s.9-.1 1.1-.3.4-.5.4-.7 0-.4-.2-.6c-.2-.2-.4-.3-.7-.4l-1.1-.3c-.6-.1-1.1-.4-1.3-.7s-.4-.7-.4-1.1.1-.7.3-1c.2-.3.5-.5.9-.7s.8-.2 1.3-.2 1.2.1 1.6.4c.4.3.6.7.8 1.1h-.2ZM515.6 167.7V161h1v1c.1-.4.4-.6.7-.8s.7-.3 1.1-.3.8 0 1.1.3.5.5.7.8c.2-.3.4-.6.8-.8s.8-.3 1.2-.3 1.1.2 1.5.6c.4.4.6 1 .6 1.7v4.5h-1v-4.5c0-.5-.1-.8-.4-1.1-.3-.2-.6-.3-1-.3s-.8.1-1.1.4c-.3.3-.4.6-.4 1.1v4.3h-1V163c0-.4-.1-.7-.4-.9s-.6-.3-1-.3-.5 0-.7.2c-.2.1-.4.3-.6.6-.1.3-.2.5-.2.9v4.2h-1Z" />
    </g>
  </g>
  <g class="st3">
    <g fill="#fff" class="st3">
      <path
        d="M465.1 160.9c-.4.3-.9.4-1.3.3-.4 0-.9-.2-1.2-.4-.4-.3-.7-.6-1-1.1s-.4-1-.5-1.4c0-.5 0-.9.2-1.3s.5-.7.9-1c.3-.2.7-.3 1-.3s.7 0 1 .1.6.3.8.6l-.7.4c-.2-.2-.4-.3-.7-.4-.3 0-.6 0-.9.2s-.5.4-.6.6c-.1.3-.2.6-.1.9 0 .3.2.7.4 1 .2.4.5.7.7.9.3.2.6.3.9.3s.6 0 .9-.2c.2-.1.3-.2.5-.4.1-.2.2-.3.2-.5v-.6l.7-.4c.1.3.2.6.1.9 0 .3-.1.6-.3.9-.2.3-.5.5-.8.7l-.2.2ZM470 158.1c-.4.2-.9.4-1.3.3-.4 0-.9-.2-1.2-.4-.4-.3-.7-.6-1-1.1s-.4-1-.5-1.4c0-.5 0-.9.3-1.3.2-.4.5-.7.9-1s.9-.4 1.3-.3c.4 0 .9.2 1.2.4s.7.6 1 1.1.4 1 .5 1.4c0 .5 0 .9-.3 1.3-.2.4-.5.7-.9 1Zm-.4-.7c.3-.2.5-.4.7-.7.1-.3.1-.6 0-.9 0-.3-.2-.7-.4-1-.2-.3-.4-.6-.7-.8-.3-.2-.5-.3-.8-.4-.3 0-.6 0-.9.2s-.5.4-.7.7c-.1.3-.1.6 0 .9 0 .3.2.7.4 1 .2.3.4.6.7.8.3.2.5.3.8.4.3 0 .6 0 .9-.2ZM472.2 152.8l1.6 2.8-.7.4-2.7-4.7.7-.4.4.7c0-.3 0-.6.2-.9.1-.3.4-.5.7-.7.3-.2.6-.3 1-.3s.6 0 .9.3c.3.2.5.5.8.9l1.7 3-.7.4-1.7-3c-.2-.4-.5-.6-.8-.7-.3 0-.6 0-1 .1-.2.1-.4.3-.5.5s-.2.4-.2.7 0 .5.2.8h.1ZM477.5 147.3l.4.6-2.4 1.4-.4-.6 2.4-1.4Zm-2.3-.2.7-.4 2.6 4.5c.1.2.2.3.4.4s.2 0 .4 0 .2 0 .3-.1c0 0 .1 0 .2-.1h.1l.5.6s0 .1-.2.2-.2.1-.3.2c-.2.1-.4.2-.7.2s-.5 0-.7-.1-.4-.3-.6-.6l-2.7-4.7ZM482.8 150.7c-.3.2-.6.3-.9.3s-.6 0-.9-.2c-.3-.1-.5-.4-.7-.7s-.2-.5-.2-.8 0-.4.2-.6c.1-.2.3-.4.5-.6.2-.2.4-.3.6-.5.3-.2.5-.4.7-.5s.3-.2.3-.3v-.3c-.2-.3-.4-.5-.7-.6-.3 0-.6 0-.9.2s-.6.4-.7.7-.2.5-.1.7l-.8.2c0-.4 0-.7.1-1s.3-.5.5-.7.4-.4.7-.5c.2 0 .3-.2.6-.2s.5-.1.7-.1.5 0 .8.2.5.4.7.8l1.8 3.1-.7.4-.4-.6v.5c0 .2-.1.4-.3.6-.1.2-.4.4-.6.5h-.3Zm-.3-.8c.3-.2.5-.4.6-.6s.2-.5.2-.7 0-.5-.2-.7l-.4-.7s0 .1-.1.2l-.3.3c-.1 0-.2.2-.4.3s-.2.2-.3.2c-.2.1-.3.3-.5.4-.1.1-.2.3-.3.5 0 .2 0 .3.1.5.1.3.3.4.6.4s.5 0 .8-.2h.2ZM483.4 142.8c-.1 0-.3.1-.4 0-.2 0-.3-.1-.4-.3v-.4c0-.2.1-.3.3-.4s.3-.1.4 0c.2 0 .3.1.4.3s0 .3 0 .4c0 .2-.1.3-.3.4Zm2.8 5.7-2.7-4.7.7-.4 2.7 4.7-.7.4ZM487.4 144.1l1.6 2.8-.7.4-2.7-4.7.7-.4.4.7c0-.3 0-.6.2-.9s.4-.5.7-.7c.3-.2.6-.3 1-.3s.6 0 .9.3c.3.2.5.5.8.9l1.7 3-.7.4-1.7-3c-.2-.4-.5-.6-.8-.7s-.6 0-1 .1c-.2.1-.4.3-.5.5s-.2.4-.2.7 0 .5.2.8h.1ZM495.4 143.4c-.5.3-.9.4-1.4.4s-.9-.1-1.2-.4c-.4-.3-.7-.6-1-1.1s-.4-1-.5-1.4c0-.5 0-.9.2-1.3s.5-.7.9-1c.2-.1.5-.2.8-.3h.9c.3 0 .6.2.9.5.3.2.6.6.8 1l.2.3-3.6 2.1-.4-.6 2.9-1.7c-.2-.3-.3-.5-.6-.6-.2-.1-.5-.2-.7-.2-.3 0-.5 0-.8.2s-.5.4-.6.6c-.1.3-.2.5-.2.8s.1.6.3.8l.2.4c.2.4.4.6.7.8.3.2.5.3.8.3s.6 0 .9-.3c.2-.1.3-.2.5-.4s.2-.3.3-.5 0-.4 0-.6l.8-.2v.8c0 .3-.2.5-.4.8-.2.2-.5.5-.8.6v.2ZM498.4 141.5l-2.7-4.7.7-.4.4.7c0-.3 0-.6.1-.9.1-.3.4-.5.6-.7 0 0 .1 0 .2-.1h.2l.4.7h-.2s-.2 0-.3.1c-.2.1-.4.3-.5.5s-.2.4-.2.6 0 .4.2.7l1.7 3-.7.4ZM503.5 138.7c-.4.2-.8.3-1.2.3s-.8-.2-1.2-.4c-.4-.3-.7-.7-1-1.2s-.5-1-.5-1.4 0-.9.2-1.3.5-.7.9-.9c.3-.2.6-.3.8-.3s.4 0 .6.1c.2 0 .3.1.4.2l-1.3-2.4.7-.4 3.6 6.3-.7.4-.4-.7v.5c0 .2 0 .4-.2.6-.1.2-.3.4-.6.6Zm-.3-.7c.3-.2.5-.4.6-.7s.1-.6 0-.9c0-.3-.2-.7-.4-1-.2-.4-.4-.6-.7-.8-.3-.2-.5-.3-.8-.4-.3 0-.6 0-.9.2s-.5.4-.6.7-.1.6 0 .9c0 .3.2.7.4 1 .2.3.4.6.7.8.3.2.5.3.8.4.3 0 .6 0 .9-.2ZM508 131.9l.4.7-2.8 1.6-.4-.7 2.8-1.6ZM512.2 128.6l-.5.6c-.1 0-.2-.2-.4-.2h-.5c-.2 0-.4 0-.6.2-.3.2-.5.4-.6.6-.1.2-.1.5 0 .7s.3.3.4.3h.8l.8-.2c.5-.1.9-.2 1.2 0 .3 0 .6.3.8.6.2.3.2.6.2.9s-.2.6-.4.9c-.2.3-.5.5-.9.7-.5.3-.9.4-1.4.4s-.8-.2-1.1-.6l.6-.6c.2.2.4.3.7.4.3 0 .5 0 .8-.2s.6-.4.7-.7.1-.5 0-.7c0-.2-.2-.3-.4-.3h-.7l-.9.3c-.5.1-.9.2-1.2 0-.3 0-.6-.3-.8-.6-.2-.3-.2-.5-.2-.8s.1-.6.3-.8.5-.5.8-.7c.5-.3.9-.4 1.3-.3.4 0 .7.2 1 .5l.2-.4ZM514.6 128.4l1.6 2.8-.7.4-3.6-6.3.7-.4 1.3 2.3c0-.3 0-.6.2-.9.1-.3.4-.5.8-.7.3-.2.6-.3 1-.3s.6 0 .9.3c.3.2.5.5.8.9l1.7 3-.7.4-1.7-3c-.2-.4-.5-.6-.8-.7-.3 0-.6 0-1 .2-.2 0-.4.3-.6.5-.1.2-.2.4-.2.7s0 .5.2.8h.1ZM517.8 123h-.4c-.2 0-.3 0-.4-.3v-.4c0-.2.1-.3.3-.4h.4c.2 0 .3 0 .4.3v.4c0 .2-.1.3-.3.4Zm2.8 5.7-2.7-4.7.7-.4 2.7 4.7-.7.4ZM522.7 127.5l-2.7-4.7.7-.4.4.7c0-.3 0-.6.1-.9s.4-.5.7-.7c.3-.2.6-.3.9-.2.3 0 .6 0 .8.3 0-.3 0-.6.2-.9s.4-.5.7-.7c.4-.2.8-.3 1.3-.2s.8.4 1.1 1l1.8 3.2-.7.4-1.8-3.2c-.2-.3-.4-.5-.7-.6-.3 0-.5 0-.8.2s-.5.4-.6.7c0 .3 0 .6.2.9l1.8 3.1-.7.4-1.9-3.2c-.2-.3-.4-.4-.6-.5h-.8c-.2 0-.3.3-.4.5s-.2.4-.2.6 0 .5.2.7l1.7 3-.7.4Z" />
    </g>
  </g>
</svg>