<svg xmlns="http://www.w3.org/2000/svg" width="64" height="64" viewBox="0 0 64 64"><path fill="currentColor" d="M59.123 48.933c-7.229 0-13.138-5.549-17.309-11.258a9.5 9.5 0 0 0 3.216.558h.001c3.195 0 5.473-1.581 5.568-1.648l2.36-1.666h-2.878c-4.386 0-8.042-3.171-10.729-6.627c.437.089.88.149 1.334.149h.001c2.223 0 3.817-1.106 3.885-1.154l2.36-1.666h-2.878c-3.25 0-5.905-2.681-7.815-5.541l1.112.593l-.464-2.741l-.558-3.291l2.364-2.332l1.968-1.941l-2.72-.4l-3.266-.481l-1.462-2.995L32 4l-1.216 2.493l-1.46 2.995l-3.266.481l-2.719.4l1.968 1.941l2.364 2.331l-.559 3.291l-.465 2.741l1.115-.594c-1.909 2.859-4.565 5.542-7.815 5.542h-2.879l2.362 1.666c.06.042 1.351.929 3.218 1.115a4.36 4.36 0 0 0-3.21 4.21c0 .192.032.376.056.562c-1.688 1.066-3.552 1.745-5.574 1.745h-2.878l2.361 1.666c.095.067 2.373 1.648 5.568 1.648a9.5 9.5 0 0 0 3.217-.558c-4.171 5.709-10.079 11.258-17.309 11.258H2l2.361 1.664c.138.099 3.441 2.391 8.092 2.391c2.098 0 4.119-.471 6.048-1.387q.315.279.68.492a218 218 0 0 1-3.241 6.879l-.557 1.151l1.26.166s.141.019.399.019c1.565 0 6.663-.661 10.67-8.591c.298.916.268 10.283.268 10.283h8.042s-.032-9.367.267-10.284c4.008 7.932 9.105 8.592 10.671 8.592c.258 0 .398-.019.398-.019l1.271-.167l-.567-1.15a211 211 0 0 1-2.267-4.747a4.35 4.35 0 0 0 1.879-1.8c1.259.367 2.55.563 3.874.563c4.652 0 7.955-2.292 8.094-2.391L62 48.933zM41.022 34.441c0 1.658-1.328 3.003-2.969 3.003c-1.639 0-2.968-1.345-2.968-3.003s1.329-3.005 2.968-3.005c1.641.001 2.969 1.346 2.969 3.005M32 40.303c1.64 0 2.968 1.345 2.968 3.005S33.64 46.312 32 46.312c-1.641 0-2.968-1.345-2.968-3.004c0-1.661 1.327-3.005 2.968-3.005m-2.968-14.574c0-1.659 1.327-3.004 2.968-3.004c1.64 0 2.968 1.345 2.968 3.004c0 1.658-1.328 3.003-2.968 3.003c-1.641-.001-2.968-1.346-2.968-3.003m-2.779-14.402l3.971-.584L32 7.1l1.777 3.643l3.971.584l-2.874 2.835l.678 4.002L32 16.275l-3.552 1.889l.68-4.002zm-5.46 21.284c0-1.659 1.33-3.004 2.969-3.004c1.64 0 2.968 1.345 2.968 3.004c0 1.658-1.328 3.003-2.968 3.003s-2.969-1.344-2.969-3.003m3.509 15.71c0 1.658-1.33 3.003-2.968 3.003c-1.64 0-2.968-1.345-2.968-3.003c0-1.66 1.328-3.005 2.968-3.005c1.638 0 2.968 1.345 2.968 3.005m19.614 4.983c-1.64 0-2.968-1.344-2.968-3.003s1.328-3.003 2.968-3.003c1.641 0 2.969 1.344 2.969 3.003s-1.328 3.003-2.969 3.003"/></svg>