<svg width="42" height="50" viewBox="0 0 42 50" fill="none" xmlns="http://www.w3.org/2000/svg" stroke-width="3">
  <path
    d="M11.1199 12C11.4147 14.6959 11.2935 17.5112 11.2935 20.2549C11.2935 22.8288 10.5391 24.9509 9.38311 27.1765C8.23467 29.3875 7.43731 31.329 3.89469 32.3877C0.352061 33.4463 2.08875 32.2941 6.52713 32.2941C11.6864 32.0536 11.8145 39.1765 11.9882 42C12.1619 44.8235 12.5092 48 12.1508 48C11.7924 48 12.1293 38.2515 13.86 34.6667C14.9884 32.3296 15.9827 31.4118 18.0668 30.3648C20.1509 29.3178 22.5824 29.1176 19.6299 29.2059C17.4873 29.2699 16.2303 28.661 14.7375 27.2252C12.0052 24.5974 11.8543 21.3508 11.2935 17.6471"
    stroke="currentColor" stroke-width="inherit" stroke-linecap="round" />
  <path
    d="M33.7406 2C34.751 6.43671 32.2868 14.0559 27.4515 14.5657C27.3739 14.5934 27.0619 14.5555 27.0172 14.6016C26.9135 14.7087 27.3063 14.6523 27.4515 14.6734C29.6802 14.9969 30.4552 15.7235 31.708 18.6406C32.9607 21.5576 32.7957 24.2737 32.7957 27.6879C32.7957 28.3341 32.631 29.1362 32.6461 28.9803C33.0075 25.2459 34.0906 20.4127 36.4856 17.752C38.4488 15.5709 41.0895 15.0145 39.5259 14.8439C37.9623 14.6734 35.6904 13.6224 34.8351 11.8551C33.6464 9.3985 33.9179 5.7982 33.9179 3.13091"
    stroke="currentColor" stroke-width="inherit" stroke-linecap="round" />
</svg>