<svg width="111" height="38" viewBox="0 0 111 38" fill="none" xmlns="http://www.w3.org/2000/svg"> <g clip-path="url(#clip0_1071_4993)"> <path fill-rule="evenodd" clip-rule="evenodd" d="M45.2701 26.0997C44.6539 26.4722 43.0393 26.6336 42.2382 26.6336C40.0073 26.6336 38.6639 25.4542 38.6639 23.4305V13.1757L37.3451 13.0391V10.0844H42.7681V22.3132C42.7681 23.0084 43.1625 23.3064 43.9637 23.3064H44.8018L45.2701 26.0997Z" fill="#112031"></path> <path fill-rule="evenodd" clip-rule="evenodd" d="M69.982 17.7196C70.4134 18.1666 70.5367 18.7377 70.5367 19.3088C70.5367 21.7918 68.7742 23.0954 64.6946 23.0954C64.1276 23.0954 63.1539 23.0209 63.1416 23.0209C62.9074 23.0209 62.8581 23.1574 62.8458 23.2195C62.6856 23.7782 63.1293 23.8651 64.2508 24.0637L67.48 24.5603C70.1669 24.9824 70.8201 26.286 70.8201 27.9124C70.8201 30.0354 69.6985 31.5996 64.596 31.5996C62.8088 31.5996 60.8121 31.3886 59.1483 31.103V28.2228C61.1572 28.3842 62.7595 28.5331 64.6453 28.5331C66.1736 28.5331 66.7528 28.4835 66.7528 27.9C66.7775 27.4282 66.2352 27.2916 65.0397 27.0806L62.0816 26.5964C60.1589 26.2364 59.592 25.1066 59.6289 24.0141C59.6536 23.3561 59.974 22.7105 60.5163 22.3132C59.3085 21.6552 58.7538 20.5627 58.7538 19.0232C58.7538 15.9567 60.9354 15.0504 64.7562 15.0504H72.2129V17.7196H69.982ZM66.0626 17.7196H64.7069C63.4251 17.7196 63.006 18.03 63.006 19.1101C63.006 20.2027 63.462 20.6496 64.7069 20.6496C65.964 20.6496 66.3584 20.1778 66.3584 19.0853C66.3584 18.4273 66.2475 18.0052 66.0626 17.7196Z" fill="#112031"></path> <path fill-rule="evenodd" clip-rule="evenodd" d="M95.3471 15.0504H93.3751H91.9947V15.9815V16.0188V17.7445V18.6756H93.3751V23.6664V26.6212H97.541V23.6664V15.0504H95.3471Z" fill="#112031"></path> <path fill-rule="evenodd" clip-rule="evenodd" d="M94.7555 9.26501C95.9263 9.26501 96.7521 10.1341 96.7521 11.3383C96.7521 12.5302 95.9263 13.3992 94.7555 13.3992C93.6092 13.3992 92.7834 12.5302 92.7834 11.3383C92.7834 10.1217 93.6092 9.26501 94.7555 9.26501Z" fill="#112031"></path> <path fill-rule="evenodd" clip-rule="evenodd" d="M88.4204 22.4994C89.5913 22.4994 90.4047 23.3684 90.4047 24.5727C90.4047 25.7645 89.5789 26.6336 88.4204 26.6336C87.2741 26.6336 86.4484 25.7645 86.4484 24.5727C86.4484 23.356 87.2741 22.4994 88.4204 22.4994Z" fill="#112031"></path> <path fill-rule="evenodd" clip-rule="evenodd" d="M51.9873 23.8527C50.5453 23.8527 49.51 22.7601 49.51 21.2703C49.51 19.7433 50.5453 18.6508 51.9873 18.6508C53.454 18.6508 54.4893 19.7433 54.4893 21.2703C54.4893 22.7726 53.454 23.8527 51.9873 23.8527ZM51.975 15.0504C48.5363 15.0504 46.0713 17.6452 46.0713 21.2952C46.0713 24.8707 48.5363 27.4654 51.975 27.4654C55.4753 27.4654 57.9404 24.8707 57.9404 21.2952C57.9404 17.6452 55.4753 15.0504 51.975 15.0504Z" fill="#112031"></path> <path fill-rule="evenodd" clip-rule="evenodd" d="M105.047 23.8527C103.605 23.8527 102.57 22.7601 102.57 21.2703C102.57 19.7433 103.605 18.6508 105.047 18.6508C106.514 18.6508 107.549 19.7433 107.549 21.2703C107.549 22.7726 106.514 23.8527 105.047 23.8527ZM105.035 15.0504C101.596 15.0504 99.1309 17.6452 99.1309 21.2952C99.1309 24.8707 101.596 27.4654 105.035 27.4654C108.535 27.4654 111 24.8707 111 21.2952C111 17.6452 108.535 15.0504 105.035 15.0504Z" fill="#112031"></path> <path fill-rule="evenodd" clip-rule="evenodd" d="M83.2808 26.6336H72.9893V23.7658L78.7821 17.8935H75.9597H75.7871H73.6919V15.0504H83.1822V17.8935L77.4264 23.7658L80.5076 23.7906V22.3753H83.2808V26.6336Z" fill="#112031"></path> <path d="M32.526 9.81124C32.5137 9.74916 32.5137 9.6995 32.489 9.63743C32.4767 9.58777 32.4397 9.53811 32.4151 9.48845C32.3904 9.43879 32.3658 9.40154 32.3288 9.35188C32.2918 9.30222 32.2425 9.27739 32.1932 9.24014C32.1686 9.21531 32.1439 9.19049 32.1193 9.16566L16.7868 0.264079C16.528 0.115099 16.1952 0.115099 15.9364 0.264079L0.616256 9.17807C0.603931 9.19049 0.591606 9.2029 0.57928 9.21531C0.52998 9.24014 0.493005 9.2898 0.456029 9.32705C0.406729 9.3643 0.369754 9.40154 0.345103 9.4512C0.332778 9.46362 0.320453 9.47603 0.308128 9.50086C0.283478 9.52569 0.283478 9.56294 0.271153 9.60018C0.246502 9.64984 0.234177 9.6995 0.221852 9.76158C0.209527 9.81124 0.209527 9.8609 0.209527 9.92297C0.209527 9.97263 0.209527 10.0347 0.221852 10.0844C0.234177 10.1464 0.246502 10.1961 0.271153 10.2458C0.283478 10.283 0.283478 10.3078 0.308128 10.3451C0.320453 10.3575 0.332778 10.3699 0.345103 10.3823C0.382079 10.432 0.419054 10.4692 0.456029 10.5065C0.493005 10.5437 0.52998 10.5934 0.57928 10.6182C0.591606 10.6306 0.603931 10.643 0.616256 10.6555L8.43038 15.1373L15.505 19.197V26.2363L1.28181 17.9803C1.25716 17.9679 1.23251 17.9679 1.20786 17.9555C1.15856 17.9307 1.12159 17.9183 1.07229 17.9058C1.01066 17.8934 0.949034 17.8686 0.887408 17.8686C0.862758 17.8686 0.850433 17.8562 0.825783 17.8562C0.788808 17.8562 0.764157 17.8686 0.727182 17.881C0.665556 17.8934 0.603931 17.9058 0.55463 17.9183C0.50533 17.9307 0.456029 17.9555 0.419054 17.9803C0.369754 18.0052 0.320453 18.0424 0.283478 18.0796C0.234177 18.1169 0.209527 18.1665 0.172552 18.2038C0.147901 18.2286 0.123251 18.2535 0.110926 18.2783C0.0986009 18.2907 0.0986009 18.3155 0.0862758 18.3404C0.0616256 18.39 0.0493005 18.4397 0.0369754 18.5018C0.0246502 18.5638 0.0123251 18.6135 0.0123251 18.6756C0.0123251 18.7004 0 18.7128 0 18.7376L0.197202 27.6516C0.209527 27.9496 0.369754 28.2227 0.628581 28.3717L15.9487 37.2857C16.0843 37.3602 16.2322 37.3974 16.3801 37.3974C16.528 37.3974 16.6759 37.3602 16.8115 37.2857L32.1316 28.3717C32.3904 28.2227 32.563 27.9372 32.563 27.6268V9.92297C32.5383 9.88573 32.526 9.84848 32.526 9.81124ZM17.2182 19.2094L23.0849 15.7953V22.7353L17.2182 26.2363V19.2094ZM16.3678 17.732L10.5503 14.3924L16.3801 10.9162L22.2345 14.3179L16.3678 17.732ZM16.3678 35.5476L1.88574 27.1302L1.73784 20.2274L15.9487 28.4959C15.9734 28.5083 15.9857 28.5083 16.0103 28.5207C16.035 28.5331 16.0596 28.5455 16.0843 28.5455C16.1829 28.5828 16.2815 28.6076 16.3801 28.6076C16.4787 28.6076 16.5773 28.5828 16.6759 28.5455C16.7005 28.5331 16.7252 28.5207 16.7498 28.5083C16.7745 28.4959 16.7991 28.4959 16.8115 28.4834L24.3791 23.9768C24.6379 23.8278 24.7981 23.5423 24.7981 23.2443V14.3303C24.7981 14.2558 24.7858 14.1813 24.7735 14.1193C24.7735 14.1193 24.7735 14.1193 24.7735 14.1068C24.7488 14.0075 24.6995 13.9206 24.6502 13.8461C24.6379 13.8213 24.6256 13.8089 24.6009 13.784C24.5393 13.7096 24.4654 13.6351 24.3791 13.5854L16.8115 9.19049C16.5403 9.0415 16.2199 9.0415 15.9487 9.19049L8.86176 13.424L2.76083 9.91056L16.3678 1.98977L30.8374 10.4072V27.1302L16.3678 35.5476Z" fill="#112031"></path> </g> <defs> <clipPath id="clip0_1071_4993"> <rect width="111" height="37.2451" fill="white" transform="translate(0 0.152344)"></rect> </clipPath> </defs> </svg>